<svg xmlns="http://www.w3.org/2000/svg" xmlns:xlink="http://www.w3.org/1999/xlink" width="1240" height="477.52" viewBox="0 0 1240 477.52">
  <defs>
    <clipPath id="clip-path">
      <path id="Rectangle_652" data-name="Rectangle 652" d="M1220.473,476.7H19.528C8.743,476.7,0,468.8,0,459.046V17.656C0,7.9,8.743,0,19.528,0H1220.473C1231.257,0,1240,7.9,1240,17.656V459.046C1240,468.8,1231.257,476.7,1220.473,476.7Z" fill="none" opacity="0.238"/>
    </clipPath>
    <clipPath id="clip-path-2">
      <rect id="Rectángulo_34915" data-name="Rectángulo 34915" width="129" height="59" transform="translate(0)" fill="#91b3fa" stroke="#707070" stroke-width="1"/>
    </clipPath>
    <clipPath id="clip-path-3">
      <rect id="Rectángulo_361780" data-name="Rectángulo 361780" width="129" height="59" transform="translate(0)" fill="#4adbd1" stroke="#707070" stroke-width="1"/>
    </clipPath>
    <linearGradient id="linear-gradient" x1="7.465" y1="0.5" x2="6.465" y2="0.5" gradientUnits="objectBoundingBox">
      <stop offset="0" stop-color="#09005d"/>
      <stop offset="1" stop-color="#1a0f91"/>
    </linearGradient>
    <linearGradient id="linear-gradient-2" x1="2.963" y1="0.5" x2="1.963" y2="0.5" xlink:href="#linear-gradient"/>
    <linearGradient id="linear-gradient-3" x1="2.887" y1="0.5" x2="1.887" y2="0.5" xlink:href="#linear-gradient"/>
    <linearGradient id="linear-gradient-4" x1="1.538" y1="0.5" x2="0.538" y2="0.5" xlink:href="#linear-gradient"/>
    <linearGradient id="linear-gradient-5" x1="0.365" y1="0.5" x2="-0.635" y2="0.5" xlink:href="#linear-gradient"/>
    <linearGradient id="linear-gradient-6" x1="1.157" y1="0.5" x2="0.157" y2="0.5" xlink:href="#linear-gradient"/>
    <linearGradient id="linear-gradient-7" x1="3.783" y1="0.5" x2="2.783" y2="0.5" xlink:href="#linear-gradient"/>
    <linearGradient id="linear-gradient-8" x1="11.081" y1="0.5" x2="10.081" y2="0.5" xlink:href="#linear-gradient"/>
    <linearGradient id="linear-gradient-9" x1="89.925" y1="194.877" x2="88.925" y2="194.877" xlink:href="#linear-gradient"/>
    <linearGradient id="linear-gradient-10" x1="97.951" y1="204.32" x2="96.951" y2="204.32" xlink:href="#linear-gradient"/>
    <linearGradient id="linear-gradient-11" x1="95.508" y1="222.19" x2="94.508" y2="222.19" xlink:href="#linear-gradient"/>
    <linearGradient id="linear-gradient-12" x1="68.143" y1="0.5" x2="67.147" y2="0.5" xlink:href="#linear-gradient"/>
    <linearGradient id="linear-gradient-13" x1="29.251" y1="0.5" x2="28.255" y2="0.5" xlink:href="#linear-gradient"/>
    <linearGradient id="linear-gradient-14" x1="13.592" y1="0.5" x2="12.597" y2="0.5" xlink:href="#linear-gradient"/>
    <linearGradient id="linear-gradient-15" x1="-20.368" y1="0.5" x2="-21.364" y2="0.5" xlink:href="#linear-gradient"/>
    <linearGradient id="linear-gradient-16" x1="40.076" y1="0.5" x2="39.076" y2="0.5" xlink:href="#linear-gradient"/>
    <linearGradient id="linear-gradient-17" x1="28.882" y1="0.5" x2="27.882" y2="0.5" xlink:href="#linear-gradient"/>
    <linearGradient id="linear-gradient-18" x1="16.648" y1="0.499" x2="15.648" y2="0.499" xlink:href="#linear-gradient"/>
    <linearGradient id="linear-gradient-19" x1="-3.698" y1="0.499" x2="-4.698" y2="0.499" xlink:href="#linear-gradient"/>
  </defs>
  <g id="Grupo_1022859" data-name="Grupo 1022859" transform="translate(-180 -3267.733)">
    <path id="Trazado_730055" data-name="Trazado 730055" d="M23,0H1217c12.7,0,23,9.441,23,21.088V454.77c0,11.647-10.3,21.088-23,21.088H23c-12.7,0-23-9.441-23-21.088V21.088C0,9.441,10.3,0,23,0Z" transform="translate(180 3267.733)" fill="#f6f6f6"/>
    <g id="Grupo_80238" data-name="Grupo 80238" transform="translate(180 3268.551)" clip-path="url(#clip-path)">
      <g id="Grupo_80237" data-name="Grupo 80237" transform="translate(16 0)" clip-path="url(#clip-path-2)">
        <g id="Grupo_80236" data-name="Grupo 80236" transform="translate(3 -68)">
          <path id="Sustracción_11" data-name="Sustracción 11" d="M62.5,0A62.962,62.962,0,0,0,49.9,1.27a62.158,62.158,0,0,0-22.348,9.4,62.682,62.682,0,0,0-22.644,27.5A62.187,62.187,0,0,0,1.27,49.9a63.11,63.11,0,0,0,0,25.192,62.158,62.158,0,0,0,9.4,22.348,62.682,62.682,0,0,0,27.5,22.644A62.188,62.188,0,0,0,49.9,123.73a63.11,63.11,0,0,0,25.192,0,62.158,62.158,0,0,0,22.348-9.4,62.682,62.682,0,0,0,22.644-27.5A62.188,62.188,0,0,0,123.73,75.1a63.11,63.11,0,0,0,0-25.192,62.158,62.158,0,0,0-9.4-22.348,62.682,62.682,0,0,0-27.5-22.644A62.187,62.187,0,0,0,75.1,1.27,62.962,62.962,0,0,0,62.5,0Zm-.233,95.339a32.846,32.846,0,0,1-6.571-.662A32.428,32.428,0,0,1,44.037,89.77,32.7,32.7,0,0,1,32.224,75.425a32.441,32.441,0,0,1-1.9-6.121,32.924,32.924,0,0,1,0-13.143A32.427,32.427,0,0,1,35.23,44.5,32.7,32.7,0,0,1,49.575,32.689a32.441,32.441,0,0,1,6.121-1.9,32.924,32.924,0,0,1,13.142,0A32.428,32.428,0,0,1,80.5,35.7,32.7,32.7,0,0,1,92.311,50.041a32.44,32.44,0,0,1,1.9,6.121,32.924,32.924,0,0,1,0,13.143A32.428,32.428,0,0,1,89.3,80.963,32.7,32.7,0,0,1,74.959,92.777a32.44,32.44,0,0,1-6.12,1.9A32.846,32.846,0,0,1,62.267,95.339Z" fill="#91b3fa"/>
        </g>
      </g>
      <g id="Grupo_1025926" data-name="Grupo 1025926" transform="translate(1201 476.702) rotate(180)" clip-path="url(#clip-path-3)">
        <g id="Grupo_1025925" data-name="Grupo 1025925" transform="translate(3 -68)">
          <path id="Sustracción_12" data-name="Sustracción 12" d="M62.5,0A62.962,62.962,0,0,0,49.9,1.27a62.158,62.158,0,0,0-22.348,9.4,62.682,62.682,0,0,0-22.644,27.5A62.187,62.187,0,0,0,1.27,49.9a63.11,63.11,0,0,0,0,25.192,62.158,62.158,0,0,0,9.4,22.348,62.682,62.682,0,0,0,27.5,22.644A62.188,62.188,0,0,0,49.9,123.73a63.11,63.11,0,0,0,25.192,0,62.158,62.158,0,0,0,22.348-9.4,62.682,62.682,0,0,0,22.644-27.5A62.188,62.188,0,0,0,123.73,75.1a63.11,63.11,0,0,0,0-25.192,62.158,62.158,0,0,0-9.4-22.348,62.682,62.682,0,0,0-27.5-22.644A62.187,62.187,0,0,0,75.1,1.27,62.962,62.962,0,0,0,62.5,0Zm-.233,95.339a32.846,32.846,0,0,1-6.571-.662A32.428,32.428,0,0,1,44.037,89.77,32.7,32.7,0,0,1,32.224,75.425a32.441,32.441,0,0,1-1.9-6.121,32.924,32.924,0,0,1,0-13.143A32.427,32.427,0,0,1,35.23,44.5,32.7,32.7,0,0,1,49.575,32.689a32.441,32.441,0,0,1,6.121-1.9,32.924,32.924,0,0,1,13.142,0A32.428,32.428,0,0,1,80.5,35.7,32.7,32.7,0,0,1,92.311,50.041a32.44,32.44,0,0,1,1.9,6.121,32.924,32.924,0,0,1,0,13.143A32.428,32.428,0,0,1,89.3,80.963,32.7,32.7,0,0,1,74.959,92.777a32.44,32.44,0,0,1-6.12,1.9A32.846,32.846,0,0,1,62.267,95.339Z" fill="#4adbd1"/>
        </g>
      </g>
      <path id="Trazado_151751" data-name="Trazado 151751" d="M1370.308,562.552,1263.417,256.8l29.441-140.1L1081.98.17c-2.77,3.078-5.329,6.387-8.35,9.2-22.625,21.045-43.852,43.95-68.341,62.553C956.736,108.8,902.895,115.15,846.309,91.371q-29.539-12.414-58.3-26.645C752.518,47.12,715.667,36.657,675.582,39c-25.089,1.465-47.244,9.248-66.557,25.578-28.905,24.443-49.031,56.11-71.8,85.647-12.067,15.652-24.387,31.234-37.911,45.611-27.812,29.566-61.6,43.1-103.088,39.42-44.63-3.964-81.914-19.008-108.855-56.61-22.482-31.376-45.261-62.688-70.049-92.228C177.193,38.6,124.8,22.513,64.2,34.851,42.509,39.266,21.58,47.423.3,53.871L133.982,420.9Z" transform="matrix(0.891, -0.454, 0.454, 0.891, 217.233, 443.504)" fill="none" stroke="#fff" stroke-width="1" opacity="0.81"/>
      <g id="Grupo_1020679" data-name="Grupo 1020679" transform="translate(-16.569 -38.872)" opacity="0.1">
        <path id="Trazado_117938" data-name="Trazado 117938" d="M1415.807,100.088a.408.408,0,0,0,.115,0,.128.128,0,0,0,.089-.077.268.268,0,0,0,0-.077.216.216,0,0,0,0-.153c.076-1.033-.42-5.765-3.617-29.078-2.114-15.381-5.094-36.782-8.991-63.628-6.546-45.7-13.308-91.929-13.372-92.4a.293.293,0,0,0-.191-.217.331.331,0,0,0-.306,0l-117.316,76.2a.255.255,0,0,0-.128.2.32.32,0,0,0,.1.217L1415.03,99.617l-231.92,23.7v.536L1414.648,100.2c-2.2,1.492-8.38,6.288-26.591,20.852-15.282,12.193-36.932,29.652-64.453,51.933-50.533,40.876-109.841,89.1-140.685,114.2l.42.4C1325.858,171.637,1412.636,101.644,1415.807,100.088ZM1389.534-84.84c8.915,61.218,25.47,175.351,25.954,184.062L1272.957-9.122Z" transform="translate(-1182.919 198.183)" fill="url(#linear-gradient)"/>
        <path id="Trazado_117939" data-name="Trazado 117939" d="M1028.975,179.574a.217.217,0,0,0,.14-.2l12.149-211.393,186.4,68.13a.394.394,0,0,0,.242,0,.267.267,0,0,0,.166-.14l47.693-96.928a.256.256,0,0,0,0-.218.255.255,0,0,0-.167-.139L1142.2-110.5l-36.614-63.373-.56.242,36.665,63.463a.255.255,0,0,0,.153.128l133.21,49.166-47.426,96.38L1041.1-32.674a.369.369,0,0,0-.344,0l-195.242,156.6a.255.255,0,0,0,.115.446l183.068,55.236h.115a.28.28,0,0,0,.166-.038Zm11.653-211.355-12.111,210.755-182.2-54.956Z" transform="translate(-612.879 173.87)" fill="url(#linear-gradient-2)"/>
        <path id="Trazado_117940" data-name="Trazado 117940" d="M1036.733,249.76h0l296.589-78.614a.268.268,0,0,0,.217-.319l-40.8-180.236a.28.28,0,0,0-.2-.2.369.369,0,0,0-.306,0l-198.987,143.5a.178.178,0,0,0-.089.1l-56.557,114.924L910.617,78.758a.331.331,0,0,0-.306-.128.306.306,0,0,0-.255.2L850.826,283.557l.611.128L910.515,79.574,1036.2,249.364,930.726,283.378l.217.5ZM1292.226-8.822l40.752,179.56-295.735,78.372,56.506-114.783Z" transform="translate(-677.513 219.093)" fill="url(#linear-gradient-3)"/>
        <path id="Trazado_117941" data-name="Trazado 117941" d="M782.475,63.933,954.463,38.2a.318.318,0,0,0,.229-.14.242.242,0,0,0,0-.242L870.7-109.646a.318.318,0,0,0-.191-.14.394.394,0,0,0-.242,0L622.6,17.981a.294.294,0,0,0-.153.268.305.305,0,0,0,.216.23L782.322,63.92h.153Zm87.872-173.068L953.941,37.724,782.449,63.4,623.515,18.147Z" transform="translate(-7.847 191.512)" fill="url(#linear-gradient-4)"/>
        <path id="Trazado_117942" data-name="Trazado 117942" d="M597.221,239.406,870.365,205.43v-.14l.242.1a.343.343,0,0,0,.331,0,.255.255,0,0,0,.115-.281L769.35-158.855a.331.331,0,0,0-.369-.2L433.575-96.285a.343.343,0,0,0-.229.153l-88.1,173.093.573.217L433.855-95.788l334.934-62.685L870.263,204.652,517.856,51.25a.331.331,0,0,0-.344,0,.23.23,0,0,0-.089.293L596.89,239.2a.318.318,0,0,0,.293.179Zm272.4-34.435L597.387,238.832l-79.1-186.791Z" transform="translate(428.836 177.947)" fill="url(#linear-gradient-5)"/>
        <path id="Trazado_117943" data-name="Trazado 117943" d="M822.041,245.275l-.42-.4L929.869,159.3,561,132.29,680.8,244.522l-.458.37L559.99,132.149a.255.255,0,0,1,0-.306.343.343,0,0,1,.305-.153l370.351,27.178a.306.306,0,0,1,.28.179.243.243,0,0,1-.089.281Z" transform="translate(95.539 258.013)" fill="url(#linear-gradient-6)"/>
        <path id="Trazado_117944" data-name="Trazado 117944" d="M1035.913,252.749l-.573-.217,54.888-112.424L850.807,103.416l.115-.536,239.752,36.756a.344.344,0,0,1,.216.128.268.268,0,0,1,0,.242Z" transform="translate(-434.865 250.079)" fill="url(#linear-gradient-7)"/>
        <path id="Trazado_117945" data-name="Trazado 117945" d="M1103.631,227.976l-92.011-34.129.255-.5,92,34.129Z" transform="translate(-652.617 274.992)" fill="url(#linear-gradient-8)"/>
        <g id="Grupo_54547" data-name="Grupo 54547" transform="translate(497.753 350.102)">
          <ellipse id="Elipse_4152" data-name="Elipse 4152" cx="23.827" cy="20.533" rx="23.827" ry="20.533" transform="translate(0 0)" opacity="0.51" fill="url(#linear-gradient-9)"/>
        </g>
        <g id="Grupo_54548" data-name="Grupo 54548" transform="translate(81.39 379.283)">
          <ellipse id="Elipse_4153" data-name="Elipse 4153" cx="23.827" cy="20.533" rx="23.827" ry="20.533" transform="translate(0 0)" opacity="0.31" fill="url(#linear-gradient-10)"/>
        </g>
        <g id="Grupo_54549" data-name="Grupo 54549" transform="translate(1013.246 399.816)">
          <ellipse id="Elipse_4154" data-name="Elipse 4154" cx="19.434" cy="16.746" rx="19.434" ry="16.746" opacity="0.55" fill="url(#linear-gradient-11)"/>
        </g>
        <path id="Trazado_117946" data-name="Trazado 117946" d="M1085.5,201.32c-4.19,0-7.577-2.921-7.577-6.53s3.388-6.53,7.577-6.53,7.641,2.921,7.641,6.53S1089.675,201.32,1085.5,201.32Z" transform="translate(-726.316 273.59)" fill="url(#linear-gradient-12)"/>
        <path id="Trazado_117947" data-name="Trazado 117947" d="M853.211,139.89c-4.19,0-7.641-2.921-7.641-6.53s3.387-6.53,7.641-6.53,7.577,2.921,7.577,6.53S857.4,139.89,853.211,139.89Z" transform="translate(-198.065 256.674)" fill="url(#linear-gradient-13)"/>
        <path id="Trazado_117948" data-name="Trazado 117948" d="M759.577,33.98c-4.19,0-7.577-2.921-7.577-6.53s3.388-6.53,7.577-6.53,7.641,2.921,7.641,6.53S763.806,33.98,759.577,33.98Z" transform="translate(14.668 227.51)" fill="url(#linear-gradient-14)"/>
        <path id="Trazado_117949" data-name="Trazado 117949" d="M556.648,161.07c-4.177,0-7.577-2.921-7.577-6.53s3.4-6.53,7.577-6.53,7.641,2.921,7.641,6.53S560.837,161.07,556.648,161.07Z" transform="translate(476.032 262.507)" fill="url(#linear-gradient-15)"/>
        <path id="Trazado_117950" data-name="Trazado 117950" d="M1186.391,77c-9,0-16.3-6.288-16.3-14.029s7.3-14.029,16.3-14.029,16.3,6.288,16.3,14.029S1195.395,77,1186.391,77Z" transform="translate(-953.249 235.226)" fill="url(#linear-gradient-16)"/>
        <ellipse id="Elipse_4155" data-name="Elipse 4155" cx="16.301" cy="14.042" rx="16.301" ry="14.042" transform="translate(399.31 339.249)" fill="url(#linear-gradient-17)"/>
        <path id="Trazado_117951" data-name="Trazado 117951" d="M886.5,7.528c-9,0-16.3-6.288-16.3-14.029s7.3-14.029,16.3-14.029S902.8-14.242,902.8-6.5,895.416,7.528,886.5,7.528Z" transform="translate(-271.445 216.096)" fill="url(#linear-gradient-18)"/>
        <path id="Trazado_117952" data-name="Trazado 117952" d="M626.074,23.628c-9,0-16.314-6.3-16.314-14.029S617.07-4.43,626.074-4.43s16.3,6.288,16.3,14.029S635.078,23.628,626.074,23.628Z" transform="translate(320.657 220.529)" fill="url(#linear-gradient-19)"/>
      </g>
    </g>
  </g>
</svg>
