<svg id="Grupo_1030481" data-name="Grupo 1030481" xmlns="http://www.w3.org/2000/svg" xmlns:xlink="http://www.w3.org/1999/xlink" width="175.864" height="175.879" viewBox="0 0 175.864 175.879">
  <defs>
    <clipPath id="clip-path">
      <rect id="Rectángulo_363844" data-name="Rectángulo 363844" width="175.864" height="175.879" fill="none"/>
    </clipPath>
  </defs>
  <g id="Grupo_1030480" data-name="Grupo 1030480" clip-path="url(#clip-path)">
    <path id="Trazado_771316" data-name="Trazado 771316" d="M165.73,359.94c-1.535-.832-3.26-.417-4.876-.625-6.557-.843-12.987-2.145-18.9-5.126-2.6-1.311-5.118-3.059-6.1-6.188a10.628,10.628,0,0,1-.288-3.282q-.024-21.621-.011-43.243c0-5.284,2.688-8.957,7.679-10.631a73.848,73.848,0,0,1,9.711-3.062,9.861,9.861,0,0,0,3.546-1.151c.778-.481,1.887.14,2.958.018,6.908-.784,13.837-1.537,20.814-.816,5.67.586,11.365,1.01,16.895,2.5a35.546,35.546,0,0,1,10.795,4.563,9.525,9.525,0,0,1,4.452,8.444q.007,21.621,0,43.243c0,4.261-2.284,7-5.879,9.034a42.035,42.035,0,0,1-13.634,4.727,65.67,65.67,0,0,1-9.445,1.267c-.577.016-1.293-.39-1.757.331Zm37.61-63.125c-.051-.2-.138-.348-.383-.278-3.211-2.278-7.394-2.056-10.673-4.155-.3-.191-.393.126-.589.181a4.828,4.828,0,0,1-2.507-.035,40.108,40.108,0,0,0-8.628-.925,83.645,83.645,0,0,0-11.958-.165c-4.9.486-9.811.732-14.628,1.849a34.977,34.977,0,0,0-11.444,4.343c-1.875,1.22-1.895,2.812-.058,4.075a25.637,25.637,0,0,0,5.781,2.955c8.174,2.983,16.734,3.593,25.28,3.757a90.9,90.9,0,0,0,13.4-.859,111.494,111.494,0,0,0,11.468-2.483,15.926,15.926,0,0,0,5.562-2.565l.4-.274c.489-.392,1-.761,1.462-1.181.53-.482,1-1.244.592-1.789-.8-1.051-1.508-2.35-3.092-2.465Zm3.291,26.135.114-.058-.044-.116q.015-7.345.032-14.688l.028-.118-.117-.047c-1.067-.128-1.79.593-2.616,1.06a56.3,56.3,0,0,1-5.762,1.921,52.85,52.85,0,0,1-11.587,2.113c-2.372.086-4.872.793-7.335.8-6.567.022-13.153.369-19.683-.681a65.492,65.492,0,0,1-10.615-2.249,52.089,52.089,0,0,1-7.826-3.058c0,4.909.013,9.576-.009,14.243a3.071,3.071,0,0,0,1.317,2.734,27.992,27.992,0,0,0,5.839,2.915c5.924,2.3,12.173,3.014,18.393,3.406A98.605,98.605,0,0,0,185.1,330.8c1.537-.191,3.1-.236,4.652-.54,2.259-.444,4.494-1.015,6.7-1.6,2.642-.7,5.358-1.453,7.6-3.208a4.921,4.921,0,0,0,2.585-2.5m-3.68,26.293c.753.271.816-.6,1.332-.821a4.019,4.019,0,0,0,2.476-4.177c-.078-3.588,0-7.18-.041-10.769-.01-.84.484-2.055-.29-2.442-.756-.378-1.637.535-2.412,1a88.787,88.787,0,0,1-11.129,3.223,75.973,75.973,0,0,1-13.793,1.59,118.033,118.033,0,0,1-14.806-.256c-3.9-.444-7.775-.948-11.621-1.777a46.528,46.528,0,0,1-11.445-4.092c0,4.5.171,8.807-.063,13.088-.146,2.68,1.051,4.06,3.219,5.169,7.2,3.683,15.028,4.868,22.92,5.2,6.358.264,12.755.44,19.139-.553,5.686-.885,11.3-1.818,16.515-4.373" transform="translate(-87.377 -184.061)"/>
    <path id="Trazado_771317" data-name="Trazado 771317" d="M0,62.8c.909-3.013,1.582-6.11,3.186-8.876a28.611,28.611,0,0,1,11.349-11.39A26.834,26.834,0,0,1,27.507,39.1c10.289.092,18.549,4.368,24.259,12.986a25.414,25.414,0,0,1,4.286,13.933c.044,3.616-.059,7.245-1.517,10.532-1.827,4.119-3.815,8.189-7.359,11.291a32.9,32.9,0,0,1-12.107,6.593,24,24,0,0,1-16.61-.591C8.8,89.824,2.108,82.812.341,71.984c-.02-.121-.224-.213-.341-.318V66.7a.857.857,0,0,0,0-1.418Zm35.164,7.155c-1.086.16-2.957-.636-3.887.292s-.233,2.8-.288,4.258c-.037.988-.258,2.194.205,2.914s1.747.144,2.658.279a16.108,16.108,0,0,1,1.661.394c1.907.493,2.692-.478,3.109-2.08.374-1.438.656-2.9,1.1-4.318.493-1.559-.082-1.945-1.55-1.758a26.436,26.436,0,0,1-3.011.02m-14.126,0c-1.385,0-2.505.054-3.618-.017-.883-.056-1.1.271-1.052,1.111a25.882,25.882,0,0,0,1.752,6.723c.213.623.7.679,1.414.467a9.514,9.514,0,0,1,3.555-.5c1.968.2,2.486-.617,2.223-2.358-.043-.288.01-.588-.009-.881-.095-1.454.622-3.323-.289-4.253s-2.8-.146-3.978-.3m-.313-5.668c1.18,0,2.361-.029,3.539.011.722.025,1.078-.155,1.057-.973-.048-1.827-.01-3.657-.018-5.486,0-.406.033-.9-.578-.881a20.446,20.446,0,0,1-5.9-.846c-.354-.093-.579.01-.766.455a32.827,32.827,0,0,0-1.729,5.892c-.248,1.157-.065,2.1,1.567,1.854a19.533,19.533,0,0,1,2.828-.026m14.693.061c0-.02,0-.041,0-.061,1.118,0,2.239-.043,3.355.015.8.042.982-.266.949-1.015a24.24,24.24,0,0,0-1.445-5.819c-.3-1.009-.622-1.706-2.016-1.132a8.491,8.491,0,0,1-2.353.438c-2.937.244-2.978.248-2.92,3.038.03,1.448-.658,3.364.331,4.211.841.72,2.692.262,4.1.326m12.194.224c.877,0,1.467,0,2.058,0,.383,0,.755-.059.659-.558-.7-3.652-1.766-7.173-4.163-10.109-.611-.748-1.491-.253-2.24.041-.784.308-.546.758-.359,1.4a32.038,32.038,0,0,1,1.716,6.948c.12,2.076.758,2.64,2.33,2.282m-41.864,5.8c.093.56.173,1.122.283,1.679a24.521,24.521,0,0,0,3.6,8.253c.754,1.2,1.711.312,2.509.113s.794-.958.448-1.6c-.836-1.539-.932-3.3-1.561-4.9-.464-1.18.24-3.016-.935-3.543s-2.771-.085-4.183-.065a.54.54,0,0,0-.165.063M8.5,64.291c.42-.665,2,.993,2.109-.834.159-2.737,1.111-5.259,1.833-7.849.134-.481,1.078-1.116-.032-1.41-.818-.217-1.539-1.324-2.669-.032-1.928,2.2-2.774,4.847-3.625,7.49-.72,2.233-.283,2.635,2.385,2.635m41.756,5.958c-1.386,0-2.679.027-3.971-.011-.668-.02-.844.2-.933.883a29.16,29.16,0,0,1-1.661,7.163c-.246.617-1.118,1.612.223,2.235a1.934,1.934,0,0,0,2.85-.826,23.045,23.045,0,0,0,3.492-9.445M34.724,51.02c-1.12-1.3-1.972-2.3-2.828-3.3-.505-.587-.97-.5-1.018.252a7.058,7.058,0,0,0,.171,3.276c.377.8,1.416-.335,2.219-.164a7.274,7.274,0,0,0,1.456-.069m-9.552-3.98a6.585,6.585,0,0,0-2.609,2.608c-.206.4-1.2.577-.625,1.139.661.649,1.634.426,2.533.345.694-.062.713-.395.705-.9-.015-.969,0-1.938,0-3.191m5.776,35.967v4.221c1.367-1.322,2.716-2.176,3.335-3.8-1.167-.151-2.241.141-3.335-.417m-5.982,3.979c.369-4.046.834-3.9-3.142-3.378a9.76,9.76,0,0,0,3.142,3.378M40.444,48.54c-.085-.128-.163-.387-.316-.444-.3-.111-.387.185-.356.39a.741.741,0,0,0,.3.525c.354.147.265-.21.369-.471" transform="translate(0 -25.201)"/>
    <path id="Trazado_771318" data-name="Trazado 771318" d="M0,112.786A.858.858,0,0,1,0,114.2Z" transform="translate(0 -72.702)" fill="#010101"/>
    <path id="Trazado_771319" data-name="Trazado 771319" d="M390.577,65.235c0,10.454-.025,20.908.013,31.362.015,3.9-1.509,6.746-5.2,8.284a4.092,4.092,0,0,1-1.65.333q-21.881-.042-43.762-.015c-4.007,0-7.232-4.5-6.83-7.458a16.988,16.988,0,0,0,.144-2.281q.011-31.1-.017-62.192c-.006-3.082.58-5.766,3.361-7.54A8.3,8.3,0,0,1,341.3,24.7q14,.011,27.994,0c4.311,0,8.624.08,12.933-.022,4.649-.111,8.347,2.791,8.349,8.308q.005,16.124,0,32.248M384.551,31.88c-.078-1.514-1.125-1.509-2.256-1.508q-19.322.022-38.643.009c-4.728,0-4.728,0-4.728,4.83q0,30.313,0,60.627c0,3.67-.006,3.67,3.761,3.67,6.617,0,13.235.011,19.853,0,6.025-.013,12.05-.053,18.074-.081,2.979.391,4.358.433,4.338-3.645-.1-20.64-.041-41.281-.061-61.921,0-.657.32-1.415-.338-1.977" transform="translate(-214.726 -15.906)"/>
    <path id="Trazado_771320" data-name="Trazado 771320" d="M221.809,42.566c0,8.861-.019,17.723.028,26.583a7.949,7.949,0,0,1-.423,2.722,2.566,2.566,0,0,1-2.575,1.9c-15.772-.044-31.544-.03-47.316-.036-2.5,0-3.473-1.068-3.317-3.539.037-.584-.067-1.175-.068-1.763q-.006-31.989,0-63.978V4.28c0-3.775.483-4.261,4.2-4.261C183.5.018,194.668.036,205.833,0a5.328,5.328,0,0,1,4.025,1.682q5.114,5.161,10.276,10.275a5.305,5.305,0,0,1,1.693,4.026c-.038,8.861-.018,17.722-.018,26.583M175.75,5.744c-1.455-.3-1.992.082-1.986,1.767q.107,29.386,0,58.773c-.006,1.682.514,2.081,1.988,1.731q19.482.026,38.963.068c1.084,0,1.436-.375,1.433-1.446q-.06-24.265-.067-48.531c.064-.244,0-.385-.281-.333-2.83-.025-5.66-.032-8.489-.08-2.347-.039-3.157-.849-3.183-3.2-.028-2.537-.04-5.075.012-7.611.018-.875-.152-1.223-1.138-1.217-9.084.056-18.169.057-27.254.075m34.083,4.107c-.06,2.332-.06,2.332,1.754,1.989a7.67,7.67,0,0,0-1.754-1.989" transform="translate(-108.38 0)"/>
    <path id="Trazado_771321" data-name="Trazado 771321" d="M50.591,284.8c.57-.843,1.778-.712,2.427-1.49-.408-.545-.918-.315-1.34-.317-4.132-.021-8.265-.007-12.4-.014-3.152-.005-3.688-.529-3.688-3.6q0-24.973,0-49.946c0-.472.044-.945.025-1.416a2.2,2.2,0,0,1,2.294-2.485,2.767,2.767,0,0,1,3.1,2.157,16.028,16.028,0,0,1,.242,2.611c.014,15.114.032,30.227-.026,45.341-.006,1.429.407,1.757,1.751,1.7,2.77-.114,5.546-.059,8.32-.074.51.554,1.048.411,1.683.148a1.571,1.571,0,0,0-1.6-.853c-.44-.751-1.244-1.182-1.61-2.041a2.728,2.728,0,0,1,.459-3.041,2.4,2.4,0,0,1,2.815-.78c2.219.772,3.753,2.591,5.722,3.753,1.725,1.018,3.406,2.118,5.069,3.237a2.956,2.956,0,0,1,.084,4.879c-3.242,2.224-6.486,4.447-9.792,6.573-1.21.778-2.568,1.228-3.785-.2a2.705,2.705,0,0,1-.029-3.864l.275-.274" transform="translate(-22.942 -145.363)"/>
    <path id="Trazado_771322" data-name="Trazado 771322" d="M380.906,310.528c.184.493.7.548,1.06.815a2.786,2.786,0,0,1,1.068,3.783c-.568,1.09-2.634,2-3.728,1.245-3.512-2.428-7.373-4.384-10.527-7.289a2.82,2.82,0,0,1,.521-4.814c3.105-1.743,5.813-4.032,8.759-5.986,2.434-1.615,4.364-1.084,5.067,1.385a2.873,2.873,0,0,1-1.575,3.316,3.54,3.54,0,0,0-1.478,1.132c3.866,0,7.468-.007,11.069,0,1.007,0,.724-.73.728-1.253.018-2.952.008-5.9.009-8.856,0-8.148.021-16.3-.011-24.443a2.055,2.055,0,0,1,1.492-2.272c1.249-.221,2.82-.544,3.623.968a5.741,5.741,0,0,1,.572,2.676q-.007,17.713-.012,35.425c0,2.221-1.255,3.41-3.487,3.422q-6.552.035-13.1.047c-.334-.082-.9-.2-.93.07-.052.447.438.612.883.624" transform="translate(-236.995 -172.177)"/>
    <path id="Trazado_771323" data-name="Trazado 771323" d="M229.217,223.577c.773-.311.868-1.183,1.42-1.709a2.8,2.8,0,0,1,3.633-.415,2.349,2.349,0,0,1,.8,3.564c-1.947,3.257-4.1,6.374-6.347,9.424-.4.549-.883,1.076-1.317,1.6-.843,1.014-2.018.814-3.031-.085a13.605,13.605,0,0,1-2.207-2.878c-1.609-2.448-3.32-4.829-5.024-7.213a3.383,3.383,0,0,1-.679-1.549c-.161-1.235-.015-2.628,1.14-3.051a3.2,3.2,0,0,1,3.854.72c.505.608.736,1.457,1.756,1.972,0-3.223-.008-6.306,0-9.389.009-2.537.741-3.215,3.25-3.054,1.351.086,2.393,1.505,2.414,3.362.034,2.891.037,5.782.053,8.673.005.09.011.179.016.269l.265-.239" transform="translate(-139.499 -136.326)" fill="#010101"/>
    <path id="Trazado_771324" data-name="Trazado 771324" d="M79.873,369.142a1.571,1.571,0,0,1,1.6.853c-.634.264-1.173.407-1.683-.147q.042-.353.083-.705" transform="translate(-51.433 -237.95)" fill="#222"/>
    <path id="Trazado_771325" data-name="Trazado 771325" d="M403.322,387.855c-.445-.012-.935-.177-.883-.624.031-.266.6-.152.93-.07l-.047.693" transform="translate(-259.411 -249.503)" fill="#d0d0d5"/>
    <path id="Trazado_771326" data-name="Trazado 771326" d="M251.932,245.408l-.265.239c-.005-.09-.011-.179-.016-.269a.3.3,0,0,1,.282.031" transform="translate(-162.214 -158.157)" fill="#d0d0d5"/>
    <path id="Trazado_771327" data-name="Trazado 771327" d="M77.268,392.3l-.275.274q-.085-.361.275-.274" transform="translate(-49.619 -252.866)" fill="#010101"/>
    <path id="Trazado_771328" data-name="Trazado 771328" d="M214.31,365.864c-2.239,1.756-4.955,2.5-7.6,3.208-2.2.587-4.439,1.159-6.7,1.6-1.551.3-3.115.35-4.652.541a98.609,98.609,0,0,1-18.339.328c-6.22-.391-12.468-1.11-18.393-3.406a27.975,27.975,0,0,1-5.839-2.915,3.071,3.071,0,0,1-1.317-2.734c.022-4.666.009-9.333.009-14.243a52.065,52.065,0,0,0,7.825,3.059,65.5,65.5,0,0,0,10.616,2.249c6.53,1.051,13.116.7,19.682.681,2.463-.008,4.963-.714,7.335-.8a52.865,52.865,0,0,0,11.587-2.113,56.238,56.238,0,0,0,5.762-1.921q.009,8.232.018,16.464m-30.495-.114c0,.032,0,.063,0,.095,1.122,0,2.244.031,3.365-.007a2.834,2.834,0,1,0,.254-5.61c-2.415-.093-4.843-.1-7.255.048a2.358,2.358,0,0,0-2.421,2.588c.006,1.683.763,2.724,2.345,2.864,1.228.109,2.473.022,3.711.022" transform="translate(-97.642 -224.48)" fill="#f0dcc0"/>
    <path id="Trazado_771329" data-name="Trazado 771329" d="M213.1,431.177c-5.217,2.555-10.829,3.488-16.515,4.373-6.384.993-12.781.817-19.139.553-7.892-.328-15.715-1.513-22.92-5.2-2.168-1.108-3.365-2.489-3.219-5.169.234-4.28.063-8.583.063-13.088a46.548,46.548,0,0,0,11.445,4.092c3.846.829,7.717,1.333,11.621,1.777a117.974,117.974,0,0,0,14.807.256,75.975,75.975,0,0,0,13.792-1.59,88.832,88.832,0,0,0,11.129-3.223c-.485,5.73,1.128,11.589-1.064,17.213m-29.189-.907a18.946,18.946,0,0,0,4.405-.066,2.611,2.611,0,0,0,1.99-2.713,2.262,2.262,0,0,0-1.818-2.354c-2.809-.746-5.594-.364-8.385-.331a2.638,2.638,0,0,0-2.448,2.87,2.478,2.478,0,0,0,2.369,2.555,28.275,28.275,0,0,0,3.886.038" transform="translate(-97.523 -265.996)" fill="#f0dcc0"/>
    <path id="Trazado_771330" data-name="Trazado 771330" d="M214.038,312.89a15.928,15.928,0,0,1-5.561,2.565,111.485,111.485,0,0,1-11.468,2.483,90.937,90.937,0,0,1-13.4.859c-8.546-.163-17.106-.774-25.28-3.757a25.628,25.628,0,0,1-5.781-2.955c-1.837-1.263-1.818-2.855.058-4.075a34.977,34.977,0,0,1,11.444-4.343c4.816-1.117,9.73-1.363,14.627-1.849a83.7,83.7,0,0,1,11.958.165,40.16,40.16,0,0,1,8.628.925,4.83,4.83,0,0,0,2.507.035c.2-.055.29-.372.589-.181,3.279,2.1,7.462,1.876,10.673,4.154l.383.278-.013-.014c.871,1.713.67,3.569.716,5.391a1.787,1.787,0,0,1-.082.317" transform="translate(-97.454 -194.441)" fill="#f4a338"/>
    <path id="Trazado_771331" data-name="Trazado 771331" d="M325.194,431.59c2.192-5.624.579-11.484,1.064-17.214.775-.461,1.656-1.373,2.412-1,.774.387.279,1.6.29,2.442.045,3.59-.037,7.181.041,10.769a4.019,4.019,0,0,1-2.476,4.177c-.516.222-.579,1.092-1.332.821" transform="translate(-209.621 -266.408)" fill="#e3bf8d"/>
    <path id="Trazado_771332" data-name="Trazado 771332" d="M328.242,366.007q-.009-8.232-.017-16.464c.826-.467,1.549-1.188,2.614-1.061,0,0-.013.123-.013.123l.1.043q-.016,7.344-.032,14.687s-.1.058-.1.058l.029.118a4.922,4.922,0,0,1-2.585,2.5" transform="translate(-211.574 -224.623)" fill="#e3bf8d"/>
    <path id="Trazado_771333" data-name="Trazado 771333" d="M326.968,322.613c-.046-1.823.155-3.678-.716-5.391,1.585.114,2.3,1.413,3.092,2.464.413.546-.062,1.308-.592,1.789-.463.42-.973.79-1.462,1.181a.317.317,0,0,0-.323-.043" transform="translate(-210.303 -204.482)" fill="#de9533"/>
    <path id="Trazado_771334" data-name="Trazado 771334" d="M325.593,316.725l-.383-.278c.246-.07.333.079.383.278" transform="translate(-209.631 -203.972)" fill="#f9cc57"/>
    <path id="Trazado_771335" data-name="Trazado 771335" d="M335.647,348.676l-.1-.043s.011-.124.013-.123l.119.048Z" transform="translate(-216.292 -224.65)" fill="#675e68"/>
    <path id="Trazado_771336" data-name="Trazado 771336" d="M335.5,390.478l-.029-.117s.1-.06.1-.059.044.118.044.118Z" transform="translate(-216.242 -251.589)" fill="#675e68"/>
    <path id="Trazado_771337" data-name="Trazado 771337" d="M328.119,332.346a.317.317,0,0,1,.323.043l-.4.274a1.8,1.8,0,0,0,.081-.317" transform="translate(-211.454 -214.214)" fill="#010101"/>
    <path id="Trazado_771338" data-name="Trazado 771338" d="M91,125.633a26.43,26.43,0,0,0,3.011-.02c1.468-.187,2.043.2,1.551,1.758-.447,1.414-.729,2.88-1.1,4.318-.417,1.6-1.2,2.573-3.109,2.08a16.086,16.086,0,0,0-1.661-.394c-.911-.134-2.189.452-2.658-.279s-.242-1.926-.205-2.914c.054-1.456-.646-3.326.288-4.258s2.8-.132,3.887-.292" transform="translate(-55.84 -80.876)" fill="#4adbd1"/>
    <path id="Trazado_771339" data-name="Trazado 771339" d="M50.714,125.628c1.181.151,3.058-.642,3.978.3s.194,2.8.289,4.253c.019.292-.034.593.009.881.263,1.742-.256,2.561-2.223,2.358a9.514,9.514,0,0,0-3.555.5c-.719.212-1.2.156-1.414-.467a25.882,25.882,0,0,1-1.752-6.723c-.053-.84.168-1.167,1.052-1.111,1.112.071,2.233.017,3.618.017" transform="translate(-29.676 -80.87)" fill="#4adbd1"/>
    <path id="Trazado_771340" data-name="Trazado 771340" d="M50.181,95.1a19.439,19.439,0,0,0-2.828.025c-1.632.242-1.815-.7-1.566-1.854a32.825,32.825,0,0,1,1.729-5.892c.187-.445.413-.548.766-.455a20.445,20.445,0,0,0,5.9.846c.611-.02.576.475.578.881.008,1.829-.029,3.659.018,5.486.021.818-.335,1-1.057.973-1.179-.04-2.359-.011-3.539-.01" transform="translate(-29.456 -56.013)" fill="#4adbd1"/>
    <path id="Trazado_771341" data-name="Trazado 771341" d="M91.254,95.252c-1.4-.063-3.255.395-4.1-.326-.989-.847-.3-2.762-.331-4.211-.057-2.79-.017-2.794,2.92-3.038a8.491,8.491,0,0,0,2.353-.438c1.394-.573,1.715.123,2.016,1.132a24.242,24.242,0,0,1,1.445,5.82c.033.749-.151,1.057-.949,1.015-1.116-.058-2.237-.015-3.355-.015,0,.02,0,.041,0,.061" transform="translate(-55.836 -56.101)" fill="#4adbd1"/>
    <path id="Trazado_771342" data-name="Trazado 771342" d="M126.291,90.727c-1.572.358-2.21-.206-2.33-2.282a32.05,32.05,0,0,0-1.716-6.947c-.188-.638-.425-1.088.359-1.4.75-.295,1.629-.789,2.24-.041,2.4,2.936,3.464,6.457,4.163,10.11.1.5-.276.56-.659.558-.591,0-1.181,0-2.058,0" transform="translate(-78.68 -51.353)" fill="#4adbd1"/>
    <path id="Trazado_771343" data-name="Trazado 771343" d="M16.173,126.651a.537.537,0,0,1,.165-.063c1.412-.02,3.014-.46,4.183.065s.471,2.363.935,3.543c.628,1.6.725,3.365,1.561,4.9.347.638.342,1.4-.448,1.6s-1.754,1.089-2.508-.113a24.522,24.522,0,0,1-3.6-8.253c-.109-.557-.189-1.119-.283-1.679" transform="translate(-10.425 -81.476)" fill="#4adbd1"/>
    <path id="Trazado_771344" data-name="Trazado 771344" d="M19.028,90.508c-2.668,0-3.1-.4-2.385-2.635.852-2.642,1.7-5.286,3.625-7.49,1.13-1.292,1.851-.185,2.67.032,1.109.294.165.929.032,1.41-.722,2.589-1.675,5.112-1.833,7.849-.106,1.827-1.689.17-2.109.834" transform="translate(-10.529 -51.418)" fill="#4adbd1"/>
    <path id="Trazado_771345" data-name="Trazado 771345" d="M128.58,126.73a23.05,23.05,0,0,1-3.492,9.445,1.934,1.934,0,0,1-2.85.826c-1.341-.624-.47-1.618-.223-2.235a29.159,29.159,0,0,0,1.661-7.163c.089-.687.265-.9.933-.883,1.292.039,2.585.011,3.971.011" transform="translate(-78.325 -81.682)" fill="#4adbd1"/>
    <path id="Trazado_771346" data-name="Trazado 771346" d="M90.54,65.977a7.31,7.31,0,0,1-1.456.069c-.8-.172-1.842.959-2.219.164a7.053,7.053,0,0,1-.171-3.276c.048-.748.512-.839,1.018-.252.856.993,1.709,1.99,2.828,3.295" transform="translate(-55.816 -40.158)" fill="#4adbd1"/>
    <path id="Trazado_771347" data-name="Trazado 771347" d="M64.644,61.449c0,1.253-.011,2.222,0,3.191.008.507-.011.84-.705.9-.9.081-1.872.3-2.533-.345-.573-.562.419-.737.625-1.139a6.584,6.584,0,0,1,2.609-2.608" transform="translate(-39.472 -39.61)" fill="#4adbd1"/>
    <path id="Trazado_771348" data-name="Trazado 771348" d="M87.08,162.651c1.094.558,2.168.266,3.335.417-.619,1.628-1.968,2.483-3.335,3.8Z" transform="translate(-56.132 -104.845)" fill="#4adbd1"/>
    <path id="Trazado_771349" data-name="Trazado 771349" d="M64.549,167.238a9.756,9.756,0,0,1-3.142-3.378c3.976-.521,3.512-.669,3.142,3.378" transform="translate(-39.583 -105.453)" fill="#4adbd1"/>
    <path id="Trazado_771350" data-name="Trazado 771350" d="M112.569,64.821c-.1.261-.015.619-.369.471a.741.741,0,0,1-.3-.525c-.031-.205.057-.5.356-.39.153.057.231.316.316.444" transform="translate(-72.125 -41.482)" fill="#010101"/>
    <path id="Trazado_771351" data-name="Trazado 771351" d="M391.144,109.755c-6.025.028-12.05.068-18.074.081-6.618.014-13.236,0-19.854,0-3.767,0-3.761,0-3.761-3.67q0-30.313,0-60.627c0-4.83,0-4.83,4.728-4.83q19.322,0,38.643-.009c1.132,0,2.179-.006,2.257,1.508-.622.581-.342,1.338-.343,2.012q-.023,29.95,0,59.9c0,2.159-.728,3.807-2.783,4.662-.5.208-.83.4-.814.971M372.39,76.837c3.9,0,7.794.026,11.691-.008,3.2-.028,4.377-1.424,3.9-4.585a15.783,15.783,0,0,0-7.229-11.471c-.751-.481-.775-.616-.332-1.369a9.011,9.011,0,0,0,1.124-6.441c-.894-4.286-3.749-6.757-8-7.46a8.5,8.5,0,0,0-8.709,3.859,8.578,8.578,0,0,0-.419,9.894c.4.657.506,1-.286,1.505A15.551,15.551,0,0,0,356.9,71.5c-.552,3.08-.117,5.444,4.15,5.354,3.777-.08,7.558-.017,11.336-.017m-.109,24.938c4.726,0,9.453.016,14.179-.007,2.042-.01,3.021-1.058,2.962-3.049-.052-1.748-1.2-2.606-3.625-2.61q-13.293-.02-26.586-.009a5.629,5.629,0,0,0-1.7.3c-1.836.57-2.479,1.343-2.1,3.179a2.593,2.593,0,0,0,2.877,2.208c4.667-.048,9.334-.017,14-.014m.175-10.366c4.66,0,9.32.04,13.978-.018,2.082-.026,3.043-1.114,2.976-3.072-.06-1.75-.982-2.552-3.07-2.559-5.9-.017-11.8-.007-17.694-.006-3.48,0-6.96-.038-10.439.018a2.75,2.75,0,0,0-2.464,4.311c.72,1.219,2.013,1.318,3.265,1.323,4.483.017,8.965.006,13.448,0" transform="translate(-225.259 -26.237)" fill="#e8e8e8"/>
    <path id="Trazado_771352" data-name="Trazado 771352" d="M466.757,112.49c-.016-.568.314-.763.814-.971,2.055-.855,2.785-2.5,2.783-4.662q-.031-29.949,0-59.9c0-.673-.279-1.43.343-2.012.658.563.337,1.32.337,1.977.02,20.64-.036,41.281.061,61.921.019,4.077-1.36,4.036-4.338,3.645" transform="translate(-300.872 -28.972)" fill="#675e68"/>
    <path id="Trazado_771353" data-name="Trazado 771353" d="M229.9,28.389q.025,24.266.067,48.531c0,1.07-.349,1.449-1.433,1.446q-19.482-.064-38.963-.069,0-31.135,0-62.27c9.085-.017,18.169-.018,27.254-.074.987-.006,1.156.341,1.138,1.217-.052,2.536-.04,5.074-.012,7.611.026,2.347.836,3.157,3.183,3.2,2.829.047,5.659.055,8.489.079l.281.334m-21.35,45.356v-.068c4.248,0,8.5.022,12.746-.009,2.088-.015,3.126-1.087,3.007-2.97-.106-1.683-1.341-2.685-3.394-2.688q-12.126-.015-24.253,0a7.284,7.284,0,0,0-1.878.281,2.493,2.493,0,0,0-1.908,2.83,3.005,3.005,0,0,0,2.94,2.625q6.371,0,12.741,0m-.059-11.521v-.039c4.308,0,8.616.028,12.923-.012a2.909,2.909,0,0,0,2.85-3.694c-.515-1.679-1.956-1.963-3.479-1.964q-11.684-.008-23.368.007a15.236,15.236,0,0,0-2.259.232,3.315,3.315,0,0,0-2.4,2.727,3.272,3.272,0,0,0,2.995,2.745q6.371-.006,12.742,0m.035-22.882c4.252,0,8.5.017,12.756-.008a2.718,2.718,0,0,0,3.022-2.639c.1-1.9-1.032-3.009-3.188-3.014-7.2-.017-14.409-.006-21.614-.006-1.063,0-2.132-.07-3.188.016-2.031.166-3.777,1.53-3.528,2.819a3.4,3.4,0,0,0,3.873,2.885c3.948-.185,7.911-.051,11.867-.052m.177,11.407q6.377,0,12.755,0a2.208,2.208,0,0,0,1.779-.508,2.967,2.967,0,0,0,.987-3.156,3.087,3.087,0,0,0-3.116-2c-3.9-.013-7.795,0-11.692,0-4.429,0-8.858-.024-13.286.011-1.9.015-3.452,1.459-3.376,3,.062,1.251,1.81,2.648,3.372,2.653,4.193.011,8.385,0,12.578,0m-4.785-22.874c0,.03,0,.06,0,.09,2.651,0,5.3-.015,7.952.008a2.354,2.354,0,0,0,2.115-1.265c1.316-2.143-.093-4.445-2.853-4.486-4.954-.074-9.909-.047-14.864-.007-2.055.017-3.557,1.3-3.515,2.84.044,1.609,1.474,2.779,3.556,2.81,2.536.038,5.072.009,7.609.009" transform="translate(-122.193 -10.283)" fill="#eceff1"/>
    <path id="Trazado_771354" data-name="Trazado 771354" d="M185.962,15.993q0,31.135,0,62.27c-1.473.351-1.993-.048-1.988-1.73q.1-29.386,0-58.773c-.006-1.685.531-2.066,1.986-1.767" transform="translate(-118.591 -10.249)" fill="#d0d0d5"/>
    <path id="Trazado_771355" data-name="Trazado 771355" d="M285.432,27.718a7.669,7.669,0,0,1,1.754,1.989c-1.814.343-1.814.343-1.754-1.989" transform="translate(-183.979 -17.867)" fill="#d0d0d5"/>
    <path id="Trazado_771356" data-name="Trazado 771356" d="M302.542,50.322l-.281-.334c.286-.051.345.09.281.334" transform="translate(-194.838 -32.216)" fill="#d0d0d5"/>
    <path id="Trazado_771357" data-name="Trazado 771357" d="M231.488,387.363c-1.237,0-2.483.087-3.711-.022-1.582-.14-2.339-1.181-2.345-2.864a2.358,2.358,0,0,1,2.421-2.588c2.412-.144,4.839-.141,7.255-.048a2.834,2.834,0,1,1-.254,5.61c-1.121.038-2.243.007-3.365.007,0-.032,0-.063,0-.095" transform="translate(-145.314 -246.093)" fill="#010101"/>
    <path id="Trazado_771358" data-name="Trazado 771358" d="M231.718,452.085a28.275,28.275,0,0,1-3.886-.038,2.478,2.478,0,0,1-2.369-2.555,2.638,2.638,0,0,1,2.448-2.87c2.791-.033,5.575-.415,8.385.331a2.262,2.262,0,0,1,1.818,2.354,2.611,2.611,0,0,1-1.99,2.713,18.946,18.946,0,0,1-4.405.066" transform="translate(-145.334 -287.812)"/>
    <path id="Trazado_771359" data-name="Trazado 771359" d="M385.553,85.308c-3.779,0-7.559-.063-11.336.017-4.266.09-4.7-2.274-4.15-5.354a15.551,15.551,0,0,1,7.22-10.739c.793-.5.684-.848.286-1.505a8.577,8.577,0,0,1,.419-9.894,8.495,8.495,0,0,1,8.709-3.859c4.253.7,7.109,3.174,8,7.46a9.009,9.009,0,0,1-1.125,6.441c-.443.754-.419.888.332,1.369a15.786,15.786,0,0,1,7.229,11.471c.48,3.16-.7,4.557-3.9,4.585-3.9.034-7.794.008-11.691.009m9.5-5.716a9.866,9.866,0,0,0-9.768-6.989c-4.084.187-6.9,1.9-8.677,5.521-.488,1-.5,1.489.83,1.482,5.822-.032,11.644-.014,17.616-.014m-9.76-12.951c2.33.062,3.765-1.19,3.813-3.325a3.652,3.652,0,0,0-3.4-3.794,3.352,3.352,0,0,0-3.68,3.28c-.083,2.344,1.142,3.782,3.268,3.839" transform="translate(-238.423 -34.707)" fill="#010101"/>
    <path id="Trazado_771360" data-name="Trazado 771360" d="M382.882,202.249c-4.667,0-9.335-.031-14,.017A2.594,2.594,0,0,1,366,200.058c-.374-1.836.268-2.609,2.1-3.179a5.641,5.641,0,0,1,1.7-.3q13.293.007,26.586.009c2.426,0,3.573.861,3.625,2.61.059,1.991-.92,3.039-2.962,3.049-4.726.024-9.453.007-14.179,0" transform="translate(-235.86 -126.714)"/>
    <path id="Trazado_771361" data-name="Trazado 771361" d="M383,173.1c-4.483,0-8.965.01-13.448-.006-1.252,0-2.545-.1-3.265-1.323a2.75,2.75,0,0,1,2.464-4.311c3.479-.056,6.959-.018,10.439-.018,5.9,0,11.8-.011,17.694.006,2.088.006,3.01.809,3.07,2.559.066,1.958-.895,3.046-2.976,3.072-4.659.058-9.319.018-13.978.021" transform="translate(-235.805 -107.926)"/>
    <path id="Trazado_771362" data-name="Trazado 771362" d="M214.526,168.15q-6.371,0-12.741,0a3,3,0,0,1-2.939-2.625,2.493,2.493,0,0,1,1.908-2.83,7.3,7.3,0,0,1,1.878-.28q12.126-.013,24.253,0c2.054,0,3.289,1.005,3.395,2.688.118,1.883-.919,2.955-3.007,2.97-4.248.031-8.5.009-12.746.009v.068" transform="translate(-128.172 -104.688)"/>
    <path id="Trazado_771363" data-name="Trazado 771363" d="M214.266,135.785q-6.371,0-12.742,0a3.271,3.271,0,0,1-2.994-2.745,3.314,3.314,0,0,1,2.4-2.727,15.281,15.281,0,0,1,2.259-.231q11.684-.025,23.368-.008c1.523,0,2.964.285,3.479,1.964a2.908,2.908,0,0,1-2.85,3.694c-4.307.04-8.616.012-12.923.012v.039" transform="translate(-127.971 -83.844)"/>
    <path id="Trazado_771364" data-name="Trazado 771364" d="M214.318,71.438c-3.957,0-7.92-.134-11.867.051a3.4,3.4,0,0,1-3.873-2.885c-.248-1.289,1.5-2.653,3.528-2.819,1.056-.086,2.125-.016,3.188-.016,7.2,0,14.409-.01,21.614.006,2.155,0,3.285,1.11,3.188,3.014a2.718,2.718,0,0,1-3.022,2.64c-4.252.025-8.5.008-12.756.009" transform="translate(-127.988 -42.378)"/>
    <path id="Trazado_771365" data-name="Trazado 771365" d="M214.473,103.566c-4.193,0-8.385.007-12.578,0-1.562,0-3.31-1.4-3.372-2.653-.076-1.542,1.478-2.985,3.376-3,4.429-.035,8.858-.011,13.286-.011,3.9,0,7.795-.009,11.692,0a3.087,3.087,0,0,1,3.116,2,2.967,2.967,0,0,1-.987,3.156,2.207,2.207,0,0,1-1.779.508q-6.377,0-12.755,0" transform="translate(-127.967 -63.1)"/>
    <path id="Trazado_771366" data-name="Trazado 771366" d="M209.691,39.163c-2.536,0-5.073.029-7.609-.009-2.082-.031-3.512-1.2-3.556-2.81-.042-1.541,1.46-2.824,3.515-2.84,4.955-.039,9.91-.066,14.864.007,2.76.041,4.169,2.343,2.853,4.486a2.354,2.354,0,0,1-2.115,1.265c-2.651-.023-5.3-.008-7.952-.008,0-.03,0-.06,0-.09" transform="translate(-127.97 -21.571)"/>
    <path id="Trazado_771367" data-name="Trazado 771367" d="M406.7,113.6c-5.972,0-11.794-.018-17.616.014-1.326.007-1.318-.487-.83-1.482,1.776-3.622,4.594-5.333,8.678-5.521A9.866,9.866,0,0,1,406.7,113.6" transform="translate(-250.078 -68.717)" fill="#5573c6"/>
    <path id="Trazado_771368" data-name="Trazado 771368" d="M407.31,76.932c-2.126-.057-3.351-1.495-3.268-3.839a3.352,3.352,0,0,1,3.68-3.28,3.652,3.652,0,0,1,3.4,3.794c-.048,2.135-1.483,3.387-3.813,3.325" transform="translate(-260.444 -44.998)" fill="#f4a338"/>
  </g>
</svg>
