<svg id="Grupo_1030491" data-name="Grupo 1030491" xmlns="http://www.w3.org/2000/svg" xmlns:xlink="http://www.w3.org/1999/xlink" width="199.762" height="207.412" viewBox="0 0 199.762 207.412">
  <defs>
    <clipPath id="clip-path">
      <rect id="Rectángulo_363849" data-name="Rectángulo 363849" width="199.762" height="207.412" fill="none"/>
    </clipPath>
  </defs>
  <g id="Grupo_1030490" data-name="Grupo 1030490" clip-path="url(#clip-path)">
    <path id="Trazado_771535" data-name="Trazado 771535" d="M88.886,204.483c-.154,1.989-1.238,2.912-3.221,2.9-3.572-.024-7.145.006-10.717-.012-2.416-.012-3.439-1.085-3.439-3.552q-.007-24.981-.011-49.963A2.875,2.875,0,0,1,74.581,151c4.177-.072,8.357-.04,12.535-.047,2.763,0,5.527-.029,8.29.014.922.015,1.327-.231,1.326-1.236q-.044-27.105-.05-54.21c0-.117-.125-.233-.192-.35.006-.253-.082-.4-.366-.315q-19.28-.033-38.56-.061c-8.747,0-17.494.046-26.242.071-.268-.065-.376.028-.294.3q0,8.112,0,16.224c-.086.277.03.364.294.313A8.772,8.772,0,0,1,36.54,121.74a8.4,8.4,0,0,1-4.221,5.835,2.012,2.012,0,0,0-1.077,2.066c.05,6.548.062,13.1,0,19.643-.013,1.317.313,1.83,1.675,1.694,1.136-.114,2.319.135,3.434-.054,3.143-.532,5.356,1.009,7.4,3.051,3.627,3.627,7.237,7.27,10.894,10.866a5.731,5.731,0,0,1,1.766,4.243q.033,17.011,0,34.022c-.007,3.309-1.017,4.269-4.253,4.269q-24.393,0-48.786,0c-2.511,0-3.327-.739-3.33-3.167Q0,179.807,0,155.4c0-4.077.355-4.444,4.452-4.449,6.275-.007,12.551-.044,18.826.03,1.439.017,1.983-.246,1.957-1.851-.1-6.344-.078-12.691-.007-19.035a1.82,1.82,0,0,0-1.293-2.032c-5.016-2-6.753-9.786-3.083-14.067.393-.459.791-1.131,1.291-1.246,3.021-.693,2.807-2.942,2.758-5.238-.088-4.114-.071-8.23-.1-12.345.064-.3-.07-.382-.342-.315-4.079-.026-8.158-.07-12.237-.066a5.055,5.055,0,0,1-3.571-1.305l-.434-.315a6.127,6.127,0,0,1-2-4.887q.045-39.135.017-78.271A9.457,9.457,0,0,1,12.683.842C13.3.631,13.927.577,14.329,0H28.5c1.01.737,2.255,1.3,2.082,2.895-.237,2.25-1.164,3.142-3.464,3.17-3.238.039-6.477-.027-9.714.022-3.148.048-5.348,1.129-5.146,4.958.227,4.307.052,8.636.052,12.955,0,3.313,0,3.312,3.133,3.257.472-.008.944,0,1.417,0H180.181c1.821,0,3.646-.072,5.463.024,1.24.066,1.613-.326,1.591-1.583-.075-4.385-.028-8.773-.029-13.16,0-5.068-1.372-6.461-6.365-6.461H41.4c-3.142,0-3.257-.082-4.457-3.181A4.98,4.98,0,0,1,39.026,0H184.782c.4.574,1.03.642,1.648.849a8.9,8.9,0,0,1,6.015,6.017,27.8,27.8,0,0,1,.851,8.268q-.043,35.837-.024,71.674c0,5.25-2.615,8.289-7.9,8.023-3.7-.186-7.416,0-11.125.026-.28-.073-.38.038-.323.313a6.072,6.072,0,0,1,.257,1.3c-.05,4.41-.038,8.821-.044,13.232-.156.065-.432.112-.445.2-.05.311.218.32.446.332-.192,1.015.333,1.565,1.2,1.96a5.275,5.275,0,0,1,1.676.989c4.612,4.912,3.707,11.2-1.707,14.441-.548.328-1.013.617-1.007,1.47q.078,10.312.011,20.623c0,.994.356,1.28,1.294,1.254,1.885-.052,3.775.05,5.658-.035a5.014,5.014,0,0,1,4.068,1.665c4.146,4.239,8.363,8.408,12.565,12.592a5.7,5.7,0,0,1,1.511,2.057q-.022,18.244-.034,36.487c0,.424-.226.969.4,1.21v.405c-1.57,2.023-3.725,2.07-6.059,2.06-15.578-.068-31.157-.035-46.736-.036-3.251,0-3.867-.6-3.867-3.772q0-24.49,0-48.98c0-2.854.7-3.632,3.648-3.655,5.934-.046,11.869-.015,17.8-.015,3.7,0,3.7,0,3.7-3.66,0-5.667-.029-11.335.025-17a2.094,2.094,0,0,0-1.3-2.141,9.31,9.31,0,0,1-5.167-8.319,8.706,8.706,0,0,1,5.144-8.049c.582-.282,1.149-.477,1.141-1.36-.05-4.992-.036-9.984-.058-14.976,0-.091-.173-.182-.265-.273-.016-.244-.1-.405-.388-.32-7.781-.022-15.562-.068-23.342-.051-2.025,0-3.216-.817-3.476-2.864.275-2.294,1.313-3.218,3.659-3.219,13.7,0,27.4-.025,41.094.032,1.469.006,1.978-.289,1.929-1.864-.123-3.979-.035-7.964-.042-11.947q-.031-19.439-.069-38.877c.149-2.733.149-2.734-2.518-2.734H16.3c-.539,0-1.079,0-1.618,0-1.8.033-2.9.663-2.3,2.729-.024.673-.067,1.346-.067,2.019,0,16.126.031,32.253-.049,48.379-.009,1.866.483,2.3,2.316,2.3q50.08-.087,100.161-.017c5.23.008,10.459-.251,15.7.265,2.19.216,3.29.989,3.812,2.949-.683,2.416-2.476,2.86-4.7,2.852-8.721-.031-17.441.022-26.162.044-.253-.042-.5-.075-.462.314-.043.6-.125,1.2-.126,1.8-.007,17.274.024,34.548-.05,51.822-.008,1.8.46,2.21,2.234,2.223,8.52.063,6.113-1.334,12.686,5.243a118.794,118.794,0,0,1,8.935,9.274,5.533,5.533,0,0,1,1.408,3.591c-.013,11.336.007,22.672-.017,34.008-.006,2.978-1.315,4.236-4.247,4.237-8.229,0-16.458-.028-24.687.022-2.116.013-3.381-.846-3.819-2.912.259-2.269,2.061-3.163,4.411-3.173,6.875-.03,13.75-.047,20.624.021,1.331.013,1.689-.352,1.682-1.678-.055-9.709-.04-19.419-.014-29.128a3.192,3.192,0,0,0-.979-2.511q-5.126-5.023-10.159-10.14a2.494,2.494,0,0,0-1.924-.855q-14.963.027-29.926-.007c-1.026,0-1.4.264-1.4,1.352q.049,20.835,0,41.67c0,1.171.5,1.3,1.45,1.281,2.089-.049,4.18-.069,6.268,0,2.455.08,3.451,1.006,3.608,3.168m60.287-25.409c0,6.814.038,13.629-.032,20.442-.014,1.378.294,1.825,1.756,1.819q20.333-.088,40.667,0c1.516.007,1.913-.382,1.9-1.9-.072-9.58-.049-19.161-.018-28.741a3.1,3.1,0,0,0-1-2.471c-3.427-3.343-6.8-6.743-10.158-10.156a3.122,3.122,0,0,0-2.445-1.058q-14.466.068-28.932-.006c-1.454-.01-1.784.452-1.77,1.83.067,6.746.03,13.493.03,20.24M28.254,201.3c6.812,0,13.624-.035,20.435.03,1.325.013,1.69-.358,1.682-1.683-.055-9.716-.041-19.431-.012-29.147a2.93,2.93,0,0,0-.927-2.308q-5.124-5.034-10.156-10.161a3.164,3.164,0,0,0-2.487-1.014c-9.644.031-19.289.047-28.933-.013-1.428-.009-1.806.416-1.8,1.821q.074,20.342-.012,40.684c-.009,1.636.585,1.833,1.977,1.82,6.744-.063,13.489-.028,20.233-.028m142.659-84.247a3.084,3.084,0,0,0-3.117,2.837c.006,1.27,1.672,3.1,2.787,3.054,1.605-.06,3.644-1.871,3.605-3.2-.03-1.025-2.048-2.682-3.275-2.689M27.791,122.724a3.051,3.051,0,0,0,3.094-2.907,3.087,3.087,0,0,0-3.23-2.763,2.836,2.836,0,1,0,.136,5.67" transform="translate(0)"/>
    <path id="Trazado_771536" data-name="Trazado 771536" d="M491,411.919a.884.884,0,0,0,.361.03v37.668c-.621-.241-.4-.787-.4-1.211q0-18.243.034-36.487" transform="translate(-291.599 -244.671)" fill="#909090"/>
    <path id="Trazado_771537" data-name="Trazado 771537" d="M205.076,88.83q.035,19.438.069,38.877c.007,3.983-.082,7.968.042,11.947.049,1.576-.46,1.871-1.929,1.864-13.7-.056-27.4-.035-41.094-.031-2.345,0-3.383.924-3.658,3.218l-6.309.02c-.521-1.959-1.622-2.733-3.812-2.949-5.243-.516-10.473-.258-15.7-.266q-50.08-.076-100.161.017c-1.832,0-2.325-.432-2.316-2.3.08-16.126.045-32.252.049-48.379,0-.673.044-1.346.067-2.019H205.076m-81.627,27.112.31-.438c.213-2-.841-3.361-2.642-3.5a99.735,99.735,0,0,0-14.92.007,2.588,2.588,0,0,0-2.169,3.1,2.942,2.942,0,0,0,2.991,2.775c4.377-.013,8.755.028,13.132.007a3.318,3.318,0,0,0,3.3-1.95M118.3,127.854q31.271,0,62.542,0c.741,0,1.483-.02,2.221-.078A2.838,2.838,0,0,0,185.7,125.3c.33-1.405-.55-2.176-1.618-2.907a5,5,0,0,0-3.079-.62c-21.725,0-43.449-.062-65.173.017-21.105.076-42.212-.306-63.318.183a2.824,2.824,0,0,0-3.074,2.679,3.1,3.1,0,0,0,2.195,3.114c1.475.622,2.771.045,4.128.048q31.271.082,62.542.038m39.212-9.963v.011q11.829,0,23.657.006a8.1,8.1,0,0,0,2.567-.322,2.668,2.668,0,0,0,1.7-3.758c-.674-1.6-1.957-2.006-3.532-2q-23.859.012-47.719.007a5.106,5.106,0,0,0-1.208.07c-1.438.354-3.061,1.291-2.741,3.481a3.125,3.125,0,0,0,3.213,2.511q12.03,0,24.061,0m-84.481,0v.007q10.12,0,20.239,0c2.028,0,3.338-1.1,3.377-2.781.049-2.129-.957-3.264-3.248-3.271q-20.339-.052-40.679.008a3.166,3.166,0,0,0-3.441,3.084c.034,1.492,1.73,2.947,3.515,2.951q10.119.019,20.238,0m-14.658-14.16v.019c1.814,0,3.628,0,5.442,0,2.086,0,3.644-1.253,3.69-2.985a3.229,3.229,0,0,0-3.454-3.061c-3.895-.078-7.793-.052-11.689,0a3.321,3.321,0,0,0-3.083,3.011c-.027,1.382,1.663,2.978,3.249,3,1.948.032,3.9.008,5.844.008" transform="translate(-17.942 -52.763)" fill="#e5fffe"/>
    <path id="Trazado_771538" data-name="Trazado 771538" d="M202.347,434.178c-.158-2.162-1.153-3.088-3.608-3.168-2.087-.069-4.179-.048-6.267,0-.951.022-1.454-.11-1.451-1.281q.057-20.835,0-41.67c0-1.089.372-1.355,1.4-1.352q14.963.046,29.926.007a2.493,2.493,0,0,1,1.924.855q5.038,5.112,10.159,10.14a3.192,3.192,0,0,1,.979,2.511c-.026,9.71-.041,19.419.014,29.128.008,1.327-.351,1.692-1.682,1.678-6.874-.067-13.75-.05-20.625-.021-2.35.01-4.151.9-4.411,3.173h-6.36m10.055-13.42v.017c3.437,0,6.874.015,10.31-.005,2.152-.012,3.8-1.391,3.876-3.184.065-1.507-1.5-2.851-3.653-2.864q-10.41-.063-20.82.035a3.126,3.126,0,0,0-3.064,2.991,3.344,3.344,0,0,0,3.245,3.006c3.369.017,6.738,0,10.107,0m-6.373-13.732c0,.021,0,.041,0,.062-1.415,0-2.832-.032-4.246.008a2.719,2.719,0,0,0-2.673,2.695A2.857,2.857,0,0,0,201.434,413a60.988,60.988,0,0,0,9.081-.042,2.822,2.822,0,0,0,2.607-3.138,2.9,2.9,0,0,0-3.047-2.786c-1.348-.034-2.7-.007-4.046-.007m4.063-3.544a3.176,3.176,0,0,0,3.144-3.316,3.262,3.262,0,0,0-3.325-3.19,3.153,3.153,0,0,0-2.766,3.28,2.983,2.983,0,0,0,2.947,3.225M199.048,400.3a3,3,0,0,0,2.992,3.184,3.135,3.135,0,0,0,3.085-3.182,3.188,3.188,0,0,0-3.165-3.324c-1.524-.066-2.886,1.488-2.912,3.323" transform="translate(-113.462 -229.695)" fill="#f4a338"/>
    <path id="Trazado_771539" data-name="Trazado 771539" d="M76.677,274.669c-.264.052-.379-.036-.294-.313l.294.313" transform="translate(-45.353 -162.961)" fill="#e3fefc"/>
    <path id="Trazado_771540" data-name="Trazado 771540" d="M412.25,233.591c.287-.086.372.075.387.32l-.387-.32" transform="translate(-244.867 -138.734)" fill="#e3fefc"/>
    <path id="Trazado_771541" data-name="Trazado 771541" d="M253.5,233.9c-.038-.389.209-.356.462-.313l-.462.313" transform="translate(-150.57 -138.732)" fill="#e3fefc"/>
    <path id="Trazado_771542" data-name="Trazado 771542" d="M236.746,233.591c.284-.083.372.062.366.315l-.366-.315" transform="translate(-140.622 -138.734)" fill="#e3fefc"/>
    <path id="Trazado_771543" data-name="Trazado 771543" d="M76.383,233.925c-.082-.276.026-.368.294-.3l-.294.3" transform="translate(-45.354 -138.754)" fill="#e3fefc"/>
    <path id="Trazado_771544" data-name="Trazado 771544" d="M60.246,233.594c.272-.066.406.017.342.315l-.342-.315" transform="translate(-35.785 -138.737)" fill="#e3fefc"/>
    <path id="Trazado_771545" data-name="Trazado 771545" d="M20.24,229.471l.435.315c-.287.091-.374-.094-.435-.315" transform="translate(-12.022 -136.301)" fill="#020202"/>
    <path id="Trazado_771546" data-name="Trazado 771546" d="M48.494,7.127h6.363c1.2,3.1,1.314,3.182,4.456,3.182H198.754c4.993,0,6.364,1.393,6.365,6.461,0,4.387-.046,8.774.029,13.16.022,1.257-.352,1.649-1.592,1.583-1.816-.1-3.642-.024-5.463-.024H34.772c-.472,0-.945-.007-1.417,0-3.133.056-3.133.056-3.133-3.257,0-4.319.176-8.648-.052-12.955-.2-3.829,2-4.91,5.146-4.958,3.237-.049,6.476.018,9.714-.022,2.3-.028,3.227-.92,3.464-3.17m51.544,17.334c16.187,0,32.374-.019,48.561.025a2.868,2.868,0,0,0,3.023-2.576,2.447,2.447,0,0,0-2.087-3.082,8.43,8.43,0,0,0-2.115-.458q-47.651.048-95.3.043c-2.31,0-3.685,1.167-3.664,3,.023,1.941,1.335,3.049,3.627,3.049l47.954,0m58.928-3.4a3.124,3.124,0,0,0,3.137,3.08c1.765.057,2.809-1.643,2.932-3.37.107-1.509-1.629-3.046-3.208-3.085-1.62-.041-2.871,1.435-2.862,3.375m21.863-.222a2.962,2.962,0,0,0,2.922,3.242,3.055,3.055,0,0,0,3.135-3.119A2.894,2.894,0,0,0,183.727,18c-2.1-.01-2.9.771-2.9,2.835M172.732,18c-1.884-.007-2.811.953-2.835,2.94a3.087,3.087,0,0,0,3.012,3.182,3.192,3.192,0,0,0,3.058-3.034A3,3,0,0,0,172.732,18" transform="translate(-17.913 -4.233)" fill="#5573c6"/>
    <path id="Trazado_771547" data-name="Trazado 771547" d="M367.354,408.757c0-6.747.037-13.494-.03-20.24-.014-1.378.315-1.84,1.77-1.83q14.466.1,28.932.006a3.122,3.122,0,0,1,2.445,1.058c3.358,3.413,6.731,6.813,10.157,10.156a3.1,3.1,0,0,1,1,2.471c-.03,9.58-.054,19.161.018,28.741.012,1.518-.385,1.907-1.9,1.9q-20.333-.092-40.667,0c-1.463.007-1.77-.441-1.756-1.819.069-6.813.032-13.628.032-20.442m21.85,5.94v.025c-3.57,0-7.14-.043-10.709.018a2.979,2.979,0,0,0-3.063,2.964,3.012,3.012,0,0,0,3.189,3.047q10.205.027,20.41.007c2.342,0,3.865-1.252,3.894-3.1.027-1.685-1.56-2.938-3.819-2.953-3.3-.022-6.6-.006-9.9-.006m-7.065-1.624c1.416,0,2.835.067,4.247-.017a3.349,3.349,0,0,0,3.068-2.916,2.884,2.884,0,0,0-2.96-3.085c-2.761-.093-5.528-.061-8.289.026a3,3,0,0,0,.092,5.981c1.279.053,2.562.011,3.843.012m4.215-9.606a3.129,3.129,0,0,0,3.233-3.092,3.333,3.333,0,0,0-2.958-3.392,3.048,3.048,0,0,0-3.091,2.909c-.039,2.094,1.111,3.555,2.816,3.575M381.1,400.3c0-2.048-1.207-3.357-3.039-3.307-1.358.038-2.62,1.582-2.625,3.214a3.036,3.036,0,0,0,2.966,3.264c1.886-.051,2.7-1.011,2.7-3.171" transform="translate(-218.181 -229.683)" fill="#afafaf"/>
    <path id="Trazado_771548" data-name="Trazado 771548" d="M37.094,430.983c-6.744,0-13.489-.034-20.233.028-1.391.013-1.986-.184-1.977-1.82q.11-20.342.012-40.684c0-1.4.373-1.829,1.8-1.821,9.644.06,19.289.043,28.933.013a3.164,3.164,0,0,1,2.487,1.014q5.028,5.13,10.156,10.162a2.93,2.93,0,0,1,.927,2.308c-.029,9.716-.043,19.432.012,29.147.008,1.325-.358,1.7-1.682,1.683-6.811-.065-13.623-.03-20.435-.03M36.817,414.7v.019c-3.566,0-7.132.021-10.7-.009-1.89-.016-2.808,1.179-3.243,2.725-.355,1.264.7,2.086,1.545,2.8a3.756,3.756,0,0,0,2.508.533c6.594,0,13.188.017,19.783,0,2.339-.008,3.57-1.026,3.595-2.849.031-2.221-1.016-3.183-3.6-3.206-3.3-.028-6.594-.007-9.892-.007m-7.01-1.62v-.015c1.417,0,2.841.091,4.249-.023a3.006,3.006,0,0,0,2.9-3.181,3.085,3.085,0,0,0-3.073-2.819c-2.562-.058-5.129-.068-7.691,0a3.251,3.251,0,0,0-3.416,3.019c-.045,1.376,1.871,2.993,3.589,3.013,1.147.013,2.294,0,3.441,0m7.134-12.764a3.094,3.094,0,0,0-3.1-3.326,3.62,3.62,0,0,0-2.977,3.155,3.2,3.2,0,0,0,3.222,3.328,3,3,0,0,0,2.855-3.158m-8.1-.035a3.089,3.089,0,0,0-3.139-3.289,3.59,3.59,0,0,0-2.937,3.19,3.172,3.172,0,0,0,3.253,3.292,3,3,0,0,0,2.823-3.193" transform="translate(-8.841 -229.683)" fill="#4adbd1"/>
    <path id="Trazado_771549" data-name="Trazado 771549" d="M205,84.829H30.25c-.6-2.066.5-2.7,2.3-2.729.539-.01,1.079-.005,1.618-.005H202.486c2.666,0,2.666,0,2.518,2.734" transform="translate(-17.869 -48.762)" fill="#b3d1ce"/>
    <path id="Trazado_771550" data-name="Trazado 771550" d="M416.384,288.294c1.227.006,3.245,1.663,3.275,2.688.039,1.331-2,3.143-3.605,3.2-1.115.042-2.781-1.784-2.787-3.055a3.084,3.084,0,0,1,3.117-2.837" transform="translate(-245.471 -171.24)" fill="#fff"/>
    <path id="Trazado_771551" data-name="Trazado 771551" d="M64.148,293.965a2.836,2.836,0,1,1-.136-5.67,3.087,3.087,0,0,1,3.23,2.763,3.051,3.051,0,0,1-3.094,2.907" transform="translate(-36.357 -171.241)" fill="#fff"/>
    <path id="Trazado_771552" data-name="Trazado 771552" d="M428.217,270.183q0,.266,0,.531c-.227-.012-.495-.02-.446-.332.014-.088.29-.134.445-.2" transform="translate(-254.083 -160.483)" fill="#646f6f"/>
    <path id="Trazado_771553" data-name="Trazado 771553" d="M428.654,233.592l-.323.313c-.057-.275.043-.387.323-.313" transform="translate(-254.41 -138.736)" fill="#e3fefc"/>
    <path id="Trazado_771554" data-name="Trazado 771554" d="M146.41,175.971q-31.271,0-62.542-.038c-1.357,0-2.652.573-4.127-.048a3.1,3.1,0,0,1-2.195-3.115,2.825,2.825,0,0,1,3.074-2.679c21.105-.489,42.212-.107,63.318-.183,21.724-.078,43.449-.017,65.173-.017a5,5,0,0,1,3.079.62c1.068.731,1.948,1.5,1.618,2.907a2.837,2.837,0,0,1-2.635,2.471c-.738.058-1.48.078-2.221.078q-31.271.006-62.542,0" transform="translate(-46.052 -100.88)"/>
    <path id="Trazado_771555" data-name="Trazado 771555" d="M303.79,151.529q-12.031,0-24.061,0a3.125,3.125,0,0,1-3.213-2.511c-.319-2.19,1.3-3.127,2.741-3.481a5.106,5.106,0,0,1,1.208-.07q23.86,0,47.719-.007c1.575,0,2.857.4,3.532,2a2.668,2.668,0,0,1-1.7,3.758,8.109,8.109,0,0,1-2.567.322q-11.829-.014-23.657-.006Z" transform="translate(-164.22 -86.401)"/>
    <path id="Trazado_771556" data-name="Trazado 771556" d="M100.932,151.537q-10.119,0-20.238-.005c-1.784,0-3.481-1.459-3.515-2.951A3.166,3.166,0,0,1,80.62,145.5q20.339-.051,40.679-.007c2.291.006,3.3,1.142,3.248,3.271-.039,1.682-1.349,2.778-3.377,2.781q-10.119.012-20.238,0Z" transform="translate(-45.842 -86.404)"/>
    <path id="Trazado_771557" data-name="Trazado 771557" d="M231.395,149.446a3.318,3.318,0,0,1-3.3,1.949c-4.377.021-8.755-.02-13.132-.007a2.942,2.942,0,0,1-2.991-2.775,2.588,2.588,0,0,1,2.169-3.1,99.686,99.686,0,0,1,14.921-.007c1.8.136,2.854,1.5,2.641,3.5-.22.063-.408.149-.31.438" transform="translate(-125.887 -86.267)"/>
    <path id="Trazado_771558" data-name="Trazado 771558" d="M86.274,116.653c-1.948,0-3.9.024-5.844-.008-1.586-.026-3.277-1.622-3.249-3a3.321,3.321,0,0,1,3.083-3.011c3.9-.057,7.794-.083,11.689,0a3.229,3.229,0,0,1,3.454,3.061c-.045,1.732-1.6,2.99-3.69,2.985-1.814,0-3.628,0-5.442,0v-.019" transform="translate(-45.843 -65.68)"/>
    <path id="Trazado_771559" data-name="Trazado 771559" d="M259.817,154.965c-.1-.289.089-.375.31-.438l-.31.438" transform="translate(-154.309 -91.786)" fill="#e3fefc"/>
    <path id="Trazado_771560" data-name="Trazado 771560" d="M224.146,461.71c-3.369,0-6.738.012-10.107-.005a3.343,3.343,0,0,1-3.245-3.006,3.126,3.126,0,0,1,3.064-2.991q10.41-.084,20.82-.035c2.156.013,3.718,1.356,3.653,2.864-.078,1.794-1.724,3.172-3.875,3.184-3.437.02-6.873.005-10.31.005v-.017" transform="translate(-125.206 -270.647)"/>
    <path id="Trazado_771561" data-name="Trazado 771561" d="M217.834,436.739c1.349,0,2.7-.027,4.047.007a2.9,2.9,0,0,1,3.047,2.786,2.823,2.823,0,0,1-2.608,3.139,60.987,60.987,0,0,1-9.081.042,2.857,2.857,0,0,1-2.324-3.209,2.718,2.718,0,0,1,2.673-2.694c1.414-.04,2.831-.008,4.246-.008v-.062" transform="translate(-125.267 -259.407)"/>
    <path id="Trazado_771562" data-name="Trazado 771562" d="M233.68,418.508a2.984,2.984,0,0,1-2.947-3.225A3.154,3.154,0,0,1,233.5,412a3.262,3.262,0,0,1,3.325,3.19,3.176,3.176,0,0,1-3.144,3.316" transform="translate(-137.05 -244.72)" fill="#020202"/>
    <path id="Trazado_771563" data-name="Trazado 771563" d="M210.789,415.332c.026-1.835,1.388-3.389,2.912-3.323a3.188,3.188,0,0,1,3.165,3.324,3.135,3.135,0,0,1-3.085,3.182,3,3,0,0,1-2.992-3.184" transform="translate(-125.204 -244.723)" fill="#020202"/>
    <path id="Trazado_771564" data-name="Trazado 771564" d="M126.808,40.91q-23.977,0-47.954,0c-2.292,0-3.6-1.108-3.627-3.049-.022-1.828,1.354-2.994,3.663-3q47.651-.02,95.3-.043a8.43,8.43,0,0,1,2.115.458,2.447,2.447,0,0,1,2.087,3.082,2.868,2.868,0,0,1-3.023,2.576c-16.187-.044-32.374-.025-48.561-.026" transform="translate(-44.683 -20.683)"/>
    <path id="Trazado_771565" data-name="Trazado 771565" d="M347.4,36.5c-.009-1.94,1.242-3.416,2.862-3.375,1.579.039,3.314,1.576,3.208,3.085-.123,1.728-1.167,3.427-2.932,3.37A3.124,3.124,0,0,1,347.4,36.5" transform="translate(-206.349 -19.677)" fill="#020202"/>
    <path id="Trazado_771566" data-name="Trazado 771566" d="M401.25,36.747c0-2.064.8-2.845,2.9-2.835a2.894,2.894,0,0,1,3.159,2.958,3.055,3.055,0,0,1-3.135,3.119,2.962,2.962,0,0,1-2.922-3.242" transform="translate(-238.334 -20.143)" fill="#020202"/>
    <path id="Trazado_771567" data-name="Trazado 771567" d="M377.16,33.912A3,3,0,0,1,380.4,37a3.192,3.192,0,0,1-3.058,3.034,3.087,3.087,0,0,1-3.012-3.182c.024-1.987.951-2.947,2.835-2.94" transform="translate(-222.341 -20.143)" fill="#020202"/>
    <path id="Trazado_771568" data-name="Trazado 771568" d="M401.068,455.666c3.3,0,6.6-.016,9.9.006,2.258.015,3.845,1.268,3.819,2.953-.029,1.85-1.552,3.1-3.894,3.1q-10.2.022-20.41-.007a3.012,3.012,0,0,1-3.189-3.047,2.979,2.979,0,0,1,3.063-2.964c3.569-.061,7.139-.018,10.709-.018v-.025" transform="translate(-230.045 -270.652)"/>
    <path id="Trazado_771569" data-name="Trazado 771569" d="M394,442.786c-1.281,0-2.564.043-3.843-.011a3,3,0,0,1-.092-5.981c2.761-.087,5.529-.119,8.289-.026a2.883,2.883,0,0,1,2.959,3.085,3.348,3.348,0,0,1-3.068,2.916c-1.411.084-2.831.017-4.247.016" transform="translate(-230.042 -259.398)"/>
    <path id="Trazado_771570" data-name="Trazado 771570" d="M410.076,418.524c-1.705-.021-2.856-1.481-2.816-3.575a3.047,3.047,0,0,1,3.091-2.909,3.333,3.333,0,0,1,2.958,3.392,3.128,3.128,0,0,1-3.233,3.092" transform="translate(-241.903 -244.74)" fill="#020202"/>
    <path id="Trazado_771571" data-name="Trazado 771571" d="M392.972,415.384c0,2.161-.812,3.121-2.7,3.171a3.036,3.036,0,0,1-2.966-3.264c.006-1.632,1.267-3.176,2.625-3.214,1.832-.05,3.035,1.259,3.039,3.307" transform="translate(-230.052 -244.764)" fill="#020202"/>
    <path id="Trazado_771572" data-name="Trazado 771572" d="M48.405,455.66c3.3,0,6.594-.022,9.891.007,2.582.022,3.629.984,3.6,3.206-.025,1.822-1.256,2.841-3.595,2.849-6.594.022-13.188.009-19.783,0a3.754,3.754,0,0,1-2.508-.533c-.842-.711-1.9-1.533-1.545-2.8.434-1.545,1.352-2.741,3.242-2.725,3.566.03,7.132.009,10.7.009v-.02" transform="translate(-20.429 -270.647)"/>
    <path id="Trazado_771573" data-name="Trazado 771573" d="M41.352,442.779c-1.147,0-2.294.011-3.441,0-1.718-.02-3.634-1.637-3.589-3.013a3.251,3.251,0,0,1,3.416-3.019c2.562-.073,5.128-.063,7.691-.005a3.086,3.086,0,0,1,3.073,2.82,3.007,3.007,0,0,1-2.9,3.181c-1.408.114-2.832.023-4.249.023v.016" transform="translate(-20.386 -259.386)"/>
    <path id="Trazado_771574" data-name="Trazado 771574" d="M60.315,415.38a3,3,0,0,1-2.855,3.158,3.2,3.2,0,0,1-3.222-3.328,3.619,3.619,0,0,1,2.977-3.155,3.094,3.094,0,0,1,3.1,3.325" transform="translate(-32.215 -244.751)" fill="#020202"/>
    <path id="Trazado_771575" data-name="Trazado 771575" d="M40.373,415.344a3,3,0,0,1-2.823,3.193,3.172,3.172,0,0,1-3.253-3.292,3.59,3.59,0,0,1,2.937-3.19,3.089,3.089,0,0,1,3.139,3.289" transform="translate(-20.371 -244.751)" fill="#020202"/>
  </g>
</svg>
