<svg xmlns="http://www.w3.org/2000/svg" xmlns:xlink="http://www.w3.org/1999/xlink" width="1030" height="103.674" viewBox="0 0 1030 103.674">
  <defs>
    <clipPath id="clip-path">
      <rect id="Rectángulo_364293" data-name="Rectángulo 364293" width="99" height="87" transform="translate(0 -0.095)" fill="#fff"/>
    </clipPath>
  </defs>
  <g id="Grupo_1034049" data-name="Grupo 1034049" transform="translate(-285 -17135)">
    <g id="Grupo_1034048" data-name="Grupo 1034048">
      <g id="Grupo_1031630" data-name="Grupo 1031630" transform="translate(285 17135)">
        <path id="Trazado_767231" data-name="Trazado 767231" d="M0,0V103.673H222.925L157.842,0Z" transform="translate(0 0)" fill="#12263f"/>
        <path id="Trazado_767232" data-name="Trazado 767232" d="M12.046,0,77.129,103.673H859.662V0Z" transform="translate(170.338 0)" fill="#5573c6"/>
      </g>
      <path id="Trazado_782952" data-name="Trazado 782952" d="M3.359,13.117H8.336V15H1.016V3.625H3.359ZM14.43,15a2.507,2.507,0,0,1-.227-.758,2.732,2.732,0,0,1-2.133.914,3,3,0,0,1-2.059-.719A2.312,2.312,0,0,1,9.2,12.625a2.389,2.389,0,0,1,1-2.062,4.915,4.915,0,0,1,2.879-.727h1.039V9.352a1.393,1.393,0,0,0-.3-.937,1.183,1.183,0,0,0-.949-.352,1.345,1.345,0,0,0-.895.273.929.929,0,0,0-.324.75H9.383a2.268,2.268,0,0,1,.453-1.359,3,3,0,0,1,1.281-.98,4.669,4.669,0,0,1,1.859-.355,3.689,3.689,0,0,1,2.48.785,2.747,2.747,0,0,1,.918,2.207v3.664a4.041,4.041,0,0,0,.336,1.82V15Zm-1.867-1.57a1.945,1.945,0,0,0,.922-.223,1.462,1.462,0,0,0,.625-.6V11.156h-.844q-1.7,0-1.8,1.172l-.008.133a.9.9,0,0,0,.3.7A1.153,1.153,0,0,0,12.563,13.43Zm9.2-2.719a4.954,4.954,0,0,1,.926-3.133,3,3,0,0,1,2.5-1.187,2.631,2.631,0,0,1,2.164.953l.094-.8h2.047v8.172a3.613,3.613,0,0,1-.5,1.93A3.236,3.236,0,0,1,27.57,17.9a4.985,4.985,0,0,1-2.141.43,4.635,4.635,0,0,1-1.812-.371A3.217,3.217,0,0,1,22.281,17l1-1.375a2.645,2.645,0,0,0,2.047.945,1.936,1.936,0,0,0,1.4-.48,1.8,1.8,0,0,0,.5-1.363v-.453a2.612,2.612,0,0,1-2.055.883,2.992,2.992,0,0,1-2.465-1.191,4.953,4.953,0,0,1-.941-3.16Zm2.258.161a3.1,3.1,0,0,0,.461,1.809,1.465,1.465,0,0,0,1.266.655,1.567,1.567,0,0,0,1.477-.777V8.988a1.563,1.563,0,0,0-1.461-.777,1.474,1.474,0,0,0-1.277.667A3.5,3.5,0,0,0,24.023,10.872Zm11.094,4.285a4.15,4.15,0,0,1-3.027-1.141,4.054,4.054,0,0,1-1.168-3.039v-.219a5.106,5.106,0,0,1,.492-2.277,3.612,3.612,0,0,1,1.395-1.547,3.914,3.914,0,0,1,2.059-.543A3.508,3.508,0,0,1,37.6,7.484a4.444,4.444,0,0,1,1,3.1v.922H33.211a2.1,2.1,0,0,0,.66,1.328,2,2,0,0,0,1.395.5,2.437,2.437,0,0,0,2.039-.945l1.109,1.242a3.389,3.389,0,0,1-1.375,1.121A4.511,4.511,0,0,1,35.117,15.156Zm-.258-6.945a1.411,1.411,0,0,0-1.09.455,2.357,2.357,0,0,0-.535,1.3h3.141V9.788a1.681,1.681,0,0,0-.406-1.165A1.456,1.456,0,0,0,34.859,8.211Zm9.594,4.453a.727.727,0,0,0-.41-.652,4.659,4.659,0,0,0-1.316-.426q-3.016-.633-3.016-2.562a2.323,2.323,0,0,1,.934-1.879,3.766,3.766,0,0,1,2.441-.754,4.053,4.053,0,0,1,2.574.758,2.388,2.388,0,0,1,.965,1.969H44.367a1.092,1.092,0,0,0-.312-.8A1.322,1.322,0,0,0,43.078,8a1.351,1.351,0,0,0-.883.258.814.814,0,0,0-.312.656.7.7,0,0,0,.355.605,3.657,3.657,0,0,0,1.2.4,9.8,9.8,0,0,1,1.422.379,2.336,2.336,0,0,1,1.789,2.273,2.2,2.2,0,0,1-.992,1.871,4.28,4.28,0,0,1-2.562.715,4.47,4.47,0,0,1-1.887-.379,3.166,3.166,0,0,1-1.293-1.039,2.414,2.414,0,0,1-.469-1.426h2.141a1.179,1.179,0,0,0,.445.922,1.766,1.766,0,0,0,1.109.32,1.635,1.635,0,0,0,.98-.246A.766.766,0,0,0,44.453,12.664Zm6.352-8.2V6.547H52.25V8.2H50.8v4.219a1.007,1.007,0,0,0,.18.672.9.9,0,0,0,.688.2,3.6,3.6,0,0,0,.664-.055v1.711a4.648,4.648,0,0,1-1.367.2,2.156,2.156,0,0,1-2.422-2.4V8.2H47.313V6.547h1.234V4.469ZM55.891,15H53.625V6.547h2.266Zm-2.4-10.641a1.112,1.112,0,0,1,.34-.836,1.465,1.465,0,0,1,1.848,0,1.105,1.105,0,0,1,.344.836,1.108,1.108,0,0,1-.348.844,1.448,1.448,0,0,1-1.836,0A1.108,1.108,0,0,1,53.492,4.359ZM57.4,10.7a5.013,5.013,0,0,1,.484-2.242A3.546,3.546,0,0,1,59.277,6.93a4.069,4.069,0,0,1,2.113-.539,3.849,3.849,0,0,1,2.793,1.047,4.2,4.2,0,0,1,1.207,2.844l.016.578A4.418,4.418,0,0,1,64.32,13.98a4.209,4.209,0,0,1-5.832,0A4.5,4.5,0,0,1,57.4,10.8Zm2.258.16a3.16,3.16,0,0,0,.453,1.843,1.628,1.628,0,0,0,2.578.008,3.457,3.457,0,0,0,.461-2.015,3.128,3.128,0,0,0-.461-1.831,1.5,1.5,0,0,0-1.3-.649,1.474,1.474,0,0,0-1.281.646A3.516,3.516,0,0,0,59.656,10.856ZM61.836,3H64.3L62.133,5.422H60.3Zm7.039,3.547.07.977a2.951,2.951,0,0,1,2.43-1.133,2.453,2.453,0,0,1,2,.789,3.682,3.682,0,0,1,.672,2.359V15H71.789V9.581a1.47,1.47,0,0,0-.312-1.045,1.4,1.4,0,0,0-1.039-.325,1.553,1.553,0,0,0-1.43.814V15H66.75V6.547Zm10.516,4.164a5.094,5.094,0,0,1,.887-3.148A2.877,2.877,0,0,1,82.7,6.391a2.589,2.589,0,0,1,2.039.922V3h2.266V15H84.969l-.109-.9a2.657,2.657,0,0,1-2.172,1.055,2.869,2.869,0,0,1-2.395-1.176A5.258,5.258,0,0,1,79.391,10.711Zm2.258.161a3.355,3.355,0,0,0,.414,1.829,1.348,1.348,0,0,0,1.2.636,1.51,1.51,0,0,0,1.477-.887V9.1a1.489,1.489,0,0,0-1.461-.887Q81.648,8.211,81.648,10.872Zm11,4.285a4.15,4.15,0,0,1-3.027-1.141,4.054,4.054,0,0,1-1.168-3.039v-.219a5.106,5.106,0,0,1,.492-2.277A3.612,3.612,0,0,1,90.34,6.934,3.914,3.914,0,0,1,92.4,6.391a3.508,3.508,0,0,1,2.73,1.094,4.444,4.444,0,0,1,1,3.1v.922H90.742a2.1,2.1,0,0,0,.66,1.328,2,2,0,0,0,1.395.5,2.437,2.437,0,0,0,2.039-.945l1.109,1.242a3.389,3.389,0,0,1-1.375,1.121A4.511,4.511,0,0,1,92.648,15.156Zm-.258-6.945a1.411,1.411,0,0,0-1.09.455,2.357,2.357,0,0,0-.535,1.3h3.141V9.788A1.681,1.681,0,0,0,93.5,8.623,1.456,1.456,0,0,0,92.391,8.211Zm12.516,5.125a1.481,1.481,0,0,0,1.016-.344,1.2,1.2,0,0,0,.406-.914h2.117a2.9,2.9,0,0,1-.469,1.574,3.093,3.093,0,0,1-1.262,1.109,3.949,3.949,0,0,1-1.77.395A3.67,3.67,0,0,1,102.086,14a4.56,4.56,0,0,1-1.047-3.184v-.148a4.508,4.508,0,0,1,1.039-3.117,3.627,3.627,0,0,1,2.852-1.164,3.555,3.555,0,0,1,2.543.9,3.2,3.2,0,0,1,.973,2.4h-2.117a1.551,1.551,0,0,0-.406-1.072,1.51,1.51,0,0,0-2.223.163,3.333,3.333,0,0,0-.4,1.866v.235a3.375,3.375,0,0,0,.4,1.878A1.377,1.377,0,0,0,104.906,13.336Zm4.477-2.641a5.013,5.013,0,0,1,.484-2.242,3.546,3.546,0,0,1,1.395-1.523,4.069,4.069,0,0,1,2.113-.539,3.849,3.849,0,0,1,2.793,1.047,4.2,4.2,0,0,1,1.207,2.844l.016.578A4.418,4.418,0,0,1,116.3,13.98a4.209,4.209,0,0,1-5.832,0,4.5,4.5,0,0,1-1.09-3.187Zm2.258.16a3.16,3.16,0,0,0,.453,1.843,1.628,1.628,0,0,0,2.578.008,3.457,3.457,0,0,0,.461-2.015,3.128,3.128,0,0,0-.461-1.831,1.5,1.5,0,0,0-1.3-.649,1.474,1.474,0,0,0-1.281.646A3.516,3.516,0,0,0,111.641,10.856Zm14.75,0a5.07,5.07,0,0,1-.887,3.129,2.843,2.843,0,0,1-2.395,1.176,2.633,2.633,0,0,1-2.07-.891V18.25h-2.258V6.547h2.094l.078.828a2.654,2.654,0,0,1,2.141-.984,2.862,2.862,0,0,1,2.43,1.156,5.207,5.207,0,0,1,.867,3.188Zm-2.258-.172a3.345,3.345,0,0,0-.418-1.826,1.36,1.36,0,0,0-1.215-.643,1.478,1.478,0,0,0-1.461.815V12.5a1.5,1.5,0,0,0,1.477.839Q124.133,13.336,124.133,10.679ZM130.172,15h-2.266V6.547h2.266Zm-2.4-10.641a1.112,1.112,0,0,1,.34-.836,1.465,1.465,0,0,1,1.848,0,1.105,1.105,0,0,1,.344.836,1.109,1.109,0,0,1-.348.844,1.448,1.448,0,0,1-1.836,0A1.108,1.108,0,0,1,127.773,4.359ZM136.93,15a2.507,2.507,0,0,1-.227-.758,2.732,2.732,0,0,1-2.133.914,3,3,0,0,1-2.059-.719,2.312,2.312,0,0,1-.816-1.812,2.389,2.389,0,0,1,1-2.062,4.915,4.915,0,0,1,2.879-.727h1.039V9.352a1.393,1.393,0,0,0-.3-.937,1.183,1.183,0,0,0-.949-.352,1.345,1.345,0,0,0-.895.273.929.929,0,0,0-.324.75h-2.258a2.268,2.268,0,0,1,.453-1.359,3,3,0,0,1,1.281-.98,4.669,4.669,0,0,1,1.859-.355,3.689,3.689,0,0,1,2.48.785,2.747,2.747,0,0,1,.918,2.207v3.664a4.041,4.041,0,0,0,.336,1.82V15Zm-1.867-1.57a1.945,1.945,0,0,0,.922-.223,1.462,1.462,0,0,0,.625-.6V11.156h-.844q-1.7,0-1.8,1.172l-.008.133a.9.9,0,0,0,.3.7A1.153,1.153,0,0,0,135.063,13.43Zm10.125-.766a.727.727,0,0,0-.41-.652,4.659,4.659,0,0,0-1.316-.426q-3.016-.633-3.016-2.562a2.323,2.323,0,0,1,.934-1.879,3.766,3.766,0,0,1,2.441-.754,4.053,4.053,0,0,1,2.574.758,2.388,2.388,0,0,1,.965,1.969H145.1a1.092,1.092,0,0,0-.312-.8A1.322,1.322,0,0,0,143.813,8a1.351,1.351,0,0,0-.883.258.814.814,0,0,0-.312.656.7.7,0,0,0,.355.605,3.657,3.657,0,0,0,1.2.4,9.8,9.8,0,0,1,1.422.379,2.336,2.336,0,0,1,1.789,2.273,2.205,2.205,0,0,1-.992,1.871,4.28,4.28,0,0,1-2.562.715,4.47,4.47,0,0,1-1.887-.379,3.166,3.166,0,0,1-1.293-1.039,2.414,2.414,0,0,1-.469-1.426h2.141a1.179,1.179,0,0,0,.445.922,1.766,1.766,0,0,0,1.109.32,1.635,1.635,0,0,0,.98-.246A.766.766,0,0,0,145.188,12.664Zm7.281-1.953a5.094,5.094,0,0,1,.887-3.148,2.877,2.877,0,0,1,2.426-1.172,2.589,2.589,0,0,1,2.039.922V3h2.266V15h-2.039l-.109-.9a2.657,2.657,0,0,1-2.172,1.055,2.869,2.869,0,0,1-2.395-1.176A5.258,5.258,0,0,1,152.469,10.711Zm2.258.161a3.355,3.355,0,0,0,.414,1.829,1.348,1.348,0,0,0,1.2.636,1.51,1.51,0,0,0,1.477-.887V9.1a1.489,1.489,0,0,0-1.461-.887Q154.727,8.211,154.727,10.872Zm11,4.285a4.15,4.15,0,0,1-3.027-1.141,4.054,4.054,0,0,1-1.168-3.039v-.219a5.106,5.106,0,0,1,.492-2.277,3.612,3.612,0,0,1,1.395-1.547,3.914,3.914,0,0,1,2.059-.543,3.508,3.508,0,0,1,2.73,1.094,4.444,4.444,0,0,1,1,3.1v.922H163.82a2.1,2.1,0,0,0,.66,1.328,2,2,0,0,0,1.395.5,2.437,2.437,0,0,0,2.039-.945l1.109,1.242a3.389,3.389,0,0,1-1.375,1.121A4.511,4.511,0,0,1,165.727,15.156Zm-.258-6.945a1.411,1.411,0,0,0-1.09.455,2.357,2.357,0,0,0-.535,1.3h3.141V9.788a1.681,1.681,0,0,0-.406-1.165A1.456,1.456,0,0,0,165.469,8.211Zm13.578,4.453a.727.727,0,0,0-.41-.652,4.659,4.659,0,0,0-1.316-.426q-3.016-.633-3.016-2.562a2.323,2.323,0,0,1,.934-1.879,3.766,3.766,0,0,1,2.441-.754,4.053,4.053,0,0,1,2.574.758,2.388,2.388,0,0,1,.965,1.969h-2.258a1.092,1.092,0,0,0-.312-.8A1.322,1.322,0,0,0,177.672,8a1.351,1.351,0,0,0-.883.258.814.814,0,0,0-.312.656.7.7,0,0,0,.355.605,3.657,3.657,0,0,0,1.2.4,9.8,9.8,0,0,1,1.422.379,2.336,2.336,0,0,1,1.789,2.273,2.205,2.205,0,0,1-.992,1.871,4.28,4.28,0,0,1-2.562.715,4.47,4.47,0,0,1-1.887-.379,3.166,3.166,0,0,1-1.293-1.039,2.414,2.414,0,0,1-.469-1.426h2.141a1.179,1.179,0,0,0,.445.922,1.766,1.766,0,0,0,1.109.32,1.635,1.635,0,0,0,.98-.246A.766.766,0,0,0,179.047,12.664Zm7.539,2.492a4.15,4.15,0,0,1-3.027-1.141,4.054,4.054,0,0,1-1.168-3.039v-.219a5.106,5.106,0,0,1,.492-2.277,3.612,3.612,0,0,1,1.395-1.547,3.914,3.914,0,0,1,2.059-.543,3.508,3.508,0,0,1,2.73,1.094,4.444,4.444,0,0,1,1,3.1v.922H184.68a2.1,2.1,0,0,0,.66,1.328,2,2,0,0,0,1.395.5,2.437,2.437,0,0,0,2.039-.945l1.109,1.242a3.389,3.389,0,0,1-1.375,1.121A4.511,4.511,0,0,1,186.586,15.156Zm-.258-6.945a1.411,1.411,0,0,0-1.09.455,2.357,2.357,0,0,0-.535,1.3h3.141V9.788a1.681,1.681,0,0,0-.406-1.165A1.456,1.456,0,0,0,186.328,8.211Zm4.688,2.5a4.954,4.954,0,0,1,.926-3.133,3,3,0,0,1,2.5-1.187,2.631,2.631,0,0,1,2.164.953l.094-.8h2.047v8.172a3.613,3.613,0,0,1-.5,1.93,3.236,3.236,0,0,1-1.418,1.25,4.985,4.985,0,0,1-2.141.43,4.635,4.635,0,0,1-1.812-.371A3.217,3.217,0,0,1,191.531,17l1-1.375a2.645,2.645,0,0,0,2.047.945,1.936,1.936,0,0,0,1.4-.48,1.8,1.8,0,0,0,.5-1.363v-.453a2.612,2.612,0,0,1-2.055.883,2.992,2.992,0,0,1-2.465-1.191,4.953,4.953,0,0,1-.941-3.16Zm2.258.161a3.1,3.1,0,0,0,.461,1.809,1.465,1.465,0,0,0,1.266.655,1.567,1.567,0,0,0,1.477-.777V8.988a1.563,1.563,0,0,0-1.461-.777,1.474,1.474,0,0,0-1.277.667A3.5,3.5,0,0,0,193.273,10.872Zm12.266,3.269a2.831,2.831,0,0,1-2.312,1.016,2.67,2.67,0,0,1-2.074-.781,3.335,3.335,0,0,1-.73-2.289V6.547h2.258v5.467q0,1.322,1.2,1.322a1.63,1.63,0,0,0,1.578-.8V6.547h2.266V15H205.6Zm8.641-5.477a6.134,6.134,0,0,0-.812-.062,1.654,1.654,0,0,0-1.68.867V15H209.43V6.547h2.133l.063,1.008a2.092,2.092,0,0,1,1.883-1.164,2.366,2.366,0,0,1,.7.1ZM217.648,15h-2.266V6.547h2.266Zm-2.4-10.641a1.112,1.112,0,0,1,.34-.836,1.465,1.465,0,0,1,1.848,0,1.105,1.105,0,0,1,.344.836,1.109,1.109,0,0,1-.348.844,1.448,1.448,0,0,1-1.836,0A1.109,1.109,0,0,1,215.25,4.359Zm3.906,6.352a5.094,5.094,0,0,1,.887-3.148,2.877,2.877,0,0,1,2.426-1.172,2.589,2.589,0,0,1,2.039.922V3h2.266V15h-2.039l-.109-.9a2.657,2.657,0,0,1-2.172,1.055,2.869,2.869,0,0,1-2.395-1.176A5.258,5.258,0,0,1,219.156,10.711Zm2.258.161a3.355,3.355,0,0,0,.414,1.829,1.348,1.348,0,0,0,1.2.636,1.51,1.51,0,0,0,1.477-.887V9.1a1.489,1.489,0,0,0-1.461-.887Q221.414,8.211,221.414,10.872ZM233.422,15a2.507,2.507,0,0,1-.227-.758,2.732,2.732,0,0,1-2.133.914A3,3,0,0,1,229,14.438a2.312,2.312,0,0,1-.816-1.812,2.389,2.389,0,0,1,1-2.062,4.915,4.915,0,0,1,2.879-.727H233.1V9.352a1.393,1.393,0,0,0-.3-.937,1.183,1.183,0,0,0-.949-.352,1.345,1.345,0,0,0-.895.273.929.929,0,0,0-.324.75h-2.258a2.268,2.268,0,0,1,.453-1.359,3,3,0,0,1,1.281-.98,4.669,4.669,0,0,1,1.859-.355,3.689,3.689,0,0,1,2.48.785,2.747,2.747,0,0,1,.918,2.207v3.664a4.041,4.041,0,0,0,.336,1.82V15Zm-1.867-1.57a1.945,1.945,0,0,0,.922-.223,1.462,1.462,0,0,0,.625-.6V11.156h-.844q-1.7,0-1.8,1.172l-.008.133a.9.9,0,0,0,.3.7A1.153,1.153,0,0,0,231.555,13.43Zm5.2-2.719a5.094,5.094,0,0,1,.887-3.148,2.877,2.877,0,0,1,2.426-1.172,2.589,2.589,0,0,1,2.039.922V3h2.266V15h-2.039l-.109-.9a2.657,2.657,0,0,1-2.172,1.055,2.869,2.869,0,0,1-2.395-1.176A5.258,5.258,0,0,1,236.75,10.711Zm2.258.161a3.355,3.355,0,0,0,.414,1.829,1.348,1.348,0,0,0,1.2.636,1.51,1.51,0,0,0,1.477-.887V9.1a1.489,1.489,0,0,0-1.461-.887Q239.008,8.211,239.008,10.872ZM252.484,15h-2.266V6.547h2.266Zm-2.4-10.641a1.112,1.112,0,0,1,.34-.836,1.465,1.465,0,0,1,1.848,0,1.105,1.105,0,0,1,.344.836,1.109,1.109,0,0,1-.348.844,1.448,1.448,0,0,1-1.836,0A1.109,1.109,0,0,1,250.086,4.359Zm6.336,2.188.07.977a2.951,2.951,0,0,1,2.43-1.133,2.453,2.453,0,0,1,2,.789,3.681,3.681,0,0,1,.672,2.359V15h-2.258V9.581a1.47,1.47,0,0,0-.312-1.045,1.4,1.4,0,0,0-1.039-.325,1.553,1.553,0,0,0-1.43.814V15H254.3V6.547Zm10.4,6.789a1.481,1.481,0,0,0,1.016-.344,1.2,1.2,0,0,0,.406-.914h2.117a2.9,2.9,0,0,1-.469,1.574,3.093,3.093,0,0,1-1.262,1.109,3.949,3.949,0,0,1-1.77.395A3.67,3.67,0,0,1,264,14a4.56,4.56,0,0,1-1.047-3.184v-.148a4.508,4.508,0,0,1,1.039-3.117,3.627,3.627,0,0,1,2.852-1.164,3.555,3.555,0,0,1,2.543.9,3.2,3.2,0,0,1,.973,2.4h-2.117a1.551,1.551,0,0,0-.406-1.072,1.51,1.51,0,0,0-2.223.163,3.333,3.333,0,0,0-.4,1.866v.235a3.375,3.375,0,0,0,.4,1.878A1.377,1.377,0,0,0,266.82,13.336ZM274.031,15h-2.266V3h2.266Zm6.922-.859a2.831,2.831,0,0,1-2.312,1.016,2.67,2.67,0,0,1-2.074-.781,3.335,3.335,0,0,1-.73-2.289V6.547h2.258v5.467q0,1.322,1.2,1.322a1.63,1.63,0,0,0,1.578-.8V6.547h2.266V15h-2.125ZM288,11.8l1.563-5.258h2.422l-3.4,9.766-.187.445a2.577,2.577,0,0,1-2.5,1.656,3.552,3.552,0,0,1-1-.148V16.555l.344.008a1.857,1.857,0,0,0,.957-.2,1.283,1.283,0,0,0,.5-.648l.266-.7L284,6.547h2.43Zm8.664,3.352a4.15,4.15,0,0,1-3.027-1.141,4.054,4.054,0,0,1-1.168-3.039v-.219a5.106,5.106,0,0,1,.492-2.277,3.612,3.612,0,0,1,1.395-1.547,3.914,3.914,0,0,1,2.059-.543,3.508,3.508,0,0,1,2.73,1.094,4.444,4.444,0,0,1,1,3.1v.922h-5.383a2.1,2.1,0,0,0,.66,1.328,2,2,0,0,0,1.395.5,2.437,2.437,0,0,0,2.039-.945l1.109,1.242a3.389,3.389,0,0,1-1.375,1.121A4.511,4.511,0,0,1,296.664,15.156Zm-.258-6.945a1.411,1.411,0,0,0-1.09.455,2.357,2.357,0,0,0-.535,1.3h3.141V9.788a1.681,1.681,0,0,0-.406-1.165A1.456,1.456,0,0,0,296.406,8.211ZM307.789,15h-2.266V3h2.266Zm6.758,0a2.508,2.508,0,0,1-.227-.758,2.732,2.732,0,0,1-2.133.914,3,3,0,0,1-2.059-.719,2.312,2.312,0,0,1-.816-1.812,2.389,2.389,0,0,1,1-2.062,4.915,4.915,0,0,1,2.879-.727h1.039V9.352a1.393,1.393,0,0,0-.3-.937,1.183,1.183,0,0,0-.949-.352,1.345,1.345,0,0,0-.895.273.929.929,0,0,0-.324.75H309.5a2.268,2.268,0,0,1,.453-1.359,3,3,0,0,1,1.281-.98,4.669,4.669,0,0,1,1.859-.355,3.689,3.689,0,0,1,2.48.785,2.747,2.747,0,0,1,.918,2.207v3.664a4.041,4.041,0,0,0,.336,1.82V15Zm-1.867-1.57a1.945,1.945,0,0,0,.922-.223,1.462,1.462,0,0,0,.625-.6V11.156h-.844q-1.7,0-1.8,1.172l-.008.133a.9.9,0,0,0,.3.7A1.153,1.153,0,0,0,312.68,13.43ZM326.1,15.156a4.15,4.15,0,0,1-3.027-1.141,4.054,4.054,0,0,1-1.168-3.039v-.219A5.106,5.106,0,0,1,322.4,8.48a3.612,3.612,0,0,1,1.395-1.547,3.914,3.914,0,0,1,2.059-.543,3.508,3.508,0,0,1,2.73,1.094,4.444,4.444,0,0,1,1,3.1v.922H324.2a2.1,2.1,0,0,0,.66,1.328,2,2,0,0,0,1.395.5,2.437,2.437,0,0,0,2.039-.945l1.109,1.242a3.389,3.389,0,0,1-1.375,1.121A4.511,4.511,0,0,1,326.1,15.156Zm-.258-6.945a1.411,1.411,0,0,0-1.09.455,2.357,2.357,0,0,0-.535,1.3h3.141V9.788a1.681,1.681,0,0,0-.406-1.165A1.456,1.456,0,0,0,325.844,8.211Zm7.4,6.789h-2.266V3h2.266Zm4.242,0h-2.266V6.547h2.266Zm-2.4-10.641a1.112,1.112,0,0,1,.34-.836,1.465,1.465,0,0,1,1.848,0,1.105,1.105,0,0,1,.344.836,1.108,1.108,0,0,1-.348.844,1.448,1.448,0,0,1-1.836,0A1.108,1.108,0,0,1,335.086,4.359Zm6.375,2.188.07.945a2.971,2.971,0,0,1,2.43-1.1A2.255,2.255,0,0,1,346.2,7.68a2.9,2.9,0,0,1,2.539-1.289,2.521,2.521,0,0,1,2.047.8,3.681,3.681,0,0,1,.672,2.41V15H349.2V9.6a1.616,1.616,0,0,0-.281-1.053,1.245,1.245,0,0,0-.992-.333,1.409,1.409,0,0,0-1.406.971L346.523,15h-2.258V9.6a1.6,1.6,0,0,0-.289-1.065,1.257,1.257,0,0,0-.984-.329,1.463,1.463,0,0,0-1.391.8V15h-2.258V6.547ZM355.578,15h-2.266V6.547h2.266Zm-2.4-10.641a1.112,1.112,0,0,1,.34-.836,1.465,1.465,0,0,1,1.848,0,1.105,1.105,0,0,1,.344.836,1.108,1.108,0,0,1-.348.844,1.448,1.448,0,0,1-1.836,0A1.108,1.108,0,0,1,353.18,4.359Zm6.336,2.188.07.977a2.951,2.951,0,0,1,2.43-1.133,2.453,2.453,0,0,1,2,.789,3.681,3.681,0,0,1,.672,2.359V15H362.43V9.581a1.47,1.47,0,0,0-.312-1.045,1.4,1.4,0,0,0-1.039-.325,1.553,1.553,0,0,0-1.43.814V15h-2.258V6.547ZM371.3,15a2.508,2.508,0,0,1-.227-.758,2.732,2.732,0,0,1-2.133.914,3,3,0,0,1-2.059-.719,2.312,2.312,0,0,1-.816-1.812,2.389,2.389,0,0,1,1-2.062,4.915,4.915,0,0,1,2.879-.727h1.039V9.352a1.393,1.393,0,0,0-.3-.937,1.183,1.183,0,0,0-.949-.352,1.345,1.345,0,0,0-.895.273.929.929,0,0,0-.324.75H366.25a2.268,2.268,0,0,1,.453-1.359,3,3,0,0,1,1.281-.98,4.669,4.669,0,0,1,1.859-.355,3.689,3.689,0,0,1,2.48.785,2.747,2.747,0,0,1,.918,2.207v3.664a4.041,4.041,0,0,0,.336,1.82V15Zm-1.867-1.57a1.945,1.945,0,0,0,.922-.223,1.462,1.462,0,0,0,.625-.6V11.156h-.844q-1.7,0-1.8,1.172l-.008.133a.9.9,0,0,0,.3.7A1.153,1.153,0,0,0,369.43,13.43Zm9.063-.094a1.481,1.481,0,0,0,1.016-.344,1.2,1.2,0,0,0,.406-.914h2.117a2.9,2.9,0,0,1-.469,1.574,3.093,3.093,0,0,1-1.262,1.109,3.949,3.949,0,0,1-1.77.395A3.67,3.67,0,0,1,375.672,14a4.56,4.56,0,0,1-1.047-3.184v-.148a4.508,4.508,0,0,1,1.039-3.117,3.627,3.627,0,0,1,2.852-1.164,3.555,3.555,0,0,1,2.543.9,3.2,3.2,0,0,1,.973,2.4h-2.117a1.551,1.551,0,0,0-.406-1.072,1.51,1.51,0,0,0-2.223.163,3.333,3.333,0,0,0-.4,1.866v.235a3.375,3.375,0,0,0,.4,1.878A1.377,1.377,0,0,0,378.492,13.336ZM385.7,15h-2.266V6.547H385.7ZM383.3,4.359a1.112,1.112,0,0,1,.34-.836,1.465,1.465,0,0,1,1.848,0,1.105,1.105,0,0,1,.344.836,1.108,1.108,0,0,1-.348.844,1.448,1.448,0,0,1-1.836,0A1.108,1.108,0,0,1,383.3,4.359Zm3.906,6.336a5.013,5.013,0,0,1,.484-2.242A3.546,3.546,0,0,1,389.09,6.93a4.069,4.069,0,0,1,2.113-.539A3.849,3.849,0,0,1,394,7.438a4.2,4.2,0,0,1,1.207,2.844l.016.578a4.418,4.418,0,0,1-1.086,3.121,4.209,4.209,0,0,1-5.832,0,4.5,4.5,0,0,1-1.09-3.187Zm2.258.16a3.16,3.16,0,0,0,.453,1.843,1.628,1.628,0,0,0,2.578.008,3.458,3.458,0,0,0,.461-2.015A3.128,3.128,0,0,0,392.5,8.86a1.5,1.5,0,0,0-1.3-.649,1.474,1.474,0,0,0-1.281.646A3.516,3.516,0,0,0,389.469,10.856ZM391.648,3h2.461l-2.164,2.422h-1.836Zm7.039,3.547.07.977a2.951,2.951,0,0,1,2.43-1.133,2.453,2.453,0,0,1,2,.789,3.681,3.681,0,0,1,.672,2.359V15H401.6V9.581a1.47,1.47,0,0,0-.312-1.045,1.4,1.4,0,0,0-1.039-.325,1.553,1.553,0,0,0-1.43.814V15h-2.258V6.547ZM409.2,10.711a5.094,5.094,0,0,1,.887-3.148,2.877,2.877,0,0,1,2.426-1.172,2.589,2.589,0,0,1,2.039.922V3h2.266V15h-2.039l-.109-.9a2.657,2.657,0,0,1-2.172,1.055,2.869,2.869,0,0,1-2.395-1.176A5.258,5.258,0,0,1,409.2,10.711Zm2.258.161a3.355,3.355,0,0,0,.414,1.829,1.348,1.348,0,0,0,1.2.636,1.51,1.51,0,0,0,1.477-.887V9.1a1.489,1.489,0,0,0-1.461-.887Q411.461,8.211,411.461,10.872Zm11,4.285a4.15,4.15,0,0,1-3.027-1.141,4.054,4.054,0,0,1-1.168-3.039v-.219a5.106,5.106,0,0,1,.492-2.277,3.612,3.612,0,0,1,1.395-1.547,3.914,3.914,0,0,1,2.059-.543,3.508,3.508,0,0,1,2.73,1.094,4.444,4.444,0,0,1,1,3.1v.922h-5.383a2.1,2.1,0,0,0,.66,1.328,2,2,0,0,0,1.395.5,2.437,2.437,0,0,0,2.039-.945l1.109,1.242a3.389,3.389,0,0,1-1.375,1.121A4.511,4.511,0,0,1,422.461,15.156ZM422.2,8.211a1.411,1.411,0,0,0-1.09.455,2.357,2.357,0,0,0-.535,1.3h3.141V9.788a1.681,1.681,0,0,0-.406-1.165A1.456,1.456,0,0,0,422.2,8.211Zm12.516,5.125a1.481,1.481,0,0,0,1.016-.344,1.2,1.2,0,0,0,.406-.914h2.117a2.9,2.9,0,0,1-.469,1.574,3.093,3.093,0,0,1-1.262,1.109,3.949,3.949,0,0,1-1.77.395A3.67,3.67,0,0,1,431.9,14a4.56,4.56,0,0,1-1.047-3.184v-.148a4.508,4.508,0,0,1,1.039-3.117,3.627,3.627,0,0,1,2.852-1.164,3.555,3.555,0,0,1,2.543.9,3.2,3.2,0,0,1,.973,2.4h-2.117a1.551,1.551,0,0,0-.406-1.072,1.51,1.51,0,0,0-2.223.163,3.333,3.333,0,0,0-.4,1.866v.235a3.375,3.375,0,0,0,.4,1.878A1.377,1.377,0,0,0,434.719,13.336ZM439.2,10.7a5.013,5.013,0,0,1,.484-2.242,3.546,3.546,0,0,1,1.395-1.523,4.069,4.069,0,0,1,2.113-.539,3.849,3.849,0,0,1,2.793,1.047,4.2,4.2,0,0,1,1.207,2.844l.016.578a4.418,4.418,0,0,1-1.086,3.121,4.209,4.209,0,0,1-5.832,0A4.5,4.5,0,0,1,439.2,10.8Zm2.258.16a3.16,3.16,0,0,0,.453,1.843,1.628,1.628,0,0,0,2.578.008,3.458,3.458,0,0,0,.461-2.015,3.128,3.128,0,0,0-.461-1.831,1.5,1.5,0,0,0-1.3-.649,1.474,1.474,0,0,0-1.281.646A3.516,3.516,0,0,0,441.453,10.856Zm14.75,0a5.07,5.07,0,0,1-.887,3.129,2.843,2.843,0,0,1-2.395,1.176,2.633,2.633,0,0,1-2.07-.891V18.25h-2.258V6.547h2.094l.078.828a2.654,2.654,0,0,1,2.141-.984,2.862,2.862,0,0,1,2.43,1.156,5.207,5.207,0,0,1,.867,3.188Zm-2.258-.172a3.345,3.345,0,0,0-.418-1.826,1.36,1.36,0,0,0-1.215-.643,1.478,1.478,0,0,0-1.461.815V12.5a1.5,1.5,0,0,0,1.477.839Q453.945,13.336,453.945,10.679ZM459.984,15h-2.266V6.547h2.266Zm-2.4-10.641a1.112,1.112,0,0,1,.34-.836,1.465,1.465,0,0,1,1.848,0,1.105,1.105,0,0,1,.344.836,1.108,1.108,0,0,1-.348.844,1.448,1.448,0,0,1-1.836,0A1.108,1.108,0,0,1,457.586,4.359ZM466.742,15a2.508,2.508,0,0,1-.227-.758,2.732,2.732,0,0,1-2.133.914,3,3,0,0,1-2.059-.719,2.312,2.312,0,0,1-.816-1.812,2.389,2.389,0,0,1,1-2.062,4.915,4.915,0,0,1,2.879-.727h1.039V9.352a1.393,1.393,0,0,0-.3-.937,1.183,1.183,0,0,0-.949-.352,1.345,1.345,0,0,0-.895.273.929.929,0,0,0-.324.75H461.7a2.268,2.268,0,0,1,.453-1.359,3,3,0,0,1,1.281-.98,4.669,4.669,0,0,1,1.859-.355,3.689,3.689,0,0,1,2.48.785,2.747,2.747,0,0,1,.918,2.207v3.664a4.041,4.041,0,0,0,.336,1.82V15Zm-1.867-1.57a1.945,1.945,0,0,0,.922-.223,1.462,1.462,0,0,0,.625-.6V11.156h-.844q-1.7,0-1.8,1.172l-.008.133a.9.9,0,0,0,.3.7A1.153,1.153,0,0,0,464.875,13.43ZM475,12.664a.727.727,0,0,0-.41-.652,4.659,4.659,0,0,0-1.316-.426q-3.016-.633-3.016-2.562a2.323,2.323,0,0,1,.934-1.879,3.766,3.766,0,0,1,2.441-.754,4.053,4.053,0,0,1,2.574.758,2.388,2.388,0,0,1,.965,1.969h-2.258a1.092,1.092,0,0,0-.312-.8A1.322,1.322,0,0,0,473.625,8a1.351,1.351,0,0,0-.883.258.814.814,0,0,0-.312.656.7.7,0,0,0,.355.605,3.657,3.657,0,0,0,1.2.4,9.8,9.8,0,0,1,1.422.379A2.336,2.336,0,0,1,477.2,12.57a2.2,2.2,0,0,1-.992,1.871,4.28,4.28,0,0,1-2.562.715,4.47,4.47,0,0,1-1.887-.379,3.166,3.166,0,0,1-1.293-1.039,2.414,2.414,0,0,1-.469-1.426h2.141a1.179,1.179,0,0,0,.445.922,1.766,1.766,0,0,0,1.109.32,1.635,1.635,0,0,0,.98-.246A.766.766,0,0,0,475,12.664Zm7.281-1.953a5.094,5.094,0,0,1,.887-3.148,2.877,2.877,0,0,1,2.426-1.172,2.589,2.589,0,0,1,2.039.922V3H489.9V15h-2.039l-.109-.9a2.657,2.657,0,0,1-2.172,1.055,2.869,2.869,0,0,1-2.395-1.176A5.258,5.258,0,0,1,482.281,10.711Zm2.258.161a3.355,3.355,0,0,0,.414,1.829,1.348,1.348,0,0,0,1.2.636,1.51,1.51,0,0,0,1.477-.887V9.1a1.489,1.489,0,0,0-1.461-.887Q484.539,8.211,484.539,10.872Zm11,4.285a4.15,4.15,0,0,1-3.027-1.141,4.054,4.054,0,0,1-1.168-3.039v-.219a5.106,5.106,0,0,1,.492-2.277,3.612,3.612,0,0,1,1.395-1.547,3.914,3.914,0,0,1,2.059-.543,3.508,3.508,0,0,1,2.73,1.094,4.444,4.444,0,0,1,1,3.1v.922h-5.383a2.1,2.1,0,0,0,.66,1.328,2,2,0,0,0,1.395.5,2.437,2.437,0,0,0,2.039-.945l1.109,1.242a3.389,3.389,0,0,1-1.375,1.121A4.511,4.511,0,0,1,495.539,15.156Zm-.258-6.945a1.411,1.411,0,0,0-1.09.455,2.357,2.357,0,0,0-.535,1.3H496.8V9.788a1.681,1.681,0,0,0-.406-1.165A1.456,1.456,0,0,0,495.281,8.211Zm13.578,4.453a.727.727,0,0,0-.41-.652,4.659,4.659,0,0,0-1.316-.426q-3.016-.633-3.016-2.562a2.323,2.323,0,0,1,.934-1.879,3.766,3.766,0,0,1,2.441-.754,4.053,4.053,0,0,1,2.574.758,2.388,2.388,0,0,1,.965,1.969h-2.258a1.092,1.092,0,0,0-.312-.8A1.322,1.322,0,0,0,507.484,8a1.351,1.351,0,0,0-.883.258.814.814,0,0,0-.312.656.7.7,0,0,0,.355.605,3.657,3.657,0,0,0,1.2.4,9.8,9.8,0,0,1,1.422.379,2.336,2.336,0,0,1,1.789,2.273,2.2,2.2,0,0,1-.992,1.871,4.28,4.28,0,0,1-2.562.715,4.47,4.47,0,0,1-1.887-.379,3.166,3.166,0,0,1-1.293-1.039,2.414,2.414,0,0,1-.469-1.426h2.141a1.179,1.179,0,0,0,.445.922,1.766,1.766,0,0,0,1.109.32,1.635,1.635,0,0,0,.98-.246A.766.766,0,0,0,508.859,12.664Zm7.539,2.492a4.15,4.15,0,0,1-3.027-1.141,4.054,4.054,0,0,1-1.168-3.039v-.219A5.106,5.106,0,0,1,512.7,8.48a3.612,3.612,0,0,1,1.395-1.547,3.914,3.914,0,0,1,2.059-.543,3.508,3.508,0,0,1,2.73,1.094,4.444,4.444,0,0,1,1,3.1v.922h-5.383a2.1,2.1,0,0,0,.66,1.328,2,2,0,0,0,1.395.5,2.437,2.437,0,0,0,2.039-.945l1.109,1.242a3.39,3.39,0,0,1-1.375,1.121A4.511,4.511,0,0,1,516.4,15.156Zm-.258-6.945a1.411,1.411,0,0,0-1.09.455,2.357,2.357,0,0,0-.535,1.3h3.141V9.788a1.681,1.681,0,0,0-.406-1.165A1.456,1.456,0,0,0,516.141,8.211Zm4.688,2.5a4.954,4.954,0,0,1,.926-3.133,3,3,0,0,1,2.5-1.187,2.631,2.631,0,0,1,2.164.953l.094-.8h2.047v8.172a3.613,3.613,0,0,1-.5,1.93,3.236,3.236,0,0,1-1.418,1.25,4.985,4.985,0,0,1-2.141.43,4.635,4.635,0,0,1-1.812-.371A3.217,3.217,0,0,1,521.344,17l1-1.375a2.645,2.645,0,0,0,2.047.945,1.936,1.936,0,0,0,1.4-.48,1.8,1.8,0,0,0,.5-1.363v-.453a2.612,2.612,0,0,1-2.055.883,2.992,2.992,0,0,1-2.465-1.191,4.953,4.953,0,0,1-.941-3.16Zm2.258.161a3.1,3.1,0,0,0,.461,1.809,1.465,1.465,0,0,0,1.266.655,1.567,1.567,0,0,0,1.477-.777V8.988a1.563,1.563,0,0,0-1.461-.777,1.474,1.474,0,0,0-1.277.667A3.5,3.5,0,0,0,523.086,10.872Zm12.266,3.269a2.831,2.831,0,0,1-2.312,1.016,2.67,2.67,0,0,1-2.074-.781,3.335,3.335,0,0,1-.73-2.289V6.547h2.258v5.467q0,1.322,1.2,1.322a1.63,1.63,0,0,0,1.578-.8V6.547h2.266V15h-2.125Zm8.641-5.477a6.134,6.134,0,0,0-.812-.062,1.654,1.654,0,0,0-1.68.867V15h-2.258V6.547h2.133l.063,1.008a2.092,2.092,0,0,1,1.883-1.164,2.366,2.366,0,0,1,.7.1ZM547.461,15H545.2V6.547h2.266Zm-2.4-10.641a1.112,1.112,0,0,1,.34-.836,1.465,1.465,0,0,1,1.848,0,1.105,1.105,0,0,1,.344.836,1.109,1.109,0,0,1-.348.844,1.448,1.448,0,0,1-1.836,0A1.109,1.109,0,0,1,545.063,4.359Zm3.906,6.352a5.094,5.094,0,0,1,.887-3.148,2.877,2.877,0,0,1,2.426-1.172,2.589,2.589,0,0,1,2.039.922V3h2.266V15h-2.039l-.109-.9a2.657,2.657,0,0,1-2.172,1.055,2.869,2.869,0,0,1-2.395-1.176A5.258,5.258,0,0,1,548.969,10.711Zm2.258.161a3.355,3.355,0,0,0,.414,1.829,1.348,1.348,0,0,0,1.2.636,1.51,1.51,0,0,0,1.477-.887V9.1a1.489,1.489,0,0,0-1.461-.887Q551.227,8.211,551.227,10.872ZM563.234,15a2.507,2.507,0,0,1-.227-.758,2.732,2.732,0,0,1-2.133.914,3,3,0,0,1-2.059-.719A2.312,2.312,0,0,1,558,12.625a2.389,2.389,0,0,1,1-2.062,4.915,4.915,0,0,1,2.879-.727h1.039V9.352a1.393,1.393,0,0,0-.3-.937,1.183,1.183,0,0,0-.949-.352,1.345,1.345,0,0,0-.895.273.929.929,0,0,0-.324.75h-2.258a2.268,2.268,0,0,1,.453-1.359,3,3,0,0,1,1.281-.98,4.669,4.669,0,0,1,1.859-.355,3.689,3.689,0,0,1,2.48.785,2.747,2.747,0,0,1,.918,2.207v3.664a4.041,4.041,0,0,0,.336,1.82V15Zm-1.867-1.57a1.945,1.945,0,0,0,.922-.223,1.463,1.463,0,0,0,.625-.6V11.156h-.844q-1.7,0-1.8,1.172l-.008.133a.9.9,0,0,0,.3.7A1.153,1.153,0,0,0,561.367,13.43Zm5.2-2.719a5.094,5.094,0,0,1,.887-3.148,2.877,2.877,0,0,1,2.426-1.172,2.589,2.589,0,0,1,2.039.922V3h2.266V15h-2.039l-.109-.9a2.657,2.657,0,0,1-2.172,1.055,2.869,2.869,0,0,1-2.395-1.176A5.258,5.258,0,0,1,566.563,10.711Zm2.258.161a3.355,3.355,0,0,0,.414,1.829,1.348,1.348,0,0,0,1.2.636,1.51,1.51,0,0,0,1.477-.887V9.1a1.489,1.489,0,0,0-1.461-.887Q568.82,8.211,568.82,10.872ZM582.3,15h-2.266V6.547H582.3ZM579.9,4.359a1.112,1.112,0,0,1,.34-.836,1.465,1.465,0,0,1,1.848,0,1.105,1.105,0,0,1,.344.836,1.109,1.109,0,0,1-.348.844,1.448,1.448,0,0,1-1.836,0A1.109,1.109,0,0,1,579.9,4.359Zm6.336,2.188.07.977a2.951,2.951,0,0,1,2.43-1.133,2.453,2.453,0,0,1,2,.789,3.682,3.682,0,0,1,.672,2.359V15h-2.258V9.581a1.471,1.471,0,0,0-.312-1.045,1.4,1.4,0,0,0-1.039-.325,1.553,1.553,0,0,0-1.43.814V15h-2.258V6.547Zm8.961,0,.07.977a2.951,2.951,0,0,1,2.43-1.133,2.453,2.453,0,0,1,2,.789,3.682,3.682,0,0,1,.672,2.359V15h-2.258V9.581a1.471,1.471,0,0,0-.312-1.045,1.4,1.4,0,0,0-1.039-.325,1.553,1.553,0,0,0-1.43.814V15H593.07V6.547Zm10.773,8.609a4.15,4.15,0,0,1-3.027-1.141,4.054,4.054,0,0,1-1.168-3.039v-.219a5.106,5.106,0,0,1,.492-2.277,3.612,3.612,0,0,1,1.395-1.547,3.914,3.914,0,0,1,2.059-.543,3.508,3.508,0,0,1,2.73,1.094,4.444,4.444,0,0,1,1,3.1v.922h-5.383a2.1,2.1,0,0,0,.66,1.328,2,2,0,0,0,1.395.5,2.437,2.437,0,0,0,2.039-.945l1.109,1.242a3.39,3.39,0,0,1-1.375,1.121A4.511,4.511,0,0,1,605.969,15.156Zm-.258-6.945a1.411,1.411,0,0,0-1.09.455,2.357,2.357,0,0,0-.535,1.3h3.141V9.788a1.681,1.681,0,0,0-.406-1.165A1.456,1.456,0,0,0,605.711,8.211Zm8.531,5.125a1.481,1.481,0,0,0,1.016-.344,1.2,1.2,0,0,0,.406-.914h2.117a2.9,2.9,0,0,1-.469,1.574,3.093,3.093,0,0,1-1.262,1.109,3.949,3.949,0,0,1-1.77.395A3.67,3.67,0,0,1,611.422,14a4.56,4.56,0,0,1-1.047-3.184v-.148a4.508,4.508,0,0,1,1.039-3.117,3.627,3.627,0,0,1,2.852-1.164,3.555,3.555,0,0,1,2.543.9,3.2,3.2,0,0,1,.973,2.4h-2.117a1.551,1.551,0,0,0-.406-1.072,1.51,1.51,0,0,0-2.223.163,3.333,3.333,0,0,0-.4,1.866v.235a3.375,3.375,0,0,0,.4,1.878A1.377,1.377,0,0,0,614.242,13.336Zm8.719,1.82a4.15,4.15,0,0,1-3.027-1.141,4.054,4.054,0,0,1-1.168-3.039v-.219a5.106,5.106,0,0,1,.492-2.277,3.612,3.612,0,0,1,1.395-1.547,3.914,3.914,0,0,1,2.059-.543,3.508,3.508,0,0,1,2.73,1.094,4.444,4.444,0,0,1,1,3.1v.922h-5.383a2.1,2.1,0,0,0,.66,1.328,2,2,0,0,0,1.395.5,2.437,2.437,0,0,0,2.039-.945l1.109,1.242a3.39,3.39,0,0,1-1.375,1.121A4.511,4.511,0,0,1,622.961,15.156ZM622.7,8.211a1.411,1.411,0,0,0-1.09.455,2.357,2.357,0,0,0-.535,1.3h3.141V9.788a1.681,1.681,0,0,0-.406-1.165A1.456,1.456,0,0,0,622.7,8.211Zm9.594,4.453a.727.727,0,0,0-.41-.652,4.659,4.659,0,0,0-1.316-.426q-3.016-.633-3.016-2.562a2.323,2.323,0,0,1,.934-1.879,3.766,3.766,0,0,1,2.441-.754,4.053,4.053,0,0,1,2.574.758,2.388,2.388,0,0,1,.965,1.969h-2.258a1.093,1.093,0,0,0-.312-.8A1.322,1.322,0,0,0,630.922,8a1.351,1.351,0,0,0-.883.258.814.814,0,0,0-.312.656.7.7,0,0,0,.355.605,3.657,3.657,0,0,0,1.2.4,9.8,9.8,0,0,1,1.422.379,2.336,2.336,0,0,1,1.789,2.273,2.205,2.205,0,0,1-.992,1.871,4.28,4.28,0,0,1-2.562.715,4.471,4.471,0,0,1-1.887-.379,3.165,3.165,0,0,1-1.293-1.039,2.414,2.414,0,0,1-.469-1.426h2.141a1.179,1.179,0,0,0,.445.922,1.766,1.766,0,0,0,1.109.32,1.635,1.635,0,0,0,.98-.246A.766.766,0,0,0,632.3,12.664ZM640.844,15a2.507,2.507,0,0,1-.227-.758,2.732,2.732,0,0,1-2.133.914,3,3,0,0,1-2.059-.719,2.312,2.312,0,0,1-.816-1.812,2.389,2.389,0,0,1,1-2.062,4.915,4.915,0,0,1,2.879-.727h1.039V9.352a1.393,1.393,0,0,0-.3-.937,1.183,1.183,0,0,0-.949-.352,1.345,1.345,0,0,0-.895.273.929.929,0,0,0-.324.75H635.8a2.268,2.268,0,0,1,.453-1.359,3,3,0,0,1,1.281-.98,4.669,4.669,0,0,1,1.859-.355,3.689,3.689,0,0,1,2.48.785,2.747,2.747,0,0,1,.918,2.207v3.664a4.041,4.041,0,0,0,.336,1.82V15Zm-1.867-1.57a1.945,1.945,0,0,0,.922-.223,1.463,1.463,0,0,0,.625-.6V11.156h-.844q-1.7,0-1.8,1.172l-.008.133a.9.9,0,0,0,.3.7A1.153,1.153,0,0,0,638.977,13.43Zm10.3-4.766a6.134,6.134,0,0,0-.812-.062,1.654,1.654,0,0,0-1.68.867V15h-2.258V6.547h2.133l.063,1.008A2.092,2.092,0,0,1,648.6,6.391a2.366,2.366,0,0,1,.7.1ZM652.742,15h-2.266V6.547h2.266Zm-2.4-10.641a1.112,1.112,0,0,1,.34-.836,1.465,1.465,0,0,1,1.848,0,1.105,1.105,0,0,1,.344.836,1.109,1.109,0,0,1-.348.844,1.448,1.448,0,0,1-1.836,0A1.109,1.109,0,0,1,650.344,4.359ZM659.5,15a2.507,2.507,0,0,1-.227-.758,2.732,2.732,0,0,1-2.133.914,3,3,0,0,1-2.059-.719,2.312,2.312,0,0,1-.816-1.812,2.389,2.389,0,0,1,1-2.062,4.915,4.915,0,0,1,2.879-.727h1.039V9.352a1.393,1.393,0,0,0-.3-.937,1.183,1.183,0,0,0-.949-.352,1.345,1.345,0,0,0-.895.273.929.929,0,0,0-.324.75h-2.258a2.268,2.268,0,0,1,.453-1.359,3,3,0,0,1,1.281-.98,4.669,4.669,0,0,1,1.859-.355,3.689,3.689,0,0,1,2.48.785,2.747,2.747,0,0,1,.918,2.207v3.664a4.041,4.041,0,0,0,.336,1.82V15Zm-1.867-1.57a1.945,1.945,0,0,0,.922-.223,1.463,1.463,0,0,0,.625-.6V11.156h-.844q-1.7,0-1.8,1.172l-.008.133a.9.9,0,0,0,.3.7A1.153,1.153,0,0,0,657.633,13.43Zm10.125-.766a.727.727,0,0,0-.41-.652,4.659,4.659,0,0,0-1.316-.426q-3.016-.633-3.016-2.562a2.323,2.323,0,0,1,.934-1.879,3.766,3.766,0,0,1,2.441-.754,4.053,4.053,0,0,1,2.574.758,2.388,2.388,0,0,1,.965,1.969h-2.258a1.093,1.093,0,0,0-.312-.8A1.322,1.322,0,0,0,666.383,8a1.351,1.351,0,0,0-.883.258.814.814,0,0,0-.312.656.7.7,0,0,0,.355.605,3.657,3.657,0,0,0,1.2.4,9.8,9.8,0,0,1,1.422.379,2.336,2.336,0,0,1,1.789,2.273,2.205,2.205,0,0,1-.992,1.871,4.28,4.28,0,0,1-2.562.715,4.471,4.471,0,0,1-1.887-.379,3.165,3.165,0,0,1-1.293-1.039,2.414,2.414,0,0,1-.469-1.426h2.141a1.179,1.179,0,0,0,.445.922,1.766,1.766,0,0,0,1.109.32,1.635,1.635,0,0,0,.98-.246A.766.766,0,0,0,667.758,12.664Zm10.789-.859,1.563-5.258h2.422l-3.4,9.766-.187.445a2.577,2.577,0,0,1-2.5,1.656,3.553,3.553,0,0,1-1-.148V16.555l.344.008a1.857,1.857,0,0,0,.957-.2,1.283,1.283,0,0,0,.5-.648l.266-.7-2.961-8.477h2.43ZM689.789,15h-2.266V3h2.266Zm6.758,0a2.507,2.507,0,0,1-.227-.758,2.732,2.732,0,0,1-2.133.914,3,3,0,0,1-2.059-.719,2.312,2.312,0,0,1-.816-1.812,2.389,2.389,0,0,1,1-2.062,4.915,4.915,0,0,1,2.879-.727h1.039V9.352a1.393,1.393,0,0,0-.3-.937,1.183,1.183,0,0,0-.949-.352,1.345,1.345,0,0,0-.895.273.929.929,0,0,0-.324.75H691.5a2.268,2.268,0,0,1,.453-1.359,3,3,0,0,1,1.281-.98,4.669,4.669,0,0,1,1.859-.355,3.689,3.689,0,0,1,2.48.785,2.747,2.747,0,0,1,.918,2.207v3.664a4.041,4.041,0,0,0,.336,1.82V15Zm-1.867-1.57a1.945,1.945,0,0,0,.922-.223,1.463,1.463,0,0,0,.625-.6V11.156h-.844q-1.7,0-1.8,1.172l-.008.133a.9.9,0,0,0,.3.7A1.153,1.153,0,0,0,694.68,13.43ZM5.617,29.664A6.134,6.134,0,0,0,4.8,29.6a1.654,1.654,0,0,0-1.68.867V36H.867V27.547H3l.063,1.008a2.092,2.092,0,0,1,1.883-1.164,2.366,2.366,0,0,1,.7.1Zm4.828,6.492a4.15,4.15,0,0,1-3.027-1.141A4.054,4.054,0,0,1,6.25,31.977v-.219a5.106,5.106,0,0,1,.492-2.277,3.612,3.612,0,0,1,1.395-1.547,3.914,3.914,0,0,1,2.059-.543,3.508,3.508,0,0,1,2.73,1.094,4.444,4.444,0,0,1,1,3.1v.922H8.539a2.1,2.1,0,0,0,.66,1.328,2,2,0,0,0,1.395.5,2.437,2.437,0,0,0,2.039-.945l1.109,1.242a3.389,3.389,0,0,1-1.375,1.121A4.511,4.511,0,0,1,10.445,36.156Zm-.258-6.945a1.411,1.411,0,0,0-1.09.455,2.357,2.357,0,0,0-.535,1.3H11.7v-.181a1.681,1.681,0,0,0-.406-1.165A1.456,1.456,0,0,0,10.188,29.211ZM20.1,36a2.507,2.507,0,0,1-.227-.758,2.732,2.732,0,0,1-2.133.914,3,3,0,0,1-2.059-.719,2.312,2.312,0,0,1-.816-1.812,2.389,2.389,0,0,1,1-2.062,4.915,4.915,0,0,1,2.879-.727h1.039v-.484a1.393,1.393,0,0,0-.3-.937,1.183,1.183,0,0,0-.949-.352,1.345,1.345,0,0,0-.895.273.929.929,0,0,0-.324.75H15.055a2.268,2.268,0,0,1,.453-1.359,3,3,0,0,1,1.281-.98,4.669,4.669,0,0,1,1.859-.355,3.689,3.689,0,0,1,2.48.785,2.747,2.747,0,0,1,.918,2.207v3.664a4.041,4.041,0,0,0,.336,1.82V36Zm-1.867-1.57a1.945,1.945,0,0,0,.922-.223,1.462,1.462,0,0,0,.625-.6V32.156h-.844q-1.7,0-1.8,1.172l-.008.133a.9.9,0,0,0,.3.7A1.153,1.153,0,0,0,18.234,34.43ZM26.164,36H23.9V24h2.266Zm4.242,0H28.141V27.547h2.266Zm-2.4-10.641a1.112,1.112,0,0,1,.34-.836,1.465,1.465,0,0,1,1.848,0,1.193,1.193,0,0,1,0,1.68,1.448,1.448,0,0,1-1.836,0A1.108,1.108,0,0,1,28.008,25.359Zm6.852,8.82h4.133V36H31.977V34.625l3.977-5.258H32.094v-1.82h6.773v1.33ZM45.3,36a2.507,2.507,0,0,1-.227-.758,2.732,2.732,0,0,1-2.133.914,3,3,0,0,1-2.059-.719,2.312,2.312,0,0,1-.816-1.812,2.389,2.389,0,0,1,1-2.062,4.915,4.915,0,0,1,2.879-.727h1.039v-.484a1.393,1.393,0,0,0-.3-.937,1.183,1.183,0,0,0-.949-.352,1.345,1.345,0,0,0-.895.273.929.929,0,0,0-.324.75H40.258a2.268,2.268,0,0,1,.453-1.359,3,3,0,0,1,1.281-.98,4.669,4.669,0,0,1,1.859-.355,3.689,3.689,0,0,1,2.48.785,2.747,2.747,0,0,1,.918,2.207v3.664a4.041,4.041,0,0,0,.336,1.82V36Zm-1.867-1.57a1.945,1.945,0,0,0,.922-.223,1.462,1.462,0,0,0,.625-.6V32.156h-.844q-1.7,0-1.8,1.172l-.008.133a.9.9,0,0,0,.3.7A1.153,1.153,0,0,0,43.438,34.43Zm9.063-.094a1.481,1.481,0,0,0,1.016-.344,1.2,1.2,0,0,0,.406-.914h2.117a2.9,2.9,0,0,1-.469,1.574,3.093,3.093,0,0,1-1.262,1.109,3.949,3.949,0,0,1-1.77.395A3.67,3.67,0,0,1,49.68,35a4.56,4.56,0,0,1-1.047-3.184v-.148a4.508,4.508,0,0,1,1.039-3.117,3.627,3.627,0,0,1,2.852-1.164,3.555,3.555,0,0,1,2.543.9,3.2,3.2,0,0,1,.973,2.4H53.922a1.551,1.551,0,0,0-.406-1.072,1.51,1.51,0,0,0-2.223.163,3.333,3.333,0,0,0-.4,1.866v.235a3.375,3.375,0,0,0,.4,1.878A1.377,1.377,0,0,0,52.5,34.336ZM59.711,36H57.445V27.547h2.266Zm-2.4-10.641a1.112,1.112,0,0,1,.34-.836,1.465,1.465,0,0,1,1.848,0,1.193,1.193,0,0,1,0,1.68,1.448,1.448,0,0,1-1.836,0A1.108,1.108,0,0,1,57.313,25.359ZM61.219,31.7a5.013,5.013,0,0,1,.484-2.242A3.546,3.546,0,0,1,63.1,27.93a4.069,4.069,0,0,1,2.113-.539A3.849,3.849,0,0,1,68,28.438a4.2,4.2,0,0,1,1.207,2.844l.016.578a4.418,4.418,0,0,1-1.086,3.121,4.209,4.209,0,0,1-5.832,0,4.5,4.5,0,0,1-1.09-3.187Zm2.258.16A3.16,3.16,0,0,0,63.93,33.7a1.628,1.628,0,0,0,2.578.008,3.457,3.457,0,0,0,.461-2.015,3.128,3.128,0,0,0-.461-1.831,1.5,1.5,0,0,0-1.3-.649,1.474,1.474,0,0,0-1.281.646A3.516,3.516,0,0,0,63.477,31.856ZM65.656,24h2.461l-2.164,2.422H64.117ZM72.7,27.547l.07.977a2.951,2.951,0,0,1,2.43-1.133,2.453,2.453,0,0,1,2,.789,3.682,3.682,0,0,1,.672,2.359V36H75.609V30.581a1.47,1.47,0,0,0-.312-1.045,1.4,1.4,0,0,0-1.039-.325,1.553,1.553,0,0,0-1.43.814V36H70.57V27.547Zm10.516,4.164a5.094,5.094,0,0,1,.887-3.148,2.877,2.877,0,0,1,2.426-1.172,2.589,2.589,0,0,1,2.039.922V24h2.266V36H88.789l-.109-.9a2.657,2.657,0,0,1-2.172,1.055,2.869,2.869,0,0,1-2.395-1.176A5.258,5.258,0,0,1,83.211,31.711Zm2.258.161a3.355,3.355,0,0,0,.414,1.829,1.348,1.348,0,0,0,1.2.636,1.51,1.51,0,0,0,1.477-.887V30.1a1.489,1.489,0,0,0-1.461-.887Q85.469,29.211,85.469,31.872Zm11,4.285a4.15,4.15,0,0,1-3.027-1.141,4.054,4.054,0,0,1-1.168-3.039v-.219a5.106,5.106,0,0,1,.492-2.277,3.612,3.612,0,0,1,1.395-1.547,3.914,3.914,0,0,1,2.059-.543,3.508,3.508,0,0,1,2.73,1.094,4.444,4.444,0,0,1,1,3.1v.922H94.563a2.1,2.1,0,0,0,.66,1.328,2,2,0,0,0,1.395.5,2.437,2.437,0,0,0,2.039-.945l1.109,1.242a3.389,3.389,0,0,1-1.375,1.121A4.511,4.511,0,0,1,96.469,36.156Zm-.258-6.945a1.411,1.411,0,0,0-1.09.455,2.357,2.357,0,0,0-.535,1.3h3.141v-.181a1.681,1.681,0,0,0-.406-1.165A1.456,1.456,0,0,0,96.211,29.211Zm12.516,5.125a1.481,1.481,0,0,0,1.016-.344,1.2,1.2,0,0,0,.406-.914h2.117a2.9,2.9,0,0,1-.469,1.574,3.093,3.093,0,0,1-1.262,1.109,3.949,3.949,0,0,1-1.77.395A3.67,3.67,0,0,1,105.906,35a4.56,4.56,0,0,1-1.047-3.184v-.148a4.508,4.508,0,0,1,1.039-3.117,3.627,3.627,0,0,1,2.852-1.164,3.555,3.555,0,0,1,2.543.9,3.2,3.2,0,0,1,.973,2.4h-2.117a1.551,1.551,0,0,0-.406-1.072,1.51,1.51,0,0,0-2.223.163,3.333,3.333,0,0,0-.4,1.866v.235a3.375,3.375,0,0,0,.4,1.878A1.377,1.377,0,0,0,108.727,34.336ZM113.2,31.7a5.013,5.013,0,0,1,.484-2.242,3.546,3.546,0,0,1,1.395-1.523,4.069,4.069,0,0,1,2.113-.539,3.849,3.849,0,0,1,2.793,1.047,4.2,4.2,0,0,1,1.207,2.844l.016.578a4.418,4.418,0,0,1-1.086,3.121,4.209,4.209,0,0,1-5.832,0A4.5,4.5,0,0,1,113.2,31.8Zm2.258.16a3.16,3.16,0,0,0,.453,1.843,1.628,1.628,0,0,0,2.578.008,3.457,3.457,0,0,0,.461-2.015,3.128,3.128,0,0,0-.461-1.831,1.5,1.5,0,0,0-1.3-.649,1.474,1.474,0,0,0-1.281.646A3.516,3.516,0,0,0,115.461,31.856Zm9.258-4.309.07.945a2.971,2.971,0,0,1,2.43-1.1,2.255,2.255,0,0,1,2.242,1.289A2.9,2.9,0,0,1,132,27.391a2.521,2.521,0,0,1,2.047.8,3.681,3.681,0,0,1,.672,2.41V36h-2.266V30.6a1.616,1.616,0,0,0-.281-1.053,1.245,1.245,0,0,0-.992-.333,1.409,1.409,0,0,0-1.406.971L129.781,36h-2.258V30.6a1.6,1.6,0,0,0-.289-1.065,1.257,1.257,0,0,0-.984-.329,1.463,1.463,0,0,0-1.391.8V36H122.6V27.547Zm19.344,4.3a5.07,5.07,0,0,1-.887,3.129,2.843,2.843,0,0,1-2.395,1.176,2.633,2.633,0,0,1-2.07-.891V39.25h-2.258v-11.7h2.094l.078.828a2.654,2.654,0,0,1,2.141-.984,2.862,2.862,0,0,1,2.43,1.156,5.207,5.207,0,0,1,.867,3.188Zm-2.258-.172a3.345,3.345,0,0,0-.418-1.826,1.36,1.36,0,0,0-1.215-.643,1.478,1.478,0,0,0-1.461.815V33.5a1.5,1.5,0,0,0,1.477.839Q141.8,34.336,141.8,31.679Zm8.406-2.015a6.134,6.134,0,0,0-.812-.062,1.654,1.654,0,0,0-1.68.867V36h-2.258V27.547h2.133l.063,1.008a2.092,2.092,0,0,1,1.883-1.164,2.366,2.366,0,0,1,.7.1Zm.453,2.031a5.013,5.013,0,0,1,.484-2.242,3.546,3.546,0,0,1,1.395-1.523,4.069,4.069,0,0,1,2.113-.539,3.849,3.849,0,0,1,2.793,1.047,4.2,4.2,0,0,1,1.207,2.844l.016.578a4.418,4.418,0,0,1-1.086,3.121,4.209,4.209,0,0,1-5.832,0,4.5,4.5,0,0,1-1.09-3.187Zm2.258.16a3.16,3.16,0,0,0,.453,1.843,1.628,1.628,0,0,0,2.578.008,3.457,3.457,0,0,0,.461-2.015,3.128,3.128,0,0,0-.461-1.831,1.5,1.5,0,0,0-1.3-.649,1.474,1.474,0,0,0-1.281.646A3.516,3.516,0,0,0,152.922,31.856Zm14.758,0a5.119,5.119,0,0,1-.867,3.168,2.872,2.872,0,0,1-2.422,1.137,2.639,2.639,0,0,1-2.2-1.055l-.1.9h-2.031V24h2.258v4.3a2.571,2.571,0,0,1,2.055-.914,2.9,2.9,0,0,1,2.426,1.137,5.126,5.126,0,0,1,.879,3.2Zm-2.258-.172a3.381,3.381,0,0,0-.406-1.877,1.372,1.372,0,0,0-1.211-.592,1.489,1.489,0,0,0-1.484.885v3.346a1.509,1.509,0,0,0,1.5.893,1.4,1.4,0,0,0,1.438-1.081A5.6,5.6,0,0,0,165.422,31.679ZM173.969,36a2.507,2.507,0,0,1-.227-.758,2.732,2.732,0,0,1-2.133.914,3,3,0,0,1-2.059-.719,2.312,2.312,0,0,1-.816-1.812,2.389,2.389,0,0,1,1-2.062,4.915,4.915,0,0,1,2.879-.727h1.039v-.484a1.393,1.393,0,0,0-.3-.937,1.183,1.183,0,0,0-.949-.352,1.345,1.345,0,0,0-.895.273.929.929,0,0,0-.324.75h-2.258a2.268,2.268,0,0,1,.453-1.359,3,3,0,0,1,1.281-.98,4.669,4.669,0,0,1,1.859-.355,3.689,3.689,0,0,1,2.48.785,2.747,2.747,0,0,1,.918,2.207v3.664a4.041,4.041,0,0,0,.336,1.82V36ZM172.1,34.43a1.945,1.945,0,0,0,.922-.223,1.462,1.462,0,0,0,.625-.6V32.156H172.8q-1.7,0-1.8,1.172l-.008.133a.9.9,0,0,0,.3.7A1.153,1.153,0,0,0,172.1,34.43Zm9.063-.094a1.481,1.481,0,0,0,1.016-.344,1.2,1.2,0,0,0,.406-.914H184.7a2.9,2.9,0,0,1-.469,1.574,3.093,3.093,0,0,1-1.262,1.109,3.949,3.949,0,0,1-1.77.395A3.67,3.67,0,0,1,178.344,35,4.56,4.56,0,0,1,177.3,31.82v-.148a4.508,4.508,0,0,1,1.039-3.117,3.627,3.627,0,0,1,2.852-1.164,3.555,3.555,0,0,1,2.543.9,3.2,3.2,0,0,1,.973,2.4h-2.117a1.551,1.551,0,0,0-.406-1.072,1.51,1.51,0,0,0-2.223.163,3.333,3.333,0,0,0-.4,1.866v.235a3.375,3.375,0,0,0,.4,1.878A1.377,1.377,0,0,0,181.164,34.336ZM188.375,36h-2.266V27.547h2.266Zm-2.4-10.641a1.112,1.112,0,0,1,.34-.836,1.465,1.465,0,0,1,1.848,0,1.193,1.193,0,0,1,0,1.68,1.448,1.448,0,0,1-1.836,0A1.109,1.109,0,0,1,185.977,25.359Zm3.906,6.336a5.013,5.013,0,0,1,.484-2.242,3.546,3.546,0,0,1,1.395-1.523,4.069,4.069,0,0,1,2.113-.539,3.849,3.849,0,0,1,2.793,1.047,4.2,4.2,0,0,1,1.207,2.844l.016.578A4.418,4.418,0,0,1,196.8,34.98a4.209,4.209,0,0,1-5.832,0,4.5,4.5,0,0,1-1.09-3.187Zm2.258.16a3.16,3.16,0,0,0,.453,1.843,1.628,1.628,0,0,0,2.578.008,3.457,3.457,0,0,0,.461-2.015,3.128,3.128,0,0,0-.461-1.831,1.5,1.5,0,0,0-1.3-.649,1.474,1.474,0,0,0-1.281.646A3.516,3.516,0,0,0,192.141,31.856Zm9.219-4.309.07.977a2.951,2.951,0,0,1,2.43-1.133,2.453,2.453,0,0,1,2,.789,3.682,3.682,0,0,1,.672,2.359V36h-2.258V30.581a1.47,1.47,0,0,0-.312-1.045,1.4,1.4,0,0,0-1.039-.325,1.553,1.553,0,0,0-1.43.814V36h-2.258V27.547Zm10.773,8.609a4.15,4.15,0,0,1-3.027-1.141,4.054,4.054,0,0,1-1.168-3.039v-.219a5.106,5.106,0,0,1,.492-2.277,3.612,3.612,0,0,1,1.395-1.547,3.914,3.914,0,0,1,2.059-.543,3.508,3.508,0,0,1,2.73,1.094,4.444,4.444,0,0,1,1,3.1v.922h-5.383a2.1,2.1,0,0,0,.66,1.328,2,2,0,0,0,1.395.5,2.437,2.437,0,0,0,2.039-.945l1.109,1.242a3.389,3.389,0,0,1-1.375,1.121A4.511,4.511,0,0,1,212.133,36.156Zm-.258-6.945a1.411,1.411,0,0,0-1.09.455,2.357,2.357,0,0,0-.535,1.3h3.141v-.181a1.681,1.681,0,0,0-.406-1.165A1.456,1.456,0,0,0,211.875,29.211Zm9.594,4.453a.727.727,0,0,0-.41-.652,4.659,4.659,0,0,0-1.316-.426q-3.016-.633-3.016-2.562a2.323,2.323,0,0,1,.934-1.879,3.766,3.766,0,0,1,2.441-.754,4.053,4.053,0,0,1,2.574.758,2.388,2.388,0,0,1,.965,1.969h-2.258a1.092,1.092,0,0,0-.312-.8,1.322,1.322,0,0,0-.977-.316,1.351,1.351,0,0,0-.883.258.814.814,0,0,0-.312.656.7.7,0,0,0,.355.605,3.657,3.657,0,0,0,1.2.4,9.8,9.8,0,0,1,1.422.379,2.336,2.336,0,0,1,1.789,2.273,2.205,2.205,0,0,1-.992,1.871,4.28,4.28,0,0,1-2.562.715,4.47,4.47,0,0,1-1.887-.379,3.166,3.166,0,0,1-1.293-1.039,2.414,2.414,0,0,1-.469-1.426H218.6a1.179,1.179,0,0,0,.445.922,1.766,1.766,0,0,0,1.109.32,1.635,1.635,0,0,0,.98-.246A.766.766,0,0,0,221.469,33.664Zm15.242-1.812a5.07,5.07,0,0,1-.887,3.129,2.843,2.843,0,0,1-2.395,1.176,2.633,2.633,0,0,1-2.07-.891V39.25H229.1v-11.7H231.2l.078.828a2.654,2.654,0,0,1,2.141-.984,2.862,2.862,0,0,1,2.43,1.156,5.207,5.207,0,0,1,.867,3.188Zm-2.258-.172a3.345,3.345,0,0,0-.418-1.826,1.36,1.36,0,0,0-1.215-.643,1.478,1.478,0,0,0-1.461.815V33.5a1.5,1.5,0,0,0,1.477.839Q234.453,34.336,234.453,31.679ZM242,36.156a4.15,4.15,0,0,1-3.027-1.141,4.054,4.054,0,0,1-1.168-3.039v-.219a5.106,5.106,0,0,1,.492-2.277,3.612,3.612,0,0,1,1.395-1.547,3.914,3.914,0,0,1,2.059-.543,3.508,3.508,0,0,1,2.73,1.094,4.444,4.444,0,0,1,1,3.1v.922h-5.383a2.1,2.1,0,0,0,.66,1.328,2,2,0,0,0,1.395.5,2.437,2.437,0,0,0,2.039-.945l1.109,1.242a3.389,3.389,0,0,1-1.375,1.121A4.511,4.511,0,0,1,242,36.156Zm-.258-6.945a1.411,1.411,0,0,0-1.09.455,2.357,2.357,0,0,0-.535,1.3h3.141v-.181a1.681,1.681,0,0,0-.406-1.165A1.456,1.456,0,0,0,241.742,29.211Zm9.766.453a6.134,6.134,0,0,0-.812-.062,1.654,1.654,0,0,0-1.68.867V36h-2.258V27.547h2.133l.063,1.008a2.092,2.092,0,0,1,1.883-1.164,2.366,2.366,0,0,1,.7.1ZM254.977,36h-2.266V27.547h2.266Zm-2.4-10.641a1.112,1.112,0,0,1,.34-.836,1.465,1.465,0,0,1,1.848,0,1.193,1.193,0,0,1,0,1.68,1.448,1.448,0,0,1-1.836,0A1.109,1.109,0,0,1,252.578,25.359Zm3.906,6.336a5.013,5.013,0,0,1,.484-2.242,3.546,3.546,0,0,1,1.395-1.523,4.069,4.069,0,0,1,2.113-.539,3.849,3.849,0,0,1,2.793,1.047,4.2,4.2,0,0,1,1.207,2.844l.016.578a4.418,4.418,0,0,1-1.086,3.121,4.209,4.209,0,0,1-5.832,0,4.5,4.5,0,0,1-1.09-3.187Zm2.258.16A3.16,3.16,0,0,0,259.2,33.7a1.628,1.628,0,0,0,2.578.008,3.458,3.458,0,0,0,.461-2.015,3.128,3.128,0,0,0-.461-1.831,1.5,1.5,0,0,0-1.3-.649,1.474,1.474,0,0,0-1.281.646A3.516,3.516,0,0,0,258.742,31.856ZM260.922,24h2.461l-2.164,2.422h-1.836Zm4.609,7.711a5.094,5.094,0,0,1,.887-3.148,2.877,2.877,0,0,1,2.426-1.172,2.589,2.589,0,0,1,2.039.922V24h2.266V36h-2.039L271,35.1a2.657,2.657,0,0,1-2.172,1.055,2.869,2.869,0,0,1-2.395-1.176A5.258,5.258,0,0,1,265.531,31.711Zm2.258.161A3.355,3.355,0,0,0,268.2,33.7a1.348,1.348,0,0,0,1.2.636,1.51,1.51,0,0,0,1.477-.887V30.1a1.489,1.489,0,0,0-1.461-.887Q267.789,29.211,267.789,31.872ZM277.281,36h-2.266V27.547h2.266Zm-2.4-10.641a1.112,1.112,0,0,1,.34-.836,1.465,1.465,0,0,1,1.848,0,1.193,1.193,0,0,1,0,1.68,1.448,1.448,0,0,1-1.836,0A1.108,1.108,0,0,1,274.883,25.359Zm7.773,8.977a1.481,1.481,0,0,0,1.016-.344,1.2,1.2,0,0,0,.406-.914H286.2a2.9,2.9,0,0,1-.469,1.574,3.093,3.093,0,0,1-1.262,1.109,3.949,3.949,0,0,1-1.77.395A3.67,3.67,0,0,1,279.836,35a4.56,4.56,0,0,1-1.047-3.184v-.148a4.508,4.508,0,0,1,1.039-3.117,3.627,3.627,0,0,1,2.852-1.164,3.555,3.555,0,0,1,2.543.9,3.2,3.2,0,0,1,.973,2.4h-2.117a1.551,1.551,0,0,0-.406-1.072,1.51,1.51,0,0,0-2.223.163,3.333,3.333,0,0,0-.4,1.866v.235a3.375,3.375,0,0,0,.4,1.878A1.377,1.377,0,0,0,282.656,34.336ZM292.383,36a2.508,2.508,0,0,1-.227-.758,2.732,2.732,0,0,1-2.133.914,3,3,0,0,1-2.059-.719,2.312,2.312,0,0,1-.816-1.812,2.389,2.389,0,0,1,1-2.062,4.915,4.915,0,0,1,2.879-.727h1.039v-.484a1.393,1.393,0,0,0-.3-.937,1.183,1.183,0,0,0-.949-.352,1.345,1.345,0,0,0-.895.273.929.929,0,0,0-.324.75h-2.258a2.268,2.268,0,0,1,.453-1.359,3,3,0,0,1,1.281-.98,4.669,4.669,0,0,1,1.859-.355,3.689,3.689,0,0,1,2.48.785,2.747,2.747,0,0,1,.918,2.207v3.664a4.041,4.041,0,0,0,.336,1.82V36Zm-1.867-1.57a1.945,1.945,0,0,0,.922-.223,1.462,1.462,0,0,0,.625-.6V32.156h-.844q-1.7,0-1.8,1.172l-.008.133a.9.9,0,0,0,.3.7A1.153,1.153,0,0,0,290.516,34.43Zm10.125-.766a.727.727,0,0,0-.41-.652,4.659,4.659,0,0,0-1.316-.426q-3.016-.633-3.016-2.562a2.323,2.323,0,0,1,.934-1.879,3.766,3.766,0,0,1,2.441-.754,4.053,4.053,0,0,1,2.574.758,2.388,2.388,0,0,1,.965,1.969h-2.258a1.092,1.092,0,0,0-.312-.8,1.322,1.322,0,0,0-.977-.316,1.351,1.351,0,0,0-.883.258.814.814,0,0,0-.312.656.7.7,0,0,0,.355.605,3.657,3.657,0,0,0,1.2.4,9.8,9.8,0,0,1,1.422.379,2.336,2.336,0,0,1,1.789,2.273,2.2,2.2,0,0,1-.992,1.871,4.28,4.28,0,0,1-2.562.715,4.47,4.47,0,0,1-1.887-.379,3.166,3.166,0,0,1-1.293-1.039,2.414,2.414,0,0,1-.469-1.426h2.141a1.179,1.179,0,0,0,.445.922,1.766,1.766,0,0,0,1.109.32,1.635,1.635,0,0,0,.98-.246A.766.766,0,0,0,300.641,33.664Zm15.242-1.812A5.07,5.07,0,0,1,315,34.98a2.843,2.843,0,0,1-2.395,1.176,2.633,2.633,0,0,1-2.07-.891V39.25h-2.258v-11.7h2.094l.078.828a2.654,2.654,0,0,1,2.141-.984,2.862,2.862,0,0,1,2.43,1.156,5.207,5.207,0,0,1,.867,3.188Zm-2.258-.172a3.345,3.345,0,0,0-.418-1.826,1.36,1.36,0,0,0-1.215-.643,1.478,1.478,0,0,0-1.461.815V33.5a1.5,1.5,0,0,0,1.477.839Q313.625,34.336,313.625,31.679ZM322.18,36a2.508,2.508,0,0,1-.227-.758,2.732,2.732,0,0,1-2.133.914,3,3,0,0,1-2.059-.719,2.312,2.312,0,0,1-.816-1.812,2.389,2.389,0,0,1,1-2.062,4.915,4.915,0,0,1,2.879-.727h1.039v-.484a1.393,1.393,0,0,0-.3-.937,1.183,1.183,0,0,0-.949-.352,1.345,1.345,0,0,0-.895.273.929.929,0,0,0-.324.75h-2.258a2.268,2.268,0,0,1,.453-1.359,3,3,0,0,1,1.281-.98,4.669,4.669,0,0,1,1.859-.355,3.689,3.689,0,0,1,2.48.785,2.747,2.747,0,0,1,.918,2.207v3.664a4.041,4.041,0,0,0,.336,1.82V36Zm-1.867-1.57a1.945,1.945,0,0,0,.922-.223,1.462,1.462,0,0,0,.625-.6V32.156h-.844q-1.7,0-1.8,1.172l-.008.133a.9.9,0,0,0,.3.7A1.153,1.153,0,0,0,320.313,34.43Zm10.3-4.766a6.134,6.134,0,0,0-.812-.062,1.654,1.654,0,0,0-1.68.867V36h-2.258V27.547h2.133l.063,1.008a2.092,2.092,0,0,1,1.883-1.164,2.366,2.366,0,0,1,.7.1ZM336.359,36a2.508,2.508,0,0,1-.227-.758,2.732,2.732,0,0,1-2.133.914,3,3,0,0,1-2.059-.719,2.312,2.312,0,0,1-.816-1.812,2.389,2.389,0,0,1,1-2.062A4.915,4.915,0,0,1,335,30.836h1.039v-.484a1.393,1.393,0,0,0-.3-.937,1.183,1.183,0,0,0-.949-.352,1.345,1.345,0,0,0-.895.273.929.929,0,0,0-.324.75h-2.258a2.268,2.268,0,0,1,.453-1.359,3,3,0,0,1,1.281-.98,4.669,4.669,0,0,1,1.859-.355,3.689,3.689,0,0,1,2.48.785,2.747,2.747,0,0,1,.918,2.207v3.664a4.041,4.041,0,0,0,.336,1.82V36Zm-1.867-1.57a1.945,1.945,0,0,0,.922-.223,1.462,1.462,0,0,0,.625-.6V32.156H335.2q-1.7,0-1.8,1.172l-.008.133a.9.9,0,0,0,.3.7A1.153,1.153,0,0,0,334.492,34.43Zm9.2-2.719a4.954,4.954,0,0,1,.926-3.133,3,3,0,0,1,2.5-1.187,2.631,2.631,0,0,1,2.164.953l.094-.8h2.047v8.172a3.613,3.613,0,0,1-.5,1.93A3.236,3.236,0,0,1,349.5,38.9a4.985,4.985,0,0,1-2.141.43,4.635,4.635,0,0,1-1.812-.371A3.217,3.217,0,0,1,344.211,38l1-1.375a2.645,2.645,0,0,0,2.047.945,1.936,1.936,0,0,0,1.4-.48,1.8,1.8,0,0,0,.5-1.363v-.453a2.612,2.612,0,0,1-2.055.883,2.992,2.992,0,0,1-2.465-1.191,4.953,4.953,0,0,1-.941-3.16Zm2.258.161a3.1,3.1,0,0,0,.461,1.809,1.465,1.465,0,0,0,1.266.655,1.567,1.567,0,0,0,1.477-.777V29.988a1.563,1.563,0,0,0-1.461-.777,1.474,1.474,0,0,0-1.277.667A3.5,3.5,0,0,0,345.953,31.872ZM358.055,36a2.508,2.508,0,0,1-.227-.758,2.732,2.732,0,0,1-2.133.914,3,3,0,0,1-2.059-.719,2.312,2.312,0,0,1-.816-1.812,2.389,2.389,0,0,1,1-2.062,4.915,4.915,0,0,1,2.879-.727h1.039v-.484a1.393,1.393,0,0,0-.3-.937,1.183,1.183,0,0,0-.949-.352,1.345,1.345,0,0,0-.895.273.929.929,0,0,0-.324.75h-2.258a2.268,2.268,0,0,1,.453-1.359,3,3,0,0,1,1.281-.98,4.669,4.669,0,0,1,1.859-.355,3.689,3.689,0,0,1,2.48.785A2.747,2.747,0,0,1,360,30.383v3.664a4.041,4.041,0,0,0,.336,1.82V36Zm-1.867-1.57a1.945,1.945,0,0,0,.922-.223,1.462,1.462,0,0,0,.625-.6V32.156h-.844q-1.7,0-1.8,1.172l-.008.133a.9.9,0,0,0,.3.7A1.153,1.153,0,0,0,356.188,34.43Zm10.3-4.766a6.134,6.134,0,0,0-.812-.062,1.654,1.654,0,0,0-1.68.867V36h-2.258V27.547h2.133l.063,1.008a2.092,2.092,0,0,1,1.883-1.164,2.366,2.366,0,0,1,.7.1ZM372.234,36a2.508,2.508,0,0,1-.227-.758,2.732,2.732,0,0,1-2.133.914,3,3,0,0,1-2.059-.719A2.312,2.312,0,0,1,367,33.625a2.389,2.389,0,0,1,1-2.062,4.915,4.915,0,0,1,2.879-.727h1.039v-.484a1.393,1.393,0,0,0-.3-.937,1.183,1.183,0,0,0-.949-.352,1.345,1.345,0,0,0-.895.273.929.929,0,0,0-.324.75h-2.258a2.268,2.268,0,0,1,.453-1.359,3,3,0,0,1,1.281-.98,4.669,4.669,0,0,1,1.859-.355,3.689,3.689,0,0,1,2.48.785,2.747,2.747,0,0,1,.918,2.207v3.664a4.041,4.041,0,0,0,.336,1.82V36Zm-1.867-1.57a1.945,1.945,0,0,0,.922-.223,1.462,1.462,0,0,0,.625-.6V32.156h-.844q-1.7,0-1.8,1.172l-.008.133a.9.9,0,0,0,.3.7A1.153,1.153,0,0,0,370.367,34.43Zm7.625-6.883.07.977a2.951,2.951,0,0,1,2.43-1.133,2.453,2.453,0,0,1,2,.789,3.681,3.681,0,0,1,.672,2.359V36h-2.258V30.581a1.47,1.47,0,0,0-.312-1.045,1.4,1.4,0,0,0-1.039-.325,1.553,1.553,0,0,0-1.43.814V36h-2.258V27.547Zm9.586-2.078v2.078h1.445V29.2h-1.445v4.219a1.007,1.007,0,0,0,.18.672.9.9,0,0,0,.688.2,3.6,3.6,0,0,0,.664-.055v1.711a4.648,4.648,0,0,1-1.367.2,2.156,2.156,0,0,1-2.422-2.4V29.2h-1.234V27.547h1.234V25.469ZM392.664,36H390.4V27.547h2.266Zm-2.4-10.641a1.112,1.112,0,0,1,.34-.836,1.465,1.465,0,0,1,1.848,0,1.193,1.193,0,0,1,0,1.68,1.448,1.448,0,0,1-1.836,0A1.108,1.108,0,0,1,390.266,25.359Zm6.852,8.82h4.133V36h-7.016V34.625l3.977-5.258h-3.859v-1.82h6.773v1.33ZM407.563,36a2.508,2.508,0,0,1-.227-.758,2.732,2.732,0,0,1-2.133.914,3,3,0,0,1-2.059-.719,2.312,2.312,0,0,1-.816-1.812,2.389,2.389,0,0,1,1-2.062,4.915,4.915,0,0,1,2.879-.727h1.039v-.484a1.393,1.393,0,0,0-.3-.937,1.183,1.183,0,0,0-.949-.352,1.345,1.345,0,0,0-.895.273.929.929,0,0,0-.324.75h-2.258a2.268,2.268,0,0,1,.453-1.359,3,3,0,0,1,1.281-.98,4.669,4.669,0,0,1,1.859-.355,3.689,3.689,0,0,1,2.48.785,2.747,2.747,0,0,1,.918,2.207v3.664a4.041,4.041,0,0,0,.336,1.82V36ZM405.7,34.43a1.945,1.945,0,0,0,.922-.223,1.462,1.462,0,0,0,.625-.6V32.156H406.4q-1.7,0-1.8,1.172l-.008.133a.9.9,0,0,0,.3.7A1.153,1.153,0,0,0,405.7,34.43Zm10.3-4.766a6.134,6.134,0,0,0-.812-.062,1.654,1.654,0,0,0-1.68.867V36h-2.258V27.547h2.133l.063,1.008a2.092,2.092,0,0,1,1.883-1.164,2.366,2.366,0,0,1,.7.1Zm4.719,2.031a5.053,5.053,0,0,1,.887-3.148,2.9,2.9,0,0,1,2.434-1.156A2.6,2.6,0,0,1,426.2,28.43l.148-.883h1.984v11.7h-2.266V35.273a2.6,2.6,0,0,1-2.047.883,2.878,2.878,0,0,1-2.406-1.172A5.3,5.3,0,0,1,420.711,31.7Zm2.258.16a3.315,3.315,0,0,0,.426,1.847,1.363,1.363,0,0,0,1.2.634,1.518,1.518,0,0,0,1.469-.829v-3.5a1.506,1.506,0,0,0-1.453-.8,1.38,1.38,0,0,0-1.211.634A3.661,3.661,0,0,0,422.969,31.856Zm12.2,3.285a2.831,2.831,0,0,1-2.312,1.016,2.67,2.67,0,0,1-2.074-.781,3.335,3.335,0,0,1-.73-2.289V27.547H432.3v5.467q0,1.322,1.2,1.322a1.63,1.63,0,0,0,1.578-.8V27.547h2.266V36h-2.125Zm7.781,1.016a4.15,4.15,0,0,1-3.027-1.141,4.054,4.054,0,0,1-1.168-3.039v-.219a5.106,5.106,0,0,1,.492-2.277,3.612,3.612,0,0,1,1.395-1.547,3.914,3.914,0,0,1,2.059-.543,3.508,3.508,0,0,1,2.73,1.094,4.444,4.444,0,0,1,1,3.1v.922h-5.383a2.1,2.1,0,0,0,.66,1.328,2,2,0,0,0,1.395.5,2.437,2.437,0,0,0,2.039-.945l1.109,1.242a3.389,3.389,0,0,1-1.375,1.121A4.511,4.511,0,0,1,442.945,36.156Zm-.258-6.945a1.411,1.411,0,0,0-1.09.455,2.357,2.357,0,0,0-.535,1.3H444.2v-.181a1.681,1.681,0,0,0-.406-1.165A1.456,1.456,0,0,0,442.688,29.211ZM454.07,36H451.8V24h2.266Zm6.758,0a2.508,2.508,0,0,1-.227-.758,2.732,2.732,0,0,1-2.133.914,3,3,0,0,1-2.059-.719,2.312,2.312,0,0,1-.816-1.812,2.389,2.389,0,0,1,1-2.062,4.915,4.915,0,0,1,2.879-.727h1.039v-.484a1.393,1.393,0,0,0-.3-.937,1.183,1.183,0,0,0-.949-.352,1.345,1.345,0,0,0-.895.273.929.929,0,0,0-.324.75h-2.258a2.268,2.268,0,0,1,.453-1.359,3,3,0,0,1,1.281-.98,4.669,4.669,0,0,1,1.859-.355,3.689,3.689,0,0,1,2.48.785,2.747,2.747,0,0,1,.918,2.207v3.664a4.041,4.041,0,0,0,.336,1.82V36Zm-1.867-1.57a1.945,1.945,0,0,0,.922-.223,1.462,1.462,0,0,0,.625-.6V32.156h-.844q-1.7,0-1.8,1.172l-.008.133a.9.9,0,0,0,.3.7A1.153,1.153,0,0,0,458.961,34.43Zm10.125-.766a.727.727,0,0,0-.41-.652,4.659,4.659,0,0,0-1.316-.426q-3.016-.633-3.016-2.562a2.323,2.323,0,0,1,.934-1.879,3.766,3.766,0,0,1,2.441-.754,4.053,4.053,0,0,1,2.574.758,2.388,2.388,0,0,1,.965,1.969H469a1.092,1.092,0,0,0-.312-.8,1.322,1.322,0,0,0-.977-.316,1.351,1.351,0,0,0-.883.258.814.814,0,0,0-.312.656.7.7,0,0,0,.355.605,3.657,3.657,0,0,0,1.2.4,9.8,9.8,0,0,1,1.422.379,2.336,2.336,0,0,1,1.789,2.273,2.2,2.2,0,0,1-.992,1.871,4.28,4.28,0,0,1-2.562.715,4.47,4.47,0,0,1-1.887-.379,3.166,3.166,0,0,1-1.293-1.039,2.414,2.414,0,0,1-.469-1.426h2.141a1.179,1.179,0,0,0,.445.922,1.766,1.766,0,0,0,1.109.32,1.635,1.635,0,0,0,.98-.246A.766.766,0,0,0,469.086,33.664Zm11.148.672a1.481,1.481,0,0,0,1.016-.344,1.2,1.2,0,0,0,.406-.914h2.117a2.9,2.9,0,0,1-.469,1.574,3.093,3.093,0,0,1-1.262,1.109,3.949,3.949,0,0,1-1.77.395A3.67,3.67,0,0,1,477.414,35a4.56,4.56,0,0,1-1.047-3.184v-.148a4.508,4.508,0,0,1,1.039-3.117,3.627,3.627,0,0,1,2.852-1.164,3.555,3.555,0,0,1,2.543.9,3.2,3.2,0,0,1,.973,2.4h-2.117a1.551,1.551,0,0,0-.406-1.072,1.51,1.51,0,0,0-2.223.163,3.333,3.333,0,0,0-.4,1.866v.235a3.375,3.375,0,0,0,.4,1.878A1.377,1.377,0,0,0,480.234,34.336Zm4.477-2.641a5.013,5.013,0,0,1,.484-2.242,3.546,3.546,0,0,1,1.395-1.523,4.069,4.069,0,0,1,2.113-.539,3.849,3.849,0,0,1,2.793,1.047,4.2,4.2,0,0,1,1.207,2.844l.016.578a4.418,4.418,0,0,1-1.086,3.121,4.209,4.209,0,0,1-5.832,0,4.5,4.5,0,0,1-1.09-3.187Zm2.258.16a3.16,3.16,0,0,0,.453,1.843,1.628,1.628,0,0,0,2.578.008,3.458,3.458,0,0,0,.461-2.015A3.128,3.128,0,0,0,490,29.86a1.5,1.5,0,0,0-1.3-.649,1.474,1.474,0,0,0-1.281.646A3.516,3.516,0,0,0,486.969,31.856Zm14.75,0a5.07,5.07,0,0,1-.887,3.129,2.843,2.843,0,0,1-2.395,1.176,2.633,2.633,0,0,1-2.07-.891V39.25h-2.258v-11.7H496.2l.078.828a2.654,2.654,0,0,1,2.141-.984,2.862,2.862,0,0,1,2.43,1.156,5.207,5.207,0,0,1,.867,3.188Zm-2.258-.172a3.345,3.345,0,0,0-.418-1.826,1.36,1.36,0,0,0-1.215-.643,1.478,1.478,0,0,0-1.461.815V33.5a1.5,1.5,0,0,0,1.477.839Q499.461,34.336,499.461,31.679ZM505.5,36h-2.266V27.547H505.5Zm-2.4-10.641a1.112,1.112,0,0,1,.34-.836,1.465,1.465,0,0,1,1.848,0,1.193,1.193,0,0,1,0,1.68,1.448,1.448,0,0,1-1.836,0A1.108,1.108,0,0,1,503.1,25.359ZM512.258,36a2.507,2.507,0,0,1-.227-.758,2.732,2.732,0,0,1-2.133.914,3,3,0,0,1-2.059-.719,2.312,2.312,0,0,1-.816-1.812,2.389,2.389,0,0,1,1-2.062,4.915,4.915,0,0,1,2.879-.727h1.039v-.484a1.393,1.393,0,0,0-.3-.937,1.183,1.183,0,0,0-.949-.352,1.345,1.345,0,0,0-.895.273.929.929,0,0,0-.324.75h-2.258a2.268,2.268,0,0,1,.453-1.359,3,3,0,0,1,1.281-.98,4.669,4.669,0,0,1,1.859-.355,3.689,3.689,0,0,1,2.48.785,2.747,2.747,0,0,1,.918,2.207v3.664a4.041,4.041,0,0,0,.336,1.82V36Zm-1.867-1.57a1.945,1.945,0,0,0,.922-.223,1.462,1.462,0,0,0,.625-.6V32.156h-.844q-1.7,0-1.8,1.172l-.008.133a.9.9,0,0,0,.3.7A1.153,1.153,0,0,0,510.391,34.43Zm10.125-.766a.727.727,0,0,0-.41-.652,4.659,4.659,0,0,0-1.316-.426q-3.016-.633-3.016-2.562a2.323,2.323,0,0,1,.934-1.879,3.766,3.766,0,0,1,2.441-.754,4.053,4.053,0,0,1,2.574.758,2.388,2.388,0,0,1,.965,1.969H520.43a1.093,1.093,0,0,0-.312-.8,1.322,1.322,0,0,0-.977-.316,1.351,1.351,0,0,0-.883.258.814.814,0,0,0-.312.656.7.7,0,0,0,.355.605,3.657,3.657,0,0,0,1.2.4,9.8,9.8,0,0,1,1.422.379,2.336,2.336,0,0,1,1.789,2.273,2.205,2.205,0,0,1-.992,1.871,4.28,4.28,0,0,1-2.562.715,4.47,4.47,0,0,1-1.887-.379,3.165,3.165,0,0,1-1.293-1.039,2.414,2.414,0,0,1-.469-1.426h2.141a1.179,1.179,0,0,0,.445.922,1.766,1.766,0,0,0,1.109.32,1.635,1.635,0,0,0,.98-.246A.766.766,0,0,0,520.516,33.664Zm7.281-1.953a5.094,5.094,0,0,1,.887-3.148,2.877,2.877,0,0,1,2.426-1.172,2.589,2.589,0,0,1,2.039.922V24h2.266V36h-2.039l-.109-.9a2.657,2.657,0,0,1-2.172,1.055A2.869,2.869,0,0,1,528.7,34.98,5.258,5.258,0,0,1,527.8,31.711Zm2.258.161a3.355,3.355,0,0,0,.414,1.829,1.348,1.348,0,0,0,1.2.636,1.51,1.51,0,0,0,1.477-.887V30.1a1.489,1.489,0,0,0-1.461-.887Q530.055,29.211,530.055,31.872Zm11,4.285a4.15,4.15,0,0,1-3.027-1.141,4.054,4.054,0,0,1-1.168-3.039v-.219a5.106,5.106,0,0,1,.492-2.277,3.612,3.612,0,0,1,1.395-1.547,3.914,3.914,0,0,1,2.059-.543,3.508,3.508,0,0,1,2.73,1.094,4.444,4.444,0,0,1,1,3.1v.922h-5.383a2.1,2.1,0,0,0,.66,1.328,2,2,0,0,0,1.395.5,2.437,2.437,0,0,0,2.039-.945l1.109,1.242a3.39,3.39,0,0,1-1.375,1.121A4.511,4.511,0,0,1,541.055,36.156Zm-.258-6.945a1.411,1.411,0,0,0-1.09.455,2.357,2.357,0,0,0-.535,1.3h3.141v-.181a1.681,1.681,0,0,0-.406-1.165A1.456,1.456,0,0,0,540.8,29.211Zm13.578,4.453a.727.727,0,0,0-.41-.652,4.659,4.659,0,0,0-1.316-.426q-3.016-.633-3.016-2.562a2.323,2.323,0,0,1,.934-1.879,3.766,3.766,0,0,1,2.441-.754,4.053,4.053,0,0,1,2.574.758,2.388,2.388,0,0,1,.965,1.969h-2.258a1.093,1.093,0,0,0-.312-.8A1.322,1.322,0,0,0,553,29a1.351,1.351,0,0,0-.883.258.814.814,0,0,0-.312.656.7.7,0,0,0,.355.605,3.657,3.657,0,0,0,1.2.4,9.8,9.8,0,0,1,1.422.379,2.336,2.336,0,0,1,1.789,2.273,2.205,2.205,0,0,1-.992,1.871,4.28,4.28,0,0,1-2.562.715,4.47,4.47,0,0,1-1.887-.379,3.165,3.165,0,0,1-1.293-1.039,2.414,2.414,0,0,1-.469-1.426h2.141a1.179,1.179,0,0,0,.445.922,1.766,1.766,0,0,0,1.109.32,1.635,1.635,0,0,0,.98-.246A.766.766,0,0,0,554.375,33.664Zm7.539,2.492a4.15,4.15,0,0,1-3.027-1.141,4.054,4.054,0,0,1-1.168-3.039v-.219a5.106,5.106,0,0,1,.492-2.277,3.612,3.612,0,0,1,1.395-1.547,3.914,3.914,0,0,1,2.059-.543,3.508,3.508,0,0,1,2.73,1.094,4.444,4.444,0,0,1,1,3.1v.922h-5.383a2.1,2.1,0,0,0,.66,1.328,2,2,0,0,0,1.395.5,2.437,2.437,0,0,0,2.039-.945l1.109,1.242a3.39,3.39,0,0,1-1.375,1.121A4.511,4.511,0,0,1,561.914,36.156Zm-.258-6.945a1.411,1.411,0,0,0-1.09.455,2.357,2.357,0,0,0-.535,1.3h3.141v-.181a1.681,1.681,0,0,0-.406-1.165A1.456,1.456,0,0,0,561.656,29.211Zm4.688,2.5a4.954,4.954,0,0,1,.926-3.133,3,3,0,0,1,2.5-1.187,2.631,2.631,0,0,1,2.164.953l.094-.8h2.047v8.172a3.613,3.613,0,0,1-.5,1.93,3.236,3.236,0,0,1-1.418,1.25,4.985,4.985,0,0,1-2.141.43,4.635,4.635,0,0,1-1.812-.371A3.217,3.217,0,0,1,566.859,38l1-1.375a2.645,2.645,0,0,0,2.047.945,1.936,1.936,0,0,0,1.4-.48,1.8,1.8,0,0,0,.5-1.363v-.453a2.612,2.612,0,0,1-2.055.883,2.992,2.992,0,0,1-2.465-1.191,4.953,4.953,0,0,1-.941-3.16Zm2.258.161a3.1,3.1,0,0,0,.461,1.809,1.465,1.465,0,0,0,1.266.655,1.567,1.567,0,0,0,1.477-.777V29.988a1.563,1.563,0,0,0-1.461-.777,1.474,1.474,0,0,0-1.277.667A3.5,3.5,0,0,0,568.6,31.872Zm12.266,3.269a2.831,2.831,0,0,1-2.312,1.016,2.67,2.67,0,0,1-2.074-.781,3.335,3.335,0,0,1-.73-2.289V27.547h2.258v5.467q0,1.322,1.2,1.322a1.63,1.63,0,0,0,1.578-.8V27.547h2.266V36H580.93Zm8.641-5.477a6.134,6.134,0,0,0-.812-.062,1.654,1.654,0,0,0-1.68.867V36h-2.258V27.547h2.133l.063,1.008a2.092,2.092,0,0,1,1.883-1.164,2.366,2.366,0,0,1,.7.1ZM592.977,36h-2.266V27.547h2.266Zm-2.4-10.641a1.112,1.112,0,0,1,.34-.836,1.465,1.465,0,0,1,1.848,0,1.193,1.193,0,0,1,0,1.68,1.448,1.448,0,0,1-1.836,0A1.109,1.109,0,0,1,590.578,25.359Zm3.906,6.352a5.094,5.094,0,0,1,.887-3.148,2.877,2.877,0,0,1,2.426-1.172,2.589,2.589,0,0,1,2.039.922V24H602.1V36h-2.039l-.109-.9a2.657,2.657,0,0,1-2.172,1.055,2.869,2.869,0,0,1-2.395-1.176A5.258,5.258,0,0,1,594.484,31.711Zm2.258.161a3.355,3.355,0,0,0,.414,1.829,1.348,1.348,0,0,0,1.2.636,1.51,1.51,0,0,0,1.477-.887V30.1a1.489,1.489,0,0,0-1.461-.887Q596.742,29.211,596.742,31.872ZM608.75,36a2.507,2.507,0,0,1-.227-.758,2.732,2.732,0,0,1-2.133.914,3,3,0,0,1-2.059-.719,2.312,2.312,0,0,1-.816-1.812,2.389,2.389,0,0,1,1-2.062,4.915,4.915,0,0,1,2.879-.727h1.039v-.484a1.393,1.393,0,0,0-.3-.937,1.183,1.183,0,0,0-.949-.352,1.345,1.345,0,0,0-.895.273.929.929,0,0,0-.324.75H603.7a2.268,2.268,0,0,1,.453-1.359,3,3,0,0,1,1.281-.98,4.669,4.669,0,0,1,1.859-.355,3.689,3.689,0,0,1,2.48.785,2.747,2.747,0,0,1,.918,2.207v3.664a4.041,4.041,0,0,0,.336,1.82V36Zm-1.867-1.57a1.945,1.945,0,0,0,.922-.223,1.463,1.463,0,0,0,.625-.6V32.156h-.844q-1.7,0-1.8,1.172l-.008.133a.9.9,0,0,0,.3.7A1.153,1.153,0,0,0,606.883,34.43Zm5.2-2.719a5.094,5.094,0,0,1,.887-3.148,2.877,2.877,0,0,1,2.426-1.172,2.589,2.589,0,0,1,2.039.922V24H619.7V36h-2.039l-.109-.9a2.657,2.657,0,0,1-2.172,1.055,2.869,2.869,0,0,1-2.395-1.176A5.258,5.258,0,0,1,612.078,31.711Zm2.258.161a3.355,3.355,0,0,0,.414,1.829,1.348,1.348,0,0,0,1.2.636,1.51,1.51,0,0,0,1.477-.887V30.1a1.489,1.489,0,0,0-1.461-.887Q614.336,29.211,614.336,31.872Zm15.672,1.792a.727.727,0,0,0-.41-.652,4.659,4.659,0,0,0-1.316-.426q-3.016-.633-3.016-2.562a2.323,2.323,0,0,1,.934-1.879,3.766,3.766,0,0,1,2.441-.754,4.053,4.053,0,0,1,2.574.758,2.388,2.388,0,0,1,.965,1.969h-2.258a1.093,1.093,0,0,0-.312-.8,1.322,1.322,0,0,0-.977-.316,1.351,1.351,0,0,0-.883.258.814.814,0,0,0-.312.656.7.7,0,0,0,.355.605,3.657,3.657,0,0,0,1.2.4,9.8,9.8,0,0,1,1.422.379A2.336,2.336,0,0,1,632.2,33.57a2.205,2.205,0,0,1-.992,1.871,4.28,4.28,0,0,1-2.562.715,4.47,4.47,0,0,1-1.887-.379,3.165,3.165,0,0,1-1.293-1.039A2.414,2.414,0,0,1,625,33.313h2.141a1.179,1.179,0,0,0,.445.922,1.766,1.766,0,0,0,1.109.32,1.635,1.635,0,0,0,.98-.246A.766.766,0,0,0,630.008,33.664Zm7.539,2.492a4.15,4.15,0,0,1-3.027-1.141,4.054,4.054,0,0,1-1.168-3.039v-.219a5.106,5.106,0,0,1,.492-2.277,3.612,3.612,0,0,1,1.395-1.547,3.914,3.914,0,0,1,2.059-.543,3.508,3.508,0,0,1,2.73,1.094,4.444,4.444,0,0,1,1,3.1v.922h-5.383a2.1,2.1,0,0,0,.66,1.328,2,2,0,0,0,1.395.5,2.437,2.437,0,0,0,2.039-.945l1.109,1.242a3.39,3.39,0,0,1-1.375,1.121A4.511,4.511,0,0,1,637.547,36.156Zm-.258-6.945a1.411,1.411,0,0,0-1.09.455,2.357,2.357,0,0,0-.535,1.3H638.8v-.181a1.681,1.681,0,0,0-.406-1.165A1.456,1.456,0,0,0,637.289,29.211ZM653.9,31.852a5.07,5.07,0,0,1-.887,3.129,2.843,2.843,0,0,1-2.395,1.176,2.633,2.633,0,0,1-2.07-.891V39.25h-2.258v-11.7h2.094l.078.828a2.654,2.654,0,0,1,2.141-.984,2.862,2.862,0,0,1,2.43,1.156,5.207,5.207,0,0,1,.867,3.188Zm-2.258-.172a3.345,3.345,0,0,0-.418-1.826,1.36,1.36,0,0,0-1.215-.643,1.478,1.478,0,0,0-1.461.815V33.5a1.5,1.5,0,0,0,1.477.839Q651.641,34.336,651.641,31.679Zm8.719,3.461a2.831,2.831,0,0,1-2.312,1.016,2.67,2.67,0,0,1-2.074-.781,3.335,3.335,0,0,1-.73-2.289V27.547H657.5v5.467q0,1.322,1.2,1.322a1.63,1.63,0,0,0,1.578-.8V27.547h2.266V36h-2.125Zm7.781,1.016a4.15,4.15,0,0,1-3.027-1.141,4.054,4.054,0,0,1-1.168-3.039v-.219a5.106,5.106,0,0,1,.492-2.277,3.612,3.612,0,0,1,1.395-1.547,3.914,3.914,0,0,1,2.059-.543,3.508,3.508,0,0,1,2.73,1.094,4.444,4.444,0,0,1,1,3.1v.922h-5.383a2.1,2.1,0,0,0,.66,1.328,2,2,0,0,0,1.395.5,2.437,2.437,0,0,0,2.039-.945l1.109,1.242a3.39,3.39,0,0,1-1.375,1.121A4.511,4.511,0,0,1,668.141,36.156Zm-.258-6.945a1.411,1.411,0,0,0-1.09.455,2.357,2.357,0,0,0-.535,1.3H669.4v-.181a1.681,1.681,0,0,0-.406-1.165A1.456,1.456,0,0,0,667.883,29.211Zm4.664,2.5a5.094,5.094,0,0,1,.887-3.148,2.877,2.877,0,0,1,2.426-1.172,2.589,2.589,0,0,1,2.039.922V24h2.266V36h-2.039l-.109-.9a2.657,2.657,0,0,1-2.172,1.055,2.869,2.869,0,0,1-2.395-1.176A5.258,5.258,0,0,1,672.547,31.711Zm2.258.161a3.355,3.355,0,0,0,.414,1.829,1.348,1.348,0,0,0,1.2.636,1.51,1.51,0,0,0,1.477-.887V30.1a1.489,1.489,0,0,0-1.461-.887Q674.8,29.211,674.8,31.872ZM686.813,36a2.507,2.507,0,0,1-.227-.758,2.732,2.732,0,0,1-2.133.914,3,3,0,0,1-2.059-.719,2.312,2.312,0,0,1-.816-1.812,2.389,2.389,0,0,1,1-2.062,4.915,4.915,0,0,1,2.879-.727h1.039v-.484a1.393,1.393,0,0,0-.3-.937,1.183,1.183,0,0,0-.949-.352,1.345,1.345,0,0,0-.895.273.929.929,0,0,0-.324.75h-2.258a2.268,2.268,0,0,1,.453-1.359,3,3,0,0,1,1.281-.98,4.669,4.669,0,0,1,1.859-.355,3.689,3.689,0,0,1,2.48.785,2.747,2.747,0,0,1,.918,2.207v3.664a4.041,4.041,0,0,0,.336,1.82V36Zm-1.867-1.57a1.945,1.945,0,0,0,.922-.223,1.463,1.463,0,0,0,.625-.6V32.156h-.844q-1.7,0-1.8,1.172l-.008.133a.9.9,0,0,0,.3.7A1.153,1.153,0,0,0,684.945,34.43Zm7.625-6.883.07.977a2.951,2.951,0,0,1,2.43-1.133,2.453,2.453,0,0,1,2,.789,3.682,3.682,0,0,1,.672,2.359V36h-2.258V30.581a1.471,1.471,0,0,0-.312-1.045,1.4,1.4,0,0,0-1.039-.325,1.553,1.553,0,0,0-1.43.814V36h-2.258V27.547ZM5.93,56.141a2.831,2.831,0,0,1-2.312,1.016,2.67,2.67,0,0,1-2.074-.781,3.335,3.335,0,0,1-.73-2.289V48.547H3.07v5.467q0,1.322,1.2,1.322a1.63,1.63,0,0,0,1.578-.8V48.547H8.117V57H5.992Zm6.594-9.672v2.078h1.445V50.2H12.523v4.219a1.007,1.007,0,0,0,.18.672.9.9,0,0,0,.688.2,3.6,3.6,0,0,0,.664-.055v1.711a4.648,4.648,0,0,1-1.367.2,2.156,2.156,0,0,1-2.422-2.4V50.2H9.031V48.547h1.234V46.469ZM17.609,57H15.344V48.547h2.266Zm-2.4-10.641a1.112,1.112,0,0,1,.34-.836,1.465,1.465,0,0,1,1.848,0,1.193,1.193,0,0,1,0,1.68,1.448,1.448,0,0,1-1.836,0A1.108,1.108,0,0,1,15.211,46.359ZM21.852,57H19.586V45h2.266Zm4.242,0H23.828V48.547h2.266ZM23.7,46.359a1.112,1.112,0,0,1,.34-.836,1.465,1.465,0,0,1,1.848,0,1.193,1.193,0,0,1,0,1.68,1.448,1.448,0,0,1-1.836,0A1.108,1.108,0,0,1,23.7,46.359Zm6.852,8.82H34.68V57H27.664V55.625l3.977-5.258H27.781v-1.82h6.773v1.33ZM40.992,57a2.507,2.507,0,0,1-.227-.758,2.732,2.732,0,0,1-2.133.914,3,3,0,0,1-2.059-.719,2.312,2.312,0,0,1-.816-1.812,2.389,2.389,0,0,1,1-2.062,4.915,4.915,0,0,1,2.879-.727h1.039v-.484a1.393,1.393,0,0,0-.3-.937,1.183,1.183,0,0,0-.949-.352,1.345,1.345,0,0,0-.895.273.929.929,0,0,0-.324.75H35.945a2.268,2.268,0,0,1,.453-1.359,3,3,0,0,1,1.281-.98,4.669,4.669,0,0,1,1.859-.355,3.689,3.689,0,0,1,2.48.785,2.747,2.747,0,0,1,.918,2.207v3.664a4.041,4.041,0,0,0,.336,1.82V57Zm-1.867-1.57a1.945,1.945,0,0,0,.922-.223,1.462,1.462,0,0,0,.625-.6V53.156h-.844q-1.7,0-1.8,1.172l-.008.133a.9.9,0,0,0,.3.7A1.153,1.153,0,0,0,39.125,55.43Zm10.3-4.766a6.134,6.134,0,0,0-.812-.062,1.654,1.654,0,0,0-1.68.867V57H44.672V48.547H46.8l.063,1.008a2.092,2.092,0,0,1,1.883-1.164,2.366,2.366,0,0,1,.7.1Zm-.148,5.227a1.137,1.137,0,0,1,.363-.875,1.412,1.412,0,0,1,1.828,0,1.137,1.137,0,0,1,.363.875,1.121,1.121,0,0,1-.359.863,1.435,1.435,0,0,1-1.836,0A1.121,1.121,0,0,1,49.273,55.891Zm11.008-2.9V57H57.938V45.625h4.438a5.134,5.134,0,0,1,2.254.469,3.454,3.454,0,0,1,1.5,1.332,3.714,3.714,0,0,1,.523,1.965A3.266,3.266,0,0,1,65.5,52.027a4.767,4.767,0,0,1-3.168.965Zm0-1.9h2.094a2.059,2.059,0,0,0,1.418-.437,1.591,1.591,0,0,0,.488-1.25,1.876,1.876,0,0,0-.492-1.352,1.839,1.839,0,0,0-1.359-.531H60.281Zm7.375,1.6a5.013,5.013,0,0,1,.484-2.242,3.546,3.546,0,0,1,1.395-1.523,4.069,4.069,0,0,1,2.113-.539,3.849,3.849,0,0,1,2.793,1.047,4.2,4.2,0,0,1,1.207,2.844l.016.578a4.418,4.418,0,0,1-1.086,3.121,4.209,4.209,0,0,1-5.832,0,4.5,4.5,0,0,1-1.09-3.187Zm2.258.16a3.16,3.16,0,0,0,.453,1.843,1.628,1.628,0,0,0,2.578.008,3.457,3.457,0,0,0,.461-2.015,3.128,3.128,0,0,0-.461-1.831,1.5,1.5,0,0,0-1.3-.649,1.474,1.474,0,0,0-1.281.646A3.516,3.516,0,0,0,69.914,52.856ZM81.8,50.664a6.134,6.134,0,0,0-.812-.062,1.654,1.654,0,0,0-1.68.867V57H77.055V48.547h2.133l.063,1.008a2.092,2.092,0,0,1,1.883-1.164,2.366,2.366,0,0,1,.7.1Zm8.961,6.492a4.15,4.15,0,0,1-3.027-1.141,4.054,4.054,0,0,1-1.168-3.039v-.219a5.106,5.106,0,0,1,.492-2.277,3.612,3.612,0,0,1,1.395-1.547,3.914,3.914,0,0,1,2.059-.543,3.508,3.508,0,0,1,2.73,1.094,4.444,4.444,0,0,1,1,3.1v.922H88.859a2.1,2.1,0,0,0,.66,1.328,2,2,0,0,0,1.395.5,2.437,2.437,0,0,0,2.039-.945l1.109,1.242a3.389,3.389,0,0,1-1.375,1.121A4.511,4.511,0,0,1,90.766,57.156Zm-.258-6.945a1.411,1.411,0,0,0-1.09.455,2.357,2.357,0,0,0-.535,1.3h3.141v-.181a1.681,1.681,0,0,0-.406-1.165A1.456,1.456,0,0,0,90.508,50.211ZM97.906,57H95.641V45h2.266Zm4.242,0H99.883V45h2.266Zm1.508-4.3a5.013,5.013,0,0,1,.484-2.242,3.546,3.546,0,0,1,1.395-1.523,4.069,4.069,0,0,1,2.113-.539,3.849,3.849,0,0,1,2.793,1.047,4.2,4.2,0,0,1,1.207,2.844l.016.578a4.418,4.418,0,0,1-1.086,3.121,4.209,4.209,0,0,1-5.832,0,4.5,4.5,0,0,1-1.09-3.187Zm2.258.16a3.16,3.16,0,0,0,.453,1.843,1.628,1.628,0,0,0,2.578.008,3.457,3.457,0,0,0,.461-2.015,3.128,3.128,0,0,0-.461-1.831,1.5,1.5,0,0,0-1.3-.649,1.474,1.474,0,0,0-1.281.646A3.516,3.516,0,0,0,105.914,52.856Zm7.727,7-1.18-.617.281-.508a4.059,4.059,0,0,0,.539-1.9v-1.75h1.906l-.008,1.563a4.059,4.059,0,0,1-.437,1.75A4.486,4.486,0,0,1,113.641,59.852Zm11.883-5.187a.727.727,0,0,0-.41-.652,4.659,4.659,0,0,0-1.316-.426q-3.016-.633-3.016-2.562a2.323,2.323,0,0,1,.934-1.879,3.766,3.766,0,0,1,2.441-.754,4.053,4.053,0,0,1,2.574.758,2.388,2.388,0,0,1,.965,1.969h-2.258a1.092,1.092,0,0,0-.312-.8,1.322,1.322,0,0,0-.977-.316,1.351,1.351,0,0,0-.883.258.814.814,0,0,0-.312.656.7.7,0,0,0,.355.605,3.657,3.657,0,0,0,1.2.4,9.8,9.8,0,0,1,1.422.379,2.336,2.336,0,0,1,1.789,2.273,2.2,2.2,0,0,1-.992,1.871,4.28,4.28,0,0,1-2.562.715,4.47,4.47,0,0,1-1.887-.379,3.166,3.166,0,0,1-1.293-1.039,2.414,2.414,0,0,1-.469-1.426h2.141a1.179,1.179,0,0,0,.445.922,1.766,1.766,0,0,0,1.109.32,1.635,1.635,0,0,0,.98-.246A.766.766,0,0,0,125.523,54.664Zm7.539,2.492a4.15,4.15,0,0,1-3.027-1.141,4.054,4.054,0,0,1-1.168-3.039v-.219a5.106,5.106,0,0,1,.492-2.277,3.612,3.612,0,0,1,1.395-1.547,3.914,3.914,0,0,1,2.059-.543,3.508,3.508,0,0,1,2.73,1.094,4.444,4.444,0,0,1,1,3.1v.922h-5.383a2.1,2.1,0,0,0,.66,1.328,2,2,0,0,0,1.395.5,2.437,2.437,0,0,0,2.039-.945l1.109,1.242a3.389,3.389,0,0,1-1.375,1.121A4.511,4.511,0,0,1,133.063,57.156Zm-.258-6.945a1.411,1.411,0,0,0-1.09.455,2.357,2.357,0,0,0-.535,1.3h3.141v-.181a1.681,1.681,0,0,0-.406-1.165A1.456,1.456,0,0,0,132.8,50.211Zm8.648,2.5a5.094,5.094,0,0,1,.887-3.148,2.877,2.877,0,0,1,2.426-1.172,2.589,2.589,0,0,1,2.039.922V45h2.266V57h-2.039l-.109-.9a2.657,2.657,0,0,1-2.172,1.055,2.869,2.869,0,0,1-2.395-1.176A5.258,5.258,0,0,1,141.453,52.711Zm2.258.161a3.355,3.355,0,0,0,.414,1.829,1.348,1.348,0,0,0,1.2.636,1.51,1.51,0,0,0,1.477-.887V51.1a1.489,1.489,0,0,0-1.461-.887Q143.711,50.211,143.711,52.872Zm11,4.285a4.15,4.15,0,0,1-3.027-1.141,4.054,4.054,0,0,1-1.168-3.039v-.219a5.106,5.106,0,0,1,.492-2.277,3.612,3.612,0,0,1,1.395-1.547,3.914,3.914,0,0,1,2.059-.543,3.508,3.508,0,0,1,2.73,1.094,4.444,4.444,0,0,1,1,3.1v.922H152.8a2.1,2.1,0,0,0,.66,1.328,2,2,0,0,0,1.395.5,2.437,2.437,0,0,0,2.039-.945l1.109,1.242a3.389,3.389,0,0,1-1.375,1.121A4.511,4.511,0,0,1,154.711,57.156Zm-.258-6.945a1.411,1.411,0,0,0-1.09.455,2.357,2.357,0,0,0-.535,1.3h3.141v-.181a1.681,1.681,0,0,0-.406-1.165A1.456,1.456,0,0,0,154.453,50.211Zm12.633,2.641a5.119,5.119,0,0,1-.867,3.168,2.872,2.872,0,0,1-2.422,1.137,2.639,2.639,0,0,1-2.2-1.055l-.1.9h-2.031V45h2.258v4.3a2.571,2.571,0,0,1,2.055-.914,2.9,2.9,0,0,1,2.426,1.137,5.126,5.126,0,0,1,.879,3.2Zm-2.258-.172a3.381,3.381,0,0,0-.406-1.877,1.372,1.372,0,0,0-1.211-.592,1.489,1.489,0,0,0-1.484.885v3.346a1.509,1.509,0,0,0,1.5.893,1.4,1.4,0,0,0,1.438-1.081A5.6,5.6,0,0,0,164.828,52.679Zm7.539,4.477a4.15,4.15,0,0,1-3.027-1.141,4.054,4.054,0,0,1-1.168-3.039v-.219a5.106,5.106,0,0,1,.492-2.277,3.612,3.612,0,0,1,1.395-1.547,3.914,3.914,0,0,1,2.059-.543,3.508,3.508,0,0,1,2.73,1.094,4.444,4.444,0,0,1,1,3.1v.922h-5.383a2.1,2.1,0,0,0,.66,1.328,2,2,0,0,0,1.395.5,2.437,2.437,0,0,0,2.039-.945l1.109,1.242a3.389,3.389,0,0,1-1.375,1.121A4.511,4.511,0,0,1,172.367,57.156Zm-.258-6.945a1.411,1.411,0,0,0-1.09.455,2.357,2.357,0,0,0-.535,1.3h3.141v-.181a1.681,1.681,0,0,0-.406-1.165A1.456,1.456,0,0,0,172.109,50.211Zm11.7-3.742v2.078h1.445V50.2h-1.445v4.219a1.007,1.007,0,0,0,.18.672.9.9,0,0,0,.688.2,3.6,3.6,0,0,0,.664-.055v1.711a4.648,4.648,0,0,1-1.367.2,2.156,2.156,0,0,1-2.422-2.4V50.2H180.32V48.547h1.234V46.469Zm6.594,10.688a4.15,4.15,0,0,1-3.027-1.141,4.054,4.054,0,0,1-1.168-3.039v-.219a5.106,5.106,0,0,1,.492-2.277,3.612,3.612,0,0,1,1.395-1.547,3.914,3.914,0,0,1,2.059-.543,3.508,3.508,0,0,1,2.73,1.094,4.444,4.444,0,0,1,1,3.1v.922H188.5a2.1,2.1,0,0,0,.66,1.328,2,2,0,0,0,1.395.5,2.437,2.437,0,0,0,2.039-.945l1.109,1.242a3.389,3.389,0,0,1-1.375,1.121A4.511,4.511,0,0,1,190.406,57.156Zm-.258-6.945a1.411,1.411,0,0,0-1.09.455,2.357,2.357,0,0,0-.535,1.3h3.141v-.181a1.681,1.681,0,0,0-.406-1.165A1.456,1.456,0,0,0,190.148,50.211Zm7.094-1.664.07.977a2.951,2.951,0,0,1,2.43-1.133,2.453,2.453,0,0,1,2,.789,3.682,3.682,0,0,1,.672,2.359V57h-2.258V51.581a1.47,1.47,0,0,0-.312-1.045,1.4,1.4,0,0,0-1.039-.325,1.553,1.553,0,0,0-1.43.814V57h-2.258V48.547Zm10.773,8.609a4.15,4.15,0,0,1-3.027-1.141,4.054,4.054,0,0,1-1.168-3.039v-.219a5.106,5.106,0,0,1,.492-2.277,3.612,3.612,0,0,1,1.395-1.547,3.914,3.914,0,0,1,2.059-.543,3.508,3.508,0,0,1,2.73,1.094,4.444,4.444,0,0,1,1,3.1v.922h-5.383a2.1,2.1,0,0,0,.66,1.328,2,2,0,0,0,1.395.5,2.437,2.437,0,0,0,2.039-.945l1.109,1.242a3.389,3.389,0,0,1-1.375,1.121A4.511,4.511,0,0,1,208.016,57.156Zm-.258-6.945a1.411,1.411,0,0,0-1.09.455,2.357,2.357,0,0,0-.535,1.3h3.141v-.181a1.681,1.681,0,0,0-.406-1.165A1.456,1.456,0,0,0,207.758,50.211Zm9.766.453a6.134,6.134,0,0,0-.812-.062,1.654,1.654,0,0,0-1.68.867V57h-2.258V48.547h2.133l.063,1.008a2.092,2.092,0,0,1,1.883-1.164,2.366,2.366,0,0,1,.7.1Zm8.961,6.492a4.15,4.15,0,0,1-3.027-1.141,4.054,4.054,0,0,1-1.168-3.039v-.219a5.106,5.106,0,0,1,.492-2.277,3.612,3.612,0,0,1,1.395-1.547,3.914,3.914,0,0,1,2.059-.543,3.508,3.508,0,0,1,2.73,1.094,4.444,4.444,0,0,1,1,3.1v.922h-5.383a2.1,2.1,0,0,0,.66,1.328,2,2,0,0,0,1.395.5,2.437,2.437,0,0,0,2.039-.945l1.109,1.242a3.389,3.389,0,0,1-1.375,1.121A4.511,4.511,0,0,1,226.484,57.156Zm-.258-6.945a1.411,1.411,0,0,0-1.09.455,2.357,2.357,0,0,0-.535,1.3h3.141v-.181a1.681,1.681,0,0,0-.406-1.165A1.456,1.456,0,0,0,226.227,50.211Zm7.094-1.664.07.977a2.951,2.951,0,0,1,2.43-1.133,2.453,2.453,0,0,1,2,.789,3.682,3.682,0,0,1,.672,2.359V57h-2.258V51.581a1.47,1.47,0,0,0-.312-1.045,1.4,1.4,0,0,0-1.039-.325,1.553,1.553,0,0,0-1.43.814V57H231.2V48.547ZM247.7,55.336a1.481,1.481,0,0,0,1.016-.344,1.2,1.2,0,0,0,.406-.914h2.117a2.9,2.9,0,0,1-.469,1.574,3.093,3.093,0,0,1-1.262,1.109,3.949,3.949,0,0,1-1.77.395A3.67,3.67,0,0,1,244.883,56a4.56,4.56,0,0,1-1.047-3.184v-.148a4.508,4.508,0,0,1,1.039-3.117,3.627,3.627,0,0,1,2.852-1.164,3.555,3.555,0,0,1,2.543.9,3.2,3.2,0,0,1,.973,2.4h-2.117a1.551,1.551,0,0,0-.406-1.072,1.51,1.51,0,0,0-2.223.163,3.333,3.333,0,0,0-.4,1.866v.235a3.375,3.375,0,0,0,.4,1.878A1.377,1.377,0,0,0,247.7,55.336Zm9.891.8a2.831,2.831,0,0,1-2.312,1.016,2.67,2.67,0,0,1-2.074-.781,3.335,3.335,0,0,1-.73-2.289V48.547h2.258v5.467q0,1.322,1.2,1.322a1.63,1.63,0,0,0,1.578-.8V48.547h2.266V57h-2.125Zm7.781,1.016a4.15,4.15,0,0,1-3.027-1.141,4.054,4.054,0,0,1-1.168-3.039v-.219a5.106,5.106,0,0,1,.492-2.277,3.612,3.612,0,0,1,1.395-1.547,3.914,3.914,0,0,1,2.059-.543,3.508,3.508,0,0,1,2.73,1.094,4.444,4.444,0,0,1,1,3.1v.922h-5.383a2.1,2.1,0,0,0,.66,1.328,2,2,0,0,0,1.395.5,2.437,2.437,0,0,0,2.039-.945l1.109,1.242a3.389,3.389,0,0,1-1.375,1.121A4.511,4.511,0,0,1,265.375,57.156Zm-.258-6.945a1.411,1.411,0,0,0-1.09.455,2.357,2.357,0,0,0-.535,1.3h3.141v-.181a1.681,1.681,0,0,0-.406-1.165A1.456,1.456,0,0,0,265.117,50.211Zm7.094-1.664.07.977a2.951,2.951,0,0,1,2.43-1.133,2.453,2.453,0,0,1,2,.789,3.681,3.681,0,0,1,.672,2.359V57h-2.258V51.581a1.47,1.47,0,0,0-.312-1.045,1.4,1.4,0,0,0-1.039-.325,1.553,1.553,0,0,0-1.43.814V57h-2.258V48.547Zm9.586-2.078v2.078h1.445V50.2H281.8v4.219a1.007,1.007,0,0,0,.18.672.9.9,0,0,0,.688.2,3.6,3.6,0,0,0,.664-.055v1.711a4.648,4.648,0,0,1-1.367.2,2.156,2.156,0,0,1-2.422-2.4V50.2H278.3V48.547h1.234V46.469ZM289.4,57a2.508,2.508,0,0,1-.227-.758,2.732,2.732,0,0,1-2.133.914,3,3,0,0,1-2.059-.719,2.312,2.312,0,0,1-.816-1.812,2.389,2.389,0,0,1,1-2.062,4.915,4.915,0,0,1,2.879-.727h1.039v-.484a1.393,1.393,0,0,0-.3-.937,1.183,1.183,0,0,0-.949-.352,1.345,1.345,0,0,0-.895.273.929.929,0,0,0-.324.75h-2.258a2.268,2.268,0,0,1,.453-1.359,3,3,0,0,1,1.281-.98,4.669,4.669,0,0,1,1.859-.355,3.689,3.689,0,0,1,2.48.785,2.747,2.747,0,0,1,.918,2.207v3.664a4.041,4.041,0,0,0,.336,1.82V57Zm-1.867-1.57a1.945,1.945,0,0,0,.922-.223,1.462,1.462,0,0,0,.625-.6V53.156h-.844q-1.7,0-1.8,1.172l-.008.133a.9.9,0,0,0,.3.7A1.153,1.153,0,0,0,287.531,55.43ZM299.445,57H297.18V45h2.266Zm1.508-4.3a5.013,5.013,0,0,1,.484-2.242,3.546,3.546,0,0,1,1.395-1.523,4.069,4.069,0,0,1,2.113-.539,3.849,3.849,0,0,1,2.793,1.047,4.2,4.2,0,0,1,1.207,2.844l.016.578a4.418,4.418,0,0,1-1.086,3.121,4.209,4.209,0,0,1-5.832,0,4.5,4.5,0,0,1-1.09-3.187Zm2.258.16a3.16,3.16,0,0,0,.453,1.843,1.628,1.628,0,0,0,2.578.008,3.458,3.458,0,0,0,.461-2.015,3.128,3.128,0,0,0-.461-1.831,1.5,1.5,0,0,0-1.3-.649,1.474,1.474,0,0,0-1.281.646A3.516,3.516,0,0,0,303.211,52.856Zm15.7,1.808a.727.727,0,0,0-.41-.652,4.659,4.659,0,0,0-1.316-.426q-3.016-.633-3.016-2.562a2.323,2.323,0,0,1,.934-1.879,3.766,3.766,0,0,1,2.441-.754,4.053,4.053,0,0,1,2.574.758,2.388,2.388,0,0,1,.965,1.969h-2.258a1.092,1.092,0,0,0-.312-.8,1.322,1.322,0,0,0-.977-.316,1.351,1.351,0,0,0-.883.258.814.814,0,0,0-.312.656.7.7,0,0,0,.355.605,3.657,3.657,0,0,0,1.2.4,9.8,9.8,0,0,1,1.422.379,2.336,2.336,0,0,1,1.789,2.273,2.2,2.2,0,0,1-.992,1.871,4.28,4.28,0,0,1-2.562.715,4.47,4.47,0,0,1-1.887-.379,3.166,3.166,0,0,1-1.293-1.039,2.414,2.414,0,0,1-.469-1.426h2.141a1.179,1.179,0,0,0,.445.922,1.766,1.766,0,0,0,1.109.32,1.635,1.635,0,0,0,.98-.246A.766.766,0,0,0,318.914,54.664ZM324.945,57H322.68V48.547h2.266Zm-2.4-10.641a1.112,1.112,0,0,1,.34-.836,1.465,1.465,0,0,1,1.848,0,1.193,1.193,0,0,1,0,1.68,1.448,1.448,0,0,1-1.836,0A1.108,1.108,0,0,1,322.547,46.359Zm3.93,6.352a4.954,4.954,0,0,1,.926-3.133,3,3,0,0,1,2.5-1.187,2.631,2.631,0,0,1,2.164.953l.094-.8H334.2v8.172a3.613,3.613,0,0,1-.5,1.93,3.236,3.236,0,0,1-1.418,1.25,4.985,4.985,0,0,1-2.141.43,4.635,4.635,0,0,1-1.812-.371A3.217,3.217,0,0,1,326.992,59l1-1.375a2.645,2.645,0,0,0,2.047.945,1.936,1.936,0,0,0,1.4-.48,1.8,1.8,0,0,0,.5-1.363v-.453a2.612,2.612,0,0,1-2.055.883,2.992,2.992,0,0,1-2.465-1.191,4.953,4.953,0,0,1-.941-3.16Zm2.258.161a3.1,3.1,0,0,0,.461,1.809,1.465,1.465,0,0,0,1.266.655,1.567,1.567,0,0,0,1.477-.777V50.988a1.563,1.563,0,0,0-1.461-.777,1.474,1.474,0,0,0-1.277.667A3.5,3.5,0,0,0,328.734,52.872ZM341,56.141a2.831,2.831,0,0,1-2.312,1.016,2.67,2.67,0,0,1-2.074-.781,3.335,3.335,0,0,1-.73-2.289V48.547h2.258v5.467q0,1.322,1.2,1.322a1.63,1.63,0,0,0,1.578-.8V48.547h2.266V57h-2.125Zm6.273.859h-2.266V48.547h2.266Zm-2.4-10.641a1.112,1.112,0,0,1,.34-.836,1.465,1.465,0,0,1,1.848,0,1.193,1.193,0,0,1,0,1.68,1.448,1.448,0,0,1-1.836,0A1.108,1.108,0,0,1,344.875,46.359Zm8.148,10.8A4.15,4.15,0,0,1,350,56.016a4.054,4.054,0,0,1-1.168-3.039v-.219a5.106,5.106,0,0,1,.492-2.277,3.612,3.612,0,0,1,1.395-1.547,3.914,3.914,0,0,1,2.059-.543,3.508,3.508,0,0,1,2.73,1.094,4.444,4.444,0,0,1,1,3.1v.922h-5.383a2.1,2.1,0,0,0,.66,1.328,2,2,0,0,0,1.395.5,2.437,2.437,0,0,0,2.039-.945l1.109,1.242a3.389,3.389,0,0,1-1.375,1.121A4.511,4.511,0,0,1,353.023,57.156Zm-.258-6.945a1.411,1.411,0,0,0-1.09.455,2.357,2.357,0,0,0-.535,1.3h3.141v-.181a1.681,1.681,0,0,0-.406-1.165A1.456,1.456,0,0,0,352.766,50.211Zm7.094-1.664.07.977a2.951,2.951,0,0,1,2.43-1.133,2.453,2.453,0,0,1,2,.789,3.681,3.681,0,0,1,.672,2.359V57h-2.258V51.581a1.47,1.47,0,0,0-.312-1.045,1.4,1.4,0,0,0-1.039-.325,1.553,1.553,0,0,0-1.43.814V57h-2.258V48.547Zm9.586-2.078v2.078h1.445V50.2h-1.445v4.219a1.007,1.007,0,0,0,.18.672.9.9,0,0,0,.688.2,3.6,3.6,0,0,0,.664-.055v1.711a4.648,4.648,0,0,1-1.367.2,2.156,2.156,0,0,1-2.422-2.4V50.2h-1.234V48.547h1.234V46.469Zm6.594,10.688a4.15,4.15,0,0,1-3.027-1.141,4.054,4.054,0,0,1-1.168-3.039v-.219a5.106,5.106,0,0,1,.492-2.277,3.612,3.612,0,0,1,1.395-1.547,3.914,3.914,0,0,1,2.059-.543,3.508,3.508,0,0,1,2.73,1.094,4.444,4.444,0,0,1,1,3.1v.922h-5.383a2.1,2.1,0,0,0,.66,1.328,2,2,0,0,0,1.395.5,2.437,2.437,0,0,0,2.039-.945l1.109,1.242a3.389,3.389,0,0,1-1.375,1.121A4.511,4.511,0,0,1,376.039,57.156Zm-.258-6.945a1.411,1.411,0,0,0-1.09.455,2.357,2.357,0,0,0-.535,1.3H377.3v-.181a1.681,1.681,0,0,0-.406-1.165A1.456,1.456,0,0,0,375.781,50.211Zm5.125,5.68a1.137,1.137,0,0,1,.363-.875,1.412,1.412,0,0,1,1.828,0,1.137,1.137,0,0,1,.363.875,1.121,1.121,0,0,1-.359.863,1.435,1.435,0,0,1-1.836,0A1.121,1.121,0,0,1,380.906,55.891Zm0-6.4a1.137,1.137,0,0,1,.363-.875,1.412,1.412,0,0,1,1.828,0,1.137,1.137,0,0,1,.363.875,1.121,1.121,0,0,1-.359.863,1.435,1.435,0,0,1-1.836,0A1.121,1.121,0,0,1,380.906,49.492Z" transform="translate(553 17156)" fill="#fff"/>
    </g>
    <g id="Grupo_1031631" data-name="Grupo 1031631" transform="translate(320 17143.094)">
      <g id="Grupo_1031632" data-name="Grupo 1031632" clip-path="url(#clip-path)">
        <path id="Trazado_772692" data-name="Trazado 772692" d="M0,180.255a13.332,13.332,0,0,1,.626-1.882,5.9,5.9,0,0,1,5.435-3.509c3.679-.065,7.36-.017,11.04-.016.082,0,.163.01.321.02-.144.123-.231.194-.314.269-.947.844-1.887,1.7-2.847,2.525a1.1,1.1,0,0,1-.64.275c-2.379.019-4.759.01-7.138.012A3.12,3.12,0,0,0,3.1,181.316q0,24.452,0,48.9v.462H96.195c.008-.161.022-.318.022-.474q0-24.43,0-48.86a3.127,3.127,0,0,0-3.39-3.4c-2.305,0-4.611-.008-6.917.007a1.188,1.188,0,0,1-.917-.388c-.838-.808-1.727-1.564-2.6-2.338a1.486,1.486,0,0,1-.364-.383h.456q5.276,0,10.552,0a6.205,6.205,0,0,1,6.183,5.071c.023.114.065.224.1.336v54.36a1.988,1.988,0,0,0-.087.248,6.19,6.19,0,0,1-6.368,5.161q-15.532,0-31.064,0c-.156,0-.312.015-.477.023v3.082h.552c2.378,0,4.756-.006,7.134,0a1.549,1.549,0,0,1,1.552,1.941,1.765,1.765,0,0,1-1.128,1.159H29.885a.39.39,0,0,0-.069-.055,1.565,1.565,0,0,1,.67-3.047h7.505v-3.106H6.322A6.2,6.2,0,0,1,.1,234.951c-.023-.114-.066-.224-.1-.336v-54.36m96.186,53.6H3.113c.009.154.008.272.024.387a3.143,3.143,0,0,0,3.411,2.683H92.774c.177,0,.355,0,.532-.01a3.066,3.066,0,0,0,2.88-3.06m-38.022,6.2H41.156V243.1H58.165Z" transform="translate(0 -159.327)" fill="#fff"/>
        <path id="Trazado_772693" data-name="Trazado 772693" d="M168.858,0c.752.145,1.514.254,2.255.443a13.022,13.022,0,0,1,5.979,3.4,2.4,2.4,0,0,1,.219.29c4.647-3.8,9.724-4.815,15.1-2.12s7.657,7.334,7.389,13.315c.652.089,1.33.135,1.987.278,6.538,1.424,10.859,5.34,12.378,11.846,1.495,6.4-.589,11.792-5.725,15.9a14.815,14.815,0,0,1-9.521,3.206h-3.443c.149-.273.275-.483.381-.7.328-.678.668-1.351.963-2.043a.525.525,0,0,1,.555-.364,29.019,29.019,0,0,0,4.145-.278,12.489,12.489,0,1,0-5.6-24.337l-.513.125a10.2,10.2,0,0,0-.061-10.135A9.861,9.861,0,0,0,190.1,4.337a10.3,10.3,0,0,0-12.883,5.146,10.247,10.247,0,0,0-7.549-6.18,9.877,9.877,0,0,0-6.79,1.011,10.222,10.222,0,0,0-5.416,9.18,10.259,10.259,0,0,0,1.628,5.382l-1.049-.21A12.495,12.495,0,1,0,154,43.32a14.941,14.941,0,0,0,2.077.128c3.488.013,6.976.006,10.464.006h.5a3.027,3.027,0,0,1-.193.288,5.913,5.913,0,0,0-1.307,2.438c-.07.271-.177.382-.476.381-3.266-.012-6.533.038-9.8-.021a15.6,15.6,0,0,1-1.106-31.117,1.876,1.876,0,0,0,.222-.044c0-.991-.053-1.95.009-2.9A13.33,13.33,0,0,1,166.041.1a4.261,4.261,0,0,0,.423-.1Z" transform="translate(-127.711)" fill="#fff"/>
        <path id="Trazado_772694" data-name="Trazado 772694" d="M379.821,237.593a6.925,6.925,0,0,0,4.317-6.475,7.459,7.459,0,0,0-14.529-1.694,7.925,7.925,0,0,0-.26,1.746,3.115,3.115,0,0,1-3.333,3.194c-1.315,0-2.63.005-3.945,0a3.031,3.031,0,0,1-3.163-3.2,16.724,16.724,0,0,1,9.468-15.133A18.08,18.08,0,0,1,390.4,220.15a16.864,16.864,0,0,1-.515,22.793,17.919,17.919,0,0,1-9.6,5.252.516.516,0,0,0-.5.483,2.928,2.928,0,0,1-2.065,2.387,3.014,3.014,0,0,1-3.126-.693q-2.811-2.541-5.622-5.083a3.124,3.124,0,0,1,.168-5.068c1.814-1.421,3.637-2.831,5.446-4.26a3.116,3.116,0,0,1,5.167,1.493,1.252,1.252,0,0,0,.07.139m-3.079,7.911a.676.676,0,0,1,.135-.058c.1-.008.206-.01.309-.014a14.918,14.918,0,0,0,10.057-4.23,13.774,13.774,0,0,0,1.792-17.752,15.008,15.008,0,0,0-15.644-5.986,14.383,14.383,0,0,0-11.241,11.8c-.1.645-.115,1.3-.17,1.962h4.23c.018-.25.034-.47.049-.689a9.367,9.367,0,0,1,1.233-4.079,10.738,10.738,0,0,1,14.662-3.861,9.965,9.965,0,0,1,4.986,10.139,10.265,10.265,0,0,1-8.364,8.439c-.657.115-1.328.155-2.062.238v-3.167l-5.836,4.569,5.866,5.308Z" transform="translate(-327.079 -194.977)" fill="#fff"/>
        <path id="Trazado_772695" data-name="Trazado 772695" d="M280.965,673.8h25.45a1.553,1.553,0,1,1,.265,3.1c-.117.01-.236,0-.355,0H255.6c-1.15,0-1.873-.694-1.783-1.71a1.521,1.521,0,0,1,1.385-1.383c.206-.016.414-.007.62-.007h25.14" transform="translate(-231.304 -614.05)" fill="#fff"/>
      </g>
    </g>
  </g>
</svg>
