<svg xmlns="http://www.w3.org/2000/svg" xmlns:xlink="http://www.w3.org/1999/xlink" width="400" height="302.457" viewBox="0 0 400 302.457">
  <defs>
    <clipPath id="clip-path">
      <rect id="Rectángulo_352791" data-name="Rectángulo 352791" width="197.266" height="100.635" fill="#12263f"/>
    </clipPath>
    <clipPath id="clip-path-2">
      <rect id="Rectángulo_364366" data-name="Rectángulo 364366" width="390.809" height="252.388" fill="none"/>
    </clipPath>
    <clipPath id="clip-path-5">
      <rect id="Rectángulo_364321" data-name="Rectángulo 364321" width="39.732" height="26.82" fill="none"/>
    </clipPath>
    <clipPath id="clip-path-6">
      <rect id="Rectángulo_364322" data-name="Rectángulo 364322" width="14.768" height="2.715" fill="none"/>
    </clipPath>
    <clipPath id="clip-path-8">
      <rect id="Rectángulo_364334" data-name="Rectángulo 364334" width="14.768" height="2.716" fill="none"/>
    </clipPath>
    <clipPath id="clip-path-10">
      <rect id="Rectángulo_364338" data-name="Rectángulo 364338" width="98.339" height="127.398" fill="none"/>
    </clipPath>
    <clipPath id="clip-path-11">
      <rect id="Rectángulo_364339" data-name="Rectángulo 364339" width="86.534" height="86.533" fill="none"/>
    </clipPath>
    <clipPath id="clip-path-12">
      <rect id="Rectángulo_364340" data-name="Rectángulo 364340" width="64.677" height="86.533" fill="none"/>
    </clipPath>
    <clipPath id="clip-path-13">
      <rect id="Rectángulo_364343" data-name="Rectángulo 364343" width="109.185" height="4.792" fill="#373f51"/>
    </clipPath>
    <clipPath id="clip-path-14">
      <rect id="Rectángulo_364344" data-name="Rectángulo 364344" width="7.666" height="7.666" fill="none"/>
    </clipPath>
    <clipPath id="clip-path-15">
      <rect id="Rectángulo_364345" data-name="Rectángulo 364345" width="1.285" height="1.285" fill="none"/>
    </clipPath>
    <clipPath id="clip-path-16">
      <rect id="Rectángulo_364349" data-name="Rectángulo 364349" width="47.851" height="7.85" fill="#e6b046"/>
    </clipPath>
    <clipPath id="clip-path-19">
      <rect id="Rectángulo_364360" data-name="Rectángulo 364360" width="39.935" height="29.954" fill="none"/>
    </clipPath>
    <clipPath id="clip-path-21">
      <rect id="Rectángulo_364362" data-name="Rectángulo 364362" width="13.801" height="4.342" fill="none"/>
    </clipPath>
    <clipPath id="clip-path-22">
      <rect id="Rectángulo_364363" data-name="Rectángulo 364363" width="11.325" height="21.021" fill="none"/>
    </clipPath>
    <clipPath id="clip-path-23">
      <rect id="Rectángulo_364364" data-name="Rectángulo 364364" width="4.215" height="10.199" fill="none"/>
    </clipPath>
  </defs>
  <g id="Grupo_1034050" data-name="Grupo 1034050" transform="translate(-180 -17348.574)">
    <g id="Grupo_1034036" data-name="Grupo 1034036" transform="translate(180 17348.574)">
      <g id="Enmascarar_grupo_1018593" data-name="Enmascarar grupo 1018593" transform="translate(194.676 0)" clip-path="url(#clip-path)">
        <path id="Trazado_151731" data-name="Trazado 151731" d="M93.925,148.3A54.378,54.378,0,1,1,148.3,93.925,54.439,54.439,0,0,1,93.925,148.3m0,39.547A93.925,93.925,0,1,0,0,93.925,93.925,93.925,0,0,0,93.925,187.85Z" transform="translate(4.075 6.711)" fill="#5573c6"/>
      </g>
      <g id="Grupo_1018971" data-name="Grupo 1018971" transform="translate(0 0)">
        <path id="Trazado_145969" data-name="Trazado 145969" d="M55.628,0A55.628,55.628,0,1,1,0,55.628,55.628,55.628,0,0,1,55.628,0Z" transform="translate(0 2.823)" fill="#ffca28" opacity="0.444" style="mix-blend-mode: multiply;isolation: isolate"/>
        <rect id="Rectángulo_34812" data-name="Rectángulo 34812" width="391.942" height="165.087" transform="translate(0)" fill="none"/>
        <path id="Trazado_145971" data-name="Trazado 145971" d="M6.349,0A6.349,6.349,0,1,1,0,6.349,6.349,6.349,0,0,1,6.349,0Z" transform="translate(25.082 139.808)" fill="#31313c" opacity="0.444" style="mix-blend-mode: multiply;isolation: isolate"/>
        <g id="Grupo_80270" data-name="Grupo 80270" transform="translate(267.047 48.706)">
          <path id="Trazado_145968" data-name="Trazado 145968" d="M62.448,0A62.448,62.448,0,1,1,0,62.448,62.448,62.448,0,0,1,62.448,0Z" transform="translate(0)" fill="#31313c" opacity="0.444" style="mix-blend-mode: multiply;isolation: isolate"/>
          <g id="Grupo_78276" data-name="Grupo 78276" transform="translate(24.382 25.816)">
            <g id="Grupo_53306" data-name="Grupo 53306">
              <path id="Trazado_99200" data-name="Trazado 99200" d="M415.91,51.035a.849.849,0,1,1-.849-.811A.83.83,0,0,1,415.91,51.035Z" transform="translate(-414.214 -50.224)" fill="#fff"/>
              <path id="Trazado_99201" data-name="Trazado 99201" d="M424.356,51.035a.849.849,0,1,1-.848-.811A.83.83,0,0,1,424.356,51.035Z" transform="translate(-415.029 -50.224)" fill="#fff"/>
              <path id="Trazado_99202" data-name="Trazado 99202" d="M432.8,51.035a.849.849,0,1,1-.847-.811A.83.83,0,0,1,432.8,51.035Z" transform="translate(-415.843 -50.224)" fill="#fff"/>
              <path id="Trazado_99203" data-name="Trazado 99203" d="M441.249,51.035a.849.849,0,1,1-.848-.811A.83.83,0,0,1,441.249,51.035Z" transform="translate(-416.658 -50.224)" fill="#fff"/>
              <path id="Trazado_99204" data-name="Trazado 99204" d="M449.7,51.035a.849.849,0,1,1-.848-.811A.83.83,0,0,1,449.7,51.035Z" transform="translate(-417.473 -50.224)" fill="#fff"/>
              <path id="Trazado_99205" data-name="Trazado 99205" d="M458.141,51.035a.849.849,0,1,1-.848-.811A.83.83,0,0,1,458.141,51.035Z" transform="translate(-418.287 -50.224)" fill="#fff"/>
              <path id="Trazado_99206" data-name="Trazado 99206" d="M466.588,51.035a.849.849,0,1,1-.848-.811A.831.831,0,0,1,466.588,51.035Z" transform="translate(-419.102 -50.224)" fill="#fff"/>
              <path id="Trazado_99207" data-name="Trazado 99207" d="M475.034,51.035a.849.849,0,1,1-.847-.811A.83.83,0,0,1,475.034,51.035Z" transform="translate(-419.917 -50.224)" fill="#fff"/>
              <path id="Trazado_99208" data-name="Trazado 99208" d="M483.48,51.035a.849.849,0,1,1-.848-.811A.83.83,0,0,1,483.48,51.035Z" transform="translate(-420.731 -50.224)" fill="#fff"/>
              <path id="Trazado_99209" data-name="Trazado 99209" d="M491.927,51.035a.849.849,0,1,1-.848-.811A.831.831,0,0,1,491.927,51.035Z" transform="translate(-421.546 -50.224)" fill="#fff"/>
              <path id="Trazado_99210" data-name="Trazado 99210" d="M500.373,51.035a.849.849,0,1,1-.849-.811A.83.83,0,0,1,500.373,51.035Z" transform="translate(-422.361 -50.224)" fill="#fff"/>
            </g>
            <g id="Grupo_53307" data-name="Grupo 53307" transform="translate(0 6.487)">
              <path id="Trazado_99211" data-name="Trazado 99211" d="M415.91,58.543a.849.849,0,1,1-.849-.811A.83.83,0,0,1,415.91,58.543Z" transform="translate(-414.214 -57.732)" fill="#fff"/>
              <path id="Trazado_99212" data-name="Trazado 99212" d="M424.356,58.543a.849.849,0,1,1-.848-.811A.83.83,0,0,1,424.356,58.543Z" transform="translate(-415.029 -57.732)" fill="#fff"/>
              <path id="Trazado_99213" data-name="Trazado 99213" d="M432.8,58.543a.849.849,0,1,1-.847-.811A.83.83,0,0,1,432.8,58.543Z" transform="translate(-415.843 -57.732)" fill="#fff"/>
              <path id="Trazado_99214" data-name="Trazado 99214" d="M441.249,58.543a.849.849,0,1,1-.848-.811A.83.83,0,0,1,441.249,58.543Z" transform="translate(-416.658 -57.732)" fill="#fff"/>
              <path id="Trazado_99215" data-name="Trazado 99215" d="M449.7,58.543a.849.849,0,1,1-.848-.811A.83.83,0,0,1,449.7,58.543Z" transform="translate(-417.473 -57.732)" fill="#fff"/>
              <path id="Trazado_99216" data-name="Trazado 99216" d="M458.141,58.543a.849.849,0,1,1-.848-.811A.83.83,0,0,1,458.141,58.543Z" transform="translate(-418.287 -57.732)" fill="#fff"/>
              <path id="Trazado_99217" data-name="Trazado 99217" d="M466.588,58.543a.849.849,0,1,1-.848-.811A.831.831,0,0,1,466.588,58.543Z" transform="translate(-419.102 -57.732)" fill="#fff"/>
              <path id="Trazado_99218" data-name="Trazado 99218" d="M475.034,58.543a.849.849,0,1,1-.847-.811A.83.83,0,0,1,475.034,58.543Z" transform="translate(-419.917 -57.732)" fill="#fff"/>
              <path id="Trazado_99219" data-name="Trazado 99219" d="M483.48,58.543a.849.849,0,1,1-.848-.811A.83.83,0,0,1,483.48,58.543Z" transform="translate(-420.731 -57.732)" fill="#fff"/>
              <path id="Trazado_99220" data-name="Trazado 99220" d="M491.927,58.543a.849.849,0,1,1-.848-.811A.831.831,0,0,1,491.927,58.543Z" transform="translate(-421.546 -57.732)" fill="#fff"/>
              <path id="Trazado_99221" data-name="Trazado 99221" d="M500.373,58.543a.849.849,0,1,1-.849-.811A.83.83,0,0,1,500.373,58.543Z" transform="translate(-422.361 -57.732)" fill="#fff"/>
            </g>
            <g id="Grupo_53308" data-name="Grupo 53308" transform="translate(0 12.975)">
              <ellipse id="Elipse_3955" data-name="Elipse 3955" cx="0.848" cy="0.811" rx="0.848" ry="0.811" fill="#fff"/>
              <path id="Trazado_99222" data-name="Trazado 99222" d="M424.356,66.051a.849.849,0,1,1-.848-.811A.83.83,0,0,1,424.356,66.051Z" transform="translate(-415.029 -65.24)" fill="#fff"/>
              <ellipse id="Elipse_3956" data-name="Elipse 3956" cx="0.848" cy="0.811" rx="0.848" ry="0.811" transform="translate(15.263)" fill="#fff"/>
              <path id="Trazado_99223" data-name="Trazado 99223" d="M441.249,66.051a.849.849,0,1,1-.848-.811A.831.831,0,0,1,441.249,66.051Z" transform="translate(-416.658 -65.24)" fill="#fff"/>
              <path id="Trazado_99224" data-name="Trazado 99224" d="M449.7,66.051a.849.849,0,1,1-.848-.811A.831.831,0,0,1,449.7,66.051Z" transform="translate(-417.473 -65.24)" fill="#fff"/>
              <ellipse id="Elipse_3957" data-name="Elipse 3957" cx="0.848" cy="0.811" rx="0.848" ry="0.811" transform="translate(38.158)" fill="#fff"/>
              <path id="Trazado_99225" data-name="Trazado 99225" d="M466.588,66.051a.849.849,0,1,1-.848-.811A.831.831,0,0,1,466.588,66.051Z" transform="translate(-419.102 -65.24)" fill="#fff"/>
              <ellipse id="Elipse_3958" data-name="Elipse 3958" cx="0.848" cy="0.811" rx="0.848" ry="0.811" transform="translate(53.422)" fill="#fff"/>
              <ellipse id="Elipse_3959" data-name="Elipse 3959" cx="0.848" cy="0.811" rx="0.848" ry="0.811" transform="translate(61.053)" fill="#fff"/>
              <path id="Trazado_99226" data-name="Trazado 99226" d="M491.927,66.051a.849.849,0,1,1-.848-.811A.831.831,0,0,1,491.927,66.051Z" transform="translate(-421.546 -65.24)" fill="#fff"/>
              <path id="Trazado_99227" data-name="Trazado 99227" d="M500.373,66.051a.849.849,0,1,1-.849-.811A.831.831,0,0,1,500.373,66.051Z" transform="translate(-422.36 -65.24)" fill="#fff"/>
            </g>
            <g id="Grupo_53309" data-name="Grupo 53309" transform="translate(0 19.462)">
              <ellipse id="Elipse_3960" data-name="Elipse 3960" cx="0.848" cy="0.811" rx="0.848" ry="0.811" transform="translate(0 0)" fill="#fff"/>
              <path id="Trazado_99228" data-name="Trazado 99228" d="M424.356,73.558a.849.849,0,1,1-.848-.811A.83.83,0,0,1,424.356,73.558Z" transform="translate(-415.029 -72.747)" fill="#fff"/>
              <ellipse id="Elipse_3961" data-name="Elipse 3961" cx="0.848" cy="0.811" rx="0.848" ry="0.811" transform="translate(15.263 0)" fill="#fff"/>
              <path id="Trazado_99229" data-name="Trazado 99229" d="M441.249,73.558a.849.849,0,1,1-.848-.811A.83.83,0,0,1,441.249,73.558Z" transform="translate(-416.658 -72.747)" fill="#fff"/>
              <path id="Trazado_99230" data-name="Trazado 99230" d="M449.7,73.558a.849.849,0,1,1-.848-.811A.83.83,0,0,1,449.7,73.558Z" transform="translate(-417.473 -72.747)" fill="#fff"/>
              <ellipse id="Elipse_3962" data-name="Elipse 3962" cx="0.848" cy="0.811" rx="0.848" ry="0.811" transform="translate(38.158 0)" fill="#fff"/>
              <path id="Trazado_99231" data-name="Trazado 99231" d="M466.588,73.558a.849.849,0,1,1-.848-.811A.831.831,0,0,1,466.588,73.558Z" transform="translate(-419.102 -72.747)" fill="#fff"/>
              <ellipse id="Elipse_3963" data-name="Elipse 3963" cx="0.848" cy="0.811" rx="0.848" ry="0.811" transform="translate(53.422 0)" fill="#fff"/>
              <ellipse id="Elipse_3964" data-name="Elipse 3964" cx="0.848" cy="0.811" rx="0.848" ry="0.811" transform="translate(61.053 0)" fill="#fff"/>
              <path id="Trazado_99232" data-name="Trazado 99232" d="M491.927,73.558a.849.849,0,1,1-.848-.811A.83.83,0,0,1,491.927,73.558Z" transform="translate(-421.546 -72.747)" fill="#fff"/>
              <path id="Trazado_99233" data-name="Trazado 99233" d="M500.373,73.558a.849.849,0,1,1-.849-.811A.83.83,0,0,1,500.373,73.558Z" transform="translate(-422.36 -72.747)" fill="#fff"/>
            </g>
            <g id="Grupo_53310" data-name="Grupo 53310" transform="translate(0 25.949)">
              <path id="Trazado_99234" data-name="Trazado 99234" d="M415.91,81.066a.849.849,0,1,1-.849-.811A.83.83,0,0,1,415.91,81.066Z" transform="translate(-414.214 -80.255)" fill="#fff"/>
              <path id="Trazado_99235" data-name="Trazado 99235" d="M424.356,81.066a.849.849,0,1,1-.848-.811A.83.83,0,0,1,424.356,81.066Z" transform="translate(-415.029 -80.255)" fill="#fff"/>
              <path id="Trazado_99236" data-name="Trazado 99236" d="M432.8,81.066a.849.849,0,1,1-.847-.811A.83.83,0,0,1,432.8,81.066Z" transform="translate(-415.843 -80.255)" fill="#fff"/>
              <path id="Trazado_99237" data-name="Trazado 99237" d="M441.249,81.066a.849.849,0,1,1-.848-.811A.83.83,0,0,1,441.249,81.066Z" transform="translate(-416.658 -80.255)" fill="#fff"/>
              <path id="Trazado_99238" data-name="Trazado 99238" d="M449.7,81.066a.849.849,0,1,1-.848-.811A.83.83,0,0,1,449.7,81.066Z" transform="translate(-417.473 -80.255)" fill="#fff"/>
              <path id="Trazado_99239" data-name="Trazado 99239" d="M458.141,81.066a.849.849,0,1,1-.848-.811A.83.83,0,0,1,458.141,81.066Z" transform="translate(-418.287 -80.255)" fill="#fff"/>
              <path id="Trazado_99240" data-name="Trazado 99240" d="M466.588,81.066a.849.849,0,1,1-.848-.811A.831.831,0,0,1,466.588,81.066Z" transform="translate(-419.102 -80.255)" fill="#fff"/>
              <path id="Trazado_99241" data-name="Trazado 99241" d="M475.034,81.066a.849.849,0,1,1-.847-.811A.83.83,0,0,1,475.034,81.066Z" transform="translate(-419.917 -80.255)" fill="#fff"/>
              <path id="Trazado_99242" data-name="Trazado 99242" d="M483.48,81.066a.849.849,0,1,1-.848-.811A.83.83,0,0,1,483.48,81.066Z" transform="translate(-420.731 -80.255)" fill="#fff"/>
              <path id="Trazado_99243" data-name="Trazado 99243" d="M491.927,81.066a.849.849,0,1,1-.848-.811A.83.83,0,0,1,491.927,81.066Z" transform="translate(-421.546 -80.255)" fill="#fff"/>
              <path id="Trazado_99244" data-name="Trazado 99244" d="M500.373,81.066a.849.849,0,1,1-.849-.811A.83.83,0,0,1,500.373,81.066Z" transform="translate(-422.361 -80.255)" fill="#fff"/>
            </g>
            <g id="Grupo_53311" data-name="Grupo 53311" transform="translate(0 32.437)">
              <ellipse id="Elipse_3965" data-name="Elipse 3965" cx="0.848" cy="0.811" rx="0.848" ry="0.811" transform="translate(0 0)" fill="#fff"/>
              <path id="Trazado_99245" data-name="Trazado 99245" d="M424.356,88.574a.849.849,0,1,1-.848-.811A.83.83,0,0,1,424.356,88.574Z" transform="translate(-415.029 -87.763)" fill="#fff"/>
              <ellipse id="Elipse_3966" data-name="Elipse 3966" cx="0.848" cy="0.811" rx="0.848" ry="0.811" transform="translate(15.263 0)" fill="#fff"/>
              <path id="Trazado_99246" data-name="Trazado 99246" d="M441.249,88.574a.849.849,0,1,1-.848-.811A.83.83,0,0,1,441.249,88.574Z" transform="translate(-416.658 -87.763)" fill="#fff"/>
              <path id="Trazado_99247" data-name="Trazado 99247" d="M449.7,88.574a.849.849,0,1,1-.848-.811A.83.83,0,0,1,449.7,88.574Z" transform="translate(-417.473 -87.763)" fill="#fff"/>
              <ellipse id="Elipse_3967" data-name="Elipse 3967" cx="0.848" cy="0.811" rx="0.848" ry="0.811" transform="translate(38.158 0)" fill="#fff"/>
              <path id="Trazado_99248" data-name="Trazado 99248" d="M466.588,88.574a.849.849,0,1,1-.848-.811A.831.831,0,0,1,466.588,88.574Z" transform="translate(-419.102 -87.763)" fill="#fff"/>
              <ellipse id="Elipse_3968" data-name="Elipse 3968" cx="0.848" cy="0.811" rx="0.848" ry="0.811" transform="translate(53.422 0)" fill="#fff"/>
              <ellipse id="Elipse_3969" data-name="Elipse 3969" cx="0.848" cy="0.811" rx="0.848" ry="0.811" transform="translate(61.053 0)" fill="#fff"/>
              <path id="Trazado_99249" data-name="Trazado 99249" d="M491.927,88.574a.849.849,0,1,1-.848-.811A.83.83,0,0,1,491.927,88.574Z" transform="translate(-421.546 -87.763)" fill="#fff"/>
              <path id="Trazado_99250" data-name="Trazado 99250" d="M500.373,88.574a.849.849,0,1,1-.849-.811A.83.83,0,0,1,500.373,88.574Z" transform="translate(-422.36 -87.763)" fill="#fff"/>
            </g>
            <g id="Grupo_53312" data-name="Grupo 53312" transform="translate(0 38.924)">
              <ellipse id="Elipse_3970" data-name="Elipse 3970" cx="0.848" cy="0.811" rx="0.848" ry="0.811" fill="#fff"/>
              <path id="Trazado_99251" data-name="Trazado 99251" d="M424.356,96.082a.849.849,0,1,1-.848-.811A.83.83,0,0,1,424.356,96.082Z" transform="translate(-415.029 -95.271)" fill="#fff"/>
              <ellipse id="Elipse_3971" data-name="Elipse 3971" cx="0.848" cy="0.811" rx="0.848" ry="0.811" transform="translate(15.263)" fill="#fff"/>
              <path id="Trazado_99252" data-name="Trazado 99252" d="M441.249,96.082a.849.849,0,1,1-.848-.811A.83.83,0,0,1,441.249,96.082Z" transform="translate(-416.658 -95.271)" fill="#fff"/>
              <path id="Trazado_99253" data-name="Trazado 99253" d="M449.7,96.082a.849.849,0,1,1-.848-.811A.83.83,0,0,1,449.7,96.082Z" transform="translate(-417.473 -95.271)" fill="#fff"/>
              <ellipse id="Elipse_3972" data-name="Elipse 3972" cx="0.848" cy="0.811" rx="0.848" ry="0.811" transform="translate(38.158)" fill="#fff"/>
              <path id="Trazado_99254" data-name="Trazado 99254" d="M466.588,96.082a.849.849,0,1,1-.848-.811A.831.831,0,0,1,466.588,96.082Z" transform="translate(-419.102 -95.271)" fill="#fff"/>
              <ellipse id="Elipse_3973" data-name="Elipse 3973" cx="0.848" cy="0.811" rx="0.848" ry="0.811" transform="translate(53.422)" fill="#fff"/>
              <ellipse id="Elipse_3974" data-name="Elipse 3974" cx="0.848" cy="0.811" rx="0.848" ry="0.811" transform="translate(61.053)" fill="#fff"/>
              <path id="Trazado_99255" data-name="Trazado 99255" d="M491.927,96.082a.849.849,0,1,1-.848-.811A.831.831,0,0,1,491.927,96.082Z" transform="translate(-421.546 -95.271)" fill="#fff"/>
              <path id="Trazado_99256" data-name="Trazado 99256" d="M500.373,96.082a.849.849,0,1,1-.849-.811A.83.83,0,0,1,500.373,96.082Z" transform="translate(-422.36 -95.271)" fill="#fff"/>
            </g>
            <g id="Grupo_53313" data-name="Grupo 53313" transform="translate(0 45.412)">
              <path id="Trazado_99257" data-name="Trazado 99257" d="M415.91,103.59a.849.849,0,1,1-.849-.81A.83.83,0,0,1,415.91,103.59Z" transform="translate(-414.214 -102.779)" fill="#fff"/>
              <path id="Trazado_99258" data-name="Trazado 99258" d="M424.356,103.59a.849.849,0,1,1-.848-.81A.83.83,0,0,1,424.356,103.59Z" transform="translate(-415.029 -102.779)" fill="#fff"/>
              <path id="Trazado_99259" data-name="Trazado 99259" d="M432.8,103.59a.849.849,0,1,1-.847-.81A.83.83,0,0,1,432.8,103.59Z" transform="translate(-415.843 -102.779)" fill="#fff"/>
              <path id="Trazado_99260" data-name="Trazado 99260" d="M441.249,103.59a.849.849,0,1,1-.848-.81A.83.83,0,0,1,441.249,103.59Z" transform="translate(-416.658 -102.779)" fill="#fff"/>
              <path id="Trazado_99261" data-name="Trazado 99261" d="M449.7,103.59a.849.849,0,1,1-.848-.81A.83.83,0,0,1,449.7,103.59Z" transform="translate(-417.473 -102.779)" fill="#fff"/>
              <path id="Trazado_99262" data-name="Trazado 99262" d="M458.141,103.59a.849.849,0,1,1-.848-.81A.83.83,0,0,1,458.141,103.59Z" transform="translate(-418.287 -102.779)" fill="#fff"/>
              <path id="Trazado_99263" data-name="Trazado 99263" d="M466.588,103.59a.849.849,0,1,1-.848-.81A.831.831,0,0,1,466.588,103.59Z" transform="translate(-419.102 -102.779)" fill="#fff"/>
              <path id="Trazado_99264" data-name="Trazado 99264" d="M475.034,103.59a.849.849,0,1,1-.847-.81A.83.83,0,0,1,475.034,103.59Z" transform="translate(-419.917 -102.779)" fill="#fff"/>
              <path id="Trazado_99265" data-name="Trazado 99265" d="M483.48,103.59a.849.849,0,1,1-.848-.81A.83.83,0,0,1,483.48,103.59Z" transform="translate(-420.731 -102.779)" fill="#fff"/>
              <path id="Trazado_99266" data-name="Trazado 99266" d="M491.927,103.59a.849.849,0,1,1-.848-.81A.831.831,0,0,1,491.927,103.59Z" transform="translate(-421.546 -102.779)" fill="#fff"/>
              <path id="Trazado_99267" data-name="Trazado 99267" d="M500.373,103.59a.849.849,0,1,1-.849-.81A.83.83,0,0,1,500.373,103.59Z" transform="translate(-422.361 -102.779)" fill="#fff"/>
            </g>
            <g id="Grupo_53314" data-name="Grupo 53314" transform="translate(0 51.899)">
              <ellipse id="Elipse_3975" data-name="Elipse 3975" cx="0.848" cy="0.811" rx="0.848" ry="0.811" fill="#fff"/>
              <path id="Trazado_99268" data-name="Trazado 99268" d="M424.356,111.1a.849.849,0,1,1-.848-.811A.83.83,0,0,1,424.356,111.1Z" transform="translate(-415.029 -110.287)" fill="#fff"/>
              <ellipse id="Elipse_3976" data-name="Elipse 3976" cx="0.848" cy="0.811" rx="0.848" ry="0.811" transform="translate(15.263)" fill="#fff"/>
              <path id="Trazado_99269" data-name="Trazado 99269" d="M441.249,111.1a.849.849,0,1,1-.848-.811A.831.831,0,0,1,441.249,111.1Z" transform="translate(-416.658 -110.287)" fill="#fff"/>
              <path id="Trazado_99270" data-name="Trazado 99270" d="M449.7,111.1a.849.849,0,1,1-.848-.811A.831.831,0,0,1,449.7,111.1Z" transform="translate(-417.473 -110.287)" fill="#fff"/>
              <ellipse id="Elipse_3977" data-name="Elipse 3977" cx="0.848" cy="0.811" rx="0.848" ry="0.811" transform="translate(38.158)" fill="#fff"/>
              <path id="Trazado_99271" data-name="Trazado 99271" d="M466.588,111.1a.849.849,0,1,1-.848-.811A.831.831,0,0,1,466.588,111.1Z" transform="translate(-419.102 -110.287)" fill="#fff"/>
              <ellipse id="Elipse_3978" data-name="Elipse 3978" cx="0.848" cy="0.811" rx="0.848" ry="0.811" transform="translate(53.422)" fill="#fff"/>
              <ellipse id="Elipse_3979" data-name="Elipse 3979" cx="0.848" cy="0.811" rx="0.848" ry="0.811" transform="translate(61.053)" fill="#fff"/>
              <path id="Trazado_99272" data-name="Trazado 99272" d="M491.927,111.1a.849.849,0,1,1-.848-.811A.831.831,0,0,1,491.927,111.1Z" transform="translate(-421.546 -110.287)" fill="#fff"/>
              <path id="Trazado_99273" data-name="Trazado 99273" d="M500.373,111.1a.849.849,0,1,1-.849-.811A.831.831,0,0,1,500.373,111.1Z" transform="translate(-422.36 -110.287)" fill="#fff"/>
            </g>
            <g id="Grupo_53315" data-name="Grupo 53315" transform="translate(0 58.386)">
              <path id="Trazado_99274" data-name="Trazado 99274" d="M415.91,118.605a.849.849,0,1,1-.849-.811A.831.831,0,0,1,415.91,118.605Z" transform="translate(-414.214 -117.794)" fill="#fff"/>
              <path id="Trazado_99275" data-name="Trazado 99275" d="M424.356,118.605a.849.849,0,1,1-.848-.811A.83.83,0,0,1,424.356,118.605Z" transform="translate(-415.029 -117.794)" fill="#fff"/>
              <path id="Trazado_99276" data-name="Trazado 99276" d="M432.8,118.605a.849.849,0,1,1-.847-.811A.83.83,0,0,1,432.8,118.605Z" transform="translate(-415.843 -117.794)" fill="#fff"/>
              <path id="Trazado_99277" data-name="Trazado 99277" d="M441.249,118.605a.849.849,0,1,1-.848-.811A.831.831,0,0,1,441.249,118.605Z" transform="translate(-416.658 -117.794)" fill="#fff"/>
              <path id="Trazado_99278" data-name="Trazado 99278" d="M449.7,118.605a.849.849,0,1,1-.848-.811A.831.831,0,0,1,449.7,118.605Z" transform="translate(-417.473 -117.794)" fill="#fff"/>
              <path id="Trazado_99279" data-name="Trazado 99279" d="M458.141,118.605a.849.849,0,1,1-.848-.811A.83.83,0,0,1,458.141,118.605Z" transform="translate(-418.287 -117.794)" fill="#fff"/>
              <path id="Trazado_99280" data-name="Trazado 99280" d="M466.588,118.605a.849.849,0,1,1-.848-.811A.831.831,0,0,1,466.588,118.605Z" transform="translate(-419.102 -117.794)" fill="#fff"/>
              <path id="Trazado_99281" data-name="Trazado 99281" d="M475.034,118.605a.849.849,0,1,1-.847-.811A.83.83,0,0,1,475.034,118.605Z" transform="translate(-419.917 -117.794)" fill="#fff"/>
              <path id="Trazado_99282" data-name="Trazado 99282" d="M483.48,118.605a.849.849,0,1,1-.848-.811A.83.83,0,0,1,483.48,118.605Z" transform="translate(-420.731 -117.794)" fill="#fff"/>
              <path id="Trazado_99283" data-name="Trazado 99283" d="M491.927,118.605a.849.849,0,1,1-.848-.811A.831.831,0,0,1,491.927,118.605Z" transform="translate(-421.546 -117.794)" fill="#fff"/>
              <path id="Trazado_99284" data-name="Trazado 99284" d="M500.373,118.605a.849.849,0,1,1-.849-.811A.831.831,0,0,1,500.373,118.605Z" transform="translate(-422.361 -117.794)" fill="#fff"/>
            </g>
            <g id="Grupo_53316" data-name="Grupo 53316" transform="translate(0 64.874)">
              <ellipse id="Elipse_3980" data-name="Elipse 3980" cx="0.848" cy="0.811" rx="0.848" ry="0.811" transform="translate(0 0)" fill="#fff"/>
              <path id="Trazado_99285" data-name="Trazado 99285" d="M424.356,126.113a.849.849,0,1,1-.848-.811A.83.83,0,0,1,424.356,126.113Z" transform="translate(-415.029 -125.302)" fill="#fff"/>
              <ellipse id="Elipse_3981" data-name="Elipse 3981" cx="0.848" cy="0.811" rx="0.848" ry="0.811" transform="translate(15.263 0)" fill="#fff"/>
              <path id="Trazado_99286" data-name="Trazado 99286" d="M441.249,126.113a.849.849,0,1,1-.848-.811A.83.83,0,0,1,441.249,126.113Z" transform="translate(-416.658 -125.302)" fill="#fff"/>
              <path id="Trazado_99287" data-name="Trazado 99287" d="M449.7,126.113a.849.849,0,1,1-.848-.811A.83.83,0,0,1,449.7,126.113Z" transform="translate(-417.473 -125.302)" fill="#fff"/>
              <ellipse id="Elipse_3982" data-name="Elipse 3982" cx="0.848" cy="0.811" rx="0.848" ry="0.811" transform="translate(38.158 0)" fill="#fff"/>
              <path id="Trazado_99288" data-name="Trazado 99288" d="M466.588,126.113a.849.849,0,1,1-.848-.811A.831.831,0,0,1,466.588,126.113Z" transform="translate(-419.102 -125.302)" fill="#fff"/>
              <ellipse id="Elipse_3983" data-name="Elipse 3983" cx="0.848" cy="0.811" rx="0.848" ry="0.811" transform="translate(53.422 0)" fill="#fff"/>
              <ellipse id="Elipse_3984" data-name="Elipse 3984" cx="0.848" cy="0.811" rx="0.848" ry="0.811" transform="translate(61.053 0)" fill="#fff"/>
              <path id="Trazado_99289" data-name="Trazado 99289" d="M491.927,126.113a.849.849,0,1,1-.848-.811A.831.831,0,0,1,491.927,126.113Z" transform="translate(-421.546 -125.302)" fill="#fff"/>
              <path id="Trazado_99290" data-name="Trazado 99290" d="M500.373,126.113a.849.849,0,1,1-.849-.811A.83.83,0,0,1,500.373,126.113Z" transform="translate(-422.36 -125.302)" fill="#fff"/>
            </g>
            <g id="Grupo_53317" data-name="Grupo 53317" transform="translate(0 71.362)">
              <ellipse id="Elipse_3985" data-name="Elipse 3985" cx="0.848" cy="0.811" rx="0.848" ry="0.811" transform="translate(0 0)" fill="#fff"/>
              <path id="Trazado_99291" data-name="Trazado 99291" d="M424.356,133.621a.849.849,0,1,1-.848-.811A.83.83,0,0,1,424.356,133.621Z" transform="translate(-415.029 -132.81)" fill="#fff"/>
              <ellipse id="Elipse_3986" data-name="Elipse 3986" cx="0.848" cy="0.811" rx="0.848" ry="0.811" transform="translate(15.263 0)" fill="#fff"/>
              <path id="Trazado_99292" data-name="Trazado 99292" d="M441.249,133.621a.849.849,0,1,1-.848-.811A.83.83,0,0,1,441.249,133.621Z" transform="translate(-416.658 -132.81)" fill="#fff"/>
              <path id="Trazado_99293" data-name="Trazado 99293" d="M449.7,133.621a.849.849,0,1,1-.848-.811A.83.83,0,0,1,449.7,133.621Z" transform="translate(-417.473 -132.81)" fill="#fff"/>
              <ellipse id="Elipse_3987" data-name="Elipse 3987" cx="0.848" cy="0.811" rx="0.848" ry="0.811" transform="translate(38.158 0)" fill="#fff"/>
              <path id="Trazado_99294" data-name="Trazado 99294" d="M466.588,133.621a.849.849,0,1,1-.848-.811A.831.831,0,0,1,466.588,133.621Z" transform="translate(-419.102 -132.81)" fill="#fff"/>
              <ellipse id="Elipse_3988" data-name="Elipse 3988" cx="0.848" cy="0.811" rx="0.848" ry="0.811" transform="translate(53.422 0)" fill="#fff"/>
              <ellipse id="Elipse_3989" data-name="Elipse 3989" cx="0.848" cy="0.811" rx="0.848" ry="0.811" transform="translate(61.053 0)" fill="#fff"/>
              <path id="Trazado_99295" data-name="Trazado 99295" d="M491.927,133.621a.849.849,0,1,1-.848-.811A.83.83,0,0,1,491.927,133.621Z" transform="translate(-421.546 -132.81)" fill="#fff"/>
              <path id="Trazado_99296" data-name="Trazado 99296" d="M500.373,133.621a.849.849,0,1,1-.849-.811A.83.83,0,0,1,500.373,133.621Z" transform="translate(-422.36 -132.81)" fill="#fff"/>
            </g>
          </g>
        </g>
        <line id="Línea_138" data-name="Línea 138" y2="118.553" transform="translate(13.619 28.536)" fill="none" stroke="#31313c" stroke-linecap="round" stroke-width="4" stroke-dasharray="8"/>
      </g>
    </g>
    <g id="Grupo_1034037" data-name="Grupo 1034037" transform="translate(0 2)">
      <g id="Grupo_1031714" data-name="Grupo 1031714" transform="translate(180 17391)">
        <g id="Grupo_1031713" data-name="Grupo 1031713" clip-path="url(#clip-path-2)">
          <path id="Trazado_772715" data-name="Trazado 772715" d="M213.942,135.962l-62.363,13.116-6.771-43.59L207.171,92.37Z" transform="translate(148.576 94.774)" fill="#c7c7c7"/>
          <path id="Trazado_772716" data-name="Trazado 772716" d="M166.5,94.329l-22.035,4.636.7,4.514,23.3-4.9Z" transform="translate(148.222 96.784)" fill="#c7c7c7"/>
          <path id="Trazado_772717" data-name="Trazado 772717" d="M157.029,119.959,221.254,131.8l8.438-42.19L165.468,77.769Z" transform="translate(161.116 79.793)" fill="#ebebeb"/>
          <path id="Trazado_772718" data-name="Trazado 772718" d="M217.5,127.1,158.6,116.243,166,79.309l58.893,10.857Z" transform="translate(162.732 81.373)" fill="#fff"/>
          <g id="Grupo_1031654" data-name="Grupo 1031654">
            <g id="Grupo_1031653" data-name="Grupo 1031653" clip-path="url(#clip-path-2)">
              <path id="Trazado_772719" data-name="Trazado 772719" d="M194.1,93.707a6.575,6.575,0,0,1-7.658,5.114,6.355,6.355,0,0,1-5.156-7.474,6.577,6.577,0,0,1,7.658-5.116,6.359,6.359,0,0,1,5.156,7.476" transform="translate(185.878 88.362)" fill="#dbdbdb"/>
              <path id="Trazado_772720" data-name="Trazado 772720" d="M199.184,116.834l-40.567-7.48,25.654-23.269Z" transform="translate(162.746 88.326)" fill="#ebebeb"/>
              <path id="Trazado_772721" data-name="Trazado 772721" d="M203.449,113.186l-33.492-6.175,20.244-14.5Z" transform="translate(174.381 94.918)" fill="#dbdbdb"/>
              <path id="Trazado_772722" data-name="Trazado 772722" d="M217.248,133.927l-62.363,13.117L141.539,107.48,203.9,94.363Z" transform="translate(145.223 96.819)" fill="#dbdbdb"/>
              <path id="Trazado_772723" data-name="Trazado 772723" d="M162.892,96.527l-22.035,4.636,1.382,4.1,23.3-4.9Z" transform="translate(144.523 99.04)" fill="#dbdbdb"/>
              <path id="Trazado_772724" data-name="Trazado 772724" d="M58.109,61.6,9.464,68.974,0,6.528,36.118,1.054l14.33,10Z" transform="translate(0 1.081)" fill="#ebebeb"/>
              <path id="Trazado_772725" data-name="Trazado 772725" d="M17.827,1.054l14.33,10-12.527,1.9Z" transform="translate(18.292 1.082)" fill="#dbdbdb"/>
              <rect id="Rectángulo_364299" data-name="Rectángulo 364299" width="27.354" height="1.622" transform="translate(6.334 17.368) rotate(-8.617)" fill="#dbdbdb"/>
              <rect id="Rectángulo_364300" data-name="Rectángulo 364300" width="27.354" height="1.622" transform="translate(6.947 21.415) rotate(-8.617)" fill="#dbdbdb"/>
              <rect id="Rectángulo_364301" data-name="Rectángulo 364301" width="27.354" height="1.622" transform="translate(7.56 25.463) rotate(-8.617)" fill="#dbdbdb"/>
              <rect id="Rectángulo_364302" data-name="Rectángulo 364302" width="40.08" height="1.621" transform="translate(8.174 29.51) rotate(-8.617)" fill="#dbdbdb"/>
              <rect id="Rectángulo_364303" data-name="Rectángulo 364303" width="40.08" height="1.622" transform="translate(8.787 33.557) rotate(-8.617)" fill="#dbdbdb"/>
              <rect id="Rectángulo_364304" data-name="Rectángulo 364304" width="40.08" height="1.621" transform="translate(9.401 37.605) rotate(-8.617)" fill="#dbdbdb"/>
              <rect id="Rectángulo_364305" data-name="Rectángulo 364305" width="40.08" height="1.622" transform="translate(10.014 41.652) rotate(-8.617)" fill="#dbdbdb"/>
              <rect id="Rectángulo_364306" data-name="Rectángulo 364306" width="40.08" height="1.621" transform="translate(10.627 45.699) rotate(-8.617)" fill="#dbdbdb"/>
              <rect id="Rectángulo_364307" data-name="Rectángulo 364307" width="40.08" height="1.622" transform="translate(11.241 49.746) rotate(-8.617)" fill="#dbdbdb"/>
              <rect id="Rectángulo_364308" data-name="Rectángulo 364308" width="40.08" height="1.621" transform="translate(11.854 53.794) rotate(-8.617)" fill="#dbdbdb"/>
              <rect id="Rectángulo_364309" data-name="Rectángulo 364309" width="40.08" height="1.622" transform="translate(12.467 57.841) rotate(-8.617)" fill="#dbdbdb"/>
              <rect id="Rectángulo_364310" data-name="Rectángulo 364310" width="40.08" height="1.621" transform="translate(13.081 61.888) rotate(-8.617)" fill="#dbdbdb"/>
            </g>
          </g>
          <path id="Trazado_772726" data-name="Trazado 772726" d="M97.652,124.165l-46.931.055-46.931.146,46.931.148,46.931.053,93.862.1,93.866-.1,46.931-.053,46.931-.148-46.931-.148-46.931-.053-93.866-.1Z" transform="translate(3.889 127.295)" fill="#373f51"/>
          <rect id="Rectángulo_364312" data-name="Rectángulo 364312" width="106.841" height="8.929" transform="translate(86.898 243.034)" fill="#c7c7c7"/>
          <path id="Trazado_772727" data-name="Trazado 772727" d="M130.568,136.978H49.17l2.069-15.5.1-.731.19-1.453.1-.731.2-1.455.028-.225.067-.5.2-1.455.1-.729,1.447-10.827h72.414l1.366,10.213.069.49.225,1.694.061.49.089.628.144,1.066.061.49.225,1.7.069.486Z" transform="translate(50.45 106.063)" fill="#dbdbdb"/>
          <path id="Trazado_772728" data-name="Trazado 772728" d="M126.343,116.888,50.673,114.2l1.447-10.825h72.414Z" transform="translate(51.992 106.063)" fill="#c7c7c7"/>
          <rect id="Rectángulo_364313" data-name="Rectángulo 364313" width="268.11" height="186.411" transform="translate(9.281 28.642)" fill="#2e3747"/>
          <rect id="Rectángulo_364314" data-name="Rectángulo 364314" width="268.11" height="27.497" transform="translate(9.281 187.555)" fill="#dbdbdb"/>
          <g id="Grupo_1031668" data-name="Grupo 1031668">
            <g id="Grupo_1031667" data-name="Grupo 1031667" clip-path="url(#clip-path-2)">
              <path id="Trazado_772729" data-name="Trazado 772729" d="M76.06,100.747A4.541,4.541,0,1,1,71.517,96.2a4.543,4.543,0,0,1,4.542,4.542" transform="translate(68.72 98.709)" fill="#4adbd1"/>
              <rect id="Rectángulo_364315" data-name="Rectángulo 364315" width="242.809" height="133.862" transform="translate(21.932 40.764)" fill="#fff"/>
              <rect id="Rectángulo_364316" data-name="Rectángulo 364316" width="242.809" height="133.862" transform="translate(21.932 40.764)" fill="#fff"/>
              <rect id="Rectángulo_364317" data-name="Rectángulo 364317" width="242.809" height="6.058" transform="translate(21.932 40.762)" fill="#5573c6"/>
              <path id="Trazado_772730" data-name="Trazado 772730" d="M14.058,22.133a1.024,1.024,0,1,1-1.025-1.025,1.025,1.025,0,0,1,1.025,1.025" transform="translate(12.323 21.657)" fill="#c7c7c7"/>
              <path id="Trazado_772731" data-name="Trazado 772731" d="M16.122,22.133A1.024,1.024,0,1,1,15.1,21.108a1.025,1.025,0,0,1,1.025,1.025" transform="translate(14.44 21.657)" fill="#fff"/>
              <path id="Trazado_772732" data-name="Trazado 772732" d="M18.187,22.133a1.024,1.024,0,1,1-1.025-1.025,1.025,1.025,0,0,1,1.025,1.025" transform="translate(16.559 21.657)" fill="#e6b046"/>
              <rect id="Rectángulo_364318" data-name="Rectángulo 364318" width="4.415" height="127.804" transform="translate(260.326 46.822)" fill="#dbdbdb"/>
              <path id="Trazado_772733" data-name="Trazado 772733" d="M130.157,75.139h0A1.14,1.14,0,0,1,129.016,74V24.687a1.141,1.141,0,0,1,2.281,0V74a1.14,1.14,0,0,1-1.141,1.141" transform="translate(132.374 24.159)" fill="#a6a6a6"/>
              <rect id="Rectángulo_364319" data-name="Rectángulo 364319" width="39.445" height="28.593" transform="translate(36.967 62.797)" fill="#e6b046"/>
              <path id="Trazado_772734" data-name="Trazado 772734" d="M32.183,29.534H18.246V32.5H32.983Z" transform="translate(18.721 30.302)" fill="#e6b046"/>
              <rect id="Rectángulo_364320" data-name="Rectángulo 364320" width="11.398" height="1.722" transform="translate(38.334 60.994)" fill="#fff"/>
              <path id="Trazado_772735" data-name="Trazado 772735" d="M57.837,58.691H18.392L18.1,31.87H57.551Z" transform="translate(18.575 32.7)" fill="#e6b046"/>
              <g id="Grupo_1031657" data-name="Grupo 1031657" transform="translate(36.68 64.57)" opacity="0.4">
                <g id="Grupo_1031656" data-name="Grupo 1031656">
                  <g id="Grupo_1031655" data-name="Grupo 1031655" clip-path="url(#clip-path-5)">
                    <path id="Trazado_772736" data-name="Trazado 772736" d="M57.837,58.691H18.392L18.1,31.87H57.551Z" transform="translate(-18.105 -31.871)" fill="#fff"/>
                  </g>
                </g>
              </g>
              <path id="Trazado_772737" data-name="Trazado 772737" d="M32.027,30.53H18.09l.03,2.715H32.858Z" transform="translate(18.561 31.325)" fill="#e6b046"/>
              <g id="Grupo_1031660" data-name="Grupo 1031660" transform="translate(36.651 61.855)" opacity="0.4">
                <g id="Grupo_1031659" data-name="Grupo 1031659">
                  <g id="Grupo_1031658" data-name="Grupo 1031658" clip-path="url(#clip-path-6)">
                    <path id="Trazado_772738" data-name="Trazado 772738" d="M32.027,30.53H18.09l.03,2.715H32.858Z" transform="translate(-18.09 -30.53)" fill="#fff"/>
                  </g>
                </g>
              </g>
              <rect id="Rectángulo_364323" data-name="Rectángulo 364323" width="39.445" height="28.593" transform="translate(92.946 62.797)" fill="#4adbd1"/>
              <path id="Trazado_772739" data-name="Trazado 772739" d="M59.813,29.534H45.876V32.5H60.613Z" transform="translate(47.07 30.302)" fill="#4adbd1"/>
              <rect id="Rectángulo_364324" data-name="Rectángulo 364324" width="11.398" height="1.722" transform="translate(94.314 60.994)" fill="#fff"/>
              <path id="Trazado_772740" data-name="Trazado 772740" d="M85.467,58.691H46.022L45.734,31.87H85.181Z" transform="translate(46.924 32.7)" fill="#5573c6"/>
              <path id="Trazado_772741" data-name="Trazado 772741" d="M59.657,30.53H45.72l.03,2.715H60.488Z" transform="translate(46.91 31.325)" fill="#5573c6"/>
              <rect id="Rectángulo_364325" data-name="Rectángulo 364325" width="39.445" height="28.593" transform="translate(204.904 62.797)" fill="#4adbd1"/>
              <path id="Trazado_772742" data-name="Trazado 772742" d="M115.073,29.534H101.136V32.5h14.737Z" transform="translate(103.768 30.302)" fill="#4adbd1"/>
              <rect id="Rectángulo_364326" data-name="Rectángulo 364326" width="11.398" height="1.722" transform="translate(206.272 60.994)" fill="#fff"/>
              <path id="Trazado_772743" data-name="Trazado 772743" d="M140.726,58.691H101.281l-.288-26.821h39.447Z" transform="translate(103.622 32.7)" fill="#5573c6"/>
              <path id="Trazado_772744" data-name="Trazado 772744" d="M114.917,30.53H100.98l.03,2.715h14.737Z" transform="translate(103.608 31.325)" fill="#5573c6"/>
              <rect id="Rectángulo_364327" data-name="Rectángulo 364327" width="39.445" height="28.593" transform="translate(36.967 104.263)" fill="#4adbd1"/>
              <path id="Trazado_772745" data-name="Trazado 772745" d="M32.183,50H18.246v2.962H32.983Z" transform="translate(18.721 51.302)" fill="#4adbd1"/>
              <rect id="Rectángulo_364328" data-name="Rectángulo 364328" width="11.398" height="1.722" transform="translate(38.334 102.46)" fill="#fff"/>
              <path id="Trazado_772746" data-name="Trazado 772746" d="M57.837,79.157H18.392L18.1,52.337H57.551Z" transform="translate(18.575 53.699)" fill="#5573c6"/>
              <path id="Trazado_772747" data-name="Trazado 772747" d="M32.027,51H18.09l.03,2.715H32.858Z" transform="translate(18.561 52.324)" fill="#5573c6"/>
              <rect id="Rectángulo_364329" data-name="Rectángulo 364329" width="39.445" height="28.593" transform="translate(148.925 104.263)" fill="#4adbd1"/>
              <path id="Trazado_772748" data-name="Trazado 772748" d="M87.443,50H73.506v2.962H88.243Z" transform="translate(75.419 51.302)" fill="#4adbd1"/>
              <rect id="Rectángulo_364330" data-name="Rectángulo 364330" width="11.398" height="1.722" transform="translate(150.293 102.46)" fill="#fff"/>
              <path id="Trazado_772749" data-name="Trazado 772749" d="M113.1,79.157H73.652l-.288-26.821h39.447Z" transform="translate(75.274 53.699)" fill="#5573c6"/>
              <path id="Trazado_772750" data-name="Trazado 772750" d="M87.287,51H73.35l.03,2.715H88.117Z" transform="translate(75.259 52.324)" fill="#5573c6"/>
              <rect id="Rectángulo_364331" data-name="Rectángulo 364331" width="39.445" height="28.593" transform="translate(92.946 104.263)" fill="#e6b046"/>
              <path id="Trazado_772751" data-name="Trazado 772751" d="M59.813,50H45.876v2.962H60.613Z" transform="translate(47.07 51.302)" fill="#e6b046"/>
              <rect id="Rectángulo_364332" data-name="Rectángulo 364332" width="11.398" height="1.722" transform="translate(94.314 102.46)" fill="#fff"/>
              <path id="Trazado_772752" data-name="Trazado 772752" d="M85.467,79.157H46.022l-.288-26.821H85.181Z" transform="translate(46.924 53.699)" fill="#e6b046"/>
              <g id="Grupo_1031663" data-name="Grupo 1031663" transform="translate(92.659 106.036)" opacity="0.4">
                <g id="Grupo_1031662" data-name="Grupo 1031662">
                  <g id="Grupo_1031661" data-name="Grupo 1031661" clip-path="url(#clip-path-5)">
                    <path id="Trazado_772753" data-name="Trazado 772753" d="M85.467,79.157H46.022l-.288-26.821H85.181Z" transform="translate(-45.735 -52.337)" fill="#fff"/>
                  </g>
                </g>
              </g>
              <path id="Trazado_772754" data-name="Trazado 772754" d="M59.657,51H45.72l.03,2.715H60.488Z" transform="translate(46.91 52.324)" fill="#e6b046"/>
              <g id="Grupo_1031666" data-name="Grupo 1031666" transform="translate(92.63 103.321)" opacity="0.4">
                <g id="Grupo_1031665" data-name="Grupo 1031665">
                  <g id="Grupo_1031664" data-name="Grupo 1031664" clip-path="url(#clip-path-8)">
                    <path id="Trazado_772755" data-name="Trazado 772755" d="M59.657,51H45.72l.03,2.715H60.488Z" transform="translate(-45.72 -50.997)" fill="#fff"/>
                  </g>
                </g>
              </g>
              <rect id="Rectángulo_364335" data-name="Rectángulo 364335" width="2.417" height="12.403" transform="translate(167.281 69.412)" fill="#c7c7c7"/>
              <rect id="Rectángulo_364336" data-name="Rectángulo 364336" width="12.403" height="2.417" transform="translate(162.289 74.404)" fill="#c7c7c7"/>
              <path id="Trazado_772756" data-name="Trazado 772756" d="M92.413,44.169v1.21H91.2" transform="translate(93.577 45.319)" fill="none" stroke="#c7c7c7" stroke-miterlimit="10" stroke-width="0.149"/>
              <line id="Línea_3528" data-name="Línea 3528" x1="28.824" transform="translate(153.45 90.696)" fill="none" stroke="#c7c7c7" stroke-miterlimit="10" stroke-width="0.149" stroke-dasharray="1.237 1.237"/>
              <path id="Trazado_772757" data-name="Trazado 772757" d="M75.734,45.378h-1.21v-1.21" transform="translate(76.464 45.318)" fill="none" stroke="#c7c7c7" stroke-miterlimit="10" stroke-width="0.149"/>
              <line id="Línea_3529" data-name="Línea 3529" y1="23.964" transform="translate(150.988 63.001)" fill="none" stroke="#c7c7c7" stroke-miterlimit="10" stroke-width="0.149" stroke-dasharray="1.245 1.245"/>
              <path id="Trazado_772758" data-name="Trazado 772758" d="M74.524,31.086v-1.21h1.21" transform="translate(76.464 30.654)" fill="none" stroke="#c7c7c7" stroke-miterlimit="10" stroke-width="0.149"/>
              <line id="Línea_3530" data-name="Línea 3530" x2="28.824" transform="translate(154.704 60.53)" fill="none" stroke="#c7c7c7" stroke-miterlimit="10" stroke-width="0.149" stroke-dasharray="1.237 1.237"/>
              <path id="Trazado_772759" data-name="Trazado 772759" d="M91.2,29.876h1.21v1.21" transform="translate(93.578 30.654)" fill="none" stroke="#c7c7c7" stroke-miterlimit="10" stroke-width="0.149"/>
              <line id="Línea_3531" data-name="Línea 3531" y2="23.964" transform="translate(185.99 64.262)" fill="none" stroke="#c7c7c7" stroke-miterlimit="10" stroke-width="0.149" stroke-dasharray="1.245 1.245"/>
            </g>
          </g>
          <path id="Trazado_772760" data-name="Trazado 772760" d="M105.864,0l-5.2,5.2V145.83l5.2,5.207h98.775l5.2-5.207V5.205l-5.2-5.2Z" transform="translate(103.279 0)" fill="#a6a6a6"/>
          <g id="Grupo_1031694" data-name="Grupo 1031694">
            <g id="Grupo_1031693" data-name="Grupo 1031693" clip-path="url(#clip-path-2)">
              <g id="Grupo_1031671" data-name="Grupo 1031671" transform="translate(209.362 11.409)" opacity="0.2">
                <g id="Grupo_1031670" data-name="Grupo 1031670">
                  <g id="Grupo_1031669" data-name="Grupo 1031669" clip-path="url(#clip-path-10)">
                    <path id="Trazado_772761" data-name="Trazado 772761" d="M190.891,85.584l3.945,3.945v27.724l-15.777,15.775H125.6l-15.465-15.463V89.247l3.839-3.837a49.216,49.216,0,0,1-4.71-53.992V21.294L124.931,5.631h27.574l-.093.057h.093a49.168,49.168,0,0,1,38.385,79.9" transform="translate(-103.336 -5.631)"/>
                  </g>
                </g>
              </g>
              <path id="Trazado_772762" data-name="Trazado 772762" d="M192.783,51.839A43.267,43.267,0,1,1,149.517,8.573a43.266,43.266,0,0,1,43.266,43.266" transform="translate(109.014 8.796)" fill="#e6b046"/>
              <g id="Grupo_1031674" data-name="Grupo 1031674" transform="translate(215.263 17.369)" opacity="0.6">
                <g id="Grupo_1031673" data-name="Grupo 1031673">
                  <g id="Grupo_1031672" data-name="Grupo 1031672" clip-path="url(#clip-path-11)">
                    <path id="Trazado_772763" data-name="Trazado 772763" d="M192.783,51.839A43.267,43.267,0,1,1,149.517,8.573a43.266,43.266,0,0,1,43.266,43.266" transform="translate(-106.249 -8.573)" fill="#fff"/>
                  </g>
                </g>
              </g>
              <g id="Grupo_1031677" data-name="Grupo 1031677" transform="translate(222.117 17.371)" opacity="0.5">
                <g id="Grupo_1031676" data-name="Grupo 1031676">
                  <g id="Grupo_1031675" data-name="Grupo 1031675" clip-path="url(#clip-path-12)">
                    <path id="Trazado_772764" data-name="Trazado 772764" d="M145.026,11.428,129.549,51.837,125.706,8.749c1.264-.12,2.549-.174,3.843-.174a43.114,43.114,0,0,1,15.477,2.853" transform="translate(-93.14 -8.573)" fill="#fff"/>
                    <path id="Trazado_772765" data-name="Trazado 772765" d="M146.042,29.928,125.674,68.106a43.378,43.378,0,0,1-16.042-14.8Z" transform="translate(-109.632 13.336)" fill="#fff"/>
                    <path id="Trazado_772766" data-name="Trazado 772766" d="M155.87,15.838,127.6,48.6,150.25,11.733a42.743,42.743,0,0,1,5.62,4.1" transform="translate(-91.193 -5.333)" fill="#fff"/>
                    <path id="Trazado_772767" data-name="Trazado 772767" d="M131.167,73.172c-.448.018-.91.024-1.363.024-1.465,0-2.917-.075-4.344-.217L129.8,29.928Z" transform="translate(-93.392 13.336)" fill="#fff"/>
                  </g>
                </g>
              </g>
              <path id="Trazado_772768" data-name="Trazado 772768" d="M158.328,52.595V66.688l-11.67,11.67h-13.22V62.4L143,52.595Z" transform="translate(136.911 53.964)" fill="#e6b046"/>
              <path id="Trazado_772769" data-name="Trazado 772769" d="M118.131,0v13.57l-3.9,3.9H100.66V5.2l5.2-5.2Z" transform="translate(103.28 0.001)" fill="#dbdbdb"/>
              <path id="Trazado_772770" data-name="Trazado 772770" d="M110.03,6.012a3.358,3.358,0,1,1-3.357-3.357,3.359,3.359,0,0,1,3.357,3.357" transform="translate(106.003 2.724)" fill="#a6a6a6"/>
              <path id="Trazado_772771" data-name="Trazado 772771" d="M145.928,0v13.57l3.9,3.9H163.4V5.2L158.2,0Z" transform="translate(149.726 0.001)" fill="#dbdbdb"/>
              <path id="Trazado_772772" data-name="Trazado 772772" d="M148.582,6.012a3.358,3.358,0,1,0,3.359-3.357,3.36,3.36,0,0,0-3.359,3.357" transform="translate(152.449 2.724)" fill="#a6a6a6"/>
              <path id="Trazado_772773" data-name="Trazado 772773" d="M145.928,83.4V69.825l3.9-3.9H163.4V78.193l-5.2,5.2Z" transform="translate(149.726 67.641)" fill="#dbdbdb"/>
              <path id="Trazado_772774" data-name="Trazado 772774" d="M148.582,71.937a3.358,3.358,0,1,1,3.359,3.359,3.358,3.358,0,0,1-3.359-3.359" transform="translate(152.449 70.365)" fill="#a6a6a6"/>
              <path id="Trazado_772775" data-name="Trazado 772775" d="M118.131,83.4V69.825l-3.9-3.9H100.66V78.193l5.2,5.2Z" transform="translate(103.28 67.641)" fill="#dbdbdb"/>
              <path id="Trazado_772776" data-name="Trazado 772776" d="M110.03,71.937a3.358,3.358,0,1,0-3.357,3.359,3.357,3.357,0,0,0,3.357-3.359" transform="translate(106.003 70.365)" fill="#a6a6a6"/>
              <path id="Trazado_772777" data-name="Trazado 772777" d="M158.721,40.388a20.655,20.655,0,1,1-20.655-20.655,20.655,20.655,0,0,1,20.655,20.655" transform="translate(120.466 20.247)" fill="#a6a6a6"/>
              <path id="Trazado_772778" data-name="Trazado 772778" d="M153.3,38.566a17.058,17.058,0,1,1-17.057-17.057A17.058,17.058,0,0,1,153.3,38.566" transform="translate(122.287 22.069)" fill="#c7c7c7"/>
              <path id="Trazado_772779" data-name="Trazado 772779" d="M136.135,32.8a5.663,5.663,0,1,1-5.663-5.663,5.662,5.662,0,0,1,5.663,5.663" transform="translate(128.059 27.839)" fill="#a6a6a6"/>
              <path id="Trazado_772780" data-name="Trazado 772780" d="M131.064,26.5c0,2.04-1.027,3.7-2.3,3.7s-2.3-1.655-2.3-3.7,1.029-3.7,2.3-3.7,2.3,1.655,2.3,3.7" transform="translate(129.763 23.398)" fill="#a6a6a6"/>
              <path id="Trazado_772781" data-name="Trazado 772781" d="M125.885,26.665c1.767,1.021,2.687,2.737,2.052,3.835s-2.581,1.163-4.348.142-2.687-2.737-2.052-3.835,2.581-1.163,4.348-.142" transform="translate(124.494 26.614)" fill="#a6a6a6"/>
              <path id="Trazado_772782" data-name="Trazado 772782" d="M123.589,31.965c1.767-1.021,3.714-.956,4.348.142s-.284,2.816-2.052,3.835-3.714.956-4.348-.142.286-2.814,2.052-3.835" transform="translate(124.494 32.052)" fill="#a6a6a6"/>
              <path id="Trazado_772783" data-name="Trazado 772783" d="M126.471,37.1c0-2.04,1.027-3.7,2.3-3.7s2.3,1.655,2.3,3.7-1.029,3.7-2.3,3.7-2.3-1.655-2.3-3.7" transform="translate(129.763 34.274)" fill="#a6a6a6"/>
              <path id="Trazado_772784" data-name="Trazado 772784" d="M132.77,35.942c-1.767-1.021-2.687-2.737-2.052-3.835s2.581-1.163,4.348-.142,2.686,2.737,2.052,3.835-2.581,1.163-4.348.142" transform="translate(133.914 32.052)" fill="#a6a6a6"/>
              <path id="Trazado_772785" data-name="Trazado 772785" d="M135.066,30.642c-1.767,1.021-3.714.956-4.348-.142s.284-2.816,2.052-3.835,3.714-.956,4.348.142-.286,2.814-2.052,3.835" transform="translate(133.914 26.614)" fill="#a6a6a6"/>
              <path id="Trazado_772786" data-name="Trazado 772786" d="M151.192,67.149V83.1H121.168L109.5,71.432V50.041l2.073-2.071,17.572,19.178Z" transform="translate(112.348 49.219)" fill="#dbdbdb"/>
              <path id="Trazado_772787" data-name="Trazado 772787" d="M161.162,38.613c-9.356,5.462-34.023,20.254-42.988,29.525a11.394,11.394,0,0,0,16.38,15.844c8.965-9.265,23.058-34.268,28.259-43.768a1.191,1.191,0,0,0-1.651-1.6m-35.3,43.355a5.492,5.492,0,1,1,5.489-5.495,5.489,5.489,0,0,1-5.489,5.495m22.821-28.31c-1.913,3.495-7.089,12.685-10.385,16.087a4.188,4.188,0,1,1-6.019-5.825c3.3-3.4,12.361-8.842,15.8-10.847a.435.435,0,0,1,.6.586" transform="translate(117.962 39.441)" fill="#c7c7c7"/>
              <path id="Trazado_772788" data-name="Trazado 772788" d="M128.614,59.993a5.488,5.488,0,1,1-5.488-5.489,5.49,5.49,0,0,1,5.488,5.489" transform="translate(120.699 55.923)" fill="#a6a6a6"/>
              <path id="Trazado_772789" data-name="Trazado 772789" d="M242.779,151.036H144l-5.2-5.2V5.2L144,0h98.775l5.2,5.2V145.832Z" transform="translate(142.412 0)" fill="#e6b046"/>
              <g id="Grupo_1031683" data-name="Grupo 1031683" transform="translate(281.211 34.852)" opacity="0.2">
                <g id="Grupo_1031682" data-name="Grupo 1031682">
                  <g id="Grupo_1031681" data-name="Grupo 1031681" clip-path="url(#clip-path-13)">
                    <rect id="Rectángulo_364342" data-name="Rectángulo 364342" width="109.185" height="4.792" transform="translate(0 0)" fill="#373f51"/>
                  </g>
                </g>
              </g>
              <g id="Grupo_1031686" data-name="Grupo 1031686" transform="translate(376.391 7.932)" opacity="0.1">
                <g id="Grupo_1031685" data-name="Grupo 1031685">
                  <g id="Grupo_1031684" data-name="Grupo 1031684" clip-path="url(#clip-path-14)">
                    <path id="Trazado_772791" data-name="Trazado 772791" d="M193.444,7.748a3.833,3.833,0,1,1-3.833-3.833,3.833,3.833,0,0,1,3.833,3.833" transform="translate(-185.778 -3.915)"/>
                  </g>
                </g>
              </g>
              <path id="Trazado_772792" data-name="Trazado 772792" d="M190.743,6.84A2.04,2.04,0,1,1,188.7,4.8a2.041,2.041,0,0,1,2.04,2.04" transform="translate(191.521 4.925)" fill="#e6b046"/>
              <g id="Grupo_1031689" data-name="Grupo 1031689" transform="translate(379.582 11.123)" opacity="0.6">
                <g id="Grupo_1031688" data-name="Grupo 1031688">
                  <g id="Grupo_1031687" data-name="Grupo 1031687" clip-path="url(#clip-path-15)">
                    <path id="Trazado_772793" data-name="Trazado 772793" d="M188.638,6.132A.642.642,0,1,1,188,5.49a.642.642,0,0,1,.642.642" transform="translate(-187.353 -5.49)" fill="#fff"/>
                  </g>
                </g>
              </g>
              <rect id="Rectángulo_364346" data-name="Rectángulo 364346" width="2.235" height="90.357" transform="translate(290.496 48.586)" fill="#373f51"/>
              <rect id="Rectángulo_364347" data-name="Rectángulo 364347" width="2.235" height="90.357" transform="translate(378.875 48.586)" fill="#373f51"/>
              <g id="Grupo_1031692" data-name="Grupo 1031692" transform="translate(311.877 131.094)">
                <g id="Grupo_1031691" data-name="Grupo 1031691">
                  <g id="Grupo_1031690" data-name="Grupo 1031690" clip-path="url(#clip-path-16)">
                    <rect id="Rectángulo_364348" data-name="Rectángulo 364348" width="47.851" height="7.851" transform="translate(0 0.001)" fill="#e6b046"/>
                  </g>
                </g>
              </g>
              <rect id="Rectángulo_364350" data-name="Rectángulo 364350" width="33.985" height="6.651" transform="translate(318.81 151.038)" fill="#5573c6"/>
              <rect id="Rectángulo_364351" data-name="Rectángulo 364351" width="28.164" height="3.234" transform="translate(321.721 157.69)" fill="#5573c6"/>
              <path id="Trazado_772794" data-name="Trazado 772794" d="M186.958,77.831H158.794v1.617l28.164-.808Z" transform="translate(162.927 79.857)" fill="#2e3747"/>
              <path id="Trazado_772795" data-name="Trazado 772795" d="M180.607,79.428V115a4.245,4.245,0,0,1-4.247,4.247h-25.1" transform="translate(155.195 81.495)" fill="none" stroke="#2e3747" stroke-miterlimit="10" stroke-width="1.79"/>
              <path id="Trazado_772796" data-name="Trazado 772796" d="M160.281,109.392l-2.818,1.246H136.953V95.3h20.509l2.818,1.246Z" transform="translate(140.518 97.777)" fill="#2e3747"/>
              <path id="Trazado_772797" data-name="Trazado 772797" d="M147.077,95.3l2.818,1.246v12.849l-2.818,1.246Z" transform="translate(150.905 97.777)" fill="#5573c6"/>
              <rect id="Rectángulo_364352" data-name="Rectángulo 364352" width="5.657" height="10.377" transform="translate(300.798 195.556)" fill="#2e3747"/>
              <path id="Trazado_772798" data-name="Trazado 772798" d="M145.337,98.567a1.013,1.013,0,1,1-1.013,1.013,1.013,1.013,0,0,1,1.013-1.013" transform="translate(148.08 101.132)" fill="#fff"/>
              <path id="Trazado_772799" data-name="Trazado 772799" d="M142.287,99.886a.9.9,0,1,1-.9.9.9.9,0,0,1,.9-.9" transform="translate(145.065 102.486)" fill="#fff"/>
              <rect id="Rectángulo_364353" data-name="Rectángulo 364353" width="8.896" height="0.395" transform="translate(284.521 200.516)" fill="#fff"/>
              <path id="Trazado_772800" data-name="Trazado 772800" d="M146.875,99.286l-2.6,2.6H142.18v-.4h1.931l2.484-2.484Z" transform="translate(145.881 101.583)" fill="#fff"/>
              <path id="Trazado_772801" data-name="Trazado 772801" d="M145.856,100.347l-.28.28L143.04,98.09h-1.655v-.4H143.2Z" transform="translate(145.065 100.238)" fill="#fff"/>
              <rect id="Rectángulo_364354" data-name="Rectángulo 364354" width="1.651" height="1.651" transform="translate(285.024 197.315)" fill="#fff"/>
              <path id="Trazado_772802" data-name="Trazado 772802" d="M141.759,98.485v2.36l-2.585-1.181Z" transform="translate(142.797 101.048)" fill="#fff"/>
            </g>
          </g>
          <g id="Grupo_1031696" data-name="Grupo 1031696">
            <g id="Grupo_1031695" data-name="Grupo 1031695" clip-path="url(#clip-path-2)">
              <path id="Trazado_772803" data-name="Trazado 772803" d="M179.142,131.549s4.939-17.732,8.884-23.753,11.3-12.636,11.3-12.636-.172,27.337-20.183,36.389" transform="translate(183.805 97.637)" fill="#4adbd1"/>
              <path id="Trazado_772804" data-name="Trazado 772804" d="M179.334,127.6a85.225,85.225,0,0,0,4.5-8.59,60.019,60.019,0,0,1,2.454-9.324c.02-.057.1-.026.087.03-.656,2.8-1.418,5.578-2.111,8.372,1.994-4.315,3.89-8.686,6.264-12.766a27.258,27.258,0,0,1,2.289-5.673c.026-.053.113-.024.087.03a36.126,36.126,0,0,0-1.54,4.257,42.428,42.428,0,0,1,3.752-5.185c.087-.1.259.01.174.12A62.53,62.53,0,0,0,187.84,112.2a70.7,70.7,0,0,0,6.2-7.748c.018-.028.061,0,.043.03a63.555,63.555,0,0,1-6.637,8.6c-1.522,3.42-3.015,6.856-4.828,10.108,3.623-3.061,6.408-7.022,9.166-10.845a.083.083,0,0,1,.136.1c-2.757,4.194-5.614,8.143-9.583,11.249a43.884,43.884,0,0,1-2.652,4.143.211.211,0,0,1-.348-.239" transform="translate(183.967 101.282)" fill="#2e3747"/>
              <path id="Trazado_772805" data-name="Trazado 772805" d="M181.191,141.1s8.88-16.35,6.3-32.2-5.343-21.5-5.343-21.5-13.957,24.655-.958,53.7" transform="translate(180.224 89.681)" fill="#4adbd1"/>
              <path id="Trazado_772806" data-name="Trazado 772806" d="M176.627,111.458a77.386,77.386,0,0,0,3.428,13.2c.024-5.817.136-11.635.292-17.45a44.976,44.976,0,0,1-1.678-10.835c0-.107.158-.1.166,0a61.737,61.737,0,0,0,1.556,9.322q.2-7.2.468-14.393a.063.063,0,0,1,.126,0c-.008,7.494,0,14.993-.051,22.489a60.164,60.164,0,0,0,2.559-8.906c.006-.028.055-.02.053.008a34.851,34.851,0,0,1-2.622,10.134c-.034,4.794-.085,9.585-.192,14.375,1.5-5.093,3.106-10.027,3.541-15.41a.056.056,0,0,1,.111,0,57.369,57.369,0,0,1-3.606,17.543.307.307,0,0,1-.1.142q-.07,2.626-.154,5.253a.2.2,0,0,1-.389-.008q-.106-5.373-.089-10.748a48.212,48.212,0,0,1-3.5-14.715c0-.045.073-.055.079-.01" transform="translate(181.143 93.622)" fill="#2e3747"/>
              <path id="Trazado_772807" data-name="Trazado 772807" d="M176.987,100.011a30.519,30.519,0,0,1,.62,4.32c0,.049-.073.055-.085.01a30.593,30.593,0,0,1-.729-4.307c-.014-.109.172-.132.194-.022" transform="translate(181.393 102.541)" fill="#2e3747"/>
              <path id="Trazado_772808" data-name="Trazado 772808" d="M179.695,94.091c.008-.049.083-.034.085.012a11.092,11.092,0,0,1-.446,2.98c-.022.079-.136.043-.122-.036.194-.983.314-1.971.482-2.956" transform="translate(183.876 96.509)" fill="#2e3747"/>
              <path id="Trazado_772809" data-name="Trazado 772809" d="M185.675,133.951s.363-17.065-4.534-25.548A36.792,36.792,0,0,0,168.126,95.6s3.274,30.084,17.549,38.355" transform="translate(172.502 98.084)" fill="#4adbd1"/>
              <path id="Trazado_772810" data-name="Trazado 772810" d="M174.369,116.258a63.39,63.39,0,0,0,6.625,8.4q-1.465-5.233-3.39-10.292c-2.743-2.407-5.466-4.9-7.15-8.193a.047.047,0,0,1,.081-.047,34.284,34.284,0,0,0,6.779,7.494A132.372,132.372,0,0,0,170.5,98.777a.108.108,0,0,1,.186-.109,80.871,80.871,0,0,1,4.273,7.788c-.458-1.823-.825-3.689-1.295-5.5-.014-.051.059-.069.077-.02a30.838,30.838,0,0,1,2.01,7.239,86.765,86.765,0,0,1,4.311,11.678c-.126-2.559-.288-5.106-.551-7.656,0-.049.077-.061.085-.012a41.489,41.489,0,0,1,.742,8.6q1.058,3.814,1.777,7.709c.012.069-.091.1-.107.03-.265-1.088-.555-2.166-.849-3.242-.02-.008-.038,0-.057-.02a34.7,34.7,0,0,1-6.759-8.983.015.015,0,0,1,.026-.016" transform="translate(174.886 101.182)" fill="#2e3747"/>
              <path id="Trazado_772811" data-name="Trazado 772811" d="M169.629,100.476c.545.59,1.043,1.21,1.57,1.815a13.921,13.921,0,0,1,1.41,1.647.027.027,0,0,1-.039.036,8.369,8.369,0,0,1-1.627-1.607,13.693,13.693,0,0,1-1.394-1.832.05.05,0,0,1,.079-.061" transform="translate(173.955 103.077)" fill="#2e3747"/>
              <path id="Trazado_772812" data-name="Trazado 772812" d="M194.689,113.5l-.618,5.472-1.86,16.541H175.995l-1.86-16.541-.618-5.472h21.172Z" transform="translate(178.033 116.452)" fill="#5573c6"/>
              <path id="Trazado_772813" data-name="Trazado 772813" d="M194.689,113.5l-.618,5.472H174.135l-.618-5.472h21.172Z" transform="translate(178.033 116.452)" fill="#373f51"/>
              <rect id="Rectángulo_364356" data-name="Rectángulo 364356" width="24.053" height="6.198" transform="translate(350.11 225.983)" fill="#5573c6"/>
            </g>
          </g>
          <rect id="Rectángulo_364358" data-name="Rectángulo 364358" width="27.002" height="37.248" transform="translate(123.608 85.602) rotate(-82.59)" fill="#e6b046"/>
          <path id="Trazado_772814" data-name="Trazado 772814" d="M76.14,29.364l-13.052-1.7-.361,2.774,13.8,1.8Z" transform="translate(64.361 28.386)" fill="#e6b046"/>
          <rect id="Rectángulo_364359" data-name="Rectángulo 364359" width="1.627" height="10.764" transform="translate(128.381 58.917) rotate(-82.591)" fill="#fff"/>
          <path id="Trazado_772815" data-name="Trazado 772815" d="M97.946,59.791l-36.937-4.8,3-25.149,36.939,4.8Z" transform="translate(62.598 30.615)" fill="#e6b046"/>
          <g id="Grupo_1031701" data-name="Grupo 1031701">
            <g id="Grupo_1031700" data-name="Grupo 1031700" clip-path="url(#clip-path-2)">
              <g id="Grupo_1031699" data-name="Grupo 1031699" transform="translate(123.607 60.452)" opacity="0.4">
                <g id="Grupo_1031698" data-name="Grupo 1031698">
                  <g id="Grupo_1031697" data-name="Grupo 1031697" clip-path="url(#clip-path-19)">
                    <path id="Trazado_772816" data-name="Trazado 772816" d="M97.946,59.791l-36.937-4.8,3-25.149,36.939,4.8Z" transform="translate(-61.009 -29.837)" fill="#fff"/>
                  </g>
                </g>
              </g>
            </g>
          </g>
          <path id="Trazado_772817" data-name="Trazado 772817" d="M75.843,30.278l-13.052-1.7-.3,2.547,13.8,1.8Z" transform="translate(64.116 29.324)" fill="#e6b046"/>
          <g id="Grupo_1031712" data-name="Grupo 1031712">
            <g id="Grupo_1031711" data-name="Grupo 1031711" clip-path="url(#clip-path-2)">
              <g id="Grupo_1031704" data-name="Grupo 1031704" transform="translate(126.605 57.905)" opacity="0.4">
                <g id="Grupo_1031703" data-name="Grupo 1031703">
                  <g id="Grupo_1031702" data-name="Grupo 1031702" clip-path="url(#clip-path-21)">
                    <path id="Trazado_772818" data-name="Trazado 772818" d="M75.843,30.278l-13.052-1.7-.3,2.547,13.8,1.8Z" transform="translate(-62.489 -28.581)" fill="#fff"/>
                  </g>
                </g>
              </g>
              <path id="Trazado_772819" data-name="Trazado 772819" d="M38.774,93.471S22.11,118.087,22.1,118.105c-2.293,5.091-4.214,9.6-4.99,12.02a.065.065,0,0,0-.01.038,3.9,3.9,0,0,0-.334,1.742.158.158,0,0,0,.016.047c1.054,1.708,41.209,21.223,42.838,21.431s2.354-4.419,1.4-6.418-12.993-16.352-12.993-16.352l14.018-25.348Z" transform="translate(17.175 95.904)" fill="#cc9c97"/>
              <path id="Trazado_772820" data-name="Trazado 772820" d="M58.98,143.775c-1.627-.211-41.145-19.58-42.194-21.285a.148.148,0,0,1-.018-.047,3.92,3.92,0,0,1,.33-1.74.067.067,0,0,1,.016-.038c.776-2.423,2.7-6.931,4.986-12.024,0-.006,2.4-4.413,3.363-5.944L51,115.9l-2.972,5.253s11.388,14.2,12.349,16.2.233,6.635-1.4,6.422" transform="translate(17.175 105.368)" fill="#ebebeb"/>
              <path id="Trazado_772821" data-name="Trazado 772821" d="M59.58,141.269c-1.641-.249-41.649-20.86-42.672-22.612-.4-.658,2.263-6.664,5.689-13.828l.109-.223,25.962,13.009-.237.434s11.785,14.737,12.709,16.784.077,6.692-1.56,6.437" transform="translate(17.307 107.329)" fill="#e6b046"/>
              <path id="Trazado_772822" data-name="Trazado 772822" d="M58.769,132.351c-6.66-3.641-33.861-17.693-40.719-20.785-.057-.024-.075.012-.022.043,6.522,3.752,33.837,17.584,40.685,20.854.144.069.2-.034.057-.111" transform="translate(18.465 114.462)" fill="#fff"/>
              <path id="Trazado_772823" data-name="Trazado 772823" d="M38.018,113.121c-2.4-1.862-5.855-3.128-8.856-2.281-.118.032-.069.2.03.215a41.936,41.936,0,0,1,8.643,2.4.191.191,0,0,0,.182-.33" transform="translate(29.85 113.45)" fill="#2e3747"/>
              <path id="Trazado_772824" data-name="Trazado 772824" d="M38.67,114.178c-2.4-1.862-5.855-3.128-8.856-2.281-.118.032-.069.2.03.215a41.936,41.936,0,0,1,8.643,2.4.191.191,0,0,0,.182-.33" transform="translate(30.519 114.534)" fill="#2e3747"/>
              <path id="Trazado_772825" data-name="Trazado 772825" d="M39.322,115.235c-2.4-1.862-5.855-3.128-8.858-2.281-.115.032-.067.2.032.215a41.935,41.935,0,0,1,8.643,2.4.191.191,0,0,0,.182-.33" transform="translate(31.188 115.619)" fill="#2e3747"/>
              <path id="Trazado_772826" data-name="Trazado 772826" d="M24.475,109.075c-2.154-2.944-6.732.4-4.577,3.347s6.735-.4,4.577-3.347" transform="translate(19.838 110.743)" fill="#fff"/>
              <g id="Grupo_1031707" data-name="Grupo 1031707" transform="translate(67.5 227.586)" opacity="0.1">
                <g id="Grupo_1031706" data-name="Grupo 1031706">
                  <g id="Grupo_1031705" data-name="Grupo 1031705" clip-path="url(#clip-path-22)">
                    <path id="Trazado_772827" data-name="Trazado 772827" d="M33.317,112.331,36.192,130.3a70.649,70.649,0,0,0,6.51,3.045c1.637.255,2.476-4.4,1.566-6.437-.7-1.546-7.63-10.381-10.951-14.573" transform="translate(-33.316 -112.332)"/>
                  </g>
                </g>
              </g>
              <path id="Trazado_772828" data-name="Trazado 772828" d="M62.106,133.887c.571.644-.823,2.97-1.438,2.9S16.531,114.044,15.874,113.5s.987-3.069,1.919-2.761,44.313,23.151,44.313,23.151" transform="translate(16.133 113.591)" fill="#2e3747"/>
              <path id="Trazado_772829" data-name="Trazado 772829" d="M21.016,165.034,49.792,180.4s36.323-48.576,37.05-62.177c1-18.783-15.035-78.413-15.035-78.413l-25.581-.172s10.4,61.324,9.555,71.786c-.444,5.474-34.765,53.611-34.765,53.611" transform="translate(21.563 40.669)" fill="#4adbd1"/>
              <path id="Trazado_772830" data-name="Trazado 772830" d="M49.419,113.281c-1.481-1.068-15.122-8.971-25.508-14.02a.059.059,0,0,0-.055.105c3.15,2.081,23.51,13.234,25.485,14.026.065.026.144-.063.077-.111" transform="translate(24.448 101.838)" fill="#2e3747"/>
              <path id="Trazado_772831" data-name="Trazado 772831" d="M54.946,97.493c-1.191-8.971-2.5-17.932-3.989-26.863C49.461,61.665,47.883,52.7,46,43.8c-.227-1.09-.466-2.172-.705-3.258a.132.132,0,0,0-.259.053c1.576,8.827,3.2,17.647,4.648,26.5s2.8,17.714,4.016,26.6q.453,3.3.879,6.6a58.94,58.94,0,0,1,.65,6.852,17.51,17.51,0,0,1-1.1,6.42,37.274,37.274,0,0,1-2.946,5.778C46.564,127.176,25.838,158.2,25.3,159.2c-.034.065.055.132.1.067,4.974-7.717,20.4-29.181,25.094-37.137,2.117-3.588,4.544-7.223,5.235-11.411.717-4.354-.211-8.906-.78-13.226" transform="translate(25.949 41.495)" fill="#2e3747"/>
              <path id="Trazado_772832" data-name="Trazado 772832" d="M36.662,101.763s-.288,29.185-.288,29.205c.154,5.582.389,10.475.746,12.993a.094.094,0,0,0,.006.04,3.944,3.944,0,0,0,.46,1.714c.014.012.02.026.034.032,1.692,1.08,46.339,1.147,47.9.626s.194-5-1.536-6.388-18.82-9.056-18.82-9.056l.012-29.163Z" transform="translate(37.321 104.412)" fill="#cc9c97"/>
              <path id="Trazado_772833" data-name="Trazado 772833" d="M36.433,113.287s-.059,5.971-.059,5.991c.154,5.584.389,10.475.746,12.993a.07.07,0,0,0,.008.041,7.765,7.765,0,0,0,.458,1.714c.014.014.02.026.034.034,1.692,1.078,46.339,1.147,47.9.624s.192-5-1.538-6.388-18.82-9.056-18.82-9.056l0-6.082Z" transform="translate(37.321 116.102)" fill="#ebebeb"/>
              <path id="Trazado_772834" data-name="Trazado 772834" d="M85.6,132.149c-1.58.5-46.58-.29-48.272-1.408-.652-.415-.918-6.978-1.013-14.918v-.249l29.037.186-.02.492s17.09,8.007,18.822,9.433,3.029,5.969,1.447,6.463" transform="translate(37.259 118.582)" fill="#e6b046"/>
              <path id="Trazado_772835" data-name="Trazado 772835" d="M83.578,123.243c-7.581-.32-38.195-.893-45.713-.634-.061,0-.063.045,0,.049,7.508.48,38.124.806,45.711.709.16,0,.162-.118,0-.124" transform="translate(38.802 125.733)" fill="#fff"/>
              <path id="Trazado_772836" data-name="Trazado 772836" d="M56.389,116.105c-2.974-.61-6.633-.215-8.953,1.87-.089.081.026.209.124.18a41.983,41.983,0,0,1,8.811-1.674.191.191,0,0,0,.018-.377" transform="translate(48.638 118.859)" fill="#2e3747"/>
              <path id="Trazado_772837" data-name="Trazado 772837" d="M57.441,116.765c-2.974-.61-6.633-.215-8.953,1.87-.089.081.026.209.124.18a41.984,41.984,0,0,1,8.811-1.673.191.191,0,0,0,.018-.377" transform="translate(49.717 119.537)" fill="#2e3747"/>
              <path id="Trazado_772838" data-name="Trazado 772838" d="M58.494,117.424c-2.974-.61-6.635-.215-8.953,1.872-.089.079.026.207.124.178a41.96,41.96,0,0,1,8.811-1.674.191.191,0,0,0,.018-.377" transform="translate(50.798 120.213)" fill="#2e3747"/>
              <path id="Trazado_772839" data-name="Trazado 772839" d="M86.793,123.56c.8.324.577,3.027-.006,3.234s-49.646-.873-50.476-1.076-.472-3.187.5-3.325,49.984,1.167,49.984,1.167" transform="translate(36.78 125.569)" fill="#2e3747"/>
              <path id="Trazado_772840" data-name="Trazado 772840" d="M42.015,118.3c-3.234-1.69-5.863,3.335-2.624,5.025s5.863-3.333,2.624-5.025" transform="translate(38.898 121.027)" fill="#fff"/>
              <path id="Trazado_772841" data-name="Trazado 772841" d="M66.41,39.985l-.012.026c-.17.529-9.362,25.72-10.229,26.122-.979.452,20.309,36.213,21.569,52.827.806,10.627-.774,67.57-.774,67.57H45.84s1.5-50.874,2.208-68c.274-6.641-21.371-39.712-21.638-60.3-.083-6.491,4.581-18.352,4.581-18.352Z" transform="translate(27.097 40.908)" fill="#4adbd1"/>
              <path id="Trazado_772842" data-name="Trazado 772842" d="M38.334,78.594c0-.276-.217-.363-.237-.081-.7,9.269-.867,15.3-1.311,24.586-.442,9.259-.19,11.492-.6,20.751-.233,5.239-.012,10.493-.132,15.738a.064.064,0,0,0,.128.01c.968-9.243,2.15-55.754,2.156-61" transform="translate(36.989 80.379)" fill="#2e3747"/>
              <path id="Trazado_772843" data-name="Trazado 772843" d="M62.742,106.022a45.819,45.819,0,0,0-.628-6.824,34.015,34.015,0,0,0-1.923-6.408c-1.72-4.336-3.754-8.564-5.7-12.8q-2.954-6.443-6.052-12.815-1.75-3.58-3.523-7.146c-1.2-2.4-2.484-4.767-3.736-7.144a.083.083,0,0,0-.15.071c2,4.283,3.963,8.578,5.959,12.863S50.947,74.4,52.908,78.7c1.927,4.228,3.86,8.461,5.675,12.738a42.083,42.083,0,0,1,2.221,6.3,36.562,36.562,0,0,1,.912,6.779c.3,5.316.45,10.649.97,15.951a.06.06,0,0,0,.118-.006c.16-4.8.085-9.634-.061-14.433" transform="translate(42.095 54.211)" fill="#2e3747"/>
              <path id="Trazado_772844" data-name="Trazado 772844" d="M64.021,109.441c-1.811-.235-15.6-.711-27.137-.219a.059.059,0,0,0,0,.118c3.76.334,25.005.478,27.12.235.069-.008.1-.124.014-.134" transform="translate(37.787 111.844)" fill="#2e3747"/>
              <path id="Trazado_772845" data-name="Trazado 772845" d="M48.185,52.146a59.346,59.346,0,0,0-9.733,3.373.106.106,0,0,0,.067.2c3.268-1.023,6.591-1.981,9.8-3.183a.206.206,0,0,0-.13-.391" transform="translate(39.384 53.497)" fill="#2e3747"/>
              <path id="Trazado_772846" data-name="Trazado 772846" d="M48.987,41.83c0-.109-.184-.152-.2-.036a104.075,104.075,0,0,1-1.6,10.4c-.31,1.6-2.518,10.373-5.247,9.437-.458-.158-.648-.642-.65-1.355a11.318,11.318,0,0,1,.652-2.695c.5-1.832.942-3.677,1.295-5.545A51.5,51.5,0,0,0,44.21,41.49a.091.091,0,0,0-.182-.01,97.082,97.082,0,0,1-2.34,14.46c-.588,2.281-2.113,5.651.274,6.254,2.431.616,4.627-5.063,5.091-6.629A53.577,53.577,0,0,0,48.987,41.83" transform="translate(41.722 42.475)" fill="#2e3747"/>
              <path id="Trazado_772847" data-name="Trazado 772847" d="M41.946,51.592a15.047,15.047,0,0,0-.819,1.781,4.241,4.241,0,0,0-.415,1.491c0,.1.13.124.188.061a5.316,5.316,0,0,0,.8-1.41c.271-.549.555-1.092.81-1.649a.314.314,0,0,0-.565-.274" transform="translate(41.772 52.763)" fill="#2e3747"/>
              <path id="Trazado_772848" data-name="Trazado 772848" d="M50.409,124.464c.16-4.425.65-9.064-.8-13.335a44.531,44.531,0,0,0-2.838-6.058q-1.62-3.121-3.177-6.273c-4.159-8.4-8.078-16.932-11.579-25.627A54.516,54.516,0,0,1,28.22,60.192a39.967,39.967,0,0,1,.869-14.119c.263-1.151.543-2.3.857-3.436.024-.083-.1-.13-.128-.047a46.4,46.4,0,0,0-2.427,13.5A38.114,38.114,0,0,0,29.733,69c1.491,4.344,3.361,8.568,5.2,12.774q2.845,6.5,5.912,12.9c2.038,4.245,4.208,8.418,6.358,12.606a22.733,22.733,0,0,1,2.389,6.36,32.677,32.677,0,0,1,.257,6.965c-.367,9.788-1.212,39.179-1.335,48.943q-.024,1.86-.045,3.718c0,.109.164.126.172.014.62-9.741,1.414-39.058,1.767-48.817" transform="translate(28.102 43.654)" fill="#2e3747"/>
              <path id="Trazado_772849" data-name="Trazado 772849" d="M41.2,43.079c0-.069-.109-.055-.118.006-.367,2.695-.575,5.489-1.876,7.932a11.086,11.086,0,0,1-5.545,4.7,40.882,40.882,0,0,1-4.04,1.491c-.1.032-.077.184.03.162a21.428,21.428,0,0,0,7.429-2.579,9.307,9.307,0,0,0,4.022-6.8,23.706,23.706,0,0,0,.1-4.913" transform="translate(30.328 44.153)" fill="#2e3747"/>
              <path id="Trazado_772850" data-name="Trazado 772850" d="M27.384,65.573c.075.113,41.536,7.733,41.945,7.389a27.072,27.072,0,0,0,.5-3.189s1.635-2.715.981-7.794c-1.384-10.744-3.5-37.457-5.266-39.892-1.544-2.133-6.289-3.714-9.551-2.379-6.844,2.8-23.435,29.866-26.816,35.849-1.667,2.952-.914,5.27-.756,6.789a28.33,28.33,0,0,0-1.033,3.227" transform="translate(28.091 19.716)" fill="#e6b046"/>
              <path id="Trazado_772851" data-name="Trazado 772851" d="M66.136,47.251c-1.224-.261-2.476-.407-3.708-.628-1.177-.211-2.342-.472-3.521-.675-2.415-.415-4.834-.808-7.249-1.222-4.832-.831-9.658-1.7-14.484-2.555-1.345-.239-2.695-.48-4.04-.725-1.406-.255-2.822-.425-4.226-.675a.052.052,0,1,0-.022.1c1.224.265,2.433.608,3.663.857q1.757.359,3.519.705c2.4.478,4.814.928,7.223,1.368,4.824.879,9.656,1.712,14.5,2.47,1.355.211,2.713.379,4.074.545,1.414.17,2.82.452,4.238.581.1.008.134-.126.034-.148" transform="translate(29.594 41.832)" fill="#2e3747"/>
              <path id="Trazado_772852" data-name="Trazado 772852" d="M47.414,32.759c-2.308-.239-5.207-5.209-5.732-8.355-.034-.217.91-2.028,1.951-4.283.628-1.372,1.293-2.913,1.8-4.364l8.327,5.385a24.446,24.446,0,0,0-2.82,5.264,3.3,3.3,0,0,0-.146.616.974.974,0,0,1-.022.1c-.209,1.2-1.126,5.865-3.357,5.634" transform="translate(42.766 16.167)" fill="#cc9c97"/>
              <path id="Trazado_772853" data-name="Trazado 772853" d="M48.782,26.837c-.008.026-.01.063-.02.1a5.828,5.828,0,0,1-.952-.274c-5.225-1.953-4.216-8.829-3.825-10.728l2.081,1.345,5.685,3.673a24.366,24.366,0,0,0-2.818,5.268,3.224,3.224,0,0,0-.15.614" transform="translate(44.776 16.352)" fill="#2e3747"/>
              <path id="Trazado_772854" data-name="Trazado 772854" d="M44.669,12.876c-1.631,3.179-1.6,13.214.4,15.809,2.9,3.764,8.528,5.083,11.945,1.394,3.311-3.576,3.039-16.652.721-19.1-3.414-3.606-10.661-2.8-13.07,1.9" transform="translate(44.636 8.958)" fill="#cc9c97"/>
              <path id="Trazado_772855" data-name="Trazado 772855" d="M48.621,14.741c-.006-.026-.053.032-.053.059.02.677-.071,1.455-.681,1.678-.02.006-.018.041,0,.038.748-.1.857-1.139.729-1.775" transform="translate(49.119 15.118)" fill="#2e3747"/>
              <path id="Trazado_772856" data-name="Trazado 772856" d="M48.387,14.39c-1.088-.085-1.175,2.095-.168,2.174.991.077,1.08-2.1.168-2.174" transform="translate(48.751 14.762)" fill="#2e3747"/>
              <path id="Trazado_772857" data-name="Trazado 772857" d="M50.17,14.756c.006-.026.051.034.049.061-.049.675.01,1.457.61,1.706.02.008.016.041-.006.036-.742-.136-.806-1.173-.652-1.8" transform="translate(51.407 15.134)" fill="#2e3747"/>
              <path id="Trazado_772858" data-name="Trazado 772858" d="M50.79,14.417c1.09-.038,1.086,2.144.077,2.178s-.991-2.146-.077-2.178" transform="translate(51.417 14.792)" fill="#2e3747"/>
              <path id="Trazado_772859" data-name="Trazado 772859" d="M47.843,14.444a8.532,8.532,0,0,0,.881-.158,1.444,1.444,0,0,0,.869-.334.465.465,0,0,0,.016-.563,1.142,1.142,0,0,0-1.12-.3,1.671,1.671,0,0,0-1.072.563.491.491,0,0,0,.425.792" transform="translate(48.533 13.401)" fill="#2e3747"/>
              <path id="Trazado_772860" data-name="Trazado 772860" d="M51.816,14.455a8.351,8.351,0,0,1-.857-.259,1.444,1.444,0,0,1-.825-.434.462.462,0,0,1,.051-.561,1.146,1.146,0,0,1,1.147-.168,1.679,1.679,0,0,1,1,.685.492.492,0,0,1-.515.737" transform="translate(51.364 13.295)" fill="#2e3747"/>
              <path id="Trazado_772861" data-name="Trazado 772861" d="M47.718,17.694c.156.164.308.389.551.419a1.764,1.764,0,0,0,.733-.14.024.024,0,0,1,.028.036.909.909,0,0,1-.873.33.72.72,0,0,1-.507-.618c-.008-.041.045-.053.067-.028" transform="translate(48.891 18.142)" fill="#2e3747"/>
              <path id="Trazado_772862" data-name="Trazado 772862" d="M48.082,20.354a2.306,2.306,0,0,0,1.493,1.086,2.885,2.885,0,0,0,.827.071.818.818,0,0,0,.158-.01c.049-.006.093-.008.148-.018a.166.166,0,0,0,.142-.146v0a.262.262,0,0,0,0-.069V21.2c.036-.519.018-1.313.018-1.313.186.1,1.137.579,1.133.306a34.627,34.627,0,0,0-.608-7,.063.063,0,0,0-.124.012c-.047,2.17.292,4.33.28,6.51a4.042,4.042,0,0,0-1.072-.375c-.075.018.063,1.532.028,1.765l-.006.024a3.186,3.186,0,0,1-2.35-.837c-.049-.041-.1,0-.065.059" transform="translate(49.32 13.489)" fill="#2e3747"/>
              <g id="Grupo_1031710" data-name="Grupo 1031710" transform="translate(88.058 18.723)" opacity="0.2">
                <g id="Grupo_1031709" data-name="Grupo 1031709">
                  <g id="Grupo_1031708" data-name="Grupo 1031708" clip-path="url(#clip-path-23)">
                    <path id="Trazado_772863" data-name="Trazado 772863" d="M43.463,19.44c.681-.1,2.32-2.389,3.017-3.3.731-.942,1.126-5.8,1.2-6.9a7.359,7.359,0,0,0-2.871,2.9c-.782,1.451-1.246,4.319-1.343,7.3" transform="translate(-43.464 -9.241)" fill="#2e3747"/>
                  </g>
                </g>
              </g>
              <path id="Trazado_772864" data-name="Trazado 772864" d="M52.7,11.865a3.5,3.5,0,0,1-3.242,1.064,3.579,3.579,0,0,1-2.668-2.237.028.028,0,0,0-.053.016,3.54,3.54,0,0,0,2.66,2.5,3.609,3.609,0,0,0,3.367-1.282.044.044,0,0,0-.065-.059" transform="translate(47.957 10.95)" fill="#2e3747"/>
              <path id="Trazado_772865" data-name="Trazado 772865" d="M50.719,6.927A5.519,5.519,0,0,0,45.988,9.3a3.925,3.925,0,0,0-.48,2.543c0,.036.077.03.075,0a4.313,4.313,0,0,1,2.184-3.817,5.557,5.557,0,0,1,4.937-.4,3.535,3.535,0,0,1,1.829,1.588c.036.075.19.032.16-.043a4.259,4.259,0,0,0-3.975-2.237" transform="translate(46.654 7.107)" fill="#2e3747"/>
              <path id="Trazado_772866" data-name="Trazado 772866" d="M56.774,10.942a4.471,4.471,0,0,0-1.813-2.478,6.187,6.187,0,0,0-4.028-.673c-.036,0-.034.063,0,.059a6.2,6.2,0,0,1,3.479.529A4.4,4.4,0,0,1,56.367,10.6a4.286,4.286,0,0,1-1.981,5.253,4.353,4.353,0,0,1-3.446.217c-.045-.014-.079.049-.034.067a4.38,4.38,0,0,0,5.869-5.193" transform="translate(52.208 7.945)" fill="#2e3747"/>
              <path id="Trazado_772867" data-name="Trazado 772867" d="M44.166,16.138S42.4,12.428,44.1,10.4c.962-1.151,3.983-.865,3.983-.865a5.455,5.455,0,0,1,3.582-2.162C54.221,6.9,57.169,8.51,57.169,8.51a5.069,5.069,0,0,1,4.664.111c3.063,1.933,2.464,6.7-.766,8.1-2.267.985-5.2-1.112-5.2-1.112-.292.026-3.339,1.688-5.468-1.06,0,0-1.894,1.544-3.483.336a2.648,2.648,0,0,1-2.751,1.248" transform="translate(44.487 7.474)" fill="#2e3747"/>
              <path id="Trazado_772868" data-name="Trazado 772868" d="M46.457,16.389s-1.7-3.5-3.258-2.942-.624,5.389.954,6.283a1.729,1.729,0,0,0,2.435-.555Z" transform="translate(43.503 13.736)" fill="#cc9c97"/>
              <path id="Trazado_772869" data-name="Trazado 772869" d="M42.957,14.1a.024.024,0,0,0-.018.043A4.38,4.38,0,0,1,44.744,17.2a.957.957,0,0,0-1.372-.482c-.032.016-.014.069.022.067a1.067,1.067,0,0,1,1.1.551,5.193,5.193,0,0,1,.4,1.023c.038.113.237.089.217-.038l0-.03c.267-1.5-.567-3.783-2.154-4.19" transform="translate(44.046 14.464)" fill="#2e3747"/>
              <path id="Trazado_772870" data-name="Trazado 772870" d="M39.449,27.417c-.1,11.751,2.579,30.24,5.675,32.317,7.754,5.207,20.984,7.924,26.581,8.149,3.266.13,4.8-17.075,1.909-17.337-4.569-.409-17.541-3.3-19.16-3.754-.863-.245-4.948-12.148-8.325-19.671-3.673-8.179-6.633-5.432-6.68.3" transform="translate(40.473 22.565)" fill="#cc9c97"/>
              <path id="Trazado_772871" data-name="Trazado 772871" d="M54.3,40.192s5.314-4.277,8.8-5.659a24.117,24.117,0,0,1,11.463-1.268c4.176.537,13.9,4.725,13.185,7.735-.648,2.727-10.375-2.054-10.375-2.054s10.722,3.238,9.336,6.378-12.359-3.055-12.359-3.055,10.941,3.576,9,6.587c-1.465,2.275-11.721-2.774-11.721-2.774s9.381,3.138,7.974,5.543c-1.556,2.656-11.313-1.41-11.313-1.41-4.607,5.511-9.168,6.147-12.393,6.3-.782.036-1.6-16.32-1.6-16.32" transform="translate(55.715 33.926)" fill="#cc9c97"/>
              <path id="Trazado_772872" data-name="Trazado 772872" d="M63.916,35.3c1.272.334,2.565.665,3.8,1.112s2.464.938,3.655,1.5A22.54,22.54,0,0,1,75.8,40.53a48.5,48.5,0,0,0-8.22-3.783c-1.238-.448-2.451-.954-3.687-1.4-.032-.012-.012-.055.018-.047" transform="translate(65.544 36.216)" fill="#2e3747"/>
              <path id="Trazado_772873" data-name="Trazado 772873" d="M63.075,37.492c1.607.5,3.221.934,4.806,1.5s3.027,1.242,4.561,1.915c.118.053.051.1-.069.051-1.56-.612-3.051-1.056-4.617-1.649s-3.114-1.248-4.694-1.783c-.026-.008-.01-.045.014-.036" transform="translate(64.688 38.466)" fill="#2e3747"/>
              <path id="Trazado_772874" data-name="Trazado 772874" d="M62.03,39.246A37.691,37.691,0,0,1,69.2,42.1c.113.057.022.107-.1.057-2.366-.995-4.214-1.793-7.1-2.828-.043-.016-.028-.1.024-.087" transform="translate(63.594 40.266)" fill="#2e3747"/>
              <path id="Trazado_772875" data-name="Trazado 772875" d="M69.258,71.217l2.865-21.125L55.506,47.1c-2.431-6.333-7.3-18.994-9.634-23.121-2.743-4.84-6.285-3.252-6.7,2.4C38.23,39.315,41.648,60.041,43.6,62.624c2.8,3.7,25.656,8.592,25.656,8.592" transform="translate(40.028 21.657)" fill="#e6b046"/>
              <path id="Trazado_772876" data-name="Trazado 772876" d="M52.418,52.652c-.065-1.333.577-6.816.754-8.179.172-1.335,1.064-6.809,1.248-8.209.01-.077.122-.085.113-.006-.16,1.388-.622,6.911-.784,8.274s-.871,6.828-1.26,8.126a.036.036,0,0,1-.071-.006" transform="translate(53.778 37.144)" fill="#2e3747"/>
              <path id="Trazado_772877" data-name="Trazado 772877" d="M56.516,62.442c-4.36-1.457-9.19-2.451-12.853-5.377-3.08-5.772-3.08-12.732-3.914-19.105-.346-3.71-.612-7.427-.729-11.151.669,7.415,1.331,14.839,2.526,22.177.541,2.658.821,5.6,2.312,7.908,3.6,2.869,8.361,4.014,12.659,5.549" transform="translate(40.035 27.506)" fill="#2e3747"/>
              <path id="Trazado_772878" data-name="Trazado 772878" d="M39.367,29.411a4.831,4.831,0,0,1-.513-2.04,20.855,20.855,0,0,1,.513,2.04" transform="translate(39.865 28.083)" fill="#2e3747"/>
              <path id="Trazado_772879" data-name="Trazado 772879" d="M44.167,26.535c1.653,3.6,3.092,7.764,4.591,11.449l.788,1.892c.375.764.182,1.033,1.191,1.2,5.337,1.238,10.75,2.2,16.109,3.4,0,.014-.085.567-.085.583l.045-.573.014.02c-5.584-.934-11.147-1.939-16.684-3.148-.64-.093-.75-.831-1-1.3l-.756-1.921c-1.4-3.726-2.847-7.883-4.208-11.6" transform="translate(45.317 27.226)" fill="#2e3747"/>
              <path id="Trazado_772880" data-name="Trazado 772880" d="M44.519,26.769a5.531,5.531,0,0,1,.306,2.241c-.105-.746-.269-1.479-.306-2.241" transform="translate(45.678 27.466)" fill="#2e3747"/>
            </g>
          </g>
        </g>
      </g>
      <g id="Rectángulo_364367" data-name="Rectángulo 364367" transform="translate(189 17643.031)" fill="#636363" stroke="#707070" stroke-width="1" opacity="0.54">
        <rect width="391" height="6" stroke="none"/>
        <rect x="0.5" y="0.5" width="390" height="5" fill="none"/>
      </g>
    </g>
  </g>
</svg>
