<svg xmlns="http://www.w3.org/2000/svg" xmlns:xlink="http://www.w3.org/1999/xlink" width="99" height="87" viewBox="0 0 99 87">
  <defs>
    <clipPath id="clip-path">
      <rect id="Rectángulo_364293" data-name="Rectángulo 364293" width="99" height="87" transform="translate(0 -0.095)" fill="#fff"/>
    </clipPath>
  </defs>
  <g id="Grupo_1031632" data-name="Grupo 1031632" transform="translate(0 0.095)" clip-path="url(#clip-path)">
    <path id="Trazado_772692" data-name="Trazado 772692" d="M0,180.255a13.332,13.332,0,0,1,.626-1.882,5.9,5.9,0,0,1,5.435-3.509c3.679-.065,7.36-.017,11.04-.016.082,0,.163.01.321.02-.144.123-.231.194-.314.269-.947.844-1.887,1.7-2.847,2.525a1.1,1.1,0,0,1-.64.275c-2.379.019-4.759.01-7.138.012A3.12,3.12,0,0,0,3.1,181.316q0,24.452,0,48.9v.462H96.195c.008-.161.022-.318.022-.474q0-24.43,0-48.86a3.127,3.127,0,0,0-3.39-3.4c-2.305,0-4.611-.008-6.917.007a1.188,1.188,0,0,1-.917-.388c-.838-.808-1.727-1.564-2.6-2.338a1.486,1.486,0,0,1-.364-.383h.456q5.276,0,10.552,0a6.205,6.205,0,0,1,6.183,5.071c.023.114.065.224.1.336v54.36a1.988,1.988,0,0,0-.087.248,6.19,6.19,0,0,1-6.368,5.161q-15.532,0-31.064,0c-.156,0-.312.015-.477.023v3.082h.552c2.378,0,4.756-.006,7.134,0a1.549,1.549,0,0,1,1.552,1.941,1.765,1.765,0,0,1-1.128,1.159H29.885a.39.39,0,0,0-.069-.055,1.565,1.565,0,0,1,.67-3.047h7.505v-3.106H6.322A6.2,6.2,0,0,1,.1,234.951c-.023-.114-.066-.224-.1-.336v-54.36m96.186,53.6H3.113c.009.154.008.272.024.387a3.143,3.143,0,0,0,3.411,2.683H92.774c.177,0,.355,0,.532-.01a3.066,3.066,0,0,0,2.88-3.06m-38.022,6.2H41.156V243.1H58.165Z" transform="translate(0 -159.327)" fill="#fff"/>
    <path id="Trazado_772693" data-name="Trazado 772693" d="M168.858,0c.752.145,1.514.254,2.255.443a13.022,13.022,0,0,1,5.979,3.4,2.4,2.4,0,0,1,.219.29c4.647-3.8,9.724-4.815,15.1-2.12s7.657,7.334,7.389,13.315c.652.089,1.33.135,1.987.278,6.538,1.424,10.859,5.34,12.378,11.846,1.495,6.4-.589,11.792-5.725,15.9a14.815,14.815,0,0,1-9.521,3.206h-3.443c.149-.273.275-.483.381-.7.328-.678.668-1.351.963-2.043a.525.525,0,0,1,.555-.364,29.019,29.019,0,0,0,4.145-.278,12.489,12.489,0,1,0-5.6-24.337l-.513.125a10.2,10.2,0,0,0-.061-10.135A9.861,9.861,0,0,0,190.1,4.337a10.3,10.3,0,0,0-12.883,5.146,10.247,10.247,0,0,0-7.549-6.18,9.877,9.877,0,0,0-6.79,1.011,10.222,10.222,0,0,0-5.416,9.18,10.259,10.259,0,0,0,1.628,5.382l-1.049-.21A12.495,12.495,0,1,0,154,43.32a14.941,14.941,0,0,0,2.077.128c3.488.013,6.976.006,10.464.006h.5a3.027,3.027,0,0,1-.193.288,5.913,5.913,0,0,0-1.307,2.438c-.07.271-.177.382-.476.381-3.266-.012-6.533.038-9.8-.021a15.6,15.6,0,0,1-1.106-31.117,1.876,1.876,0,0,0,.222-.044c0-.991-.053-1.95.009-2.9A13.33,13.33,0,0,1,166.041.1a4.261,4.261,0,0,0,.423-.1Z" transform="translate(-127.711)" fill="#fff"/>
    <path id="Trazado_772694" data-name="Trazado 772694" d="M379.821,237.593a6.925,6.925,0,0,0,4.317-6.475,7.459,7.459,0,0,0-14.529-1.694,7.925,7.925,0,0,0-.26,1.746,3.115,3.115,0,0,1-3.333,3.194c-1.315,0-2.63.005-3.945,0a3.031,3.031,0,0,1-3.163-3.2,16.724,16.724,0,0,1,9.468-15.133A18.08,18.08,0,0,1,390.4,220.15a16.864,16.864,0,0,1-.515,22.793,17.919,17.919,0,0,1-9.6,5.252.516.516,0,0,0-.5.483,2.928,2.928,0,0,1-2.065,2.387,3.014,3.014,0,0,1-3.126-.693q-2.811-2.541-5.622-5.083a3.124,3.124,0,0,1,.168-5.068c1.814-1.421,3.637-2.831,5.446-4.26a3.116,3.116,0,0,1,5.167,1.493,1.252,1.252,0,0,0,.07.139m-3.079,7.911a.676.676,0,0,1,.135-.058c.1-.008.206-.01.309-.014a14.918,14.918,0,0,0,10.057-4.23,13.774,13.774,0,0,0,1.792-17.752,15.008,15.008,0,0,0-15.644-5.986,14.383,14.383,0,0,0-11.241,11.8c-.1.645-.115,1.3-.17,1.962h4.23c.018-.25.034-.47.049-.689a9.367,9.367,0,0,1,1.233-4.079,10.738,10.738,0,0,1,14.662-3.861,9.965,9.965,0,0,1,4.986,10.139,10.265,10.265,0,0,1-8.364,8.439c-.657.115-1.328.155-2.062.238v-3.167l-5.836,4.569,5.866,5.308Z" transform="translate(-327.079 -194.977)" fill="#fff"/>
    <path id="Trazado_772695" data-name="Trazado 772695" d="M280.965,673.8h25.45a1.553,1.553,0,1,1,.265,3.1c-.117.01-.236,0-.355,0H255.6c-1.15,0-1.873-.694-1.783-1.71a1.521,1.521,0,0,1,1.385-1.383c.206-.016.414-.007.62-.007h25.14" transform="translate(-231.304 -614.05)" fill="#fff"/>
  </g>
</svg>
