<svg xmlns="http://www.w3.org/2000/svg" xmlns:xlink="http://www.w3.org/1999/xlink" width="130.086" height="99.315" viewBox="0 0 130.086 99.315">
  <defs>
    <clipPath id="clip-path">
      <path id="Trazado_772912" data-name="Trazado 772912" d="M64.4,0l-11,11.776v42.3a45.122,45.122,0,1,0,90.244,0v-42.3L134.282,0Z" transform="translate(-53.398)" fill="#373f51"/>
    </clipPath>
    <clipPath id="clip-path-2">
      <path id="Trazado_772913" data-name="Trazado 772913" d="M51.989,0l9.953,14.22h90.244L162.14,0Z" transform="translate(-51.989 0)" fill="#262e40"/>
    </clipPath>
    <clipPath id="clip-path-3">
      <path id="Trazado_772914" data-name="Trazado 772914" d="M60.544,0a9.994,9.994,0,0,0-9.967,10.116v4.1H70.5v-4.1A9.988,9.988,0,0,0,60.544,0Z" transform="translate(-50.577)" fill="#111827"/>
    </clipPath>
    <clipPath id="clip-path-4">
      <path id="Trazado_772915" data-name="Trazado 772915" d="M76.133,0a9.988,9.988,0,0,0-9.96,10.116v4.1H86.094v-4.1A9.983,9.983,0,0,0,76.133,0Z" transform="translate(-66.173)" fill="#111827"/>
    </clipPath>
  </defs>
  <g id="Grupo_1034060" data-name="Grupo 1034060" transform="translate(-580.503 -6363.172)">
    <g id="Grupo_1031857" data-name="Grupo 1031857" transform="translate(580.503 6363.172)">
      <g id="Grupo_1031853" data-name="Grupo 1031853">
        <g id="Grupo_1031834" data-name="Grupo 1031834" transform="translate(19.928)">
          <g id="Grupo_1031833" data-name="Grupo 1031833" clip-path="url(#clip-path)">
            <rect id="Rectángulo_364436" data-name="Rectángulo 364436" width="90.244" height="99.315" transform="translate(0 0.003)" fill="#373f51"/>
          </g>
        </g>
        <g id="Grupo_1031836" data-name="Grupo 1031836" transform="translate(9.975 0.003)">
          <g id="Grupo_1031835" data-name="Grupo 1031835" clip-path="url(#clip-path-2)">
            <rect id="Rectángulo_364437" data-name="Rectángulo 364437" width="110.151" height="14.22" transform="translate(0 0)" fill="#262e40"/>
          </g>
        </g>
        <g id="Grupo_1031838" data-name="Grupo 1031838">
          <g id="Grupo_1031837" data-name="Grupo 1031837" clip-path="url(#clip-path-3)">
            <rect id="Rectángulo_364438" data-name="Rectángulo 364438" width="19.928" height="14.22" transform="translate(0 0.003)" fill="#111827"/>
          </g>
        </g>
      </g>
      <g id="Grupo_1031840" data-name="Grupo 1031840" transform="translate(110.165)">
        <g id="Grupo_1031839" data-name="Grupo 1031839" clip-path="url(#clip-path-4)">
          <rect id="Rectángulo_364439" data-name="Rectángulo 364439" width="19.921" height="14.22" transform="translate(0 0.003)" fill="#111827"/>
        </g>
      </g>
    </g>
    <path id="Trazado_782957" data-name="Trazado 782957" d="M25.988,23.541q0,5.186-2.329,8a8.049,8.049,0,0,1-6.565,2.813,8.092,8.092,0,0,1-6.609-2.83q-2.338-2.83-2.338-7.98V18.865q0-5.186,2.329-8a8.069,8.069,0,0,1,6.583-2.812,8.072,8.072,0,0,1,6.592,2.83q2.338,2.83,2.338,8Zm-5.924-5.432a9.128,9.128,0,0,0-.721-4.122,2.409,2.409,0,0,0-2.285-1.362,2.352,2.352,0,0,0-2.224,1.266,8.6,8.6,0,0,0-.747,3.832v6.539a9.2,9.2,0,0,0,.721,4.192,2.418,2.418,0,0,0,2.285,1.327,2.386,2.386,0,0,0,2.232-1.292,8.78,8.78,0,0,0,.738-4.052ZM43.373,8.037V12.7h-.264a8.893,8.893,0,0,0-5.458,1.591,6.717,6.717,0,0,0-2.628,4.421,6.927,6.927,0,0,1,5.063-1.969,6.461,6.461,0,0,1,5.291,2.426,9.784,9.784,0,0,1,1.969,6.363,8.959,8.959,0,0,1-1.151,4.482,8.215,8.215,0,0,1-3.217,3.19A9.244,9.244,0,0,1,38.4,34.352a9.553,9.553,0,0,1-4.869-1.239,8.52,8.52,0,0,1-3.34-3.542,11.663,11.663,0,0,1-1.23-5.309V21.889a14.775,14.775,0,0,1,1.7-7.11A12.3,12.3,0,0,1,35.5,9.83a13.846,13.846,0,0,1,6.979-1.793ZM38.029,21.309a3.4,3.4,0,0,0-1.969.543,3.45,3.45,0,0,0-1.178,1.33V24.95q0,4.832,3.357,4.832A2.727,2.727,0,0,0,40.5,28.573a4.909,4.909,0,0,0,.905-3.028,4.818,4.818,0,0,0-.923-3.055A2.956,2.956,0,0,0,38.029,21.309Z" transform="translate(618 6390)" fill="#fff"/>
  </g>
</svg>
