<svg id="Grupo_1026142" data-name="Grupo 1026142" xmlns="http://www.w3.org/2000/svg" xmlns:xlink="http://www.w3.org/1999/xlink" width="809" height="360.833" viewBox="0 0 809 360.833">
  <defs>
    <clipPath id="clip-path">
      <rect id="Rectángulo_361946" data-name="Rectángulo 361946" width="129" height="59" transform="translate(0)" fill="#5573c6" stroke="#707070" stroke-width="1"/>
    </clipPath>
    <clipPath id="clip-path-2">
      <rect id="Rectángulo_361947" data-name="Rectángulo 361947" width="129" height="59" fill="#4adbd1" stroke="#707070" stroke-width="1"/>
    </clipPath>
  </defs>
  <path id="Trazado_766848" data-name="Trazado 766848" d="M22,0H787a22,22,0,0,1,22,22V338.833a22,22,0,0,1-22,22H22a22,22,0,0,1-22-22V22A22,22,0,0,1,22,0Z" transform="translate(0)" fill="#f6f6f6"/>
  <g id="Grupo_1026139" data-name="Grupo 1026139" transform="translate(643.891)" opacity="0.2" clip-path="url(#clip-path)">
    <g id="Grupo_1026138" data-name="Grupo 1026138" transform="translate(3 -68)">
      <path id="Sustracción_36" data-name="Sustracción 36" d="M62.5,0A62.962,62.962,0,0,0,49.9,1.27a62.158,62.158,0,0,0-22.348,9.4,62.682,62.682,0,0,0-22.644,27.5A62.187,62.187,0,0,0,1.27,49.9a63.11,63.11,0,0,0,0,25.192,62.158,62.158,0,0,0,9.4,22.348,62.682,62.682,0,0,0,27.5,22.644A62.188,62.188,0,0,0,49.9,123.73a63.11,63.11,0,0,0,25.192,0,62.158,62.158,0,0,0,22.348-9.4,62.682,62.682,0,0,0,22.644-27.5A62.188,62.188,0,0,0,123.73,75.1a63.11,63.11,0,0,0,0-25.192,62.158,62.158,0,0,0-9.4-22.348,62.682,62.682,0,0,0-27.5-22.644A62.187,62.187,0,0,0,75.1,1.27,62.962,62.962,0,0,0,62.5,0Zm-.233,95.339a32.846,32.846,0,0,1-6.571-.662A32.428,32.428,0,0,1,44.037,89.77,32.7,32.7,0,0,1,32.224,75.425a32.441,32.441,0,0,1-1.9-6.121,32.924,32.924,0,0,1,0-13.143A32.427,32.427,0,0,1,35.23,44.5,32.7,32.7,0,0,1,49.575,32.689a32.441,32.441,0,0,1,6.121-1.9,32.924,32.924,0,0,1,13.142,0A32.428,32.428,0,0,1,80.5,35.7,32.7,32.7,0,0,1,92.311,50.041a32.44,32.44,0,0,1,1.9,6.121,32.924,32.924,0,0,1,0,13.143A32.428,32.428,0,0,1,89.3,80.963,32.7,32.7,0,0,1,74.959,92.777a32.44,32.44,0,0,1-6.12,1.9A32.846,32.846,0,0,1,62.267,95.339Z" fill="#5573c6"/>
    </g>
  </g>
  <line id="Línea_3521" data-name="Línea 3521" y2="118.993" transform="translate(787.973 206.084)" fill="none" stroke="#31313c" stroke-linecap="round" stroke-width="4" stroke-dasharray="8" opacity="0.61"/>
  <g id="Grupo_1026141" data-name="Grupo 1026141" transform="translate(809 217.728) rotate(90)" opacity="0.2" clip-path="url(#clip-path-2)">
    <g id="Grupo_1026140" data-name="Grupo 1026140" transform="translate(3 -68)">
      <path id="Sustracción_37" data-name="Sustracción 37" d="M62.5,0A62.962,62.962,0,0,0,49.9,1.27a62.158,62.158,0,0,0-22.348,9.4,62.682,62.682,0,0,0-22.644,27.5A62.187,62.187,0,0,0,1.27,49.9a63.11,63.11,0,0,0,0,25.192,62.158,62.158,0,0,0,9.4,22.348,62.682,62.682,0,0,0,27.5,22.644A62.188,62.188,0,0,0,49.9,123.73a63.11,63.11,0,0,0,25.192,0,62.158,62.158,0,0,0,22.348-9.4,62.682,62.682,0,0,0,22.644-27.5A62.188,62.188,0,0,0,123.73,75.1a63.11,63.11,0,0,0,0-25.192,62.158,62.158,0,0,0-9.4-22.348,62.682,62.682,0,0,0-27.5-22.644A62.187,62.187,0,0,0,75.1,1.27,62.962,62.962,0,0,0,62.5,0Zm-.233,95.339a32.846,32.846,0,0,1-6.571-.662A32.428,32.428,0,0,1,44.037,89.77,32.7,32.7,0,0,1,32.224,75.425a32.441,32.441,0,0,1-1.9-6.121,32.924,32.924,0,0,1,0-13.143A32.427,32.427,0,0,1,35.23,44.5,32.7,32.7,0,0,1,49.575,32.689a32.441,32.441,0,0,1,6.121-1.9,32.924,32.924,0,0,1,13.142,0A32.428,32.428,0,0,1,80.5,35.7,32.7,32.7,0,0,1,92.311,50.041a32.44,32.44,0,0,1,1.9,6.121,32.924,32.924,0,0,1,0,13.143A32.428,32.428,0,0,1,89.3,80.963,32.7,32.7,0,0,1,74.959,92.777a32.44,32.44,0,0,1-6.12,1.9A32.846,32.846,0,0,1,62.267,95.339Z" fill="#4adbd1"/>
    </g>
  </g>
</svg>
