<svg xmlns="http://www.w3.org/2000/svg" width="50" height="50" viewBox="0 0 50 50">
  <g id="Grupo_1034049" data-name="Grupo 1034049" transform="translate(-265 -15254)">
    <circle id="Elipse_8591" data-name="Elipse 8591" cx="25" cy="25" r="25" transform="translate(265 15254)" fill="#5573c6"/>
    <path id="Trazado_766902" data-name="Trazado 766902" d="M174.726,206.736c3.883-3.889,7.6-7.633,11.346-11.35,1.423-1.413,3.455-1.155,4.237.495a2.338,2.338,0,0,1-.431,2.814q-6.643,6.7-13.345,13.346a2.412,2.412,0,0,1-3.623-.067q-3.222-3.136-6.36-6.359a2.521,2.521,0,1,1,3.556-3.571c1.544,1.5,3.021,3.061,4.62,4.691" transform="translate(111.838 15075.353)" fill="#12263f"/>
  </g>
</svg>
