<svg id="Grupo_1033900" data-name="Grupo 1033900" xmlns="http://www.w3.org/2000/svg" xmlns:xlink="http://www.w3.org/1999/xlink" width="632.533" height="406.373" viewBox="0 0 632.533 406.373">
  <defs>
    <clipPath id="clip-path">
      <rect id="Rectángulo_366583" data-name="Rectángulo 366583" width="632.533" height="406.373" fill="none"/>
    </clipPath>
    <clipPath id="clip-path-3">
      <rect id="Rectángulo_366577" data-name="Rectángulo 366577" width="125.684" height="46.936" fill="none"/>
    </clipPath>
    <clipPath id="clip-path-4">
      <rect id="Rectángulo_366578" data-name="Rectángulo 366578" width="129.427" height="69.335" fill="none"/>
    </clipPath>
    <linearGradient id="linear-gradient" x1="0.5" x2="0.5" y2="1" gradientUnits="objectBoundingBox">
      <stop offset="0" stop-color="#3ab4b1"/>
      <stop offset="1" stop-color="#1a0f91"/>
    </linearGradient>
    <clipPath id="clip-path-5">
      <rect id="Rectángulo_366579" data-name="Rectángulo 366579" width="60.781" height="60.778" fill="none"/>
    </clipPath>
    <clipPath id="clip-path-6">
      <rect id="Rectángulo_366580" data-name="Rectángulo 366580" width="36.127" height="60.714" fill="none"/>
    </clipPath>
    <clipPath id="clip-path-7">
      <rect id="Rectángulo_366581" data-name="Rectángulo 366581" width="125.684" height="46.943" fill="none"/>
    </clipPath>
    <radialGradient id="radial-gradient" cx="0.5" cy="0.5" r="0.5" gradientUnits="objectBoundingBox">
      <stop offset="0" stop-color="#fff"/>
      <stop offset="1" stop-color="#91b3fa"/>
    </radialGradient>
  </defs>
  <g id="Grupo_1033899" data-name="Grupo 1033899" clip-path="url(#clip-path)">
    <g id="Grupo_1033898" data-name="Grupo 1033898">
      <g id="Grupo_1033897" data-name="Grupo 1033897" clip-path="url(#clip-path)">
        <path id="Trazado_782527" data-name="Trazado 782527" d="M556.045,20.016a10.008,10.008,0,1,1,9.995-10.009,10.018,10.018,0,0,1-9.995,10.009m-425,239.977H77.562a52.331,52.331,0,1,0,0,104.661H529.737a84.99,84.99,0,0,0,84.75-84.738v-.005a84.99,84.99,0,0,0-84.75-84.738,35.825,35.825,0,0,1,0-71.649h43.126a37.252,37.252,0,0,0,0-74.5H518.335a14.5,14.5,0,0,1,0-29h9.626a10.008,10.008,0,0,0,0-20.016H464.883c-13.288,0-14.76,15.69-48.315,15.69H338.76a13.061,13.061,0,0,0,0,26.122H351.3a18.921,18.921,0,1,1,0,37.842H313.555c-50.972,0-58.167,13.32-67.1,39.821S191.17,148.1,191.17,148.1H127.778a28.518,28.518,0,1,0,0,57.035h3.264a27.43,27.43,0,0,1,0,54.859" transform="translate(-3.591)" fill="#e5e5e5" fill-rule="evenodd"/>
        <path id="Trazado_782528" data-name="Trazado 782528" d="M316.265,441.524c174.666,0,316.268,6.2,316.268,13.856s-141.6,13.852-316.268,13.852S0,463.025,0,455.38s141.587-13.856,316.265-13.856" transform="translate(0 -62.858)" fill="#ddd" fill-rule="evenodd"/>
        <path id="Trazado_782529" data-name="Trazado 782529" d="M457.788,50.087l-3.928,2.275a2.8,2.8,0,0,0-1.01,3.81l.876,1.488c1.009,1.751.574,2.548.253,2.833-.876.783-1.684,1.626-2.495,2.476-.238.245-1,1.1-2.985-.066l-1.369-.79a2.8,2.8,0,0,0-3.81,1l-2.27,3.923a2.781,2.781,0,0,0,1,3.8l1.353.791c1.871,1.081,1.831,1.645,1.591,2.436-.33,1.088-.677,2.177-.914,3.305-.212,1-.119,1.718-2.655,1.718h-1.564a2.782,2.782,0,0,0-2.774,2.781V86.41a2.782,2.782,0,0,0,2.774,2.781h1.564c2.536,0,2.443.717,2.655,1.719.238,1.129.584,2.216.914,3.3.24.791.28,1.347-1.591,2.436l-1.353.784a2.782,2.782,0,0,0-1,3.8l2.27,3.93a2.8,2.8,0,0,0,3.81,1.009l1.369-.8c1.989-1.162,2.748-.312,2.985-.067.811.843,1.619,1.7,2.495,2.475.321.286.756,1.076-.253,2.834l-.876,1.486a2.785,2.785,0,0,0,1.01,3.8l3.928,2.283a2.782,2.782,0,0,0,3.8-1.01l.863-1.479c1.035-1.785,2.058-1.713,2.494-1.58,1.248.4,2.4.658,3.691,1,.478.119,1.286.465,1.286,2.588V119.3a2.789,2.789,0,0,0,2.774,2.78h4.54a2.8,2.8,0,0,0,2.789-2.78v-1.593c0-2.123.8-2.469,1.274-2.588,1.288-.338,2.441-.6,3.69-1,.437-.133,1.46-.2,2.495,1.58l.863,1.479a2.781,2.781,0,0,0,3.8,1.01l3.929-2.283a2.785,2.785,0,0,0,1.009-3.8l-.863-1.486c-1.039-1.758-.584-2.549-.268-2.834.878-.776,1.689-1.632,2.5-2.475.24-.245.994-1.1,2.985.067l1.366.8a2.807,2.807,0,0,0,3.812-1.009l2.283-3.93a2.8,2.8,0,0,0-1.009-3.8l-1.356-.784c-1.87-1.088-1.828-1.645-1.592-2.436.331-1.088.677-2.176.915-3.3.214-1,.121-1.719,2.654-1.719h1.568a2.784,2.784,0,0,0,2.775-2.781V81.87a2.784,2.784,0,0,0-2.775-2.781H508.5c-2.533,0-2.44-.715-2.654-1.718-.238-1.129-.584-2.217-.915-3.305-.237-.791-.278-1.354,1.592-2.436l1.356-.791a2.8,2.8,0,0,0,1.009-3.8l-2.283-3.923a2.8,2.8,0,0,0-3.812-1l-1.366.79c-1.991,1.161-2.745.311-2.985.066-.809-.85-1.619-1.693-2.5-2.476-.316-.285-.77-1.081.268-2.833l.863-1.488a2.8,2.8,0,0,0-1.009-3.81l-3.929-2.275a2.785,2.785,0,0,0-3.8,1l-.863,1.486c-1.035,1.785-2.058,1.712-2.495,1.573-1.25-.4-2.4-.658-3.69-.989-.478-.126-1.274-.466-1.274-2.588V48.978a2.8,2.8,0,0,0-2.789-2.78h-4.54a2.785,2.785,0,0,0-2.774,2.78v1.593c0,2.123-.808,2.462-1.286,2.588-1.286.331-2.443.59-3.691.989-.436.139-1.459.212-2.494-1.573l-.863-1.486a2.785,2.785,0,0,0-3.8-1m17.178,28.06a5.993,5.993,0,1,1-5.987,5.993,6,6,0,0,1,5.987-5.993m-18.784,5.993a1.281,1.281,0,0,1,2.562,0,16.225,16.225,0,0,0,16.222,16.22,1.281,1.281,0,1,1,0,2.562,18.794,18.794,0,0,1-18.784-18.781m37.312-3.027a1.277,1.277,0,0,1-2.521.406,16.213,16.213,0,0,0-13.224-13.361,1.279,1.279,0,1,1,.426-2.521,18.785,18.785,0,0,1,15.318,15.477M474.965,61.887a22.253,22.253,0,1,1-22.248,22.254,22.259,22.259,0,0,1,22.248-22.254" transform="translate(-62.226 -6.577)" fill="#fff" fill-rule="evenodd"/>
        <path id="Trazado_782530" data-name="Trazado 782530" d="M202.793,249.98V208.015a2.48,2.48,0,0,0-2.469-2.476H78.633c-1.354,0-3.477,1.116-3.477,2.476v44.214a2.487,2.487,0,0,0,2.482,2.477H197.086c4.525,0,5.708-3.36,5.708-4.726" transform="translate(-10.7 -29.262)" fill="#ce8125" fill-rule="evenodd"/>
        <path id="Trazado_782531" data-name="Trazado 782531" d="M203.117,249.978V208a2.479,2.479,0,0,0-2.469-2.476H79.912A2.484,2.484,0,0,0,77.433,208v41.978a2.486,2.486,0,0,0,2.479,2.482H200.648a2.485,2.485,0,0,0,2.469-2.482" transform="translate(-11.024 -29.26)" fill="#e2ddd7" fill-rule="evenodd"/>
        <path id="Trazado_782532" data-name="Trazado 782532" d="M201.6,250.28V208.3a.655.655,0,0,0-.651-.658H80.216a.66.66,0,0,0-.651.658V250.28a.654.654,0,0,0,.651.656H200.952a.654.654,0,0,0,.651-.656m-1.834-1.162H81.383V209.47H199.769Z" transform="translate(-11.327 -29.562)" fill="#f4a338" fill-rule="evenodd"/>
        <path id="Trazado_782533" data-name="Trazado 782533" d="M202.929,249.95V207.973a2.63,2.63,0,0,0-.769-1.858v-.006a2.638,2.638,0,0,0-1.859-.776H79.564a1.58,1.58,0,0,0-.253.019h-.7a4.626,4.626,0,0,0-2.508.87,2.277,2.277,0,0,0-1.116,1.765V252.2a2.646,2.646,0,0,0,2.629,2.635H197.061a6.137,6.137,0,0,0,4.05-1.294,5.089,5.089,0,0,0,1.818-3.383v-.207ZM78.252,205.69a2.46,2.46,0,0,0-.545.419v.006a2.568,2.568,0,0,0-.782,1.858V249.95a2.659,2.659,0,0,0,2.639,2.64H200.3a2.606,2.606,0,0,0,1.751-.677,4.765,4.765,0,0,1-1.142,1.382,5.786,5.786,0,0,1-3.848,1.221H77.614a2.326,2.326,0,0,1-2.322-2.316V207.986a2.007,2.007,0,0,1,.995-1.506,4.525,4.525,0,0,1,1.965-.79m1.075-.027H200.3a2.312,2.312,0,0,1,1.632.684,2.284,2.284,0,0,1,.677,1.639v42.089a2.283,2.283,0,0,1-.677,1.521,2.33,2.33,0,0,1-1.632.677H79.564a2.332,2.332,0,0,1-2.322-2.322V207.973a2.307,2.307,0,0,1,.69-1.639,2.28,2.28,0,0,1,1.395-.672" transform="translate(-10.675 -29.232)" fill="#ce8125" fill-rule="evenodd"/>
        <g id="Grupo_1033884" data-name="Grupo 1033884" transform="translate(66.409 176.264)" opacity="0.25">
          <g id="Grupo_1033883" data-name="Grupo 1033883">
            <g id="Grupo_1033882" data-name="Grupo 1033882" clip-path="url(#clip-path-3)">
              <path id="Trazado_782534" data-name="Trazado 782534" d="M203.117,239.192c-16.338,5.966-35.548,6.7-47.651-1.56-23.921-16.292-16.447-.744-51.344-7.094-16.5-3.007-19.485-14.494-23.572-25.014h-.638A2.484,2.484,0,0,0,77.433,208v41.978a2.486,2.486,0,0,0,2.479,2.482H200.648a2.485,2.485,0,0,0,2.469-2.482Z" transform="translate(-77.433 -205.524)" fill="#cc9a5e" fill-rule="evenodd"/>
            </g>
          </g>
        </g>
        <path id="Trazado_782535" data-name="Trazado 782535" d="M108.127,217.782h73.682a1.268,1.268,0,0,1,0,2.535H108.127a1.268,1.268,0,0,1,0-2.535" transform="translate(-15.214 -31.005)" fill="#f4a338" fill-rule="evenodd"/>
        <path id="Trazado_782536" data-name="Trazado 782536" d="M91.58,224.608H193.641a1.268,1.268,0,0,1,0,2.535H91.58a1.268,1.268,0,1,1,0-2.535" transform="translate(-12.857 -31.977)" fill="#f4a338" fill-rule="evenodd"/>
        <path id="Trazado_782537" data-name="Trazado 782537" d="M91.58,231.433H193.641a1.268,1.268,0,0,1,0,2.535H91.58a1.268,1.268,0,1,1,0-2.535" transform="translate(-12.857 -32.948)" fill="#f4a338" fill-rule="evenodd"/>
        <path id="Trazado_782538" data-name="Trazado 782538" d="M145.8,82.969l-4.05,2.355a2.884,2.884,0,0,0-1.048,3.937l.889,1.539c1.063,1.819.6,2.642.279,2.934-.914.81-1.736,1.693-2.587,2.562-.238.258-1.023,1.135-3.092-.067l-1.408-.823a2.9,2.9,0,0,0-3.941,1.049l-2.363,4.057a2.9,2.9,0,0,0,1.048,3.935l1.393.81c1.939,1.129,1.885,1.706,1.647,2.521-.346,1.129-.692,2.25-.943,3.419-.225,1.035-.118,1.778-2.748,1.778h-1.619a2.89,2.89,0,0,0-2.88,2.882v4.691a2.89,2.89,0,0,0,2.88,2.881h1.619c2.63,0,2.523.743,2.748,1.778.251,1.161.6,2.29.943,3.419.238.822.292,1.4-1.647,2.522l-1.393.816a2.894,2.894,0,0,0-1.048,3.928l2.363,4.062A2.9,2.9,0,0,0,134.778,141l1.408-.824c2.069-1.2,2.853-.317,3.092-.066.852.876,1.673,1.753,2.587,2.561.32.293.785,1.116-.279,2.934l-.889,1.539a2.88,2.88,0,0,0,1.048,3.936l4.05,2.357a2.9,2.9,0,0,0,3.942-1.042l.888-1.533c1.077-1.845,2.125-1.772,2.577-1.633,1.286.413,2.479.677,3.822,1.029.491.124,1.328.485,1.328,2.681v1.647a2.872,2.872,0,0,0,2.866,2.872h4.7a2.884,2.884,0,0,0,2.879-2.872v-1.647c0-2.2.837-2.557,1.328-2.681,1.328-.353,2.523-.617,3.822-1.029.452-.139,1.5-.212,2.578,1.633l.888,1.533a2.894,2.894,0,0,0,3.942,1.042l4.05-2.357a2.891,2.891,0,0,0,1.048-3.936l-.9-1.539c-1.048-1.818-.6-2.641-.263-2.934.9-.808,1.736-1.685,2.573-2.561.253-.251,1.038-1.135,3.093.066l1.42.824a2.882,2.882,0,0,0,3.929-1.044l2.363-4.062a2.879,2.879,0,0,0-1.035-3.928l-1.407-.816c-1.937-1.123-1.886-1.7-1.646-2.522.344-1.129.7-2.257.956-3.419.211-1.035.121-1.778,2.748-1.778h1.6a2.881,2.881,0,0,0,2.882-2.881v-4.691a2.881,2.881,0,0,0-2.882-2.882h-1.6c-2.627,0-2.537-.743-2.748-1.778-.251-1.169-.612-2.29-.956-3.419-.24-.816-.292-1.393,1.646-2.521l1.407-.81a2.889,2.889,0,0,0,1.035-3.935L196.3,96.455a2.885,2.885,0,0,0-3.929-1.049l-1.42.823c-2.056,1.2-2.84.325-3.093.067-.837-.869-1.672-1.752-2.573-2.562-.333-.292-.785-1.115.263-2.934l.9-1.539a2.9,2.9,0,0,0-1.048-3.937l-4.05-2.355a2.893,2.893,0,0,0-3.942,1.042l-.888,1.539c-1.077,1.839-2.126,1.765-2.578,1.626-1.3-.411-2.495-.684-3.822-1.028-.491-.127-1.328-.478-1.328-2.674V81.821a2.889,2.889,0,0,0-2.879-2.873h-4.7a2.877,2.877,0,0,0-2.866,2.873v1.654c0,2.2-.837,2.547-1.328,2.674-1.343.345-2.536.617-3.822,1.028-.452.139-1.5.213-2.577-1.626l-.888-1.539a2.9,2.9,0,0,0-3.942-1.042M163.57,112a6.2,6.2,0,1,1-6.2,6.2,6.2,6.2,0,0,1,6.2-6.2m-19.432,6.2a1.328,1.328,0,0,1,2.655,0,16.777,16.777,0,0,0,16.777,16.778,1.324,1.324,0,1,1,0,2.648A19.425,19.425,0,0,1,144.138,118.2m38.612-3.132a1.313,1.313,0,0,1-1.1,1.513,1.327,1.327,0,0,1-1.51-1.1,16.776,16.776,0,0,0-13.689-13.811,1.327,1.327,0,0,1,.455-2.615,19.465,19.465,0,0,1,15.847,16.015m-19.179-19.9A23.026,23.026,0,1,1,140.553,118.2,23.033,23.033,0,0,1,163.57,95.174" transform="translate(-17.706 -11.24)" fill="#dbdbdb" fill-rule="evenodd"/>
        <path id="Trazado_782539" data-name="Trazado 782539" d="M671.6,354.276V290.053a2.561,2.561,0,0,0-2.546-2.557H543.745c-1.394,0-3.572,1.148-3.572,2.557v66.533a2.554,2.554,0,0,0,2.549,2.55h123c4.659,0,5.878-3.459,5.878-4.859" transform="translate(-76.903 -40.93)" fill="#d38424" fill-rule="evenodd"/>
        <path id="Trazado_782540" data-name="Trazado 782540" d="M671.937,354.275V290.039a2.559,2.559,0,0,0-2.546-2.55H545.059a2.553,2.553,0,0,0-2.549,2.55v64.237a2.554,2.554,0,0,0,2.549,2.549H669.391a2.561,2.561,0,0,0,2.546-2.549" transform="translate(-77.235 -40.929)" fill="#e0e1e2" fill-rule="evenodd"/>
        <path id="Trazado_782541" data-name="Trazado 782541" d="M670.366,354.586V290.35a.678.678,0,0,0-.663-.677H545.371a.67.67,0,0,0-.666.677v64.237a.668.668,0,0,0,.666.669H669.7a.676.676,0,0,0,.663-.669m-1.872-1.208H546.58V291.556H668.494Z" transform="translate(-77.548 -41.24)" fill="#f4a338" fill-rule="evenodd"/>
        <path id="Trazado_782542" data-name="Trazado 782542" d="M671.736,354.248V290.011a2.717,2.717,0,0,0-2.707-2.715H544.7a1.562,1.562,0,0,0-.253.014h-.728a4.8,4.8,0,0,0-2.578.9,2.375,2.375,0,0,0-1.167,1.818v66.533a2.712,2.712,0,0,0,.8,1.919,2.759,2.759,0,0,0,1.926.8h123a6.318,6.318,0,0,0,4.168-1.333,5.164,5.164,0,0,0,1.858-3.486.37.37,0,0,0,.013-.119v-.085ZM543.344,287.66a2.386,2.386,0,0,0-.557.431,2.7,2.7,0,0,0-.8,1.919v64.237a2.706,2.706,0,0,0,.8,1.911,2.667,2.667,0,0,0,1.911.8H669.029a2.69,2.69,0,0,0,1.805-.69,5.1,5.1,0,0,1-1.171,1.42,6.074,6.074,0,0,1-3.967,1.256h-123a2.385,2.385,0,0,1-1.686-.7,2.413,2.413,0,0,1-.7-1.687V290.023a2.056,2.056,0,0,1,1.022-1.554,4.585,4.585,0,0,1,2.02-.809m1.113-.026H669.029a2.4,2.4,0,0,1,1.684.7,2.433,2.433,0,0,1,.7,1.691v64.225l-.013.072v.046a2.385,2.385,0,0,1-2.376,2.27H544.7a2.4,2.4,0,0,1-2.392-2.389V290.011a2.363,2.363,0,0,1,.706-1.687,2.412,2.412,0,0,1,1.446-.69" transform="translate(-76.874 -40.901)" fill="#d38424" fill-rule="evenodd"/>
        <g id="Grupo_1033887" data-name="Grupo 1033887" transform="translate(465.275 246.561)" opacity="0.25">
          <g id="Grupo_1033886" data-name="Grupo 1033886">
            <g id="Grupo_1033885" data-name="Grupo 1033885" clip-path="url(#clip-path-4)">
              <path id="Trazado_782543" data-name="Trazado 782543" d="M671.937,343.157c-16.842,6.147-36.607,6.9-49.082-1.6-24.624-16.786-16.927-21.769-52.858-28.32-17-3.091-20.068-14.918-24.288-25.749h-.651a2.552,2.552,0,0,0-2.549,2.549v64.237a2.554,2.554,0,0,0,2.549,2.549H669.391a2.561,2.561,0,0,0,2.546-2.549Z" transform="translate(-542.51 -287.49)" fill="#fff" fill-rule="evenodd"/>
            </g>
          </g>
        </g>
        <path id="Trazado_782544" data-name="Trazado 782544" d="M574.116,304.784h75.87a1.305,1.305,0,0,1,1.3,1.3v.008a1.308,1.308,0,0,1-1.3,1.3h-75.87a1.308,1.308,0,0,1-1.3-1.3v-.008a1.305,1.305,0,0,1,1.3-1.3" transform="translate(-81.55 -43.391)" fill="#f4a338" fill-rule="evenodd"/>
        <path id="Trazado_782545" data-name="Trazado 782545" d="M557.074,313.43h105.1a1.3,1.3,0,0,1,1.3,1.3v.008a1.3,1.3,0,0,1-1.3,1.3h-105.1a1.3,1.3,0,0,1-1.3-1.3v-.008a1.3,1.3,0,0,1,1.3-1.3" transform="translate(-79.124 -44.622)" fill="#f4a338" fill-rule="evenodd"/>
        <path id="Trazado_782546" data-name="Trazado 782546" d="M557.074,322.073h105.1a1.3,1.3,0,0,1,1.3,1.3v.005a1.3,1.3,0,0,1-1.3,1.3h-105.1a1.3,1.3,0,0,1-1.3-1.3v-.005a1.3,1.3,0,0,1,1.3-1.3" transform="translate(-79.124 -45.853)" fill="#f4a338" fill-rule="evenodd"/>
        <path id="Trazado_782547" data-name="Trazado 782547" d="M574.116,330.709h75.87a1.3,1.3,0,0,1,0,2.609h-75.87a1.3,1.3,0,0,1,0-2.609" transform="translate(-81.55 -47.082)" fill="#f4a338" fill-rule="evenodd"/>
        <path id="Trazado_782548" data-name="Trazado 782548" d="M557.074,339.352h105.1a1.3,1.3,0,0,1,1.3,1.3v.005a1.3,1.3,0,0,1-1.3,1.3h-105.1a1.3,1.3,0,0,1-1.3-1.3v-.005a1.3,1.3,0,0,1,1.3-1.3" transform="translate(-79.124 -48.312)" fill="#f4a338" fill-rule="evenodd"/>
        <path id="Trazado_782549" data-name="Trazado 782549" d="M557.074,347.995h105.1a1.3,1.3,0,0,1,1.3,1.3v.01a1.3,1.3,0,0,1-1.3,1.3h-105.1a1.3,1.3,0,0,1-1.3-1.3v-.01a1.3,1.3,0,0,1,1.3-1.3" transform="translate(-79.124 -49.543)" fill="#f4a338" fill-rule="evenodd"/>
        <path id="Trazado_782550" data-name="Trazado 782550" d="M537.281,395.6l-346.222.519a12.525,12.525,0,0,1-12.544-12.5l-.343-233.521a12.519,12.519,0,0,1,12.5-12.545l346.227-.516a12.533,12.533,0,0,1,12.542,12.509l.346,233.52A12.514,12.514,0,0,1,537.281,395.6" transform="translate(-25.366 -19.509)" fill="#7992cc" fill-rule="evenodd"/>
        <path id="Trazado_782551" data-name="Trazado 782551" d="M527.679,384.2l-322.8.48a11.412,11.412,0,0,1-11.442-11.41l-.32-208.313A11.445,11.445,0,0,1,204.536,153.5l322.8-.478a11.429,11.429,0,0,1,11.442,11.408l.317,208.314A11.437,11.437,0,0,1,527.679,384.2" transform="translate(-27.494 -21.786)" fill="#eff9fc" fill-rule="evenodd"/>
        <path id="Trazado_782552" data-name="Trazado 782552" d="M538.706,165.257l.012,5.908-346.079.516v-5.913c-.01-6.915,4.752-12.536,12.929-12.551l320.183-.478c8.6-.013,12.94,4.315,12.955,12.517" transform="translate(-27.425 -21.745)" fill="#373f51" fill-rule="evenodd"/>
        <path id="Trazado_782553" data-name="Trazado 782553" d="M547.463,162.959a3.49,3.49,0,1,1-3.489-3.485,3.481,3.481,0,0,1,3.489,3.485m25.061-.04a3.492,3.492,0,1,1-3.492-3.484,3.494,3.494,0,0,1,3.492,3.484m-12.532.021a3.491,3.491,0,1,1-3.489-3.484,3.5,3.5,0,0,1,3.489,3.484" transform="translate(-76.947 -22.698)" fill="#fff" fill-rule="evenodd"/>
        <path id="Trazado_782554" data-name="Trazado 782554" d="M151.24,432.716H323.809a2.726,2.726,0,0,0,2.786,2.609h67.1a2.739,2.739,0,0,0,2.789-2.609H569.034v11.036A11.273,11.273,0,0,1,557.593,454.8H158.978a7.612,7.612,0,0,1-7.738-7.451Z" transform="translate(-21.532 -61.604)" fill="#5573c6" fill-rule="evenodd"/>
        <path id="Trazado_782555" data-name="Trazado 782555" d="M217.176,200.441h95.7a.988.988,0,0,1,.994.994v6.445a.987.987,0,0,1-.994.988h-95.7a1,1,0,0,1-.995-.988v-6.445a1,1,0,0,1,.995-.994" transform="translate(-30.777 -28.536)" fill="#b9c9d6" fill-rule="evenodd"/>
        <path id="Trazado_782556" data-name="Trazado 782556" d="M248.546,216.057h68.8a.987.987,0,0,1,.994.988v6.445a.993.993,0,0,1-.994,1h-68.8a1,1,0,0,1-.994-1v-6.445a1,1,0,0,1,.994-.988" transform="translate(-35.243 -30.759)" fill="#b9c9d6" fill-rule="evenodd"/>
        <path id="Trazado_782557" data-name="Trazado 782557" d="M241.366,216.057H233.8a.986.986,0,0,0-.981.988v6.445a.992.992,0,0,0,.981,1h7.568a.99.99,0,0,0,.981-1v-6.445a.983.983,0,0,0-.981-.988" transform="translate(-33.145 -30.759)" fill="#b9c9d6" fill-rule="evenodd"/>
        <path id="Trazado_782558" data-name="Trazado 782558" d="M248.546,230.512h68.8a.988.988,0,0,1,.994.989v6.446a.988.988,0,0,1-.994.994h-68.8a1,1,0,0,1-.994-.994V231.5a1,1,0,0,1,.994-.989" transform="translate(-35.243 -32.817)" fill="#b9c9d6" fill-rule="evenodd"/>
        <path id="Trazado_782559" data-name="Trazado 782559" d="M241.366,230.512H233.8a.987.987,0,0,0-.981.989v6.446a.987.987,0,0,0,.981.994h7.568a.985.985,0,0,0,.981-.994V231.5a.985.985,0,0,0-.981-.989" transform="translate(-33.145 -32.817)" fill="#b9c9d6" fill-rule="evenodd"/>
        <path id="Trazado_782560" data-name="Trazado 782560" d="M248.546,244.968h68.8a.986.986,0,0,1,.994.986V252.4a.988.988,0,0,1-.994.994h-68.8a1,1,0,0,1-.994-.994v-6.447a1,1,0,0,1,.994-.986" transform="translate(-35.243 -34.875)" fill="#b9c9d6" fill-rule="evenodd"/>
        <path id="Trazado_782561" data-name="Trazado 782561" d="M241.366,244.968H233.8a.985.985,0,0,0-.981.986V252.4a.986.986,0,0,0,.981.994h7.568a.984.984,0,0,0,.981-.994v-6.447a.983.983,0,0,0-.981-.986" transform="translate(-33.145 -34.875)" fill="#b9c9d6" fill-rule="evenodd"/>
        <path id="Trazado_782562" data-name="Trazado 782562" d="M217.176,264.554h95.7a.987.987,0,0,1,.994.986v6.447a.988.988,0,0,1-.994.994h-95.7a1,1,0,0,1-.995-.994V265.54a1,1,0,0,1,.995-.986" transform="translate(-30.777 -37.664)" fill="#b9c9d6" fill-rule="evenodd"/>
        <path id="Trazado_782563" data-name="Trazado 782563" d="M248.546,280.16h68.8a.989.989,0,0,1,.994.991V287.6a.992.992,0,0,1-.994.995h-68.8a1,1,0,0,1-.994-.995v-6.449a1,1,0,0,1,.994-.991" transform="translate(-35.243 -39.885)" fill="#b9c9d6" fill-rule="evenodd"/>
        <path id="Trazado_782564" data-name="Trazado 782564" d="M241.366,280.16H233.8a.988.988,0,0,0-.981.991V287.6a.991.991,0,0,0,.981.995h7.568a.989.989,0,0,0,.981-.995v-6.449a.986.986,0,0,0-.981-.991" transform="translate(-33.145 -39.885)" fill="#b9c9d6" fill-rule="evenodd"/>
        <path id="Trazado_782565" data-name="Trazado 782565" d="M248.546,294.623h68.8a.984.984,0,0,1,.994.989v6.447a.992.992,0,0,1-.994.994h-68.8a1,1,0,0,1-.994-.994v-6.447a.994.994,0,0,1,.994-.989" transform="translate(-35.243 -41.945)" fill="#4adbd1" fill-rule="evenodd"/>
        <path id="Trazado_782566" data-name="Trazado 782566" d="M241.366,294.623H233.8a.983.983,0,0,0-.981.989v6.447a.991.991,0,0,0,.981.994h7.568a.989.989,0,0,0,.981-.994v-6.447a.98.98,0,0,0-.981-.989" transform="translate(-33.145 -41.945)" fill="#b9c9d6" fill-rule="evenodd"/>
        <path id="Trazado_782567" data-name="Trazado 782567" d="M248.546,309.072h68.8a.988.988,0,0,1,.994.995v6.447a.986.986,0,0,1-.994.985h-68.8a1,1,0,0,1-.994-.985v-6.447a1,1,0,0,1,.994-.995" transform="translate(-35.243 -44.002)" fill="#b9c9d6" fill-rule="evenodd"/>
        <path id="Trazado_782568" data-name="Trazado 782568" d="M241.366,309.072H233.8a.987.987,0,0,0-.981.995v6.447a.985.985,0,0,0,.981.985h7.568a.982.982,0,0,0,.981-.985v-6.447a.985.985,0,0,0-.981-.995" transform="translate(-33.145 -44.002)" fill="#b9c9d6" fill-rule="evenodd"/>
        <path id="Trazado_782569" data-name="Trazado 782569" d="M217.176,328.659h95.7a.993.993,0,0,1,.994.995V336.1a.99.99,0,0,1-.994.995h-95.7a1,1,0,0,1-.995-.995v-6.446a1,1,0,0,1,.995-.995" transform="translate(-30.777 -46.79)" fill="#b9c9d6" fill-rule="evenodd"/>
        <path id="Trazado_782570" data-name="Trazado 782570" d="M248.546,344.273h68.8a.987.987,0,0,1,.994.989v6.452a.987.987,0,0,1-.994.989h-68.8a1,1,0,0,1-.994-.989v-6.452a1,1,0,0,1,.994-.989" transform="translate(-35.243 -49.013)" fill="#b9c9d6" fill-rule="evenodd"/>
        <path id="Trazado_782571" data-name="Trazado 782571" d="M241.366,344.273H233.8a.986.986,0,0,0-.981.989v6.452a.986.986,0,0,0,.981.989h7.568a.984.984,0,0,0,.981-.989v-6.452a.984.984,0,0,0-.981-.989" transform="translate(-33.145 -49.013)" fill="#b9c9d6" fill-rule="evenodd"/>
        <path id="Trazado_782572" data-name="Trazado 782572" d="M248.546,358.728h68.8a.988.988,0,0,1,.994.992v6.449a.987.987,0,0,1-.994.99h-68.8a1,1,0,0,1-.994-.99V359.72a1,1,0,0,1,.994-.992" transform="translate(-35.243 -51.071)" fill="#b9c9d6" fill-rule="evenodd"/>
        <path id="Trazado_782573" data-name="Trazado 782573" d="M241.366,358.728H233.8a.987.987,0,0,0-.981.992v6.449a.986.986,0,0,0,.981.99h7.568a.984.984,0,0,0,.981-.99V359.72a.984.984,0,0,0-.981-.992" transform="translate(-33.145 -51.071)" fill="#b9c9d6" fill-rule="evenodd"/>
        <path id="Trazado_782574" data-name="Trazado 782574" d="M248.546,373.183h68.8a.99.99,0,0,1,.994,1v6.444a.987.987,0,0,1-.994.989h-68.8a1,1,0,0,1-.994-.989V374.18a1,1,0,0,1,.994-1" transform="translate(-35.243 -53.129)" fill="#b9c9d6" fill-rule="evenodd"/>
        <path id="Trazado_782575" data-name="Trazado 782575" d="M241.366,373.183H233.8a.989.989,0,0,0-.981,1v6.444a.986.986,0,0,0,.981.989h7.568a.984.984,0,0,0,.981-.989V374.18a.987.987,0,0,0-.981-1" transform="translate(-33.145 -53.129)" fill="#b9c9d6" fill-rule="evenodd"/>
        <path id="Trazado_782576" data-name="Trazado 782576" d="M389.539,200.441h-36.2a.986.986,0,0,0-.982.994v6.445a.984.984,0,0,0,.982.988h36.2a.989.989,0,0,0,1-.988v-6.445a.99.99,0,0,0-1-.994" transform="translate(-50.165 -28.536)" fill="#b9c9d6" fill-rule="evenodd"/>
        <path id="Trazado_782577" data-name="Trazado 782577" d="M389.539,214.842h-36.2a.986.986,0,0,0-.982,1v6.444a.986.986,0,0,0,.982.989h36.2a.99.99,0,0,0,1-.989v-6.444a.991.991,0,0,0-1-1" transform="translate(-50.165 -30.586)" fill="#b9c9d6" fill-rule="evenodd"/>
        <path id="Trazado_782578" data-name="Trazado 782578" d="M389.539,229.235h-36.2a.987.987,0,0,0-.982,1v6.444a.984.984,0,0,0,.982.989h36.2a.989.989,0,0,0,1-.989v-6.444a.992.992,0,0,0-1-1" transform="translate(-50.165 -32.635)" fill="#4adbd1" fill-rule="evenodd"/>
        <path id="Trazado_782579" data-name="Trazado 782579" d="M389.539,243.628h-36.2a.991.991,0,0,0-.982.995v6.446a.99.99,0,0,0,.982.994h36.2a1,1,0,0,0,1-.994v-6.446a1,1,0,0,0-1-.995" transform="translate(-50.165 -34.685)" fill="#b9c9d6" fill-rule="evenodd"/>
        <path id="Trazado_782580" data-name="Trazado 782580" d="M389.539,258.023h-36.2a.99.99,0,0,0-.982.994v6.447a.99.99,0,0,0,.982.994h36.2a1,1,0,0,0,1-.994v-6.447a1,1,0,0,0-1-.994" transform="translate(-50.165 -36.734)" fill="#b9c9d6" fill-rule="evenodd"/>
        <path id="Trazado_782581" data-name="Trazado 782581" d="M389.539,272.414h-36.2a.991.991,0,0,0-.982,1v6.451a.984.984,0,0,0,.982.987h36.2a.989.989,0,0,0,1-.987v-6.451a1,1,0,0,0-1-1" transform="translate(-50.165 -38.783)" fill="#b9c9d6" fill-rule="evenodd"/>
        <path id="Trazado_782582" data-name="Trazado 782582" d="M389.539,286.815h-36.2a.985.985,0,0,0-.982.991v6.449a.984.984,0,0,0,.982.989h36.2a.989.989,0,0,0,1-.989v-6.449a.99.99,0,0,0-1-.991" transform="translate(-50.165 -40.833)" fill="#b9c9d6" fill-rule="evenodd"/>
        <path id="Trazado_782583" data-name="Trazado 782583" d="M389.539,301.209h-36.2a.986.986,0,0,0-.982,1v6.443a.985.985,0,0,0,.982.99h36.2a.989.989,0,0,0,1-.99v-6.443a.991.991,0,0,0-1-1" transform="translate(-50.165 -42.882)" fill="#4adbd1" fill-rule="evenodd"/>
        <path id="Trazado_782584" data-name="Trazado 782584" d="M389.539,315.6h-36.2a.986.986,0,0,0-.982.994v6.444a.984.984,0,0,0,.982.989h36.2a.989.989,0,0,0,1-.989V316.6a.99.99,0,0,0-1-.994" transform="translate(-50.165 -44.932)" fill="#4adbd1" fill-rule="evenodd"/>
        <path id="Trazado_782585" data-name="Trazado 782585" d="M389.539,330h-36.2a.988.988,0,0,0-.982,1v6.443a.988.988,0,0,0,.982,1h36.2a.993.993,0,0,0,1-1v-6.443a.993.993,0,0,0-1-1" transform="translate(-50.165 -46.98)" fill="#b9c9d6" fill-rule="evenodd"/>
        <path id="Trazado_782586" data-name="Trazado 782586" d="M389.539,344.4h-36.2a.984.984,0,0,0-.982.986v6.447a.986.986,0,0,0,.982.994h36.2a.99.99,0,0,0,1-.994v-6.447a.989.989,0,0,0-1-.986" transform="translate(-50.165 -49.031)" fill="#b9c9d6" fill-rule="evenodd"/>
        <path id="Trazado_782587" data-name="Trazado 782587" d="M389.539,358.791h-36.2a.986.986,0,0,0-.982.994v6.439a.986.986,0,0,0,.982.994h36.2a.99.99,0,0,0,1-.994v-6.439a.99.99,0,0,0-1-.994" transform="translate(-50.165 -51.08)" fill="#4adbd1" fill-rule="evenodd"/>
        <path id="Trazado_782588" data-name="Trazado 782588" d="M389.539,373.183h-36.2a.988.988,0,0,0-.982,1v6.444a.984.984,0,0,0,.982.989h36.2a.989.989,0,0,0,1-.989V374.18a.992.992,0,0,0-1-1" transform="translate(-50.165 -53.129)" fill="#b9c9d6" fill-rule="evenodd"/>
        <path id="Trazado_782589" data-name="Trazado 782589" d="M406.845,200.441h137.42a1,1,0,0,1,.995.994v6.445a1,1,0,0,1-.995.988H406.845a1,1,0,0,1-1-.988v-6.445a1,1,0,0,1,1-.994" transform="translate(-57.779 -28.536)" fill="#f4a338" fill-rule="evenodd"/>
        <path id="Trazado_782590" data-name="Trazado 782590" d="M406.845,214.842H518.978a.988.988,0,0,1,.984,1v6.444a.988.988,0,0,1-.984.989H406.845a1,1,0,0,1-1-.989v-6.444a1,1,0,0,1,1-1" transform="translate(-57.779 -30.586)" fill="#b9c9d6" fill-rule="evenodd"/>
        <path id="Trazado_782591" data-name="Trazado 782591" d="M406.845,229.235H523.438a1,1,0,0,1,1,1v6.444a1,1,0,0,1-1,.989H406.845a1,1,0,0,1-1-.989v-6.444a1,1,0,0,1,1-1" transform="translate(-57.779 -32.635)" fill="#b9c9d6" fill-rule="evenodd"/>
        <path id="Trazado_782592" data-name="Trazado 782592" d="M406.845,243.628h95.782a.992.992,0,0,1,.982.995v6.446a.992.992,0,0,1-.982.994H406.845a1,1,0,0,1-1-.994v-6.446a1,1,0,0,1,1-.995" transform="translate(-57.779 -34.685)" fill="#b9c9d6" fill-rule="evenodd"/>
        <path id="Trazado_782593" data-name="Trazado 782593" d="M406.845,258.023H547a.99.99,0,0,1,.981.994v6.447a.99.99,0,0,1-.981.994H406.845a1,1,0,0,1-1-.994v-6.447a1,1,0,0,1,1-.994" transform="translate(-57.779 -36.734)" fill="#b9c9d6" fill-rule="evenodd"/>
        <path id="Trazado_782594" data-name="Trazado 782594" d="M406.845,272.414H525.177a.993.993,0,0,1,.984,1v6.451a.989.989,0,0,1-.984.987H406.845a1,1,0,0,1-1-.987v-6.451a1,1,0,0,1,1-1" transform="translate(-57.779 -38.783)" fill="#f4a338" fill-rule="evenodd"/>
        <path id="Trazado_782595" data-name="Trazado 782595" d="M406.845,286.815H547a.985.985,0,0,1,.981.991v6.449a.984.984,0,0,1-.981.989H406.845a1,1,0,0,1-1-.989v-6.449a1,1,0,0,1,1-.991" transform="translate(-57.779 -40.833)" fill="#b9c9d6" fill-rule="evenodd"/>
        <path id="Trazado_782596" data-name="Trazado 782596" d="M406.845,301.209h95.782a.988.988,0,0,1,.982,1v6.443a.986.986,0,0,1-.982.99H406.845a1,1,0,0,1-1-.99v-6.443a1,1,0,0,1,1-1" transform="translate(-57.779 -42.882)" fill="#b9c9d6" fill-rule="evenodd"/>
        <path id="Trazado_782597" data-name="Trazado 782597" d="M406.845,315.6H536.58a1,1,0,0,1,1,.994v6.444a1,1,0,0,1-1,.989H406.845a1,1,0,0,1-1-.989V316.6a1,1,0,0,1,1-.994" transform="translate(-57.779 -44.932)" fill="#b9c9d6" fill-rule="evenodd"/>
        <path id="Trazado_782598" data-name="Trazado 782598" d="M406.845,330H525.177a.99.99,0,0,1,.984,1v6.443a1,1,0,0,1-.984,1H406.845a1,1,0,0,1-1-1v-6.443a1,1,0,0,1,1-1" transform="translate(-57.779 -46.98)" fill="#b9c9d6" fill-rule="evenodd"/>
        <path id="Trazado_782599" data-name="Trazado 782599" d="M406.845,344.4H547a.984.984,0,0,1,.981.986v6.447a.985.985,0,0,1-.981.994H406.845a1,1,0,0,1-1-.994v-6.447a1,1,0,0,1,1-.986" transform="translate(-57.779 -49.031)" fill="#b9c9d6" fill-rule="evenodd"/>
        <path id="Trazado_782600" data-name="Trazado 782600" d="M406.845,358.791h95.782a.987.987,0,0,1,.982.994v6.439a.987.987,0,0,1-.982.994H406.845a1,1,0,0,1-1-.994v-6.439a1,1,0,0,1,1-.994" transform="translate(-57.779 -51.08)" fill="#f4a338" fill-rule="evenodd"/>
        <path id="Trazado_782601" data-name="Trazado 782601" d="M406.845,373.183H547a.988.988,0,0,1,.981,1v6.444a.984.984,0,0,1-.981.989H406.845a1,1,0,0,1-1-.989V374.18a1,1,0,0,1,1-1" transform="translate(-57.779 -53.129)" fill="#b9c9d6" fill-rule="evenodd"/>
        <path id="Trazado_782602" data-name="Trazado 782602" d="M60.491,455.368a.5.5,0,0,1-.506-.5l-.106-5.687a.492.492,0,0,1,.493-.511h.011a.5.5,0,0,1,.506.5l.105,5.689a.49.49,0,0,1-.491.509Z" transform="translate(-8.525 -63.876)" fill="#dfedfa"/>
        <path id="Trazado_782603" data-name="Trazado 782603" d="M319.235,192.636a35.318,35.318,0,0,0-40.667,57.481l-.135.232a2.026,2.026,0,0,0,.7,2.749l6.148,3.662a2.027,2.027,0,0,0,2.761-.7l.131-.232a35.316,35.316,0,0,0,31.06-63.189m-2.508,4.241a30.387,30.387,0,1,1-41.651,10.592,30.39,30.39,0,0,1,41.651-10.592" transform="translate(-37.851 -26.719)" fill-rule="evenodd" fill="url(#linear-gradient)"/>
        <path id="Trazado_782604" data-name="Trazado 782604" d="M279.808,263.958l-9.21,15.5,6.158,3.65,9.2-15.484Z" transform="translate(-38.524 -37.579)" fill-rule="evenodd" fill="url(#linear-gradient)"/>
        <path id="Trazado_782605" data-name="Trazado 782605" d="M273.029,277.178l-6.157-3.657a2.007,2.007,0,0,0-2.748.7l-8.4,14.13-.013.021-18.13,30.507-.015.009-5.015,8.448L214.4,357.849a2.009,2.009,0,0,0,.7,2.748l6.16,3.662a2.022,2.022,0,0,0,2.748-.7l8.4-14.13v-.018L250.559,318.9l5.032-8.455,18.13-30.507a2.016,2.016,0,0,0-.692-2.756" transform="translate(-30.484 -38.9)" fill="#f4a338" fill-rule="evenodd"/>
        <g id="Grupo_1033890" data-name="Grupo 1033890" transform="translate(232.952 165.889)" opacity="0.4">
          <g id="Grupo_1033889" data-name="Grupo 1033889">
            <g id="Grupo_1033888" data-name="Grupo 1033888" clip-path="url(#clip-path-5)">
              <path id="Trazado_782606" data-name="Trazado 782606" d="M275.894,208.288A30.387,30.387,0,1,0,317.545,197.7a30.382,30.382,0,0,0-41.651,10.592" transform="translate(-271.622 -193.426)" fill="#dfedfa" fill-rule="evenodd"/>
            </g>
          </g>
        </g>
        <g id="Grupo_1033893" data-name="Grupo 1033893" transform="translate(246.636 165.952)" opacity="0.4">
          <g id="Grupo_1033892" data-name="Grupo 1033892">
            <g id="Grupo_1033891" data-name="Grupo 1033891" clip-path="url(#clip-path-6)">
              <path id="Trazado_782607" data-name="Trazado 782607" d="M323.7,247.2l-7.257-51.228c-.837-.364-1.687-.7-2.536-.975l7.632,53.85c.744-.516,1.459-1.069,2.161-1.647m-14.1,6.539-8.518-60.136a30.489,30.489,0,0,0-13.513,4.831l7.722,54.421a30.317,30.317,0,0,0,14.309.883m9.985-3.665a30.325,30.325,0,0,1-4.925,2.3l-8.35-58.88a29.752,29.752,0,0,1,5.377.848Z" transform="translate(-287.577 -193.5)" fill="#fefefe" fill-rule="evenodd"/>
            </g>
          </g>
        </g>
        <path id="Trazado_782608" data-name="Trazado 782608" d="M629.411,419.4V377.433a2.486,2.486,0,0,0-2.482-2.476H505.25c-1.366,0-3.476,1.124-3.476,2.476v44.221a2.486,2.486,0,0,0,2.482,2.474H623.7c4.525,0,5.708-3.358,5.708-4.726" transform="translate(-71.436 -53.381)" fill="#4adbd1" fill-rule="evenodd"/>
        <path id="Trazado_782609" data-name="Trazado 782609" d="M629.735,419.4V377.423a2.488,2.488,0,0,0-2.482-2.482H506.53a2.491,2.491,0,0,0-2.479,2.482V419.4a2.488,2.488,0,0,0,2.479,2.485H627.253a2.488,2.488,0,0,0,2.482-2.485" transform="translate(-71.76 -53.379)" fill="#eff9fc" fill-rule="evenodd"/>
        <path id="Trazado_782610" data-name="Trazado 782610" d="M628.219,419.7V377.727a.666.666,0,0,0-.664-.66H506.832a.659.659,0,0,0-.661.66V419.7a.657.657,0,0,0,.661.657H627.555a.662.662,0,0,0,.664-.657m-1.831-1.167H508V378.893H626.388Z" transform="translate(-72.062 -53.682)" fill="#4adbd1" fill-rule="evenodd"/>
        <path id="Trazado_782611" data-name="Trazado 782611" d="M629.545,419.374V377.4a2.641,2.641,0,0,0-2.642-2.642H506.18a2.242,2.242,0,0,0-.25.016h-.7a4.632,4.632,0,0,0-2.505.872,2.3,2.3,0,0,0-1.131,1.762v44.221a2.641,2.641,0,0,0,2.641,2.635H623.677a6.162,6.162,0,0,0,4.05-1.3,5.055,5.055,0,0,0,1.8-3.383.293.293,0,0,0,.016-.114v-.093ZM504.852,375.107a3.218,3.218,0,0,0-.542.426,2.634,2.634,0,0,0-.77,1.865v41.977a2.643,2.643,0,0,0,2.64,2.642H626.9a2.636,2.636,0,0,0,1.763-.678,4.76,4.76,0,0,1-1.141,1.382,5.854,5.854,0,0,1-3.848,1.22H504.229a2.319,2.319,0,0,1-2.322-2.314V377.405a2.01,2.01,0,0,1,.995-1.5,4.615,4.615,0,0,1,1.949-.8m1.09-.018H626.9a2.323,2.323,0,0,1,2.322,2.316v42.1a2.315,2.315,0,0,1-2.322,2.2H506.18a2.315,2.315,0,0,1-2.322-2.324V377.4a2.276,2.276,0,0,1,.679-1.64,2.3,2.3,0,0,1,1.4-.669" transform="translate(-71.409 -53.353)" fill="#4adbd1" fill-rule="evenodd"/>
        <g id="Grupo_1033896" data-name="Grupo 1033896" transform="translate(432.291 321.562)" opacity="0.25">
          <g id="Grupo_1033895" data-name="Grupo 1033895">
            <g id="Grupo_1033894" data-name="Grupo 1033894" clip-path="url(#clip-path-7)">
              <path id="Trazado_782612" data-name="Trazado 782612" d="M629.735,408.615c-16.353,5.961-35.545,6.7-47.666-1.56-23.906-16.3-16.431-.741-51.326-7.1-16.511-3-19.487-14.485-23.587-25.013h-.625a2.491,2.491,0,0,0-2.479,2.482V419.4a2.488,2.488,0,0,0,2.479,2.485H627.253a2.488,2.488,0,0,0,2.482-2.485Z" transform="translate(-504.051 -374.941)" fill="#4adbd1" fill-rule="evenodd"/>
            </g>
          </g>
        </g>
        <path id="Trazado_782613" data-name="Trazado 782613" d="M534.746,387.207h73.666a1.267,1.267,0,0,1,0,2.533H534.746a1.267,1.267,0,1,1,0-2.533" transform="translate(-75.949 -55.125)" fill="#4adbd1" fill-rule="evenodd"/>
        <path id="Trazado_782614" data-name="Trazado 782614" d="M518.188,394.034H620.261a1.266,1.266,0,0,1,1.261,1.261v.005a1.272,1.272,0,0,1-1.261,1.268H518.188a1.269,1.269,0,0,1-1.261-1.268v-.005a1.262,1.262,0,0,1,1.261-1.261" transform="translate(-73.593 -56.097)" fill="#4adbd1" fill-rule="evenodd"/>
        <path id="Trazado_782615" data-name="Trazado 782615" d="M518.188,400.858H620.261a1.268,1.268,0,0,1,0,2.536H518.188a1.268,1.268,0,0,1,0-2.536" transform="translate(-73.593 -57.069)" fill="#4adbd1" fill-rule="evenodd"/>
        <path id="Trazado_782616" data-name="Trazado 782616" d="M666.287,208.7c-3.412.769-7.725,10.262-9.837,16.341-2.691,6.391-3.317,23.208-1.751,23.759-2.893,7.262,14.122.266,13.342.185s-1.754-40.285-1.754-40.285" transform="translate(-93.087 -29.713)" fill="#f4a338" fill-rule="evenodd"/>
        <path id="Trazado_782617" data-name="Trazado 782617" d="M658.7,219.39c2.232-5.063,5.15-10.135,7.605-10.686,0,0,.094,3.6.225,8.642-.94,11.155-2.535,27.547-2.943,31.684-19.567.1-2.763,1.725-4.887-29.641" transform="translate(-93.109 -29.713)" fill="#e28f2b" fill-rule="evenodd"/>
        <path id="Trazado_782618" data-name="Trazado 782618" d="M679.73,206.259s4.141,2.078,7.767,4.3c2.015,1.247,4.1,5.023,3.515,5.687-.4.458-1.527-.326-1.221-.167,2.536,1.3-3.756,36.721-5.9,38.348s-20.987.279-23.136-1.764,1.645-8.331-.212-20.9,5.666-23.427,6.635-23.408c1.408-.376,7.328-2.15,7.276-2.1Z" transform="translate(-93.972 -29.364)" fill="#f4a338" fill-rule="evenodd"/>
        <path id="Trazado_782619" data-name="Trazado 782619" d="M683.683,256.087c-2.139,1.624-15.625,1.658-21.372-.127-.638-.207-3.582-1.374-3.665-2.473.7-.135,3.453.2,4.566-.063,3.89-.889,6.028-5.7,6.028-5.7s2.136-.77,6.927-2.794,2.8-8.164,2.921-10.864,3.052-9.464,11.72-16.161l.808,1.6c.625,6.152-5.945,35.081-7.934,36.581" transform="translate(-93.769 -31.022)" fill="#e28f2b" fill-rule="evenodd"/>
        <path id="Trazado_782620" data-name="Trazado 782620" d="M631.813,260.374c-8.19-1.24-10.964-.85-15.969,8.468s-11.666,26.088-15.5,28.261c-5.775,3.256-7.687,11.262-10.05,10.9s-3.9.692-1.315,2.835,6.731,3.967,8.165,3.582,2.522-6.532,6.237-8.528,2.6-3.636,2.366-5.408,10.858-9.895,19.218-20.01c5.111-6.185,7.75-10.262,8.138-13.965a9.773,9.773,0,0,0-1.289-6.131" transform="translate(-83.659 -36.996)" fill="#e8b592" fill-rule="evenodd"/>
        <path id="Trazado_782621" data-name="Trazado 782621" d="M615.5,294.157c1.9-4.811,3.81-12.769,5.6-20.063,2.549-10.375,5.214-12.836,6.9-13.937,2.044-.519,4.458-.279,7.777.217a9.773,9.773,0,0,1,1.289,6.131c-.388,3.7-3.027,7.78-8.138,13.965A147.212,147.212,0,0,1,615.5,294.157" transform="translate(-87.626 -36.996)" fill="#efad81" fill-rule="evenodd"/>
        <path id="Trazado_782622" data-name="Trazado 782622" d="M636.237,268.571s2.178,16.426,4.195,18.1c1.459,1.188,2.482,1.268,3.489-3.629,1.023-4.9-1.565-23.177-1.565-23.177Z" transform="translate(-90.579 -36.996)" fill="#373f51" fill-rule="evenodd"/>
        <path id="Trazado_782623" data-name="Trazado 782623" d="M637.421,277.948l20.135,3.386-11.374-16.307-8.654-1.767-5.189,1.2Z" transform="translate(-90.024 -37.479)" fill="#f4a338" fill-rule="evenodd"/>
        <path id="Trazado_782624" data-name="Trazado 782624" d="M678.691,261.107c7.139,12.832,2.257,20.983-6.425,21.809s-22.392-.754-30.383-7.391S627.321,261.85,628.238,260.8s50.453.3,50.453.3" transform="translate(-89.428 -37.073)" fill="#efad81" fill-rule="evenodd"/>
        <path id="Trazado_782625" data-name="Trazado 782625" d="M636.8,271.086c-1.474-4.385-3.159-7.758-6.423-7.817-3.44-.068-5.548,1.717-5.7,7.34-.172,6.689-.4,28.844-.093,38.7.24,7.451-1.939,9.843-1.754,17.614.135,5.853-6.105,2.9-3.7,5.938,1.66,2.087,6.6,1.4,9.624,1.017,2.709-.346-1.393-8.435,2.35-10.6,3.2-1.859,3.265-4.873,1.234-7.154s-.212-9.033,1.142-13.765,3.441-9.843,4.82-21.019c.384-3.192-.61-7.567-1.5-10.248" transform="translate(-88.066 -37.48)" fill="#e8b592" fill-rule="evenodd"/>
        <path id="Trazado_782626" data-name="Trazado 782626" d="M621.269,339.213a14.271,14.271,0,0,0,3.424.7c2.242.072,2.919-2.4,3.079-5.77a16.035,16.035,0,0,1,4.448-9.437c.041.054.08.108.118.154,2.03,2.281,1.966,5.3-1.234,7.154-3.743,2.17.358,10.259-2.351,10.6-3.024.385-7.962,1.069-9.623-1.017-1.565-1.976.387-2.129,2.138-2.395" transform="translate(-88.062 -46.228)" fill="#373f51" fill-rule="evenodd"/>
        <path id="Trazado_782627" data-name="Trazado 782627" d="M590.419,314.658a15.823,15.823,0,0,0,3.079,2.27c2.241,1.154,4.328-.684,6.371-3.551,1.79-2.508,3.742-6.157,7.022-6.741a.937.937,0,0,0,.051.2c.77,2.98,1.818,6.226-2.482,6.3-5.018.081-5.416,9.146-8.35,8.138-3.306-1.129-8.707-2.928-9.21-5.555-.48-2.482,1.581-1.681,3.518-1.057" transform="translate(-83.545 -43.655)" fill="#373f51" fill-rule="evenodd"/>
        <path id="Trazado_782628" data-name="Trazado 782628" d="M633.9,323.916s3.293,3.43,2.988,4.856a51.892,51.892,0,0,0-1.474,7.8c-.173,2.774-.317,5.961-.317,5.961s-1.2,0-1.289-.339-.745-11.284-.745-11.284Z" transform="translate(-90.127 -46.115)" fill="#373f51" fill-rule="evenodd"/>
        <path id="Trazado_782629" data-name="Trazado 782629" d="M608.965,306.636s1.4,4.593.3,5.692-1.353,3.624-3.078,5.974c-1.741,2.342-3.693,5.057-3.693,5.057s-1.194-.57-1.1-.909,5.589-10.24,5.589-10.24Z" transform="translate(-85.618 -43.655)" fill="#373f51" fill-rule="evenodd"/>
        <path id="Trazado_782630" data-name="Trazado 782630" d="M683.691,259.863s3.322,13.605.532,20.4c-1.4,3.438-3.517,3.835-12.17,3.629-8.4-.2-19-.4-21.836-.529-3.544-.2-7.446,3.81-7.446,3.81s2.469-10.037.785-18.139-4.408-8.654-4.408-8.654l3.624-.511Z" transform="translate(-90.993 -36.996)" fill="#373f51" fill-rule="evenodd"/>
        <path id="Trazado_782631" data-name="Trazado 782631" d="M687.636,254.385c-1.8,3.843,1.953,10.485.641,12.4-1.328,1.911-8.87.266-13.818-3.708-4.953-3.991-14.31-4.866-14.31-4.866Z" transform="translate(-93.983 -36.216)" fill="#f4a338" fill-rule="evenodd"/>
        <path id="Trazado_782632" data-name="Trazado 782632" d="M668.644,257.6c-1.154.511-6.173.525-7.978.132s-.45-2.919.237-3.632,3.838-.787,4.129-1.079-1.885-.232-2.1-.61,2.363-.465,3.623-.816a11.311,11.311,0,0,0,4.643.724,14.255,14.255,0,0,0,.52,4.39c-.7.274-2.6.677-3.078.891" transform="translate(-93.93 -35.818)" fill="#e8b592" fill-rule="evenodd"/>
        <path id="Trazado_782633" data-name="Trazado 782633" d="M689.4,255.237a5.76,5.76,0,0,0-.186,1.286c-.2.026-.61.041-.811.059-.782.093-1.551.186-2.322.271-.426.054-.837.1-1.247.148-5.259.586-9.742.948-10.249.519,3.983-.612,4.143-.744,4.461-.764,3.851-.264,7.116-1.129,10.354-1.519" transform="translate(-96.039 -36.337)" fill="#e28f2b" fill-rule="evenodd"/>
        <path id="Trazado_782634" data-name="Trazado 782634" d="M692.647,216.226c3.479,11.143,2.949,10.128,5.178,17,1.645,5.019,4.22,12.642.424,13.957-6.782,2.342-23.216,5.615-24.223,4.76-1.183-1.017-1.354-4.527-1.194-5.039s17.027-6.782,17.027-6.782-2.215-4.341-3.065-12.828,5.016-12.152,5.853-11.064" transform="translate(-95.782 -30.757)" fill="#f4a338" fill-rule="evenodd"/>
        <path id="Trazado_782635" data-name="Trazado 782635" d="M614.187,227.006h36.566a1.818,1.818,0,0,1,1.66,1.313L658.92,253.1a.976.976,0,0,1-.971,1.307H621.383a1.81,1.81,0,0,1-1.648-1.307l-6.5-24.776a.971.971,0,0,1,.955-1.313" transform="translate(-87.297 -32.318)" fill-rule="evenodd" fill="url(#radial-gradient)"/>
        <path id="Trazado_782636" data-name="Trazado 782636" d="M657.613,244.44l-4.421-16.816a1.822,1.822,0,0,0-1.659-1.314H614.965c-.715,0-2,.936-1.792,1.646a.965.965,0,0,1,1.01-1.048h36.566a1.818,1.818,0,0,1,1.66,1.313L658.915,253a1.041,1.041,0,0,1-.253,1.056c.6-.387,1.167-1.142,1.033-1.653Z" transform="translate(-87.292 -32.219)" fill="#5573c6" fill-rule="evenodd"/>
        <path id="Trazado_782637" data-name="Trazado 782637" d="M659.243,258.652H622.677a1.517,1.517,0,0,1-.4-.054c.732,1.885,2.709,1.606,3.479,1.6h43.364c2.335-.1,2.283-1.746,2.309-3.34H661.009a2.119,2.119,0,0,1-1.049,1.542,1.076,1.076,0,0,1-.718.25" transform="translate(-88.591 -36.568)" fill="#5573c6" fill-rule="evenodd"/>
        <path id="Trazado_782638" data-name="Trazado 782638" d="M653.769,238.885c-3.915,1.984-8.564,2.593-13.327,2.841a3.484,3.484,0,0,1,.118.524,3.131,3.131,0,0,1-3.145,3.721,4.126,4.126,0,0,1-3.97-3.425,3.29,3.29,0,0,1-.054-.61c-4.949.135-9.726.406-13.684,1.953l2.722,10.359H657.8Z" transform="translate(-88.226 -34.009)" fill="#5573c6" fill-rule="evenodd"/>
        <path id="Trazado_782639" data-name="Trazado 782639" d="M639.1,240.216a2.884,2.884,0,0,1,2.748,2.368,1.982,1.982,0,0,1-2,2.377,2.89,2.89,0,0,1-2.748-2.377,1.975,1.975,0,0,1,2-2.368" transform="translate(-90.697 -34.199)" fill="#5573c6" fill-rule="evenodd"/>
        <path id="Trazado_782640" data-name="Trazado 782640" d="M673.651,205.377a3.329,3.329,0,0,0,.144-.723c0-1-2.815-11.37-2.815-11.37l6.281-2.781,1.273,4.686a24.292,24.292,0,0,1-4.884,10.188" transform="translate(-95.525 -27.121)" fill="#eaae68" fill-rule="evenodd"/>
        <path id="Trazado_782641" data-name="Trazado 782641" d="M670.225,180.6s8.825-10.021,13.166-3.332c0,0,3.332,1.493,4.393,7.268,1.075,5.894-3.305,11.879-5.284,10.724-1.271-.737-2.319,1.493-2.319,1.493Z" transform="translate(-95.418 -24.909)" fill="#373f51" fill-rule="evenodd"/>
        <path id="Trazado_782642" data-name="Trazado 782642" d="M684.526,175.86s1.274-4.56,7.975-2.934c0,0-3.213-.5-4.14.717,0,0,2.6-1.1,4.166-.073,1.581,1.028,1.754,4.334,1.475,5.328s-2.111,3.943-3.293,3.91a5.365,5.365,0,0,1-2.521-1.1Z" transform="translate(-97.454 -24.569)" fill="#373f51" fill-rule="evenodd"/>
        <path id="Trazado_782643" data-name="Trazado 782643" d="M681.587,205.2c.186-1-.81-2.748-.638-8.3l-.437.072L673.25,198.2s-.171,5.907-.225,8.05c-.039,1.786,8.7.538,8.562-1.048" transform="translate(-95.816 -28.032)" fill="#e8b592" fill-rule="evenodd"/>
        <path id="Trazado_782644" data-name="Trazado 782644" d="M673.267,198.209s-.051,2.143-.119,4.287c4.05-.007,6.452-3.5,7.382-5.515Z" transform="translate(-95.834 -28.044)" fill="#eaae68" fill-rule="evenodd"/>
        <path id="Trazado_782645" data-name="Trazado 782645" d="M680.613,193.607a21.172,21.172,0,0,0,2.8-6.139c.423-2.03-.411-9.63-8.043-8.754a10.462,10.462,0,0,0-4.341,1.5c-1.687,1.075-4.128,3.419-1.646,10.094l.625,2.256Z" transform="translate(-95.147 -25.433)" fill="#373f51" fill-rule="evenodd"/>
        <path id="Trazado_782646" data-name="Trazado 782646" d="M680.8,192.543c.173-5.961,1.527-9.915-4.566-10.439s-7.353,1.712-7.885,3.689c-4.448,17.2,12.144,15.55,12.451,6.75" transform="translate(-95.043 -25.915)" fill="#e8b592" fill-rule="evenodd"/>
        <path id="Trazado_782647" data-name="Trazado 782647" d="M672.592,181.616c1.9,2.137,4.66,10.612,10.765,10.725,1.7.027,1.712-1.8,1.407-2.4a11.361,11.361,0,0,1-3.531-6.822s-6.57-4.773-8.642-1.5" transform="translate(-95.755 -25.693)" fill="#373f51" fill-rule="evenodd"/>
        <path id="Trazado_782648" data-name="Trazado 782648" d="M672.417,181.92a8.414,8.414,0,0,0-2.521,3.014c-.518,1.5-1.462,4.639-2.366,4.506,0,0-1.763-5.389.52-8.017,3.611-5.807,5.125-1.479,4.368.5" transform="translate(-94.941 -25.413)" fill="#373f51" fill-rule="evenodd"/>
        <path id="Trazado_782649" data-name="Trazado 782649" d="M673.522,182s1.658,7.367,6.663,9.856c0,0-4.953-4.639-5.243-9.484s-1.42-.372-1.42-.372" transform="translate(-95.887 -25.642)" fill="#373f51" fill-rule="evenodd"/>
        <path id="Trazado_782650" data-name="Trazado 782650" d="M681.448,206.322a3.7,3.7,0,0,1-2.1,1.214,15.2,15.2,0,0,1-2.88.512,8.124,8.124,0,0,1-2.575-.14c-.558-.153-.943-.4-1.008-.756l-1.022.317c.131.843.782,1.215,1.751,1.475a8.989,8.989,0,0,0,2.918.172,16.063,16.063,0,0,0,3.094-.551c1.581-.437,2.655-.942,2.908-1.713Z" transform="translate(-95.651 -29.373)" fill="#e28f2b" fill-rule="evenodd"/>
        <path id="Trazado_782651" data-name="Trazado 782651" d="M672.8,179.291c.876-.192,1.289-.6,1.206-1.221a3.951,3.951,0,0,0-3.2-1.189,5.059,5.059,0,0,1,1.991,2.41" transform="translate(-95.501 -25.179)" fill="#373f51" fill-rule="evenodd"/>
        <path id="Trazado_782652" data-name="Trazado 782652" d="M674.8,179.579c-.808.425-1.379.372-1.726-.159a3.976,3.976,0,0,1,1.7-2.954,5.106,5.106,0,0,0,.026,3.112" transform="translate(-95.823 -25.123)" fill="#373f51" fill-rule="evenodd"/>
        <path id="Trazado_782653" data-name="Trazado 782653" d="M670.908,190.57c-.222.015-.424-.252-.437-.59s.158-.624.385-.636.413.251.424.59-.145.624-.372.636" transform="translate(-95.453 -26.956)" fill="#5573c6" fill-rule="evenodd"/>
        <path id="Trazado_782654" data-name="Trazado 782654" d="M674.82,189.493c2.084-.592,1.821-.511,3.437.6a2.2,2.2,0,0,0-2.629-1.353c-.517.112-.61.087-.809.756" transform="translate(-96.072 -26.86)" fill="#5573c6" fill-rule="evenodd"/>
        <path id="Trazado_782655" data-name="Trazado 782655" d="M676.172,190.84c.212.021.411-.239.437-.577s-.119-.63-.344-.658-.41.246-.437.586.13.624.344.649" transform="translate(-96.215 -26.993)" fill="#5573c6" fill-rule="evenodd"/>
        <path id="Trazado_782656" data-name="Trazado 782656" d="M671.967,189.35c-1.872-.98-1.622-.855-3.306-.065a1.985,1.985,0,0,1,2.668-.837c.462.206.545.2.638.9" transform="translate(-95.195 -26.798)" fill="#5573c6" fill-rule="evenodd"/>
        <path id="Trazado_782657" data-name="Trazado 782657" d="M675.084,197.661c-2.071.419-3.675.008-3.156.194.555.583,1.976.544,3.156-.194" transform="translate(-95.646 -28.14)" fill="#fff" fill-rule="evenodd"/>
        <path id="Trazado_782658" data-name="Trazado 782658" d="M670.984,189.352c.039,0,.067.112.051.238,0,.127-.039.225-.077.225s-.082-.112-.054-.245c0-.125.039-.225.08-.218" transform="translate(-95.513 -26.957)" fill="#a4d0fc" fill-rule="evenodd"/>
        <path id="Trazado_782659" data-name="Trazado 782659" d="M676.15,189.7c.041,0,.067.106.054.232s-.054.232-.093.226-.067-.114-.054-.239.054-.226.093-.22" transform="translate(-96.248 -27.007)" fill="#a4d0fc" fill-rule="evenodd"/>
        <path id="Trazado_782660" data-name="Trazado 782660" d="M543.116,101.645h70.629a2.031,2.031,0,0,0,0-4.063H543.116a2.031,2.031,0,0,0,0,4.063m100.89-16.81h8.417a2.031,2.031,0,0,0,0-4.063l-8.417-.005a2.034,2.034,0,0,0,0,4.068m-13.445,16.81h6.717a2.031,2.031,0,1,0,0-4.063h-6.717a2.031,2.031,0,0,0,0,4.063m-73.985-16.81h73.985a2.031,2.031,0,1,0-.01-4.063l-73.974-.005a2.034,2.034,0,0,0,0,4.068" transform="translate(-77.033 -11.499)" fill="#fff" fill-rule="evenodd"/>
        <path id="Trazado_782661" data-name="Trazado 782661" d="M342.1,28.241a7.227,7.227,0,0,1,0-6.749,6.477,6.477,0,0,1,.995-1.448,7.512,7.512,0,0,1,.994-.935,7.352,7.352,0,0,1,1-.651,7.744,7.744,0,0,1,1.008-.45,6.68,6.68,0,0,1,1-.273A6.34,6.34,0,0,1,348.1,17.6c.147-.013.294-.013.438-.013.2,0,.372.007.558.02a7.169,7.169,0,0,1,1,.146,7.8,7.8,0,0,1,1.007.292,7.447,7.447,0,0,1,1,.459,8.044,8.044,0,0,1,.995.676,7.254,7.254,0,0,1,1.009.97,8.284,8.284,0,0,1,.995,1.527,7.321,7.321,0,0,1,0,6.377,8.255,8.255,0,0,1-.995,1.527,7.246,7.246,0,0,1-1.009.976,8.009,8.009,0,0,1-.995.671,7.587,7.587,0,0,1-1,.465,7.94,7.94,0,0,1-1.007.292,6.922,6.922,0,0,1-1,.146c-.186.013-.357.021-.558.021-.144,0-.292-.008-.438-.014A7.116,7.116,0,0,1,347.091,32a6.042,6.042,0,0,1-1-.28,6.885,6.885,0,0,1-1.008-.443,8.825,8.825,0,0,1-1-.651,8.54,8.54,0,0,1-.994-.935,6.678,6.678,0,0,1-.995-1.455" transform="translate(-48.585 -2.504)" fill="#e5e5e5" fill-rule="evenodd"/>
        <path id="Trazado_782662" data-name="Trazado 782662" d="M329.378,56.839a7.832,7.832,0,0,1,0-2.4,7.071,7.071,0,0,1,1.008-2.642,6.852,6.852,0,0,1,1-1.268,7,7,0,0,1,1.008-.85,7.658,7.658,0,0,1,1-.59,7.424,7.424,0,0,1,1-.4,7.117,7.117,0,0,1,1.008-.238,7.7,7.7,0,0,1,1-.093h.186a8.047,8.047,0,0,1,.809.046,7.049,7.049,0,0,1,.994.178,7.5,7.5,0,0,1,1.01.34,8.319,8.319,0,0,1,1.009.518,8.792,8.792,0,0,1,.994.736,7.817,7.817,0,0,1,.995,1.082,7.019,7.019,0,0,1,1,1.818,7.294,7.294,0,0,1,0,5.124,6.877,6.877,0,0,1-1,1.81,7.188,7.188,0,0,1-.995,1.082,8.188,8.188,0,0,1-.994.744,8.317,8.317,0,0,1-1.009.518,6.64,6.64,0,0,1-1.01.332,7.049,7.049,0,0,1-.994.186,6.952,6.952,0,0,1-.809.046l-.186-.008a6.906,6.906,0,0,1-1-.086,8.209,8.209,0,0,1-1.008-.24,8.314,8.314,0,0,1-1-.4,7.568,7.568,0,0,1-1-.591,7.283,7.283,0,0,1-1.008-.849,7.4,7.4,0,0,1-2-3.909" transform="translate(-46.879 -6.885)" fill="#e5e5e5" fill-rule="evenodd"/>
        <path id="Trazado_782663" data-name="Trazado 782663" d="M266.327,27.837a7.231,7.231,0,0,1,0-5.94,7.506,7.506,0,0,1,.995-1.619,7.341,7.341,0,0,1,1-1.009,7.436,7.436,0,0,1,2-1.189,9.408,9.408,0,0,1,1-.3,7.216,7.216,0,0,1,1.008-.16c.212-.019.424-.026.651-.026h43.684c.225,0,.449.007.661.026a7.194,7.194,0,0,1,1.01.167,7.116,7.116,0,0,1,1.991.8,7.624,7.624,0,0,1,1.008.7,6.674,6.674,0,0,1,1,1.021,7.154,7.154,0,0,1,1.008,1.634,7.357,7.357,0,0,1,0,5.873,7.059,7.059,0,0,1-1.008,1.639,6.6,6.6,0,0,1-1,1.016,8.5,8.5,0,0,1-1.008.7,7.748,7.748,0,0,1-1,.485,7.015,7.015,0,0,1-.994.311,6.4,6.4,0,0,1-1.01.16c-.212.02-.437.034-.661.034H272.978c-.227,0-.439-.015-.651-.034a7.337,7.337,0,0,1-1.008-.152,9.276,9.276,0,0,1-1-.313,7.578,7.578,0,0,1-1-.484,7.747,7.747,0,0,1-1.008-.7,7.859,7.859,0,0,1-1-1.015,7.506,7.506,0,0,1-.995-1.619" transform="translate(-37.825 -2.504)" fill="#e5e5e5" fill-rule="evenodd"/>
        <path id="Trazado_782664" data-name="Trazado 782664" d="M194.1,57.138a6.886,6.886,0,0,1-.16-1.486,7,7,0,0,1,.16-1.493,7.449,7.449,0,0,1,1-2.443,7.078,7.078,0,0,1,1.007-1.235,6.5,6.5,0,0,1,1-.835,7.313,7.313,0,0,1,.995-.577,6.55,6.55,0,0,1,1.009-.393,7.19,7.19,0,0,1,.995-.232,7.357,7.357,0,0,1,.994-.085h72.594c.132,0,.29.013.424.026l.238.027h12.862c.227-.019.439-.052.666-.052a1.494,1.494,0,0,1,.238.019c.119.007.227.027.347.033h5.082c.186,0,.385.013.571.027a7.72,7.72,0,0,1,.994.145,7.608,7.608,0,0,1,1.01.306,6.872,6.872,0,0,1,.994.478,5.984,5.984,0,0,1,1,.69,6.74,6.74,0,0,1,1.008.995,7.293,7.293,0,0,1,1,1.587,7.252,7.252,0,0,1,0,6.006,7.267,7.267,0,0,1-1,1.586,7.046,7.046,0,0,1-1.008,1,6.041,6.041,0,0,1-1,.691,6.872,6.872,0,0,1-.994.478,6.989,6.989,0,0,1-1.01.3,6.07,6.07,0,0,1-.994.152,5.525,5.525,0,0,1-.571.02h-5.149c-.093.008-.186.021-.28.033a1.5,1.5,0,0,1-.238.021,5.917,5.917,0,0,1-.6-.054H274.3l-.186.021c-.134.013-.279.033-.424.033h-72.46l-.135-.008a6.279,6.279,0,0,1-.994-.079,7.715,7.715,0,0,1-.995-.226,7.131,7.131,0,0,1-2-.969,6.769,6.769,0,0,1-1-.83,6.978,6.978,0,0,1-1.007-1.234,7.345,7.345,0,0,1-1-2.436" transform="translate(-27.61 -6.885)" fill="#e5e5e5" fill-rule="evenodd"/>
        <path id="Trazado_782665" data-name="Trazado 782665" d="M465.77,258.09c.769-.367,4.992-.286,9.2.576A8.187,8.187,0,0,1,473.908,256c-7.514-1.126-6.782-2.985-6.5-3.833,1.511-4.029,2.431-6.57,1.34-7.78a3.805,3.805,0,0,0-2.19,2.648c-.478-.286-1.074-.664-1.157-1.208-.184-1.6-.118-4.964-1.963-5.243-.371,1.474-.689,3.039-.968,4.692-.744.6-3.53,11.209,3.332,12.134Z" transform="translate(-65.67 -34.252)" fill="#e8b592" fill-rule="evenodd"/>
        <path id="Trazado_782666" data-name="Trazado 782666" d="M467.309,251.009c-.279.847,1.113,2.69,6.65,4.39.822-.124,1.5-.955,2.257-1.3a9.6,9.6,0,0,0,4.407-3.783c4.38-7.335.3-10.845-1.912-12.172-.491-7.6-11.9-1.711-17.11-5.713-2.389,2.853.039,6.808,1.738,6.994,1.845.279,1.78,3.639,1.963,5.243.082.545.679.922,1.157,1.208a3.414,3.414,0,0,1,1.527-2.2c.491-.326.612-.5.876.066.638,1.328-.186,3.637-1.552,7.263" transform="translate(-65.574 -33.091)" fill="#373f51" fill-rule="evenodd"/>
        <path id="Trazado_782667" data-name="Trazado 782667" d="M481.475,240.815c-.8-.883-.914-1.626-.356-2.236a5.2,5.2,0,0,1,4.326,1.183c-.835-.2-2.162.154-3.97,1.053" transform="translate(-68.446 -33.956)" fill="#373f51" fill-rule="evenodd"/>
        <path id="Trazado_782668" data-name="Trazado 782668" d="M479.89,239.025c.4.785.876,1.064,1.446.836a3.783,3.783,0,0,0,.334-3.292,4.879,4.879,0,0,1-1.78,2.455" transform="translate(-68.32 -33.68)" fill="#373f51" fill-rule="evenodd"/>
        <path id="Trazado_782669" data-name="Trazado 782669" d="M477.923,234.914c.051,2.057-1.01,3.265-3.161,3.611-3.768-1.294-5.932-3.238-6.462-5.853q1.93,1.643,9.624,2.243" transform="translate(-66.67 -33.125)" fill="#373f51" fill-rule="evenodd"/>
        <path id="Trazado_782670" data-name="Trazado 782670" d="M478.615,255.265c-.357-2.123-1.979-3.192-4.845-3.187-6.385-4.047-5.683,1.64-5.321,5.072,1.446-1.353,3.662-.6,10.166-1.885" transform="translate(-66.66 -35.688)" fill="#373f51" fill-rule="evenodd"/>
        <path id="Trazado_782671" data-name="Trazado 782671" d="M469.937,257.064c.519-1.027,1.581-1.358,3.2-1,4.341-1.292,3.107,1.508,2.322,3.238-.623-.868-2-.769-5.522-2.237" transform="translate(-66.903 -36.408)" fill="#373f51" fill-rule="evenodd"/>
        <path id="Trazado_782672" data-name="Trazado 782672" d="M479.978,266.647c-2.087-1.95-7.888-4.086-11.351-5.149a81.08,81.08,0,0,0-11.84-.6q-10.871-.109-23.36.227c-8.219-4-10.408-4.347-14.562-6.24-1.234-.557-3.466-1.73-5.258-2.694-.822.411-1.87,2.25-2.2,3.8,8.732,8.389,14.334,11.713,17.532,13.544a103.236,103.236,0,0,0,16.632,3.014q1.953,12.475,2.948,24.045c-1.366,8.13-2.033,13.665-1.966,16.6q19.056,2.816,30.569.153a70.533,70.533,0,0,0-1.751-8.1c.837-10.419,2.178-17.2,2.893-22.015A52.084,52.084,0,0,0,484.914,294a119.444,119.444,0,0,0-4.605,15.483,6.722,6.722,0,0,0,3.835,2.4c2.017-3.5,6.4-11.521,7.555-17.5.808-4.783-8.789-23.97-11.72-27.728" transform="translate(-58.571 -35.903)" fill="#5573c6" fill-rule="evenodd"/>
        <path id="Trazado_782673" data-name="Trazado 782673" d="M475.261,261.328a9.334,9.334,0,0,1,1.221,1.439l-.266-.081a81.635,81.635,0,0,0-11.5-.61A7.591,7.591,0,0,1,466,260.744c.783-.367,5.015-.286,9.264.584" transform="translate(-66.161 -37.092)" fill="#6f88c1" fill-rule="evenodd"/>
        <path id="Trazado_782674" data-name="Trazado 782674" d="M409.919,254.709c-2.175-1.075-3.864-1.8-5.057-2.929-.424-1.374-1.274-1.431-1.049-2.635-2-2.355-2.469-2.4-3.4-2.84.81-1.32,2.681-.251,5.723,2.7q3.084,1.814,2.627-.777c-1.235-1.2-1.207-2.2-.85-2.753.173.145.837.955,2.03,2.208a7.786,7.786,0,0,1,1.462,3.272,1.128,1.128,0,0,0,.212.6,7.671,7.671,0,0,0-1.7,3.161" transform="translate(-57.006 -34.947)" fill="#e8b592" fill-rule="evenodd"/>
        <path id="Trazado_782675" data-name="Trazado 782675" d="M491.375,319.534c-.876,1.077-1.937,1.632-3.6,3.226l.013.173-.253.059c-.369.364-.769.782-1.193,1.268q1.294,1.042,3.305-1.433a4.933,4.933,0,0,1-1.433,4.1c-.5.576-.917,1.023-1.221,1.333q1.433,2.449,6-1.937c.612-1.142.545-2.27.9-3.306a14.463,14.463,0,0,1,.558-1.653,6.769,6.769,0,0,1-3.079-1.823Z" transform="translate(-69.239 -45.491)" fill="#e8b592" fill-rule="evenodd"/>
        <path id="Trazado_782676" data-name="Trazado 782676" d="M481.522,323.713c1.527,10.287,2.229,26.5,2.124,42.145,1.472,7.425,1.395,19.292-.227,43.369a20.923,20.923,0,0,1-7.418.341c-3.73-22.467-5.15-34.167-4.274-42.881-1.142-6.253-2.694-17.736-4.672-26.675-1.991,8.939-3.559,20.422-4.685,26.675.876,8.714-.545,20.413-4.262,42.881a20.993,20.993,0,0,1-7.432-.341c-1.62-24.076-1.7-35.944-.238-43.369-.093-15.783.623-32.149,2.175-42.424q17.783,2.556,28.911.279" transform="translate(-63.979 -46.046)" fill="#373f51" fill-rule="evenodd"/>
        <path id="Trazado_782677" data-name="Trazado 782677" d="M456.609,428.753c.7.558.876,3.12.292,5.078a7.733,7.733,0,0,1-6.823-.31c-1.126-.434-2.482-1.178-2.443-1.986.041-1.526.083-1.559,3.228-3.192-.054.313-.108.6-.16.863.144.359.411.63.94.292.587-.376.388-1.6,2.02-1.627,1.353-.018,1.366,1.276,2.03,1.708.718.5.878-.25.917-.824" transform="translate(-63.728 -60.914)" fill="#373f51" fill-rule="evenodd"/>
        <path id="Trazado_782678" data-name="Trazado 782678" d="M481.671,428.752c-.7.553-.876,3.12-.3,5.073a7.764,7.764,0,0,0,6.834-.313c.346-.167,1.7-.6,1.808-.968.372-1.315.051-3.069-2.588-4.21.039.313.094.6.145.863-.134.359-.413.63-.93.3-.583-.38-.384-1.594-2.017-1.628-1.353-.021-1.366,1.276-2.033,1.7-.728.506-.888-.243-.914-.816" transform="translate(-68.482 -60.914)" fill="#373f51" fill-rule="evenodd"/>
        <path id="Trazado_782679" data-name="Trazado 782679" d="M457.173,423.971a23.842,23.842,0,0,0-.214,4.91c-.12.258-.344.379-.757.093-.663-.431-.677-1.726-2.03-1.708-1.632.029-1.433,1.25-2.019,1.628-.531.338-.8.067-.942-.292a28.392,28.392,0,0,0,.466-4.972,21.709,21.709,0,0,0,5.5.341" transform="translate(-64.237 -60.311)" fill="#e8b592" fill-rule="evenodd"/>
        <path id="Trazado_782680" data-name="Trazado 782680" d="M481.718,423.97a23.673,23.673,0,0,1,.2,4.9c.135.259.362.38.77.093.666-.429.678-1.726,2.033-1.7,1.632.033,1.433,1.247,2.016,1.627.517.335.8.064.931-.294a30.168,30.168,0,0,1-.453-4.97,21.83,21.83,0,0,1-5.493.346" transform="translate(-68.581 -60.31)" fill="#e8b592" fill-rule="evenodd"/>
        <path id="Trazado_782681" data-name="Trazado 782681" d="M448.466,273.879c.931,2.98,6.08,23.627,7.392,24.544q5.5,3.831,7.8,5.72c-3-1.691-5.531-2.874-7.219-4.088-5.615-4.034-5.084,7.035-7,14.468-.067-2.934.6-8.468,1.965-16.6q-.994-11.581-2.947-24.045m-14.055-12.342a8.91,8.91,0,0,0-2.67,1.957,17.257,17.257,0,0,1,4.581-1.043c-.677-.331-1.315-.638-1.911-.914m47.347,19.06a36.644,36.644,0,0,1-.6,3.967c-.716,4.82-2.056,11.6-2.893,22.015a70.476,70.476,0,0,1,1.75,8.1c-.159.039-.317.08-.475.111a42.573,42.573,0,0,0-1.82-5.726c-.851-2.2-1.819-.7-4.75.166,3.73-3.311,2.944-2.271,3.874-7.248q2.309-12.284,4.913-21.382" transform="translate(-61.466 -37.234)" fill="#6f88c1" fill-rule="evenodd"/>
      </g>
    </g>
  </g>
</svg>
