<svg xmlns="http://www.w3.org/2000/svg" xmlns:xlink="http://www.w3.org/1999/xlink" width="141" height="141" viewBox="0 0 141 141">
  <defs>
    <clipPath id="clip-path">
      <rect id="Rectángulo_366576" data-name="Rectángulo 366576" width="83.464" height="80.869" fill="none"/>
    </clipPath>
    <clipPath id="clip-path-3">
      <rect id="Rectángulo_366573" data-name="Rectángulo 366573" width="45.181" height="21.541" fill="none"/>
    </clipPath>
    <clipPath id="clip-path-4">
      <rect id="Rectángulo_366574" data-name="Rectángulo 366574" width="0.005" height="0.001" fill="none"/>
    </clipPath>
  </defs>
  <g id="Grupo_1034053" data-name="Grupo 1034053" transform="translate(5334.018 -4001.667)">
    <circle id="Elipse_8597" data-name="Elipse 8597" cx="70.5" cy="70.5" r="70.5" transform="translate(-5334.018 4001.667)" fill="#5573c6" opacity="0.58"/>
    <circle id="Elipse_8598" data-name="Elipse 8598" cx="61.5" cy="61.5" r="61.5" transform="translate(-5325.018 4010.667)" fill="#fff"/>
    <g id="Grupo_1033881" data-name="Grupo 1033881" transform="translate(-5302 4030)">
      <g id="Grupo_1033880" data-name="Grupo 1033880" clip-path="url(#clip-path)">
        <rect id="Rectángulo_366570" data-name="Rectángulo 366570" width="62.143" height="19.951" transform="translate(0.556 60.362)" fill="#f4a338"/>
        <g id="Grupo_1033879" data-name="Grupo 1033879">
          <g id="Grupo_1033878" data-name="Grupo 1033878" clip-path="url(#clip-path)">
            <path id="Trazado_782496" data-name="Trazado 782496" d="M62.7,114.6H.556A.557.557,0,0,1,0,114.047V94.1a.557.557,0,0,1,.556-.556H62.7a.557.557,0,0,1,.556.556v19.952a.557.557,0,0,1-.556.556M1.112,113.491H62.144V94.651H1.112Z" transform="translate(0 -33.734)"/>
            <rect id="Rectángulo_366571" data-name="Rectángulo 366571" width="62.144" height="19.951" transform="translate(0.556 7.721)" fill="#e6b046"/>
            <path id="Trazado_782497" data-name="Trazado 782497" d="M62.7,32.27H.556A.557.557,0,0,1,0,31.713V11.762a.557.557,0,0,1,.556-.556H62.7a.557.557,0,0,1,.556.556V31.713a.557.557,0,0,1-.556.556M1.112,31.157H62.144V12.318H1.112Z" transform="translate(0 -4.041)"/>
            <rect id="Rectángulo_366572" data-name="Rectángulo 366572" width="62.144" height="19.951" transform="translate(0.556 34.041)" fill="#4adbd1"/>
            <path id="Trazado_782498" data-name="Trazado 782498" d="M62.7,73.437H.556A.557.557,0,0,1,0,72.88V52.929a.557.557,0,0,1,.556-.556H62.7a.557.557,0,0,1,.556.556V72.88a.557.557,0,0,1-.556.556M1.112,72.324H62.144V53.485H1.112Z" transform="translate(0 -18.888)"/>
            <path id="Trazado_782499" data-name="Trazado 782499" d="M13.045,67.457a2.462,2.462,0,1,1,2.462,2.462,2.461,2.461,0,0,1-2.462-2.462" transform="translate(-4.705 -23.44)" fill="#fff"/>
            <path id="Trazado_782500" data-name="Trazado 782500" d="M15.193,70.161a3.018,3.018,0,1,1,3.018-3.018,3.022,3.022,0,0,1-3.018,3.018m0-4.924A1.906,1.906,0,1,0,17.1,67.143a1.908,1.908,0,0,0-1.905-1.905" transform="translate(-4.391 -23.126)"/>
            <path id="Trazado_782501" data-name="Trazado 782501" d="M13.045,108.623a2.462,2.462,0,1,1,2.462,2.462,2.462,2.462,0,0,1-2.462-2.462" transform="translate(-4.705 -38.286)" fill="#fff"/>
            <path id="Trazado_782502" data-name="Trazado 782502" d="M15.193,111.328a3.018,3.018,0,1,1,3.018-3.018,3.022,3.022,0,0,1-3.018,3.018m0-4.924A1.906,1.906,0,1,0,17.1,108.31a1.908,1.908,0,0,0-1.905-1.906" transform="translate(-4.391 -37.973)"/>
            <path id="Trazado_782503" data-name="Trazado 782503" d="M13.045,108.623a2.462,2.462,0,1,1,2.462,2.462,2.462,2.462,0,0,1-2.462-2.462" transform="translate(-4.705 -38.286)" fill="#fff"/>
            <path id="Trazado_782504" data-name="Trazado 782504" d="M15.193,111.328a3.018,3.018,0,1,1,3.018-3.018,3.022,3.022,0,0,1-3.018,3.018m0-4.924A1.906,1.906,0,1,0,17.1,108.31a1.908,1.908,0,0,0-1.905-1.906" transform="translate(-4.391 -37.973)"/>
            <path id="Trazado_782505" data-name="Trazado 782505" d="M32.8,108.623a2.462,2.462,0,1,1,2.462,2.462,2.462,2.462,0,0,1-2.462-2.462" transform="translate(-11.828 -38.286)" fill="#fff"/>
            <path id="Trazado_782506" data-name="Trazado 782506" d="M34.945,111.328a3.018,3.018,0,1,1,3.018-3.018,3.021,3.021,0,0,1-3.018,3.018m0-4.924a1.906,1.906,0,1,0,1.906,1.906,1.908,1.908,0,0,0-1.906-1.906" transform="translate(-11.514 -37.973)"/>
            <path id="Trazado_782507" data-name="Trazado 782507" d="M13.045,26.29a2.462,2.462,0,1,1,2.462,2.462,2.462,2.462,0,0,1-2.462-2.462" transform="translate(-4.705 -8.593)" fill="#fff"/>
            <path id="Trazado_782508" data-name="Trazado 782508" d="M15.193,28.994a3.018,3.018,0,1,1,3.018-3.018,3.022,3.022,0,0,1-3.018,3.018m0-4.924A1.906,1.906,0,1,0,17.1,25.976a1.908,1.908,0,0,0-1.905-1.905" transform="translate(-4.391 -8.28)"/>
            <path id="Trazado_782509" data-name="Trazado 782509" d="M32.8,26.29a2.462,2.462,0,1,1,2.462,2.462A2.462,2.462,0,0,1,32.8,26.29" transform="translate(-11.828 -8.593)" fill="#fff"/>
            <path id="Trazado_782510" data-name="Trazado 782510" d="M34.945,28.994a3.018,3.018,0,1,1,3.018-3.018,3.021,3.021,0,0,1-3.018,3.018m0-4.924a1.906,1.906,0,1,0,1.906,1.905,1.908,1.908,0,0,0-1.906-1.905" transform="translate(-11.514 -8.28)"/>
            <path id="Trazado_782511" data-name="Trazado 782511" d="M60.171,12.432a23.845,23.845,0,0,1,31.966-8.56,22.376,22.376,0,0,1,7.9,31.249,23.845,23.845,0,0,1-31.966,8.56,22.376,22.376,0,0,1-7.9-31.249" transform="translate(-20.491 -0.311)" fill="#5573c6"/>
            <path id="Trazado_782512" data-name="Trazado 782512" d="M79.158,46.929a23.546,23.546,0,0,1-11.682-3.073A22.6,22.6,0,0,1,56.684,29.817a23.2,23.2,0,0,1,2.694-17.983A24.432,24.432,0,0,1,92.095,3.079a22.6,22.6,0,0,1,10.792,14.039A23.206,23.206,0,0,1,100.193,35.1,24.631,24.631,0,0,1,79.158,46.929M60.329,12.411h0A22.1,22.1,0,0,0,57.76,29.537,21.494,21.494,0,0,0,68.027,42.889a22.444,22.444,0,0,0,11.137,2.93A23.51,23.51,0,0,0,99.242,34.524,22.1,22.1,0,0,0,101.81,17.4,21.494,21.494,0,0,0,91.544,4.046a23.315,23.315,0,0,0-31.215,8.365" transform="translate(-20.173 -0.002)"/>
            <path id="Trazado_782513" data-name="Trazado 782513" d="M110.015,14.848c-3.024,1.807-6.048,3.616-9.057,5.449-4.534,2.763-8.935,6.1-13.354,9.051C90.149,31.87,98.9,40.193,102.19,43.51q1.57,1.584,3.137,3.171a23.816,23.816,0,0,0,5.812-6.516,22.53,22.53,0,0,0-1.123-25.317" transform="translate(-31.594 -5.355)" fill="#fff"/>
            <path id="Trazado_782514" data-name="Trazado 782514" d="M105.013,46.923a.555.555,0,0,1-.4-.166q-1.567-1.586-3.137-3.17c-1.94-1.958-5.769-5.644-9.146-8.9-2.358-2.27-4.394-4.231-5.436-5.264a.556.556,0,0,1,.082-.857c1.662-1.109,3.354-2.3,4.991-3.444,2.725-1.912,5.543-3.889,8.383-5.619,3.01-1.834,6.086-3.673,9.061-5.451a.556.556,0,0,1,.729.142,23.04,23.04,0,0,1,1.155,25.94,24.3,24.3,0,0,1-5.947,6.668.557.557,0,0,1-.341.117M88.166,29.115c1.12,1.1,2.91,2.821,4.94,4.775,3.382,3.256,7.215,6.947,9.165,8.914q1.4,1.408,2.788,2.817a23.206,23.206,0,0,0,5.291-6.059,21.946,21.946,0,0,0-.8-24.292c-2.837,1.7-5.759,3.444-8.62,5.187-2.809,1.711-5.612,3.678-8.323,5.58-1.457,1.022-2.958,2.074-4.445,3.078" transform="translate(-31.28 -5.041)"/>
            <path id="Trazado_782515" data-name="Trazado 782515" d="M87.6,24.306q5.283-3.009,10.711-5.755,5.173-2.6,10.46-4.972c.951-.426,1.907-.855,2.867-1.277a22.141,22.141,0,0,0-8.4-8.429,23.019,23.019,0,0,0-11.111-3c-.75,3.613-1.424,7.239-2.139,10.858-.827,4.188-1.611,8.383-2.387,12.578" transform="translate(-31.594 -0.314)" fill="#4adbd1"/>
            <path id="Trazado_782516" data-name="Trazado 782516" d="M87.289,24.549a.556.556,0,0,1-.547-.658c.737-3.988,1.537-8.273,2.388-12.584q.371-1.879.732-3.759c.451-2.33.917-4.739,1.408-7.1A.556.556,0,0,1,91.815,0h.007A23.7,23.7,0,0,1,103.2,3.077a22.794,22.794,0,0,1,8.612,8.639.556.556,0,0,1-.261.782c-.806.354-1.609.714-2.408,1.072l-.455.2c-3.5,1.569-7.014,3.238-10.436,4.961-3.461,1.742-7.057,3.673-10.687,5.741a.557.557,0,0,1-.276.073M92.266,1.123c-.455,2.212-.89,4.459-1.311,6.635q-.364,1.883-.733,3.763c-.767,3.886-1.492,7.752-2.168,11.4,3.293-1.855,6.55-3.6,9.7-5.179,3.437-1.731,6.963-3.406,10.482-4.983l.454-.2q.922-.412,1.848-.824a21.692,21.692,0,0,0-7.885-7.687A22.569,22.569,0,0,0,92.266,1.123" transform="translate(-31.28)"/>
            <path id="Trazado_782517" data-name="Trazado 782517" d="M92.828,38.242a.183.183,0,0,1-.1-.026.186.186,0,0,1-.064-.254L94,35.737a.186.186,0,0,1,.318.191l-1.335,2.224a.186.186,0,0,1-.159.09" transform="translate(-33.411 -12.856)"/>
            <path id="Trazado_782518" data-name="Trazado 782518" d="M95.744,38.989a.185.185,0,0,1-.16-.278l3.566-6.19a.186.186,0,0,1,.322.185L95.906,38.9a.186.186,0,0,1-.161.093" transform="translate(-34.463 -11.695)"/>
            <path id="Trazado_782519" data-name="Trazado 782519" d="M99.23,39.933a.189.189,0,0,1-.086-.021.186.186,0,0,1-.078-.251c1.706-3.241,3.378-6.563,4.97-9.874a.185.185,0,0,1,.334.16c-1.594,3.315-3.268,6.641-4.976,9.886a.186.186,0,0,1-.164.1" transform="translate(-35.72 -10.705)"/>
            <path id="Trazado_782520" data-name="Trazado 782520" d="M102.413,41.294a.185.185,0,0,1-.168-.265l6.585-13.743a.186.186,0,0,1,.335.16l-6.585,13.742a.186.186,0,0,1-.168.105" transform="translate(-36.868 -9.802)"/>
            <path id="Trazado_782521" data-name="Trazado 782521" d="M106.075,42.434a.189.189,0,0,1-.076-.016.186.186,0,0,1-.093-.246L113.816,24.6a.185.185,0,0,1,.338.152l-7.91,17.573a.184.184,0,0,1-.169.109" transform="translate(-38.189 -8.832)"/>
            <path id="Trazado_782522" data-name="Trazado 782522" d="M109.8,43.9a.183.183,0,0,1-.072-.015.185.185,0,0,1-.1-.243l9.092-21.6a.186.186,0,1,1,.342.144l-9.093,21.6a.186.186,0,0,1-.171.113" transform="translate(-39.533 -7.909)"/>
            <path id="Trazado_782523" data-name="Trazado 782523" d="M113.441,48.161a.183.183,0,0,1-.073-.014.186.186,0,0,1-.1-.244l8.008-18.694a.186.186,0,0,1,.341.146l-8.008,18.695a.186.186,0,0,1-.171.112" transform="translate(-40.845 -10.493)"/>
            <path id="Trazado_782524" data-name="Trazado 782524" d="M119.9,49.591a.184.184,0,0,1-.075-.016.186.186,0,0,1-.094-.245c1.511-3.389,3.03-6.848,4.514-10.28a.186.186,0,0,1,.341.147c-1.486,3.433-3.006,6.894-4.516,10.283a.185.185,0,0,1-.169.11" transform="translate(-43.176 -14.043)"/>
            <g id="Grupo_1033874" data-name="Grupo 1033874" transform="translate(36.354 27.576)" opacity="0.129">
              <g id="Grupo_1033873" data-name="Grupo 1033873">
                <g id="Grupo_1033872" data-name="Grupo 1033872" clip-path="url(#clip-path-3)">
                  <path id="Trazado_782525" data-name="Trazado 782525" d="M101.152,44.405c-.735-.013-.894.736-1.119,1.285a12.365,12.365,0,0,1-.933,1.793A11.1,11.1,0,0,1,97.848,49.2c.086-.088-.676.843-1.5,1.717-.763.778-.631.625-1.148,1.119a16.845,16.845,0,0,1-4.968,3.155,30.565,30.565,0,0,1-6.754,2.54,13.117,13.117,0,0,1-3.034.254,27.646,27.646,0,0,1-3.11-.384l.017,0c-.891-.164-1.792-.267-2.675-.471a14.458,14.458,0,0,1-2.134-.621,39,39,0,0,1-6.885-4.265c-.932-.847-1.9-1.652-2.782-2.556-.735-.725-.269-.4-1.036-1.178-.017-.014-.034-.021-.051-.034a16.879,16.879,0,0,1-2.726-3.857c-.114-.263-.064-.139-.3-.774a.969.969,0,0,0-1.868,0,1.991,1.991,0,0,0,.246,1.2,14.322,14.322,0,0,0,1.349,2.5c.329.51.682,1,1.049,1.479a1.089,1.089,0,0,0-.413.82,1.134,1.134,0,0,0-.247-.087,1.373,1.373,0,0,0-1.671.948,1.785,1.785,0,0,0,.294,1.364c.018.042.037.086.058.132a12.937,12.937,0,0,0,.889,1.557,23.82,23.82,0,0,0,10.2,8.8,22.741,22.741,0,0,0,10.88,2.088c.811-.015,1.621-.051,2.429-.117a1.823,1.823,0,0,0,1.3-.416,1.3,1.3,0,0,0-.911-2.2,25.817,25.817,0,0,1-9.969-.73c1.125.132,2.27.153,3.392.244,1.3.079,2.6.308,3.9.341a32.748,32.748,0,0,0,4.2-.169,35.375,35.375,0,0,0,7.014-2.4,17.483,17.483,0,0,0,3.9-2.488c.26-.254.627-.446.751-.8a1,1,0,0,0-.111-1.018,14.381,14.381,0,0,0,1.763-1.74c.323-.366,1.351-1.436,2.109-2.447.535-.785,1.028-1.6,1.517-2.416a16.46,16.46,0,0,0,1.053-2.313c.363-.68.155-1.514-.72-1.562M60.978,52.929c-.152-.276-.311-.549-.469-.822.371.444.745.889,1.131,1.32a15.757,15.757,0,0,0,1.38,2c-.052-.051-.107-.1-.158-.148a14.818,14.818,0,0,1-1.884-2.353" transform="translate(-56.861 -43.13)"/>
                </g>
              </g>
            </g>
            <g id="Grupo_1033877" data-name="Grupo 1033877" transform="translate(56.841 42.042)" opacity="0.129">
              <g id="Grupo_1033876" data-name="Grupo 1033876">
                <g id="Grupo_1033875" data-name="Grupo 1033875" clip-path="url(#clip-path-4)">
                  <path id="Trazado_782526" data-name="Trazado 782526" d="M88.9,65.757h0" transform="translate(-88.904 -65.757)"/>
                </g>
              </g>
            </g>
          </g>
        </g>
      </g>
    </g>
  </g>
</svg>
