<svg xmlns="http://www.w3.org/2000/svg" xmlns:xlink="http://www.w3.org/1999/xlink" width="141" height="141" viewBox="0 0 141 141">
  <defs>
    <clipPath id="clip-path">
      <rect id="Rectángulo_366569" data-name="Rectángulo 366569" width="80.488" height="76.28" fill="none"/>
    </clipPath>
  </defs>
  <g id="Grupo_1034052" data-name="Grupo 1034052" transform="translate(5677.018 -4001.667)">
    <circle id="Elipse_8595" data-name="Elipse 8595" cx="70.5" cy="70.5" r="70.5" transform="translate(-5677.018 4001.667)" fill="#4adbd1" opacity="0.58"/>
    <circle id="Elipse_8596" data-name="Elipse 8596" cx="61.5" cy="61.5" r="61.5" transform="translate(-5668.018 4010.667)" fill="#fff"/>
    <g id="Grupo_1033871" data-name="Grupo 1033871" transform="translate(-5651 4033)">
      <rect id="Rectángulo_366565" data-name="Rectángulo 366565" width="10.97" height="25.576" transform="translate(13.133 50.179)" fill="#fff"/>
      <g id="Grupo_1033870" data-name="Grupo 1033870">
        <g id="Grupo_1033869" data-name="Grupo 1033869" clip-path="url(#clip-path)">
          <path id="Trazado_782482" data-name="Trazado 782482" d="M32.367,108.827H21.4a.526.526,0,0,1-.526-.526V82.726A.526.526,0,0,1,21.4,82.2h10.97a.526.526,0,0,1,.526.526V108.3a.526.526,0,0,1-.526.526m-10.444-1.051h9.919V83.251H21.923Z" transform="translate(-8.264 -32.547)"/>
          <rect id="Rectángulo_366566" data-name="Rectángulo 366566" width="10.97" height="44.495" transform="translate(31.333 31.26)" fill="#4adbd1"/>
          <path id="Trazado_782483" data-name="Trazado 782483" d="M62.5,96.426H51.526A.526.526,0,0,1,51,95.9V51.406a.526.526,0,0,1,.526-.526H62.5a.526.526,0,0,1,.526.526V95.9a.526.526,0,0,1-.526.526M52.051,95.375H61.97V51.931H52.051Z" transform="translate(-20.193 -20.146)"/>
          <rect id="Rectángulo_366567" data-name="Rectángulo 366567" width="10.97" height="33.505" transform="translate(50.074 42.249)" fill="#5573c6"/>
          <path id="Trazado_782484" data-name="Trazado 782484" d="M93.522,103.629H82.553a.526.526,0,0,1-.526-.526V69.6a.526.526,0,0,1,.526-.526h10.97a.526.526,0,0,1,.526.526V103.1a.526.526,0,0,1-.526.526m-10.444-1.051H93V70.124H83.078Z" transform="translate(-32.478 -27.349)"/>
          <rect id="Rectángulo_366568" data-name="Rectángulo 366568" width="10.97" height="51.852" transform="translate(68.993 23.902)" fill="#f4a338"/>
          <path id="Trazado_782485" data-name="Trazado 782485" d="M124.842,91.6h-10.97a.526.526,0,0,1-.526-.526V39.226a.526.526,0,0,1,.526-.526h10.97a.526.526,0,0,1,.526.526V91.078a.526.526,0,0,1-.526.526M114.4,90.552h9.919v-50.8H114.4Z" transform="translate(-44.879 -15.323)"/>
          <path id="Trazado_782486" data-name="Trazado 782486" d="M.525,48.393a.526.526,0,0,1-.413-.85L9.171,36a.525.525,0,0,1,.726-.1l5.856,4.342,19.2-23.02a.526.526,0,0,1,.69-.1L52.52,28.093,77.454.175a.526.526,0,0,1,.784.7L53,29.129a.526.526,0,0,1-.678.091L35.462,18.259,16.242,41.3a.526.526,0,0,1-.717.085L9.682,37.054.939,48.191a.524.524,0,0,1-.414.2" transform="translate(0 0)"/>
          <path id="Trazado_782487" data-name="Trazado 782487" d="M26.245,121.744a.174.174,0,0,1-.115-.043c-.895-.774-1.781-1.59-2.635-2.427a.175.175,0,0,1,.245-.251c.849.832,1.731,1.644,2.62,2.413a.175.175,0,0,1-.115.307" transform="translate(-9.282 -47.107)"/>
          <path id="Trazado_782488" data-name="Trazado 782488" d="M30.118,119.7a.175.175,0,0,1-.117-.045l-6.238-5.606a.175.175,0,1,1,.234-.261l6.239,5.606a.175.175,0,0,1-.117.306" transform="translate(-9.385 -45.037)"/>
          <path id="Trazado_782489" data-name="Trazado 782489" d="M32.167,115.84a.177.177,0,0,1-.116-.043c-2.75-2.431-5.574-4.852-8.392-7.2a.175.175,0,1,1,.224-.27c2.821,2.349,5.647,4.773,8.4,7.205a.175.175,0,0,1-.116.306" transform="translate(-9.342 -42.876)"/>
          <path id="Trazado_782490" data-name="Trazado 782490" d="M32.29,110.333a.173.173,0,0,1-.106-.036c-2.89-2.21-5.749-4.535-8.5-6.91a.175.175,0,1,1,.23-.265c2.745,2.371,5.6,4.691,8.482,6.9a.175.175,0,0,1-.106.314" transform="translate(-9.354 -40.814)"/>
          <path id="Trazado_782491" data-name="Trazado 782491" d="M32.271,104.263a.174.174,0,0,1-.113-.042c-2.85-2.417-5.716-4.9-8.52-7.387a.175.175,0,0,1,.233-.262c2.8,2.482,5.665,4.966,8.513,7.382a.175.175,0,0,1-.113.309" transform="translate(-9.336 -38.22)"/>
          <path id="Trazado_782492" data-name="Trazado 782492" d="M32.138,98.505a.173.173,0,0,1-.107-.037c-2.824-2.185-5.606-4.5-8.269-6.871A.175.175,0,0,1,24,91.336c2.657,2.369,5.433,4.676,8.25,6.856a.174.174,0,0,1,.031.245.172.172,0,0,1-.138.068" transform="translate(-9.385 -36.146)"/>
          <path id="Trazado_782493" data-name="Trazado 782493" d="M31.883,92.991a.17.17,0,0,1-.106-.036c-2.773-2.115-5.555-4.3-8.27-6.5a.175.175,0,0,1,.22-.272c2.712,2.2,5.491,4.379,8.262,6.492a.175.175,0,0,1-.106.315" transform="translate(-9.282 -34.109)"/>
          <path id="Trazado_782494" data-name="Trazado 782494" d="M33.921,89.571a.173.173,0,0,1-.108-.037l-5.171-4.067a.175.175,0,0,1,.217-.275l5.171,4.066a.175.175,0,0,1-.109.313" transform="translate(-11.314 -33.716)"/>
          <path id="Trazado_782495" data-name="Trazado 782495" d="M36.338,86.989a.172.172,0,0,1-.112-.041c-.229-.191-.519-.42-.825-.661-.343-.27-.706-.556-1.024-.824a.175.175,0,0,1,.225-.268c.316.265.676.549,1.016.817.309.243.6.474.832.668a.175.175,0,0,1-.112.309" transform="translate(-13.587 -33.716)"/>
        </g>
      </g>
    </g>
  </g>
</svg>
