<svg xmlns="http://www.w3.org/2000/svg" xmlns:xlink="http://www.w3.org/1999/xlink" width="401" height="391" viewBox="0 0 401 391">
  <defs>
    <clipPath id="clip-path">
      <rect id="Rectángulo_366372" data-name="Rectángulo 366372" width="366.505" height="329.072" fill="none"/>
    </clipPath>
  </defs>
  <g id="Grupo_1034049" data-name="Grupo 1034049" transform="translate(4986.031 9494.265)">
    <rect id="Rectángulo_364409" data-name="Rectángulo 364409" width="401" height="391" transform="translate(-4986.031 -9494.265)" fill="#efeeee"/>
    <g id="Grupo_1033508" data-name="Grupo 1033508" transform="translate(-4968.784 -9468.801)">
      <g id="Grupo_1033507" data-name="Grupo 1033507" clip-path="url(#clip-path)">
        <path id="Trazado_781386" data-name="Trazado 781386" d="M79.608,3.121V182.286h199.43s-.14-1.576-.618-4.252a95.581,95.581,0,0,0-4.444-16.264c-6.973-18.846-23.215-44.441-60.389-48.4q-2.174-.235-4.444-.367c-.456-.022-.917-.049-1.382-.067-53.64-2.3-46.408-35.965-59-67.259a76.206,76.206,0,0,0-4.444-9.264,63.671,63.671,0,0,0-7.493-10.554C113.587-.643,92.655-.012,83.923,1.832a22.444,22.444,0,0,0-4.315,1.29" transform="translate(54.408 0.729)" fill="#d6e8ed"/>
        <rect id="Rectángulo_366367" data-name="Rectángulo 366367" width="206.622" height="8.081" transform="translate(130.43 181.695)" fill="#5573c6"/>
        <path id="Trazado_781387" data-name="Trazado 781387" d="M195.066,96.527v24.03h4.444v-7.766a95.578,95.578,0,0,0-4.444-16.264" transform="translate(133.318 65.971)" fill="#5573c6"/>
        <path id="Trazado_781388" data-name="Trazado 781388" d="M156.554,67.557v72.8H161V67.924q-2.174-.235-4.444-.367" transform="translate(106.997 46.172)" fill="#5573c6"/>
        <path id="Trazado_781389" data-name="Trazado 781389" d="M118.042,22.061V171.45h4.444V31.325a76.21,76.21,0,0,0-4.444-9.264" transform="translate(80.676 15.078)" fill="#fff"/>
        <rect id="Rectángulo_366368" data-name="Rectángulo 366368" width="4.444" height="186.528" transform="translate(133.886 0.002)" fill="#5573c6"/>
        <path id="Trazado_781390" data-name="Trazado 781390" d="M229.221,140.377l-78.149-10.394c-9.06-1.205-16.274-10.042-16.393-19.794L134.3,79.021c-.121-9.835,6.936-17.823,16.048-17.823h78.686c12.579,0,23.173,9.873,23.173,22.023v38.467c0,12.023-10.506,20.35-22.982,18.69" transform="translate(91.784 41.826)" fill="#516275"/>
        <path id="Trazado_781391" data-name="Trazado 781391" d="M54.98,129.256H289.053s101.889-8.5,71.944,45.662c-24.1,43.583-123.936,74.7-215.212,64.042S-26.573,192.741,8.247,153.935c25.216-28.1,46.733-24.679,46.733-24.679" transform="translate(0 88.008)" fill="#c9c7c7"/>
        <path id="Trazado_781392" data-name="Trazado 781392" d="M90.026,38.059c-.013,0-.017.02,0,.02s.015-.02,0-.02" transform="translate(61.52 26.011)" fill="#ffc192"/>
        <path id="Trazado_781393" data-name="Trazado 781393" d="M61.247,44.24c-.059,0-.071.089-.007.089s.069-.089.007-.089" transform="translate(41.825 30.236)" fill="#aeccd4"/>
        <path id="Trazado_781394" data-name="Trazado 781394" d="M59.489,130.72c-.1,0-.116.15-.012.15s.116-.15.012-.15" transform="translate(40.602 89.34)" fill="#b4b8b9"/>
        <rect id="Rectángulo_366369" data-name="Rectángulo 366369" width="24.257" height="55.737" transform="translate(72.168 177.937)" fill="#516275"/>
        <path id="Trazado_781395" data-name="Trazado 781395" d="M93.4,140.641c1.249,8.345-11.437,17.159-28.332,19.686s-31.605-2.188-32.854-10.533,11.437-17.158,28.332-19.686S92.153,132.3,93.4,140.641" transform="translate(21.96 88.456)" fill="#516275"/>
        <path id="Trazado_781396" data-name="Trazado 781396" d="M.414,71.7.02,191.069a6.443,6.443,0,0,0,8.892,5.983l132.575-54.443a7.825,7.825,0,0,0,4.852-7.239V33.71a3.852,3.852,0,0,0-4.855-3.72L4.03,66.994A4.887,4.887,0,0,0,.414,71.7" transform="translate(0.014 20.404)" fill="#516275"/>
        <path id="Trazado_781397" data-name="Trazado 781397" d="M1.835,68.805,1.446,182.332l141.065-52.707V31.366Z" transform="translate(0.988 21.437)" fill="#f4a338"/>
        <path id="Trazado_781398" data-name="Trazado 781398" d="M54.668,105.054a5.077,5.077,0,0,0-3.655.582,3.335,3.335,0,0,0-1.338.944c-.827,1.076.143,2.433,1.3,2.683A3.3,3.3,0,0,0,53,108.941,9.257,9.257,0,0,0,54.8,107.88a2.013,2.013,0,0,0,.885-1.53,1.28,1.28,0,0,0-1.022-1.3m-.123,2.205a6.905,6.905,0,0,1-1.335.862,3.836,3.836,0,0,1-1.552.545,1.61,1.61,0,0,1-1.3-.487.955.955,0,0,1-.2-1.183,1.516,1.516,0,0,1,.311-.347.263.263,0,0,0,.214-.045,5.787,5.787,0,0,1,1.385-.715c.4-.109.811-.175,1.222-.261.121-.01.246-.015.369-.015.423,0,1.136-.007,1.31.478a1.127,1.127,0,0,1-.421,1.168" transform="translate(33.74 71.714)" fill="#fff"/>
        <path id="Trazado_781399" data-name="Trazado 781399" d="M49.328,132.2c-.007-.059-.064-.062-.108-.039-.005-.611-.035-1.222-.089-1.825-.008-.091-.172-.066-.167.02a17.947,17.947,0,0,1-.434,4.87,3.593,3.593,0,0,1-.975,1.944,16.675,16.675,0,0,1-1.727,1.3,83.739,83.739,0,0,1-7.764,4.9q-1.109.619-2.234,1.2c-.392.2-.784.4-1.18.6a4,4,0,0,0-1.108.645c-.187.189-.025.433.217.4a3.365,3.365,0,0,0,1.088-.448q.54-.273,1.079-.556,1.073-.563,2.13-1.162,2.063-1.167,4.06-2.449t3.931-2.685a14.242,14.242,0,0,0,1.747-1.375,3.931,3.931,0,0,0,1.024-1.823,11.84,11.84,0,0,0,.3-1.683c0,.247,0,.493,0,.741a3.222,3.222,0,0,0,.057.806.072.072,0,0,0,.136,0,3.31,3.31,0,0,0,.061-.806c.005-.3,0-.593,0-.889-.005-.562.01-1.138-.05-1.7" transform="translate(22.869 89.038)" fill="#b4b8b9"/>
        <path id="Trazado_781400" data-name="Trazado 781400" d="M80.74,134.805c-3.192.136-6.382.362-9.538.773a58.732,58.732,0,0,0-9.225,1.89,35.179,35.179,0,0,0-8.217,3.562,31.379,31.379,0,0,0-6.922,5.868c-1.01,1.118-1.951,2.273-2.858,3.443-.869,1.12-1.944,2.35-1.992,3.719a1.746,1.746,0,0,0,.256.981c.082.141.364.04.33-.1a3.039,3.039,0,0,1,.209-2.008,9.761,9.761,0,0,1,1.183-1.816c.884-1.153,1.793-2.293,2.759-3.4a31.907,31.907,0,0,1,6.646-5.912,33.3,33.3,0,0,1,7.946-3.656,54.709,54.709,0,0,1,8.905-1.973c3.084-.444,6.207-.7,9.335-.848q.571-.028,1.143-.052c.372-.015.436-.483.04-.466" transform="translate(28.696 92.132)" fill="#b4b8b9"/>
        <path id="Trazado_781401" data-name="Trazado 781401" d="M63.615,148.727c-.244-.227-.734.035-.623.342a.777.777,0,0,1-.217.042,1.859,1.859,0,0,1-.731-.264,13.584,13.584,0,0,1-1.626-.889,7.974,7.974,0,0,1-2.508-2.449c-1.48-2.4-1.007-5.424-.854-8.091q.538-9.336.524-18.693c-.005-3.512-.091-7.023-.237-10.533-.017-.4-.646-.394-.638-.005.153,6.683.16,13.375-.044,20.058q-.154,5-.455,9.991a26.069,26.069,0,0,0-.047,4.5,7.558,7.558,0,0,0,1.5,3.84,10.081,10.081,0,0,0,3.36,2.665,3.423,3.423,0,0,0,1.951.633c.517-.082,1.194-.635.645-1.145" transform="translate(38.325 73.738)" fill="#b4b8b9"/>
        <path id="Trazado_781402" data-name="Trazado 781402" d="M23.328,157.658c-1.7,1.454-5.3-1.234-8.055-6s-3.609-9.818-1.914-11.272,5.3,1.234,8.052,6,3.613,9.818,1.917,11.272" transform="translate(8.535 95.673)" fill="#91bcc6"/>
        <path id="Trazado_781403" data-name="Trazado 781403" d="M24.484,160.3c-2.638.754-5.857-4.256-7.188-11.188s-.273-13.165,2.365-13.919,5.855,4.256,7.188,11.188.273,13.165-2.365,13.919" transform="translate(11.427 92.349)" fill="#66a3b2"/>
        <path id="Trazado_781404" data-name="Trazado 781404" d="M25.362,159.606c-2.756-1.939-2.9-7.924-.325-13.367s6.9-8.279,9.653-6.34,2.9,7.924.325,13.367-6.9,8.281-9.653,6.34" transform="translate(15.854 95.197)" fill="#91bcc6"/>
        <path id="Trazado_781405" data-name="Trazado 781405" d="M24.366,157.479c-1.885-.4-2.84-4.744-2.131-9.7s2.813-8.65,4.7-8.249,2.84,4.744,2.131,9.7-2.813,8.648-4.7,8.247" transform="translate(15.037 95.341)" fill="#91bcc6"/>
        <path id="Trazado_781406" data-name="Trazado 781406" d="M43.28,161.847l3.064-13.4-34.395.168L15.4,162.093c.887,3.468,3.52,5.828,6.5,5.828H36.723c3.055,0,5.736-2.483,6.557-6.074" transform="translate(8.167 101.458)" fill="#516275"/>
        <path id="Trazado_781407" data-name="Trazado 781407" d="M216.53,68.451c-1.244-2.069-34.248-21.393-70.447,10.4-6.055,61.983-12.752,96.406-12.752,96.406l94.448.906-3.6-71.765s-.658-24.317-7.653-35.95" transform="translate(91.125 41.519)" fill="#4adbd1"/>
        <path id="Trazado_781408" data-name="Trazado 781408" d="M121.41,119.787s25.833-51.051,41.921-50.6,24.063,13.025,17.405,26.464-39.258,50.709-39.258,50.709Z" transform="translate(82.978 47.281)" fill="#4adbd1"/>
        <path id="Trazado_781409" data-name="Trazado 781409" d="M198.591,142.894S164.274,92.642,172.5,78.763s12.432-22.573,32.745-.975c10.932,11.623,29.336,72.552,29.336,72.552Z" transform="translate(117.024 44.241)" fill="#4adbd1"/>
        <path id="Trazado_781410" data-name="Trazado 781410" d="M154.3,125.079,103.579,80.723s-11.951,15.112-6.811,17.23c8.789,3.623,25.827,26.117,34.716,38.484a17.222,17.222,0,0,0,20.949,5.848c5.375-2.419,8.594-7.325,1.87-17.207" transform="translate(65.259 55.17)" fill="#ffc192"/>
        <path id="Trazado_781411" data-name="Trazado 781411" d="M193.833,115.117a40.281,40.281,0,0,0-8.926,3.668q-2.106,1.136-4.091,2.478c-.645.436-1.291.879-1.907,1.355-.295.227-.586.465-.865.71a1.775,1.775,0,0,0-.389.424c-.118.185-.057.359-.224.55-.274.315.018.8.428.577.316-.175.683-.125,1.007-.323s.651-.455.973-.68c.616-.429,1.222-.869,1.85-1.281q1.937-1.275,3.995-2.357a60.153,60.153,0,0,1,8.49-3.468c1.042-.36.815-1.949-.34-1.655" transform="translate(121.192 78.652)" fill="#67b2ab"/>
        <path id="Trazado_781412" data-name="Trazado 781412" d="M180.829,54.55l4.826,31.05a13.788,13.788,0,1,1-27.248,4.236l-4.826-31.05a13.788,13.788,0,0,1,27.248-4.236" transform="translate(104.853 29.306)" fill="#f8b283"/>
        <path id="Trazado_781413" data-name="Trazado 781413" d="M171.045,55.012,156.992,76.56,154.355,59.6Z" transform="translate(105.494 37.598)" fill="#63553e"/>
        <path id="Trazado_781414" data-name="Trazado 781414" d="M151.946,39.626c-1.724,4.909-3.215,9.91-4.493,14.952-1.732,6.843-3.46,15.974,1.956,20.935,4.749,4.35,13.58,6.2,18.972,3.864,11.779-5.1,16.469-20.028,14.422-31.538-2.412-13.567-22.974-22.639-30.858-8.214" transform="translate(99.612 22.072)" fill="#ffc192"/>
        <path id="Trazado_781415" data-name="Trazado 781415" d="M141.866,41.737a8.338,8.338,0,0,0,10.591,4.921,8.516,8.516,0,0,0,3.2-1.784c3.155-3.648,8.809-1.971,12.808-.83,2.6.742,6.53,2.448,8.059,4.858,1.327,2.094-.948,5.889,1.345,7.153,2.039,1.125,5.247-1.461,7.358-1.31,3.151.227,1.808,2.869,1.261,5.172-.423,1.783-1.658,3.352-1.337,5.188.165.941,2.534,1.7,4.017,5.993.953-.008,2.141-4.209,2.483-4.865,2.387-4.579,7.392-12.764,6.518-18.2-.426-2.663-2.98-2.919-2.97-6.15.012-3.347,2.515-7.365-.17-10.219-.837-.889-1.919-1.843-3.1-1.522-5.133,1.4-7.978-5.858-12.868-5.193-9.121,1.241-11.092-.519-12.092-1.093-5.291-3.04-13.092-.35-17.154,8.422-5.045,10.894-9.1,6.353-7.953,9.461" transform="translate(96.825 15.48)" fill="#12263f"/>
        <path id="Trazado_781416" data-name="Trazado 781416" d="M151.256,43.194a1.346,1.346,0,0,1-2.663.375,1.346,1.346,0,0,1,2.663-.375" transform="translate(101.546 28.76)" fill="#373f51"/>
        <path id="Trazado_781417" data-name="Trazado 781417" d="M158.11,43.335a1.346,1.346,0,0,1-2.663.375,1.346,1.346,0,0,1,2.663-.375" transform="translate(106.23 28.857)" fill="#373f51"/>
        <path id="Trazado_781418" data-name="Trazado 781418" d="M160.02,52.066s-3.981-3.532-6.394,0,4.246,4.85,6.8,5.013c1.771.114,1.813-3.715-.4-5.013" transform="translate(104.642 34.512)" fill="#63553e"/>
        <path id="Trazado_781419" data-name="Trazado 781419" d="M175.67,49.292c-3.5,7.762-13.355,3.244-9.884-4.461,3.4-7.544,13.506-3.564,9.884,4.461" transform="translate(112.808 27.892)" fill="#ffc192"/>
        <path id="Trazado_781420" data-name="Trazado 781420" d="M167.894,49.707a.257.257,0,0,1-.113-.008.247.247,0,0,1-.16-.311,3.246,3.246,0,0,1,2.288-1.961,2.476,2.476,0,0,0,1.677-1.359,2.2,2.2,0,0,0-.018-1.946,4.522,4.522,0,0,0-2.867-2.113.247.247,0,0,1,.1-.485,4.947,4.947,0,0,1,3.21,2.379,2.73,2.73,0,0,1,.025,2.374,2.979,2.979,0,0,1-2.01,1.631,2.766,2.766,0,0,0-1.934,1.631.246.246,0,0,1-.2.168" transform="translate(114.552 28.376)" fill="#ff954d"/>
        <path id="Trazado_781421" data-name="Trazado 781421" d="M152.974,53.871c-1.069-.042-3.938-.36-4.044-2.535-.094-1.963,1.82-2.722,3.02-2.884l1.473-5.582a.318.318,0,0,1,.616.162l-1.529,5.794a.318.318,0,0,1-.283.236c-.113.01-2.757.246-2.662,2.244s3.742,1.936,3.783,1.934a.318.318,0,0,1,.015.636c-.03,0-.173,0-.391-.005" transform="translate(101.784 29.137)" fill="#373f51"/>
        <path id="Trazado_781422" data-name="Trazado 781422" d="M157.245,47.965a2.6,2.6,0,1,0,2.173-2.973,2.6,2.6,0,0,0-2.173,2.973" transform="translate(107.447 30.728)" fill="#ff954d"/>
        <path id="Trazado_781423" data-name="Trazado 781423" d="M155.2,67.16a.338.338,0,0,1,.126-.663c.126.019,12.718,1.646,19.469-14.191a.338.338,0,0,1,.623.264c-6.963,16.334-20.058,14.616-20.19,14.6l-.029-.005" transform="translate(105.896 35.607)" fill="#1b2230"/>
        <path id="Trazado_781424" data-name="Trazado 781424" d="M190.248,64.211s6.916,23.366-14.335,31.036-22.5-28.107-22.5-28.107,15.563,18.072,34.893-4.914Z" transform="translate(104.853 42.528)" fill="#4adbd1"/>
        <path id="Trazado_781425" data-name="Trazado 781425" d="M242.352,129.65H112.43a.421.421,0,1,1,0-.842H242.352a.421.421,0,0,1,0,.842" transform="translate(76.552 88.034)" fill="#252c3a"/>
        <path id="Trazado_781426" data-name="Trazado 781426" d="M188.844,140.546l-1.561-3.359q-1.75-3.773-3.5-7.543a.449.449,0,0,0-.436-.273,40.429,40.429,0,0,0-11.853,2.124c-.724.246-1.429.527-2.126.832a37.109,37.109,0,0,0-12.235-3.015h-.013a10.323,10.323,0,0,0-4.271-.066A38.369,38.369,0,0,0,142.613,131a36.442,36.442,0,0,0-7.569,3.394.433.433,0,0,0-.182.495c.4,1.864,2.879,1.791,4.328,1.641q3.687-.384,7.377-.764.838-.088,1.678-.173a37.688,37.688,0,0,1-17.643,2.938c-1.823-.136-3.712-.293-5.387.593a.419.419,0,0,0-.128.594,11.448,11.448,0,0,0,3.364,3.156c-.4.061-.8.136-1.189.236a1.654,1.654,0,0,0-1.042.5,1.589,1.589,0,0,0-.315.985,3.106,3.106,0,0,0,1.052,1.993,9.121,9.121,0,0,0,2.2,1.458,25.423,25.423,0,0,0,2.549,1.194c.091.037.184.067.274.1a1.569,1.569,0,0,0-1.067.512c-.737.813-.224,1.885.423,2.564a7.572,7.572,0,0,0,3.278,1.685,28.557,28.557,0,0,0,4.254,1.039,52.845,52.845,0,0,0,8.843.589c1.471,0,2.943-.03,4.412-.069a20.126,20.126,0,0,0,4.19-.441c2.663-.638,4.737-2.481,7.205-3.555a26.366,26.366,0,0,1,6.259-1.67c4.163-.69,8.727-1.015,12.277-3.537a12.348,12.348,0,0,0,1.109-.9q1.495-.482,2.988-.968l1.8-.586a2.533,2.533,0,0,0,1.268-.682c.692-.843,0-1.966-.379-2.783" transform="translate(85.442 88.201)" fill="#ffc192"/>
        <path id="Trazado_781427" data-name="Trazado 781427" d="M148.927,136.292s41.815-10.5,51.7-15.25l6.806,19.846-47.512,13.474Z" transform="translate(101.784 82.726)" fill="#ffc192"/>
        <path id="Trazado_781428" data-name="Trazado 781428" d="M168.438,140.641,183.4,161.093s46.49-14.665,49.564-18.836,6.04-10.606-.323-29.344-2.766-8.348-2.766-8.348l-32.486,8.348,3.527,6.069Z" transform="translate(115.119 69.501)" fill="#4adbd1"/>
        <path id="Trazado_781429" data-name="Trazado 781429" d="M114.849,86.116l-14.688,20.2s21.419,34.649,38.28,35.723,24-16.979,24-16.979l-33.669-27.6Z" transform="translate(68.455 58.856)" fill="#4adbd1"/>
        <path id="Trazado_781430" data-name="Trazado 781430" d="M133.164,104.07l-10.5-6.909q-.265.333-.55.646l10.587,6.966a.42.42,0,0,0,.291.064.411.411,0,0,0,.291-.185.421.421,0,0,0-.12-.582" transform="translate(83.459 66.405)" fill="#252c3a"/>
        <path id="Trazado_781431" data-name="Trazado 781431" d="M185.028,163.746a.422.422,0,0,1-.337-.168l-18.555-24.789a.422.422,0,0,1,.158-.633l33.657-15.789L188.8,99.027a.421.421,0,1,1,.759-.362l11.331,23.721a.422.422,0,0,1,.017.323.432.432,0,0,1-.217.239L167.122,138.7l18.244,24.375a.421.421,0,0,1-.337.673" transform="translate(113.489 67.269)" fill="#252c3a"/>
        <path id="Trazado_781432" data-name="Trazado 781432" d="M168.835,77.161a24.378,24.378,0,0,1-4.276-.372c-4.241-.756-7.271-2.428-9.006-4.971a9.1,9.1,0,0,1-1.47-6.448.421.421,0,0,1,.825.165,8.4,8.4,0,0,0,1.348,5.82c1.6,2.343,4.448,3.892,8.451,4.606,7.108,1.266,14.963-.874,19.547-5.328,1.781-1.731,3.793-4.554,3.254-8.175a.421.421,0,0,1,.833-.125c.46,3.1-.783,6.264-3.5,8.9-3.857,3.747-9.927,5.924-16,5.924" transform="translate(105.237 42.357)" fill="#252c3a"/>
        <path id="Trazado_781433" data-name="Trazado 781433" d="M166.984,92.975h-.022l-7.5-.379a.413.413,0,0,1-.295-.143.417.417,0,0,1-.1-.31l1.677-21.476a.42.42,0,1,1,.838.066l-1.641,21.045,7.067.355a.421.421,0,0,1-.02.842" transform="translate(108.711 48.032)" fill="#252c3a"/>
        <path id="Trazado_781434" data-name="Trazado 781434" d="M161.9,73.874a1.57,1.57,0,1,1,1.569,1.571,1.57,1.57,0,0,1-1.569-1.571" transform="translate(110.652 49.415)" fill="#252c3a"/>
        <path id="Trazado_781435" data-name="Trazado 781435" d="M161.175,80.427A1.57,1.57,0,1,1,162.746,82a1.57,1.57,0,0,1-1.571-1.571" transform="translate(110.155 53.895)" fill="#252c3a"/>
        <path id="Trazado_781436" data-name="Trazado 781436" d="M10.07,97.59l36.144-13.24V110.6L10.07,123.843Z" transform="translate(6.882 57.649)" fill="#fff"/>
        <path id="Trazado_781437" data-name="Trazado 781437" d="M37.028,87.8,73.786,74.34v26.253L37.028,114.056Z" transform="translate(25.306 50.808)" fill="#fff"/>
        <path id="Trazado_781438" data-name="Trazado 781438" d="M92.695,66.159V92.413L64.351,102.795V76.541Z" transform="translate(43.98 45.217)" fill="#fff"/>
        <path id="Trazado_781439" data-name="Trazado 781439" d="M113.684,85.9S97.328,71.924,87.674,76.27s.557,16.53,4.572,18.262,11.52,10.384,17.5,8.734S113.684,85.9,113.684,85.9" transform="translate(57.167 51.554)" fill="#ffc192"/>
        <path id="Trazado_781440" data-name="Trazado 781440" d="M71.99,73.328,36.837,86.242,36,58.623l36.182-9.909Z" transform="translate(24.606 33.294)" fill="#fff"/>
        <path id="Trazado_781441" data-name="Trazado 781441" d="M71.9,67.732a.363.363,0,0,1-.3-.007L55.293,59.085,37.152,80.437a.663.663,0,0,1-.877.222.653.653,0,0,1,.076-.9l18.584-21.8a.585.585,0,0,1,.69-.215l16.584,8.9c.207.111.239.443.072.739a.755.755,0,0,1-.38.347" transform="translate(24.691 39.437)" fill="#d6e8ed"/>
        <path id="Trazado_781442" data-name="Trazado 781442" d="M55.411,68.613l16.776-19.9L36,58.623Z" transform="translate(24.606 33.294)" fill="#d6e8ed"/>
        <path id="Trazado_781443" data-name="Trazado 781443" d="M92.988,64.668,60.853,76.37l-.837-25.208L93.1,42.207Z" transform="translate(41.018 28.847)" fill="#fff"/>
        <path id="Trazado_781444" data-name="Trazado 781444" d="M92.877,59.577a.33.33,0,0,1-.274-.008L77.657,51.647,61.11,71.087a.6.6,0,0,1-.8.2.594.594,0,0,1,.067-.82L77.325,50.623a.534.534,0,0,1,.631-.194l15.2,8.158c.19.1.221.4.067.675a.694.694,0,0,1-.347.315" transform="translate(41.126 34.437)" fill="#d6e8ed"/>
        <path id="Trazado_781445" data-name="Trazado 781445" d="M77.8,60.326,93.1,42.207,60.016,51.163Z" transform="translate(41.018 28.846)" fill="#d6e8ed"/>
        <path id="Trazado_781446" data-name="Trazado 781446" d="M28.276,76.625l16.776-19.9L8.868,66.634Z" transform="translate(6.061 38.77)" fill="#d6e8ed"/>
        <path id="Trazado_781447" data-name="Trazado 781447" d="M18.25,72.542l-1.242-.689a3.884,3.884,0,0,1-1.513-5.279L18.23,61.64a3.884,3.884,0,0,1,5.279-1.513l1.242.69a3.883,3.883,0,0,1,1.513,5.278l-2.737,4.934a3.881,3.881,0,0,1-5.278,1.513" transform="translate(10.256 40.76)" fill="#191912"/>
        <path id="Trazado_781448" data-name="Trazado 781448" d="M21.12,72.433a.362.362,0,0,1-.187-.31l-.1-6.028A.361.361,0,0,1,21,65.78l5.17-3.106a.36.36,0,1,1,.37.618l-4.99,3,.1,5.821a.36.36,0,0,1-.535.322" transform="translate(14.236 42.799)" fill="#191912"/>
        <path id="Trazado_781449" data-name="Trazado 781449" d="M21.271,65.6a.361.361,0,0,1,.032-.646l4.271-1.837-.7-4.594a.36.36,0,1,1,.712-.109l.747,4.87a.361.361,0,0,1-.214.386l-4.527,1.948a.363.363,0,0,1-.318-.017" transform="translate(14.41 39.709)" fill="#191912"/>
        <path id="Trazado_781450" data-name="Trazado 781450" d="M18.442,63.858a.363.363,0,0,1-.182-.261l-.747-4.87a.361.361,0,0,1,.215-.386l4.527-1.948a.361.361,0,0,1,.285.663l-4.271,1.837.705,4.594a.36.36,0,0,1-.3.411.356.356,0,0,1-.229-.04" transform="translate(11.966 38.522)" fill="#191912"/>
        <path id="Trazado_781451" data-name="Trazado 781451" d="M17.027,73.249a.361.361,0,0,1,.032-.646l4.271-1.837-.7-4.594a.36.36,0,1,1,.712-.109l.747,4.87a.361.361,0,0,1-.214.385l-4.527,1.948a.363.363,0,0,1-.318-.017" transform="translate(11.51 44.941)" fill="#191912"/>
        <path id="Trazado_781452" data-name="Trazado 781452" d="M14.2,71.512a.359.359,0,0,1-.182-.261l-.747-4.87A.361.361,0,0,1,13.484,66l4.525-1.948a.361.361,0,1,1,.286.663l-4.271,1.837.7,4.594a.359.359,0,0,1-.3.411.354.354,0,0,1-.229-.04" transform="translate(9.066 43.753)" fill="#191912"/>
        <path id="Trazado_781453" data-name="Trazado 781453" d="M13.243,68.088a.368.368,0,0,1-.135-.13.36.36,0,0,1,.125-.495l4.99-3-.1-5.82a.361.361,0,0,1,.722-.013l.1,6.03a.363.363,0,0,1-.175.315l-5.17,3.1a.358.358,0,0,1-.36.007" transform="translate(8.923 39.831)" fill="#191912"/>
        <path id="Trazado_781454" data-name="Trazado 781454" d="M21.29,65.571l2.352-4.242a1.7,1.7,0,0,0-2.968-1.645l-2.352,4.242Z" transform="translate(12.522 40.194)" fill="#191912"/>
        <path id="Trazado_781455" data-name="Trazado 781455" d="M18.022,64.683l-2.352,4.242a1.7,1.7,0,0,0,2.968,1.645l2.352-4.242Z" transform="translate(10.564 44.208)" fill="#191912"/>
        <path id="Trazado_781456" data-name="Trazado 781456" d="M64.883,60.525l1.5-1.364a5.539,5.539,0,0,1,7.823.379L79.616,65.5a5.542,5.542,0,0,1-.375,7.825l-1.5,1.362a5.539,5.539,0,0,1-7.825-.377L64.5,68.348a5.537,5.537,0,0,1,.38-7.823" transform="translate(43.102 39.452)" fill="#191912"/>
        <path id="Trazado_781457" data-name="Trazado 781457" d="M60.8,64.414a.512.512,0,0,1,.5-.109l8.192,2.624a.516.516,0,0,1,.345.382l1.823,8.405a.514.514,0,1,1-1.005.219l-1.761-8.118-7.909-2.534a.513.513,0,0,1-.332-.646.519.519,0,0,1,.143-.224" transform="translate(41.437 43.932)" fill="#191912"/>
        <path id="Trazado_781458" data-name="Trazado 781458" d="M68.674,67.379a.5.5,0,0,1,.3-.131.513.513,0,0,1,.554.471l.522,6.611,6.53,1.157A.515.515,0,0,1,76.4,76.5l-6.922-1.226a.513.513,0,0,1-.423-.466L68.508,67.8a.508.508,0,0,1,.167-.421" transform="translate(46.82 45.959)" fill="#191912"/>
        <path id="Trazado_781459" data-name="Trazado 781459" d="M72.457,63.945a.518.518,0,0,1,.436-.126l6.922,1.226a.517.517,0,0,1,.423.466l.552,7.008a.514.514,0,1,1-1.025.081l-.522-6.611-6.53-1.157a.515.515,0,0,1-.256-.887" transform="translate(49.406 43.612)" fill="#191912"/>
        <path id="Trazado_781460" data-name="Trazado 781460" d="M60.283,58.136a.5.5,0,0,1,.3-.131.513.513,0,0,1,.554.471l.522,6.611,6.53,1.157a.515.515,0,0,1-.18,1.013l-6.922-1.226a.513.513,0,0,1-.423-.466l-.552-7.008a.508.508,0,0,1,.167-.421" transform="translate(41.086 39.642)" fill="#191912"/>
        <path id="Trazado_781461" data-name="Trazado 781461" d="M64.066,54.7a.518.518,0,0,1,.436-.126L71.425,55.8a.517.517,0,0,1,.423.466l.552,7.008a.514.514,0,1,1-1.025.081l-.522-6.611-6.53-1.157a.515.515,0,0,1-.256-.887" transform="translate(43.671 37.294)" fill="#191912"/>
        <path id="Trazado_781462" data-name="Trazado 781462" d="M70.26,55.823A.509.509,0,0,1,70.5,55.7a.515.515,0,0,1,.613.394l1.759,8.116,7.909,2.534a.514.514,0,1,1-.313.98L72.272,65.1a.513.513,0,0,1-.347-.38L70.1,56.313a.515.515,0,0,1,.157-.49" transform="translate(47.904 38.061)" fill="#191912"/>
        <path id="Trazado_781463" data-name="Trazado 781463" d="M68.747,67.021l4.65,5.123a2.42,2.42,0,0,0,3.584-3.252l-4.65-5.123Z" transform="translate(46.985 43.583)" fill="#191912"/>
        <path id="Trazado_781464" data-name="Trazado 781464" d="M71.261,63.057,66.61,57.934a2.419,2.419,0,0,0-3.582,3.252l4.65,5.123Z" transform="translate(42.646 39.053)" fill="#191912"/>
        <path id="Trazado_781465" data-name="Trazado 781465" d="M45.163,56.8l-.192,23.918,0,.694-.783.286L10.811,93.957l-1,.367-.025-.778L8.981,66.707l16.464,8.478L28,72.191a.6.6,0,0,1,.694-.215l2.534,1.359Z" transform="translate(6.138 38.819)" fill="#fff"/>
        <path id="Trazado_781466" data-name="Trazado 781466" d="M45.258,75.471a.76.76,0,0,1-.38.343.344.344,0,0,1-.3-.007l-.48-.254L30.264,68.229,28.269,67.17l-1.992,2.343-15.552,18.3-.6.7a.66.66,0,0,1-.877.226.655.655,0,0,1,.077-.9L9.7,87.4,25.358,69.042l2.552-2.993a.592.592,0,0,1,.692-.215l2.535,1.359,13.747,7.382.3.158c.205.108.237.439.074.739" transform="translate(6.223 44.963)" fill="#d6e8ed"/>
        <path id="Trazado_781467" data-name="Trazado 781467" d="M24.539,67.19l-.874,1.037L21.7,70.554l-2.024-1.04-.921-.473,2.552-2.993A.594.594,0,0,1,22,65.833Z" transform="translate(12.822 44.963)" fill="#5573c6"/>
        <path id="Trazado_781468" data-name="Trazado 781468" d="M46.022,104.467a.394.394,0,0,1-.322-.01L29.05,95.369,10.865,117c-.253.3-.621.389-.822.2a.693.693,0,0,1,.1-.9l18.585-22.09a.6.6,0,0,1,.7-.236L46.389,103.3c.221.121.244.478.054.8a.847.847,0,0,1-.421.372" transform="translate(6.779 64.195)" fill="#d6e8ed"/>
        <path id="Trazado_781469" data-name="Trazado 781469" d="M28.712,108.054l17.5-23.7L10.07,97.591Z" transform="translate(6.882 57.648)" fill="#d6e8ed"/>
        <path id="Trazado_781470" data-name="Trazado 781470" d="M73.132,94.5a.394.394,0,0,1-.322-.01L56.159,85.4,37.975,107.035c-.253.3-.621.389-.822.2a.691.691,0,0,1,.1-.9l18.585-22.09a.6.6,0,0,1,.7-.236L73.5,93.335c.221.121.244.478.054.8a.847.847,0,0,1-.421.372" transform="translate(25.306 57.385)" fill="#d6e8ed"/>
        <path id="Trazado_781471" data-name="Trazado 781471" d="M80.891,76.164l-15.809,20.3c-.215.281-.495.342-.623.135a.871.871,0,0,1,.158-.884L80.452,75.072c.178-.232.4-.308.537-.183L92.558,85.4c.148.136-.2.485-.04.8,1.14,2.259-11.626-10.03-11.626-10.03" transform="translate(44.01 51.142)" fill="#d6e8ed"/>
        <path id="Trazado_781472" data-name="Trazado 781472" d="M82.721,87.026,92.879,66.16l-28.8,10.4Z" transform="translate(43.796 45.217)" fill="#d6e8ed"/>
        <path id="Trazado_781473" data-name="Trazado 781473" d="M52.264,85.082l1.061.69a3.453,3.453,0,0,1,1.015,4.779L51.6,94.763a3.455,3.455,0,0,1-4.779,1.015l-1.062-.69a3.456,3.456,0,0,1-1.013-4.781l2.736-4.21a3.455,3.455,0,0,1,4.781-1.015" transform="translate(30.201 57.767)" fill="#191912"/>
        <path id="Trazado_781474" data-name="Trazado 781474" d="M47.7,83.6a.326.326,0,0,1,.146.286l-.283,5.36a.322.322,0,0,1-.175.269l-4.783,2.434a.321.321,0,1,1-.291-.572l4.618-2.35.273-5.175a.319.319,0,0,1,.337-.3.3.3,0,0,1,.158.051" transform="translate(28.801 57.105)" fill="#191912"/>
        <path id="Trazado_781475" data-name="Trazado 781475" d="M46.789,88.829a.312.312,0,0,1,.128.163.322.322,0,0,1-.2.409l-3.906,1.364.338,4.124a.321.321,0,1,1-.64.052l-.36-4.37a.323.323,0,0,1,.215-.33l4.14-1.446a.323.323,0,0,1,.281.034" transform="translate(28.808 60.675)" fill="#191912"/>
        <path id="Trazado_781476" data-name="Trazado 781476" d="M49.315,90.566a.318.318,0,0,1,.145.242l.36,4.372a.32.32,0,0,1-.214.328l-4.141,1.448a.321.321,0,1,1-.212-.606l3.907-1.365-.34-4.123a.321.321,0,0,1,.295-.347.317.317,0,0,1,.2.05" transform="translate(30.782 61.862)" fill="#191912"/>
        <path id="Trazado_781477" data-name="Trazado 781477" d="M51.032,82.3a.312.312,0,0,1,.128.163.322.322,0,0,1-.2.409l-3.906,1.364.338,4.124a.321.321,0,1,1-.64.052L46.4,84.04a.32.32,0,0,1,.214-.33l4.14-1.446a.323.323,0,0,1,.281.034" transform="translate(31.709 56.211)" fill="#373f51"/>
        <path id="Trazado_781478" data-name="Trazado 781478" d="M53.559,84.035a.318.318,0,0,1,.145.242l.36,4.372a.323.323,0,0,1-.214.33l-4.141,1.446a.321.321,0,1,1-.212-.606L53.4,88.454l-.34-4.123a.321.321,0,0,1,.495-.3" transform="translate(33.682 57.398)" fill="#191912"/>
        <path id="Trazado_781479" data-name="Trazado 781479" d="M54.389,87.95a.327.327,0,0,1,.111.123.322.322,0,0,1-.141.433l-4.616,2.35-.274,5.175a.32.32,0,1,1-.64-.034l.281-5.36a.326.326,0,0,1,.175-.269l4.783-2.434a.322.322,0,0,1,.322.017" transform="translate(33.371 60.074)" fill="#191912"/>
        <path id="Trazado_781480" data-name="Trazado 781480" d="M46.962,88.635,44.61,92.254A1.51,1.51,0,1,0,47.142,93.9l2.352-3.621Z" transform="translate(30.322 60.578)" fill="#191912"/>
        <path id="Trazado_781481" data-name="Trazado 781481" d="M49.808,89.6l2.352-3.619a1.51,1.51,0,0,0-2.532-1.646l-2.352,3.621Z" transform="translate(32.311 57.166)" fill="#373f51"/>
        <path id="Trazado_781482" data-name="Trazado 781482" d="M56.86,96.809,73.753,74.34,37.074,87.866Z" transform="translate(25.338 50.808)" fill="#d6e8ed"/>
        <path id="Trazado_781483" data-name="Trazado 781483" d="M77.255,152.59,41.244,174.569,182.27,204.526l34.915-32.191Z" transform="translate(28.188 104.287)" fill="#516275"/>
        <path id="Trazado_781484" data-name="Trazado 781484" d="M172.652,187.66a.857.857,0,0,1-.16-.015l-121.07-23.4a.842.842,0,0,1,.32-1.653l121.069,23.4a.842.842,0,0,1-.158,1.668" transform="translate(34.678 111.115)" fill="#b4b8b9"/>
        <path id="Trazado_781485" data-name="Trazado 781485" d="M179.332,180.723a1.047,1.047,0,0,1-.143-.012L57.477,159.8a.842.842,0,0,1,.286-1.66l121.71,20.914a.842.842,0,0,1-.141,1.672" transform="translate(38.805 108.071)" fill="#b4b8b9"/>
        <path id="Trazado_781486" data-name="Trazado 781486" d="M120.668,164.809a.971.971,0,0,1-.12-.008L81.9,159.311a.842.842,0,0,1,.237-1.667l38.647,5.49a.842.842,0,0,1-.118,1.675" transform="translate(55.482 107.736)" fill="#b4b8b9"/>
        <path id="Trazado_781487" data-name="Trazado 781487" d="M41.244,165.646v3.988L182.27,200.212V195.6Z" transform="translate(28.188 113.211)" fill="#12263f"/>
        <path id="Trazado_781488" data-name="Trazado 781488" d="M159.931,164.319v2.234l-34.915,34.568V196.51Z" transform="translate(85.443 112.304)" fill="#12263f"/>
        <path id="Trazado_781489" data-name="Trazado 781489" d="M166.181,143.738c0,1.556,7.771,3.337,17.355,3.337s17.356-1.781,17.356-3.337-7.771-2.818-17.356-2.818-17.355,1.263-17.355,2.818" transform="translate(113.576 96.312)" fill="#5573c6"/>
        <path id="Trazado_781490" data-name="Trazado 781490" d="M200.884,142.665l-2.589,19.52c-.727,5.488-6.118,9.756-12.8,10.144-.183.012-.367.022-.552.03-8.958.466-16.668-5.173-17.306-12.548-1.209-13.961-1.453-17.217-1.453-17.217,1.167,1.268,20.092,5.739,34.7.071" transform="translate(113.576 97.456)" fill="#5573c6"/>
        <path id="Trazado_781491" data-name="Trazado 781491" d="M185.227,162.62a1.366,1.366,0,0,1-1.025-.431.929.929,0,0,1,.285-1.453l7.831-4.658c3.439-2.045,5.177-4.422,4.764-6.518a3.639,3.639,0,0,0-2.85-2.7c-3.416-.884-7.037,2.88-7.072,2.917a1.447,1.447,0,0,1-1.769.192.923.923,0,0,1-.234-1.458c.19-.2,4.7-4.966,9.833-3.635a5.93,5.93,0,0,1,4.586,4.353c.569,2.9-1.537,6.015-5.779,8.538l-7.83,4.658a1.452,1.452,0,0,1-.739.2" transform="translate(125.73 98.853)" fill="#5573c6"/>
        <path id="Trazado_781492" data-name="Trazado 781492" d="M155.252,63.221l-.7,5.5s-1.633,8.567,12.41,9.555,20.19-12.633,20.19-12.633L183.66,57.31s-1.916,8.18-12.833,9.331-15.575-3.421-15.575-3.421" transform="translate(105.591 39.168)" fill="#4adbd1"/>
        <path id="Trazado_781493" data-name="Trazado 781493" d="M145.2,139.485l-22.856,23a1.033,1.033,0,0,1-.889.295L94.079,158.71a1.034,1.034,0,0,1-.438-1.874l2.631-1.813s27.748-19.035,27.987-19.015l19.464,1.645.83.072a1.034,1.034,0,0,1,.648,1.759" transform="translate(63.694 92.955)" fill="#12263f"/>
        <path id="Trazado_781494" data-name="Trazado 781494" d="M141.69,137.887l-21.878,20.292-24.328-3.254L122.9,136.316c.2-.135,18.792,1.571,18.792,1.571" transform="translate(65.258 93.16)" fill="#f4a338"/>
        <path id="Trazado_781495" data-name="Trazado 781495" d="M119.012,147.778l2.768-.966a.35.35,0,0,0,.234-.36l-.392-4.769a.351.351,0,0,0-.158-.264.344.344,0,0,0-.221-.056.35.35,0,0,0-.32.377l.37,4.5-2.175.759a3.77,3.77,0,0,0-1.212-2.894l.534-.823a1.647,1.647,0,0,0-2.763-1.795l-.628.968a3.779,3.779,0,0,0-2.631.345l-.2-2.46,4.261-1.49a.349.349,0,0,0,.215-.446.341.341,0,0,0-.14-.177.349.349,0,0,0-.306-.037l-4.517,1.577a.349.349,0,0,0-.234.36l.258,3.126a3.758,3.758,0,0,0-.717.815l-1.409,2.17.278-5.3a.347.347,0,0,0-.158-.311.358.358,0,0,0-.172-.056.35.35,0,0,0-.369.332l-.3,5.645-5.037,2.566a.35.35,0,0,0,.316.625l4.729-2.407-.867,1.333a3.723,3.723,0,0,0-.594,1.869l-.424.148h10.346l1.138-1.751a3.718,3.718,0,0,0,.5-1.153" transform="translate(70.86 94.433)" fill="#191912"/>
        <path id="Trazado_781496" data-name="Trazado 781496" d="M116.509,144.53a.336.336,0,0,0-.121-.135.351.351,0,0,0-.35-.019l-4.108,2.091h1.544L116.356,145a.352.352,0,0,0,.153-.471" transform="translate(76.498 98.648)" fill="#191912"/>
        <path id="Trazado_781497" data-name="Trazado 781497" d="M119.714,146.449H103.74a.421.421,0,0,1,0-.842h15.974a.421.421,0,1,1,0,.842" transform="translate(70.613 99.515)" fill="#d6e8ed"/>
        <path id="Trazado_781498" data-name="Trazado 781498" d="M103.625,182.628l40.837,6.959,20.876,3.338,41.551-34.841-51.471-9.367Z" transform="translate(70.822 101.642)" fill="#f5faff"/>
        <path id="Trazado_781499" data-name="Trazado 781499" d="M154.093,172.686c-2.7-.431-5.411-.8-8.118-1.194q-4.086-.6-8.173-1.2c-5.36-.784-10.729-1.524-16.082-2.362a34.623,34.623,0,0,1-8.328-2.13c-.348-.148-.719.369-.348.529a32.078,32.078,0,0,0,7.384,2.039c2.635.451,5.288.806,7.932,1.2l16.4,2.424c3.067.455,6.133.941,9.205,1.355.372.05.53-.6.133-.66" transform="translate(77.154 113.3)" fill="#c9c7c7"/>
        <path id="Trazado_781500" data-name="Trazado 781500" d="M153.352,168.774a36.261,36.261,0,0,1-7.087.125,53.957,53.957,0,0,1-7.052-1.116c-4.692-1.025-9.289-2.438-13.973-3.495a49.287,49.287,0,0,0-7.983-1.268.248.248,0,0,0-.035.495,71.578,71.578,0,0,1,7.136,1.185c2.365.522,4.707,1.145,7.045,1.771a90.556,90.556,0,0,0,14.033,2.988,31.853,31.853,0,0,0,7.956-.071c.35-.052.333-.657-.04-.614" transform="translate(79.959 111.416)" fill="#c9c7c7"/>
        <path id="Trazado_781501" data-name="Trazado 781501" d="M161.05,167.278a91.809,91.809,0,0,0-15.21-4.468q-3.9-.788-7.868-1.236c-2.529-.286-5.06-.4-7.6-.574a14.983,14.983,0,0,1-7.446-2.04c-.316-.209-.556.343-.276.455a12.978,12.978,0,0,0,6.51,2.1c2.478.254,4.971.3,7.451.549a91.491,91.491,0,0,1,15.7,2.983q4.328,1.222,8.522,2.864c.391.153.628-.475.217-.635" transform="translate(83.742 108.609)" fill="#c9c7c7"/>
        <path id="Trazado_781502" data-name="Trazado 781502" d="M168.442,163.078c-4.034-2.8-9.156-2.82-13.873-2.853a76.783,76.783,0,0,1-8.158-.431c-2.933-.335-5.848-.816-8.764-1.266-1.65-.256-3.3-.519-4.949-.766l-2.451-.367c-.407-.061-.818-.118-1.227-.177a1.863,1.863,0,0,0-.594-.024c-.209.034-.419.062-.626.1a.051.051,0,0,0-.02.091,3.124,3.124,0,0,0,.931.4c.369.062.737.126,1.106.187.741.121,1.481.237,2.22.357,1.444.232,2.89.453,4.335.678,2.89.449,5.776.928,8.676,1.3a70.078,70.078,0,0,0,8.272.586c2.433.027,4.872-.005,7.293.259a15.873,15.873,0,0,1,7.443,2.515c.354.246.758-.333.387-.591" transform="translate(87.315 107.424)" fill="#c9c7c7"/>
        <path id="Trazado_781503" data-name="Trazado 781503" d="M172.317,158.653c-.7.057-1.387.212-2.091.263a14.458,14.458,0,0,1-2.16-.015,26.727,26.727,0,0,1-4.306-.769,76.625,76.625,0,0,0-8.389-1.889c-5.594-.737-11.252-.318-16.866-.751a40.486,40.486,0,0,1-4.638-.6q-1.141-.225-2.264-.532c-.768-.21-1.515-.524-2.289-.694l0,.008c-.247-.054-.478.283-.217.436a9.352,9.352,0,0,0,2,.764q.987.306,2,.529a35.957,35.957,0,0,0,4.172.663c2.82.293,5.658.33,8.49.37s5.7.084,8.525.389a36.505,36.505,0,0,1,4.264.71c1.439.332,2.86.739,4.291,1.109a31.864,31.864,0,0,0,4.81.941,14.972,14.972,0,0,0,2.426.057,6.7,6.7,0,0,0,2.353-.461c.253-.113.185-.549-.109-.525" transform="translate(88.151 105.02)" fill="#c9c7c7"/>
        <path id="Trazado_781504" data-name="Trazado 781504" d="M174.805,156.833a12.017,12.017,0,0,1-3.847.559,17.89,17.89,0,0,1-3.813-.54c-2.6-.631-5.069-1.668-7.639-2.384a41.459,41.459,0,0,0-8.094-1.1,34.369,34.369,0,0,1-4.062-.522c-1.3-.258-2.579-.588-3.862-.906a43.153,43.153,0,0,0-4.335-.9,13.229,13.229,0,0,0-4.288-.017.179.179,0,0,0,.022.355,23.955,23.955,0,0,1,3.959.234c1.3.2,2.574.493,3.848.81s2.562.66,3.855.941a33.129,33.129,0,0,0,4.025.611,50.129,50.129,0,0,1,8.175,1.018c2.6.68,5.094,1.736,7.7,2.424,2.756.729,5.86,1.109,8.586.056a.339.339,0,0,0-.229-.635" transform="translate(92.072 103.098)" fill="#c9c7c7"/>
        <rect id="Rectángulo_366370" data-name="Rectángulo 366370" width="39.773" height="3.509" transform="translate(231.628 265.293) rotate(-19.658)" fill="#373f51"/>
        <path id="Trazado_781505" data-name="Trazado 781505" d="M139.633,157.589l-5.028,3.66,6.209-.355.678-1.662-.357-.995Z" transform="translate(91.995 107.704)" fill="#ffc192"/>
        <rect id="Rectángulo_366371" data-name="Rectángulo 366371" width="3.375" height="1.1" transform="translate(225.097 268.936) rotate(-19.673)" fill="#373f51"/>
        <path id="Trazado_781506" data-name="Trazado 781506" d="M27.232,77.23l6.466-2c4.466-1.379,7.48.128,7.538,3.877.061,3.783-2.914,7.343-7.443,8.966l-6.562,2.35Zm6.384,8.432c2.764-.963,4.522-3.087,4.491-5.508-.029-2.406-1.81-3.33-4.549-2.46l-2.983.949.03,8.067Z" transform="translate(18.612 51.074)" fill="#fff"/>
        <path id="Trazado_781507" data-name="Trazado 781507" d="M45.814,80.906l-5.788,2.012-1.084,3.049-3.1,1.111L41.33,72.9l2.821-.87,5.715,10.022-2.9,1.04Zm-.946-1.8L42.8,75.176l-1.875,5.269Z" transform="translate(24.495 49.231)" fill="#fff"/>
        <path id="Trazado_781508" data-name="Trazado 781508" d="M54.814,68.971l.508,11.06-2.052.736-5.823-5,.259,7-2.643.946L44.67,72.1l2.192-.677,5.8,5.06-.291-6.759Z" transform="translate(30.53 47.138)" fill="#fff"/>
        <path id="Trazado_781509" data-name="Trazado 781509" d="M59.414,72.317l2.05-.682.253,4.264a9.183,9.183,0,0,1-3.9,2.771c-3.192,1.145-5.717-.379-5.875-3.7a7.5,7.5,0,0,1,5.315-7.353,4.214,4.214,0,0,1,4.178.535l-1.347,1.887a2.665,2.665,0,0,0-2.6-.377,4.46,4.46,0,0,0-3.118,4.5A2.393,2.393,0,0,0,57.833,76.5a4.673,4.673,0,0,0,1.758-1.079Z" transform="translate(35.497 46.014)" fill="#fff"/>
        <path id="Trazado_781510" data-name="Trazado 781510" d="M66.222,73.326l.131,1.872-7.086,2.539-.64-10.355,6.862-2.118.128,1.838-4.732,1.5.143,2.214,4.2-1.379.125,1.8-4.205,1.419.153,2.38Z" transform="translate(40.069 44.605)" fill="#fff"/>
        <path id="Trazado_781511" data-name="Trazado 781511" d="M69.872,73.456,68.057,71.3l-.094.034-1.7.586.2,2.751-2,.715-.712-9.9,3.673-1.135c2.2-.68,3.66.21,3.832,2.333a4.2,4.2,0,0,1-1.434,3.581L71.9,72.727ZM67.46,66.206l-1.587.505.254,3.4,1.591-.534a2.12,2.12,0,0,0,1.636-2.268c-.082-1.054-.719-1.481-1.894-1.108" transform="translate(43.574 43.831)" fill="#fff"/>
        <path id="Trazado_781512" data-name="Trazado 781512" d="M69.495,60.748a18.115,18.115,0,1,0,25.425,3.13,18.114,18.114,0,0,0-25.425-3.13m20.24,25.92a14.773,14.773,0,1,1,2.55-20.735,14.772,14.772,0,0,1-2.55,20.735" transform="translate(42.732 38.895)" fill="#516275"/>
        <path id="Trazado_781513" data-name="Trazado 781513" d="M105.527,101.76l-5.749,4.488-21.516-29.2,4.158-3.247Z" transform="translate(53.488 50.442)" fill="#516275"/>
        <path id="Trazado_781514" data-name="Trazado 781514" d="M86.548,89.182,95.233,100.3a3.674,3.674,0,1,0,5.791-4.522L92.339,84.66Z" transform="translate(59.151 57.861)" fill="#516275"/>
        <path id="Trazado_781515" data-name="Trazado 781515" d="M89.916,84.886H82.359a2.68,2.68,0,1,1,0-5.36h7.557a2.68,2.68,0,0,1,0,5.36" transform="translate(54.457 54.352)" fill="#ffc192"/>
        <path id="Trazado_781516" data-name="Trazado 781516" d="M90.928,87.316H83.371a2.68,2.68,0,1,1,0-5.36h7.557a2.68,2.68,0,0,1,0,5.36" transform="translate(55.148 56.013)" fill="#ffc192"/>
        <path id="Trazado_781517" data-name="Trazado 781517" d="M92.76,89.746H85.2a2.68,2.68,0,0,1,0-5.36H92.76a2.68,2.68,0,1,1,0,5.36" transform="translate(56.4 57.674)" fill="#ffc192"/>
        <path id="Trazado_781518" data-name="Trazado 781518" d="M101.819,81.118s-17.383.51-17.291,4.278,16.42,5.734,20.287,1.584-3-5.862-3-5.862" transform="translate(57.77 55.44)" fill="#ffc192"/>
      </g>
    </g>
  </g>
</svg>
