<svg xmlns="http://www.w3.org/2000/svg" xmlns:xlink="http://www.w3.org/1999/xlink" width="401" height="391" viewBox="0 0 401 391">
  <defs>
    <clipPath id="clip-path">
      <rect id="Rectángulo_366380" data-name="Rectángulo 366380" width="378.189" height="255.422" fill="none"/>
    </clipPath>
  </defs>
  <g id="Grupo_1034050" data-name="Grupo 1034050" transform="translate(4986.031 8924)">
    <rect id="Rectángulo_364411" data-name="Rectángulo 364411" width="401" height="391" transform="translate(-4986.031 -8924)" fill="#efeeee"/>
    <g id="Grupo_1033510" data-name="Grupo 1033510" transform="translate(-4974.625 -8856.211)">
      <g id="Grupo_1033509" data-name="Grupo 1033509" clip-path="url(#clip-path)">
        <path id="Trazado_781519" data-name="Trazado 781519" d="M191.849,74.158v29.758a12.188,12.188,0,0,0,11,12.129l68.927,6.741a12.186,12.186,0,0,0,13.371-12.129V79.36A12.184,12.184,0,0,0,273.879,67.21l-68.927-5.2a12.185,12.185,0,0,0-13.1,12.151" transform="translate(55.112 17.803)" fill="#516275"/>
        <path id="Trazado_781520" data-name="Trazado 781520" d="M191.244,120.467l-6.956,29.807c-1.453,6.221,1.616,11.632,7.139,12.53L256.5,173.386c7.225,1.175,15.276-4.463,17.264-12.187l8.738-33.95c1.8-6.989-2.007-12.843-8.665-13.4L206.3,108.163c-6.48-.545-13.38,5.132-15.053,12.3" transform="translate(52.836 31.061)" fill="#516275"/>
        <path id="Trazado_781521" data-name="Trazado 781521" d="M266.682,197.7l-74.834-12.118L195.1,78.213a57.01,57.01,0,0,1,15.375-7.528q1.228-.384,2.45-.7a59.481,59.481,0,0,1,31.35.752c.868.246,1.72.5,2.546.77a72.15,72.15,0,0,1,18.726,9.078Z" transform="translate(55.112 19.598)" fill="#d2e1f1"/>
        <path id="Trazado_781522" data-name="Trazado 781522" d="M244.064,72.348c-.766,7.623-9.276,13.012-19,12.036-9.151-.919-16.123-7.139-16.28-14.218.792-.2,1.581-.377,2.37-.539a68.152,68.152,0,0,1,30.479,1.094c.847.215,1.677.439,2.484.671,0,.318-.019.638-.052.956" transform="translate(59.976 19.643)" fill="#4adbd1"/>
        <path id="Trazado_781523" data-name="Trazado 781523" d="M238.227,71.992c-.575,5.726-6.847,9.786-14.007,9.067-7.1-.713-12.4-5.851-11.938-11.516,9.593-2.787,14.9-2.557,25.945.761a8.4,8.4,0,0,1,0,1.688" transform="translate(60.973 19.425)" fill="#ffca9f"/>
        <path id="Trazado_781524" data-name="Trazado 781524" d="M222.885,84.717l-.386-.039a8.179,8.179,0,0,1-7.321-8.954l2.578-25.672,16.66,1.673L231.839,77.4a8.178,8.178,0,0,1-8.954,7.319" transform="translate(61.802 14.378)" fill="#ffca9f"/>
        <path id="Trazado_781525" data-name="Trazado 781525" d="M215.154,71.918l.856-7.958,7.318.125Z" transform="translate(61.807 18.374)" fill="#373f51"/>
        <path id="Trazado_781526" data-name="Trazado 781526" d="M203.827,75.983l-42.338,54.695,31.4,5.373,10.02-12.323,0-17.449c.372-12.275.581-19.143.919-30.3" transform="translate(46.39 21.827)" fill="#4adbd1"/>
        <path id="Trazado_781527" data-name="Trazado 781527" d="M266.935,121.356c-4.758.962-9.508,1.972-14.269,2.913-.3.058-.593.113-.891.17.061-3.111-.1-6.234-.2-9.346q-.2-5.862-.4-11.724,1.562-.031,3.123-.084a20.192,20.192,0,0,0,6.022-.915c1.779-.628,3.886-1.832,4.328-3.818a.663.663,0,0,0-1.216-.493,8.97,8.97,0,0,1-1.559,1.738,7.305,7.305,0,0,1-1.877.994,17.335,17.335,0,0,1-4.993.833q-1.941.089-3.885.122-.077-2.168-.154-4.339c-.245-6.646-.394-13.324-1-19.95-.045-.52-.914-.368-.927.113-.151,5.947.081,11.915.251,17.861q.093,3.169.187,6.339-4.474.033-8.944-.2-2.948-.149-5.889-.425-.048-3.956-.162-7.912c-.064-2.177-.1-4.37-.232-6.551a.411.411,0,0,0,.387-.481c-.179-.681-.382-1.353-.586-2.026a.6.6,0,0,0-1.156.139c-.1,2.742.008,5.5.04,8.249.032,2.7.046,5.392.068,8.088,0,.111,0,.221,0,.332a141.387,141.387,0,0,1-15.268-2.452c.068-3.153.134-6.306.216-9.459.076-2.905.165-5.813.165-8.721a4.71,4.71,0,0,0-.006-1.159c-.075-.563-.924-.372-.972.117-.581,5.825-.759,11.713-.945,17.561-.013.436-.024.871-.039,1.307q-2.049-.469-4.087-1-3.958-1.033-7.851-2.293c-.675-.218-1.348-.442-2.02-.666-.033-.359-.072-.718-.1-1.077-.471-5.562-.434-11.278,1.132-16.678q.3-1.02.66-2.015c.286-.783-.933-1.035-1.209-.315a40.9,40.9,0,0,0-2.161,16.625c.048.99.121,1.979.2,2.967-.127-.042-.254-.086-.382-.127q-.969-.322-1.937-.647a1.742,1.742,0,0,0-1.111-.161,3.5,3.5,0,0,1-.385.135,3.258,3.258,0,0,1-.671-.026.087.087,0,0,0-.055.157,2.115,2.115,0,0,1,.645.659,1.264,1.264,0,0,0,.792.546q.923.336,1.849.671c.467.169.938.332,1.408.5.411,4.194,1.031,8.369,1.5,12.557q.639,5.739.82,11.517l-.824-.2c-1.245-.3-2.529-.534-3.752-.917a3.081,3.081,0,0,1-1.071-.525c-.275-.233-.326-.557-.514-.825a.576.576,0,0,0-.2-.206c-.012-.009-.021-.019-.032-.027l0,.008a.808.808,0,0,0-.976.245,1.264,1.264,0,0,0,.16,1.437,3.08,3.08,0,0,0,1.034.936c.05.028.1.053.154.08a1.852,1.852,0,0,1-.113.451c-.008.022.024.031.036.014a2.03,2.03,0,0,0,.2-.4,12.252,12.252,0,0,0,2.514.776l3.427.839q.048,2.493.015,4.984a145.477,145.477,0,0,1-1.174,16.41,46.572,46.572,0,0,1-8.822-1.383c-.514-.14-1.035.687-.462.927a19.464,19.464,0,0,0,3.236,1.062c1.1.25,2.218.442,3.338.582.838.1,1.677.18,2.518.247-.019.139-.036.279-.055.42-.427,3.017-.965,6.012-1.543,9a46.012,46.012,0,0,0-1.1,9.079c.006.77.051,1.538.127,2.3a.777.777,0,0,0,.959.564.858.858,0,0,0,.646-.956,32.714,32.714,0,0,1,.623-8.977c.537-3.006,1.159-5.992,1.623-9.01q.178-1.155.336-2.312c.9.054,1.8.1,2.693.148q4.866.251,9.733.487c.031,1.43.059,2.862.1,4.292q.124,4.881.3,9.76.085,2.4.181,4.791a46.154,46.154,0,0,0,.313,4.992c.136.911,1.559.65,1.608-.189.085-1.477-.036-2.957-.1-4.433q-.087-2.13-.163-4.258-.158-4.346-.277-8.7-.085-3.084-.151-6.17l2.826.139c3.812.187,7.628.393,11.448.532-.062,1.207-.122,2.415-.188,3.622a114.746,114.746,0,0,0,.031,18.216.794.794,0,0,0,.981.578.878.878,0,0,0,.662-.98,106.849,106.849,0,0,1-.045-16.163q.135-2.609.269-5.217c4.522.139,9.046.161,13.563-.075q-.046.936-.084,1.873c-.266,6.569-.544,13.138-.756,19.709-.035,1.05,1.592,1.005,1.64.012.286-5.921.51-11.845.75-17.768.053-1.309.1-2.62.167-3.93,2.406-.162,4.808-.4,7.2-.739q1.894-.266,3.773-.623a32.98,32.98,0,0,0,3.884-.9.742.742,0,1,0-.3-1.453c-2.264.4-4.494.946-6.77,1.294-2.248.342-4.509.59-6.777.762-.305.022-.61.041-.915.062.067-1.008.152-2.013.266-3.016.33-2.873,1.062-5.652,1.637-8.479a40.478,40.478,0,0,0,.731-6.171c5.2-.971,10.37-2.107,15.544-3.195a.815.815,0,1,0-.328-1.6M217.7,100.175q3.441.745,6.915,1.322,4.178.689,8.392,1.135.035,7.1-.058,14.2-.058,4.422-.174,8.84a112.214,112.214,0,0,1-15.293-2.712q-.01-11.392.218-22.785m-15.334-4.234q.328.112.658.223,3.563,1.176,7.18,2.175,2.931.8,5.9,1.479-.209,7.224-.31,14.45-.058,4.136-.073,8.272c-1.8-.433-3.59-.875-5.379-1.309q-2.8-.678-5.593-1.349-.154-4.831-.624-9.645c-.471-4.778-1.233-9.523-1.755-14.3m5.92,46.97c-1.536-.067-3.074-.127-4.607-.216.6-4.749.964-9.53,1.09-14.314q.091-3.4.022-6.8l2.351.577c2.856.7,5.71,1.415,8.573,2.1q-.017,9.51.17,19.021-3.8-.187-7.6-.359m9.407.449q-.1-4.862-.154-9.725-.05-4.485-.059-8.972c1.383.319,2.766.629,4.153.922a97,97,0,0,0,11.1,1.756q-.234,8.318-.649,16.631c-4.8-.144-9.593-.375-14.387-.611m31.923-12.92c-.436,2.784-1.247,5.494-1.7,8.276-.282,1.722-.443,3.46-.554,5.2-3.675.194-7.358.224-11.037.16-.844-.015-1.69-.037-2.535-.059.156-3.114.3-6.229.417-9.346q.131-3.6.227-7.193.908.06,1.818.1a65.646,65.646,0,0,0,13.765-1.12,39.04,39.04,0,0,1-.4,3.987m.46-5.686a66.23,66.23,0,0,1-11.525,1.192c-1.363,0-2.723-.049-4.077-.139q.28-11.5.183-23.01,2.336.22,4.678.367c3.393.207,6.788.266,10.182.23q.145,4.86.3,9.72c.093,2.887.211,5.773.26,8.661.015.992.018,1.986,0,2.979" transform="translate(55.309 21.175)" fill="#364975"/>
        <path id="Trazado_781528" data-name="Trazado 781528" d="M256.649,143.087l-29.758,10.558a13.971,13.971,0,0,1-11.078,2.636l-8.264-1.532-3.107-2.047a4.147,4.147,0,0,1-1.151-5.806,2.431,2.431,0,0,1-.331-.331,3.464,3.464,0,0,1,1.47-5.448l.539-.2a3.52,3.52,0,0,1,.554-3.964,4.249,4.249,0,0,1,5.338-.694,12.825,12.825,0,0,0,8.29,1.8l2.6-.331a15.4,15.4,0,0,0,4.048-1.09l5.91-2.091c9.2-4.36,22.169-13.01,22.169-13.01Z" transform="translate(58.076 34.915)" fill="#ffb57d"/>
        <path id="Trazado_781529" data-name="Trazado 781529" d="M283.925,118.149S258.363,79.71,254.647,77.34l.422,43.875a8.218,8.218,0,0,1-3.521,6.824L227.3,144.921l14.927,18.555,30.9-16.915c13.86-9.786,14.867-20.492,10.8-28.413" transform="translate(65.297 22.217)" fill="#4adbd1"/>
        <path id="Trazado_781530" data-name="Trazado 781530" d="M226.95,133.377s-10.666-6.725-13.738-5.43,7.68,6.311,6.61,7.815,7.642,5.346,7.128-2.385" transform="translate(61.09 36.707)" fill="#ffb57d"/>
        <path id="Trazado_781531" data-name="Trazado 781531" d="M213.977,44.907c-1.794,3.349-3.432,6.792-4.92,10.287-2.018,4.744-5.49,10.456-3.882,15.575.911,2.9,12.051,5.75,16.2,4.669,9.073-2.361,14.132-12.6,13.946-21.141-.219-10.061-14.04-18.915-21.348-9.389" transform="translate(58.821 11.73)" fill="#ffca9f"/>
        <path id="Trazado_781532" data-name="Trazado 781532" d="M208.774,53.674c3.1.847,5.654-5.441,6.673-6.306,2.685-2.278,5.968-.675,8.726.6,1.793.826,4.437,2.5,5.27,4.41.722,1.661-1.345,4.142.169,5.314,1.344,1.039,3.949-.466,5.457-.121,2.249.517.982,2.273.33,3.873a9.306,9.306,0,0,0-.869,3.777c.014.7.481,4.327,1.222,4.436.689.1,2.344-2.64,2.665-3.075,2.237-3.035,6.767-8.381,6.747-12.405-.009-1.97-1.824-2.441-1.453-4.771.385-2.414,2.641-5.033,1.023-7.394a3.268,3.268,0,0,0-2.066-1.446c-.842-.166-1.672.49-2.384.368-1.166-.2-.9-.6-1.022-1.83-.335-3.284-1.97-5.112-5.3-3.729-3.371,1.4-3.591.312-5.028-2.331-1.8-3.3-4.441-1.86-6.94-.552a4.716,4.716,0,0,1-4.884.041c-.882-.619-1.242-1.9-2.271-2.268-2.665-.958-5.9,2.232-7.108,4.187-3.384,5.462-5.221,17.516,1.041,19.224" transform="translate(58.783 8.643)" fill="#12263f"/>
        <path id="Trazado_781533" data-name="Trazado 781533" d="M232.958,57.383c-3.4,5.21-10,.843-6.632-4.329,3.3-5.063,10.146-1.056,6.632,4.329" transform="translate(64.748 14.572)" fill="#ffca9f"/>
        <path id="Trazado_781534" data-name="Trazado 781534" d="M218.136,60.348a1.187,1.187,0,0,1-.112.167,3.206,3.206,0,0,1-4.209.373,3.868,3.868,0,0,1-.866-.8.7.7,0,0,1,.5-1.187,4.188,4.188,0,0,0,2.819-.844c1.352-1.241,2.73.861,1.868,2.293" transform="translate(61.12 16.569)" fill="#262f3f"/>
        <path id="Trazado_781535" data-name="Trazado 781535" d="M211.9,49.7a1.123,1.123,0,0,1-2.244-.032,1.123,1.123,0,0,1,2.244.032" transform="translate(60.228 13.962)" fill="#1d2536"/>
        <path id="Trazado_781536" data-name="Trazado 781536" d="M219.268,51a1.123,1.123,0,0,1-2.244-.032,1.123,1.123,0,0,1,2.244.032" transform="translate(62.344 14.335)" fill="#1d2536"/>
        <path id="Trazado_781537" data-name="Trazado 781537" d="M209.6,55.685a4.558,4.558,0,1,1,4.989-4.081,4.562,4.562,0,0,1-4.989,4.081m.838-8.351a3.835,3.835,0,1,0,3.432,4.2,3.838,3.838,0,0,0-3.432-4.2" transform="translate(59.032 13.384)" fill="#516275"/>
        <path id="Trazado_781538" data-name="Trazado 781538" d="M218.358,56.565a4.558,4.558,0,1,1,4.989-4.081,4.561,4.561,0,0,1-4.989,4.081m.838-8.35a3.835,3.835,0,1,0,3.432,4.2,3.838,3.838,0,0,0-3.432-4.2" transform="translate(61.548 13.637)" fill="#516275"/>
        <path id="Trazado_781539" data-name="Trazado 781539" d="M215.223,51.482a.361.361,0,0,1-.323-.4,1.1,1.1,0,0,0-2.181-.219.362.362,0,1,1-.72-.072,1.818,1.818,0,0,1,3.618.363.359.359,0,0,1-.4.324" transform="translate(60.9 14.122)" fill="#516275"/>
        <path id="Trazado_781540" data-name="Trazado 781540" d="M228.378,51.122a.223.223,0,0,1-.041,0,.241.241,0,0,1-.2-.278c.006-.039.627-3.752-1.1-5.694a3.952,3.952,0,0,0-3.355-1.17,6.338,6.338,0,0,1-6.968-5.343.241.241,0,1,1,.479-.062,5.772,5.772,0,0,0,6.462,4.924,4.4,4.4,0,0,1,3.743,1.331c1.886,2.116,1.246,5.934,1.218,6.1a.24.24,0,0,1-.237.2" transform="translate(62.254 11.019)" fill="#fff"/>
        <path id="Trazado_781541" data-name="Trazado 781541" d="M231.272,48.722h-.019a.241.241,0,0,1-.223-.259c0-.042.278-4.342-2.107-6.29-1.263-1.032-3.064-1.236-5.352-.605a2.617,2.617,0,0,1-2.609.3c-1.133-.662-1.157-2.491-1.159-2.568a.242.242,0,0,1,.239-.243h0a.241.241,0,0,1,.241.239c0,.017.024,1.634.922,2.156a2.217,2.217,0,0,0,2.155-.321.239.239,0,0,1,.053-.022c2.463-.685,4.419-.452,5.816.69,2.577,2.109,2.294,6.511,2.281,6.7a.241.241,0,0,1-.239.224" transform="translate(63.142 11.22)" fill="#fff"/>
        <path id="Trazado_781542" data-name="Trazado 781542" d="M228.64,57.695a.242.242,0,0,1-.107-.458l.239-.117a3.619,3.619,0,0,0,1.814-1.93,1.784,1.784,0,0,0-.022-1.616,3.072,3.072,0,0,0-2.029-1.072.243.243,0,0,1-.214-.268.239.239,0,0,1,.266-.212,3.51,3.51,0,0,1,2.388,1.3,2.233,2.233,0,0,1,.06,2.039,4.1,4.1,0,0,1-2.052,2.19l-.238.118a.244.244,0,0,1-.107.024" transform="translate(65.589 14.943)" fill="#1d2536"/>
        <path id="Trazado_781543" data-name="Trazado 781543" d="M212.08,58.275c-.875-.172-3.2-.789-3.037-2.461.149-1.51,1.815-1.84,2.823-1.806l1.86-4.066a.267.267,0,0,1,.346-.122.247.247,0,0,1,.142.327l-1.931,4.22a.26.26,0,0,1-.26.144c-.094-.009-2.3-.174-2.452,1.363s2.859,1.966,2.891,1.97a.26.26,0,0,1,.232.279.253.253,0,0,1-.293.209c-.024,0-.143-.021-.321-.055" transform="translate(60.049 14.305)" fill="#1d2536"/>
        <path id="Trazado_781544" data-name="Trazado 781544" d="M199.529,106.589S99.342,80.441,13.882,157,302.115,239.534,358.7,208.414c47.528-40.179-5.511-52.5-29.854-51.115s-66.365,6.968-87.239-5.354-42.081-45.357-42.081-45.357" transform="translate(0.356 29.382)" fill="#c9c7c7"/>
        <path id="Trazado_781545" data-name="Trazado 781545" d="M110.186,25.4l-2.808.736V20.562l2.808-.444Z" transform="translate(30.846 5.779)" fill="#fff"/>
        <path id="Trazado_781546" data-name="Trazado 781546" d="M103.852,122.4H101V15.874l2.854.517Z" transform="translate(29.013 4.56)" fill="#12263f"/>
        <path id="Trazado_781547" data-name="Trazado 781547" d="M158.99,12.178l-55.137,5.274L101,16.936l55.87-4.758Z" transform="translate(29.013 3.498)" fill="#12263f"/>
        <rect id="Rectángulo_366373" data-name="Rectángulo 366373" width="6.033" height="25.768" transform="translate(156.898 111.816)" fill="#373f51"/>
        <path id="Trazado_781548" data-name="Trazado 781548" d="M142.232,106.627l-28.688,5.17a6.329,6.329,0,0,1,5.105-7.35l16.232-2.925a6.328,6.328,0,0,1,7.35,5.105" transform="translate(32.588 29.135)" fill="#373f51"/>
        <path id="Trazado_781549" data-name="Trazado 781549" d="M155.82,113.176l-52.605,10.287V17.368l55.139-5.19Z" transform="translate(29.65 3.498)" fill="#373f51"/>
        <path id="Trazado_781550" data-name="Trazado 781550" d="M154.023,107.854l-49.48,9.418.081-98.706,51.694-4.955Z" transform="translate(30.032 3.91)" fill="#f4a338"/>
        <path id="Trazado_781551" data-name="Trazado 781551" d="M139.333,50.319,122.677,52.2V51.99a1.8,1.8,0,0,0-2.083-1.778L110.8,51.274a2.432,2.432,0,0,0-2.187,2.3l0,2.858.028,20.654a2.246,2.246,0,0,0,2.795,2.163l27.842-4.623a3.019,3.019,0,0,0,2.46-2.858l.045-19.265a2.148,2.148,0,0,0-2.455-2.184" transform="translate(31.201 14.42)" fill="#fff"/>
        <path id="Trazado_781552" data-name="Trazado 781552" d="M132.194,69.277l-16.706,2.6a.563.563,0,0,1-.568-.224.6.6,0,0,1,0-.624l8.529-15.383a.743.743,0,0,1,.548-.375.553.553,0,0,1,.547.239l8.179,12.779a.6.6,0,0,1,0,.6.745.745,0,0,1-.529.382m-15.576,1.182,14.519-2.223L124,57.117Z" transform="translate(32.987 15.877)" fill="#f4a338"/>
        <path id="Trazado_781553" data-name="Trazado 781553" d="M123.111,59.892l-.416,4.8a.64.64,0,0,1-.581.56.444.444,0,0,1-.49-.4l-.413-4.7a1.1,1.1,0,0,1,.871-1.119.81.81,0,0,1,1.029.705.9.9,0,0,1,0,.156" transform="translate(34.819 16.951)" fill="#f4a338"/>
        <path id="Trazado_781554" data-name="Trazado 781554" d="M123.077,65.168a1.1,1.1,0,0,1-.926,1.038.765.765,0,0,1-.927-.759,1.1,1.1,0,0,1,.928-1.038.766.766,0,0,1,.924.759" transform="translate(34.824 18.499)" fill="#f4a338"/>
        <path id="Trazado_781555" data-name="Trazado 781555" d="M145.289,60.156l-16.656,1.883v-.212a1.8,1.8,0,0,0-2.083-1.778l-9.794,1.062a2.432,2.432,0,0,0-2.187,2.3l.013,9.445.019,14.067a2.246,2.246,0,0,0,2.795,2.163l27.842-4.623a3.018,3.018,0,0,0,2.46-2.858l.045-19.265a2.148,2.148,0,0,0-2.455-2.184" transform="translate(32.912 17.246)" fill="#e6edef"/>
        <path id="Trazado_781556" data-name="Trazado 781556" d="M107.45,27.585a.321.321,0,0,1-.035-.641l44.532-4.9a.322.322,0,1,1,.069.64l-44.53,4.9h-.036" transform="translate(30.774 6.332)" fill="#5573c6"/>
        <path id="Trazado_781557" data-name="Trazado 781557" d="M107.655,43.642a.322.322,0,0,1-.041-.641l37.211-4.9a.322.322,0,1,1,.084.638L107.7,43.64l-.042,0" transform="translate(30.833 10.944)" fill="#5573c6"/>
        <path id="Trazado_781558" data-name="Trazado 781558" d="M107.45,30.311a.322.322,0,0,1-.037-.641L132.119,26.7a.322.322,0,0,1,.077.64l-24.708,2.966a.2.2,0,0,1-.039,0" transform="translate(30.774 7.67)" fill="#5573c6"/>
        <path id="Trazado_781559" data-name="Trazado 781559" d="M107.45,33.755a.322.322,0,0,1-.037-.641L136.92,29.57a.322.322,0,0,1,.077.64l-29.509,3.543-.039,0" transform="translate(30.774 8.494)" fill="#5573c6"/>
        <rect id="Rectángulo_366374" data-name="Rectángulo 366374" width="4.451" height="19.064" transform="translate(50.986 72.827)" fill="#12263f"/>
        <rect id="Rectángulo_366375" data-name="Rectángulo 366375" width="4.451" height="19.063" transform="translate(103.146 59.325)" fill="#12263f"/>
        <path id="Trazado_781560" data-name="Trazado 781560" d="M28.612,16.328v65a2.272,2.272,0,0,0,2.882,2.188l79.665-22.239a2.274,2.274,0,0,0,1.662-2.188l.017-56.82A2.272,2.272,0,0,0,110.171.036L30.489,14.09a2.273,2.273,0,0,0-1.877,2.237" transform="translate(8.219 0)" fill="#12263f"/>
        <path id="Trazado_781561" data-name="Trazado 781561" d="M32.253,15.63V78.654l75.92-21.194.015-55.224Z" transform="translate(9.265 0.642)" fill="#f4a338"/>
        <path id="Trazado_781562" data-name="Trazado 781562" d="M53.921,65.333a.322.322,0,0,1-.322-.322V12.577a.322.322,0,0,1,.644,0V65.011a.322.322,0,0,1-.322.322" transform="translate(15.397 3.52)" fill="#5573c6"/>
        <path id="Trazado_781563" data-name="Trazado 781563" d="M74.279,56.921a.322.322,0,0,1-.322-.322V8.96a.322.322,0,1,1,.644,0V56.6a.322.322,0,0,1-.322.322" transform="translate(21.245 2.481)" fill="#5573c6"/>
        <path id="Trazado_781564" data-name="Trazado 781564" d="M36.239,18.16a.321.321,0,0,1-.055-.637l17.7-3.129a.321.321,0,1,1,.112.632L36.3,18.155a.216.216,0,0,1-.057.005" transform="translate(10.318 4.133)" fill="#5573c6"/>
        <path id="Trazado_781565" data-name="Trazado 781565" d="M36.239,25.748a.322.322,0,0,1-.061-.638l17.636-3.369a.322.322,0,1,1,.121.632L36.3,25.743a.32.32,0,0,1-.061.005" transform="translate(10.318 6.244)" fill="#5573c6"/>
        <path id="Trazado_781566" data-name="Trazado 781566" d="M36.239,33.277a.322.322,0,0,1-.064-.637l17.567-3.606a.322.322,0,0,1,.13.631L36.3,33.271a.378.378,0,0,1-.066.006" transform="translate(10.318 8.339)" fill="#5573c6"/>
        <path id="Trazado_781567" data-name="Trazado 781567" d="M36.239,40.745a.322.322,0,0,1-.068-.636l17.5-3.839a.322.322,0,0,1,.138.628l-17.5,3.839a.32.32,0,0,1-.07.008" transform="translate(10.318 10.417)" fill="#5573c6"/>
        <path id="Trazado_781568" data-name="Trazado 781568" d="M36.239,48.155a.322.322,0,0,1-.073-.635L53.6,43.453a.321.321,0,1,1,.145.626L36.312,48.146a.286.286,0,0,1-.073.009" transform="translate(10.318 12.48)" fill="#5573c6"/>
        <path id="Trazado_781569" data-name="Trazado 781569" d="M36.239,55.507a.322.322,0,0,1-.077-.635L53.529,50.58a.322.322,0,1,1,.154.624L36.316,55.5a.4.4,0,0,1-.077.009" transform="translate(10.318 14.527)" fill="#5573c6"/>
        <path id="Trazado_781570" data-name="Trazado 781570" d="M57.916,14.019a.322.322,0,0,1-.055-.638l16.3-2.872a.322.322,0,1,1,.112.633l-16.3,2.872a.29.29,0,0,1-.057.005" transform="translate(16.545 3.017)" fill="#5573c6"/>
        <path id="Trazado_781571" data-name="Trazado 781571" d="M57.833,21.31a.322.322,0,0,1-.059-.638l16.238-3.095a.322.322,0,1,1,.12.632l-16.238,3.1a.32.32,0,0,1-.06.005" transform="translate(16.521 5.048)" fill="#5573c6"/>
        <path id="Trazado_781572" data-name="Trazado 781572" d="M57.752,28.547a.322.322,0,0,1-.064-.637L73.868,24.6a.322.322,0,1,1,.129.631L57.816,28.541a.363.363,0,0,1-.064.006" transform="translate(16.498 7.064)" fill="#5573c6"/>
        <path id="Trazado_781573" data-name="Trazado 781573" d="M57.671,35.728a.322.322,0,0,1-.068-.636l16.123-3.53a.322.322,0,0,1,.138.629L57.74,35.721a.32.32,0,0,1-.07.008" transform="translate(16.474 9.065)" fill="#5573c6"/>
        <path id="Trazado_781574" data-name="Trazado 781574" d="M57.59,42.856a.321.321,0,0,1-.072-.635l16.066-3.742a.322.322,0,1,1,.147.627L57.663,42.847a.286.286,0,0,1-.073.009" transform="translate(16.451 11.051)" fill="#5573c6"/>
        <path id="Trazado_781575" data-name="Trazado 781575" d="M57.51,49.929a.322.322,0,0,1-.077-.635l16.012-3.949a.321.321,0,0,1,.153.624L57.587,49.92a.317.317,0,0,1-.077.009" transform="translate(16.428 13.023)" fill="#5573c6"/>
        <path id="Trazado_781576" data-name="Trazado 781576" d="M77.884,10.2a.322.322,0,0,1-.055-.638L92.878,6.921a.322.322,0,1,1,.112.633L77.94,10.2a.29.29,0,0,1-.057.005" transform="translate(22.281 1.987)" fill="#5573c6"/>
        <path id="Trazado_781577" data-name="Trazado 781577" d="M77.732,17.223a.322.322,0,0,1-.059-.638l15-2.85a.322.322,0,1,1,.12.632l-15,2.851a.32.32,0,0,1-.06.005" transform="translate(22.237 3.944)" fill="#5573c6"/>
        <path id="Trazado_781578" data-name="Trazado 781578" d="M77.581,24.189a.322.322,0,0,1-.064-.637L92.468,20.5a.322.322,0,1,1,.129.631L77.645,24.183a.363.363,0,0,1-.064.006" transform="translate(22.194 5.886)" fill="#5573c6"/>
        <path id="Trazado_781579" data-name="Trazado 781579" d="M77.431,31.1a.322.322,0,0,1-.068-.636l14.9-3.254a.321.321,0,1,1,.136.628L77.5,31.1a.32.32,0,0,1-.07.008" transform="translate(22.151 7.815)" fill="#5573c6"/>
        <path id="Trazado_781580" data-name="Trazado 781580" d="M77.283,37.97a.321.321,0,0,1-.072-.635l14.855-3.452a.322.322,0,1,1,.145.627L77.356,37.961a.286.286,0,0,1-.073.009" transform="translate(22.108 9.731)" fill="#5573c6"/>
        <path id="Trazado_781581" data-name="Trazado 781581" d="M77.135,44.785a.322.322,0,0,1-.077-.635l14.809-3.646a.322.322,0,1,1,.154.624L77.212,44.776a.317.317,0,0,1-.077.009" transform="translate(22.066 11.633)" fill="#5573c6"/>
        <path id="Trazado_781582" data-name="Trazado 781582" d="M25.684,76.138,111.131,51.9h3.877L29,76.138Z" transform="translate(7.378 14.909)" fill="#12263f"/>
        <path id="Trazado_781583" data-name="Trazado 781583" d="M72.142,134.63,51.155,149.809H72.437L93.423,134.63Z" transform="translate(14.695 38.675)" fill="#12263f"/>
        <path id="Trazado_781584" data-name="Trazado 781584" d="M72.149,150.626l9.431-38.061-12.96-3.212L58.394,150.626Z" transform="translate(16.775 31.414)" fill="#12263f"/>
        <path id="Trazado_781585" data-name="Trazado 781585" d="M28.258,76.15V185.022l86.011-63.359V51.9Z" transform="translate(8.118 14.909)" fill="#12263f"/>
        <rect id="Rectángulo_366376" data-name="Rectángulo 366376" width="3.313" height="108.885" transform="translate(33.062 91.046)" fill="#12263f"/>
        <path id="Trazado_781586" data-name="Trazado 781586" d="M31.5,78.078v96.181l79.977-55.915-.4-64.188Z" transform="translate(9.048 15.557)" fill="#f4a338"/>
        <path id="Trazado_781587" data-name="Trazado 781587" d="M34.814,85.829a.483.483,0,0,1-.152-.941L106.378,61.1a.483.483,0,0,1,.3.917L34.966,85.8a.48.48,0,0,1-.152.024" transform="translate(9.862 17.545)" fill="#5573c6"/>
        <path id="Trazado_781588" data-name="Trazado 781588" d="M34.92,93.581a.483.483,0,0,1-.17-.935L94.134,70.3a.483.483,0,1,1,.34.9L35.09,93.55a.489.489,0,0,1-.17.031" transform="translate(9.893 20.187)" fill="#5573c6"/>
        <path id="Trazado_781589" data-name="Trazado 781589" d="M35.027,99.077a.483.483,0,0,1-.187-.928L60.82,87.22a.483.483,0,0,1,.375.89L35.213,99.039a.474.474,0,0,1-.187.037" transform="translate(9.923 25.044)" fill="#5573c6"/>
        <path id="Trazado_781590" data-name="Trazado 781590" d="M35.133,107.01a.483.483,0,0,1-.2-.92L57.673,95.513a.483.483,0,1,1,.407.875L35.336,106.965a.477.477,0,0,1-.2.045" transform="translate(9.954 27.425)" fill="#5573c6"/>
        <path id="Trazado_781591" data-name="Trazado 781591" d="M35.238,115.57a.483.483,0,0,1-.219-.913l25.862-13.17a.483.483,0,0,1,.438.861L35.457,115.518a.48.48,0,0,1-.219.053" transform="translate(9.984 29.139)" fill="#5573c6"/>
        <path id="Trazado_781592" data-name="Trazado 781592" d="M35.343,123.768a.482.482,0,0,1-.234-.9l25.8-14.277a.483.483,0,0,1,.467.844l-25.8,14.277a.477.477,0,0,1-.233.06" transform="translate(10.014 31.176)" fill="#5573c6"/>
        <path id="Trazado_781593" data-name="Trazado 781593" d="M35.448,131.935a.477.477,0,0,1-.414-.236.484.484,0,0,1,.166-.662l25.747-15.376a.483.483,0,0,1,.494.83L35.695,131.868a.492.492,0,0,1-.247.067" transform="translate(10.044 33.206)" fill="#5573c6"/>
        <path id="Trazado_781594" data-name="Trazado 781594" d="M35.552,140.071a.483.483,0,0,1-.261-.889l25.687-16.468a.483.483,0,0,1,.521.812L35.812,139.995a.484.484,0,0,1-.26.076" transform="translate(10.074 35.229)" fill="#5573c6"/>
        <path id="Trazado_781595" data-name="Trazado 781595" d="M59.729,88.095a.483.483,0,0,1-.187-.928l19.7-8.287a.483.483,0,0,1,.375.891l-19.7,8.287a.478.478,0,0,1-.187.037" transform="translate(17.019 22.649)" fill="#5573c6"/>
        <path id="Trazado_781596" data-name="Trazado 781596" d="M59.981,123.527a.483.483,0,0,1-.261-.889l19.523-12.516a.483.483,0,0,1,.521.814L60.241,123.451a.484.484,0,0,1-.26.076" transform="translate(17.092 31.612)" fill="#5573c6"/>
        <path id="Trazado_781597" data-name="Trazado 781597" d="M78.524,79.789a.483.483,0,0,1-.187-.928l15.45-6.5a.483.483,0,0,1,.375.889l-15.451,6.5a.474.474,0,0,1-.187.037" transform="translate(22.419 20.776)" fill="#5573c6"/>
        <path id="Trazado_781598" data-name="Trazado 781598" d="M78.541,86.065a.483.483,0,0,1-.2-.92l15.428-7.174a.483.483,0,1,1,.407.875L78.744,86.02a.477.477,0,0,1-.2.045" transform="translate(22.423 22.386)" fill="#5573c6"/>
        <path id="Trazado_781599" data-name="Trazado 781599" d="M78.559,92.323a.483.483,0,0,1-.219-.913l15.4-7.845a.483.483,0,1,1,.439.86L78.778,92.27a.48.48,0,0,1-.219.053" transform="translate(22.429 23.991)" fill="#5573c6"/>
        <path id="Trazado_781600" data-name="Trazado 781600" d="M78.576,98.562a.483.483,0,0,1-.234-.9l15.384-8.511a.483.483,0,0,1,.467.844L78.809,98.5a.477.477,0,0,1-.233.061" transform="translate(22.433 25.591)" fill="#5573c6"/>
        <path id="Trazado_781601" data-name="Trazado 781601" d="M78.593,104.783a.483.483,0,0,1-.248-.9l15.362-9.174a.483.483,0,1,1,.494.829L78.84,104.715a.481.481,0,0,1-.247.068" transform="translate(22.438 27.188)" fill="#5573c6"/>
        <path id="Trazado_781602" data-name="Trazado 781602" d="M78.611,110.469a.483.483,0,0,1-.261-.889l11.739-7.525a.483.483,0,1,1,.521.812l-11.739,7.527a.484.484,0,0,1-.26.076" transform="translate(22.443 29.295)" fill="#5573c6"/>
        <rect id="Rectángulo_366377" data-name="Rectángulo 366377" width="21.133" height="3.823" transform="translate(65.851 188.485)" fill="#12263f"/>
        <path id="Trazado_781603" data-name="Trazado 781603" d="M67.573,153.633l7.613-9.223,13.52-7.249V134.63l-14.487,7.223-6.646,7.958Z" transform="translate(19.411 38.675)" fill="#1d2017"/>
        <path id="Trazado_781604" data-name="Trazado 781604" d="M78.611,81.637,64.168,87.6v-.183c.008-.959-.838-1.394-1.9-.967l-9.344,3.756a3.414,3.414,0,0,0-2.17,2.737v21.013c0,1.283,1.232,1.662,2.73.859l24.8-13.291a3.993,3.993,0,0,0,2.029-3.044l.273-15.658c.019-1.113-.86-1.648-1.979-1.186" transform="translate(14.58 23.404)" fill="#fff"/>
        <path id="Trazado_781605" data-name="Trazado 781605" d="M72.21,97.927l-14.868,7.617c-.22.112-.422.113-.532,0a.476.476,0,0,1,0-.541l7.913-15.936a1.048,1.048,0,0,1,.493-.478.4.4,0,0,1,.485.049l6.962,8.316a.479.479,0,0,1-.006.5,1.058,1.058,0,0,1-.449.475m-13.807,6,12.922-6.542L65.2,90.165Z" transform="translate(16.296 25.433)" fill="#f4a338"/>
        <path id="Trazado_781606" data-name="Trazado 781606" d="M64.322,92.252l-.405,4.19a.893.893,0,0,1-.52.655c-.236.1-.416.014-.434-.188l-.335-3.868a1.449,1.449,0,0,1,.788-1.215c.467-.252.873-.12.908.294a.763.763,0,0,1,0,.133" transform="translate(17.99 26.342)" fill="#f4a338"/>
        <path id="Trazado_781607" data-name="Trazado 781607" d="M64.25,96.721a1.521,1.521,0,0,1-.828,1.17c-.456.229-.824.075-.82-.348a1.519,1.519,0,0,1,.835-1.174c.453-.225.816-.067.812.351" transform="translate(17.983 27.654)" fill="#f4a338"/>
        <path id="Trazado_781608" data-name="Trazado 781608" d="M71.979,100.967,62.7,105.3c-1.184.552-2.155.183-2.155-.835V95.974a3.417,3.417,0,0,1,2.17-2.737l9.344-3.756c1.063-.427,1.909.008,1.9.967L73.9,98.362a3.327,3.327,0,0,1-1.917,2.605" transform="translate(17.392 25.658)" fill="#e6edef"/>
        <path id="Trazado_781609" data-name="Trazado 781609" d="M88.077,105.629l-24.8,13.292c-1.5.8-2.73.424-2.73-.859V99.625A4.42,4.42,0,0,1,63.31,96.1L88.4,85.741c1.119-.461,2,.072,1.979,1.186l-.273,15.658a3.99,3.99,0,0,1-2.029,3.044" transform="translate(17.392 24.583)" fill="#e6edef"/>
        <path id="Trazado_781610" data-name="Trazado 781610" d="M88.094,87.476,61.74,98.694V97.676L88.108,86.6Z" transform="translate(17.736 24.876)" fill="#e6edef"/>
        <path id="Trazado_781611" data-name="Trazado 781611" d="M81.776,20.256,64.388,23.892l.005-.229a1.631,1.631,0,0,0-2.042-1.73l-9.573,2.006a2.751,2.751,0,0,0-2.084,2.59V50.07a2,2,0,0,0,2.542,2L80.411,46.5a3.548,3.548,0,0,0,2.711-3.089L84.3,22.474a2.011,2.011,0,0,0-2.527-2.218" transform="translate(14.563 5.803)" fill="#fff"/>
        <path id="Trazado_781612" data-name="Trazado 781612" d="M110.323,143.932l-11.354-.108L64.293,167.2l16.129-.425,44.636,4.525,11.158-24.587Z" transform="translate(18.469 41.316)" fill="#516275"/>
        <path id="Trazado_781613" data-name="Trazado 781613" d="M64.661,166.64l-.368-4.562,16.129-.425,44.636,4.526v2.357Z" transform="translate(18.469 46.438)" fill="#12263f"/>
        <path id="Trazado_781614" data-name="Trazado 781614" d="M91.685,166.436a.483.483,0,0,1-.357-.808l18.829-20.643a.483.483,0,0,1,.714.65l-18.83,20.644a.481.481,0,0,1-.357.157" transform="translate(26.199 41.604)" fill="#12263f"/>
        <path id="Trazado_781615" data-name="Trazado 781615" d="M99.186,167.677a.483.483,0,0,1-.385-.774l15.988-21.161a.483.483,0,0,1,.771.582L99.571,167.485a.477.477,0,0,1-.385.192" transform="translate(28.354 41.812)" fill="#12263f"/>
        <path id="Trazado_781616" data-name="Trazado 781616" d="M106.415,168.242a.491.491,0,0,1-.256-.073.483.483,0,0,1-.152-.667l13.364-21.279a.482.482,0,1,1,.817.512l-13.364,21.28a.481.481,0,0,1-.409.227" transform="translate(30.431 41.94)" fill="#12263f"/>
        <path id="Trazado_781617" data-name="Trazado 781617" d="M84.207,165.783a.483.483,0,0,1-.332-.833l21.81-20.757a.483.483,0,1,1,.666.7L84.54,165.65a.483.483,0,0,1-.333.133" transform="translate(24.051 41.383)" fill="#12263f"/>
        <path id="Trazado_781618" data-name="Trazado 781618" d="M122.656,146.068l.2,1.564L111.5,173.013v-2.357Z" transform="translate(32.03 41.96)" fill="#12263f"/>
        <path id="Trazado_781619" data-name="Trazado 781619" d="M162.336,151.828l-45.117,20.46,70.11,10.383,25.554-23.1Z" transform="translate(33.673 43.615)" fill="#fff"/>
        <path id="Trazado_781620" data-name="Trazado 781620" d="M180.418,172.927a18.615,18.615,0,0,0-8.272-2.357c-3.074-.261-6.166-.2-9.243-.416-3.433-.236-6.851-.658-10.254-1.16-1.7-.251-3.395-.523-5.089-.8-1.645-.27-3.306-.5-4.937-.855a14.994,14.994,0,0,1-2.3-.668c-.709-.275-1.393-.614-2.088-.923a7.619,7.619,0,0,0-4.047-.923,4.01,4.01,0,0,0-1.007.282c-.319.133-.079.572.237.443a5.321,5.321,0,0,1,4.075.458,29.253,29.253,0,0,0,4.221,1.666c1.569.4,3.186.615,4.782.879,1.661.273,3.322.543,4.987.8,3.333.506,6.676.946,10.036,1.223q2.462.2,4.929.275c1.456.042,2.912.066,4.366.147a21.148,21.148,0,0,1,8.385,1.856c.317.158.624.331.927.514.272.165.575-.261.288-.438" transform="translate(38.216 47.338)" fill="#d6d6d6"/>
        <path id="Trazado_781621" data-name="Trazado 781621" d="M183.643,169.672q-9.255-.747-18.458-2.035-9.178-1.3-18.269-3.14-2.526-.512-5.043-1.065-1.261-.274-2.517-.56c-.42-.1-.839-.189-1.26-.278-.227-.048-.453-.1-.681-.144a2.066,2.066,0,0,0-.641.024c-.022,0-.037.03-.015.045a2.283,2.283,0,0,0,.433.277,4.581,4.581,0,0,0,.574.149c.384.1.767.2,1.153.287q1.11.259,2.222.508,2.273.512,4.553.986,4.563.946,9.151,1.757,9.133,1.612,18.354,2.683,5.194.6,10.409,1.018a.257.257,0,0,0,.036-.514" transform="translate(39.283 46.661)" fill="#d6d6d6"/>
        <path id="Trazado_781622" data-name="Trazado 781622" d="M186.79,166.819a87.813,87.813,0,0,1-17.481-1.256c-5.782-.92-11.524-2.1-17.271-3.213l-4.868-.938c-1.654-.319-3.311-.693-4.98-.919-.157-.021-.394.18-.216.327.245.2.493.4.747.588.147.112.372-.134.228-.266-.032-.031-.066-.059-.1-.089,1.182.265,2.38.472,3.567.7l4.419.856q4.389.852,8.778,1.7c5.735,1.111,11.486,2.2,17.307,2.742a71.861,71.861,0,0,0,9.833.29c.339-.015.4-.542.037-.526" transform="translate(40.766 46.104)" fill="#d6d6d6"/>
        <path id="Trazado_781623" data-name="Trazado 781623" d="M189.207,164.216a11.691,11.691,0,0,0-3.642-.981,25.065,25.065,0,0,0-3.768-.178c-2.577.049-5.149.335-7.73.261a47.572,47.572,0,0,1-8.3-1.2c-2.79-.582-5.565-1.231-8.334-1.9q-2.3-.56-4.6-1.116c-1.576-.382-3.146-.779-4.737-1.089-.176-.035-.288.22-.1.279,2.729.829,5.522,1.47,8.29,2.161q4.1,1.023,8.227,1.918a61.738,61.738,0,0,0,8.246,1.386,66.4,66.4,0,0,0,7.807-.153,30.963,30.963,0,0,1,4.247.062,15.411,15.411,0,0,1,2.124.349c.7.169,1.368.409,2.045.644.246.085.471-.31.215-.438" transform="translate(42.488 45.389)" fill="#d6d6d6"/>
        <path id="Trazado_781624" data-name="Trazado 781624" d="M193.212,160.338a11.938,11.938,0,0,0-2.007.124c-.64.053-1.282.091-1.923.115q-1.975.073-3.949-.03a43.609,43.609,0,0,1-7.834-1.129c-1.282-.305-2.542-.694-3.818-1.025a21.192,21.192,0,0,0-3.9-.654c-1.349-.091-2.7-.076-4.054-.109q-1.975-.046-3.94-.278a40.774,40.774,0,0,1-4.384-.769c-.7-.163-1.4-.341-2.1-.537-.725-.2-1.435-.465-2.169-.631-.165-.037-.332.209-.149.3a12.856,12.856,0,0,0,1.849.664q.965.3,1.942.545,1.912.475,3.862.768,1.933.29,3.886.4c1.376.077,2.755.062,4.132.109a21.1,21.1,0,0,1,4.007.489c1.283.3,2.541.7,3.815,1.029a44,44,0,0,0,12.281,1.419q1.108-.029,2.213-.113a8.881,8.881,0,0,0,2.26-.319c.2-.07.212-.346-.023-.367" transform="translate(43.925 44.645)" fill="#d6d6d6"/>
        <path id="Trazado_781625" data-name="Trazado 781625" d="M217.339,159.5l45.117,20.46-70.11,10.383-25.554-23.1Z" transform="translate(47.914 45.819)" fill="#e6edef"/>
        <path id="Trazado_781626" data-name="Trazado 781626" d="M188.509,180.6a18.614,18.614,0,0,1,8.272-2.357c3.074-.261,6.166-.2,9.243-.416,3.433-.236,6.851-.658,10.254-1.16,1.7-.251,3.395-.523,5.089-.8,1.646-.27,3.307-.5,4.938-.855a15.125,15.125,0,0,0,2.3-.667c.709-.277,1.393-.615,2.088-.924a7.619,7.619,0,0,1,4.047-.923,4.009,4.009,0,0,1,1.007.282c.319.133.079.572-.236.443a5.318,5.318,0,0,0-4.077.46,29.19,29.19,0,0,1-4.221,1.664c-1.569.4-3.186.615-4.782.879-1.661.273-3.322.543-4.987.8-3.333.506-6.676.946-10.035,1.223q-2.46.2-4.929.275c-1.456.042-2.912.066-4.366.147a21.153,21.153,0,0,0-8.385,1.856c-.315.158-.624.331-.927.514-.272.165-.574-.261-.288-.438" transform="translate(54.119 49.542)" fill="#d6d6d6"/>
        <path id="Trazado_781627" data-name="Trazado 781627" d="M185.2,177.344q9.255-.747,18.458-2.035,9.178-1.3,18.269-3.14,2.526-.512,5.045-1.065,1.259-.274,2.515-.561.63-.143,1.26-.277c.227-.048.453-.1.681-.144a2.067,2.067,0,0,1,.641.024c.022,0,.037.03.015.045a2.349,2.349,0,0,1-.433.277,4.527,4.527,0,0,1-.574.149c-.384.1-.767.2-1.153.287q-1.11.259-2.222.508-2.273.512-4.553.986-4.563.946-9.151,1.757-9.133,1.61-18.354,2.683-5.194.6-10.409,1.018a.257.257,0,0,1-.036-.514" transform="translate(53.134 48.865)" fill="#d6d6d6"/>
        <path id="Trazado_781628" data-name="Trazado 781628" d="M181.607,174.491a87.814,87.814,0,0,0,17.481-1.256c5.782-.92,11.524-2.1,17.271-3.213l4.868-.938c1.654-.319,3.311-.693,4.98-.919.157-.021.394.18.216.327-.245.2-.493.4-.747.588-.147.112-.371-.134-.228-.266.032-.031.066-.058.1-.089-1.182.265-2.38.472-3.567.7l-4.419.857-8.778,1.7c-5.733,1.111-11.486,2.2-17.307,2.742a71.866,71.866,0,0,1-9.833.29c-.339-.015-.4-.542-.037-.527" transform="translate(52.1 48.308)" fill="#d6d6d6"/>
        <path id="Trazado_781629" data-name="Trazado 781629" d="M178.362,171.888a11.69,11.69,0,0,1,3.642-.981,25.059,25.059,0,0,1,3.768-.178c2.577.049,5.15.335,7.73.261a47.573,47.573,0,0,0,8.3-1.2c2.789-.582,5.565-1.231,8.334-1.9l4.6-1.117c1.576-.381,3.146-.778,4.737-1.088.176-.035.288.22.1.279-2.729.829-5.522,1.47-8.29,2.161q-4.1,1.023-8.227,1.918a61.735,61.735,0,0,1-8.246,1.386,66.4,66.4,0,0,1-7.807-.153,31.168,31.168,0,0,0-4.247.061,15.616,15.616,0,0,0-2.124.35c-.7.167-1.368.409-2.044.644-.247.085-.472-.312-.216-.438" transform="translate(51.205 47.593)" fill="#d6d6d6"/>
        <path id="Trazado_781630" data-name="Trazado 781630" d="M174.148,168.01a11.941,11.941,0,0,1,2.007.124c.64.053,1.282.091,1.923.115q1.975.073,3.949-.03a43.608,43.608,0,0,0,7.834-1.129c1.283-.305,2.542-.694,3.818-1.025a21.2,21.2,0,0,1,3.9-.654c1.349-.091,2.7-.076,4.054-.109q1.975-.046,3.94-.278a40.771,40.771,0,0,0,4.384-.768q1.054-.245,2.1-.537c.725-.2,1.435-.465,2.169-.631.165-.037.332.209.149.3a12.858,12.858,0,0,1-1.849.664q-.965.3-1.942.545-1.912.475-3.862.768c-1.289.193-2.586.33-3.886.4-1.376.077-2.755.062-4.132.109a21,21,0,0,0-4.007.49c-1.283.3-2.541.694-3.815,1.027A44,44,0,0,1,178.6,168.81q-1.108-.027-2.213-.113a8.881,8.881,0,0,1-2.26-.319c-.2-.07-.212-.346.023-.367" transform="translate(49.977 46.849)" fill="#d6d6d6"/>
        <path id="Trazado_781631" data-name="Trazado 781631" d="M319.37,158.285a.323.323,0,0,1-.255-.125c-4.9-6.31-34.366-12.453-69.373-7.712-29.907,3.527-47.751-1.174-57.455-5.74-10.565-4.971-13.973-10.71-14.114-10.952a.322.322,0,0,1,.557-.322c.033.058,3.481,5.838,13.892,10.72,9.626,4.513,27.334,9.159,57.037,5.655,32.5-4.4,64.3.663,69.963,7.957a.321.321,0,0,1-.254.519" transform="translate(51.171 38.285)" fill="#252c3a"/>
        <path id="Trazado_781632" data-name="Trazado 781632" d="M166.831,119.939l-15.472,7.628a.7.7,0,0,1-.376.088l-8.061-.408a15.811,15.811,0,0,0-10.571,3.361l-7.448,5.856a2.86,2.86,0,0,0-.947,3.15l.484,1.46a1.32,1.32,0,0,0,1.842.763.7.7,0,0,1,.788,1.135.968.968,0,0,0-.115,1.294,7.565,7.565,0,0,0,4.57,2.856l.2.039a.7.7,0,0,0,.465-.07l.394-.211a.7.7,0,0,1,.9,1.012.7.7,0,0,0,.284,1.034l1.619.734a3.251,3.251,0,0,0,3.625-.65l4.489-4.44a.7.7,0,0,1,.422-.2,31.434,31.434,0,0,0,15-5.551l2.947-2.067a.707.707,0,0,1,.233-.106l13.438-7.358Z" transform="translate(35.566 34.454)" fill="#ffb57d"/>
        <path id="Trazado_781633" data-name="Trazado 781633" d="M147.6,128.96l11.845,13.267,37.432-14.591-8.826-11.361-9.429-11Z" transform="translate(42.401 30.242)" fill="#4adbd1"/>
        <path id="Trazado_781634" data-name="Trazado 781634" d="M146.733,142.276a5.915,5.915,0,0,1-5.812,4.523H123.014a2.964,2.964,0,0,1-2.874-3.676v0a9.575,9.575,0,0,1,5.537-6.543c2.994-1.258,7.527-2.13,13.873-.841,6.623,1.345,7.731,4.113,7.184,6.539" transform="translate(34.487 38.81)" fill="#516275"/>
        <path id="Trazado_781635" data-name="Trazado 781635" d="M121.089,140.957a.144.144,0,0,1-.081-.026.142.142,0,0,1-.036-.2c.05-.072,5.167-7.236,17.808-4.565a.143.143,0,1,1-.058.279c-12.447-2.629-17.466,4.377-17.516,4.447a.142.142,0,0,1-.117.062" transform="translate(34.744 38.945)" fill="#1c222d"/>
        <path id="Trazado_781636" data-name="Trazado 781636" d="M125.938,136.7a2.219,2.219,0,0,0-3.622,2.184Z" transform="translate(35.12 39.11)" fill="#1c222d"/>
        <path id="Trazado_781637" data-name="Trazado 781637" d="M138.118,145.541H122.987c.028,0,8.984-8.791,14.147-5.192,2.957,2.066,2.184,3.953.983,5.192" transform="translate(35.33 40.069)" fill="#1c222d"/>
        <path id="Trazado_781638" data-name="Trazado 781638" d="M136.094,136.061s6.771,1.559,4.923,3.317-7.39,2.528-7.264,5.417,19.975-7.278,19.975-7.278l-4.146-7.839a15.732,15.732,0,0,0-13.487,6.384" transform="translate(38.422 37.244)" fill="#ffb57d"/>
        <path id="Trazado_781639" data-name="Trazado 781639" d="M261.428,154.658l-.045.51-.14,1.524-.072.766-1.64,17.732-.793,8.568H240.971l-1.682-18.216-.5-5.4-.039-.433-.281-3.02-.107-1.161-.033-.363-.049-.51Z" transform="translate(68.45 44.428)" fill="#5573c6"/>
        <path id="Trazado_781640" data-name="Trazado 781640" d="M261.412,154.657l-.259,2.8-22.382,2.685-.04-.431-.387-4.184Z" transform="translate(68.468 44.428)" fill="#5573c6"/>
        <rect id="Rectángulo_366378" data-name="Rectángulo 366378" width="23.15" height="3.566" transform="translate(306.73 196.031)" fill="#fff"/>
        <rect id="Rectángulo_366379" data-name="Rectángulo 366379" width="25.279" height="3.566" transform="translate(305.488 197.553)" fill="#fff"/>
        <path id="Trazado_781641" data-name="Trazado 781641" d="M259.305,173.12l-.792,8.568H240.745l-1.682-18.216c3.727-1.7,7.085-2.441,8.038-.257,2.433,5.578-5.39,9.44,0,13.958,3.531,2.958,8.1-2.894,12.2-4.052" transform="translate(68.675 46.498)" fill="#5573c6"/>
        <path id="Trazado_781642" data-name="Trazado 781642" d="M10.579,78.313l-8.5,3.243C.941,81.989,0,81.5,0,80.446V71.721a2.761,2.761,0,0,1,2.079-2.432l8.5-2.156a1.247,1.247,0,0,1,1.658,1.246l0,7.636a2.682,2.682,0,0,1-1.659,2.3" transform="translate(0 19.27)" fill="#ddc4a6"/>
        <path id="Trazado_781643" data-name="Trazado 781643" d="M23.915,83.866,2.644,94.92C1.2,95.669,0,95.2,0,93.861v-19.1a3.623,3.623,0,0,1,2.647-3.165l21.286-5.856c.848-.233,1.522.39,1.52,1.386l-.015,14.15a3.169,3.169,0,0,1-1.523,2.593" transform="translate(0 18.87)" fill="#ddc4a6"/>
        <path id="Trazado_781644" data-name="Trazado 781644" d="M14.9,44.4l-6.512,1.26A1.159,1.159,0,0,1,6.9,44.586l-.085-6.23a1.7,1.7,0,0,1,1.462-1.588l6.537-1a1.135,1.135,0,0,1,1.385,1.1l.061,5.966A1.673,1.673,0,0,1,14.9,44.4" transform="translate(1.957 10.271)" fill="#80cec7"/>
        <path id="Trazado_781645" data-name="Trazado 781645" d="M27.057,50.913l-18.14,4.31a1.408,1.408,0,0,1-1.9-1.277L6.833,40.351A2.189,2.189,0,0,1,8.7,38.307L26.959,35.4a1.31,1.31,0,0,1,1.568,1.323L28.6,48.989a2.071,2.071,0,0,1-1.541,1.924" transform="translate(1.963 10.163)" fill="#80cec7"/>
        <path id="Trazado_781646" data-name="Trazado 781646" d="M138.915,27.164l-9.087,4.108a15.705,15.705,0,0,1-15.293-1.322h0a25.834,25.834,0,0,0-29.045,0A15.7,15.7,0,0,1,70.2,31.271l-9.087-4.108c-2.683,81.494,38.9,90.192,38.9,90.192s41.584-8.7,38.9-90.192" transform="translate(17.52 7.32)" fill="#373f51"/>
        <path id="Trazado_781647" data-name="Trazado 781647" d="M97.793,112.073c-3.477-1.364-10.3-4.942-16.976-13.582C73.544,89.075,64.723,70.948,64,38.076L63.884,32.5l5.235,1.927A19.5,19.5,0,0,0,86.8,32.243a22.035,22.035,0,0,1,24.771,0,19.5,19.5,0,0,0,17.677,2.182l5.235-1.927-.121,5.578c-.718,32.872-9.539,51-16.81,60.415-6.673,8.64-13.5,12.217-16.978,13.582l-1.388.545Z" transform="translate(18.352 8.168)" fill="#4adbd1"/>
        <path id="Trazado_781648" data-name="Trazado 781648" d="M98.306,107.686c-2.9-1.139-9.16-4.342-15.356-12.367-7.158-9.267-15.333-26.682-16.02-58.174A23.31,23.31,0,0,0,88.057,34.54a18.231,18.231,0,0,1,20.5,0,23.31,23.31,0,0,0,21.127,2.605c-.687,31.492-8.862,48.907-16.019,58.174-6.2,8.025-12.453,11.228-15.357,12.367" transform="translate(19.227 9.016)" fill="#5573c6"/>
        <path id="Trazado_781649" data-name="Trazado 781649" d="M86.22,53.284a7.149,7.149,0,0,1,7.4-7.313,7.97,7.97,0,0,1,7.331,7.313H103.8A11.053,11.053,0,0,0,93.625,42.968,9.917,9.917,0,0,0,83.371,53.219v.064Z" transform="translate(23.95 12.34)" fill="#fff"/>
        <path id="Trazado_781650" data-name="Trazado 781650" d="M110.167,60.154a16.925,16.925,0,0,0-3.621-9.75L86.9,50.475l-2.84.008L82,50.49a15.623,15.623,0,0,0-2.653,9.774c.5,8.76,7.752,15.782,16.2,15.748s14.992-7.1,14.627-15.859M96.128,62.829l.209,4.285-2.477.008-.214-4.285a3.065,3.065,0,0,1-1.673-2.567,2.847,2.847,0,0,1,.321-1.488,2.625,2.625,0,0,1,2.322-1.41,3,3,0,0,1,2.932,2.877,2.742,2.742,0,0,1-1.42,2.58" transform="translate(22.785 14.479)" fill="#fff"/>
      </g>
    </g>
  </g>
</svg>
