<svg xmlns="http://www.w3.org/2000/svg" xmlns:xlink="http://www.w3.org/1999/xlink" width="130.1" height="99.315" viewBox="0 0 130.1 99.315">
  <defs>
    <clipPath id="clip-path">
      <path id="Trazado_772907" data-name="Trazado 772907" d="M105.5,0,94.513,11.776v42.3a45.119,45.119,0,1,0,90.237,0v-42.3L175.39,0Z" transform="translate(-94.513)" fill="#4adbd1"/>
    </clipPath>
    <clipPath id="clip-path-2">
      <path id="Trazado_772908" data-name="Trazado 772908" d="M93.1,0l9.953,14.22h90.237L203.254,0Z" transform="translate(-93.103 0)" fill="#3cc7bd"/>
    </clipPath>
    <clipPath id="clip-path-3">
      <path id="Trazado_772909" data-name="Trazado 772909" d="M101.651,0a9.988,9.988,0,0,0-9.96,10.116v4.1h19.928v-4.1A9.989,9.989,0,0,0,101.651,0Z" transform="translate(-91.691)" fill="#2aa29a"/>
    </clipPath>
    <clipPath id="clip-path-4">
      <path id="Trazado_772910" data-name="Trazado 772910" d="M117.261,0a9.995,9.995,0,0,0-9.975,10.116v4.1h19.935v-4.1A9.988,9.988,0,0,0,117.261,0Z" transform="translate(-107.286)" fill="#2aa29a"/>
    </clipPath>
  </defs>
  <g id="Grupo_1034057" data-name="Grupo 1034057" transform="translate(-890.503 -5939.849)">
    <g id="Grupo_1031855" data-name="Grupo 1031855" transform="translate(890.503 5939.849)">
      <g id="Grupo_1031824" data-name="Grupo 1031824" transform="translate(19.935)">
        <g id="Grupo_1031823" data-name="Grupo 1031823" clip-path="url(#clip-path)">
          <rect id="Rectángulo_364431" data-name="Rectángulo 364431" width="90.237" height="99.315" transform="translate(0 0.003)" fill="#4adbd1"/>
        </g>
      </g>
      <g id="Grupo_1031826" data-name="Grupo 1031826" transform="translate(9.975 0.003)">
        <g id="Grupo_1031825" data-name="Grupo 1031825" clip-path="url(#clip-path-2)">
          <rect id="Rectángulo_364432" data-name="Rectángulo 364432" width="110.151" height="14.22" transform="translate(0 0)" fill="#3cc7bd"/>
        </g>
      </g>
      <g id="Grupo_1031828" data-name="Grupo 1031828">
        <g id="Grupo_1031827" data-name="Grupo 1031827" clip-path="url(#clip-path-3)">
          <rect id="Rectángulo_364433" data-name="Rectángulo 364433" width="19.928" height="14.22" transform="translate(0 0.003)" fill="#2aa29a"/>
        </g>
      </g>
      <g id="Grupo_1031830" data-name="Grupo 1031830" transform="translate(110.165)">
        <g id="Grupo_1031829" data-name="Grupo 1031829" clip-path="url(#clip-path-4)">
          <rect id="Rectángulo_364434" data-name="Rectángulo 364434" width="19.935" height="14.22" transform="translate(0 0.003)" fill="#2aa29a"/>
        </g>
      </g>
    </g>
    <path id="Trazado_782954" data-name="Trazado 782954" d="M25.988,23.541q0,5.186-2.329,8a8.049,8.049,0,0,1-6.565,2.813,8.092,8.092,0,0,1-6.609-2.83q-2.338-2.83-2.338-7.98V18.865q0-5.186,2.329-8a8.069,8.069,0,0,1,6.583-2.812,8.072,8.072,0,0,1,6.592,2.83q2.338,2.83,2.338,8Zm-5.924-5.432a9.128,9.128,0,0,0-.721-4.122,2.409,2.409,0,0,0-2.285-1.362,2.352,2.352,0,0,0-2.224,1.266,8.6,8.6,0,0,0-.747,3.832v6.539a9.2,9.2,0,0,0,.721,4.192,2.418,2.418,0,0,0,2.285,1.327,2.386,2.386,0,0,0,2.232-1.292,8.78,8.78,0,0,0,.738-4.052Zm14.414.615h2.795q3.322,0,3.322-3.252a2.812,2.812,0,0,0-.791-2.065,3,3,0,0,0-2.232-.8,3.211,3.211,0,0,0-2.048.686A2.092,2.092,0,0,0,34.654,15H28.73a6.064,6.064,0,0,1,1.125-3.6,7.429,7.429,0,0,1,3.12-2.47,10.668,10.668,0,0,1,4.386-.888,10.481,10.481,0,0,1,6.715,1.951A6.486,6.486,0,0,1,46.52,15.35a5.406,5.406,0,0,1-1.011,3.12,7.2,7.2,0,0,1-2.944,2.382,6.881,6.881,0,0,1,3.2,2.241,5.9,5.9,0,0,1,1.16,3.718,6.6,6.6,0,0,1-2.637,5.484,10.945,10.945,0,0,1-6.926,2.057,11.35,11.35,0,0,1-4.667-.958,7.312,7.312,0,0,1-3.261-2.654,6.9,6.9,0,0,1-1.107-3.858h5.959a2.667,2.667,0,0,0,.949,2.039,3.351,3.351,0,0,0,2.338.861,3.51,3.51,0,0,0,2.5-.87A2.908,2.908,0,0,0,41,26.688a3.4,3.4,0,0,0-.967-2.742,4.042,4.042,0,0,0-2.672-.809H34.479Z" transform="translate(928 5967)" fill="#fff"/>
  </g>
</svg>
