<svg xmlns="http://www.w3.org/2000/svg" xmlns:xlink="http://www.w3.org/1999/xlink" width="130.099" height="99.315" viewBox="0 0 130.099 99.315">
  <defs>
    <clipPath id="clip-path">
      <path id="Trazado_772902" data-name="Trazado 772902" d="M146.625,0l-11,11.776v42.3a45.122,45.122,0,1,0,90.244,0v-42.3L216.51,0Z" transform="translate(-135.626)" fill="#5573c6"/>
    </clipPath>
    <clipPath id="clip-path-2">
      <path id="Trazado_772903" data-name="Trazado 772903" d="M134.218,0l9.946,14.22h90.244L244.362,0Z" transform="translate(-134.218 0)" fill="#4262b9"/>
    </clipPath>
    <clipPath id="clip-path-3">
      <path id="Trazado_772904" data-name="Trazado 772904" d="M142.759,0a9.986,9.986,0,0,0-9.953,10.116v4.1h19.921v-4.1A9.989,9.989,0,0,0,142.759,0Z" transform="translate(-132.806)" fill="#2e437a"/>
    </clipPath>
    <clipPath id="clip-path-4">
      <path id="Trazado_772905" data-name="Trazado 772905" d="M158.361,0a9.983,9.983,0,0,0-9.96,10.116v4.1h19.935v-4.1A10,10,0,0,0,158.361,0Z" transform="translate(-148.401)" fill="#2e437a"/>
    </clipPath>
  </defs>
  <g id="Grupo_1034062" data-name="Grupo 1034062" transform="translate(-1201.504 -6363.172)">
    <g id="Grupo_1031856" data-name="Grupo 1031856" transform="translate(1201.504 6363.172)">
      <g id="Grupo_1031814" data-name="Grupo 1031814" transform="translate(19.927)">
        <g id="Grupo_1031813" data-name="Grupo 1031813" clip-path="url(#clip-path)">
          <rect id="Rectángulo_364426" data-name="Rectángulo 364426" width="90.244" height="99.315" transform="translate(0 0.003)" fill="#5573c6"/>
        </g>
      </g>
      <g id="Grupo_1031816" data-name="Grupo 1031816" transform="translate(9.981 0.003)">
        <g id="Grupo_1031815" data-name="Grupo 1031815" clip-path="url(#clip-path-2)">
          <rect id="Rectángulo_364427" data-name="Rectángulo 364427" width="110.144" height="14.22" transform="translate(0 0)" fill="#4262b9"/>
        </g>
      </g>
      <g id="Grupo_1031818" data-name="Grupo 1031818">
        <g id="Grupo_1031817" data-name="Grupo 1031817" clip-path="url(#clip-path-3)">
          <rect id="Rectángulo_364428" data-name="Rectángulo 364428" width="19.921" height="14.22" transform="translate(0 0.003)" fill="#2e437a"/>
        </g>
      </g>
      <g id="Grupo_1031820" data-name="Grupo 1031820" transform="translate(110.165)">
        <g id="Grupo_1031819" data-name="Grupo 1031819" clip-path="url(#clip-path-4)">
          <rect id="Rectángulo_364429" data-name="Rectángulo 364429" width="19.935" height="14.22" transform="translate(0 0.003)" fill="#2e437a"/>
        </g>
      </g>
    </g>
    <path id="Trazado_782959" data-name="Trazado 782959" d="M25.988,23.541q0,5.186-2.329,8a8.049,8.049,0,0,1-6.565,2.813,8.092,8.092,0,0,1-6.609-2.83q-2.338-2.83-2.338-7.98V18.865q0-5.186,2.329-8a8.069,8.069,0,0,1,6.583-2.812,8.072,8.072,0,0,1,6.592,2.83q2.338,2.83,2.338,8Zm-5.924-5.432a9.128,9.128,0,0,0-.721-4.122,2.409,2.409,0,0,0-2.285-1.362,2.352,2.352,0,0,0-2.224,1.266,8.6,8.6,0,0,0-.747,3.832v6.539a9.2,9.2,0,0,0,.721,4.192,2.418,2.418,0,0,0,2.285,1.327,2.386,2.386,0,0,0,2.232-1.292,8.78,8.78,0,0,0,.738-4.052Zm26.262-2.865a5.909,5.909,0,0,1-.923,3.287,6.721,6.721,0,0,1-2.54,2.285,7.4,7.4,0,0,1,2.9,2.452,6.328,6.328,0,0,1,1.072,3.683,6.7,6.7,0,0,1-2.364,5.414,9.818,9.818,0,0,1-6.513,1.986,10,10,0,0,1-6.574-2,6.651,6.651,0,0,1-2.408-5.405,6.407,6.407,0,0,1,1.055-3.639,7.172,7.172,0,0,1,2.988-2.5,6.759,6.759,0,0,1-2.566-2.285,5.867,5.867,0,0,1-.932-3.287,6.567,6.567,0,0,1,2.268-5.273,9.115,9.115,0,0,1,6.117-1.934,9.171,9.171,0,0,1,6.152,1.934A6.567,6.567,0,0,1,46.326,15.244ZM40.895,26.477a3.379,3.379,0,0,0-.817-2.435,2.846,2.846,0,0,0-2.153-.853,2.875,2.875,0,0,0-2.162.853,3.357,3.357,0,0,0-.826,2.435,3.386,3.386,0,0,0,.835,2.417,2.865,2.865,0,0,0,2.188.888,2.754,2.754,0,0,0,2.127-.879A3.447,3.447,0,0,0,40.895,26.477ZM37.906,12.607a2.189,2.189,0,0,0-1.819.782,3.4,3.4,0,0,0-.624,2.171,3.6,3.6,0,0,0,.633,2.215,2.183,2.183,0,0,0,1.863.844,2.094,2.094,0,0,0,1.819-.844,3.711,3.711,0,0,0,.606-2.215,3.4,3.4,0,0,0-.624-2.162A2.219,2.219,0,0,0,37.906,12.607Z" transform="translate(1239 6390)" fill="#fff"/>
  </g>
</svg>
