<svg id="Grupo_1033607" data-name="Grupo 1033607" xmlns="http://www.w3.org/2000/svg" xmlns:xlink="http://www.w3.org/1999/xlink" width="395.996" height="240.793" viewBox="0 0 395.996 240.793">
  <defs>
    <linearGradient id="linear-gradient" x1="0.5" x2="0.5" y2="1" gradientUnits="objectBoundingBox">
      <stop offset="0" stop-color="#3ab4b1"/>
      <stop offset="1" stop-color="#1a0f91"/>
    </linearGradient>
    <clipPath id="clip-path">
      <rect id="Rectángulo_366457" data-name="Rectángulo 366457" width="395.996" height="240.793" fill="none"/>
    </clipPath>
    <clipPath id="clip-path-2">
      <path id="Trazado_781858" data-name="Trazado 781858" d="M117.693,25.817c-24.858,24.166-8.742,51.042-34.2,64-18.427,9.38-32.3,1.59-52.077,10.32C12.544,108.472.04,133.4,0,159.035v.247a69.768,69.768,0,0,0,9.709,36.211c15.353,25.235,45.3,33.6,58.063,37.162,42.506,11.871,57.112-5.353,121.55-7.824a340.856,340.856,0,0,1,57.823,2.7c23.617,2.817,42.067,5.634,74.581-1.724,10.833-2.451,55.939-13.434,56.976-30.806.87-14.552-31.554-22.234-28.216-36.672,3.541-15.321,31.689-13.78,41.783-31.294,15.5-26.9-20.228-83.767-53.72-84.592-14.466-.356-25.54,9.813-35.528,19.983C292.134,73.511,282.541,84.6,271.259,82.05c-19.117-4.313-9.944-40.287-37.442-61.611-13.512-10.478-33.525-15.6-53.777-15.6-23.883,0-48.1,7.123-62.347,20.976" transform="translate(0 -4.841)" fill="none"/>
    </clipPath>
    <linearGradient id="linear-gradient-3" x1="0.012" y1="0.956" x2="0.014" y2="0.956" gradientUnits="objectBoundingBox">
      <stop offset="0" stop-color="#d6d7d8"/>
      <stop offset="1" stop-color="#f2f3f4"/>
    </linearGradient>
    <clipPath id="clip-path-4">
      <rect id="Rectángulo_366419" data-name="Rectángulo 366419" width="22.162" height="22.162" fill="none"/>
    </clipPath>
    <clipPath id="clip-path-5">
      <path id="Trazado_781869" data-name="Trazado 781869" d="M128.24,33.271l-.63-2.45a.173.173,0,0,0-.154-.13l-2.1-.169a9.164,9.164,0,0,0-1.789-2.379l.423-2.068a.173.173,0,0,0-.082-.183L121.727,24.6a.173.173,0,0,0-.2.017l-1.607,1.367a9.182,9.182,0,0,0-2.948-.419l-1.162-1.759a.173.173,0,0,0-.188-.072l-2.45.631a.173.173,0,0,0-.13.153l-.169,2.1a9.2,9.2,0,0,0-2.38,1.789l-2.067-.422a.173.173,0,0,0-.183.081l-1.287,2.179a.173.173,0,0,0,.017.2l1.367,1.607a9.2,9.2,0,0,0-.419,2.948l-1.759,1.162a.173.173,0,0,0-.072.188l.631,2.451a.172.172,0,0,0,.153.129l2.1.169a9.18,9.18,0,0,0,1.789,2.38l-.423,2.067a.176.176,0,0,0,.082.184l2.179,1.287a.175.175,0,0,0,.2-.017l1.607-1.367a9.2,9.2,0,0,0,2.948.419l1.162,1.759a.173.173,0,0,0,.188.072l2.451-.63a.173.173,0,0,0,.129-.154l.169-2.1a9.179,9.179,0,0,0,2.38-1.789l2.067.423a.175.175,0,0,0,.184-.082l1.287-2.179a.174.174,0,0,0-.017-.2l-1.367-1.607a9.2,9.2,0,0,0,.419-2.948l1.759-1.162a.173.173,0,0,0,.072-.188m-8.8.3a2.6,2.6,0,1,1-3.52-1.037,2.6,2.6,0,0,1,3.52,1.037m-.694,7.541a6.454,6.454,0,0,1-3.216-12.5c.114-.029.228-.055.343-.078h.007a6.528,6.528,0,0,1,.864-.113l.145-.007.027.7a5.768,5.768,0,0,0-4.612,2.625c-.043.066-.085.133-.125.2a5.728,5.728,0,0,0-.8,2.919,5.759,5.759,0,1,0,9.81-4.084l.489-.5a6.454,6.454,0,0,1-2.931,10.84" transform="translate(-106.083 -23.732)" fill="none"/>
    </clipPath>
    <linearGradient id="linear-gradient-4" x1="-3.426" y1="10.086" x2="-3.393" y2="10.086" xlink:href="#linear-gradient-3"/>
    <clipPath id="clip-path-6">
      <path id="Trazado_781870" data-name="Trazado 781870" d="M119.128,39.353a1.9,1.9,0,1,0,.758-2.576,1.9,1.9,0,0,0-.758,2.576" transform="translate(-118.896 -36.545)" fill="none"/>
    </clipPath>
    <linearGradient id="linear-gradient-5" x1="-19.587" y1="49.55" x2="-19.422" y2="49.55" xlink:href="#linear-gradient-3"/>
    <clipPath id="clip-path-7">
      <rect id="Rectángulo_366422" data-name="Rectángulo 366422" width="7.321" height="7.321" fill="none"/>
    </clipPath>
    <clipPath id="clip-path-8">
      <path id="Trazado_781871" data-name="Trazado 781871" d="M139.32,23.748l-.208-.81a.058.058,0,0,0-.051-.043l-.694-.056a3.028,3.028,0,0,0-.591-.786l.14-.682a.056.056,0,0,0-.027-.061l-.72-.426a.057.057,0,0,0-.066.006l-.531.452a3.034,3.034,0,0,0-.974-.139l-.384-.58a.057.057,0,0,0-.062-.024l-.81.209a.056.056,0,0,0-.042.051l-.056.694a3.032,3.032,0,0,0-.786.591L132.775,22a.057.057,0,0,0-.061.027l-.425.72a.056.056,0,0,0,.006.066l.451.531a3.03,3.03,0,0,0-.138.973l-.581.384a.057.057,0,0,0-.024.062l.208.809a.058.058,0,0,0,.051.043l.694.056a3.028,3.028,0,0,0,.591.786l-.14.683a.057.057,0,0,0,.027.061l.719.425a.057.057,0,0,0,.066-.006l.531-.451a3.051,3.051,0,0,0,.974.138l.383.581a.058.058,0,0,0,.062.024l.81-.208a.056.056,0,0,0,.042-.051l.056-.694a3.033,3.033,0,0,0,.786-.591l.683.14a.058.058,0,0,0,.061-.027l.425-.72a.057.057,0,0,0-.006-.067l-.451-.53a3.037,3.037,0,0,0,.138-.974l.581-.384a.055.055,0,0,0,.024-.062m-2.906.1a.857.857,0,1,1-1.163-.343.858.858,0,0,1,1.163.343m-.229,2.491a2.132,2.132,0,0,1-1.062-4.129c.037-.01.075-.019.113-.027h0a2.113,2.113,0,0,1,.285-.037l.048,0,.009.23a1.952,1.952,0,0,0-.4.059,1.893,1.893,0,0,0-1.123.808c-.014.022-.028.044-.041.067a1.9,1.9,0,0,0,2.111,2.81,1.9,1.9,0,0,0,.864-3.195l.161-.164a2.132,2.132,0,0,1-.968,3.581" transform="translate(-132.001 -20.597)" fill="none"/>
    </clipPath>
    <linearGradient id="linear-gradient-6" x1="-12.905" y1="30.838" x2="-12.808" y2="30.838" xlink:href="#linear-gradient-3"/>
    <clipPath id="clip-path-9">
      <path id="Trazado_781872" data-name="Trazado 781872" d="M136.31,25.757a.628.628,0,1,0,.251-.851.629.629,0,0,0-.251.851" transform="translate(-136.233 -24.829)" fill="none"/>
    </clipPath>
    <linearGradient id="linear-gradient-7" x1="-68.089" y1="155.724" x2="-67.589" y2="155.724" xlink:href="#linear-gradient-3"/>
    <clipPath id="clip-path-10">
      <path id="Trazado_781876" data-name="Trazado 781876" d="M55.6,130.591a9.2,9.2,0,0,0,18.4,0,1.541,1.541,0,1,0-3.082,0,6.119,6.119,0,1,1-6.119-6.119,1.541,1.541,0,0,0,0-3.082,9.212,9.212,0,0,0-9.2,9.2" transform="translate(-55.595 -121.389)" fill="none"/>
    </clipPath>
    <linearGradient id="linear-gradient-8" x1="-2.165" y1="8.357" x2="-2.126" y2="8.357" xlink:href="#linear-gradient-3"/>
    <clipPath id="clip-path-12">
      <rect id="Rectángulo_366426" data-name="Rectángulo 366426" width="10.48" height="10.965" fill="none"/>
    </clipPath>
    <clipPath id="clip-path-13">
      <path id="Trazado_781879" data-name="Trazado 781879" d="M181.927,60.281c0,2.894-2.346,6.018-5.239,6.018s-5.24-3.125-5.24-6.018a5.248,5.248,0,0,1,10.48,0" transform="translate(-171.447 -55.335)" fill="none"/>
    </clipPath>
    <linearGradient id="linear-gradient-9" x1="-11.724" y1="18.344" x2="-11.656" y2="18.344" xlink:href="#linear-gradient-3"/>
    <clipPath id="clip-path-14">
      <rect id="Rectángulo_366428" data-name="Rectángulo 366428" width="20.203" height="9.47" fill="none"/>
    </clipPath>
    <clipPath id="clip-path-15">
      <path id="Trazado_781880" data-name="Trazado 781880" d="M168.251,82.436h12.791a3.1,3.1,0,0,0,2.949-2.153l.688-2.151a3.093,3.093,0,0,0-1.868-3.848c-5.205-1.9-10.588-1.659-16.1.176a3.084,3.084,0,0,0-1.976,3.737l.53,1.954a3.1,3.1,0,0,0,2.988,2.285" transform="translate(-164.624 -72.966)" fill="none"/>
    </clipPath>
    <linearGradient id="linear-gradient-10" x1="-5.636" y1="18.806" x2="-5.602" y2="18.806" xlink:href="#linear-gradient-3"/>
    <clipPath id="clip-path-16">
      <path id="Trazado_781883" data-name="Trazado 781883" d="M403.3,0a7.7,7.7,0,0,0-5.97,2.733c-38.885,50.932-57.724,136.639-62,158.248-.388,1.962,2.24,3.284,4.172,2.044C439.845,98.608,415.284,26.247,408.388,3c-.595-2-2.662-2.978-4.928-3Z" transform="translate(-335.298)" fill="none"/>
    </clipPath>
    <linearGradient id="linear-gradient-11" x1="-2.287" y1="1.466" x2="-2.281" y2="1.466" gradientUnits="objectBoundingBox">
      <stop offset="0" stop-color="#4adbd1"/>
      <stop offset="1" stop-color="#4adbd1"/>
    </linearGradient>
    <clipPath id="clip-path-18">
      <path id="Trazado_781885" data-name="Trazado 781885" d="M497.972,128.077c-4.658,6.409-15.841,19.638-40.024,39.274-28.637,23.254-30.916,55.535-30.743,67.011a3,3,0,0,0,3.844,2.948c65.36-24.7,70.171-88.383,70.056-107.923a1.943,1.943,0,0,0-1.877-1.967,1.522,1.522,0,0,0-1.257.656" transform="translate(-427.197 -127.421)" fill="none"/>
    </clipPath>
    <linearGradient id="linear-gradient-12" x1="-4.124" y1="1.352" x2="-4.115" y2="1.352" xlink:href="#linear-gradient-11"/>
    <clipPath id="clip-path-20">
      <path id="Trazado_781887" data-name="Trazado 781887" d="M100.345,94.6a11.7,11.7,0,0,0-3.437,8.562l3.451,145.951a4.658,4.658,0,0,0,4.647,4.642H356.3a4.658,4.658,0,0,0,4.647-4.642l2.091-144.411a8.092,8.092,0,0,0-8.522-7.164L108.924,91.188c-.1,0-.2,0-.3,0a11.721,11.721,0,0,0-8.274,3.419" transform="translate(-96.904 -91.184)" fill="none"/>
    </clipPath>
    <linearGradient id="linear-gradient-13" x1="-0.166" y1="0.895" x2="-0.164" y2="0.895" gradientUnits="objectBoundingBox">
      <stop offset="0" stop-color="#2a313d"/>
      <stop offset="1" stop-color="#373f51"/>
    </linearGradient>
    <clipPath id="clip-path-21">
      <path id="Trazado_781888" data-name="Trazado 781888" d="M105.658,101.27a8.22,8.22,0,0,0-2.417,6.023l3.5,139.547a4.409,4.409,0,0,0,4.4,4.4H352.031a4.41,4.41,0,0,0,4.4-4.4l1.973-131.1c-.232-7.889-7.149-10.725-11.342-10.557L111.685,98.871c-.073,0-.146,0-.219,0a8.221,8.221,0,0,0-5.808,2.4" transform="translate(-103.238 -98.868)" fill="none"/>
    </clipPath>
    <linearGradient id="linear-gradient-14" x1="-0.519" y1="0.836" x2="-0.515" y2="0.836" gradientUnits="objectBoundingBox">
      <stop offset="0" stop-color="#dee4f0"/>
      <stop offset="1" stop-color="#d2e1f1"/>
    </linearGradient>
    <clipPath id="clip-path-23">
      <rect id="Rectángulo_366438" data-name="Rectángulo 366438" width="296.262" height="12.689" rx="1.867" fill="none"/>
    </clipPath>
    <linearGradient id="linear-gradient-15" x1="-5.39" y1="0.54" x2="-5.369" y2="0.54" xlink:href="#linear-gradient-13"/>
    <clipPath id="clip-path-25">
      <path id="Trazado_781935" data-name="Trazado 781935" d="M373.838,273.939c-2.178,2.656-18.291,30.875-18.322,30.886l-.816,1.506a17.782,17.782,0,0,0,8.785-5l-1.548-1.621a.891.891,0,0,1,.07-1.3c3.878-3.266,15.186-12.219,14.314-18.243l8.8,5.126-5.284-11.431-4.5-.536a1.726,1.726,0,0,0-.2-.011,1.686,1.686,0,0,0-1.3.618" transform="translate(-354.701 -273.321)" fill="none"/>
    </clipPath>
    <linearGradient id="linear-gradient-17" x1="-5.658" y1="1.163" x2="-5.641" y2="1.163" gradientUnits="objectBoundingBox">
      <stop offset="0" stop-color="#ff928e"/>
      <stop offset="1" stop-color="#feb3b1"/>
    </linearGradient>
    <clipPath id="clip-path-26">
      <path id="Trazado_781936" data-name="Trazado 781936" d="M355.54,316.174a.344.344,0,0,1-.476-.454l.118-.24a8.908,8.908,0,0,0-1.863,3.406.28.28,0,0,0,.35.33c2.477-.736,7.844-4.5,9.47-5.666a1,1,0,0,0,.378-1.16,2.277,2.277,0,0,0-1.322-1.2c-1.626,2-5,4.048-6.657,4.984" transform="translate(-353.314 -311.19)" fill="none"/>
    </clipPath>
    <linearGradient id="linear-gradient-18" x1="-19.835" y1="1.701" x2="-19.778" y2="1.701" xlink:href="#linear-gradient-11"/>
    <clipPath id="clip-path-27">
      <path id="Trazado_781937" data-name="Trazado 781937" d="M377.447,278.16a1.686,1.686,0,0,0-1.354.9,102.562,102.562,0,0,0-9.22,28.095c-.027.017-2.444,5.842-2.472,5.859l-.494,1.64a17.787,17.787,0,0,0,7.592-6.671l-1.844-1.273a.89.89,0,0,1-.194-1.285c3.136-3.983,12.4-15.039,10.326-20.762l9.658,3.239-7.488-10.124Z" transform="translate(-363.908 -277.775)" fill="none"/>
    </clipPath>
    <linearGradient id="linear-gradient-19" x1="-7.947" y1="1.066" x2="-7.925" y2="1.066" xlink:href="#linear-gradient-17"/>
    <clipPath id="clip-path-28">
      <path id="Trazado_781938" data-name="Trazado 781938" d="M364.7,325.21a.344.344,0,0,1-.558-.348l.068-.259a8.925,8.925,0,0,0-1.135,3.714.281.281,0,0,0,.411.252c2.276-1.224,6.77-6,8.128-7.466a1.008,1.008,0,0,0,.136-1.213,2.282,2.282,0,0,0-1.539-.907c-1.187,2.29-4.078,4.977-5.511,6.228" transform="translate(-363.073 -318.982)" fill="none"/>
    </clipPath>
    <linearGradient id="linear-gradient-20" x1="-20.148" y1="1.065" x2="-20.092" y2="1.065" xlink:href="#linear-gradient-11"/>
    <clipPath id="clip-path-29">
      <path id="Trazado_781939" data-name="Trazado 781939" d="M389.534,274.931c-1.85.717-11.039-.012-11.039-.012,7.265,3.016,7.884,4.426,8.754,9.972,0,0,6.268,3.811,18.984,2.76,4.273-.353,5.737-1.311,5.4-4.081s-4.417-8.842-4.417-8.842-5.5-.179-10.4-.179c-3.41,0-6.526.087-7.285.382" transform="translate(-378.495 -274.549)" fill="none"/>
    </clipPath>
    <linearGradient id="linear-gradient-21" x1="-7.904" y1="1.621" x2="-7.883" y2="1.621" xlink:href="#linear-gradient-13"/>
    <clipPath id="clip-path-30">
      <path id="Trazado_781940" data-name="Trazado 781940" d="M406.869,215.438c-3.01,2.235-2.76,5.2-5.99,6.353-2.063.739-3.767.1-5.436-.532s-3.317-1.275-5.254-.525c-3.705,1.437-5.915,6.954-4.463,8.986.75,1.051,2.325.952,4.055.851.545-.032,1.105-.062,1.66-.059,10.881.09,14.8,13.972,21.822,13.78,7.921-.218,18.375-18.284,12.285-26.359-2.261-3-6.819-4.642-11.169-4.642a12.721,12.721,0,0,0-7.51,2.146" transform="translate(-385.276 -213.292)" fill="none"/>
    </clipPath>
    <clipPath id="clip-path-31">
      <path id="Trazado_781941" data-name="Trazado 781941" d="M394.8,243.815a78.984,78.984,0,0,0-3.14,7.908,6.36,6.36,0,0,0,1.077,5.725,93.119,93.119,0,0,0,7.095,7.526l9.949-1.028c-.164-2.532-4.847-8.718-4.847-8.718a54.115,54.115,0,0,1,5.444,7.516l4.629-1.441c-4.121-11.532-14.611-18.34-14.611-18.34h-.089c-.7,0-5.262.032-5.507.853" transform="translate(-391.396 -242.962)" fill="none"/>
    </clipPath>
    <linearGradient id="linear-gradient-22" x1="-8.5" y1="2.212" x2="-8.478" y2="2.212" xlink:href="#linear-gradient-11"/>
    <clipPath id="clip-path-32">
      <path id="Trazado_781942" data-name="Trazado 781942" d="M408.541,270.491l-2.753.745c-2.753.746-7.562,0-7.562,0l-4.126-1.111-3.572,3.887,4.161.305s18.052.245,18.871-.113a10.972,10.972,0,0,0,1.571-.978,1.663,1.663,0,0,0,.608-1.911l-.977-2.761Z" transform="translate(-390.528 -268.554)" fill="none"/>
    </clipPath>
    <linearGradient id="linear-gradient-23" x1="-22.033" y1="2.235" x2="-21.977" y2="2.235" xlink:href="#linear-gradient-17"/>
    <clipPath id="clip-path-33">
      <path id="Trazado_781943" data-name="Trazado 781943" d="M395.952,234.254c-.392.209-1.582,1.671-1.489,2.105l2.143,4.452a.872.872,0,0,0,.113.294c.565.868,4.228.827,4.465-.627l-3.583-6.663c-.207-.067-.367-.126-.488-.179Zm1.16-.618.264-.14c.229-.122-.036-.2-.279-.2-.279,0-.531.1.016.337" transform="translate(-394.458 -233.299)" fill="none"/>
    </clipPath>
    <linearGradient id="linear-gradient-24" x1="-30.841" y1="7.204" x2="-30.763" y2="7.204" xlink:href="#linear-gradient-17"/>
    <clipPath id="clip-path-34">
      <path id="Trazado_781944" data-name="Trazado 781944" d="M388.709,231.2a7.883,7.883,0,0,0,1.365,5.113c1.769,2.862,3.531,2.733,4.425,1.712a6.287,6.287,0,0,0,1.48-5.575c-.3-1.727-2.67-2.872-4.636-2.872-1.284,0-2.393.488-2.634,1.622" transform="translate(-388.67 -229.574)" fill="none"/>
    </clipPath>
    <linearGradient id="linear-gradient-25" x1="-21.917" y1="6.222" x2="-21.86" y2="6.222" xlink:href="#linear-gradient-17"/>
    <clipPath id="clip-path-35">
      <path id="Trazado_781945" data-name="Trazado 781945" d="M386.991,230.631c-.31,2.637,1.334,1.731,1.334,1.731l-.037-1.133c2.2-3.28,5.064.483,5.064.483l.242-.138s-.306-1.227.54-1.121,1.547,1.657,1.547,1.657,1.835.367,1.47-1.88-2.257-3.273-5.494-4.173a4.286,4.286,0,0,0-1.152-.171c-2.361,0-3.244,2.449-3.514,4.745" transform="translate(-386.952 -225.886)" fill="#12263f"/>
    </clipPath>
    <clipPath id="clip-path-36">
      <path id="Trazado_781946" data-name="Trazado 781946" d="M396.389,230.612c-1.351.4.133,2.325.133,2.325l1.079.412c.081-.783.13-2.783-.917-2.783a1.045,1.045,0,0,0-.3.047" transform="translate(-395.821 -230.565)" fill="none"/>
    </clipPath>
    <linearGradient id="linear-gradient-26" x1="-72.918" y1="19.695" x2="-72.733" y2="19.695" xlink:href="#linear-gradient-17"/>
    <clipPath id="clip-path-37">
      <path id="Trazado_781947" data-name="Trazado 781947" d="M383.022,276.975a.736.736,0,0,0,.735.736l16.431.018h.038a.735.735,0,0,0-.037-1.47l-16.431-.018h-.013a.732.732,0,0,0-.724.735" transform="translate(-383.022 -276.24)" fill="url(#linear-gradient)"/>
    </clipPath>
    <clipPath id="clip-path-38">
      <path id="Trazado_781948" data-name="Trazado 781948" d="M363,257.5a1.093,1.093,0,0,0-1.016,1.495l4.905,12.412a1.584,1.584,0,0,0,1.474,1h17.005l-6.326-13.414a2.609,2.609,0,0,0-2.359-1.5Z" transform="translate(-361.911 -257.499)" fill="url(#linear-gradient)"/>
    </clipPath>
    <clipPath id="clip-path-40">
      <rect id="Rectángulo_366455" data-name="Rectángulo 366455" width="39.331" height="27.344" fill="none"/>
    </clipPath>
    <clipPath id="clip-path-41">
      <path id="Trazado_782043" data-name="Trazado 782043" d="M179.552,279.034l-7.882,9.605a.331.331,0,0,0,.256.541h1.515l-5.9,11.309-3.931-7.7-.38-.921a3.019,3.019,0,0,0-1.061-1.337c-1.806-1.248-3.638.4-3.638.4-1.478,1.329-6.37,8.648-8.239,11.476-.546-.8-1.129-1.77-1.772-2.922-2.356-4.221-3.538-4.624-3.538-4.624a5.8,5.8,0,0,0-3.775,1.855c1.127.4,4.877,5.462,6.711,8.011a3.472,3.472,0,0,0,2.819,1.444h1.015a2.768,2.768,0,0,0,2.371-1.339l.152-.252L160.649,295l4.5,10.005a1.913,1.913,0,0,0,1.746,1.129h2.691a.983.983,0,0,0,.859-.506l.013-.023a1.124,1.124,0,0,0,.082-.15l7.337-15.889,1.056.121a.94.94,0,0,0,1.044-.877l.554-9.393a.556.556,0,0,0-.985-.386" transform="translate(-141.206 -278.829)" fill="none"/>
    </clipPath>
    <linearGradient id="linear-gradient-29" x1="-2.361" y1="1.077" x2="-2.344" y2="1.077" xlink:href="#linear-gradient-3"/>
  </defs>
  <g id="Grupo_1033606" data-name="Grupo 1033606" clip-path="url(#clip-path)">
    <g id="Grupo_1033522" data-name="Grupo 1033522" transform="translate(0 3.469)">
      <g id="Grupo_1033521" data-name="Grupo 1033521" clip-path="url(#clip-path-2)">
        <rect id="Rectángulo_366416" data-name="Rectángulo 366416" width="418.018" height="257.569" transform="translate(-10.641 0.473) rotate(-2.547)" fill="url(#linear-gradient-3)"/>
      </g>
    </g>
    <g id="Grupo_1033538" data-name="Grupo 1033538">
      <g id="Grupo_1033537" data-name="Grupo 1033537" clip-path="url(#clip-path)">
        <path id="Trazado_781859" data-name="Trazado 781859" d="M67.928,40.822H50.209A6.151,6.151,0,0,0,44.881,43.9L36.022,59.243a6.152,6.152,0,0,0,0,6.153L44.881,80.74a6.151,6.151,0,0,0,5.328,3.077H67.928a6.151,6.151,0,0,0,5.328-3.077L82.115,65.4a6.152,6.152,0,0,0,0-6.153L73.256,43.9a6.151,6.151,0,0,0-5.328-3.077" transform="translate(-9.973 -11.567)" fill="#5573c6"/>
        <path id="Trazado_781860" data-name="Trazado 781860" d="M51.374,82.036a3.218,3.218,0,0,1-2.778-1.6L39.737,65.087a3.217,3.217,0,0,1,0-3.208L48.6,46.535a3.218,3.218,0,0,1,2.778-1.6H69.093a3.216,3.216,0,0,1,2.778,1.6L80.73,61.88a3.215,3.215,0,0,1,0,3.208L71.871,80.432a3.218,3.218,0,0,1-2.778,1.6Z" transform="translate(-11.138 -12.731)" fill="#85a0dd"/>
        <path id="Trazado_781861" data-name="Trazado 781861" d="M178.176,104.952H160.457a6.151,6.151,0,0,0-5.328,3.077l-8.859,15.344a6.152,6.152,0,0,0,0,6.153l8.859,15.344a6.151,6.151,0,0,0,5.328,3.077h17.718a6.151,6.151,0,0,0,5.328-3.077l8.859-15.344a6.152,6.152,0,0,0,0-6.153L183.5,108.029a6.151,6.151,0,0,0-5.328-3.077" transform="translate(-41.213 -29.739)" fill="#5573c6"/>
        <path id="Trazado_781862" data-name="Trazado 781862" d="M161.622,146.166a3.218,3.218,0,0,1-2.778-1.6l-8.859-15.345a3.217,3.217,0,0,1,0-3.208l8.859-15.345a3.218,3.218,0,0,1,2.778-1.6h17.718a3.217,3.217,0,0,1,2.778,1.6l8.86,15.345a3.215,3.215,0,0,1,0,3.208l-8.858,15.345a3.219,3.219,0,0,1-2.778,1.6Z" transform="translate(-42.377 -30.903)" fill="#85a0dd"/>
        <path id="Trazado_781863" data-name="Trazado 781863" d="M123.6,72.2H105.879a6.152,6.152,0,0,0-5.328,3.077L91.692,90.625a6.152,6.152,0,0,0,0,6.153l8.859,15.344a6.151,6.151,0,0,0,5.328,3.077H123.6a6.151,6.151,0,0,0,5.328-3.077l8.859-15.344a6.152,6.152,0,0,0,0-6.153l-8.859-15.344A6.152,6.152,0,0,0,123.6,72.2" transform="translate(-25.748 -20.459)" fill="#5573c6"/>
        <path id="Trazado_781864" data-name="Trazado 781864" d="M107.044,113.418a3.217,3.217,0,0,1-2.778-1.6L95.407,96.47a3.215,3.215,0,0,1,0-3.207l8.859-15.345a3.218,3.218,0,0,1,2.778-1.6h17.718a3.216,3.216,0,0,1,2.778,1.6L136.4,93.263a3.215,3.215,0,0,1,0,3.207l-8.858,15.346a3.217,3.217,0,0,1-2.778,1.6Z" transform="translate(-26.912 -21.624)" fill="#85a0dd"/>
        <path id="Trazado_781865" data-name="Trazado 781865" d="M123.6,137.426H105.879a6.151,6.151,0,0,0-5.328,3.077l-8.859,15.344a6.152,6.152,0,0,0,0,6.153l8.859,15.344a6.151,6.151,0,0,0,5.328,3.077H123.6a6.151,6.151,0,0,0,5.328-3.077L137.785,162a6.152,6.152,0,0,0,0-6.153L128.926,140.5a6.151,6.151,0,0,0-5.328-3.077" transform="translate(-25.748 -38.94)" fill="#5573c6"/>
        <path id="Trazado_781866" data-name="Trazado 781866" d="M107.044,178.64a3.218,3.218,0,0,1-2.778-1.6l-8.859-15.345a3.217,3.217,0,0,1,0-3.208l8.859-15.345a3.218,3.218,0,0,1,2.778-1.6h17.718a3.216,3.216,0,0,1,2.778,1.6l8.859,15.345a3.217,3.217,0,0,1,0,3.208l-8.858,15.345a3.218,3.218,0,0,1-2.778,1.6Z" transform="translate(-26.912 -40.105)" fill="#85a0dd"/>
        <path id="Trazado_781867" data-name="Trazado 781867" d="M123.6,6.983H105.879a6.151,6.151,0,0,0-5.328,3.077L91.692,25.4a6.152,6.152,0,0,0,0,6.153L100.551,46.9a6.151,6.151,0,0,0,5.328,3.077H123.6a6.151,6.151,0,0,0,5.328-3.077l8.859-15.344a6.152,6.152,0,0,0,0-6.153L128.926,10.06A6.151,6.151,0,0,0,123.6,6.983" transform="translate(-25.748 -1.979)" fill="#5573c6"/>
        <path id="Trazado_781868" data-name="Trazado 781868" d="M107.044,48.2a3.218,3.218,0,0,1-2.778-1.6L95.407,31.248a3.217,3.217,0,0,1,0-3.208L104.266,12.7a3.218,3.218,0,0,1,2.778-1.6h17.718a3.216,3.216,0,0,1,2.778,1.6L136.4,28.041a3.217,3.217,0,0,1,0,3.208l-8.858,15.345a3.218,3.218,0,0,1-2.778,1.6Z" transform="translate(-26.912 -3.143)" fill="#85a0dd"/>
        <g id="Grupo_1033529" data-name="Grupo 1033529" transform="translate(76.024 17.007)" opacity="0.68">
          <g id="Grupo_1033528" data-name="Grupo 1033528">
            <g id="Grupo_1033527" data-name="Grupo 1033527" clip-path="url(#clip-path-4)">
              <g id="Grupo_1033524" data-name="Grupo 1033524" transform="translate(0 0)">
                <g id="Grupo_1033523" data-name="Grupo 1033523" clip-path="url(#clip-path-5)">
                  <rect id="Rectángulo_366417" data-name="Rectángulo 366417" width="22.188" height="22.188" transform="translate(-0.013 -0.013)" fill="url(#linear-gradient-4)"/>
                </g>
              </g>
              <g id="Grupo_1033526" data-name="Grupo 1033526" transform="translate(9.183 9.183)">
                <g id="Grupo_1033525" data-name="Grupo 1033525" clip-path="url(#clip-path-6)">
                  <rect id="Rectángulo_366418" data-name="Rectángulo 366418" width="4.336" height="4.336" transform="translate(-0.27 -0.27)" fill="url(#linear-gradient-5)"/>
                </g>
              </g>
            </g>
          </g>
        </g>
        <g id="Grupo_1033536" data-name="Grupo 1033536" transform="translate(94.598 14.761)" opacity="0.68">
          <g id="Grupo_1033535" data-name="Grupo 1033535">
            <g id="Grupo_1033534" data-name="Grupo 1033534" clip-path="url(#clip-path-7)">
              <g id="Grupo_1033531" data-name="Grupo 1033531" transform="translate(0 0)">
                <g id="Grupo_1033530" data-name="Grupo 1033530" clip-path="url(#clip-path-8)">
                  <rect id="Rectángulo_366420" data-name="Rectángulo 366420" width="7.33" height="7.33" transform="translate(-0.004 -0.004)" fill="url(#linear-gradient-6)"/>
                </g>
              </g>
              <g id="Grupo_1033533" data-name="Grupo 1033533" transform="translate(3.033 3.033)">
                <g id="Grupo_1033532" data-name="Grupo 1033532" clip-path="url(#clip-path-9)">
                  <rect id="Rectángulo_366421" data-name="Rectángulo 366421" width="1.433" height="1.433" transform="translate(-0.089 -0.089)" fill="url(#linear-gradient-7)"/>
                </g>
              </g>
            </g>
          </g>
        </g>
        <path id="Trazado_781873" data-name="Trazado 781873" d="M67.928,104.952H50.209a6.151,6.151,0,0,0-5.328,3.077l-8.859,15.344a6.152,6.152,0,0,0,0,6.153l8.859,15.344a6.151,6.151,0,0,0,5.328,3.077H67.928a6.151,6.151,0,0,0,5.328-3.077l8.859-15.344a6.152,6.152,0,0,0,0-6.153l-8.859-15.344a6.151,6.151,0,0,0-5.328-3.077" transform="translate(-9.973 -29.739)" fill="#5573c6"/>
        <path id="Trazado_781874" data-name="Trazado 781874" d="M51.374,146.166a3.218,3.218,0,0,1-2.778-1.6l-8.859-15.345a3.217,3.217,0,0,1,0-3.208L48.6,110.665a3.218,3.218,0,0,1,2.778-1.6H69.093a3.216,3.216,0,0,1,2.778,1.6l8.86,15.345a3.215,3.215,0,0,1,0,3.208l-8.858,15.345a3.218,3.218,0,0,1-2.778,1.6Z" transform="translate(-11.138 -30.903)" fill="#85a0dd"/>
        <path id="Trazado_781875" data-name="Trazado 781875" d="M74.994,129.939A10.849,10.849,0,1,1,64.144,119.09a10.849,10.849,0,0,1,10.849,10.849" transform="translate(-15.101 -33.745)" fill="#bfcce8"/>
      </g>
    </g>
    <g id="Grupo_1033540" data-name="Grupo 1033540" transform="translate(39.842 86.993)">
      <g id="Grupo_1033539" data-name="Grupo 1033539" clip-path="url(#clip-path-10)">
        <rect id="Rectángulo_366424" data-name="Rectángulo 366424" width="18.403" height="18.403" transform="translate(0 0)" fill="url(#linear-gradient-8)"/>
      </g>
    </g>
    <g id="Grupo_1033552" data-name="Grupo 1033552">
      <g id="Grupo_1033551" data-name="Grupo 1033551" clip-path="url(#clip-path)">
        <path id="Trazado_781877" data-name="Trazado 781877" d="M178.176,40.822H160.457a6.151,6.151,0,0,0-5.328,3.077L146.27,59.243a6.152,6.152,0,0,0,0,6.153l8.859,15.344a6.151,6.151,0,0,0,5.328,3.077h17.718A6.151,6.151,0,0,0,183.5,80.74L192.363,65.4a6.152,6.152,0,0,0,0-6.153L183.5,43.9a6.151,6.151,0,0,0-5.328-3.077" transform="translate(-41.213 -11.567)" fill="#5573c6"/>
        <path id="Trazado_781878" data-name="Trazado 781878" d="M161.622,82.036a3.218,3.218,0,0,1-2.778-1.6l-8.859-15.345a3.217,3.217,0,0,1,0-3.208l8.859-15.345a3.218,3.218,0,0,1,2.778-1.6h17.718a3.217,3.217,0,0,1,2.778,1.6l8.86,15.345a3.215,3.215,0,0,1,0,3.208l-8.858,15.345a3.219,3.219,0,0,1-2.778,1.6Z" transform="translate(-42.377 -12.731)" fill="#85a0dd"/>
        <g id="Grupo_1033545" data-name="Grupo 1033545" transform="translate(122.867 39.656)" opacity="0.63">
          <g id="Grupo_1033544" data-name="Grupo 1033544">
            <g id="Grupo_1033543" data-name="Grupo 1033543" clip-path="url(#clip-path-12)">
              <g id="Grupo_1033542" data-name="Grupo 1033542" transform="translate(0 0)">
                <g id="Grupo_1033541" data-name="Grupo 1033541" clip-path="url(#clip-path-13)">
                  <rect id="Rectángulo_366425" data-name="Rectángulo 366425" width="10.48" height="10.965" transform="translate(0 0)" fill="url(#linear-gradient-9)"/>
                </g>
              </g>
            </g>
          </g>
        </g>
        <g id="Grupo_1033550" data-name="Grupo 1033550" transform="translate(117.977 52.291)" opacity="0.63">
          <g id="Grupo_1033549" data-name="Grupo 1033549">
            <g id="Grupo_1033548" data-name="Grupo 1033548" clip-path="url(#clip-path-14)">
              <g id="Grupo_1033547" data-name="Grupo 1033547" transform="translate(0 0)">
                <g id="Grupo_1033546" data-name="Grupo 1033546" clip-path="url(#clip-path-15)">
                  <rect id="Rectángulo_366427" data-name="Rectángulo 366427" width="20.876" height="10.055" transform="translate(-0.317 -0.585)" fill="url(#linear-gradient-10)"/>
                </g>
              </g>
            </g>
          </g>
        </g>
        <path id="Trazado_781881" data-name="Trazado 781881" d="M345.74,194.964C355.39,168.416,396.058,63.5,455.316,6.571c4.232-4.065,13.234-2.8,13.955,2.506C473.456,39.888,490.4,136.4,350.626,198.372c-2.69,1.193-5.763-1-4.886-3.408" transform="translate(-97.924 -1.181)" fill="#34c1b3"/>
        <path id="Trazado_781882" data-name="Trazado 781882" d="M352.266,209.606a.962.962,0,0,1-.551-.168.631.631,0,0,1-.1-1c44.745-44,69.151-83.19,81.746-108.318,13.631-27.2,16.729-44.182,16.759-44.35a.842.842,0,0,1,.97-.6.742.742,0,0,1,.721.8c-.03.171-3.16,17.332-16.872,44.69-12.642,25.221-37.132,64.55-82.018,108.689a.931.931,0,0,1-.653.252" transform="translate(-99.574 -15.63)" fill="#2b7f77"/>
      </g>
    </g>
    <g id="Grupo_1033554" data-name="Grupo 1033554" transform="translate(240.29)">
      <g id="Grupo_1033553" data-name="Grupo 1033553" clip-path="url(#clip-path-16)">
        <rect id="Rectángulo_366430" data-name="Rectángulo 366430" width="104.896" height="164.265" transform="translate(-0.349 0)" fill="url(#linear-gradient-11)"/>
      </g>
    </g>
    <g id="Grupo_1033556" data-name="Grupo 1033556">
      <g id="Grupo_1033555" data-name="Grupo 1033555" clip-path="url(#clip-path)">
        <path id="Trazado_781884" data-name="Trazado 781884" d="M340.332,172.311a.748.748,0,0,1-.444-.064.492.492,0,0,1-.2-.759c29.241-39.242,43.379-72.353,50.092-93.22,7.264-22.583,7.628-36.044,7.63-36.177a.656.656,0,0,1,.676-.577.579.579,0,0,1,.652.535c0,.135-.37,13.734-7.677,36.451-6.737,20.944-20.925,54.173-50.258,93.539a.728.728,0,0,1-.473.272" transform="translate(-96.222 -11.763)" fill="#373f51"/>
      </g>
    </g>
    <g id="Grupo_1033558" data-name="Grupo 1033558" transform="translate(306.149 91.316)">
      <g id="Grupo_1033557" data-name="Grupo 1033557" clip-path="url(#clip-path-18)">
        <rect id="Rectángulo_366432" data-name="Rectángulo 366432" width="74.189" height="110.572" transform="translate(-0.165 0)" fill="url(#linear-gradient-12)"/>
      </g>
    </g>
    <g id="Grupo_1033560" data-name="Grupo 1033560">
      <g id="Grupo_1033559" data-name="Grupo 1033559" clip-path="url(#clip-path)">
        <path id="Trazado_781886" data-name="Trazado 781886" d="M429.995,247.848a.686.686,0,0,1-.627-.962c.2-.447,20.136-45.082,52.479-74.085a.685.685,0,0,1,.914,1.02c-32.12,28.8-51.944,73.175-52.14,73.619a.687.687,0,0,1-.627.408" transform="translate(-121.647 -48.914)" fill="#373f51"/>
      </g>
    </g>
    <g id="Grupo_1033562" data-name="Grupo 1033562" transform="translate(69.446 65.347)">
      <g id="Grupo_1033561" data-name="Grupo 1033561" clip-path="url(#clip-path-20)">
        <rect id="Rectángulo_366434" data-name="Rectángulo 366434" width="303.952" height="238.412" transform="translate(-48.845 16.257) rotate(-18.435)" fill="url(#linear-gradient-13)"/>
      </g>
    </g>
    <g id="Grupo_1033564" data-name="Grupo 1033564" transform="translate(73.985 70.853)">
      <g id="Grupo_1033563" data-name="Grupo 1033563" clip-path="url(#clip-path-21)">
        <rect id="Rectángulo_366435" data-name="Rectángulo 366435" width="197.823" height="279.398" transform="translate(-28.311 146.934) rotate(-79.115)" fill="url(#linear-gradient-14)"/>
      </g>
    </g>
    <g id="Grupo_1033566" data-name="Grupo 1033566">
      <g id="Grupo_1033565" data-name="Grupo 1033565" clip-path="url(#clip-path)">
        <path id="Trazado_781889" data-name="Trazado 781889" d="M452.768,213.545h-.005a.343.343,0,0,1-.338-.348l.156-10.631a.342.342,0,0,1,.342-.338h.005a.343.343,0,0,1,.338.348l-.156,10.631a.342.342,0,0,1-.343.338" transform="translate(-128.196 -57.302)" fill="#b0c0d2"/>
        <path id="Trazado_781890" data-name="Trazado 781890" d="M419.866,161.013h-.005a.343.343,0,0,1-.338-.348l.6-40.719a7.941,7.941,0,0,0-2.275-5.95c-2.773-2.657-7.157-2.523-7.341-2.514l-75.211-2.017a.342.342,0,1,1,.019-.684L410.5,110.8c.177-.009,4.842-.151,7.821,2.7a8.6,8.6,0,0,1,2.486,6.448l-.6,40.726a.342.342,0,0,1-.343.338" transform="translate(-94.912 -30.823)" fill="#b0c0d2"/>
        <path id="Trazado_781891" data-name="Trazado 781891" d="M349.008,243.441c-.252-10.835-.158-106.784.464-115.07s-12.285-9.841-32.1-10.773-187-4.625-191.3-4.974c-9.676-.785-13.411,3.289-10.71,45.073,1.521,23.55,1.932,62.445,2.487,80.314a9.861,9.861,0,0,0,9.837,9.557c40.23.111,194.423.553,204.688.858,11.813.352,16.734-.688,16.633-4.985" transform="translate(-32.446 -31.889)" fill="#b0c0d2"/>
      </g>
    </g>
    <g id="Grupo_1033568" data-name="Grupo 1033568" transform="translate(52.514 222.603)">
      <g id="Grupo_1033567" data-name="Grupo 1033567" clip-path="url(#clip-path-23)">
        <rect id="Rectángulo_366437" data-name="Rectángulo 366437" width="34.068" height="296.405" transform="matrix(0.072, -0.997, 0.997, 0.072, -0.915, 12.623)" fill="url(#linear-gradient-15)"/>
      </g>
    </g>
    <g id="Grupo_1033570" data-name="Grupo 1033570">
      <g id="Grupo_1033569" data-name="Grupo 1033569" clip-path="url(#clip-path)">
        <path id="Trazado_781892" data-name="Trazado 781892" d="M414.5,127.972H366.681a2.568,2.568,0,1,1,0-5.137h46.75l28.17-28.17a2.57,2.57,0,0,1,1.817-.752h33.6a2.568,2.568,0,1,1,0,5.137h-32.54l-28.17,28.171a2.568,2.568,0,0,1-1.816.752" transform="translate(-103.173 -26.611)" fill="#f4a338"/>
        <path id="Trazado_781893" data-name="Trazado 781893" d="M423.734,148.549H363.882a2.568,2.568,0,1,1,0-5.137H422.67l22.152-22.152a2.569,2.569,0,0,1,1.816-.752h15.548a2.568,2.568,0,1,1,0,5.137H447.7L425.55,147.8a2.568,2.568,0,0,1-1.816.752" transform="translate(-102.38 -34.146)" fill="#f4a338"/>
        <path id="Trazado_781894" data-name="Trazado 781894" d="M447.52,187.232H369.946a2.568,2.568,0,0,1,0-5.137H447.52a2.568,2.568,0,0,1,0,5.137" transform="translate(-104.098 -51.597)" fill="#f4a338"/>
        <path id="Trazado_781895" data-name="Trazado 781895" d="M436.945,246.743H411.534a2.568,2.568,0,0,1-1.816-.752l-21-21c-16.006-.2-40.978-.381-43.659-.066a2.569,2.569,0,0,1-1.7-4.827c.747-.34,1.286-.586,24.228-.441,11.069.07,22.129.209,22.239.211a2.569,2.569,0,0,1,1.784.752L412.6,241.606h24.347a2.568,2.568,0,1,1,0,5.137m-91.453-21.965h0" transform="translate(-96.867 -62.23)" fill="#f4a338"/>
        <path id="Trazado_781896" data-name="Trazado 781896" d="M103.223,249.977H76.473a2.568,2.568,0,1,1,0-5.137h25.686l16.969-16.969a2.566,2.566,0,0,1,1.816-.752h26.75a2.568,2.568,0,0,1,0,5.137H122.008l-16.969,16.969a2.568,2.568,0,0,1-1.816.752" transform="translate(-20.941 -64.355)" fill="#f4a338"/>
        <path id="Trazado_781897" data-name="Trazado 781897" d="M36.787,269.06a24.47,24.47,0,1,1,24.47-24.47,24.5,24.5,0,0,1-24.47,24.47m0-43.8A19.333,19.333,0,1,0,56.12,244.59a19.354,19.354,0,0,0-19.333-19.332" transform="translate(-3.49 -62.372)" fill="#f4a338"/>
        <path id="Trazado_781898" data-name="Trazado 781898" d="M486.578,191.174a9.089,9.089,0,1,1,9.089-9.089,9.1,9.1,0,0,1-9.089,9.089m0-13.04a3.952,3.952,0,1,0,3.952,3.952,3.956,3.956,0,0,0-3.952-3.952" transform="translate(-135.299 -49.019)" fill="#f4a338"/>
        <path id="Trazado_781899" data-name="Trazado 781899" d="M530.171,102.93a9.757,9.757,0,1,1,9.757-9.758,9.769,9.769,0,0,1-9.757,9.758m0-14.378a4.621,4.621,0,1,0,4.62,4.62,4.625,4.625,0,0,0-4.62-4.62" transform="translate(-147.461 -23.636)" fill="#f4a338"/>
        <path id="Trazado_781900" data-name="Trazado 781900" d="M321.89,75.892a2.568,2.568,0,0,1-1.816-4.384l21.4-21.4a2.57,2.57,0,0,1,1.817-.752h19.727a2.568,2.568,0,0,1,0,5.137H344.354L323.706,75.139a2.56,2.56,0,0,1-1.816.752" transform="translate(-90.481 -13.985)" fill="#f4a338"/>
        <path id="Trazado_781901" data-name="Trazado 781901" d="M135.842,115.468H67.464a2.569,2.569,0,0,1-1.816-.752L38.731,87.8a2.568,2.568,0,0,1,3.632-3.632l26.165,26.164h67.314a2.568,2.568,0,1,1,0,5.137" transform="translate(-10.761 -23.636)" fill="#f4a338"/>
        <path id="Trazado_781902" data-name="Trazado 781902" d="M73,174.151H35.882a2.568,2.568,0,0,1,0-5.137H71.933l24.659-24.66a2.568,2.568,0,0,1,1.816-.752h44.471a2.568,2.568,0,0,1,0,5.137H99.473L74.813,173.4a2.568,2.568,0,0,1-1.816.752" transform="translate(-9.44 -40.69)" fill="#f4a338"/>
        <path id="Trazado_781903" data-name="Trazado 781903" d="M111.933,206.1a2.568,2.568,0,0,1-1.816-4.384l10.7-10.7a2.566,2.566,0,0,1,1.816-.752H169.11a2.568,2.568,0,0,1,0,5.137H123.7l-9.948,9.947a2.56,2.56,0,0,1-1.816.752" transform="translate(-30.989 -53.911)" fill="#f4a338"/>
        <path id="Trazado_781904" data-name="Trazado 781904" d="M102.053,221.361a8.086,8.086,0,1,1,8.086-8.085,8.094,8.094,0,0,1-8.086,8.085m0-11.034A2.949,2.949,0,1,0,105,213.276a2.952,2.952,0,0,0-2.949-2.949" transform="translate(-26.626 -58.141)" fill="#f4a338"/>
        <path id="Trazado_781905" data-name="Trazado 781905" d="M30.94,83.8A9.757,9.757,0,1,1,40.7,74.043,9.769,9.769,0,0,1,30.94,83.8m0-14.378a4.621,4.621,0,1,0,4.62,4.62,4.625,4.625,0,0,0-4.62-4.62" transform="translate(-6.002 -18.216)" fill="#f4a338"/>
        <path id="Trazado_781906" data-name="Trazado 781906" d="M403.587,69.048A26.643,26.643,0,1,1,430.23,42.4a26.672,26.672,0,0,1-26.643,26.643m0-48.149A21.506,21.506,0,1,0,425.093,42.4,21.53,21.53,0,0,0,403.587,20.9" transform="translate(-106.809 -4.466)" fill="#f4a338"/>
        <path id="Trazado_781907" data-name="Trazado 781907" d="M499,269.207a26.643,26.643,0,1,1,26.643-26.643A26.673,26.673,0,0,1,499,269.207m0-48.149a21.506,21.506,0,1,0,21.506,21.506A21.53,21.53,0,0,0,499,221.058" transform="translate(-133.844 -61.182)" fill="#f4a338"/>
        <path id="Trazado_781908" data-name="Trazado 781908" d="M51.243,261.6H30.2a3.092,3.092,0,0,1-3.088-3.088V243.123a3.092,3.092,0,0,1,3.088-3.088H51.243a3.092,3.092,0,0,1,3.088,3.088v15.391a3.092,3.092,0,0,1-3.088,3.088M30.2,242.376a.748.748,0,0,0-.747.747v15.391a.748.748,0,0,0,.747.747H51.243a.748.748,0,0,0,.747-.747V243.123a.748.748,0,0,0-.747-.747Z" transform="translate(-7.682 -68.015)" fill="#f4a338"/>
        <path id="Trazado_781909" data-name="Trazado 781909" d="M40.742,251.459a3.306,3.306,0,0,1-1.916-.61l-10.553-7.483a1.17,1.17,0,1,1,1.354-1.909l10.553,7.483a.975.975,0,0,0,1.126,0l10.406-7.392a1.17,1.17,0,0,1,1.356,1.908L42.66,250.848a3.307,3.307,0,0,1-1.918.611" transform="translate(-7.871 -68.356)" fill="#f4a338"/>
        <path id="Trazado_781910" data-name="Trazado 781910" d="M29.21,263.547l-.186-1.155-.166-1.159.166,1.159-.983-.634c.233-.376,4.477-7.8,7.273-12.7a1.17,1.17,0,1,1,2.032,1.16s-1.819,3.187-3.642,6.375c-.912,1.594-1.825,3.188-2.511,4.384-1.422,2.477-1.422,2.477-1.983,2.567" transform="translate(-7.945 -70.405)" fill="#f4a338"/>
        <path id="Trazado_781911" data-name="Trazado 781911" d="M58.689,263.547c-.561-.09-.561-.09-1.983-2.567-.687-1.2-1.6-2.791-2.511-4.384-1.823-3.188-3.642-6.375-3.642-6.375a1.17,1.17,0,1,1,2.032-1.16c2.8,4.9,7.04,12.321,7.273,12.7l-.98.606,0,.028Z" transform="translate(-14.281 -70.405)" fill="#f4a338"/>
        <path id="Trazado_781912" data-name="Trazado 781912" d="M408.145,62.182c-.26,0-.52-.005-.782-.017-8.932-.393-15.9-7.505-15.537-15.854a14.57,14.57,0,0,1,5.242-10.523,16.713,16.713,0,0,1,11.62-3.9c8.932.393,15.9,7.505,15.538,15.853h0a14.572,14.572,0,0,1-5.242,10.523,16.646,16.646,0,0,1-10.839,3.921M407.908,34a14.509,14.509,0,0,0-9.454,3.412,12.452,12.452,0,0,0-4.493,8.989c-.314,7.171,5.741,13.284,13.5,13.626a14.59,14.59,0,0,0,10.141-3.4,12.455,12.455,0,0,0,4.493-8.99c.313-7.171-5.741-13.284-13.5-13.626-.229-.01-.459-.015-.687-.015" transform="translate(-111.022 -9.03)" fill="#f4a338"/>
        <path id="Trazado_781913" data-name="Trazado 781913" d="M416.772,47.69a42.674,42.674,0,0,1-.61,7.424c-.11.611-.239,1.22-.391,1.824a17.487,17.487,0,0,1-.545,1.784,8.476,8.476,0,0,1-.815,1.683,3.344,3.344,0,0,1-.611.715,1.7,1.7,0,0,1-.4.259,1.2,1.2,0,0,1-.467.111,1.178,1.178,0,0,1-.472-.087,1.643,1.643,0,0,1-.41-.244,3.205,3.205,0,0,1-.624-.7,8.249,8.249,0,0,1-.826-1.677,17.27,17.27,0,0,1-.552-1.783c-.154-.6-.283-1.211-.394-1.822-.223-1.224-.374-2.459-.477-3.7s-.152-2.482-.158-3.725c0-.621.014-1.243.036-1.863s.057-1.242.1-1.861c.092-1.239.229-2.476.432-3.7.1-.613.221-1.223.364-1.829a17.559,17.559,0,0,1,.517-1.792c.1-.293.217-.583.347-.866a6.4,6.4,0,0,1,.444-.822,3.058,3.058,0,0,1,.611-.709,1.551,1.551,0,0,1,.4-.243,1.132,1.132,0,0,1,.464-.082,1.227,1.227,0,0,1,.459.107,1.809,1.809,0,0,1,.4.25,3.414,3.414,0,0,1,.624.7,8.418,8.418,0,0,1,.856,1.657,17.113,17.113,0,0,1,.586,1.77c.166.6.305,1.205.426,1.815a39.126,39.126,0,0,1,.681,7.416m-.183,0c0-1.238-.044-2.476-.147-3.71a35.9,35.9,0,0,0-.482-3.68c-.114-.608-.247-1.213-.4-1.811a16.865,16.865,0,0,0-.564-1.766,8.3,8.3,0,0,0-.829-1.649,3.3,3.3,0,0,0-.6-.689,1.724,1.724,0,0,0-.383-.246,1.13,1.13,0,0,0-.436-.107,1.07,1.07,0,0,0-.441.083,1.483,1.483,0,0,0-.386.238,2.975,2.975,0,0,0-.589.7,6.368,6.368,0,0,0-.43.816c-.125.282-.234.571-.335.864a17.435,17.435,0,0,0-.494,1.787c-.136.6-.248,1.213-.343,1.824-.189,1.223-.312,2.457-.39,3.693s-.106,2.474-.1,3.712.038,2.476.13,3.711.234,2.466.446,3.685c.106.609.23,1.215.378,1.816a17.234,17.234,0,0,0,.534,1.773,8.082,8.082,0,0,0,.8,1.658,3.092,3.092,0,0,0,.6.686,1.531,1.531,0,0,0,.383.232,1.044,1.044,0,0,0,.432.083,1.1,1.1,0,0,0,.428-.105,1.611,1.611,0,0,0,.374-.247,3.265,3.265,0,0,0,.585-.7,8.375,8.375,0,0,0,.789-1.665,17.524,17.524,0,0,0,.527-1.775c.147-.6.269-1.208.374-1.817.211-1.22.35-2.451.444-3.686s.138-2.472.137-3.711" transform="translate(-115.897 -9.627)" fill="#f4a338"/>
        <path id="Trazado_781914" data-name="Trazado 781914" d="M412.754,61.709a1.545,1.545,0,0,1-.571-.114,1.943,1.943,0,0,1-.5-.3,3.49,3.49,0,0,1-.7-.784,8.464,8.464,0,0,1-.865-1.752,17.532,17.532,0,0,1-.564-1.822c-.149-.581-.279-1.185-.4-1.848-.213-1.173-.37-2.394-.48-3.733-.1-1.217-.153-2.48-.16-3.753,0-.665.016-1.322.036-1.878.024-.632.058-1.263.1-1.875.1-1.346.242-2.568.435-3.734.111-.666.231-1.271.369-1.853a17.939,17.939,0,0,1,.527-1.828c.118-.333.235-.626.36-.9a6.755,6.755,0,0,1,.469-.869,3.373,3.373,0,0,1,.686-.792,1.925,1.925,0,0,1,.5-.3,1.521,1.521,0,0,1,.611-.108,1.58,1.58,0,0,1,.591.138,2.139,2.139,0,0,1,.48.3,3.732,3.732,0,0,1,.692.77,8.667,8.667,0,0,1,.9,1.729,17.212,17.212,0,0,1,.6,1.81c.161.583.3,1.185.432,1.841a39.117,39.117,0,0,1,.688,7.485h0a42.791,42.791,0,0,1-.616,7.487c-.119.661-.249,1.266-.4,1.85a18.016,18.016,0,0,1-.557,1.822,8.84,8.84,0,0,1-.851,1.755,3.674,3.674,0,0,1-.68.793,2.128,2.128,0,0,1-.484.312,1.55,1.55,0,0,1-.61.142h-.042m-.188-27.458a.721.721,0,0,0-.273.056,1.137,1.137,0,0,0-.293.183,2.591,2.591,0,0,0-.515.616,5.864,5.864,0,0,0-.4.769c-.111.25-.217.522-.323.833a17.243,17.243,0,0,0-.484,1.749c-.127.565-.237,1.154-.338,1.8-.177,1.144-.3,2.342-.386,3.659-.072,1.126-.105,2.333-.1,3.689,0,1.252.04,2.491.129,3.685.1,1.31.242,2.5.441,3.65.111.641.234,1.226.373,1.79a16.563,16.563,0,0,0,.522,1.736,7.7,7.7,0,0,0,.763,1.584,2.694,2.694,0,0,0,.524.6,1.174,1.174,0,0,0,.29.178.777.777,0,0,0,.285.057.756.756,0,0,0,.29-.072,1.318,1.318,0,0,0,.29-.193,2.867,2.867,0,0,0,.518-.62,7.959,7.959,0,0,0,.752-1.591,16.949,16.949,0,0,0,.516-1.738c.138-.561.258-1.147.369-1.792.2-1.136.34-2.33.439-3.651.09-1.191.136-2.43.136-3.684h0c0-1.248-.047-2.486-.146-3.679a35.215,35.215,0,0,0-.477-3.643c-.118-.635-.249-1.219-.4-1.785a16.441,16.441,0,0,0-.551-1.728,7.886,7.886,0,0,0-.791-1.577,2.932,2.932,0,0,0-.536-.614,1.389,1.389,0,0,0-.3-.195.772.772,0,0,0-.3-.074h-.021" transform="translate(-115.754 -9.484)" fill="#f4a338"/>
        <path id="Trazado_781915" data-name="Trazado 781915" d="M420.23,47.66a18.185,18.185,0,0,1-.64,4.743,15.3,15.3,0,0,1-1.977,4.35,12.483,12.483,0,0,1-1.51,1.856,10.607,10.607,0,0,1-1.858,1.5,8.944,8.944,0,0,1-2.169,1,8.083,8.083,0,0,1-4.716,0,8.962,8.962,0,0,1-2.171-.994,10.613,10.613,0,0,1-1.861-1.5,12.545,12.545,0,0,1-1.513-1.856,15.332,15.332,0,0,1-1.982-4.351,17.281,17.281,0,0,1-.479-2.352,17.716,17.716,0,0,1,0-4.79,17.189,17.189,0,0,1,.482-2.351,15.321,15.321,0,0,1,1.984-4.349,12.537,12.537,0,0,1,1.514-1.854,10.54,10.54,0,0,1,1.86-1.5,8.975,8.975,0,0,1,2.169-.99,8.028,8.028,0,0,1,4.708,0,8.957,8.957,0,0,1,2.167.992,10.534,10.534,0,0,1,1.858,1.5,12.47,12.47,0,0,1,1.51,1.855,15.3,15.3,0,0,1,1.98,4.346,18.179,18.179,0,0,1,.643,4.743m-.21,0a17.968,17.968,0,0,0-.614-4.692,15.25,15.25,0,0,0-1.914-4.321,12.4,12.4,0,0,0-1.476-1.85,10.309,10.309,0,0,0-1.826-1.5,8.818,8.818,0,0,0-2.141-.994,7.825,7.825,0,0,0-4.661,0,8.8,8.8,0,0,0-2.14,1,10.327,10.327,0,0,0-1.822,1.5,12.357,12.357,0,0,0-1.473,1.852,15.2,15.2,0,0,0-1.908,4.319,17.42,17.42,0,0,0-.459,2.324,18.131,18.131,0,0,0,0,4.728,17.432,17.432,0,0,0,.461,2.323,15.214,15.214,0,0,0,1.911,4.316,12.39,12.39,0,0,0,1.473,1.849,10.253,10.253,0,0,0,1.822,1.5,8.84,8.84,0,0,0,2.138.992,7.772,7.772,0,0,0,4.654,0,8.85,8.85,0,0,0,2.14-.99,10.314,10.314,0,0,0,1.825-1.5,12.359,12.359,0,0,0,1.476-1.849,15.206,15.206,0,0,0,1.916-4.317,17.963,17.963,0,0,0,.618-4.691" transform="translate(-113.112 -9.597)" fill="#f4a338"/>
        <path id="Trazado_781916" data-name="Trazado 781916" d="M409.576,61.679a8.516,8.516,0,0,1-2.462-.366,9.29,9.29,0,0,1-2.258-1.033,10.988,10.988,0,0,1-1.925-1.552,13,13,0,0,1-1.557-1.909,15.655,15.655,0,0,1-2.03-4.455,17.692,17.692,0,0,1-.49-2.4,18.112,18.112,0,0,1,0-4.887,17.681,17.681,0,0,1,.492-2.4,15.613,15.613,0,0,1,2.033-4.453,12.88,12.88,0,0,1,1.557-1.908,10.915,10.915,0,0,1,1.925-1.549,9.362,9.362,0,0,1,2.256-1.031,8.388,8.388,0,0,1,4.917,0,9.32,9.32,0,0,1,2.254,1.031,10.942,10.942,0,0,1,1.922,1.551,12.859,12.859,0,0,1,1.554,1.908,15.591,15.591,0,0,1,2.027,4.45,18.515,18.515,0,0,1,.657,4.84v0a18.529,18.529,0,0,1-.653,4.839,15.627,15.627,0,0,1-2.025,4.455,12.854,12.854,0,0,1-1.554,1.91,10.946,10.946,0,0,1-1.923,1.553,9.3,9.3,0,0,1-2.257,1.036,8.491,8.491,0,0,1-2.461.368m0-27.513a7.72,7.72,0,0,0-2.224.34,8.459,8.459,0,0,0-2.051.955,9.947,9.947,0,0,0-1.758,1.451,12.012,12.012,0,0,0-1.43,1.8,14.827,14.827,0,0,0-1.863,4.215A17.062,17.062,0,0,0,399.8,45.2a17.757,17.757,0,0,0,0,4.635,17.124,17.124,0,0,0,.451,2.275,14.8,14.8,0,0,0,1.865,4.212,11.988,11.988,0,0,0,1.43,1.8,9.922,9.922,0,0,0,1.758,1.448,8.48,8.48,0,0,0,2.049.951,7.415,7.415,0,0,0,4.444,0,8.488,8.488,0,0,0,2.052-.95,9.933,9.933,0,0,0,1.759-1.447,12,12,0,0,0,1.433-1.794,14.82,14.82,0,0,0,1.87-4.215,17.8,17.8,0,0,0,0-9.192,14.828,14.828,0,0,0-1.868-4.217,12.02,12.02,0,0,0-1.433-1.8,10,10,0,0,0-1.761-1.45A8.4,8.4,0,0,0,411.8,34.5a7.678,7.678,0,0,0-2.227-.339" transform="translate(-112.97 -9.454)" fill="#f4a338"/>
        <path id="Trazado_781917" data-name="Trazado 781917" d="M396.758,45.472l3.157-.025,3.157-.015,6.314-.011,6.314.013,3.157.016,3.157.027a.01.01,0,0,1,.009.01s0,.009-.009.009l-3.157.028-3.157.016-6.314.013-6.314-.012-3.157-.015-3.157-.025a.021.021,0,0,1-.014-.006c0-.016.006-.022.014-.022" transform="translate(-112.419 -12.87)" fill="#f4a338"/>
        <path id="Trazado_781918" data-name="Trazado 781918" d="M409.244,45.771l-9.473-.026-3.308-.028-.221-.221v-.162l.009-.353.363-.014,6.315-.04,6.315-.011,9.473.029,3.516.031.009.73-.37.009-6.312.044Z" transform="translate(-112.276 -12.727)" fill="#f4a338"/>
        <path id="Trazado_781919" data-name="Trazado 781919" d="M401.869,38.066c.747-.012,1.494-.017,2.241-.026l2.242-.014c.747-.006,1.494-.006,2.242-.007l2.241,0,4.483.013,2.241.016c.747.009,1.494.015,2.242.027a.022.022,0,0,1,.009,0c0,.011,0,.014-.009.014-.747.013-1.494.019-2.242.028l-2.241.016-4.483.013-2.241,0c-.747,0-1.495,0-2.242-.007l-2.242-.015c-.747-.009-1.494-.014-2.241-.025a.014.014,0,0,1-.014-.014.014.014,0,0,1,.014-.014" transform="translate(-113.867 -10.771)" fill="#f4a338"/>
        <path id="Trazado_781920" data-name="Trazado 781920" d="M410.692,38.364l-2.824-.006c-.554,0-1.108,0-1.663-.006l-2.988-.022c-.5-.005-1-.009-1.5-.017l-.355-.006-.014-.733.369-.013c.482-.008.965-.013,1.448-.018l3.037-.023c.526,0,1.053-.005,1.579-.006l2.906-.006,7.543.038c.477.005.952.01,1.429.019l.368.006-.017.727-.358.009c-.492.009-.991.014-1.491.019l-2.989.024Z" transform="translate(-113.724 -10.628)" fill="#f4a338"/>
        <path id="Trazado_781921" data-name="Trazado 781921" d="M395.227,52.879l3.431-.026,3.431-.014,6.862-.011,6.863.013,3.431.016,3.431.027a.008.008,0,0,1,.009.009s0,.009-.009.009l-3.431.028-3.431.016-6.863.013-6.862-.011-3.431-.015-3.431-.025a.014.014,0,0,1-.014-.014.014.014,0,0,1,.014-.014" transform="translate(-111.985 -14.969)" fill="#f4a338"/>
        <path id="Trazado_781922" data-name="Trazado 781922" d="M408.81,53.177l-10.3-.027-3.79-.028-.014-.735.372-.014,6.863-.04,6.863-.012,10.3.029,3.583.029.218.223-.014.51-.358.009-6.86.044Z" transform="translate(-111.843 -14.826)" fill="#f4a338"/>
        <path id="Trazado_781923" data-name="Trazado 781923" d="M396.758,60.286l3.157-.026,3.157-.014,6.314-.011,6.314.013,3.157.016,3.157.027a.015.015,0,0,1,.009,0c0,.011,0,.014-.009.014l-3.157.028-3.157.016-6.314.013-6.314-.011-3.157-.015-3.157-.025a.014.014,0,0,1-.014-.014.014.014,0,0,1,.014-.014" transform="translate(-112.419 -17.068)" fill="#f4a338"/>
        <path id="Trazado_781924" data-name="Trazado 781924" d="M409.244,60.584l-9.473-.026-3.308-.027-.221-.221v-.162l.008-.354.363-.014,6.315-.04,6.315-.011,9.473.029,3.516.03.009.731-.37.009-6.312.043Z" transform="translate(-112.276 -16.924)" fill="#f4a338"/>
        <path id="Trazado_781925" data-name="Trazado 781925" d="M420.415,67.761h-17.93a.049.049,0,1,1,0-.1h17.93a.049.049,0,0,1,0,.1" transform="translate(-114.032 -19.173)" fill="#f4a338"/>
        <path id="Trazado_781926" data-name="Trazado 781926" d="M420.273,67.98h-17.93a.411.411,0,0,1,0-.821h17.93a.411.411,0,0,1,0,.821" transform="translate(-113.889 -19.03)" fill="#f4a338"/>
        <path id="Trazado_781927" data-name="Trazado 781927" d="M509.264,261.32v-14.27a8.665,8.665,0,1,0-3.765.117v4.078h-2.178a1.479,1.479,0,0,0-1.479,1.479v.054a1.479,1.479,0,0,0,1.479,1.478H505.5v3.765h-3.361a1.479,1.479,0,0,0-1.479,1.479v.054a1.479,1.479,0,0,0,1.479,1.479H505.5v.287a1.864,1.864,0,0,0,1.864,1.864h.036a1.864,1.864,0,0,0,1.865-1.864m-7.493-22.659A5.342,5.342,0,1,1,507.113,244a5.342,5.342,0,0,1-5.342-5.342" transform="translate(-141.239 -65.172)" fill="#f4a338"/>
        <path id="Trazado_781928" data-name="Trazado 781928" d="M328.431,95.164a15.023,15.023,0,0,0-8.556-12.589L256.118,52.294a15.04,15.04,0,0,0-12.9,0L179.456,82.575A15.023,15.023,0,0,0,170.9,95.164c-5.98,92.442,53.293,126.125,72.723,134.633a15.055,15.055,0,0,0,12.085,0c19.43-8.509,78.7-42.191,72.723-134.633" transform="translate(-48.306 -14.406)" fill="url(#linear-gradient)"/>
        <path id="Trazado_781929" data-name="Trazado 781929" d="M253.725,67.1a.856.856,0,0,1-.368-1.63l15.065-7.155a.856.856,0,1,1,.735,1.547l-15.065,7.155a.85.85,0,0,1-.367.083" transform="translate(-71.651 -16.5)" fill="#fff"/>
        <path id="Trazado_781930" data-name="Trazado 781930" d="M177.493,120.911a.856.856,0,0,1-.855-.828c-.2-6.011-.1-12.277.315-18.626a10.682,10.682,0,0,1,6.084-8.946l42.89-20.371a.856.856,0,0,1,.735,1.547l-42.89,20.37a8.968,8.968,0,0,0-5.11,7.51c-.407,6.293-.512,12.5-.312,18.458a.856.856,0,0,1-.827.884h-.029" transform="translate(-50.023 -20.418)" fill="#fff"/>
        <path id="Trazado_781931" data-name="Trazado 781931" d="M319.181,105.124a3.755,3.755,0,0,0-2.138-3.2l-59.6-28.308a3.75,3.75,0,0,0-3.216,0l-59.6,28.308a3.757,3.757,0,0,0-2.138,3.2c-1.762,34.484,6.2,63.256,23.692,85.557a105.726,105.726,0,0,0,38.07,30.364,3.755,3.755,0,0,0,3.173,0,105.732,105.732,0,0,0,38.07-30.364c17.488-22.3,25.453-51.073,23.691-85.557" transform="translate(-54.474 -20.757)" fill="#5573c6"/>
        <path id="Trazado_781932" data-name="Trazado 781932" d="M254.036,152.2H248.1V128.528a18.428,18.428,0,0,1,16.19-18.277l12.146-1.476a18.41,18.41,0,0,1,20.632,18.277v20.667h-5.94V127.052a12.47,12.47,0,0,0-13.975-12.379L265,116.148a12.483,12.483,0,0,0-10.966,12.38Z" transform="translate(-70.299 -30.784)" fill="#f4a338"/>
        <path id="Trazado_781933" data-name="Trazado 781933" d="M244.268,160.864l52.072-2.885a3.69,3.69,0,0,1,3.894,3.684v41.252a3.69,3.69,0,0,1-3.69,3.69h-50.82a3.69,3.69,0,0,1-3.689-3.57l-1.251-38.367a3.689,3.689,0,0,1,3.484-3.8" transform="translate(-68.227 -44.763)" fill="#f4a338"/>
        <path id="Trazado_781934" data-name="Trazado 781934" d="M287.325,198.75l-3.152-9.061a3.035,3.035,0,0,1,.689-3.128,8.58,8.58,0,1,0-11.509.64,3.059,3.059,0,0,1,.993,3.38l-2.841,8.17a3.057,3.057,0,0,0,2.888,4.062h10.044a3.057,3.057,0,0,0,2.888-4.062" transform="translate(-76.555 -48.724)" fill="#373f51"/>
      </g>
    </g>
    <g id="Grupo_1033572" data-name="Grupo 1033572" transform="translate(254.195 195.874)">
      <g id="Grupo_1033571" data-name="Grupo 1033571" clip-path="url(#clip-path-25)">
        <rect id="Rectángulo_366440" data-name="Rectángulo 366440" width="43.75" height="42.787" transform="translate(-14.211 24.898) rotate(-60.283)" fill="url(#linear-gradient-17)"/>
      </g>
    </g>
    <g id="Grupo_1033574" data-name="Grupo 1033574" transform="translate(253.201 223.013)">
      <g id="Grupo_1033573" data-name="Grupo 1033573" clip-path="url(#clip-path-26)">
        <rect id="Rectángulo_366441" data-name="Rectángulo 366441" width="12.706" height="11.447" transform="translate(-2.893 1.179) rotate(-22.449)" fill="url(#linear-gradient-18)"/>
      </g>
    </g>
    <g id="Grupo_1033576" data-name="Grupo 1033576" transform="translate(260.793 199.066)">
      <g id="Grupo_1033575" data-name="Grupo 1033575" clip-path="url(#clip-path-27)">
        <rect id="Rectángulo_366442" data-name="Rectángulo 366442" width="32.386" height="41.233" transform="translate(-7.213 1.469) rotate(-11.514)" fill="url(#linear-gradient-19)"/>
      </g>
    </g>
    <g id="Grupo_1033578" data-name="Grupo 1033578" transform="translate(260.195 228.597)">
      <g id="Grupo_1033577" data-name="Grupo 1033577" clip-path="url(#clip-path-28)">
        <rect id="Rectángulo_366443" data-name="Rectángulo 366443" width="12.817" height="13.022" transform="matrix(0.828, -0.561, 0.561, 0.828, -4.501, 3.049)" fill="url(#linear-gradient-20)"/>
      </g>
    </g>
    <g id="Grupo_1033580" data-name="Grupo 1033580" transform="translate(271.247 196.754)">
      <g id="Grupo_1033579" data-name="Grupo 1033579" clip-path="url(#clip-path-29)">
        <rect id="Rectángulo_366444" data-name="Rectángulo 366444" width="34.267" height="33.018" transform="matrix(0.739, -0.674, 0.674, 0.739, -7.047, 6.43)" fill="url(#linear-gradient-21)"/>
      </g>
    </g>
    <g id="Grupo_1033582" data-name="Grupo 1033582" transform="translate(276.107 152.855)">
      <g id="Grupo_1033581" data-name="Grupo 1033581" clip-path="url(#clip-path-30)">
        <rect id="Rectángulo_366445" data-name="Rectángulo 366445" width="56.24" height="48.782" transform="matrix(0.899, -0.438, 0.438, 0.899, -13.281, 5.979)" fill="#12263f"/>
      </g>
    </g>
    <g id="Grupo_1033584" data-name="Grupo 1033584" transform="translate(280.492 174.118)">
      <g id="Grupo_1033583" data-name="Grupo 1033583" clip-path="url(#clip-path-31)">
        <rect id="Rectángulo_366446" data-name="Rectángulo 366446" width="32.458" height="32.507" transform="translate(-11.32 11.402) rotate(-46.032)" fill="url(#linear-gradient-22)"/>
      </g>
    </g>
    <g id="Grupo_1033586" data-name="Grupo 1033586" transform="translate(279.87 192.458)">
      <g id="Grupo_1033585" data-name="Grupo 1033585" clip-path="url(#clip-path-32)">
        <rect id="Rectángulo_366447" data-name="Rectángulo 366447" width="12.986" height="26.118" transform="translate(-1.635 5.525) rotate(-73.515)" fill="url(#linear-gradient-23)"/>
      </g>
    </g>
    <g id="Grupo_1033588" data-name="Grupo 1033588" transform="translate(282.687 167.193)">
      <g id="Grupo_1033587" data-name="Grupo 1033587" clip-path="url(#clip-path-33)">
        <rect id="Rectángulo_366448" data-name="Rectángulo 366448" width="9.125" height="10.333" transform="translate(-2.597 0.8) rotate(-17.68)" fill="url(#linear-gradient-24)"/>
      </g>
    </g>
    <g id="Grupo_1033590" data-name="Grupo 1033590" transform="translate(278.539 164.523)">
      <g id="Grupo_1033589" data-name="Grupo 1033589" clip-path="url(#clip-path-34)">
        <rect id="Rectángulo_366449" data-name="Rectángulo 366449" width="12.591" height="12.497" transform="matrix(0.673, -0.739, 0.739, 0.673, -5.142, 5.246)" fill="url(#linear-gradient-25)"/>
      </g>
    </g>
    <g id="Grupo_1033592" data-name="Grupo 1033592" transform="translate(277.307 161.88)">
      <g id="Grupo_1033591" data-name="Grupo 1033591" clip-path="url(#clip-path-35)">
        <rect id="Rectángulo_366450" data-name="Rectángulo 366450" width="11.619" height="8.589" transform="translate(-1.122 0.099) rotate(-6.66)" fill="#12263f"/>
      </g>
    </g>
    <g id="Grupo_1033594" data-name="Grupo 1033594" transform="translate(283.663 165.234)">
      <g id="Grupo_1033593" data-name="Grupo 1033593" clip-path="url(#clip-path-36)">
        <rect id="Rectángulo_366451" data-name="Rectángulo 366451" width="3.871" height="3.865" transform="translate(-2.169 1.521) rotate(-47.674)" fill="url(#linear-gradient-26)"/>
      </g>
    </g>
    <g id="Grupo_1033596" data-name="Grupo 1033596" transform="translate(274.491 197.966)">
      <g id="Grupo_1033595" data-name="Grupo 1033595" clip-path="url(#clip-path-37)">
        <rect id="Rectángulo_366452" data-name="Rectángulo 366452" width="1.846" height="17.929" transform="matrix(0.02, -1, 1, 0.02, -0.03, 1.488)" fill="url(#linear-gradient)"/>
      </g>
    </g>
    <g id="Grupo_1033598" data-name="Grupo 1033598" transform="translate(259.362 184.536)">
      <g id="Grupo_1033597" data-name="Grupo 1033597" clip-path="url(#clip-path-38)">
        <rect id="Rectángulo_366453" data-name="Rectángulo 366453" width="26.428" height="27.796" transform="matrix(0.625, -0.781, 0.781, 0.625, -7.479, 9.091)" fill="url(#linear-gradient)"/>
      </g>
    </g>
    <g id="Grupo_1033605" data-name="Grupo 1033605">
      <g id="Grupo_1033604" data-name="Grupo 1033604" clip-path="url(#clip-path)">
        <path id="Trazado_781949" data-name="Trazado 781949" d="M376.025,266.554c.3.922.077,1.817-.489,2s-1.266-.417-1.563-1.337-.077-1.817.49-2,1.266.417,1.563,1.338" transform="translate(-105.929 -75.141)" fill="#7d97f4"/>
        <path id="Trazado_781950" data-name="Trazado 781950" d="M408.585,230.249l-.131,0a8.722,8.722,0,0,1-5.36-2.535c-2.957-2.578-4.083-3-6.419-3h-.207v-.095h.2c2.338,0,3.532.442,6.494,3.024a8.643,8.643,0,0,0,5.3,2.513c1.819.054,3.714-1.063,5.193-3.067a25.933,25.933,0,0,0,1.706-2.776,27.857,27.857,0,0,1,1.587-2.614,5.862,5.862,0,0,1,2.063-1.923,2.7,2.7,0,0,1,2.737.111l-.056.077a2.6,2.6,0,0,0-2.639-.1,5.771,5.771,0,0,0-2.027,1.893,27.76,27.76,0,0,0-1.582,2.6,25.864,25.864,0,0,1-1.713,2.786c-1.462,1.981-3.329,3.107-5.141,3.107" transform="translate(-112.34 -62.184)" fill="#91b3fa"/>
        <path id="Trazado_781951" data-name="Trazado 781951" d="M412.825,234.068a4.614,4.614,0,0,1-.53-.03A3.284,3.284,0,0,1,409.5,232l.091-.029a3.188,3.188,0,0,0,2.717,1.969,6.42,6.42,0,0,0,4.442-1.429,21.428,21.428,0,0,0,2.639-2.455c.272-.284.554-.577.836-.859a32.284,32.284,0,0,1,4.018-3.418,5.534,5.534,0,0,1,3.1-1.3l.113,0a2.468,2.468,0,0,1,1.8.939,1.621,1.621,0,0,1,.332,1.362l-.092-.022a1.525,1.525,0,0,0-.315-1.282,2.369,2.369,0,0,0-1.726-.9,5.3,5.3,0,0,0-3.153,1.282,32.213,32.213,0,0,0-4.006,3.408c-.282.282-.563.575-.835.859a21.474,21.474,0,0,1-2.652,2.465,6.848,6.848,0,0,1-3.98,1.478" transform="translate(-116.033 -63.607)" fill="#91b3fa"/>
        <path id="Trazado_781952" data-name="Trazado 781952" d="M415.194,237.618a2.828,2.828,0,0,1-1.3-.3l.043-.085c1.513.765,3.326-.215,4.035-.671a23.494,23.494,0,0,0,2.262-1.738,13.668,13.668,0,0,1,3.9-2.57,4.119,4.119,0,0,1,2.063-.269,2.318,2.318,0,0,1,1.706,1.134l-.084.044a2.232,2.232,0,0,0-1.638-1.085,4.019,4.019,0,0,0-2.015.266A13.617,13.617,0,0,0,420.3,234.9a23.24,23.24,0,0,1-2.272,1.746,5.571,5.571,0,0,1-2.832.974" transform="translate(-117.279 -65.723)" fill="#91b3fa"/>
        <path id="Trazado_781953" data-name="Trazado 781953" d="M410.977,291.559H397.852a4.557,4.557,0,0,0-3.947,2.279L387.342,305.2a4.555,4.555,0,0,0,0,4.558l6.562,11.366a4.557,4.557,0,0,0,3.947,2.279h13.125a4.558,4.558,0,0,0,3.947-2.279l6.562-11.366a4.558,4.558,0,0,0,0-4.558l-6.562-11.367a4.558,4.558,0,0,0-3.947-2.279" transform="translate(-109.582 -82.614)" fill="#5573c6"/>
        <path id="Trazado_781954" data-name="Trazado 781954" d="M398.715,322.089a2.383,2.383,0,0,1-2.058-1.188l-6.562-11.367a2.384,2.384,0,0,1,0-2.376l6.562-11.366a2.383,2.383,0,0,1,2.058-1.188H411.84a2.383,2.383,0,0,1,2.058,1.187l6.562,11.367a2.381,2.381,0,0,1,0,2.376L413.9,320.9a2.382,2.382,0,0,1-2.058,1.188Z" transform="translate(-110.445 -83.477)" fill="#85a0dd"/>
        <path id="Trazado_781955" data-name="Trazado 781955" d="M453.507,265.276H440.382a4.557,4.557,0,0,0-3.947,2.279l-6.562,11.367a4.555,4.555,0,0,0,0,4.558l6.562,11.366a4.557,4.557,0,0,0,3.947,2.279h13.125a4.558,4.558,0,0,0,3.947-2.279l6.562-11.366a4.558,4.558,0,0,0,0-4.558l-6.562-11.367a4.558,4.558,0,0,0-3.947-2.279" transform="translate(-121.633 -75.167)" fill="#5573c6"/>
        <path id="Trazado_781956" data-name="Trazado 781956" d="M441.244,295.807a2.383,2.383,0,0,1-2.058-1.188l-6.562-11.367a2.385,2.385,0,0,1,0-2.376l6.562-11.366a2.383,2.383,0,0,1,2.058-1.188h13.125a2.383,2.383,0,0,1,2.058,1.188l6.562,11.367a2.381,2.381,0,0,1,0,2.376l-6.562,11.367a2.382,2.382,0,0,1-2.058,1.188Z" transform="translate(-122.496 -76.03)" fill="#85a0dd"/>
        <path id="Trazado_781957" data-name="Trazado 781957" d="M170.458,176.7l-.984.2-.023,0a.469.469,0,1,1-.185-.919h0l1.032-.2a.465.465,0,0,1,.181.913Z" transform="translate(-47.855 -49.806)" fill="#fff"/>
        <path id="Trazado_781958" data-name="Trazado 781958" d="M165.924,177.876l-.945.349-.019.007a.48.48,0,0,1-.333-.9h0l.985-.357a.477.477,0,0,1,.328.9Z" transform="translate(-46.559 -50.138)" fill="#fff"/>
        <path id="Trazado_781959" data-name="Trazado 781959" d="M161.6,179.707l-.9.469-.014.007a.491.491,0,0,1-.455-.87h0l.928-.477a.487.487,0,0,1,.449.865Z" transform="translate(-45.329 -50.658)" fill="#fff"/>
        <path id="Trazado_781960" data-name="Trazado 781960" d="M157.51,182.041l-.848.555-.01.007a.5.5,0,1,1-.55-.84h0l.872-.564a.5.5,0,0,1,.544.836Z" transform="translate(-44.168 -51.321)" fill="#fff"/>
        <path id="Trazado_781961" data-name="Trazado 781961" d="M153.628,184.736l-.81.618-.007.005a.512.512,0,0,1-.621-.815l0,0,.828-.623a.509.509,0,0,1,.615.812Z" transform="translate(-43.066 -52.085)" fill="#fff"/>
        <path id="Trazado_781962" data-name="Trazado 781962" d="M149.909,187.679l-.782.658,0,0a.523.523,0,1,1-.674-.8l0,0,.795-.66a.52.52,0,0,1,.668.8Z" transform="translate(-42.011 -52.918)" fill="#fff"/>
        <path id="Trazado_781963" data-name="Trazado 781963" d="M146.3,190.777l-.76.683,0,0a.534.534,0,0,1-.714-.8l0,0,.773-.685a.531.531,0,0,1,.707.793Z" transform="translate(-40.986 -53.794)" fill="#fff"/>
        <path id="Trazado_781964" data-name="Trazado 781964" d="M142.8,193.992l-.736.708,0,0a.545.545,0,1,1-.756-.785l0,0,.75-.712a.542.542,0,0,1,.749.783Z" transform="translate(-39.991 -54.703)" fill="#fff"/>
        <path id="Trazado_781965" data-name="Trazado 781965" d="M139.418,197.328l-.708.735-.005,0a.556.556,0,1,1-.8-.771l0,0,.722-.74a.553.553,0,0,1,.794.769Z" transform="translate(-39.032 -55.647)" fill="#fff"/>
        <path id="Trazado_781966" data-name="Trazado 781966" d="M136.172,200.792l-.676.763-.005.006a.567.567,0,0,1-.849-.752l0,0,.692-.77a.564.564,0,0,1,.841.75Z" transform="translate(-38.111 -56.628)" fill="#fff"/>
        <path id="Trazado_781967" data-name="Trazado 781967" d="M133.08,204.389l-.642.793,0,.006a.578.578,0,0,1-.9-.727l0,0,.658-.8a.574.574,0,0,1,.891.725Z" transform="translate(-37.234 -57.648)" fill="#fff"/>
        <path id="Trazado_781968" data-name="Trazado 781968" d="M130.159,208.125l-.6.821-.005.007a.582.582,0,1,1-.937-.689h0l.616-.834a.581.581,0,0,1,.934.69Z" transform="translate(-36.411 -58.709)" fill="#fff"/>
        <path id="Trazado_781969" data-name="Trazado 781969" d="M127.432,212l-.558.85-.006.008a.585.585,0,1,1-.978-.642h0l.571-.865a.584.584,0,1,1,.975.644Z" transform="translate(-35.644 -59.812)" fill="#fff"/>
        <path id="Trazado_781970" data-name="Trazado 781970" d="M124.922,216.011l-.51.879-.005.009a.589.589,0,0,1-1.019-.591h0l.522-.9a.588.588,0,1,1,1.016.591Z" transform="translate(-34.94 -60.955)" fill="#fff"/>
        <path id="Trazado_781971" data-name="Trazado 781971" d="M122.65,220.159l-.456.909-.005.01a.593.593,0,1,1-1.06-.531h0l.468-.927a.591.591,0,1,1,1.056.532Z" transform="translate(-34.305 -62.137)" fill="#fff"/>
        <path id="Trazado_781972" data-name="Trazado 781972" d="M120.644,224.442l-.394.936-.005.011a.6.6,0,1,1-1.1-.464h0l.406-.957a.6.6,0,0,1,1.1.464Z" transform="translate(-33.747 -63.359)" fill="#fff"/>
        <path id="Trazado_781973" data-name="Trazado 781973" d="M118.929,228.847l-.33.96,0,.011a.6.6,0,1,1-1.135-.391h0l.34-.982a.6.6,0,0,1,1.132.393Z" transform="translate(-33.273 -64.616)" fill="#fff"/>
        <path id="Trazado_781974" data-name="Trazado 781974" d="M117.519,233.359l-.263.98,0,.013a.6.6,0,0,1-1.167-.313h0l.272-1a.6.6,0,0,1,1.164.315Z" transform="translate(-32.888 -65.905)" fill="#fff"/>
        <path id="Trazado_781975" data-name="Trazado 781975" d="M116.434,237.96l-.191,1,0,.014a.608.608,0,0,1-1.194-.229h0l.2-1.021a.607.607,0,1,1,1.191.231Z" transform="translate(-32.596 -67.219)" fill="#fff"/>
        <path id="Trazado_781976" data-name="Trazado 781976" d="M115.693,242.627l-.115,1.007v.014a.612.612,0,1,1-1.215-.138h0l.12-1.035a.61.61,0,0,1,1.213.141Z" transform="translate(-32.404 -68.553)" fill="#fff"/>
        <path id="Trazado_781977" data-name="Trazado 781977" d="M115.318,247.336l-.034,1.013v.015a.615.615,0,0,1-1.23-.041h0l.037-1.042a.614.614,0,0,1,1.228.044Z" transform="translate(-32.318 -69.9)" fill="#fff"/>
        <path id="Trazado_781978" data-name="Trazado 781978" d="M115.311,252.059l.052,1.008v.017a.619.619,0,1,1-1.236.064h0l-.052-1.041a.618.618,0,1,1,1.234-.062Z" transform="translate(-32.324 -71.251)" fill="#fff"/>
        <path id="Trazado_781979" data-name="Trazado 781979" d="M115.7,256.762l.142,1,0,.017a.623.623,0,0,1-1.233.176h0l-.145-1.033a.622.622,0,0,1,1.231-.173Z" transform="translate(-32.432 -72.599)" fill="#fff"/>
        <path id="Trazado_781980" data-name="Trazado 781980" d="M116.511,261.409c.073.329.157.654.236.982l0,.017a.627.627,0,1,1-1.218.294h0c-.082-.34-.168-.679-.242-1.019v0a.626.626,0,0,1,1.222-.269" transform="translate(-32.664 -73.932)" fill="#fff"/>
        <path id="Trazado_781981" data-name="Trazado 781981" d="M117.772,265.947l.334.952.006.018a.63.63,0,1,1-1.19.417h0l-.345-.988a.629.629,0,0,1,1.188-.414Z" transform="translate(-33.023 -75.233)" fill="#fff"/>
        <path id="Trazado_781982" data-name="Trazado 781982" d="M119.486,270.337l.428.913.008.017a.634.634,0,1,1-1.148.538h0l-.441-.949a.633.633,0,1,1,1.147-.534Z" transform="translate(-33.513 -76.493)" fill="#fff"/>
        <path id="Trazado_781983" data-name="Trazado 781983" d="M121.63,274.533l.517.866.01.016a.638.638,0,1,1-1.1.654h0l-.535-.9a.636.636,0,0,1,1.094-.65Z" transform="translate(-34.126 -77.697)" fill="#fff"/>
        <path id="Trazado_781984" data-name="Trazado 781984" d="M124.186,278.489l.6.808.012.016a.641.641,0,1,1-1.028.767h0l-.624-.841a.64.64,0,0,1,1.028-.763Z" transform="translate(-34.858 -78.833)" fill="#fff"/>
        <path id="Trazado_781985" data-name="Trazado 781985" d="M127.136,282.157l.684.739.014.015a.645.645,0,0,1-.947.876h0l-.71-.771a.644.644,0,0,1,.947-.873Z" transform="translate(-35.704 -79.888)" fill="#fff"/>
        <path id="Trazado_781986" data-name="Trazado 781986" d="M130.46,285.486l.76.658.017.014a.649.649,0,0,1-.849.982h0l-.793-.688a.648.648,0,0,1,.849-.978Z" transform="translate(-36.658 -80.845)" fill="#fff"/>
        <path id="Trazado_781987" data-name="Trazado 781987" d="M134.135,288.414l.831.563.02.013a.653.653,0,1,1-.732,1.081h0l-.869-.591a.651.651,0,1,1,.733-1.077Z" transform="translate(-37.714 -81.688)" fill="#fff"/>
        <path id="Trazado_781988" data-name="Trazado 781988" d="M138.129,290.88l.893.456.022.011a.656.656,0,1,1-.6,1.169h0l-.937-.48a.655.655,0,0,1,.6-1.166Z" transform="translate(-38.863 -82.399)" fill="#fff"/>
        <path id="Trazado_781989" data-name="Trazado 781989" d="M142.4,292.822l.944.337.024.009a.66.66,0,1,1-.444,1.243h0l-.99-.355a.659.659,0,0,1,.446-1.24Z" transform="translate(-40.093 -82.959)" fill="#fff"/>
        <path id="Trazado_781990" data-name="Trazado 781990" d="M146.882,294.208l.98.22.022.005a.664.664,0,0,1-.29,1.3h0l-1.025-.232a.663.663,0,1,1,.293-1.293Z" transform="translate(-41.384 -83.359)" fill="#fff"/>
        <path id="Trazado_781991" data-name="Trazado 781991" d="M151.5,295.053l1,.108.021,0a.667.667,0,1,1-.143,1.327h0l-1.043-.115a.667.667,0,0,1,.146-1.325Z" transform="translate(-42.714 -83.603)" fill="#fff"/>
        <path id="Trazado_781992" data-name="Trazado 781992" d="M156.2,295.386l1.008.005h.019a.671.671,0,1,1-.006,1.342h0l-1.046-.007a.67.67,0,0,1,.009-1.34Z" transform="translate(-44.063 -83.699)" fill="#fff"/>
        <path id="Trazado_781993" data-name="Trazado 781993" d="M160.909,295.215l1.005-.089h.018a.675.675,0,0,1,.118,1.345h0l-1.041.09a.674.674,0,0,1-.115-1.343Z" transform="translate(-45.415 -83.624)" fill="#fff"/>
        <path id="Trazado_781994" data-name="Trazado 781994" d="M165.6,294.627l1-.172.016,0a.679.679,0,0,1,.231,1.338h0l-1.028.176a.678.678,0,0,1-.228-1.337Z" transform="translate(-46.759 -83.431)" fill="#fff"/>
        <path id="Trazado_781995" data-name="Trazado 781995" d="M170.227,293.667l.982-.247.014,0a.683.683,0,0,1,.333,1.324h0l-1.011.252a.681.681,0,1,1-.33-1.322Z" transform="translate(-48.084 -83.135)" fill="#fff"/>
        <path id="Trazado_781996" data-name="Trazado 781996" d="M174.785,292.372l.963-.315.013,0a.686.686,0,1,1,.426,1.305h0l-.99.322a.686.686,0,0,1-.423-1.3Z" transform="translate(-49.388 -82.745)" fill="#fff"/>
        <path id="Trazado_781997" data-name="Trazado 781997" d="M179.249,290.775l.943-.375.011,0a.689.689,0,1,1,.51,1.281l-.966.385a.689.689,0,0,1-.51-1.281Z" transform="translate(-50.664 -82.271)" fill="#fff"/>
        <path id="Trazado_781998" data-name="Trazado 781998" d="M183.62,288.922l.924-.424.009,0a.686.686,0,0,1,.573,1.246l-.942.434a.687.687,0,1,1-.575-1.247h0Z" transform="translate(-51.913 -81.728)" fill="#fff"/>
        <path id="Trazado_781999" data-name="Trazado 781999" d="M187.9,286.857l.907-.465.007,0a.683.683,0,0,1,.625,1.214l-.92.474a.684.684,0,0,1-.627-1.215h0Z" transform="translate(-53.136 -81.128)" fill="#fff"/>
        <path id="Trazado_782000" data-name="Trazado 782000" d="M192.1,284.619l.892-.5.006,0a.679.679,0,0,1,.663,1.185l-.9.506a.68.68,0,1,1-.665-1.186h0Z" transform="translate(-54.333 -80.481)" fill="#fff"/>
        <path id="Trazado_782001" data-name="Trazado 782001" d="M196.239,282.248l.879-.522,0,0a.675.675,0,0,1,.691,1.161l-.885.528a.677.677,0,0,1-.693-1.162h0Z" transform="translate(-55.51 -79.801)" fill="#fff"/>
        <path id="Trazado_782002" data-name="Trazado 782002" d="M200.318,279.783l.871-.539h0a.672.672,0,0,1,.708,1.142l-.875.544a.673.673,0,0,1-.71-1.144h0Z" transform="translate(-56.67 -79.096)" fill="#fff"/>
        <path id="Trazado_782003" data-name="Trazado 782003" d="M204.368,277.254l.868-.548a.668.668,0,0,1,.716,1.129l-.869.552a.67.67,0,0,1-.717-1.131Z" transform="translate(-57.82 -78.376)" fill="#fff"/>
        <path id="Trazado_782004" data-name="Trazado 782004" d="M208.408,274.7l.869-.55a.665.665,0,0,1,.712,1.124l-.867.551a.666.666,0,1,1-.715-1.124Z" transform="translate(-58.965 -77.651)" fill="#fff"/>
        <path id="Trazado_782005" data-name="Trazado 782005" d="M212.455,272.148l.874-.545a.661.661,0,0,1,.7,1.123h0l-.869.544h0a.662.662,0,0,1-.7-1.123Z" transform="translate(-60.112 -76.932)" fill="#fff"/>
        <path id="Trazado_782006" data-name="Trazado 782006" d="M216.531,269.641l.881-.533a.658.658,0,0,1,.681,1.127h0l-.876.532h0a.659.659,0,0,1-.684-1.127Z" transform="translate(-61.265 -76.226)" fill="#fff"/>
        <path id="Trazado_782007" data-name="Trazado 782007" d="M220.641,267.189l.889-.521a.655.655,0,0,1,.662,1.13h0l-.883.52h0a.656.656,0,0,1-.665-1.13Z" transform="translate(-62.428 -75.536)" fill="#fff"/>
        <path id="Trazado_782008" data-name="Trazado 782008" d="M224.784,264.793l.9-.508a.651.651,0,1,1,.643,1.132h0l-.89.507h0a.652.652,0,0,1-.646-1.133Z" transform="translate(-63.6 -74.862)" fill="#fff"/>
        <path id="Trazado_782009" data-name="Trazado 782009" d="M228.96,262.455l.9-.5a.648.648,0,1,1,.623,1.135h0l-.9.5h0a.649.649,0,0,1-.627-1.136Z" transform="translate(-64.781 -74.204)" fill="#fff"/>
        <path id="Trazado_782010" data-name="Trazado 782010" d="M233.168,260.175l.909-.484a.644.644,0,1,1,.6,1.137h0l-.9.483h0a.645.645,0,0,1-.608-1.138Z" transform="translate(-65.972 -73.563)" fill="#fff"/>
        <path id="Trazado_782011" data-name="Trazado 782011" d="M237.406,257.952l.916-.471a.641.641,0,0,1,.586,1.139h0l-.91.471h0a.642.642,0,0,1-.59-1.139Z" transform="translate(-67.171 -72.938)" fill="#fff"/>
        <path id="Trazado_782012" data-name="Trazado 782012" d="M241.675,255.788l.922-.459a.637.637,0,0,1,.568,1.142h0l-.917.458h0a.638.638,0,0,1-.571-1.142Z" transform="translate(-68.379 -72.33)" fill="#fff"/>
        <path id="Trazado_782013" data-name="Trazado 782013" d="M245.973,253.682l.929-.446a.634.634,0,0,1,.548,1.142h0l-.923.445h0a.635.635,0,0,1-.552-1.143Z" transform="translate(-69.595 -71.738)" fill="#fff"/>
        <path id="Trazado_782014" data-name="Trazado 782014" d="M250.3,251.636l.935-.433a.63.63,0,1,1,.53,1.143h0l-.929.433h0a.631.631,0,0,1-.533-1.144Z" transform="translate(-70.82 -71.163)" fill="#fff"/>
        <path id="Trazado_782015" data-name="Trazado 782015" d="M254.653,249.648l.94-.42a.627.627,0,0,1,.512,1.144h0l-.934.42h0a.628.628,0,1,1-.515-1.145Z" transform="translate(-72.052 -70.604)" fill="#fff"/>
        <path id="Trazado_782016" data-name="Trazado 782016" d="M259.034,247.721l.946-.408a.623.623,0,1,1,.493,1.145h0l-.94.407h0a.624.624,0,1,1-.5-1.145Z" transform="translate(-73.291 -70.063)" fill="#fff"/>
        <path id="Trazado_782017" data-name="Trazado 782017" d="M263.44,245.853l.952-.394a.619.619,0,1,1,.474,1.145h0l-.946.394h0a.621.621,0,0,1-.478-1.146Z" transform="translate(-74.538 -69.538)" fill="#fff"/>
        <path id="Trazado_782018" data-name="Trazado 782018" d="M267.872,244.047l.957-.381a.616.616,0,0,1,.456,1.145h0l-.951.381h0a.617.617,0,0,1-.459-1.146Z" transform="translate(-75.792 -69.031)" fill="#fff"/>
        <path id="Trazado_782019" data-name="Trazado 782019" d="M272.329,242.3l.962-.368a.613.613,0,1,1,.438,1.144h0l-.957.368h0a.614.614,0,0,1-.441-1.145Z" transform="translate(-77.054 -68.541)" fill="#fff"/>
        <path id="Trazado_782020" data-name="Trazado 782020" d="M276.809,240.617l.967-.355a.609.609,0,0,1,.42,1.144h0l-.961.355h0a.61.61,0,1,1-.424-1.144Z" transform="translate(-78.322 -68.069)" fill="#fff"/>
        <path id="Trazado_782021" data-name="Trazado 782021" d="M281.312,239l.972-.342a.606.606,0,1,1,.4,1.143h0l-.966.342h0a.607.607,0,0,1-.4-1.144Z" transform="translate(-79.596 -67.614)" fill="#fff"/>
        <path id="Trazado_782022" data-name="Trazado 782022" d="M285.837,237.437l.978-.326a.6.6,0,1,1,.382,1.142h0l-.971.326h0a.6.6,0,0,1-.385-1.144Z" transform="translate(-80.876 -67.177)" fill="#fff"/>
        <path id="Trazado_782023" data-name="Trazado 782023" d="M290.393,235.96l.985-.305a.6.6,0,1,1,.355,1.144h0l-.977.305h0a.6.6,0,0,1-.358-1.145Z" transform="translate(-82.164 -66.766)" fill="#fff"/>
        <path id="Trazado_782024" data-name="Trazado 782024" d="M294.987,234.593l.995-.279a.6.6,0,1,1,.321,1.147h0l-.983.277h-.006a.6.6,0,1,1-.324-1.148Z" transform="translate(-83.462 -66.388)" fill="#fff"/>
        <path id="Trazado_782025" data-name="Trazado 782025" d="M299.622,233.365l1-.245a.592.592,0,1,1,.28,1.15H300.9l-.991.244H299.9a.593.593,0,0,1-.284-1.152Z" transform="translate(-84.771 -66.051)" fill="#fff"/>
        <path id="Trazado_782026" data-name="Trazado 782026" d="M304.3,232.306l1.015-.2a.589.589,0,0,1,.233,1.154h-.006l-1,.2h-.008a.59.59,0,0,1-.236-1.155Z" transform="translate(-86.091 -65.763)" fill="#fff"/>
        <path id="Trazado_782027" data-name="Trazado 782027" d="M309.028,231.449l1.024-.158a.585.585,0,0,1,.178,1.157h-.008l-1.006.157h-.009a.586.586,0,0,1-.181-1.158Z" transform="translate(-87.424 -65.535)" fill="#fff"/>
        <path id="Trazado_782028" data-name="Trazado 782028" d="M313.795,230.827l1.031-.1a.582.582,0,0,1,.115,1.157h-.009l-1.012.1h-.01a.582.582,0,1,1-.118-1.159Z" transform="translate(-88.766 -65.376)" fill="#fff"/>
        <path id="Trazado_782029" data-name="Trazado 782029" d="M318.594,230.478l1.036-.039a.578.578,0,0,1,.044,1.155h-.01l-1.014.041h-.011a.579.579,0,1,1-.047-1.157Z" transform="translate(-90.117 -65.296)" fill="#fff"/>
        <path id="Trazado_782030" data-name="Trazado 782030" d="M323.409,230.428l1.038.032a.568.568,0,0,1-.032,1.136H324.4l-1.013-.026h-.012a.571.571,0,1,1,.029-1.142Z" transform="translate(-91.472 -65.293)" fill="#fff"/>
        <path id="Trazado_782031" data-name="Trazado 782031" d="M328.224,230.7l1.036.111a.558.558,0,0,1-.115,1.11l-.015,0-1.008-.1h-.014a.561.561,0,0,1,.113-1.117Z" transform="translate(-92.828 -65.369)" fill="#fff"/>
        <path id="Trazado_782032" data-name="Trazado 782032" d="M333.008,231.36l1.022.2a.548.548,0,0,1-.207,1.076l-.014,0-1-.189-.014,0a.551.551,0,1,1,.206-1.082Z" transform="translate(-94.173 -65.554)" fill="#fff"/>
        <path id="Trazado_782033" data-name="Trazado 782033" d="M337.718,232.431l1,.288a.538.538,0,0,1-.295,1.034l-.014,0-.975-.274-.014,0a.541.541,0,0,1,.294-1.041Z" transform="translate(-95.498 -65.854)" fill="#fff"/>
        <path id="Trazado_782034" data-name="Trazado 782034" d="M342.316,233.911l.971.377a.527.527,0,0,1-.378.985l-.014-.005-.947-.361-.014-.005a.531.531,0,1,1,.378-.992Z" transform="translate(-96.792 -66.269)" fill="#fff"/>
        <path id="Trazado_782035" data-name="Trazado 782035" d="M346.762,235.8l.932.467a.517.517,0,0,1-.461.927l-.014-.007-.907-.448-.014-.007a.52.52,0,1,1,.461-.933Z" transform="translate(-98.043 -66.8)" fill="#fff"/>
        <path id="Trazado_782036" data-name="Trazado 782036" d="M351.008,238.116l.88.559a.507.507,0,0,1-.54.859l-.014-.009-.857-.537-.014-.009a.51.51,0,0,1,.542-.865Z" transform="translate(-99.237 -67.448)" fill="#fff"/>
        <path id="Trazado_782037" data-name="Trazado 782037" d="M354.993,240.857l.816.654a.5.5,0,0,1-.619.778l-.014-.011-.793-.627-.013-.01a.5.5,0,0,1,.621-.785Z" transform="translate(-100.358 -68.217)" fill="#fff"/>
        <path id="Trazado_782038" data-name="Trazado 782038" d="M358.647,244.032l.732.746a.487.487,0,0,1-.692.684l-.013-.013-.712-.716-.013-.013a.49.49,0,0,1,.7-.691Z" transform="translate(-101.386 -69.106)" fill="#fff"/>
        <path id="Trazado_782039" data-name="Trazado 782039" d="M361.889,247.631l.631.834a.477.477,0,0,1-.758.578l-.012-.016-.613-.8-.011-.015a.48.48,0,0,1,.762-.584Z" transform="translate(-102.298 -70.113)" fill="#fff"/>
        <path id="Trazado_782040" data-name="Trazado 782040" d="M364.632,251.625l.512.912a.467.467,0,0,1-.813.459l-.009-.017-.5-.875-.01-.017a.47.47,0,0,1,.817-.464Z" transform="translate(-103.071 -71.231)" fill="#fff"/>
        <path id="Trazado_782041" data-name="Trazado 782041" d="M168.359,253.808H144.791A8.186,8.186,0,0,0,137.7,257.9l-11.784,20.411a8.185,8.185,0,0,0,0,8.185L137.7,306.906A8.186,8.186,0,0,0,144.791,311h23.568a8.185,8.185,0,0,0,7.088-4.092L187.231,286.5a8.185,8.185,0,0,0,0-8.185L175.447,257.9a8.185,8.185,0,0,0-7.088-4.092" transform="translate(-35.369 -71.918)" fill="#5573c6"/>
        <path id="Trazado_782042" data-name="Trazado 782042" d="M146.34,308.63a4.281,4.281,0,0,1-3.7-2.133l-11.784-20.411a4.281,4.281,0,0,1,0-4.268l11.784-20.411a4.281,4.281,0,0,1,3.7-2.133h23.568a4.279,4.279,0,0,1,3.7,2.133l11.785,20.411a4.279,4.279,0,0,1,0,4.268L173.6,306.5a4.279,4.279,0,0,1-3.7,2.133Z" transform="translate(-36.918 -73.466)" fill="#85a0dd"/>
        <g id="Grupo_1033603" data-name="Grupo 1033603" transform="translate(101.195 199.822)" opacity="0.63">
          <g id="Grupo_1033602" data-name="Grupo 1033602">
            <g id="Grupo_1033601" data-name="Grupo 1033601" clip-path="url(#clip-path-40)">
              <g id="Grupo_1033600" data-name="Grupo 1033600" transform="translate(0 0)">
                <g id="Grupo_1033599" data-name="Grupo 1033599" clip-path="url(#clip-path-41)">
                  <rect id="Rectángulo_366454" data-name="Rectángulo 366454" width="42.25" height="47.53" transform="translate(-11.022 21.833) rotate(-63.435)" fill="url(#linear-gradient-29)"/>
                </g>
              </g>
            </g>
          </g>
        </g>
        <path id="Trazado_782044" data-name="Trazado 782044" d="M153.391,297.3c.1.174.192.343.284.5l.334-.5V274.671a.531.531,0,1,0-1.061,0v21.851c.145.247.292.5.444.774" transform="translate(-43.338 -77.679)" fill="#bfcce8"/>
        <path id="Trazado_782045" data-name="Trazado 782045" d="M170.3,287.3V274.671a.531.531,0,1,0-1.061,0v12.336a4.168,4.168,0,0,1,1.061.291" transform="translate(-47.954 -77.679)" fill="#bfcce8"/>
        <path id="Trazado_782046" data-name="Trazado 782046" d="M162.153,289.178V274.67a.531.531,0,0,0-1.061,0v15.845c.389-.511.747-.964,1.061-1.337" transform="translate(-45.646 -77.679)" fill="#bfcce8"/>
        <path id="Trazado_782047" data-name="Trazado 782047" d="M177.807,295.3l.638-1.221V274.67a.531.531,0,0,0-1.061,0v19.8Z" transform="translate(-50.262 -77.679)" fill="#bfcce8"/>
        <path id="Trazado_782048" data-name="Trazado 782048" d="M186.589,281.645v-6.974a.531.531,0,1,0-1.061,0v8.268Z" transform="translate(-52.57 -77.679)" fill="#bfcce8"/>
        <path id="Trazado_782049" data-name="Trazado 782049" d="M145.822,291.774l.04,0v-17.1a.531.531,0,0,0-1.061,0v17.275a8.163,8.163,0,0,1,1.021-.171" transform="translate(-41.03 -77.679)" fill="#bfcce8"/>
      </g>
    </g>
  </g>
</svg>
