<svg id="Grupo_1030485" data-name="Grupo 1030485" xmlns="http://www.w3.org/2000/svg" xmlns:xlink="http://www.w3.org/1999/xlink" width="185.641" height="185.865" viewBox="0 0 185.641 185.865">
  <defs>
    <clipPath id="clip-path">
      <rect id="Rectángulo_363846" data-name="Rectángulo 363846" width="185.641" height="185.865" fill="none"/>
    </clipPath>
  </defs>
  <g id="Grupo_1030484" data-name="Grupo 1030484" clip-path="url(#clip-path)">
    <path id="Trazado_771405" data-name="Trazado 771405" d="M181.438,128.761c1.835.024,2.872.62,3.362,2.72,2.23,9.546-.027,17.915-6.181,25.342a9.279,9.279,0,0,0-2.281,6.013,12.575,12.575,0,0,1-3.248,8.327,13.275,13.275,0,0,1-4.457,3.636c-.533.238-.612.371-.368,1.005,2.09,5.445-2.923,10.445-7.715,10.04a58.3,58.3,0,0,0-9.422,0c-4.2.33-9.293-5.474-6.846-9.882.375-.676.024-.856-.517-1.181-4.861-2.924-7.668-7.072-7.71-12.915a7.267,7.267,0,0,0-2.024-4.751,26.971,26.971,0,0,1-6.264-12.282c-.275-1.22-.747-1.608-1.992-1.607-36.815.031-73.63-.032-110.445.084-5.822.019-10-3.807-10.7-8.242a34.058,34.058,0,0,1-.059-8.447c.16-1.757,1.545-2.243,3.136-2.241,4.05,0,8.1-.075,12.15.04,1.559.044,1.859-.477,1.855-1.929q-.075-25.571-.013-51.142c0-1.355-.013-2-1.678-1.217-3.5,1.645-3.7,1.525-6.448-1.224-1.752-1.752-3.445-3.57-5.272-5.24a2.924,2.924,0,0,1-.8-3.523,31.981,31.981,0,0,1,1.233-3.225c.86-1.8,1.7-3.524.411-5.654a7.5,7.5,0,0,0-2.705-2.69C4.474,47.35,1.747,47.621.348,45.391.189,42.842.769,40.26,0,37.739V33.022a3.667,3.667,0,0,1,1.672-1.433c1.448-.6,2.912-1.161,4.332-1.82.7-.326,1.627-.389,1.967-1.274,1.757-4.568,1.752-4.569-.275-9.386a12.117,12.117,0,0,0-.473-1.316,2.274,2.274,0,0,1,.561-2.869C10,12.6,12.3,10.351,14.584,8.092a2.757,2.757,0,0,1,3.274-.58c.955.412,1.967.718,2.871,1.218,1.913,1.06,3.579.864,5.706.136,2.336-.8,2.955-2.255,3.773-4.174.726-1.7.93-3.951,3.177-4.693h12.7a22.761,22.761,0,0,0,3.372,8.158c.988,1.5,4.2,1.943,5.821,1.241,1.4-.6,2.806-1.175,4.206-1.77a3.721,3.721,0,0,1,4.471.978c2.029,2.072,4.074,4.13,6.153,6.152a2.593,2.593,0,0,1,.7,3.182c-.808,1.924-1.469,3.911-2.3,5.822-.207.475-.466,1.013-.236,1.341,1.17,1.661,1.268,4.126,3.915,4.713a25.2,25.2,0,0,1,4.43,1.964,2.915,2.915,0,0,1,1.826,2.957c-.009,1.994.123,4-.013,5.981-.105,1.54.414,1.866,1.9,1.863q35.99-.073,71.981-.032a14.441,14.441,0,0,1,5.524,1c4.434,1.817,6.242,5.427,6.259,9.933q.1,27.106-.005,54.212c-.005,1.677.515,2.233,2.162,2.7,4.288,1.214,7.82,3.857,11.014,6.891,1.028.976.5,2.188-.228,3.222-1.809,1.481-2.368,1.486-4.089.051-3.1-2.585-6.4-4.864-10.425-5.7-2.727-.566-5.474-1.437-8.316-.574a20.732,20.732,0,0,0-14.116,6.057,24.644,24.644,0,0,0-7.668,18.344,22.632,22.632,0,0,0,6.048,15.266,11.813,11.813,0,0,1,2.976,9.5c-.041.321-.334.566-.081.958,1.118,1.735,2,3.6,3.643,5,2.092,1.779,4.543,1.407,6.955,1.537,1.314.071,1.751-.248,1.725-1.659-.094-5.2-.008-10.4-.055-15.6-.015-1.6.709-3.675-.334-4.687-.955-.926-2.994-.214-4.554-.266-2.2-.074-3.261-.958-3.248-2.764.015-1.906.884-2.662,3.2-2.672,4.776-.02,9.553.05,14.328-.037a4.186,4.186,0,0,1,3.966,1.886c-.039,1.042.3,2.181-.758,2.961-1.817,1.124-3.828.531-5.75.583-1.1.03-1.447.333-1.416,1.433.07,2.452.016,4.908.012,7.362a30.1,30.1,0,0,0-.01,6.53q.01,2.9.02,5.8c0,.55-.06,1.062.78,1.113,3.2.195,6.257-.153,8.619-2.562,1.5-1.526,2.871-3.063,2.5-5.651-.51-3.513,1.122-6.521,3.329-9.129,4.987-5.895,6.9-12.558,5.4-20.174-.168-.851.017-1.7-.234-2.628s1.047-1.561,1.963-2.022M52.69,29.753c2.628,3.376,3.232,7.344,3.162,11.439-.021,1.222.324,1.394,1.375,1.378,3.445-.051,6.892.025,10.337-.037,1.785-.032,4.234.806,5.173-.374.89-1.12.234-3.463.276-5.267.018-.76-.007-1.161-1.041-1.415a32.071,32.071,0,0,1-5.226-2.106c-1.719-.766-1.5-2.734-2.391-4.01C62.4,26.553,62.046,23.7,63.87,20.7c.305-.5.493-1.076.762-1.6a1.945,1.945,0,0,0-.543-2.76c-1.218-.976-2.148-2.75-3.458-3.046-1.215-.274-2.788.9-4.164,1.518-2.184.987-4.29,1.192-6.364-.272a3.648,3.648,0,0,0-1.439-.688,5.321,5.321,0,0,1-4.683-4.264c-.828-3.564-2.881-4.665-6.4-4.23-1.537.19-2.384.56-2.735,2.012-.081.336-.2.664-.3,1-.737,2.751-2.2,4.727-5.265,5.113a3.753,3.753,0,0,0-1.774.71c-2.327,1.829-4.673,1.457-7.077.229-.471-.24-1.011-.359-1.453-.639-1.261-.8-2.108-.45-3.118.616-3.057,3.227-3.155,3.195-1.312,7.322a5.02,5.02,0,0,1-.158,5.155,12.227,12.227,0,0,0-1.608,3.866,4.321,4.321,0,0,1-3.3,3.437c-4.05,1.356-4.031,1.413-4.018,5.649a6.642,6.642,0,0,1-.006,1.086,1.786,1.786,0,0,0,1.631,2.28,4.262,4.262,0,0,1,1.34.4c1.561.951,3.771,1.056,4.539,3.043A48.919,48.919,0,0,0,15.2,51.773a3.1,3.1,0,0,1,.111,2.876c-.73,1.655-1.233,3.411-1.968,5.064-.3.671-.4,1.2.237,1.533a10.75,10.75,0,0,1,3.148,2.913c1.406,1.711,2.579.117,3.832-.055,1.07-.147,1.135-1,1.128-1.924-.027-3.384.037-6.768.007-10.152A8.174,8.174,0,0,1,23.738,46.5a2.006,2.006,0,0,0,.437-2.138,15.435,15.435,0,0,1-.619-8.018,15.967,15.967,0,0,1,13.99-13.064A16.17,16.17,0,0,1,52.69,29.753M145.854,48.1c-.782-.04-1.565-.115-2.347-.116q-22.4-.01-44.807-.005H33.031a8.393,8.393,0,0,0-3.84.669c-2.137,1.056-2.073,2.993-2.073,4.942q.01,33.107,0,66.213c0,4.6,0,4.513,4.677,4.633,1.732.045,2.08-.521,2.076-2.136q-.076-31.383-.032-62.766a18.853,18.853,0,0,1,.041-1.993c.2-1.832,1.034-2.661,2.921-2.688q5.532-.08,11.065,0c1.929.024,2.775.9,2.971,2.847-.226,1.821-1.427,2.521-3.088,2.56-2.176.051-4.363.133-6.528-.027-1.636-.121-1.979.4-1.974,1.988q.088,30.116,0,60.232c-.005,1.655.456,1.967,2.015,1.964,28.665-.049,57.33-.1,85.994.067,2.581.015,3.742-1.265,4.759-2.878a26.111,26.111,0,0,1,12.528-10.515,2.629,2.629,0,0,0,1.994-2.86q-.09-22.859.006-45.718c.008-1.767-.328-2.3-2.226-2.292-27.032.065-54.064.027-81.1.036A2.677,2.677,0,0,1,60.2,57.693c.07-1.152.474-2.21,1.646-2.493a16.106,16.106,0,0,1,3.738-.355q39.515-.027,79.03-.017c.784,0,1.568-.044,2.351-.067,4.723.291,4.993.584,4.993,5.421v45.483a5.73,5.73,0,0,1-.028,1.8c-.481,1.37.343,1.441,1.263,1.385,1.187-.072,2.5-.618,3.527-.276,2.126.705,1.961-.427,1.959-1.813q-.026-25.732-.015-51.463c0-.965-.018-1.932-.093-2.894a4.158,4.158,0,0,0-3.892-4.158,40.884,40.884,0,0,0-8.822-.148M68.971,129.819H13.454c-3.918,0-3.918,0-3.655,3.856a4.568,4.568,0,0,0,4.358,4.119l109.946.017c.484,0,.97-.033,1.451.006,1.094.088,1.6-.394,1.464-1.481a10.435,10.435,0,0,1,.529-4.78c.671-1.859-.12-1.752-1.425-1.751q-28.575.029-57.15.013M39.777,42.547c3.31,0,6.036-.112,8.745.049a1.537,1.537,0,0,0,1.85-1.506,10.442,10.442,0,0,0,.007-3.419A11.461,11.461,0,0,0,39,28.537c-5-.05-11.5,5.923-10.261,11.929.172.834-.1,2.611,1.7,2.324,3.308-.53,6.625-.034,9.34-.243M156.034,180.33v.012c1.812,0,3.63.089,5.433-.037.919-.065,1.884-.348,1.854-1.719-.027-1.209-.507-2.128-1.66-2.162q-5.43-.159-10.867,0a1.7,1.7,0,0,0-1.622,2.135c.141.955.505,1.823,1.791,1.78,1.689-.055,3.381-.013,5.072-.013"/>
    <path id="Trazado_771406" data-name="Trazado 771406" d="M0,103.76c.769,2.521.189,5.1.348,7.652l-.171-.048L0,111.38Z" transform="translate(0 -66.021)" fill="#16161f"/>
    <path id="Trazado_771407" data-name="Trazado 771407" d="M435.993,347.394c1.061-.78.72-1.919.759-2.961.419-.056.555-.315.674-.713a23.119,23.119,0,0,0,.589-10.049,26.3,26.3,0,0,0-14.05-20.1c2.842-.863,5.588.008,8.316.574,4.025.835,7.323,3.114,10.424,5.7,1.721,1.435,2.281,1.43,4.089-.052,1.174,2.382,2.988,4.4,3.908,6.929.161.444.331.886.5,1.328-.916.462-2.214,1.095-1.963,2.022s.065,1.776.234,2.627c1.5,7.616-.41,14.28-5.4,20.174-2.206,2.608-3.839,5.616-3.329,9.129.376,2.588-1,4.125-2.495,5.651-2.363,2.409-5.424,2.756-8.62,2.562-.839-.051-.778-.563-.78-1.113q-.009-2.9-.02-5.8.119-2.192.238-4.386a29.121,29.121,0,0,1,3.139-4.925c1.576-1.986,3.272-3.973,3.787-6.6" transform="translate(-269.761 -199.287)" fill="#e6b046"/>
    <path id="Trazado_771408" data-name="Trazado 771408" d="M424.027,84.3c-.015-1.7.748-2.486,2.425-2.49,1.43,0,2.949,1.092,2.988,2.156.052,1.389-1.43,3.244-2.628,3.287a2.748,2.748,0,0,1-2.785-2.953" transform="translate(-269.8 -52.054)"/>
    <path id="Trazado_771409" data-name="Trazado 771409" d="M426.491,46.438a2.847,2.847,0,0,1-2.48,2.9,3.509,3.509,0,0,1-2.948-2.848,2.755,2.755,0,0,1,2.779-2.594c1.829.018,2.649.8,2.649,2.541" transform="translate(-267.914 -27.931)"/>
    <path id="Trazado_771410" data-name="Trazado 771410" d="M386.582,46.434a2.849,2.849,0,0,1-2.474,2.908,3.512,3.512,0,0,1-2.954-2.843,2.755,2.755,0,0,1,2.774-2.6c1.831.016,2.653.8,2.654,2.535" transform="translate(-242.521 -27.932)"/>
    <path id="Trazado_771411" data-name="Trazado 771411" d="M346.678,46.489a2.828,2.828,0,0,1-2.531,2.85,3.507,3.507,0,0,1-2.9-2.9,2.753,2.753,0,0,1,2.83-2.542c1.81.032,2.607.827,2.6,2.592" transform="translate(-217.132 -27.931)"/>
    <path id="Trazado_771412" data-name="Trazado 771412" d="M306.771,46.516a2.821,2.821,0,0,1-2.558,2.824,3.5,3.5,0,0,1-2.869-2.927A2.754,2.754,0,0,1,304.2,43.9c1.8.04,2.585.839,2.57,2.619" transform="translate(-191.739 -27.93)"/>
    <path id="Trazado_771413" data-name="Trazado 771413" d="M266.863,46.541a2.817,2.817,0,0,1-2.584,2.8,3.518,3.518,0,0,1-2.844-2.953,2.76,2.76,0,0,1,2.883-2.49c1.791.047,2.565.851,2.545,2.644" transform="translate(-166.346 -27.93)"/>
    <path id="Trazado_771414" data-name="Trazado 771414" d="M226.956,46.523a2.819,2.819,0,0,1-2.567,2.816,3.505,3.505,0,0,1-2.86-2.94,2.757,2.757,0,0,1,2.873-2.5c1.8.044,2.571.84,2.554,2.626" transform="translate(-140.954 -27.93)"/>
    <path id="Trazado_771415" data-name="Trazado 771415" d="M104.726,452.9a2.36,2.36,0,0,1,2.707,1.634,2.929,2.929,0,0,1-2.941,3.445,2.743,2.743,0,0,1-2.726-2.814c-.027-1.405,1.107-2.274,2.96-2.266" transform="translate(-64.752 -288.15)"/>
    <path id="Trazado_771416" data-name="Trazado 771416" d="M144.676,452.9a2.31,2.31,0,0,1,2.663,1.671,2.9,2.9,0,0,1-2.98,3.408,2.74,2.74,0,0,1-2.685-2.855c0-1.384,1.158-2.239,3-2.224" transform="translate(-90.145 -288.154)"/>
    <path id="Trazado_771417" data-name="Trazado 771417" d="M184.246,457.99a2.747,2.747,0,0,1-2.666-2.874c.018-1.385,1.17-2.162,3.021-2.226a2.414,2.414,0,0,1,2.644,1.707,2.891,2.891,0,0,1-3,3.394" transform="translate(-115.536 -288.164)"/>
    <path id="Trazado_771418" data-name="Trazado 771418" d="M224.388,452.919c1.376-.146,2.733.623,2.7,1.713-.071,2.172-.682,3.32-2.821,3.363a2.762,2.762,0,0,1-2.781-2.934c.068-1.374,1.106-2.14,2.905-2.142" transform="translate(-140.923 -288.173)"/>
    <path id="Trazado_771419" data-name="Trazado 771419" d="M266.838,455.351a2.459,2.459,0,0,1-2.741,2.678,2.806,2.806,0,0,1-2.7-2.889c.023-1.347,1.123-2.183,2.879-2.191,1.8-.007,2.569.712,2.563,2.4" transform="translate(-166.321 -288.203)"/>
    <path id="Trazado_771420" data-name="Trazado 771420" d="M306.741,455.4a2.427,2.427,0,0,1-2.8,2.627A2.785,2.785,0,0,1,301.3,455.1c.062-1.432,1.158-2.193,3.1-2.153a2.115,2.115,0,0,1,2.338,2.453" transform="translate(-191.71 -288.201)"/>
    <path id="Trazado_771421" data-name="Trazado 771421" d="M102.757,415.037c1.708.011,2.486.8,2.453,2.5a2.424,2.424,0,0,1-2.647,2.6,2.821,2.821,0,0,1-2.8-2.637c.063-1.592,1.136-2.476,2.989-2.464" transform="translate(-63.48 -264.08)"/>
    <path id="Trazado_771422" data-name="Trazado 771422" d="M344.183,452.949c1.753.011,2.5.758,2.467,2.481s-1,2.626-2.8,2.6a2.766,2.766,0,0,1-2.642-2.9c.036-1.182,1.408-2.185,2.975-2.175" transform="translate(-217.104 -288.203)"/>
    <path id="Trazado_771423" data-name="Trazado 771423" d="M128.857,158.619a2.676,2.676,0,0,0,3.024,2.558c27.032-.009,54.064.029,81.1-.036,1.9,0,2.235.526,2.226,2.293q-.109,22.859-.006,45.718a2.629,2.629,0,0,1-1.993,2.86,26.109,26.109,0,0,0-12.528,10.515c-1.017,1.613-2.178,2.893-4.759,2.878-28.664-.164-57.329-.116-85.994-.068-1.558,0-2.02-.309-2.015-1.964q.1-30.116,0-60.232c0-1.584.338-2.109,1.974-1.989,2.165.16,4.352.077,6.528.027,1.661-.039,2.862-.739,3.088-2.56h9.353m32.156,11.551v.067c-12.633,0-25.266-.091-37.9.041a10.563,10.563,0,0,0-10.146,10.471c-.033,8.281,0,16.563-.022,24.844a10.757,10.757,0,0,0,4.7,8.924c2.37,1.8,5.1,2.016,8.021,2.006,24-.08,48-.043,71.994-.052a12.578,12.578,0,0,0,4.264-.414c5.448-1.915,8.11-5.633,8.2-11.992.11-7.494.077-14.992,0-22.487a11.687,11.687,0,0,0-3.3-7.971,11.069,11.069,0,0,0-8.456-3.424c-12.452-.036-24.9-.015-37.357-.015" transform="translate(-68.66 -100.926)" fill="#d4d8ff"/>
    <path id="Trazado_771424" data-name="Trazado 771424" d="M107.637,141.622H98.284c-.2-1.943-1.042-2.823-2.971-2.847q-5.532-.07-11.065,0c-1.887.028-2.726.856-2.921,2.688a18.855,18.855,0,0,0-.041,1.993q0,31.383.032,62.766c0,1.615-.344,2.181-2.076,2.137-4.675-.121-4.677-.035-4.677-4.633q0-33.107,0-66.213c0-1.949-.064-3.887,2.073-4.943a8.392,8.392,0,0,1,3.839-.669H146.14q22.4,0,44.807.005c.782,0,1.565.075,2.347.115.486,2.2,1.536,4.31,1.108,6.663-.784.023-1.568.067-2.351.067q-39.515.005-79.029.017a16.106,16.106,0,0,0-3.738.355c-1.172.283-1.576,1.341-1.646,2.493" transform="translate(-47.441 -83.929)" fill="#5573c6"/>
    <path id="Trazado_771425" data-name="Trazado 771425" d="M385.854,314.2a26.3,26.3,0,0,1,14.05,20.1,23.12,23.12,0,0,1-.589,10.049c-.119.4-.255.657-.673.713a4.187,4.187,0,0,0-3.966-1.886c-4.775.087-9.552.017-14.328.037-2.318.01-3.187.767-3.2,2.672-.014,1.806,1.048,2.69,3.248,2.764,1.56.052,3.6-.661,4.554.266,1.043,1.012.319,3.082.334,4.687.047,5.2-.039,10.4.055,15.6.026,1.411-.411,1.73-1.725,1.659-2.413-.13-4.863.242-6.955-1.537-1.639-1.394-2.525-3.261-3.643-5-.253-.392.039-.637.08-.958a11.811,11.811,0,0,0-2.976-9.5,22.632,22.632,0,0,1-6.048-15.266,24.645,24.645,0,0,1,7.668-18.344,20.733,20.733,0,0,1,14.116-6.057" transform="translate(-231.651 -199.923)" fill="#e6b046"/>
    <path id="Trazado_771426" data-name="Trazado 771426" d="M85.942,356.9q28.575,0,57.15-.013c1.3,0,2.1-.108,1.425,1.751a10.441,10.441,0,0,0-.529,4.78c.138,1.087-.37,1.569-1.464,1.481-.481-.039-.967-.006-1.451-.006l-109.946-.017a4.568,4.568,0,0,1-4.358-4.12c-.262-3.856-.262-3.856,3.655-3.856Z" transform="translate(-16.972 -227.077)" fill="#5573c6"/>
    <path id="Trazado_771427" data-name="Trazado 771427" d="M62.149,44.382a16.17,16.17,0,0,0-15.143-6.473,15.967,15.967,0,0,0-13.99,13.064,15.435,15.435,0,0,0,.619,8.018,2.007,2.007,0,0,1-.437,2.138,8.172,8.172,0,0,0-2.043,5.529c.03,3.384-.034,6.768-.007,10.152.007.921-.058,1.777-1.128,1.924-1.253.172-2.426,1.766-3.832.055a10.75,10.75,0,0,0-3.148-2.913c-.639-.338-.536-.863-.237-1.533.735-1.652,1.238-3.408,1.968-5.064A3.1,3.1,0,0,0,24.66,66.4a48.85,48.85,0,0,1-2.241-5.147c-.768-1.987-2.978-2.091-4.539-3.043a4.262,4.262,0,0,0-1.34-.4,1.785,1.785,0,0,1-1.631-2.28,6.642,6.642,0,0,0,.005-1.086c-.012-4.235-.032-4.292,4.019-5.649a4.321,4.321,0,0,0,3.3-3.437A12.235,12.235,0,0,1,23.839,41.5,5.019,5.019,0,0,0,24,36.342c-1.843-4.127-1.744-4.094,1.312-7.322,1.01-1.066,1.857-1.412,3.118-.616.442.279.983.4,1.453.639,2.4,1.228,4.751,1.6,7.077-.229a3.753,3.753,0,0,1,1.774-.71C41.8,27.718,43.26,25.742,44,22.991a34.951,34.951,0,0,1,12.142,9.125,32.513,32.513,0,0,1,6.347,11.2c.152.45.483.935-.336,1.07" transform="translate(-9.459 -14.629)" fill="#4adbd1"/>
    <path id="Trazado_771428" data-name="Trazado 771428" d="M113.111,38.962c.82-.135.488-.621.336-1.07A32.513,32.513,0,0,0,107.1,26.7a34.951,34.951,0,0,0-12.142-9.125c.1-.332.221-.659.3-1,.352-1.452,1.2-1.823,2.736-2.012,3.524-.436,5.577.665,6.4,4.23a5.321,5.321,0,0,0,4.682,4.264,3.65,3.65,0,0,1,1.439.688c2.074,1.464,4.18,1.259,6.364.272,1.376-.622,2.949-1.792,4.164-1.518,1.31.3,2.24,2.07,3.458,3.046a1.945,1.945,0,0,1,.543,2.76c-.268.527-.456,1.1-.762,1.6-1.824,3.006-1.475,5.854.486,8.662.891,1.275.671,3.244,2.391,4.01a32.072,32.072,0,0,0,5.226,2.106c1.034.255,1.059.655,1.041,1.415-.043,1.8.614,4.147-.276,5.267-.939,1.18-3.388.342-5.173.374-3.444.062-6.891-.014-10.337.037-1.051.016-1.4-.156-1.375-1.378.07-4.095-.534-8.063-3.162-11.439" transform="translate(-60.421 -9.209)" fill="#4adbd1"/>
    <path id="Trazado_771429" data-name="Trazado 771429" d="M402.116,138.613c.428-2.354-.622-4.462-1.108-6.663a40.907,40.907,0,0,1,8.822.148,4.158,4.158,0,0,1,3.892,4.158c.076.961.093,1.929.093,2.894q.008,25.732.015,51.463c0,1.386.167,2.518-1.959,1.813-1.03-.342-2.339.2-3.527.276-.92.056-1.744-.015-1.263-1.385a5.73,5.73,0,0,0,.028-1.8V144.034c0-4.837-.271-5.13-4.993-5.421" transform="translate(-255.154 -83.852)" fill="#5573c6"/>
    <path id="Trazado_771430" data-name="Trazado 771430" d="M89.778,92.47c-2.714.21-6.032-.286-9.34.243-1.8.288-1.528-1.49-1.7-2.324C77.5,84.383,84,78.41,89,78.46a11.461,11.461,0,0,1,11.381,9.134,10.462,10.462,0,0,1-.007,3.419,1.537,1.537,0,0,1-1.85,1.506c-2.709-.161-5.435-.049-8.745-.049" transform="translate(-50.001 -49.923)" fill="#fff"/>
    <path id="Trazado_771431" data-name="Trazado 771431" d="M416.942,488.828c-1.691,0-3.383-.042-5.072.013-1.286.042-1.65-.825-1.791-1.78a1.7,1.7,0,0,1,1.622-2.135q5.43-.16,10.867,0c1.154.034,1.633.953,1.66,2.162.03,1.371-.934,1.654-1.854,1.719-1.8.127-3.621.037-5.433.037v-.012" transform="translate(-260.908 -308.497)" fill="#dee4f0"/>
    <path id="Trazado_771432" data-name="Trazado 771432" d="M444.5,407.2c-.515,2.625-2.211,4.611-3.787,6.6a29.109,29.109,0,0,0-3.139,4.925q-.113-1.072-.227-2.145c0-2.454.058-4.91-.012-7.362-.031-1.1.311-1.4,1.416-1.432,1.922-.052,3.932.541,5.749-.583" transform="translate(-278.266 -259.096)" fill="#fad238"/>
    <path id="Trazado_771433" data-name="Trazado 771433" d="M437.05,432.985q.114,1.073.228,2.145-.119,2.193-.238,4.386a30.113,30.113,0,0,1,.011-6.531" transform="translate(-277.971 -275.501)" fill="#555"/>
    <path id="Trazado_771434" data-name="Trazado 771434" d="M169.83,190.365c12.452,0,24.9-.021,37.357.015a11.07,11.07,0,0,1,8.456,3.424,11.685,11.685,0,0,1,3.3,7.971c.076,7.495.11,14.992,0,22.486-.094,6.36-2.756,10.078-8.2,11.993a12.58,12.58,0,0,1-4.264.414c-24,.009-48-.029-71.994.052-2.918.01-5.65-.206-8.02-2.006a10.759,10.759,0,0,1-4.7-8.924c.02-8.282-.011-16.563.022-24.844a10.564,10.564,0,0,1,10.146-10.471c12.631-.132,25.265-.041,37.9-.041v-.067m.552,5.509v-.068h-10.7c-8.825,0-17.649-.036-26.473.017-4,.024-5.914,2.185-5.955,5.136-.117,8.46-.069,16.923-.055,25.384a5.526,5.526,0,0,0,4.916,4.89q36.445,0,72.89,0a6.264,6.264,0,0,1,.906.007c5.016.739,7.536-2.369,7.595-6.784.1-7.433.195-14.874-.038-22.3-.131-4.159-1.8-6.17-6.1-6.224-12.327-.155-24.657-.055-36.985-.055" transform="translate(-77.477 -121.122)"/>
    <path id="Trazado_771435" data-name="Trazado 771435" d="M179.854,205.382c12.329,0,24.659-.1,36.985.055,4.3.054,5.971,2.065,6.1,6.224.232,7.427.137,14.867.038,22.3-.059,4.415-2.578,7.524-7.595,6.784a6.264,6.264,0,0,0-.906-.007q-36.445,0-72.89,0a5.527,5.527,0,0,1-4.916-4.89c-.014-8.462-.062-16.925.055-25.385.041-2.951,1.951-5.112,5.955-5.136,8.824-.053,17.649-.017,26.473-.017h10.7v.068M196,223.45a1.766,1.766,0,0,1,.881,1.224c.867,2.911,1.7,5.833,2.561,8.746.422,1.427,1.1,2.653,2.789,2.806a2.971,2.971,0,0,0,3.43-2.4c.334-1.166.707-2.321,1.049-3.486.673-2.286,1.337-4.574,2.085-7.139a3.769,3.769,0,0,1,.437.717c.613,3.111,1.252,6.217,1.8,9.338.378,2.131,2.018,3.315,3.821,2.636,1.4-.525,2.027-1.918,1.615-3.714-1.445-6.3-2.458-12.687-3.655-19.037-.263-1.394-.636-2.938-2.618-3.061-2.541-.157-2.866.115-3.9,2.277-.455.947-.579,2-1.006,2.829a12.253,12.253,0,0,0-1.45,4.924,16.768,16.768,0,0,1-1.03,4.289,3.078,3.078,0,0,1-.849-1.485c-1.057-3.549-2.115-7.1-3.25-10.622-.683-2.119-1.54-2.54-4.3-2.182-1.605.208-1.621,1.633-1.859,2.8-.481,2.362-.919,4.734-1.353,7.105-.77,4.2-1.569,8.4-2.255,12.622a3.041,3.041,0,0,0,1.234,3.137c1.759,1.192,3.734-.082,4.175-2.659.543-3.172,1.081-6.345,1.647-9.672m-16.466,2.38a7.645,7.645,0,0,0,1.385-.517c2.126-.706,5.043-5.088,4.915-7.21a8.877,8.877,0,0,0-6.927-8.031c-2.627-.654-5.257-.332-7.879-.286-1.634.029-2.424,1.382-2.161,3.05a9.374,9.374,0,0,1,.017,1.445c0,6.223-.014,12.445.019,18.667a3.533,3.533,0,0,0,.423,2.41,2.363,2.363,0,0,0,2.908.776,2.96,2.96,0,0,0,2.086-2.677c.007-1.708,0-3.415,0-5.486.83.875,1.381,1.406,1.876,1.986a62.968,62.968,0,0,0,5.114,5.725c.579.531,1.171,1.152,2.173.743a2.954,2.954,0,0,0,1.178-5c-1.667-1.8-3.319-3.623-5.127-5.6m-22.1,10.4a10.555,10.555,0,0,0,7.093-3.371c1.044-1.176,1.192-3.243.3-4.118a2.961,2.961,0,0,0-4.052.266,7.555,7.555,0,0,1-8.093,1.107,8.085,8.085,0,0,1-4.114-5.263,7.053,7.053,0,0,1,1.519-6.909,7.323,7.323,0,0,1,7.075-2.487,8.747,8.747,0,0,1,3.915,1.4c1.013.725,2.736-.05,3.268-1.223a2.865,2.865,0,0,0-1.663-4.067c-2.607-1.186-5.217-2.088-8.26-1.518-4.027.755-7.244,2.4-9.456,5.992-2.8,4.544-2.97,9.117-.27,13.643,2.479,4.155,6.083,6.694,12.742,6.554" transform="translate(-86.948 -130.63)" fill="#fef4af"/>
    <path id="Trazado_771436" data-name="Trazado 771436" d="M287.4,231.672c-.566,3.327-1.1,6.5-1.647,9.672-.441,2.577-2.416,3.851-4.175,2.659a3.041,3.041,0,0,1-1.234-3.137c.686-4.218,1.485-8.418,2.255-12.622.434-2.371.872-4.743,1.353-7.105.238-1.167.254-2.592,1.859-2.8,2.76-.358,3.617.063,4.3,2.182,1.136,3.524,2.194,7.073,3.25,10.622a3.077,3.077,0,0,0,.849,1.485,16.767,16.767,0,0,0,1.03-4.289,12.254,12.254,0,0,1,1.45-4.924c.427-.833.551-1.882,1.006-2.829,1.038-2.161,1.363-2.434,3.9-2.277,1.982.122,2.355,1.667,2.618,3.061,1.2,6.349,2.21,12.734,3.655,19.037.412,1.8-.219,3.189-1.615,3.714-1.8.679-3.443-.505-3.821-2.636-.553-3.121-1.192-6.228-1.8-9.338a3.757,3.757,0,0,0-.437-.717c-.749,2.565-1.412,4.853-2.085,7.139-.343,1.164-.715,2.319-1.049,3.486a2.971,2.971,0,0,1-3.43,2.4c-1.684-.154-2.366-1.38-2.789-2.806-.862-2.913-1.693-5.835-2.561-8.746a1.765,1.765,0,0,0-.881-1.224" transform="translate(-178.343 -138.852)"/>
    <path id="Trazado_771437" data-name="Trazado 771437" d="M235.812,233.464c1.808,1.976,3.46,3.794,5.127,5.6a2.955,2.955,0,0,1-1.178,5c-1,.41-1.595-.212-2.173-.743a62.87,62.87,0,0,1-5.114-5.725c-.5-.579-1.046-1.111-1.876-1.986,0,2.071.005,3.778,0,5.486a2.961,2.961,0,0,1-2.086,2.677,2.363,2.363,0,0,1-2.908-.776,3.535,3.535,0,0,1-.423-2.409c-.032-6.223-.018-12.445-.018-18.668a9.421,9.421,0,0,0-.017-1.445c-.263-1.668.527-3.021,2.161-3.05,2.622-.047,5.251-.368,7.879.286a8.877,8.877,0,0,1,6.927,8.031c.128,2.122-2.789,6.5-4.915,7.21a7.635,7.635,0,0,1-1.385.517m-3.275-5.248a3.375,3.375,0,0,0,3.161-.816,2.484,2.484,0,0,0,.386-3.226c-.634-1.04-3.333-1.829-4.884-1.333-1.141.365-.406,1.4-.562,2.122-.1.458.056.97-.029,1.434-.3,1.645.41,2.172,1.927,1.819" transform="translate(-143.224 -138.265)"/>
    <path id="Trazado_771438" data-name="Trazado 771438" d="M168.139,244.211c-6.659.14-10.263-2.4-12.742-6.554-2.7-4.526-2.532-9.1.27-13.643,2.211-3.587,5.429-5.237,9.456-5.992,3.043-.57,5.653.332,8.26,1.518a2.865,2.865,0,0,1,1.663,4.067c-.532,1.173-2.255,1.948-3.268,1.223a8.747,8.747,0,0,0-3.915-1.4,7.323,7.323,0,0,0-7.075,2.487,7.053,7.053,0,0,0-1.519,6.909,8.084,8.084,0,0,0,4.114,5.263,7.555,7.555,0,0,0,8.093-1.107,2.961,2.961,0,0,1,4.052-.266c.9.875.748,2.942-.3,4.118a10.555,10.555,0,0,1-7.093,3.371" transform="translate(-97.647 -138.612)"/>
    <path id="Trazado_771439" data-name="Trazado 771439" d="M242.066,237.642c-1.517.353-2.227-.174-1.927-1.819.085-.464-.071-.976.029-1.434.156-.718-.579-1.757.562-2.122,1.55-.5,4.25.293,4.884,1.333a2.484,2.484,0,0,1-.386,3.226,3.375,3.375,0,0,1-3.161.816" transform="translate(-152.753 -147.69)" fill="#fef4af"/>
  </g>
</svg>
