<svg xmlns="http://www.w3.org/2000/svg" xmlns:xlink="http://www.w3.org/1999/xlink" width="295" height="320.338" viewBox="0 0 295 320.338">
  <defs>
    <clipPath id="clip-path">
      <rect id="Rectángulo_352791" data-name="Rectángulo 352791" width="197.266" height="100.635" fill="#12263f"/>
    </clipPath>
    <clipPath id="clip-path-2">
      <rect id="Rectángulo_366531" data-name="Rectángulo 366531" width="272.869" height="277.014" fill="none"/>
    </clipPath>
    <clipPath id="clip-path-6">
      <rect id="Rectángulo_366520" data-name="Rectángulo 366520" width="27.509" height="27.509" fill="none"/>
    </clipPath>
    <clipPath id="clip-path-9">
      <rect id="Rectángulo_366525" data-name="Rectángulo 366525" width="67.238" height="79.91" fill="none"/>
    </clipPath>
    <clipPath id="clip-path-11">
      <rect id="Rectángulo_366527" data-name="Rectángulo 366527" width="12.49" height="13.048" fill="none"/>
    </clipPath>
    <clipPath id="clip-path-12">
      <rect id="Rectángulo_366528" data-name="Rectángulo 366528" width="4.22" height="11.463" fill="none"/>
    </clipPath>
    <clipPath id="clip-path-13">
      <rect id="Rectángulo_366529" data-name="Rectángulo 366529" width="10.608" height="15.703" fill="none"/>
    </clipPath>
  </defs>
  <g id="Grupo_1034048" data-name="Grupo 1034048" transform="translate(-180 -14818.676)">
    <g id="Grupo_1032022" data-name="Grupo 1032022" transform="translate(180 14818.676)">
      <g id="Enmascarar_grupo_1018593" data-name="Enmascarar grupo 1018593" transform="translate(235.729 103.724) rotate(90)" clip-path="url(#clip-path)">
        <path id="Trazado_151731" data-name="Trazado 151731" d="M93.925,148.3A54.378,54.378,0,1,1,148.3,93.925,54.439,54.439,0,0,1,93.925,148.3m0,39.547A93.925,93.925,0,1,0,0,93.925,93.925,93.925,0,0,0,93.925,187.85Z" transform="translate(4.075 6.711)" fill="#5573c6"/>
      </g>
      <g id="Grupo_1018971" data-name="Grupo 1018971" transform="translate(0 0)">
        <path id="Trazado_145969" data-name="Trazado 145969" d="M55.628,0A55.628,55.628,0,1,1,0,55.628,55.628,55.628,0,0,1,55.628,0Z" transform="translate(0 2.823)" fill="#ffca28" opacity="0.444" style="mix-blend-mode: multiply;isolation: isolate"/>
        <rect id="Rectángulo_34812" data-name="Rectángulo 34812" width="295" height="165.087" transform="translate(0)" fill="none"/>
        <path id="Trazado_145971" data-name="Trazado 145971" d="M6.349,0A6.349,6.349,0,1,1,0,6.349,6.349,6.349,0,0,1,6.349,0Z" transform="translate(25.082 124.255)" fill="#31313c" opacity="0.444" style="mix-blend-mode: multiply;isolation: isolate"/>
        <g id="Grupo_80270" data-name="Grupo 80270" transform="translate(207.39 176.096) rotate(90)">
          <path id="Trazado_145968" data-name="Trazado 145968" d="M62.448,0A62.448,62.448,0,1,1,0,62.448,62.448,62.448,0,0,1,62.448,0Z" fill="#31313c" opacity="0.444" style="mix-blend-mode: multiply;isolation: isolate"/>
          <g id="Grupo_78276" data-name="Grupo 78276" transform="translate(24.382 25.816)">
            <g id="Grupo_53306" data-name="Grupo 53306">
              <path id="Trazado_99200" data-name="Trazado 99200" d="M1.7.811a.83.83,0,0,1-.849.811A.83.83,0,0,1,0,.811.83.83,0,0,1,.848,0,.83.83,0,0,1,1.7.811Z" fill="#fff"/>
              <path id="Trazado_99201" data-name="Trazado 99201" d="M1.7.811a.83.83,0,0,1-.848.811A.83.83,0,0,1,0,.811.83.83,0,0,1,.848,0,.83.83,0,0,1,1.7.811Z" transform="translate(7.631)" fill="#fff"/>
              <path id="Trazado_99202" data-name="Trazado 99202" d="M1.7.811a.83.83,0,0,1-.847.811A.831.831,0,0,1,0,.811.831.831,0,0,1,.849,0,.83.83,0,0,1,1.7.811Z" transform="translate(15.263)" fill="#fff"/>
              <path id="Trazado_99203" data-name="Trazado 99203" d="M1.7.811a.83.83,0,0,1-.848.811A.83.83,0,0,1,0,.811.83.83,0,0,1,.847,0,.83.83,0,0,1,1.7.811Z" transform="translate(22.895)" fill="#fff"/>
              <path id="Trazado_99204" data-name="Trazado 99204" d="M1.7.811a.83.83,0,0,1-.848.811A.83.83,0,0,1,0,.811.83.83,0,0,1,.848,0,.83.83,0,0,1,1.7.811Z" transform="translate(30.526)" fill="#fff"/>
              <path id="Trazado_99205" data-name="Trazado 99205" d="M1.7.811a.83.83,0,0,1-.848.811A.831.831,0,0,1,0,.811.83.83,0,0,1,.848,0,.83.83,0,0,1,1.7.811Z" transform="translate(38.158)" fill="#fff"/>
              <path id="Trazado_99206" data-name="Trazado 99206" d="M1.7.811a.831.831,0,0,1-.848.811A.83.83,0,0,1,0,.811.83.83,0,0,1,.848,0,.831.831,0,0,1,1.7.811Z" transform="translate(45.79)" fill="#fff"/>
              <path id="Trazado_99207" data-name="Trazado 99207" d="M1.7.811a.83.83,0,0,1-.847.811A.83.83,0,0,1,0,.811.83.83,0,0,1,.848,0,.83.83,0,0,1,1.7.811Z" transform="translate(53.422)" fill="#fff"/>
              <path id="Trazado_99208" data-name="Trazado 99208" d="M1.7.811a.83.83,0,0,1-.848.811A.831.831,0,0,1,0,.811.831.831,0,0,1,.849,0,.83.83,0,0,1,1.7.811Z" transform="translate(61.053)" fill="#fff"/>
              <path id="Trazado_99209" data-name="Trazado 99209" d="M1.7.811a.831.831,0,0,1-.848.811A.83.83,0,0,1,0,.811.83.83,0,0,1,.848,0,.83.83,0,0,1,1.7.811Z" transform="translate(68.685)" fill="#fff"/>
              <path id="Trazado_99210" data-name="Trazado 99210" d="M1.7.811a.83.83,0,0,1-.849.811A.83.83,0,0,1,0,.811.83.83,0,0,1,.847,0,.83.83,0,0,1,1.7.811Z" transform="translate(76.317)" fill="#fff"/>
            </g>
            <g id="Grupo_53307" data-name="Grupo 53307" transform="translate(0 6.487)">
              <path id="Trazado_99211" data-name="Trazado 99211" d="M1.7.811a.83.83,0,0,1-.849.811A.83.83,0,0,1,0,.811.83.83,0,0,1,.848,0,.83.83,0,0,1,1.7.811Z" fill="#fff"/>
              <path id="Trazado_99212" data-name="Trazado 99212" d="M1.7.811a.83.83,0,0,1-.848.811A.83.83,0,0,1,0,.811.83.83,0,0,1,.848,0,.83.83,0,0,1,1.7.811Z" transform="translate(7.631)" fill="#fff"/>
              <path id="Trazado_99213" data-name="Trazado 99213" d="M1.7.811a.83.83,0,0,1-.847.811A.831.831,0,0,1,0,.811.831.831,0,0,1,.849,0,.83.83,0,0,1,1.7.811Z" transform="translate(15.263)" fill="#fff"/>
              <path id="Trazado_99214" data-name="Trazado 99214" d="M1.7.811a.83.83,0,0,1-.848.811A.83.83,0,0,1,0,.811.83.83,0,0,1,.847,0,.83.83,0,0,1,1.7.811Z" transform="translate(22.895)" fill="#fff"/>
              <path id="Trazado_99215" data-name="Trazado 99215" d="M1.7.811a.83.83,0,0,1-.848.811A.83.83,0,0,1,0,.811.83.83,0,0,1,.848,0,.83.83,0,0,1,1.7.811Z" transform="translate(30.526)" fill="#fff"/>
              <path id="Trazado_99216" data-name="Trazado 99216" d="M1.7.811a.83.83,0,0,1-.848.811A.831.831,0,0,1,0,.811.83.83,0,0,1,.848,0,.83.83,0,0,1,1.7.811Z" transform="translate(38.158)" fill="#fff"/>
              <path id="Trazado_99217" data-name="Trazado 99217" d="M1.7.811a.831.831,0,0,1-.848.811A.83.83,0,0,1,0,.811.83.83,0,0,1,.848,0,.831.831,0,0,1,1.7.811Z" transform="translate(45.79)" fill="#fff"/>
              <path id="Trazado_99218" data-name="Trazado 99218" d="M1.7.811a.83.83,0,0,1-.847.811A.83.83,0,0,1,0,.811.83.83,0,0,1,.848,0,.83.83,0,0,1,1.7.811Z" transform="translate(53.422)" fill="#fff"/>
              <path id="Trazado_99219" data-name="Trazado 99219" d="M1.7.811a.83.83,0,0,1-.848.811A.831.831,0,0,1,0,.811.831.831,0,0,1,.849,0,.83.83,0,0,1,1.7.811Z" transform="translate(61.053)" fill="#fff"/>
              <path id="Trazado_99220" data-name="Trazado 99220" d="M1.7.811a.831.831,0,0,1-.848.811A.83.83,0,0,1,0,.811.83.83,0,0,1,.848,0,.83.83,0,0,1,1.7.811Z" transform="translate(68.685)" fill="#fff"/>
              <path id="Trazado_99221" data-name="Trazado 99221" d="M1.7.811a.83.83,0,0,1-.849.811A.83.83,0,0,1,0,.811.83.83,0,0,1,.847,0,.83.83,0,0,1,1.7.811Z" transform="translate(76.317)" fill="#fff"/>
            </g>
            <g id="Grupo_53308" data-name="Grupo 53308" transform="translate(0 12.975)">
              <ellipse id="Elipse_3955" data-name="Elipse 3955" cx="0.848" cy="0.811" rx="0.848" ry="0.811" fill="#fff"/>
              <path id="Trazado_99222" data-name="Trazado 99222" d="M1.7.811a.83.83,0,0,1-.848.811A.831.831,0,0,1,0,.811.83.83,0,0,1,.848,0,.83.83,0,0,1,1.7.811Z" transform="translate(7.631 0)" fill="#fff"/>
              <ellipse id="Elipse_3956" data-name="Elipse 3956" cx="0.848" cy="0.811" rx="0.848" ry="0.811" transform="translate(15.263)" fill="#fff"/>
              <path id="Trazado_99223" data-name="Trazado 99223" d="M1.7.811a.831.831,0,0,1-.848.811A.83.83,0,0,1,0,.811.83.83,0,0,1,.847,0,.83.83,0,0,1,1.7.811Z" transform="translate(22.895 0)" fill="#fff"/>
              <path id="Trazado_99224" data-name="Trazado 99224" d="M1.7.811a.831.831,0,0,1-.848.811A.831.831,0,0,1,0,.811.83.83,0,0,1,.848,0,.83.83,0,0,1,1.7.811Z" transform="translate(30.527 0)" fill="#fff"/>
              <ellipse id="Elipse_3957" data-name="Elipse 3957" cx="0.848" cy="0.811" rx="0.848" ry="0.811" transform="translate(38.158)" fill="#fff"/>
              <path id="Trazado_99225" data-name="Trazado 99225" d="M1.7.811a.831.831,0,0,1-.848.811A.83.83,0,0,1,0,.811.83.83,0,0,1,.848,0,.831.831,0,0,1,1.7.811Z" transform="translate(45.79 0)" fill="#fff"/>
              <ellipse id="Elipse_3958" data-name="Elipse 3958" cx="0.848" cy="0.811" rx="0.848" ry="0.811" transform="translate(53.422)" fill="#fff"/>
              <ellipse id="Elipse_3959" data-name="Elipse 3959" cx="0.848" cy="0.811" rx="0.848" ry="0.811" transform="translate(61.053)" fill="#fff"/>
              <path id="Trazado_99226" data-name="Trazado 99226" d="M1.7.811a.831.831,0,0,1-.848.811A.83.83,0,0,1,0,.811.83.83,0,0,1,.848,0,.83.83,0,0,1,1.7.811Z" transform="translate(68.685 0)" fill="#fff"/>
              <path id="Trazado_99227" data-name="Trazado 99227" d="M1.7.811a.831.831,0,0,1-.849.811A.83.83,0,0,1,0,.811.83.83,0,0,1,.847,0,.83.83,0,0,1,1.7.811Z" transform="translate(76.317 0)" fill="#fff"/>
            </g>
            <g id="Grupo_53309" data-name="Grupo 53309" transform="translate(0 19.462)">
              <ellipse id="Elipse_3960" data-name="Elipse 3960" cx="0.848" cy="0.811" rx="0.848" ry="0.811" transform="translate(0 0)" fill="#fff"/>
              <path id="Trazado_99228" data-name="Trazado 99228" d="M1.7.811a.83.83,0,0,1-.848.811A.83.83,0,0,1,0,.811.831.831,0,0,1,.848,0,.83.83,0,0,1,1.7.811Z" transform="translate(7.631)" fill="#fff"/>
              <ellipse id="Elipse_3961" data-name="Elipse 3961" cx="0.848" cy="0.811" rx="0.848" ry="0.811" transform="translate(15.263 0)" fill="#fff"/>
              <path id="Trazado_99229" data-name="Trazado 99229" d="M1.7.811a.83.83,0,0,1-.848.811A.83.83,0,0,1,0,.811.83.83,0,0,1,.847,0,.831.831,0,0,1,1.7.811Z" transform="translate(22.895)" fill="#fff"/>
              <path id="Trazado_99230" data-name="Trazado 99230" d="M1.7.811a.83.83,0,0,1-.848.811A.83.83,0,0,1,0,.811.831.831,0,0,1,.848,0,.831.831,0,0,1,1.7.811Z" transform="translate(30.527)" fill="#fff"/>
              <ellipse id="Elipse_3962" data-name="Elipse 3962" cx="0.848" cy="0.811" rx="0.848" ry="0.811" transform="translate(38.158 0)" fill="#fff"/>
              <path id="Trazado_99231" data-name="Trazado 99231" d="M1.7.811a.831.831,0,0,1-.848.811A.83.83,0,0,1,0,.811.83.83,0,0,1,.848,0,.831.831,0,0,1,1.7.811Z" transform="translate(45.79)" fill="#fff"/>
              <ellipse id="Elipse_3963" data-name="Elipse 3963" cx="0.848" cy="0.811" rx="0.848" ry="0.811" transform="translate(53.422 0)" fill="#fff"/>
              <ellipse id="Elipse_3964" data-name="Elipse 3964" cx="0.848" cy="0.811" rx="0.848" ry="0.811" transform="translate(61.053 0)" fill="#fff"/>
              <path id="Trazado_99232" data-name="Trazado 99232" d="M1.7.811a.83.83,0,0,1-.848.811A.83.83,0,0,1,0,.811.83.83,0,0,1,.848,0,.831.831,0,0,1,1.7.811Z" transform="translate(68.685)" fill="#fff"/>
              <path id="Trazado_99233" data-name="Trazado 99233" d="M1.7.811a.83.83,0,0,1-.849.811A.83.83,0,0,1,0,.811.83.83,0,0,1,.847,0,.831.831,0,0,1,1.7.811Z" transform="translate(76.317)" fill="#fff"/>
            </g>
            <g id="Grupo_53310" data-name="Grupo 53310" transform="translate(0 25.949)">
              <path id="Trazado_99234" data-name="Trazado 99234" d="M1.7.811a.83.83,0,0,1-.849.811A.83.83,0,0,1,0,.811.83.83,0,0,1,.848,0,.83.83,0,0,1,1.7.811Z" fill="#fff"/>
              <path id="Trazado_99235" data-name="Trazado 99235" d="M1.7.811a.83.83,0,0,1-.848.811A.83.83,0,0,1,0,.811.83.83,0,0,1,.848,0,.83.83,0,0,1,1.7.811Z" transform="translate(7.631)" fill="#fff"/>
              <path id="Trazado_99236" data-name="Trazado 99236" d="M1.7.811a.83.83,0,0,1-.847.811A.831.831,0,0,1,0,.811.831.831,0,0,1,.849,0,.83.83,0,0,1,1.7.811Z" transform="translate(15.263)" fill="#fff"/>
              <path id="Trazado_99237" data-name="Trazado 99237" d="M1.7.811a.83.83,0,0,1-.848.811A.83.83,0,0,1,0,.811.83.83,0,0,1,.847,0,.83.83,0,0,1,1.7.811Z" transform="translate(22.895)" fill="#fff"/>
              <path id="Trazado_99238" data-name="Trazado 99238" d="M1.7.811a.83.83,0,0,1-.848.811A.83.83,0,0,1,0,.811.83.83,0,0,1,.848,0,.83.83,0,0,1,1.7.811Z" transform="translate(30.526)" fill="#fff"/>
              <path id="Trazado_99239" data-name="Trazado 99239" d="M1.7.811a.83.83,0,0,1-.848.811A.83.83,0,0,1,0,.811.831.831,0,0,1,.848,0,.83.83,0,0,1,1.7.811Z" transform="translate(38.158)" fill="#fff"/>
              <path id="Trazado_99240" data-name="Trazado 99240" d="M1.7.811a.831.831,0,0,1-.848.811A.83.83,0,0,1,0,.811.83.83,0,0,1,.848,0,.831.831,0,0,1,1.7.811Z" transform="translate(45.79)" fill="#fff"/>
              <path id="Trazado_99241" data-name="Trazado 99241" d="M1.7.811a.83.83,0,0,1-.847.811A.83.83,0,0,1,0,.811.83.83,0,0,1,.848,0,.83.83,0,0,1,1.7.811Z" transform="translate(53.422)" fill="#fff"/>
              <path id="Trazado_99242" data-name="Trazado 99242" d="M1.7.811a.83.83,0,0,1-.848.811A.831.831,0,0,1,0,.811.831.831,0,0,1,.849,0,.83.83,0,0,1,1.7.811Z" transform="translate(61.053)" fill="#fff"/>
              <path id="Trazado_99243" data-name="Trazado 99243" d="M1.7.811a.83.83,0,0,1-.848.811A.83.83,0,0,1,0,.811.83.83,0,0,1,.848,0,.831.831,0,0,1,1.7.811Z" transform="translate(68.685)" fill="#fff"/>
              <path id="Trazado_99244" data-name="Trazado 99244" d="M1.7.811a.83.83,0,0,1-.849.811A.83.83,0,0,1,0,.811.83.83,0,0,1,.847,0,.83.83,0,0,1,1.7.811Z" transform="translate(76.317)" fill="#fff"/>
            </g>
            <g id="Grupo_53311" data-name="Grupo 53311" transform="translate(0 32.437)">
              <ellipse id="Elipse_3965" data-name="Elipse 3965" cx="0.848" cy="0.811" rx="0.848" ry="0.811" transform="translate(0 0)" fill="#fff"/>
              <path id="Trazado_99245" data-name="Trazado 99245" d="M1.7.811a.83.83,0,0,1-.848.811A.83.83,0,0,1,0,.811.83.83,0,0,1,.848,0,.83.83,0,0,1,1.7.811Z" transform="translate(7.631)" fill="#fff"/>
              <ellipse id="Elipse_3966" data-name="Elipse 3966" cx="0.848" cy="0.811" rx="0.848" ry="0.811" transform="translate(15.263 0)" fill="#fff"/>
              <path id="Trazado_99246" data-name="Trazado 99246" d="M1.7.811a.83.83,0,0,1-.848.811A.83.83,0,0,1,0,.811.83.83,0,0,1,.847,0,.83.83,0,0,1,1.7.811Z" transform="translate(22.895)" fill="#fff"/>
              <path id="Trazado_99247" data-name="Trazado 99247" d="M1.7.811a.83.83,0,0,1-.848.811A.83.83,0,0,1,0,.811.83.83,0,0,1,.848,0,.83.83,0,0,1,1.7.811Z" transform="translate(30.527)" fill="#fff"/>
              <ellipse id="Elipse_3967" data-name="Elipse 3967" cx="0.848" cy="0.811" rx="0.848" ry="0.811" transform="translate(38.158 0)" fill="#fff"/>
              <path id="Trazado_99248" data-name="Trazado 99248" d="M1.7.811a.831.831,0,0,1-.848.811A.83.83,0,0,1,0,.811.83.83,0,0,1,.848,0,.831.831,0,0,1,1.7.811Z" transform="translate(45.79)" fill="#fff"/>
              <ellipse id="Elipse_3968" data-name="Elipse 3968" cx="0.848" cy="0.811" rx="0.848" ry="0.811" transform="translate(53.422 0)" fill="#fff"/>
              <ellipse id="Elipse_3969" data-name="Elipse 3969" cx="0.848" cy="0.811" rx="0.848" ry="0.811" transform="translate(61.053 0)" fill="#fff"/>
              <path id="Trazado_99249" data-name="Trazado 99249" d="M1.7.811a.83.83,0,0,1-.848.811A.83.83,0,0,1,0,.811.83.83,0,0,1,.848,0,.831.831,0,0,1,1.7.811Z" transform="translate(68.685)" fill="#fff"/>
              <path id="Trazado_99250" data-name="Trazado 99250" d="M1.7.811a.83.83,0,0,1-.849.811A.83.83,0,0,1,0,.811.83.83,0,0,1,.847,0,.83.83,0,0,1,1.7.811Z" transform="translate(76.317)" fill="#fff"/>
            </g>
            <g id="Grupo_53312" data-name="Grupo 53312" transform="translate(0 38.924)">
              <ellipse id="Elipse_3970" data-name="Elipse 3970" cx="0.848" cy="0.811" rx="0.848" ry="0.811" fill="#fff"/>
              <path id="Trazado_99251" data-name="Trazado 99251" d="M1.7.811a.83.83,0,0,1-.848.811A.83.83,0,0,1,0,.811.83.83,0,0,1,.848,0,.83.83,0,0,1,1.7.811Z" transform="translate(7.631 0)" fill="#fff"/>
              <ellipse id="Elipse_3971" data-name="Elipse 3971" cx="0.848" cy="0.811" rx="0.848" ry="0.811" transform="translate(15.263)" fill="#fff"/>
              <path id="Trazado_99252" data-name="Trazado 99252" d="M1.7.811a.83.83,0,0,1-.848.811A.83.83,0,0,1,0,.811.83.83,0,0,1,.847,0,.83.83,0,0,1,1.7.811Z" transform="translate(22.895 0)" fill="#fff"/>
              <path id="Trazado_99253" data-name="Trazado 99253" d="M1.7.811a.83.83,0,0,1-.848.811A.83.83,0,0,1,0,.811.83.83,0,0,1,.848,0,.83.83,0,0,1,1.7.811Z" transform="translate(30.527 0)" fill="#fff"/>
              <ellipse id="Elipse_3972" data-name="Elipse 3972" cx="0.848" cy="0.811" rx="0.848" ry="0.811" transform="translate(38.158)" fill="#fff"/>
              <path id="Trazado_99254" data-name="Trazado 99254" d="M1.7.811a.831.831,0,0,1-.848.811A.83.83,0,0,1,0,.811.83.83,0,0,1,.848,0,.831.831,0,0,1,1.7.811Z" transform="translate(45.79 0)" fill="#fff"/>
              <ellipse id="Elipse_3973" data-name="Elipse 3973" cx="0.848" cy="0.811" rx="0.848" ry="0.811" transform="translate(53.422)" fill="#fff"/>
              <ellipse id="Elipse_3974" data-name="Elipse 3974" cx="0.848" cy="0.811" rx="0.848" ry="0.811" transform="translate(61.053)" fill="#fff"/>
              <path id="Trazado_99255" data-name="Trazado 99255" d="M1.7.811a.831.831,0,0,1-.848.811A.83.83,0,0,1,0,.811.83.83,0,0,1,.848,0,.83.83,0,0,1,1.7.811Z" transform="translate(68.685 0)" fill="#fff"/>
              <path id="Trazado_99256" data-name="Trazado 99256" d="M1.7.811a.83.83,0,0,1-.849.811A.83.83,0,0,1,0,.811.83.83,0,0,1,.847,0,.83.83,0,0,1,1.7.811Z" transform="translate(76.317 0)" fill="#fff"/>
            </g>
            <g id="Grupo_53313" data-name="Grupo 53313" transform="translate(0 45.412)">
              <path id="Trazado_99257" data-name="Trazado 99257" d="M1.7.81a.83.83,0,0,1-.849.811A.83.83,0,0,1,0,.81.83.83,0,0,1,.848,0,.83.83,0,0,1,1.7.81Z" fill="#fff"/>
              <path id="Trazado_99258" data-name="Trazado 99258" d="M1.7.81a.83.83,0,0,1-.848.811A.83.83,0,0,1,0,.81.83.83,0,0,1,.848,0,.83.83,0,0,1,1.7.81Z" transform="translate(7.631)" fill="#fff"/>
              <path id="Trazado_99259" data-name="Trazado 99259" d="M1.7.81a.83.83,0,0,1-.847.811A.831.831,0,0,1,0,.81.831.831,0,0,1,.849,0,.83.83,0,0,1,1.7.81Z" transform="translate(15.263)" fill="#fff"/>
              <path id="Trazado_99260" data-name="Trazado 99260" d="M1.7.81a.83.83,0,0,1-.848.811A.83.83,0,0,1,0,.81.83.83,0,0,1,.847,0,.83.83,0,0,1,1.7.81Z" transform="translate(22.895)" fill="#fff"/>
              <path id="Trazado_99261" data-name="Trazado 99261" d="M1.7.81a.83.83,0,0,1-.848.811A.83.83,0,0,1,0,.81.83.83,0,0,1,.848,0,.83.83,0,0,1,1.7.81Z" transform="translate(30.526)" fill="#fff"/>
              <path id="Trazado_99262" data-name="Trazado 99262" d="M1.7.81a.83.83,0,0,1-.848.811A.831.831,0,0,1,0,.81.83.83,0,0,1,.848,0,.83.83,0,0,1,1.7.81Z" transform="translate(38.158)" fill="#fff"/>
              <path id="Trazado_99263" data-name="Trazado 99263" d="M1.7.81a.831.831,0,0,1-.848.811A.83.83,0,0,1,0,.81.83.83,0,0,1,.848,0,.83.83,0,0,1,1.7.81Z" transform="translate(45.79)" fill="#fff"/>
              <path id="Trazado_99264" data-name="Trazado 99264" d="M1.7.81a.83.83,0,0,1-.847.811A.83.83,0,0,1,0,.81.83.83,0,0,1,.848,0,.83.83,0,0,1,1.7.81Z" transform="translate(53.422)" fill="#fff"/>
              <path id="Trazado_99265" data-name="Trazado 99265" d="M1.7.81a.83.83,0,0,1-.848.811A.831.831,0,0,1,0,.81.83.83,0,0,1,.849,0,.83.83,0,0,1,1.7.81Z" transform="translate(61.053)" fill="#fff"/>
              <path id="Trazado_99266" data-name="Trazado 99266" d="M1.7.81a.831.831,0,0,1-.848.811A.83.83,0,0,1,0,.81.83.83,0,0,1,.848,0,.83.83,0,0,1,1.7.81Z" transform="translate(68.685)" fill="#fff"/>
              <path id="Trazado_99267" data-name="Trazado 99267" d="M1.7.81a.83.83,0,0,1-.849.811A.83.83,0,0,1,0,.81.83.83,0,0,1,.847,0,.83.83,0,0,1,1.7.81Z" transform="translate(76.317)" fill="#fff"/>
            </g>
            <g id="Grupo_53314" data-name="Grupo 53314" transform="translate(0 51.899)">
              <ellipse id="Elipse_3975" data-name="Elipse 3975" cx="0.848" cy="0.811" rx="0.848" ry="0.811" fill="#fff"/>
              <path id="Trazado_99268" data-name="Trazado 99268" d="M1.7.811a.83.83,0,0,1-.848.811A.831.831,0,0,1,0,.811.83.83,0,0,1,.848,0,.83.83,0,0,1,1.7.811Z" transform="translate(7.631 0)" fill="#fff"/>
              <ellipse id="Elipse_3976" data-name="Elipse 3976" cx="0.848" cy="0.811" rx="0.848" ry="0.811" transform="translate(15.263)" fill="#fff"/>
              <path id="Trazado_99269" data-name="Trazado 99269" d="M1.7.811a.831.831,0,0,1-.848.811A.83.83,0,0,1,0,.811.83.83,0,0,1,.847,0,.83.83,0,0,1,1.7.811Z" transform="translate(22.895 0)" fill="#fff"/>
              <path id="Trazado_99270" data-name="Trazado 99270" d="M1.7.811a.831.831,0,0,1-.848.811A.831.831,0,0,1,0,.811.83.83,0,0,1,.848,0,.83.83,0,0,1,1.7.811Z" transform="translate(30.527 0)" fill="#fff"/>
              <ellipse id="Elipse_3977" data-name="Elipse 3977" cx="0.848" cy="0.811" rx="0.848" ry="0.811" transform="translate(38.158)" fill="#fff"/>
              <path id="Trazado_99271" data-name="Trazado 99271" d="M1.7.811a.831.831,0,0,1-.848.811A.83.83,0,0,1,0,.811.83.83,0,0,1,.848,0,.831.831,0,0,1,1.7.811Z" transform="translate(45.79 0)" fill="#fff"/>
              <ellipse id="Elipse_3978" data-name="Elipse 3978" cx="0.848" cy="0.811" rx="0.848" ry="0.811" transform="translate(53.422)" fill="#fff"/>
              <ellipse id="Elipse_3979" data-name="Elipse 3979" cx="0.848" cy="0.811" rx="0.848" ry="0.811" transform="translate(61.053)" fill="#fff"/>
              <path id="Trazado_99272" data-name="Trazado 99272" d="M1.7.811a.831.831,0,0,1-.848.811A.83.83,0,0,1,0,.811.83.83,0,0,1,.848,0,.83.83,0,0,1,1.7.811Z" transform="translate(68.685 0)" fill="#fff"/>
              <path id="Trazado_99273" data-name="Trazado 99273" d="M1.7.811a.831.831,0,0,1-.849.811A.83.83,0,0,1,0,.811.83.83,0,0,1,.847,0,.83.83,0,0,1,1.7.811Z" transform="translate(76.317 0)" fill="#fff"/>
            </g>
            <g id="Grupo_53315" data-name="Grupo 53315" transform="translate(0 58.386)">
              <path id="Trazado_99274" data-name="Trazado 99274" d="M1.7.811a.831.831,0,0,1-.849.811A.83.83,0,0,1,0,.811.83.83,0,0,1,.848,0,.831.831,0,0,1,1.7.811Z" fill="#fff"/>
              <path id="Trazado_99275" data-name="Trazado 99275" d="M1.7.811a.83.83,0,0,1-.848.811A.831.831,0,0,1,0,.811.831.831,0,0,1,.848,0,.83.83,0,0,1,1.7.811Z" transform="translate(7.631)" fill="#fff"/>
              <path id="Trazado_99276" data-name="Trazado 99276" d="M1.7.811a.83.83,0,0,1-.847.811A.831.831,0,0,1,0,.811.831.831,0,0,1,.849,0,.83.83,0,0,1,1.7.811Z" transform="translate(15.263)" fill="#fff"/>
              <path id="Trazado_99277" data-name="Trazado 99277" d="M1.7.811a.831.831,0,0,1-.848.811A.83.83,0,0,1,0,.811.83.83,0,0,1,.847,0,.831.831,0,0,1,1.7.811Z" transform="translate(22.895)" fill="#fff"/>
              <path id="Trazado_99278" data-name="Trazado 99278" d="M1.7.811a.831.831,0,0,1-.848.811A.831.831,0,0,1,0,.811.831.831,0,0,1,.848,0,.831.831,0,0,1,1.7.811Z" transform="translate(30.526)" fill="#fff"/>
              <path id="Trazado_99279" data-name="Trazado 99279" d="M1.7.811a.83.83,0,0,1-.848.811A.831.831,0,0,1,0,.811.831.831,0,0,1,.848,0,.83.83,0,0,1,1.7.811Z" transform="translate(38.158)" fill="#fff"/>
              <path id="Trazado_99280" data-name="Trazado 99280" d="M1.7.811a.831.831,0,0,1-.848.811A.83.83,0,0,1,0,.811.83.83,0,0,1,.848,0,.831.831,0,0,1,1.7.811Z" transform="translate(45.79)" fill="#fff"/>
              <path id="Trazado_99281" data-name="Trazado 99281" d="M1.7.811a.83.83,0,0,1-.847.811A.831.831,0,0,1,0,.811.831.831,0,0,1,.848,0,.83.83,0,0,1,1.7.811Z" transform="translate(53.422)" fill="#fff"/>
              <path id="Trazado_99282" data-name="Trazado 99282" d="M1.7.811a.83.83,0,0,1-.848.811A.831.831,0,0,1,0,.811.831.831,0,0,1,.849,0,.83.83,0,0,1,1.7.811Z" transform="translate(61.053)" fill="#fff"/>
              <path id="Trazado_99283" data-name="Trazado 99283" d="M1.7.811a.831.831,0,0,1-.848.811A.83.83,0,0,1,0,.811.83.83,0,0,1,.848,0,.831.831,0,0,1,1.7.811Z" transform="translate(68.685)" fill="#fff"/>
              <path id="Trazado_99284" data-name="Trazado 99284" d="M1.7.811a.831.831,0,0,1-.849.811A.83.83,0,0,1,0,.811.83.83,0,0,1,.847,0,.831.831,0,0,1,1.7.811Z" transform="translate(76.317)" fill="#fff"/>
            </g>
            <g id="Grupo_53316" data-name="Grupo 53316" transform="translate(0 64.874)">
              <ellipse id="Elipse_3980" data-name="Elipse 3980" cx="0.848" cy="0.811" rx="0.848" ry="0.811" transform="translate(0 0)" fill="#fff"/>
              <path id="Trazado_99285" data-name="Trazado 99285" d="M1.7.811a.83.83,0,0,1-.848.811A.83.83,0,0,1,0,.811.831.831,0,0,1,.848,0,.83.83,0,0,1,1.7.811Z" transform="translate(7.631)" fill="#fff"/>
              <ellipse id="Elipse_3981" data-name="Elipse 3981" cx="0.848" cy="0.811" rx="0.848" ry="0.811" transform="translate(15.263 0)" fill="#fff"/>
              <path id="Trazado_99286" data-name="Trazado 99286" d="M1.7.811a.83.83,0,0,1-.848.811A.83.83,0,0,1,0,.811.83.83,0,0,1,.847,0,.831.831,0,0,1,1.7.811Z" transform="translate(22.895)" fill="#fff"/>
              <path id="Trazado_99287" data-name="Trazado 99287" d="M1.7.811a.83.83,0,0,1-.848.811A.83.83,0,0,1,0,.811.831.831,0,0,1,.848,0,.831.831,0,0,1,1.7.811Z" transform="translate(30.527)" fill="#fff"/>
              <ellipse id="Elipse_3982" data-name="Elipse 3982" cx="0.848" cy="0.811" rx="0.848" ry="0.811" transform="translate(38.158 0)" fill="#fff"/>
              <path id="Trazado_99288" data-name="Trazado 99288" d="M1.7.811a.831.831,0,0,1-.848.811A.83.83,0,0,1,0,.811.83.83,0,0,1,.848,0,.831.831,0,0,1,1.7.811Z" transform="translate(45.79)" fill="#fff"/>
              <ellipse id="Elipse_3983" data-name="Elipse 3983" cx="0.848" cy="0.811" rx="0.848" ry="0.811" transform="translate(53.422 0)" fill="#fff"/>
              <ellipse id="Elipse_3984" data-name="Elipse 3984" cx="0.848" cy="0.811" rx="0.848" ry="0.811" transform="translate(61.053 0)" fill="#fff"/>
              <path id="Trazado_99289" data-name="Trazado 99289" d="M1.7.811a.831.831,0,0,1-.848.811A.83.83,0,0,1,0,.811.83.83,0,0,1,.848,0,.831.831,0,0,1,1.7.811Z" transform="translate(68.685)" fill="#fff"/>
              <path id="Trazado_99290" data-name="Trazado 99290" d="M1.7.811a.83.83,0,0,1-.849.811A.83.83,0,0,1,0,.811.83.83,0,0,1,.847,0,.831.831,0,0,1,1.7.811Z" transform="translate(76.317)" fill="#fff"/>
            </g>
            <g id="Grupo_53317" data-name="Grupo 53317" transform="translate(0 71.362)">
              <ellipse id="Elipse_3985" data-name="Elipse 3985" cx="0.848" cy="0.811" rx="0.848" ry="0.811" transform="translate(0 0)" fill="#fff"/>
              <path id="Trazado_99291" data-name="Trazado 99291" d="M1.7.811a.83.83,0,0,1-.848.811A.83.83,0,0,1,0,.811.83.83,0,0,1,.848,0,.83.83,0,0,1,1.7.811Z" transform="translate(7.631)" fill="#fff"/>
              <ellipse id="Elipse_3986" data-name="Elipse 3986" cx="0.848" cy="0.811" rx="0.848" ry="0.811" transform="translate(15.263 0)" fill="#fff"/>
              <path id="Trazado_99292" data-name="Trazado 99292" d="M1.7.811a.83.83,0,0,1-.848.811A.83.83,0,0,1,0,.811.83.83,0,0,1,.847,0,.83.83,0,0,1,1.7.811Z" transform="translate(22.895)" fill="#fff"/>
              <path id="Trazado_99293" data-name="Trazado 99293" d="M1.7.811a.83.83,0,0,1-.848.811A.83.83,0,0,1,0,.811.83.83,0,0,1,.848,0,.83.83,0,0,1,1.7.811Z" transform="translate(30.527)" fill="#fff"/>
              <ellipse id="Elipse_3987" data-name="Elipse 3987" cx="0.848" cy="0.811" rx="0.848" ry="0.811" transform="translate(38.158 0)" fill="#fff"/>
              <path id="Trazado_99294" data-name="Trazado 99294" d="M1.7.811a.831.831,0,0,1-.848.811A.83.83,0,0,1,0,.811.83.83,0,0,1,.848,0,.831.831,0,0,1,1.7.811Z" transform="translate(45.79)" fill="#fff"/>
              <ellipse id="Elipse_3988" data-name="Elipse 3988" cx="0.848" cy="0.811" rx="0.848" ry="0.811" transform="translate(53.422 0)" fill="#fff"/>
              <ellipse id="Elipse_3989" data-name="Elipse 3989" cx="0.848" cy="0.811" rx="0.848" ry="0.811" transform="translate(61.053 0)" fill="#fff"/>
              <path id="Trazado_99295" data-name="Trazado 99295" d="M1.7.811a.83.83,0,0,1-.848.811A.83.83,0,0,1,0,.811.83.83,0,0,1,.848,0,.831.831,0,0,1,1.7.811Z" transform="translate(68.685)" fill="#fff"/>
              <path id="Trazado_99296" data-name="Trazado 99296" d="M1.7.811a.83.83,0,0,1-.849.811A.83.83,0,0,1,0,.811.83.83,0,0,1,.847,0,.83.83,0,0,1,1.7.811Z" transform="translate(76.317)" fill="#fff"/>
            </g>
          </g>
        </g>
        <line id="Línea_138" data-name="Línea 138" y2="118.553" transform="translate(13.619 28.536)" fill="none" stroke="#31313c" stroke-linecap="round" stroke-width="4" stroke-dasharray="8"/>
      </g>
    </g>
    <g id="Grupo_1033784" data-name="Grupo 1033784" transform="translate(190 14862)">
      <g id="Grupo_1033783" data-name="Grupo 1033783" clip-path="url(#clip-path-2)">
        <g id="Grupo_1033754" data-name="Grupo 1033754">
          <g id="Grupo_1033753" data-name="Grupo 1033753" clip-path="url(#clip-path-2)">
            <path id="Trazado_782178" data-name="Trazado 782178" d="M332.129.18,314.564,8.99a3.561,3.561,0,0,0-2.165,3.277v8.216a38.138,38.138,0,0,0,6.263,21.037C321.826,46.34,326.022,52.5,333,56.024h3.151c7.772-2.371,13.573-8.689,17.12-14.093A38.133,38.133,0,0,0,359.539,20.9V12.267a3.561,3.561,0,0,0-2.165-3.277L337.365.465A12.215,12.215,0,0,0,332.129.18" transform="translate(-124.809 0)" fill="#2a448b"/>
            <path id="Trazado_782179" data-name="Trazado 782179" d="M329.325.584,309.317,9.11a3.56,3.56,0,0,0-2.166,3.276V20.6a38.471,38.471,0,0,0,23.757,35.541c7.771-2.37,13.573-8.688,17.12-14.093a38.139,38.139,0,0,0,6.263-21.037V12.386a3.561,3.561,0,0,0-2.165-3.276L332.117.584a3.561,3.561,0,0,0-2.792,0" transform="translate(-122.713 -0.12)" fill="#5573c6"/>
            <path id="Trazado_782180" data-name="Trazado 782180" d="M375.779,31.091a1.748,1.748,0,0,1,.038.378c.012.282.028.643.048,1.088.019.473.046,1.052.014,1.724s-.006,1.44-.1,2.282c-.08.843-.137,1.771-.31,2.753-.08.491-.142,1-.244,1.525s-.226,1.054-.343,1.6a39.455,39.455,0,0,1-2.307,6.908,40.644,40.644,0,0,1-3.589,6.34c-.667.9-1.282,1.772-1.942,2.52-.324.378-.618.76-.935,1.1l-.913.967c-.567.63-1.15,1.13-1.636,1.594s-.929.838-1.3,1.134l-.848.683a1.717,1.717,0,0,1-.309.222,1.775,1.775,0,0,1,.269-.27l.809-.727c.357-.309.789-.69,1.259-1.169s1.042-.983,1.6-1.619l.893-.975c.31-.339.6-.722.916-1.1.647-.751,1.25-1.621,1.905-2.52a41.99,41.99,0,0,0,3.54-6.3,40.651,40.651,0,0,0,2.312-6.847l.354-1.587c.106-.516.173-1.024.258-1.512.184-.974.252-1.895.346-2.732.112-.836.1-1.6.15-2.269s.039-1.245.039-1.717c0-.445.008-.805.011-1.087a1.73,1.73,0,0,1,.025-.381" transform="translate(-144.266 -12.421)" fill="#e0e0e0"/>
            <path id="Trazado_782181" data-name="Trazado 782181" d="M336.285,47.8l-11.478-9.125,3.184-4.005,7.7,6.119,11.239-12.577,3.815,3.409Z" transform="translate(-129.767 -11.272)" fill="#fff"/>
            <path id="Trazado_782182" data-name="Trazado 782182" d="M424.591,62.493h-2.171V50.674a5.046,5.046,0,0,0-10.091,0v11.82h-2.171V50.674a7.217,7.217,0,0,1,14.434,0Z" transform="translate(-163.865 -17.362)" fill="#f4a338"/>
            <path id="Trazado_782183" data-name="Trazado 782183" d="M423.583,77.043H407.826a1.848,1.848,0,0,1-1.848-1.848V63.646a1.848,1.848,0,0,1,1.848-1.848h15.757a1.847,1.847,0,0,1,1.847,1.848V75.2a1.848,1.848,0,0,1-1.847,1.848" transform="translate(-162.196 -24.689)" fill="#e6b046"/>
            <path id="Trazado_782184" data-name="Trazado 782184" d="M422.225,72.736a2.111,2.111,0,0,0,.616-1.493,2.14,2.14,0,1,0-2.723,2.048l-.46,2.033h2.036l-.409-2.033a2.152,2.152,0,0,0,.94-.555" transform="translate(-167.223 -27.608)" fill="#fafafa"/>
            <path id="Trazado_782185" data-name="Trazado 782185" d="M15.283,360.741a18.009,18.009,0,0,0-7.705-2.652,5.137,5.137,0,0,0-3.645.67.75.75,0,0,0-.375.666.814.814,0,0,0,.357.455,11.016,11.016,0,0,0,11.369.861" transform="translate(-1.418 -143.04)" fill="#e0e0e0"/>
            <path id="Trazado_782186" data-name="Trazado 782186" d="M17.311,354.144a37.606,37.606,0,0,1-4.977-4.379,12.588,12.588,0,0,1-3.12-5.771,2.328,2.328,0,0,1,.246-1.931c3.967,3.1,7.084,7.1,7.851,12.08" transform="translate(-3.644 -136.661)" fill="#e0e0e0"/>
            <path id="Trazado_782187" data-name="Trazado 782187" d="M22.853,354.56a18,18,0,0,1,.092-6.534,8.836,8.836,0,0,1,3.481-5.392,7.711,7.711,0,0,1-.092,5.123,24.873,24.873,0,0,1-3.451,7.266" transform="translate(-9.029 -136.889)" fill="#e0e0e0"/>
            <path id="Trazado_782188" data-name="Trazado 782188" d="M23.034,374.1a11.39,11.39,0,0,0-6.18,3.127,11.694,11.694,0,0,0-3.534,6.068c2.315-.143,4.28-1.776,5.7-3.607s2.412-3.839,3.977-5.552" transform="translate(-5.322 -149.46)" fill="#e0e0e0"/>
            <path id="Trazado_782189" data-name="Trazado 782189" d="M30.2,366.363a15.24,15.24,0,0,1,1.76-14.416,18.355,18.355,0,0,1-1.76,14.416" transform="translate(-11.64 -140.609)" fill="#e0e0e0"/>
            <path id="Trazado_782190" data-name="Trazado 782190" d="M32.344,386.13A11.022,11.022,0,0,0,21.806,392.2c-.13.261-.246.592-.071.826a.784.784,0,0,0,.7.205,9.172,9.172,0,0,0,5.436-2.807,51.961,51.961,0,0,1,4.52-4.3" transform="translate(-8.648 -154.258)" fill="#e0e0e0"/>
            <path id="Trazado_782191" data-name="Trazado 782191" d="M38.6,375.875a19.626,19.626,0,0,1-.2-10.963,5.345,5.345,0,0,1,2.339-3.558.459.459,0,0,1,.358-.063.473.473,0,0,1,.226.262,6.6,6.6,0,0,1,.551,3.145,19.688,19.688,0,0,1-.492,3.184c-.411,1.946-.63,4.037-1.7,5.715a11.545,11.545,0,0,0-.679,1.256c-.2.426-.2.576-.389.916" transform="translate(-15.069 -144.336)" fill="#e0e0e0"/>
            <path id="Trazado_782192" data-name="Trazado 782192" d="M61.588,380.929a14.134,14.134,0,0,1,2.478-11.622c.178-.232.413-.48.7-.453.445.041.56.634.54,1.08a21,21,0,0,1-3.722,10.995" transform="translate(-24.455 -147.363)" fill="#e0e0e0"/>
            <path id="Trazado_782193" data-name="Trazado 782193" d="M63.881,387.687a16.907,16.907,0,0,0,13.873-2.822,11.235,11.235,0,0,0-7.51-.922,10.718,10.718,0,0,0-6.363,3.743" transform="translate(-25.522 -153.283)" fill="#e0e0e0"/>
            <path id="Trazado_782194" data-name="Trazado 782194" d="M65.6,381.266a16.033,16.033,0,0,1,12.591-7.28,7.757,7.757,0,0,1-4.118,4.553,22.864,22.864,0,0,1-6.044,1.768,4.261,4.261,0,0,0-2.429.96" transform="translate(-26.21 -149.414)" fill="#e0e0e0"/>
            <path id="Trazado_782195" data-name="Trazado 782195" d="M61.066,355.727a36.578,36.578,0,0,0,1.61-7.374,12.277,12.277,0,0,0-1.469-7.293,16.055,16.055,0,0,0-.215,14.92" transform="translate(-23.675 -136.26)" fill="#e0e0e0"/>
            <path id="Trazado_782196" data-name="Trazado 782196" d="M75.93,352c2.849-5.178,8.662-9.314,14.544-9.894C88.2,347.754,82.017,352.12,75.93,352" transform="translate(-30.335 -136.677)" fill="#e0e0e0"/>
            <path id="Trazado_782197" data-name="Trazado 782197" d="M72.945,359.706c4.249.647,7.869,3.361,11.84,5.006a5.307,5.307,0,0,0,2.677.513,2.1,2.1,0,0,0,1.312-3.707,5.731,5.731,0,0,0-1.944-1.179,21.6,21.6,0,0,0-13.519-.754" transform="translate(-29.143 -143.37)" fill="#e0e0e0"/>
            <path id="Trazado_782198" data-name="Trazado 782198" d="M68.85,365.1a5.021,5.021,0,0,1,2.052,1.422,22.136,22.136,0,0,0,8.978,4.612c.343.085.793.12.963-.19.148-.271-.039-.6-.232-.84a12.362,12.362,0,0,0-5.421-3.68c-2.072-.772-3.868-1.7-6.34-1.5" transform="translate(-27.507 -145.781)" fill="#e0e0e0"/>
            <path id="Trazado_782199" data-name="Trazado 782199" d="M64.229,334.954a16.993,16.993,0,0,0,13.027,4.432.893.893,0,0,0,.593-.213c.328-.357-.065-.907-.448-1.2a15.007,15.007,0,0,0-13.172-3.014" transform="translate(-25.661 -133.637)" fill="#e0e0e0"/>
            <path id="Trazado_782200" data-name="Trazado 782200" d="M69.708,330.9a18.158,18.158,0,0,1,16.255-2.682,12.905,12.905,0,0,1-7.746,3.4,24.529,24.529,0,0,1-8.509-.719" transform="translate(-27.85 -130.788)" fill="#e0e0e0"/>
            <path id="Trazado_782201" data-name="Trazado 782201" d="M66.07,311.832c-.376-3.823-.132-6.841-.4-10.681-.021-.307-.087-.676-.374-.787-.4-.154-.733.337-.864.745a12.245,12.245,0,0,0,1.63,10.639" transform="translate(-25.519 -119.989)" fill="#e0e0e0"/>
            <path id="Trazado_782202" data-name="Trazado 782202" d="M67.073,312.188a22.477,22.477,0,0,0,6.333-6.154c1.25-1.711,2.305-3.762,2.021-5.863a6.061,6.061,0,0,0-4.568,2.269,12.752,12.752,0,0,0-2.329,4.685c-.507,1.682-.862,3.41-1.457,5.063" transform="translate(-26.797 -119.924)" fill="#e0e0e0"/>
            <path id="Trazado_782203" data-name="Trazado 782203" d="M77.38,310.935a51.064,51.064,0,0,0,15.584-9.189,7.953,7.953,0,0,0-5.854.45,18.455,18.455,0,0,0-9.811,8.7" transform="translate(-30.882 -120.399)" fill="#e0e0e0"/>
            <path id="Trazado_782204" data-name="Trazado 782204" d="M69.986,320.668a31.666,31.666,0,0,0,8.654.042,36.708,36.708,0,0,0,8.078-2.684.947.947,0,0,0,.549-.417.631.631,0,0,0-.2-.691,1.668,1.668,0,0,0-.689-.323,14.959,14.959,0,0,0-8.73.522,40.491,40.491,0,0,0-7.665,3.551" transform="translate(-27.961 -126.312)" fill="#e0e0e0"/>
            <path id="Trazado_782205" data-name="Trazado 782205" d="M41.671,327.048a15.307,15.307,0,0,1-.14-12.668,9.673,9.673,0,0,1,1.121,6.3c-.218,2.165-.877,4.392-.92,6.567" transform="translate(-16.072 -125.601)" fill="#e0e0e0"/>
            <path id="Trazado_782206" data-name="Trazado 782206" d="M20.837,328.89a17.668,17.668,0,0,0-13.13,5.594A12.273,12.273,0,0,0,14.9,333.15a36.6,36.6,0,0,0,6.162-4.123" transform="translate(-3.079 -131.397)" fill="#e0e0e0"/>
            <path id="Trazado_782207" data-name="Trazado 782207" d="M12.575,325.8c-2.4-.195-4.7-.491-7.009.215a8.407,8.407,0,0,0-5.342,4.53A12.665,12.665,0,0,0,6.8,329.306a37.8,37.8,0,0,0,5.78-3.5" transform="translate(-0.089 -130.072)" fill="#e0e0e0"/>
            <path id="Trazado_782208" data-name="Trazado 782208" d="M24.44,323.642a22.1,22.1,0,0,0-6.882-3.437c-2.511-.585-5.421-.153-7.172,1.74,2.033,1.193,4.5,1.334,6.856,1.332s5.246-.029,7.468.758" transform="translate(-4.149 -127.831)" fill="#e0e0e0"/>
            <path id="Trazado_782209" data-name="Trazado 782209" d="M31.029,316.251c-3.687-3.62-5.085-10.124-3.6-15.074a22.97,22.97,0,0,1,3.6,15.074" transform="translate(-10.725 -120.326)" fill="#e0e0e0"/>
            <path id="Trazado_782210" data-name="Trazado 782210" d="M50.7,301.282c.7-1.617,1.184-3.314,1.808-4.959a14.235,14.235,0,0,1,2.578-4.571,6.791,6.791,0,0,1,4.566-2.367,18.39,18.39,0,0,1-8.863,11.923" transform="translate(-20.254 -115.615)" fill="#e0e0e0"/>
            <path id="Trazado_782211" data-name="Trazado 782211" d="M41.3,308.433c-1.151-1.584-2.48-3.734-4.041-4.916a6.759,6.759,0,0,0-5.5-1.444,12.8,12.8,0,0,0,9.537,6.36" transform="translate(-12.688 -120.629)" fill="#e0e0e0"/>
            <path id="Trazado_782212" data-name="Trazado 782212" d="M46.953,301.512a27.352,27.352,0,0,1-1.819-5.89,9.188,9.188,0,0,1,.922-5.99c2.024,3.826,2.675,7.933,1,11.923" transform="translate(-17.979 -115.713)" fill="#e0e0e0"/>
            <path id="Trazado_782213" data-name="Trazado 782213" d="M50.727,284.238c1.146-3.793,4.619-6.585,8.368-7.866a3.123,3.123,0,0,1,1.467-.22,1.272,1.272,0,0,1,1.081.9c.137.645-.4,1.223-.9,1.652a28.491,28.491,0,0,1-10.02,5.532" transform="translate(-20.266 -110.319)" fill="#e0e0e0"/>
            <path id="Trazado_782214" data-name="Trazado 782214" d="M50.756,275.986a27.185,27.185,0,0,1,1.093-7.243,9.158,9.158,0,0,1,4.558-5.5c.38,2.47-.71,4.926-2.024,7.052s-2.9,4.131-3.688,6.5" transform="translate(-20.254 -105.169)" fill="#e0e0e0"/>
            <path id="Trazado_782215" data-name="Trazado 782215" d="M45.965,278.425c-.948-2.764-1.045-6.274-2.7-8.683-1.157-1.683-3.01-2.829-4.006-4.612a7.014,7.014,0,0,0,.233,5.236,15.149,15.149,0,0,0,3.062,4.383c1.224,1.308,2.273,2.292,3.412,3.676" transform="translate(-15.523 -105.924)" fill="#e0e0e0"/>
            <path id="Trazado_782216" data-name="Trazado 782216" d="M50.632,368.027c-.074,0-.138-18.438-.142-41.178s.05-41.182.124-41.182.138,18.434.142,41.182-.05,41.178-.124,41.178" transform="translate(-20.171 -114.129)" fill="#e0e0e0"/>
            <path id="Trazado_782217" data-name="Trazado 782217" d="M66.824,330.842a3.986,3.986,0,0,1-.693.261l-1.908.643c-1.609.548-3.818,1.342-6.217,2.324-2.375,1.019-4.615,1.847-5.89,2.951a4.33,4.33,0,0,0-1.184,1.565c-.183.433-.216.7-.24.693a.541.541,0,0,1,.008-.193,2.961,2.961,0,0,1,.135-.537,4.161,4.161,0,0,1,1.155-1.669,10.37,10.37,0,0,1,2.556-1.588c1.022-.477,2.155-.975,3.358-1.469,2.406-.986,4.633-1.754,6.259-2.257.813-.253,1.477-.441,1.937-.564a4,4,0,0,1,.723-.161" transform="translate(-20.251 -132.176)" fill="#e0e0e0"/>
            <path id="Trazado_782218" data-name="Trazado 782218" d="M72.95,309.24a1.141,1.141,0,0,1-.195.207l-.591.556-2.209,2.006L62.6,318.555c-2.87,2.555-5.35,5-7.068,6.833-.861.918-1.538,1.678-2,2.209l-.534.61a1.14,1.14,0,0,1-.2.2,1.124,1.124,0,0,1,.158-.236c.112-.148.274-.369.5-.643.439-.552,1.1-1.333,1.942-2.27a93.306,93.306,0,0,1,7.029-6.9c2.88-2.548,5.5-4.837,7.4-6.488l2.265-1.943.625-.518a1.169,1.169,0,0,1,.23-.167" transform="translate(-21.095 -123.547)" fill="#e0e0e0"/>
            <path id="Trazado_782219" data-name="Trazado 782219" d="M63.962,324.832c-.075-.034.524-1.418,1.122-3.168s.886-3.228.963-3.215a10.825,10.825,0,0,1-.711,3.3,21.529,21.529,0,0,1-.892,2.216,3.464,3.464,0,0,1-.482.867" transform="translate(-25.551 -127.226)" fill="#e0e0e0"/>
            <path id="Trazado_782220" data-name="Trazado 782220" d="M43.645,338.706a3.288,3.288,0,0,1-.443-.513l-1.133-1.453c-.952-1.23-2.267-2.928-3.742-4.786s-2.831-3.525-3.812-4.731l-1.158-1.433a3.214,3.214,0,0,1-.4-.547,3.344,3.344,0,0,1,.478.48c.3.32.713.791,1.223,1.379,1.02,1.176,2.4,2.826,3.877,4.687s2.77,3.578,3.684,4.839c.457.63.821,1.144,1.065,1.5a3.269,3.269,0,0,1,.359.575" transform="translate(-13.167 -129.94)" fill="#e0e0e0"/>
            <path id="Trazado_782221" data-name="Trazado 782221" d="M43.652,336.4a6.5,6.5,0,0,1-1.48-2.771,7.923,7.923,0,0,1-.336-2.794l.118.01c-.052.214-.091.326-.112.323s-.022-.122,0-.342l.118.01a12.7,12.7,0,0,0,.473,2.717,20.694,20.694,0,0,0,1.224,2.847" transform="translate(-16.707 -132.172)" fill="#e0e0e0"/>
            <path id="Trazado_782222" data-name="Trazado 782222" d="M31.966,329.8a4.788,4.788,0,0,0-1.033-.6,6.913,6.913,0,0,0-2.869-.228,17.7,17.7,0,0,0-2.889.467,8.771,8.771,0,0,1-1.189.285,4.152,4.152,0,0,1,1.138-.467,13.206,13.206,0,0,1,2.92-.551,6.264,6.264,0,0,1,2.96.319,1.831,1.831,0,0,1,.963.775" transform="translate(-9.583 -131.31)" fill="#e0e0e0"/>
            <path id="Trazado_782223" data-name="Trazado 782223" d="M28.014,327.113c-.02.041-.6-.241-1.583-.576a15.937,15.937,0,0,0-7.979-.608c-1.021.183-1.638.373-1.652.33a1.514,1.514,0,0,1,.42-.179,9.789,9.789,0,0,1,1.2-.336,14.077,14.077,0,0,1,8.079.616,9.857,9.857,0,0,1,1.131.513,1.518,1.518,0,0,1,.388.241" transform="translate(-6.712 -130.011)" fill="#e0e0e0"/>
            <path id="Trazado_782224" data-name="Trazado 782224" d="M49.326,313.068a65.25,65.25,0,0,1-2.051-8.087,32.9,32.9,0,0,1,1.154,4.011,32.79,32.79,0,0,1,.9,4.076" transform="translate(-18.884 -121.846)" fill="#e0e0e0"/>
            <path id="Trazado_782225" data-name="Trazado 782225" d="M48.713,315.554a19.57,19.57,0,0,0-1.28-2.4,10.57,10.57,0,0,0-1.884-1.944,1.759,1.759,0,0,1,.727.375A5.842,5.842,0,0,1,47.651,313a5.338,5.338,0,0,1,1.062,2.554" transform="translate(-18.197 -124.332)" fill="#e0e0e0"/>
            <path id="Trazado_782226" data-name="Trazado 782226" d="M39.489,388.549c-.029,0-.083-.443-.291-1.226a17.493,17.493,0,0,0-1.232-3.192,44.192,44.192,0,0,0-6.537-9.21c-1.46-1.668-2.876-3.241-4.077-4.747a33.3,33.3,0,0,1-2.916-4.205,20.264,20.264,0,0,1-1.472-3.121c-.135-.384-.234-.685-.289-.892a1.492,1.492,0,0,1-.076-.318c.023-.008.158.422.462,1.173a22.814,22.814,0,0,0,1.537,3.063,35.359,35.359,0,0,0,2.944,4.146c1.207,1.49,2.625,3.055,4.087,4.725a41.887,41.887,0,0,1,6.507,9.3A15.945,15.945,0,0,1,39.3,387.3a8.9,8.9,0,0,1,.163.925,1.525,1.525,0,0,1,.027.326" transform="translate(-9.028 -144.481)" fill="#e0e0e0"/>
            <path id="Trazado_782227" data-name="Trazado 782227" d="M65.287,379.065a6.72,6.72,0,0,1-.764.428,16.676,16.676,0,0,0-1.979,1.308,22.806,22.806,0,0,0-2.6,2.371c-.912.964-1.851,2.083-2.811,3.283-1.917,2.406-3.71,4.535-4.785,6.235-.545.843-.942,1.554-1.2,2.052a6.637,6.637,0,0,1-.42.769.721.721,0,0,1,.07-.217c.057-.137.134-.343.256-.6a19.427,19.427,0,0,1,1.136-2.107,68.669,68.669,0,0,1,4.737-6.3c.961-1.2,1.912-2.323,2.842-3.285a21.06,21.06,0,0,1,2.663-2.352,13.879,13.879,0,0,1,2.044-1.25c.253-.127.459-.2.6-.264a.728.728,0,0,1,.216-.073" transform="translate(-20.266 -151.443)" fill="#e0e0e0"/>
            <path id="Trazado_782228" data-name="Trazado 782228" d="M68.754,387.938a11.1,11.1,0,0,1-1.613.234,21.248,21.248,0,0,0-3.825.754,11.5,11.5,0,0,0-3.425,1.8c-.79.61-1.162,1.115-1.2,1.085a1.253,1.253,0,0,1,.239-.371,6.062,6.062,0,0,1,.841-.86,10.352,10.352,0,0,1,3.462-1.9,17.233,17.233,0,0,1,3.888-.688,8.834,8.834,0,0,1,1.632-.047" transform="translate(-23.448 -154.981)" fill="#e0e0e0"/>
            <path id="Trazado_782229" data-name="Trazado 782229" d="M59.473,389.785c-.084-.047.643-1.158,1.206-2.651.529-1.507.653-2.828.748-2.813a2.558,2.558,0,0,1-.027.865,9.275,9.275,0,0,1-.47,2.039,9.892,9.892,0,0,1-.936,1.87,2.6,2.6,0,0,1-.522.691" transform="translate(-23.758 -153.543)" fill="#e0e0e0"/>
            <path id="Trazado_782230" data-name="Trazado 782230" d="M70.005,355.212a1.212,1.212,0,0,1-.258.137l-.758.344c-.332.142-.735.323-1.189.563s-.988.477-1.541.809l-.88.5c-.305.176-.607.384-.928.585-.649.393-1.3.879-1.992,1.373a34.169,34.169,0,0,0-7.672,7.939c-.471.71-.933,1.376-1.3,2.037-.19.328-.388.637-.553.948l-.47.9c-.313.564-.537,1.1-.757,1.567s-.39.871-.521,1.208l-.319.769a1.248,1.248,0,0,1-.128.263,1.163,1.163,0,0,1,.077-.281c.072-.208.162-.469.272-.788.116-.343.27-.76.482-1.23s.42-1.02.725-1.592l.458-.91c.162-.315.356-.629.543-.961.366-.671.824-1.346,1.293-2.066a32.928,32.928,0,0,1,7.728-8c.7-.493,1.361-.974,2.02-1.362.325-.2.632-.4.942-.575l.894-.488c.563-.324,1.1-.555,1.567-.779s.873-.4,1.212-.524l.779-.3a1.215,1.215,0,0,1,.278-.087" transform="translate(-20.269 -141.913)" fill="#e0e0e0"/>
            <path id="Trazado_782231" data-name="Trazado 782231" d="M63.635,366.79a1.851,1.851,0,0,1,.634-.943,4,4,0,0,1,2.553-.98,6.984,6.984,0,0,1,2.687.525,3.843,3.843,0,0,1,1.015.494,6.218,6.218,0,0,1-1.077-.315,8.117,8.117,0,0,0-2.616-.437,4.157,4.157,0,0,0-2.439.856,7.5,7.5,0,0,0-.757.8" transform="translate(-25.422 -145.77)" fill="#e0e0e0"/>
            <path id="Trazado_782232" data-name="Trazado 782232" d="M60.765,367.822A6.814,6.814,0,0,0,61.327,363a1.554,1.554,0,0,1,.3.687,4.871,4.871,0,0,1-.413,3.534c-.225.408-.423.618-.449.6" transform="translate(-24.275 -145.026)" fill="#e0e0e0"/>
            <path id="Trazado_782233" data-name="Trazado 782233" d="M29.52,410.854c.4,7.047,2.521,14.213,5.787,21.458h14.2a61.694,61.694,0,0,0,5.443-21.458Z" transform="translate(-11.794 -164.144)" fill="#e0e0e0"/>
            <path id="Trazado_782234" data-name="Trazado 782234" d="M54.142,429.753c0,.074-4.677.133-10.444.133s-10.444-.059-10.444-.133,4.675-.133,10.444-.133,10.444.06,10.444.133" transform="translate(-13.286 -171.641)" fill="#fafafa"/>
            <path id="Trazado_782235" data-name="Trazado 782235" d="M54.483,434c0,.074-4.384.133-9.79.133S34.9,434.078,34.9,434s4.383-.133,9.791-.133,9.79.06,9.79.133" transform="translate(-13.944 -173.34)" fill="#fafafa"/>
            <path id="Trazado_782236" data-name="Trazado 782236" d="M39.449,418.558a40.209,40.209,0,0,1,0,6.543,40.209,40.209,0,0,1,0-6.543" transform="translate(-15.707 -167.222)" fill="#fafafa"/>
            <path id="Trazado_782237" data-name="Trazado 782237" d="M52.122,418.558a43.117,43.117,0,0,1,0,6.776,43.117,43.117,0,0,1,0-6.776" transform="translate(-20.771 -167.222)" fill="#fafafa"/>
            <path id="Trazado_782238" data-name="Trazado 782238" d="M64.018,418.463a44.851,44.851,0,0,1,0,6.911,44.849,44.849,0,0,1,0-6.911" transform="translate(-25.523 -167.184)" fill="#fafafa"/>
            <path id="Trazado_782239" data-name="Trazado 782239" d="M54.822,418.469c0,.074-5.485.133-12.249.133s-12.25-.059-12.25-.133,5.483-.133,12.25-.133,12.249.06,12.249.133" transform="translate(-12.115 -167.133)" fill="#fafafa"/>
            <path id="Trazado_782240" data-name="Trazado 782240" d="M428.1,299.808a7.261,7.261,0,0,0,4.326-6.717,6.824,6.824,0,1,0-13.619-.063,7.25,7.25,0,0,0,4.339,6.78c-10.479,1.579-10,12.968-10,12.968l24.78.114s.565-11.513-9.823-13.082" transform="translate(-162.297 -109.495)" fill="#ebebeb"/>
            <path id="Trazado_782241" data-name="Trazado 782241" d="M244.906,27.141a4.757,4.757,0,0,0,3.754-3.647,4.47,4.47,0,1,0-8.682-2.054,4.749,4.749,0,0,0,1.767,4.968c-6.921-.542-8.3,6.8-8.3,6.8l15.8,3.737s2.063-7.263-4.334-9.8" transform="translate(-93.265 -7.081)" fill="#ebebeb"/>
            <path id="Trazado_782242" data-name="Trazado 782242" d="M433.688,129.538a4.561,4.561,0,0,0,2.086-4.565,4.286,4.286,0,1,0-8.473,1.185,4.553,4.553,0,0,0,3.307,3.825c-6.373,1.923-5.054,8.962-5.054,8.962l15.416-2.156s-.683-7.209-7.283-7.251" transform="translate(-169.972 -48.345)" fill="#f5f5f5"/>
            <path id="Trazado_782243" data-name="Trazado 782243" d="M21.594,129.382l-8.329-6.622,2.311-2.906,5.585,4.44,8.155-9.126,2.768,2.474Z" transform="translate(-5.3 -46.012)" fill="#f5f5f5"/>
          </g>
        </g>
        <g id="Grupo_1033756" data-name="Grupo 1033756">
          <g id="Grupo_1033755" data-name="Grupo 1033755" clip-path="url(#clip-path-2)">
            <path id="Trazado_782244" data-name="Trazado 782244" d="M268.6,446.841c0,.086-60.134.156-134.3.156C60.121,447,0,446.928,0,446.841s60.121-.156,134.309-.156c74.162,0,134.3.07,134.3.156" transform="translate(0 -178.459)" fill="#373f51"/>
          </g>
        </g>
        <g id="Grupo_1033764" data-name="Grupo 1033764">
          <g id="Grupo_1033763" data-name="Grupo 1033763" clip-path="url(#clip-path-2)">
            <path id="Trazado_782245" data-name="Trazado 782245" d="M32.3,154.69l-18.42,9.239a3.735,3.735,0,0,0-2.27,3.436v8.616a39.987,39.987,0,0,0,6.568,22.06c3.318,5.055,7.718,11.517,15.04,15.211h3.305c8.15-2.485,14.234-9.111,17.953-14.778a39.992,39.992,0,0,0,6.568-22.061v-9.049a3.736,3.736,0,0,0-2.271-3.436l-20.982-8.94c-.936-.4-4.555-.7-5.491-.3" transform="translate(-4.636 -61.726)" fill="#29807a"/>
            <path id="Trazado_782247" data-name="Trazado 782247" d="M29.354,155.114,8.372,164.055A3.734,3.734,0,0,0,6.1,167.491v8.616a40.342,40.342,0,0,0,24.913,37.272c8.15-2.486,14.234-9.112,17.953-14.779a39.987,39.987,0,0,0,6.568-22.06v-9.049a3.735,3.735,0,0,0-2.27-3.436l-20.983-8.941a3.733,3.733,0,0,0-2.928,0" transform="translate(-2.437 -61.852)" fill="#4adbd1"/>
            <g id="Grupo_1033762" data-name="Grupo 1033762" transform="translate(14.626 105.768)" opacity="0.3">
              <g id="Grupo_1033761" data-name="Grupo 1033761">
                <g id="Grupo_1033760" data-name="Grupo 1033760" clip-path="url(#clip-path-6)">
                  <path id="Trazado_782248" data-name="Trazado 782248" d="M51.867,189.893a13.754,13.754,0,1,1-13.755-13.755,13.755,13.755,0,0,1,13.755,13.755" transform="translate(-24.357 -176.138)"/>
                </g>
              </g>
            </g>
            <path id="Trazado_782249" data-name="Trazado 782249" d="M49.174,187a5.71,5.71,0,1,1-5.71-5.711A5.71,5.71,0,0,1,49.174,187" transform="translate(-15.083 -72.428)" fill="#fff"/>
            <path id="Trazado_782250" data-name="Trazado 782250" d="M29.9,209.754a11.163,11.163,0,0,1,10.218-6.342,12.141,12.141,0,0,1,10.639,6.342,12.824,12.824,0,0,1-10.833,4.789A13.072,13.072,0,0,1,29.9,209.754" transform="translate(-11.944 -81.267)" fill="#fff"/>
            <path id="Trazado_782251" data-name="Trazado 782251" d="M51.762,189.814a1.235,1.235,0,0,1-.028-.223c-.011-.162-.028-.378-.049-.652-.01-.145-.02-.3-.031-.48s-.058-.366-.09-.573a10.1,10.1,0,0,0-.292-1.415,13.15,13.15,0,0,0-1.531-3.636,13.629,13.629,0,0,0-16.37-5.8,12.5,12.5,0,0,0-3.442,1.854,12.439,12.439,0,0,0-2.875,2.89,13.165,13.165,0,0,0-1.944,3.747,13.483,13.483,0,0,0,0,8.582,13.179,13.179,0,0,0,1.943,3.748,12.432,12.432,0,0,0,2.876,2.891,12.491,12.491,0,0,0,3.443,1.854,13.663,13.663,0,0,0,16.371-5.8,13.126,13.126,0,0,0,1.53-3.635,10.1,10.1,0,0,0,.292-1.415c.032-.207.07-.4.09-.573s.022-.335.031-.48c.02-.274.037-.489.049-.652a1.235,1.235,0,0,1,.028-.223,1.255,1.255,0,0,1,0,.223c0,.163-.01.38-.017.656-.005.146-.01.307-.017.483s-.049.369-.076.579a9.74,9.74,0,0,1-.266,1.432,12.989,12.989,0,0,1-1.5,3.695,13.849,13.849,0,0,1-9.322,6.57,13.913,13.913,0,0,1-7.3-.584,12.768,12.768,0,0,1-3.522-1.886,12.726,12.726,0,0,1-2.945-2.949,13.464,13.464,0,0,1-1.992-3.831,13.763,13.763,0,0,1,0-8.779,13.445,13.445,0,0,1,1.992-3.83,12.734,12.734,0,0,1,2.944-2.948,12.773,12.773,0,0,1,3.521-1.885,13.909,13.909,0,0,1,7.3-.584,13.843,13.843,0,0,1,9.322,6.569,13.015,13.015,0,0,1,1.5,3.7,9.791,9.791,0,0,1,.266,1.432c.027.209.061.4.076.578s.011.338.017.484c.008.275.014.492.017.656a1.254,1.254,0,0,1,0,.223" transform="translate(-9.627 -70.292)" fill="#373f51"/>
            <path id="Trazado_782252" data-name="Trazado 782252" d="M78.07,187.106a2.016,2.016,0,0,1,.038.4c.013.294.029.672.049,1.142.019.5.047,1.1.013,1.807q-.016.531-.033,1.13c0,.4-.029.822-.077,1.263-.085.884-.144,1.857-.327,2.887-.083.515-.149,1.053-.256,1.6s-.238,1.1-.361,1.679a41.333,41.333,0,0,1-2.419,7.243,42.639,42.639,0,0,1-3.763,6.648c-.7.945-1.343,1.859-2.035,2.643-.34.4-.649.8-.98,1.151l-.958,1.014c-.594.661-1.205,1.186-1.714,1.673s-.974.879-1.361,1.19l-.889.718a1.916,1.916,0,0,1-.323.233,1.97,1.97,0,0,1,.283-.282l.848-.761c.375-.323.829-.723,1.321-1.224s1.093-1.031,1.675-1.7q.448-.49.937-1.022c.325-.355.627-.757.96-1.155.679-.787,1.311-1.7,2-2.643a43.934,43.934,0,0,0,3.713-6.611,42.592,42.592,0,0,0,2.425-7.182q.191-.854.371-1.665c.111-.541.181-1.074.27-1.586.193-1.021.264-1.988.363-2.865.055-.438.087-.858.1-1.256s.039-.77.057-1.123c.051-.7.04-1.307.04-1.8,0-.469.007-.847.01-1.14a1.868,1.868,0,0,1,.025-.4" transform="translate(-25.039 -74.752)" fill="#373f51"/>
          </g>
        </g>
        <g id="Grupo_1033766" data-name="Grupo 1033766">
          <g id="Grupo_1033765" data-name="Grupo 1033765" clip-path="url(#clip-path-2)">
            <path id="Trazado_782253" data-name="Trazado 782253" d="M232.367,292.968H90.38a7.08,7.08,0,0,1-6.958-7.2V68.736a7.081,7.081,0,0,1,6.958-7.2H232.367a7.081,7.081,0,0,1,6.958,7.2V285.771a7.081,7.081,0,0,1-6.958,7.2" transform="translate(-33.329 -24.586)" fill="#373f51"/>
            <path id="Trazado_782254" data-name="Trazado 782254" d="M208.967,425.092a6.613,6.613,0,1,1-6.612-6.492,6.553,6.553,0,0,1,6.612,6.492" transform="translate(-78.203 -167.239)" fill="#4adbd1"/>
            <path id="Trazado_782255" data-name="Trazado 782255" d="M217.176,78.85h-31.84a2.3,2.3,0,0,1,0-4.594h31.84a2.3,2.3,0,0,1,0,4.594" transform="translate(-73.158 -29.667)" fill="#4adbd1"/>
            <rect id="Rectángulo_366522" data-name="Rectángulo 366522" width="146.071" height="193.271" transform="translate(54.874 53.464)" fill="#fff"/>
            <rect id="Rectángulo_366523" data-name="Rectángulo 366523" width="6.231" height="193.271" transform="translate(194.714 53.464)" fill="#f5f5f5"/>
            <path id="Trazado_782256" data-name="Trazado 782256" d="M328.16,173.641h0a1.942,1.942,0,0,1-1.943-1.943V128.946a1.943,1.943,0,1,1,3.885,0V171.7a1.943,1.943,0,0,1-1.943,1.943" transform="translate(-130.33 -50.74)" fill="#e0e0e0"/>
            <path id="Trazado_782257" data-name="Trazado 782257" d="M229.2,158.16h-107.7a3.1,3.1,0,0,1,0-6.2H229.2a3.1,3.1,0,0,1,0,6.2" transform="translate(-47.301 -60.712)" fill="#e0e0e0"/>
            <path id="Trazado_782258" data-name="Trazado 782258" d="M228.193,120.514H160.441a3.1,3.1,0,0,1,0-6.2h67.752a3.1,3.1,0,0,1,0,6.2" transform="translate(-62.861 -45.672)" fill="#f4a338"/>
            <path id="Trazado_782259" data-name="Trazado 782259" d="M224.081,178.927H146.963a3.1,3.1,0,0,1,0-6.2h77.117a3.1,3.1,0,0,1,0,6.2" transform="translate(-57.477 -69.009)" fill="#e0e0e0"/>
            <path id="Trazado_782260" data-name="Trazado 782260" d="M177.931,269.458H118.6a3.1,3.1,0,0,1,0-6.2h59.333a3.1,3.1,0,0,1,0,6.2" transform="translate(-46.145 -105.178)" fill="#e0e0e0"/>
            <path id="Trazado_782261" data-name="Trazado 782261" d="M226.3,247.852H118.6a3.1,3.1,0,0,1,0-6.2H226.3a3.1,3.1,0,1,1,0,6.2" transform="translate(-46.144 -96.546)" fill="#e0e0e0"/>
            <path id="Trazado_782262" data-name="Trazado 782262" d="M235.238,317.448H140.965a3.1,3.1,0,1,1,0-6.2h94.273a3.1,3.1,0,1,1,0,6.2" transform="translate(-55.08 -124.351)" fill="#e0e0e0"/>
            <path id="Trazado_782263" data-name="Trazado 782263" d="M226.3,339.5H118.6a3.1,3.1,0,1,1,0-6.2H226.3a3.1,3.1,0,1,1,0,6.2" transform="translate(-46.144 -133.161)" fill="#e0e0e0"/>
            <path id="Trazado_782264" data-name="Trazado 782264" d="M226.3,361.894H118.6a3.1,3.1,0,0,1,0-6.2H226.3a3.1,3.1,0,1,1,0,6.2" transform="translate(-46.144 -142.108)" fill="#e0e0e0"/>
            <path id="Trazado_782265" data-name="Trazado 782265" d="M124.45,314.27a3.218,3.218,0,1,1-3.218-3.218,3.218,3.218,0,0,1,3.218,3.218" transform="translate(-47.149 -124.271)" fill="#f4a338"/>
            <path id="Trazado_782266" data-name="Trazado 782266" d="M235.238,227.7H140.965a3.1,3.1,0,1,1,0-6.2h94.273a3.1,3.1,0,1,1,0,6.2" transform="translate(-55.08 -88.495)" fill="#e0e0e0"/>
            <path id="Trazado_782267" data-name="Trazado 782267" d="M124.45,224.524a3.218,3.218,0,1,1-3.218-3.218,3.218,3.218,0,0,1,3.218,3.218" transform="translate(-47.149 -88.416)" fill="#f4a338"/>
            <path id="Trazado_782268" data-name="Trazado 782268" d="M275.645,392.26H251.477a4.937,4.937,0,0,1,0-9.874h24.168a4.937,4.937,0,0,1,0,9.874" transform="translate(-98.497 -152.77)" fill="#f4a338"/>
          </g>
        </g>
        <g id="Grupo_1033771" data-name="Grupo 1033771">
          <g id="Grupo_1033770" data-name="Grupo 1033770" clip-path="url(#clip-path-2)">
            <path id="Trazado_782269" data-name="Trazado 782269" d="M68.934,10.783,43.881,23.349a5.08,5.08,0,0,0-3.089,4.673v11.72a54.4,54.4,0,0,0,8.933,30.005c4.513,6.876,10.5,15.665,20.456,20.69h4.5c11.085-3.381,19.36-12.393,24.419-20.1A54.392,54.392,0,0,0,108.03,40.33V28.022a5.081,5.081,0,0,0-3.089-4.673L76.4,11.189c-1.272-.542-6.2-.949-7.468-.407" transform="translate(-16.297 -4.206)" fill="#f4a338"/>
            <g id="Grupo_1033769" data-name="Grupo 1033769" transform="translate(24.495 6.321)" opacity="0.3">
              <g id="Grupo_1033768" data-name="Grupo 1033768">
                <g id="Grupo_1033767" data-name="Grupo 1033767" clip-path="url(#clip-path-9)">
                  <path id="Trazado_782270" data-name="Trazado 782270" d="M68.934,10.783,43.881,23.349a5.08,5.08,0,0,0-3.089,4.673v11.72a54.4,54.4,0,0,0,8.933,30.005c4.513,6.876,10.5,15.665,20.456,20.69h4.5c11.085-3.381,19.36-12.393,24.419-20.1A54.392,54.392,0,0,0,108.03,40.33V28.022a5.081,5.081,0,0,0-3.089-4.673L76.4,11.189c-1.272-.542-6.2-.949-7.468-.407" transform="translate(-40.792 -10.527)"/>
                </g>
              </g>
            </g>
            <path id="Trazado_782271" data-name="Trazado 782271" d="M64.933,11.359,36.394,23.52a5.08,5.08,0,0,0-3.089,4.673v11.72a54.872,54.872,0,0,0,33.886,50.7c11.085-3.381,19.36-12.393,24.419-20.1A54.392,54.392,0,0,0,100.543,40.5V28.193a5.079,5.079,0,0,0-3.089-4.673L68.915,11.359a5.078,5.078,0,0,0-3.982,0" transform="translate(-13.306 -4.376)" fill="#f4a338"/>
            <path id="Trazado_782272" data-name="Trazado 782272" d="M131.194,54.873a.469.469,0,0,1,.019.137c.006.109.013.241.022.4q.021.573.056,1.552c.023.674.058,1.5.008,2.457q-.023.721-.049,1.535-.014.408-.028.838l-.081.879c-.118,1.2-.2,2.523-.45,3.922-.115.7-.2,1.43-.351,2.172s-.324,1.5-.492,2.281a56.482,56.482,0,0,1-3.292,9.841,58.249,58.249,0,0,1-5.109,9.035c-.949,1.285-1.823,2.527-2.762,3.6-.461.54-.88,1.084-1.33,1.565l-1.3,1.381c-.806.9-1.635,1.615-2.325,2.28-.352.325-.669.64-.98.907l-.864.718-1.2.984-.317.249a.479.479,0,0,1-.115.077s.028-.039.094-.1l.3-.273,1.162-1.027.844-.736c.305-.274.615-.593.96-.924.677-.675,1.492-1.4,2.284-2.305l1.278-1.388c.443-.483.856-1.029,1.31-1.57.926-1.07,1.788-2.312,2.726-3.594a59.567,59.567,0,0,0,5.06-9,57.75,57.75,0,0,0,3.3-9.779q.258-1.164.5-2.267c.15-.737.244-1.463.364-2.16.26-1.391.355-2.706.486-3.9q.047-.449.092-.876.02-.429.039-.835.039-.811.073-1.529c.066-.955.049-1.778.045-2.451q0-.978,0-1.551c0-.162.007-.294.008-.4a.477.477,0,0,1,.014-.138" transform="translate(-44.049 -21.923)" fill="#373f51"/>
            <path id="Trazado_782273" data-name="Trazado 782273" d="M94.66,63.352H91.616V46.786a7.071,7.071,0,0,0-14.143,0V63.352H74.43V46.786a10.115,10.115,0,1,1,20.23,0Z" transform="translate(-29.736 -14.651)" fill="#f5f5f5"/>
            <path id="Trazado_782274" data-name="Trazado 782274" d="M92.347,83.743H72.063a3.49,3.49,0,0,1-3.489-3.489V65.866a3.489,3.489,0,0,1,3.489-3.489H92.347a3.489,3.489,0,0,1,3.489,3.489V80.254a3.49,3.49,0,0,1-3.489,3.489" transform="translate(-27.397 -24.921)" fill="#fff"/>
            <path id="Trazado_782275" data-name="Trazado 782275" d="M92.243,83.639a6.13,6.13,0,0,0,.907-.156,3.46,3.46,0,0,0,2.508-3.361c0-.7-.008-1.466-.013-2.285-.007-1.643-.014-3.51-.023-5.572s-.02-4.321-.032-6.743A3.354,3.354,0,0,0,93.61,62.7a4.018,4.018,0,0,0-1.868-.29l-2.021,0-17.759.012a3.364,3.364,0,0,0-2.078.727,3.328,3.328,0,0,0-1.165,1.834,4.336,4.336,0,0,0-.094,1.1q0,.571,0,1.138,0,1.133,0,2.248c0,2.97-.006,5.835-.009,8.566.057,1.355-.226,2.755.473,3.827a3.38,3.38,0,0,0,3.038,1.639l6.753.019,9.779.05,2.658.029.692.015a1.316,1.316,0,0,1,.235.016,1.318,1.318,0,0,1-.235.016l-.692.015-2.658.029-9.779.05-6.753.019a3.638,3.638,0,0,1-3.8-3.7q0-1,0-2.022c0-2.73-.005-5.6-.009-8.566q0-1.114,0-2.248,0-.567,0-1.138a4.652,4.652,0,0,1,.1-1.174,3.637,3.637,0,0,1,1.273-2.006,3.674,3.674,0,0,1,2.272-.8l17.759.013,2.021,0a4.292,4.292,0,0,1,1.98.321A3.618,3.618,0,0,1,95.849,65.5c.02,2.445,0,4.693-.006,6.762s-.016,3.929-.023,5.572c0,.819-.008,1.582-.013,2.285a3.561,3.561,0,0,1-.527,1.86,3.459,3.459,0,0,1-2.112,1.562,2.754,2.754,0,0,1-.924.095" transform="translate(-27.292 -24.817)" fill="#373f51"/>
            <path id="Trazado_782276" data-name="Trazado 782276" d="M91.344,77.707a2.959,2.959,0,0,0,.863-2.093,3,3,0,1,0-3.816,2.871l-.644,2.849H90.6l-.574-2.849a3.035,3.035,0,0,0,1.317-.778" transform="translate(-34.443 -29.011)" fill="#f4a338"/>
          </g>
        </g>
        <g id="Grupo_1033782" data-name="Grupo 1033782">
          <g id="Grupo_1033781" data-name="Grupo 1033781" clip-path="url(#clip-path-2)">
            <path id="Trazado_782277" data-name="Trazado 782277" d="M390.86,108.85v24.335c.052,4.208.671,10.812-5.987,10.591-5.762-.628-7.29-6.082-7.336-10.009-.021-1.863-.043-3.416-.057-3.608,0,0-6.307-.515-6.84-6.744-.257-3.011-.282-9.255-.24-14.9a11.647,11.647,0,0,1,10.8-11.52l.6-.044c6.515-.095,9.142,5.388,9.056,11.9" transform="translate(-147.975 -38.731)" fill="#ffc09d"/>
            <path id="Trazado_782278" data-name="Trazado 782278" d="M382.2,150.265a15.1,15.1,0,0,0,7.943-2.993s-1.648,4.7-7.911,4.592Z" transform="translate(-152.697 -58.838)" fill="#ff9b6c"/>
            <path id="Trazado_782279" data-name="Trazado 782279" d="M388.139,119.724c.124.126.843-.453,1.887-.481,1.042-.044,1.824.484,1.933.349.054-.059-.075-.29-.415-.529a2.615,2.615,0,0,0-1.552-.44,2.526,2.526,0,0,0-1.5.545c-.314.262-.416.5-.355.556" transform="translate(-155.062 -47.392)" fill="#373f51"/>
            <path id="Trazado_782280" data-name="Trazado 782280" d="M388.123,124.827a.844.844,0,0,0,.874.79.807.807,0,0,0,.812-.823.844.844,0,0,0-.873-.791.808.808,0,0,0-.814.823" transform="translate(-155.062 -49.542)" fill="#373f51"/>
            <path id="Trazado_782281" data-name="Trazado 782281" d="M382.135,127.215a6.368,6.368,0,0,0-1.577-.167c-.246-.008-.482-.039-.535-.2a1.252,1.252,0,0,1,.11-.737q.28-.913.588-1.916a32.156,32.156,0,0,0,1.269-4.992,32.206,32.206,0,0,0-1.668,4.878q-.291,1.008-.556,1.925a1.424,1.424,0,0,0-.057.97.615.615,0,0,0,.429.328,1.645,1.645,0,0,0,.42.028,6.252,6.252,0,0,0,1.577-.113" transform="translate(-151.674 -47.622)" fill="#373f51"/>
            <path id="Trazado_782282" data-name="Trazado 782282" d="M388.884,112.54c.1.232.936.057,1.937.109,1,.03,1.823.272,1.939.049.051-.106-.1-.319-.444-.526a3.278,3.278,0,0,0-2.953-.12c-.353.178-.522.378-.479.488" transform="translate(-155.364 -44.649)" fill="#373f51"/>
            <path id="Trazado_782283" data-name="Trazado 782283" d="M372.375,115.125c.109.189.924-.021,1.911-.051.987-.049,1.806.1,1.911-.1.046-.094-.117-.263-.461-.413a3.447,3.447,0,0,0-1.46-.241,3.561,3.561,0,0,0-1.451.358c-.339.177-.5.359-.449.449" transform="translate(-148.768 -45.671)" fill="#373f51"/>
            <path id="Trazado_782284" data-name="Trazado 782284" d="M356.615,100.425a1.01,1.01,0,0,1,.474-.589,3.1,3.1,0,0,1,1.592-.259,9,9,0,0,0,4.686-1.424,20.914,20.914,0,0,1,2.18-2.642,15.863,15.863,0,0,1,5.049-3.919,14.469,14.469,0,0,1,7.723-.608,5.846,5.846,0,0,1,4.415,4.548,4.5,4.5,0,0,1,4.522-.424l.037-.016c1.649.588,2.586,2.33,3.073,4.011s.694,3.48,1.584,4.987c.186.315.407.693.245,1.021a.7.7,0,0,1-.728.317,2.045,2.045,0,0,1-.767-.348q.277.66.552,1.321a3.9,3.9,0,0,1-1.794-.119,38.27,38.27,0,0,1-1.173,4.434,2.541,2.541,0,0,0-1.745.429c-.578.519-.836,1.5-1.8,1.125-.489-.189-.934-1.214-1.1-1.711a24.316,24.316,0,0,1-1.053-10.292,7.822,7.822,0,0,0-2.413-1.742l.074.067c-1.741-.6-3.71-1.2-5.362-.382-1.281.634-2.034,1.964-2.993,3.025a9.781,9.781,0,0,1-6.972,3.22c-.092,1.755.055,4.234-.037,5.988l-1.475-2.81v.014c-.121-.206-.221-.413-.318-.621l-.033-.063v-.008a10.9,10.9,0,0,0-.494-1l-.017.015a1.1,1.1,0,0,1-1.6-1.466,2.465,2.465,0,0,1,.53-.533,1.733,1.733,0,0,1-1.652.428,1.36,1.36,0,0,1-.962-1.345,1.157,1.157,0,0,1,.689-.928,3.9,3.9,0,0,1-2.222-.489c-.439-.25-.869-.662-.721-1.214" transform="translate(-142.462 -36.237)" fill="#373f51"/>
            <path id="Trazado_782285" data-name="Trazado 782285" d="M396.868,99.936a5.369,5.369,0,0,1,.625.572,4.466,4.466,0,0,1,.957,2.069,7.847,7.847,0,0,1,.159,1.583c0,.574-.043,1.189-.088,1.836a16.529,16.529,0,0,0-.047,2.043,7.157,7.157,0,0,0,.141,1.078,2.248,2.248,0,0,0,.44,1.046.942.942,0,0,0,.88.3,1.4,1.4,0,0,0,.791-.447,3.224,3.224,0,0,0,.6-1.585l-.13.016a5.234,5.234,0,0,0,.758,1.305,1.862,1.862,0,0,0,1.212.661,1.2,1.2,0,0,0,.643-.113,1.033,1.033,0,0,0,.437-.43,1.067,1.067,0,0,0,.133-.552.774.774,0,0,0-.2-.485l-.065.059a4.016,4.016,0,0,0,1.338,1,3.524,3.524,0,0,0,.415.161.646.646,0,0,0,.148.037.77.77,0,0,0-.14-.059c-.092-.038-.231-.094-.4-.181a4.138,4.138,0,0,1-1.292-1.019l-.066.059a.8.8,0,0,1,.041.926.929.929,0,0,1-.395.381,1.085,1.085,0,0,1-.582.095,1.738,1.738,0,0,1-1.125-.628,5.151,5.151,0,0,1-.73-1.277l-.089-.2-.041.216a3.126,3.126,0,0,1-.572,1.514,1.263,1.263,0,0,1-.708.4.8.8,0,0,1-.748-.251,2.125,2.125,0,0,1-.407-.978,7.186,7.186,0,0,1-.139-1.056,16.687,16.687,0,0,1,.038-2.026c.04-.647.082-1.265.074-1.846a7.827,7.827,0,0,0-.179-1.6,4.408,4.408,0,0,0-1.015-2.085,2.528,2.528,0,0,0-.667-.534" transform="translate(-158.556 -39.926)" fill="#4adbd1"/>
            <path id="Trazado_782286" data-name="Trazado 782286" d="M364.762,103.672s.016.016.05.043l.156.113a2.106,2.106,0,0,0,.264.169,3.211,3.211,0,0,0,.38.2,5.524,5.524,0,0,0,2.667.48,7.058,7.058,0,0,0,3.761-1.389,12.228,12.228,0,0,0,3.231-3.724c.453-.754.823-1.528,1.23-2.243a8.245,8.245,0,0,1,1.393-1.9,4.251,4.251,0,0,1,1.8-1.09,3.045,3.045,0,0,1,.947-.109,3.339,3.339,0,0,1,.867.167,3.6,3.6,0,0,1,2,1.695,4.352,4.352,0,0,1,.322.934.228.228,0,0,0-.005-.065l-.029-.191a3.089,3.089,0,0,0-.237-.7,3.547,3.547,0,0,0-.7-.946,3.65,3.65,0,0,0-1.322-.821,3.444,3.444,0,0,0-.895-.181,3.159,3.159,0,0,0-.985.105,4.362,4.362,0,0,0-1.857,1.11,8.318,8.318,0,0,0-1.423,1.923c-.413.719-.782,1.491-1.231,2.239a12.233,12.233,0,0,1-3.185,3.69,7.021,7.021,0,0,1-3.689,1.395,5.612,5.612,0,0,1-2.638-.429,8.829,8.829,0,0,1-.872-.473" transform="translate(-145.729 -37.599)" fill="#4adbd1"/>
            <path id="Trazado_782287" data-name="Trazado 782287" d="M363.818,105.473a.949.949,0,0,0,.223.156,4.858,4.858,0,0,0,.662.336,6.459,6.459,0,0,0,1.048.344,6.775,6.775,0,0,0,2.689.086,6.411,6.411,0,0,0,1.068-.276,4.82,4.82,0,0,0,.682-.293.986.986,0,0,0,.233-.141c-.012-.025-.357.153-.947.336a7.4,7.4,0,0,1-1.057.242,7.291,7.291,0,0,1-2.639-.085,7.36,7.36,0,0,1-1.039-.309c-.578-.222-.91-.42-.924-.4" transform="translate(-145.352 -42.138)" fill="#4adbd1"/>
            <path id="Trazado_782288" data-name="Trazado 782288" d="M372.292,119.724c.124.126.843-.453,1.887-.481,1.042-.044,1.823.484,1.932.349.054-.059-.074-.29-.415-.529a2.615,2.615,0,0,0-1.552-.44,2.522,2.522,0,0,0-1.5.545c-.314.262-.416.5-.355.555" transform="translate(-148.731 -47.392)" fill="#373f51"/>
            <path id="Trazado_782289" data-name="Trazado 782289" d="M374.075,124.827a.844.844,0,0,0,.874.79.807.807,0,0,0,.812-.823.845.845,0,0,0-.873-.791.808.808,0,0,0-.814.823" transform="translate(-149.45 -49.542)" fill="#373f51"/>
            <path id="Trazado_782290" data-name="Trazado 782290" d="M404.211,124.318c.1-.054,4.187-1.578,4.362,2.69s-4.146,3.563-4.158,3.441-.2-6.131-.2-6.131" transform="translate(-161.49 -49.544)" fill="#ffc09d"/>
            <path id="Trazado_782291" data-name="Trazado 782291" d="M406.609,129.681c.018-.014.076.049.2.1a.743.743,0,0,0,.556-.011,1.841,1.841,0,0,0,.784-1.686,2.461,2.461,0,0,0-.252-1.056.86.86,0,0,0-.583-.548.377.377,0,0,0-.43.222c-.053.122-.022.206-.044.214s-.094-.067-.067-.245a.475.475,0,0,1,.157-.274.564.564,0,0,1,.407-.126,1.045,1.045,0,0,1,.8.63,2.531,2.531,0,0,1,.307,1.179,1.933,1.933,0,0,1-1.009,1.888.8.8,0,0,1-.685-.085c-.136-.1-.163-.195-.148-.2" transform="translate(-162.446 -50.448)" fill="#ff9b6c"/>
            <path id="Trazado_782292" data-name="Trazado 782292" d="M386.773,134.023c.035.007.036.251-.112.612a2.579,2.579,0,0,1-.982,1.139,2.38,2.38,0,0,1-1.454.391c-.393-.035-.6-.165-.592-.2s.241,0,.593-.023a2.732,2.732,0,0,0,1.284-.434,3.067,3.067,0,0,0,.954-.976c.184-.305.26-.523.309-.511" transform="translate(-153.268 -53.544)" fill="#373f51"/>
            <path id="Trazado_782293" data-name="Trazado 782293" d="M417.271,415.187l1.275,14.433,4.511,11.143a1.465,1.465,0,0,1-1.015,1.947,1.649,1.649,0,0,1-1.422-.243c-2.577-1.875-11.862-8.765-11.966-9.663-.134-1.162-2.5-15.354-2.5-15.354Z" transform="translate(-162.265 -165.875)" fill="#4adbd1"/>
            <path id="Trazado_782294" data-name="Trazado 782294" d="M423.535,453.339l-13.643-11.55.133,1.069c.092.584.1.9.512,1.268a130.489,130.489,0,0,0,11.431,9.214,1.854,1.854,0,0,0,1.567,0" transform="translate(-163.76 -176.503)" fill="#373f51"/>
            <path id="Trazado_782295" data-name="Trazado 782295" d="M413.486,434.227a.872.872,0,0,1,.392,1.14.947.947,0,0,1-1.2.375.918.918,0,0,1-.408-1.209.991.991,0,0,1,1.293-.26" transform="translate(-164.669 -173.442)" fill="#fff"/>
            <path id="Trazado_782296" data-name="Trazado 782296" d="M425.582,449.868c.091.031.351-.757,1.217-1.254a5.051,5.051,0,0,1,1.728-.493c.01-.037-.2-.129-.561-.141a2.58,2.58,0,0,0-1.347.365,2.368,2.368,0,0,0-.931.987c-.145.314-.145.529-.106.537" transform="translate(-170.019 -178.976)" fill="#373f51"/>
            <path id="Trazado_782297" data-name="Trazado 782297" d="M427.769,453.335a13.027,13.027,0,0,1,1.287-.755,13.459,13.459,0,0,1,1.475-.33,1.846,1.846,0,0,0-1.606.037c-.874.337-1.241,1.017-1.157,1.048" transform="translate(-170.897 -180.623)" fill="#373f51"/>
            <path id="Trazado_782298" data-name="Trazado 782298" d="M421.745,445.968a15.733,15.733,0,0,1,1.9-1.291,16.508,16.508,0,0,1,2.216-.725,3.691,3.691,0,0,0-2.372.443,3.38,3.38,0,0,0-1.747,1.573" transform="translate(-168.492 -177.345)" fill="#373f51"/>
            <path id="Trazado_782299" data-name="Trazado 782299" d="M420.452,439.528c.05.082.859-.334,1.957-.482s2,.014,2.021-.078a3.223,3.223,0,0,0-2.071-.237,3.128,3.128,0,0,0-1.906.8" transform="translate(-167.977 -175.262)" fill="#373f51"/>
            <path id="Trazado_782300" data-name="Trazado 782300" d="M419.639,432.465a5.305,5.305,0,0,1,4.108-.276c.022-.033-.166-.2-.541-.354a3.59,3.59,0,0,0-1.569-.241,3.549,3.549,0,0,0-1.516.448c-.348.205-.509.393-.482.422" transform="translate(-167.653 -172.427)" fill="#373f51"/>
            <path id="Trazado_782301" data-name="Trazado 782301" d="M421.223,429.009a1.169,1.169,0,0,0-.041-.547,3.685,3.685,0,0,0-.621-1.38,1.757,1.757,0,0,0-.856-.725.658.658,0,0,0-.7.2.926.926,0,0,0-.169.674A2.193,2.193,0,0,0,421,428.97a2.59,2.59,0,0,0,2.385-1.518.8.8,0,0,0-.037-.7.643.643,0,0,0-.682-.243,2.216,2.216,0,0,0-.954.594,4.235,4.235,0,0,0-.919,1.223,1.241,1.241,0,0,0-.18.521,6.784,6.784,0,0,1,1.263-1.581,2.081,2.081,0,0,1,.844-.5.341.341,0,0,1,.373.131.545.545,0,0,1,0,.463,2.315,2.315,0,0,1-2.084,1.293,1.908,1.908,0,0,1-1.858-1.449.668.668,0,0,1,.1-.475.357.357,0,0,1,.383-.118,1.6,1.6,0,0,1,.737.6,5.438,5.438,0,0,1,.857,1.8" transform="translate(-167.332 -170.326)" fill="#373f51"/>
            <path id="Trazado_782302" data-name="Trazado 782302" d="M355.741,416.344l.569,12.223s-13.026,4.648-13.155,6.916l25.251-.185-.055-19.078Z" transform="translate(-137.097 -166.288)" fill="#4adbd1"/>
            <path id="Trazado_782303" data-name="Trazado 782303" d="M377.234,434.948a.968.968,0,0,1,.722,1.1,1,1,0,0,1-1.155.682,1.019,1.019,0,0,1-.758-1.17,1.048,1.048,0,0,1,1.285-.585" transform="translate(-150.222 -173.755)" fill="#e0e0e0"/>
            <path id="Trazado_782304" data-name="Trazado 782304" d="M368.4,446.714l-.085-1.923-24.178.9s-1.121.468-.988,1.212Z" transform="translate(-137.09 -177.702)" fill="#373f51"/>
            <path id="Trazado_782305" data-name="Trazado 782305" d="M364.378,436.513c0,.116.622.164,1.232.532s.937.853,1.05.806c.113-.023-.076-.715-.823-1.149s-1.487-.3-1.459-.19" transform="translate(-145.575 -174.351)" fill="#373f51"/>
            <path id="Trazado_782306" data-name="Trazado 782306" d="M359.981,438.3c-.027.112.509.306.931.793.438.476.548,1,.671,1,.116.017.2-.662-.342-1.259s-1.258-.644-1.26-.533" transform="translate(-143.819 -175.09)" fill="#373f51"/>
            <path id="Trazado_782307" data-name="Trazado 782307" d="M356.851,441.988c.112.024.279-.557-.043-1.189s-.9-.881-.952-.784c-.068.1.309.434.565.957s.308,1.005.431,1.016" transform="translate(-142.168 -175.786)" fill="#373f51"/>
            <path id="Trazado_782308" data-name="Trazado 782308" d="M364.707,431.642c.052.105.617-.059,1.314-.019s1.242.242,1.306.142c.071-.084-.462-.509-1.284-.545s-1.4.331-1.335.422" transform="translate(-145.706 -172.279)" fill="#373f51"/>
            <path id="Trazado_782309" data-name="Trazado 782309" d="M356.8,268.2c.014.707,2.933,98.389,2.933,98.389h15.608l3.162-83.559s3.692,43.69,3.692,44.633,3.258,39.4,3.258,39.4l14.47-1.11-.949-87.975-1.768-12.9Z" transform="translate(-142.546 -105.902)" fill="#373f51"/>
            <path id="Trazado_782310" data-name="Trazado 782310" d="M393.6,282.837a2.989,2.989,0,0,1-.634.25c-.414.142-1.017.339-1.762.576l-.142.045-.01-.138c-.086-1.175-.185-2.747-.276-4.469-.1-1.867-.172-3.558-.209-4.782-.019-.612-.028-1.108-.028-1.451a1.766,1.766,0,0,1,.032-.534,1.791,1.791,0,0,1,.088.528c.037.342.08.836.126,1.447.093,1.223.2,2.912.3,4.779.091,1.723.16,3.295.2,4.472l-.152-.093c.754-.213,1.368-.38,1.795-.489a3.085,3.085,0,0,1,.674-.141" transform="translate(-156.029 -108.803)" fill="#4adbd1"/>
            <path id="Trazado_782311" data-name="Trazado 782311" d="M393.2,272.731c-.01-.013.05-.078.207-.128a1.017,1.017,0,0,1,.689.056.808.808,0,0,1,.522.8,1.008,1.008,0,0,1-.83.865,1.167,1.167,0,0,1-1.151-.49.828.828,0,0,1,.013-.928,1.025,1.025,0,0,1,.516-.406c.153-.051.246-.043.249-.026.023.041-.352.112-.571.523a.658.658,0,0,0,.037.706.9.9,0,0,0,.847.351.765.765,0,0,0,.608-.618.6.6,0,0,0-.344-.608,1.3,1.3,0,0,0-.791-.1" transform="translate(-156.813 -108.855)" fill="#4adbd1"/>
            <path id="Trazado_782312" data-name="Trazado 782312" d="M405.4,273.3c-.085.008-.2-.416-.264-.946s-.041-.966.043-.974.2.416.264.946.041.966-.043.974" transform="translate(-161.845 -108.421)" fill="#4adbd1"/>
            <path id="Trazado_782313" data-name="Trazado 782313" d="M407.3,273.071c-.085,0-.157-.451-.16-1.008s.064-1.008.149-1.009.157.451.16,1.008-.064,1.008-.149,1.009" transform="translate(-162.658 -108.292)" fill="#4adbd1"/>
            <path id="Trazado_782314" data-name="Trazado 782314" d="M375.838,274.006c-.085.008-.217-.5-.295-1.134s-.073-1.156.013-1.164.217.5.295,1.134.072,1.155-.013,1.164" transform="translate(-150.015 -108.553)" fill="#4adbd1"/>
            <path id="Trazado_782315" data-name="Trazado 782315" d="M378,274.094a1.708,1.708,0,0,1-.381-1.188,1.681,1.681,0,0,1,.271-1.212c.087.019,0,.55.037,1.2s.157,1.175.073,1.2" transform="translate(-150.864 -108.546)" fill="#4adbd1"/>
            <path id="Trazado_782316" data-name="Trazado 782316" d="M365.447,273.518a1.314,1.314,0,0,1-.052.431,8.042,8.042,0,0,1-.313,1.145,11.882,11.882,0,0,1-1.933,3.481,13.218,13.218,0,0,1-3.049,2.773,9.973,9.973,0,0,1-1.109.64,1.764,1.764,0,0,1-.438.185c-.025-.038.566-.351,1.427-.964a14.927,14.927,0,0,0,2.942-2.777,13.587,13.587,0,0,0,1.973-3.393c.367-.928.5-1.529.552-1.52" transform="translate(-143.249 -109.276)" fill="#4adbd1"/>
            <path id="Trazado_782317" data-name="Trazado 782317" d="M420.3,280.567a1.606,1.606,0,0,1-.473.07,7.828,7.828,0,0,1-1.307-.023,8.919,8.919,0,0,1-4-1.39,7.6,7.6,0,0,1-2.664-3,5.842,5.842,0,0,1-.408-1.109,1.164,1.164,0,0,1-.065-.425c.049-.011.183.588.652,1.46a8.091,8.091,0,0,0,2.651,2.878,9.4,9.4,0,0,0,3.858,1.416c1.072.144,1.752.081,1.755.127" transform="translate(-164.353 -109.742)" fill="#4adbd1"/>
            <path id="Trazado_782318" data-name="Trazado 782318" d="M376.249,365.032c-.02.066-2.607-.493-5.777-1.249s-5.726-1.423-5.706-1.489,2.606.493,5.778,1.249,5.726,1.423,5.706,1.489" transform="translate(-145.73 -144.741)" fill="#4adbd1"/>
            <path id="Trazado_782319" data-name="Trazado 782319" d="M418.989,360.935c.037.06-2.214,1.236-5.028,2.626s-5.126,2.469-5.162,2.409,2.213-1.235,5.028-2.626,5.125-2.469,5.162-2.409" transform="translate(-163.323 -144.2)" fill="#4adbd1"/>
            <path id="Trazado_782320" data-name="Trazado 782320" d="M338.886,213.348l2.134,2.668v-4.591h6.723s.746,10.513.587,12.754a18.156,18.156,0,0,1-.823,3.429,3.946,3.946,0,0,1-6.516,1.631,22.7,22.7,0,0,1-2.1-2.339c-2.988-3.842-7.952-13.2-7.952-13.2l5.177-3.127Z" transform="translate(-132.214 -84.128)" fill="#ffc09d"/>
            <path id="Trazado_782321" data-name="Trazado 782321" d="M343.467,214.372a7.612,7.612,0,0,0,.879,1.173c.566.7,1.352,1.672,2.251,2.72s1.746,1.97,2.4,2.6a4.834,4.834,0,0,0,1.142.925,11.2,11.2,0,0,0-.982-1.082c-.612-.659-1.427-1.6-2.325-2.645a33.047,33.047,0,0,0-3.369-3.686" transform="translate(-137.22 -85.645)" fill="#ff9b6c"/>
            <path id="Trazado_782322" data-name="Trazado 782322" d="M369.717,159.055l7.09-2.78,13.06-.739L396,157.87l-8.412,4.671-7.253-.267Z" transform="translate(-147.709 -62.139)" fill="#ffc09d"/>
            <path id="Trazado_782323" data-name="Trazado 782323" d="M350.9,225.771c.641.11,43.432,1.928,43.432,1.928l-1.5-38.476-.123-7.554-2.431-22.885s-6.4-2.2-9.659-3.25c0,0-3.435,3.58-9.966,3.483-6.384-.095-7.718-1.534-7.718-1.534l-8.926,3.422s-6.347,2.276-7.439,5.084c-1.063,2.733-3.011,18.346-3.011,18.346h9.252l-.175,27.58Z" transform="translate(-137.259 -62.139)" fill="#4adbd1"/>
            <g id="Grupo_1033774" data-name="Grupo 1033774" transform="translate(240.55 111.799)" opacity="0.2">
              <g id="Grupo_1033773" data-name="Grupo 1033773">
                <g id="Grupo_1033772" data-name="Grupo 1033772" clip-path="url(#clip-path-11)">
                  <path id="Trazado_782324" data-name="Trazado 782324" d="M400.6,186.665l1.327,9.7,6.419,2.867,4.745-4.044v-9Z" transform="translate(-400.596 -186.183)"/>
                </g>
              </g>
            </g>
            <path id="Trazado_782325" data-name="Trazado 782325" d="M413.188,191.471c0,.08-2.668.146-5.957.146s-5.959-.065-5.959-.146,2.667-.146,5.959-.146,5.957.065,5.957.146" transform="translate(-160.316 -76.438)" fill="#373f51"/>
            <path id="Trazado_782326" data-name="Trazado 782326" d="M350.988,179.622a1.232,1.232,0,0,1,.068.255l.171.743a24.556,24.556,0,0,0,.852,2.73c.426,1.149,1.029,2.5,1.765,4.012.7,1.543,1.327,3.319,1.985,5.243l.007.02v.022c-.015,2.3-.032,4.828-.05,7.463-.062,5.883-.118,11.209-.159,15.1-.034,1.91-.061,3.465-.081,4.573q-.022.779-.035,1.243a2.517,2.517,0,0,1-.032.433,2.612,2.612,0,0,1-.025-.435q-.005-.465-.016-1.244c0-1.109,0-2.665-.008-4.576.02-3.887.047-9.211.078-15.094.024-2.635.046-5.158.067-7.461l.007.041c-.646-1.92-1.265-3.7-1.938-5.233a43.056,43.056,0,0,1-1.715-4.049,20.884,20.884,0,0,1-.785-2.766c-.064-.328-.109-.581-.131-.754a1.252,1.252,0,0,1-.025-.263" transform="translate(-140.226 -71.762)" fill="#373f51"/>
            <path id="Trazado_782327" data-name="Trazado 782327" d="M425.9,172.126a4.934,4.934,0,0,1-.008.821c-.022.578-.05,1.329-.083,2.233-.076,1.935-.178,4.517-.291,7.37-.129,2.854-.246,5.435-.333,7.37-.052.9-.1,1.655-.128,2.233a4.692,4.692,0,0,1-.085.817,4.657,4.657,0,0,1-.023-.821c.01-.578.024-1.33.04-2.236.047-1.888.133-4.495.252-7.374s.25-5.484.372-7.369c.061-.942.121-1.7.172-2.23a4.469,4.469,0,0,1,.116-.814" transform="translate(-169.776 -68.768)" fill="#373f51"/>
            <g id="Grupo_1033777" data-name="Grupo 1033777" transform="translate(210.768 109.258)" opacity="0.3">
              <g id="Grupo_1033776" data-name="Grupo 1033776">
                <g id="Grupo_1033775" data-name="Grupo 1033775" clip-path="url(#clip-path-12)">
                  <path id="Trazado_782328" data-name="Trazado 782328" d="M351.017,181.95a16.08,16.08,0,0,0,4.2,11.463c-.871-3.969-3.044-7.664-4.2-11.463" transform="translate(-350.999 -181.95)"/>
                </g>
              </g>
            </g>
            <g id="Grupo_1033780" data-name="Grupo 1033780" transform="translate(229.581 131.645)" opacity="0.3">
              <g id="Grupo_1033779" data-name="Grupo 1033779">
                <g id="Grupo_1033778" data-name="Grupo 1033778" clip-path="url(#clip-path-13)">
                  <path id="Trazado_782329" data-name="Trazado 782329" d="M382.328,234.935a8.009,8.009,0,0,0,5.135-2.858,24.3,24.3,0,0,0,3.449-4.994,19.686,19.686,0,0,0,2.022-7.852,37.022,37.022,0,0,1-10.607,15.7" transform="translate(-382.328 -219.233)"/>
                </g>
              </g>
            </g>
            <path id="Trazado_782330" data-name="Trazado 782330" d="M392.472,214.379a.823.823,0,0,1-.035.246c-.042.191-.093.42-.154.695-.065.3-.158.669-.288,1.089s-.258.9-.449,1.423a33.131,33.131,0,0,1-1.477,3.594,38,38,0,0,1-2.354,4.136,37.128,37.128,0,0,1-2.9,3.773,31.055,31.055,0,0,1-2.758,2.737c-.407.375-.806.679-1.149.952s-.646.5-.9.674l-.588.4a.848.848,0,0,1-.216.124c-.005-.008.058-.067.184-.17l.555-.442c.246-.185.54-.419.869-.707s.72-.6,1.116-.978a34.5,34.5,0,0,0,2.7-2.76,39.963,39.963,0,0,0,2.863-3.758,40.9,40.9,0,0,0,2.356-4.094,36.9,36.9,0,0,0,1.521-3.547c.2-.512.348-.988.486-1.4s.251-.774.332-1.071l.2-.68a.85.85,0,0,1,.089-.233" transform="translate(-151.496 -85.648)" fill="#373f51"/>
            <path id="Trazado_782331" data-name="Trazado 782331" d="M386.044,194.326a2.068,2.068,0,0,1-.05.393l-.2,1.117c-.083.486-.2,1.078-.371,1.757s-.331,1.461-.6,2.3l-.392,1.327c-.139.461-.318.93-.484,1.42-.322.987-.753,2.008-1.19,3.089a51.372,51.372,0,0,1-7.9,12.9c-.765.881-1.478,1.73-2.21,2.466-.361.372-.7.744-1.044,1.077l-1,.953c-.628.62-1.25,1.12-1.778,1.58s-1,.835-1.4,1.129l-.9.683a2.156,2.156,0,0,1-.327.223,2.164,2.164,0,0,1,.293-.268l.872-.724c.384-.307.847-.689,1.361-1.163s1.128-.978,1.744-1.6l.987-.962c.342-.336.673-.71,1.029-1.084.722-.739,1.425-1.59,2.181-2.471a53.24,53.24,0,0,0,7.858-12.839c.44-1.074.878-2.087,1.208-3.065.171-.488.354-.952.5-1.409l.407-1.317c.277-.835.453-1.611.635-2.284s.317-1.26.416-1.741l.247-1.105a2.085,2.085,0,0,1,.105-.382" transform="translate(-146.305 -77.637)" fill="#373f51"/>
            <path id="Trazado_782332" data-name="Trazado 782332" d="M328.313,172.781c2.638,4.009,13.317,20.248,16.475,25.05a.742.742,0,0,1-.715,1.143L325.1,196.587a.742.742,0,0,1-.506-.3l-18.121-24.75a.742.742,0,0,1,.654-1.179l19.52,1.444a2.183,2.183,0,0,1,1.666.978" transform="translate(-122.384 -68.061)" fill="#e0e0e0"/>
            <path id="Trazado_782333" data-name="Trazado 782333" d="M328.228,172.7a1.282,1.282,0,0,0-.151-.228,2.125,2.125,0,0,0-.614-.517,2.666,2.666,0,0,0-1.264-.307l-1.765-.145-11.253-.883-3.73-.286-1.983-.151c-.175-.01-.323-.032-.524-.032a.845.845,0,0,0-.546.227.872.872,0,0,0-.144,1.115l5.275,7.235,12.1,16.547c.276.372.521.722.819,1.108a.9.9,0,0,0,.337.228,1.48,1.48,0,0,0,.368.073l.67.084,2.654.333,5.19.651,9.811,1.225c.2.022.372.054.6.067a.869.869,0,0,0,.629-.262.9.9,0,0,0,.26-.623,1.048,1.048,0,0,0-.228-.608l-1.251-1.9-2.393-3.624-4.3-6.5-6.244-9.4-1.711-2.547-.452-.658a1.7,1.7,0,0,0-.163-.219,1.686,1.686,0,0,0,.136.236l.426.676,1.662,2.58,6.16,9.458,4.268,6.523,2.38,3.633,1.245,1.9a.745.745,0,0,1,.18.451.612.612,0,0,1-.178.422.58.58,0,0,1-.422.175c-.161-.009-.379-.045-.567-.067l-9.809-1.243-5.189-.655-2.654-.334-.67-.085a1.248,1.248,0,0,1-.294-.054.593.593,0,0,1-.219-.148l-.8-1.08-12.121-16.532-5.29-7.205a.609.609,0,0,1,.1-.782.585.585,0,0,1,.382-.16c.141,0,.331.02.493.029l1.985.142,3.731.266,11.261.782,1.768.116a2.639,2.639,0,0,1,1.24.269,2.516,2.516,0,0,1,.8.689" transform="translate(-122.299 -67.977)" fill="#373f51"/>
            <path id="Trazado_782334" data-name="Trazado 782334" d="M306.569,172.321a2.208,2.208,0,0,0,.4.059l1.152.116,4.287.381,14.58,1.19-.116-.067c.912,1.356,1.854,2.763,2.8,4.218,3.847,5.914,7.208,11.351,9.746,15.218,1.262,1.939,2.311,3.489,3.041,4.557l.856,1.219a3.178,3.178,0,0,0,.316.413,3.224,3.224,0,0,0-.264-.448l-.806-1.252-2.956-4.609c-2.489-3.9-5.819-9.349-9.67-15.27-.946-1.456-1.89-2.864-2.807-4.22l-.042-.062-.074-.005-14.588-1.083-4.295-.288-1.155-.064a2.153,2.153,0,0,0-.4,0" transform="translate(-122.48 -68.843)" fill="#373f51"/>
            <path id="Trazado_782335" data-name="Trazado 782335" d="M326.153,178.217h0l-.008,0Z" transform="translate(-130.301 -71.2)" fill="#fff"/>
            <path id="Trazado_782336" data-name="Trazado 782336" d="M325.37,178.5a.383.383,0,0,1,.469-.283,1.014,1.014,0,0,1,.509.286.508.508,0,0,1,.092.65c-.189.234-.579.148-.807-.049a.664.664,0,0,1-.264-.6" transform="translate(-129.988 -71.196)" fill="#fff"/>
            <path id="Trazado_782337" data-name="Trazado 782337" d="M332.686,200.661s.749-1.785-1.152-2.015a65.711,65.711,0,0,0-6.889,0s-2.727.288-2.151,2.246c0,0-1.612,1.439-.749,2.994s1.209,1.094,1.209,1.094-.23,1.9,1.209,2.188c0,0,1.561,1.842,3,1.728s7.54-3.052,7.943-3.628.979-.9.633-1.546c0,0,.749-1.685-.863-1.941,0,0-.115-1.408-2.188-1.12" transform="translate(-128.441 -79.322)" fill="#ffc09d"/>
            <path id="Trazado_782338" data-name="Trazado 782338" d="M325.716,202.626a5.209,5.209,0,0,0,1.284.092c.793.017,1.887.018,3.1,0a18.367,18.367,0,0,0,3.109-.185c.82-.19,1.141-.671,1.1-.681a3.266,3.266,0,0,1-1.149.462c-.754.126-1.861.049-3.068.088-1.209.018-2.3.053-3.094.093a5.217,5.217,0,0,0-1.28.132" transform="translate(-130.13 -80.642)" fill="#ff9b6c"/>
            <path id="Trazado_782339" data-name="Trazado 782339" d="M327.982,205.992a.956.956,0,0,0,.413.142,4.41,4.41,0,0,0,1.187.074,8.39,8.39,0,0,0,1.732-.314c.637-.176,1.315-.421,2.031-.641a9.074,9.074,0,0,1,2.043-.422,3.141,3.141,0,0,0,1.741-.352,1,1,0,0,0,.416-.593.822.822,0,0,0-.072-.539c-.15-.275-.354-.291-.349-.275-.016.025.147.082.237.325a.744.744,0,0,1-.357.9,3.12,3.12,0,0,1-1.631.246,8.5,8.5,0,0,0-2.12.41l-2.02.663a9.614,9.614,0,0,1-1.67.371,10.865,10.865,0,0,1-1.58.007" transform="translate(-131.035 -81.13)" fill="#ff9b6c"/>
            <path id="Trazado_782340" data-name="Trazado 782340" d="M331.38,210.15a5.121,5.121,0,0,0,1.282-.248c.78-.2,1.849-.5,3.017-.884s2.21-.769,2.956-1.071a5.161,5.161,0,0,0,1.181-.558c-.032-.084-1.908.569-4.235,1.328s-4.224,1.346-4.2,1.433" transform="translate(-132.392 -82.853)" fill="#ff9b6c"/>
            <path id="Trazado_782341" data-name="Trazado 782341" d="M330.565,213.967a2.8,2.8,0,0,0,1.063-.122,12.734,12.734,0,0,0,2.431-.856c.915-.416,1.713-.842,2.291-1.148a3.851,3.851,0,0,0,.911-.551,19.983,19.983,0,0,0-3.333,1.411c-1.8.862-3.376,1.184-3.364,1.266" transform="translate(-132.067 -84.41)" fill="#ff9b6c"/>
            <path id="Trazado_782342" data-name="Trazado 782342" d="M411.356,179.991s-3.879,15.542-8.726,21.278c-4.693,5.555-12.05,3-14.6-4.186s-7.086-23.606-7.086-23.606l5.574-4.262,9.631,18.665,4.34-12.724Z" transform="translate(-152.195 -67.605)" fill="#ffc09d"/>
            <path id="Trazado_782343" data-name="Trazado 782343" d="M376.53,164.648l-4.087-5.924a10.67,10.67,0,0,1-1.741-.54c-.464-.271-.919-2.625-.91-3.083s-.793-1.534-.468-1.836,1.421-.325,1.362-.766c-.013-.094-.813-1.076-.178-1.8a3.386,3.386,0,0,1,1.152-.489l-.066-2.261s1.221-2.669,2.469-1.7c0,0,4.7,3.614,5.179,4.191s2.284,8.1,2.605,9.515" transform="translate(-147.521 -58.345)" fill="#ffc09d"/>
            <path id="Trazado_782344" data-name="Trazado 782344" d="M381.754,159.866a2.1,2.1,0,0,0-.063-.4c-.061-.286-.141-.662-.242-1.132-.22-.981-.549-2.4-.995-4.148-.225-.874-.474-1.83-.787-2.85-.083-.254-.163-.513-.272-.775a1.741,1.741,0,0,0-.555-.682c-.428-.377-.879-.747-1.344-1.124-.931-.754-1.919-1.531-2.95-2.332a3.441,3.441,0,0,0-.861-.568,1.181,1.181,0,0,0-1.061.252,4.845,4.845,0,0,0-1.253,1.693l-.014.028v.036c.006.219.013.455.02.692.016.529.031,1.053.046,1.569l.11-.145a5.511,5.511,0,0,0-.829.279,1.205,1.205,0,0,0-.4.262,1.132,1.132,0,0,0-.228.418,1.4,1.4,0,0,0,.071.9,2.661,2.661,0,0,0,.185.389l.1.178.021.037c-.005-.007,0-.023,0-.008a.063.063,0,0,1-.007.038c-.012.051-.122.121-.232.165s-.239.085-.365.124-.256.076-.387.128a.759.759,0,0,0-.392.275.646.646,0,0,0-.01.482,2.968,2.968,0,0,0,.138.38c.1.24.216.466.3.69a.959.959,0,0,1,.071.317,3.171,3.171,0,0,0,.037.386c.035.247.081.488.13.724a9.616,9.616,0,0,0,.384,1.366,1.733,1.733,0,0,0,.359.63,2.1,2.1,0,0,0,.638.28c.414.129.817.23,1.21.321l-.065-.044,3.028,4.3.839,1.165a3.037,3.037,0,0,0,.311.395,3.007,3.007,0,0,0-.259-.431l-.791-1.2-2.948-4.357-.023-.034-.043-.011c-.385-.094-.787-.2-1.188-.33a2.062,2.062,0,0,1-.551-.238,1.6,1.6,0,0,1-.287-.537,9.445,9.445,0,0,1-.361-1.331c-.046-.232-.089-.468-.123-.707a3.216,3.216,0,0,1-.032-.35,1.218,1.218,0,0,0-.085-.409c-.091-.246-.2-.474-.3-.7a2.7,2.7,0,0,1-.124-.344.42.42,0,0,1-.013-.278.611.611,0,0,1,.252-.15c.114-.044.24-.08.366-.119s.258-.076.392-.132a.658.658,0,0,0,.386-.318.342.342,0,0,0,.027-.159.223.223,0,0,0-.026-.106l-.028-.051-.1-.174a2.447,2.447,0,0,1-.166-.35,1.118,1.118,0,0,1-.062-.719.842.842,0,0,1,.169-.31.988.988,0,0,1,.3-.188,5.2,5.2,0,0,1,.781-.261l.113-.03,0-.115c-.014-.516-.03-1.04-.045-1.569-.007-.237-.014-.473-.02-.692l-.013.064a4.611,4.611,0,0,1,1.162-1.583.9.9,0,0,1,.806-.21,3.4,3.4,0,0,1,.771.519c1.032.8,2.024,1.568,2.957,2.315.467.373.919.739,1.344,1.107a1.509,1.509,0,0,1,.5.59c.1.244.187.5.271.751.321,1.007.581,1.961.818,2.829.452,1.72.82,3.12,1.083,4.122l.294,1.119a2.183,2.183,0,0,0,.119.386" transform="translate(-147.429 -58.255)" fill="#ff9b6c"/>
            <path id="Trazado_782345" data-name="Trazado 782345" d="M373.265,152.908c0,.05.477.012,1.22.083a8.747,8.747,0,0,1,1.286.294,5.924,5.924,0,0,0,1.664.014,3.14,3.14,0,0,1,2.62.85,3.378,3.378,0,0,1,.632,1.006,1.553,1.553,0,0,0-.482-1.146,3.05,3.05,0,0,0-1.125-.79,3.426,3.426,0,0,0-1.665-.209,6.383,6.383,0,0,1-1.591.013,7.053,7.053,0,0,0-1.323-.237,3.234,3.234,0,0,0-1.235.121" transform="translate(-149.126 -61.04)" fill="#ff9b6c"/>
            <path id="Trazado_782346" data-name="Trazado 782346" d="M375.969,151.965c.07.035.259-.24.234-.63s-.244-.641-.308-.6,0,.3.019.615-.022.581.055.613" transform="translate(-150.165 -60.22)" fill="#ff9b6c"/>
            <path id="Trazado_782347" data-name="Trazado 782347" d="M371.4,156.448a10.274,10.274,0,0,0,3.543-.277,3.511,3.511,0,0,1,1.3-.165,1.414,1.414,0,0,1,.844.557,8.4,8.4,0,0,1,.465.9,1.582,1.582,0,0,0-.3-1.016,1.561,1.561,0,0,0-.958-.7,3.409,3.409,0,0,0-1.417.144c-1.9.414-3.485.475-3.482.561" transform="translate(-148.381 -62.208)" fill="#ff9b6c"/>
            <path id="Trazado_782348" data-name="Trazado 782348" d="M370.359,159.979a1.9,1.9,0,0,0,.871,0c.535-.059,1.253-.244,2.037-.4a4.608,4.608,0,0,1,1.1-.11,1.319,1.319,0,0,1,.79.286,1.259,1.259,0,0,1,.385.691c.016,0,.057-.079.049-.24a.99.99,0,0,0-.294-.6,1.443,1.443,0,0,0-.907-.4,4.175,4.175,0,0,0-1.173.091c-.806.159-1.5.372-2.019.481a4.2,4.2,0,0,0-.836.2" transform="translate(-147.965 -63.602)" fill="#ff9b6c"/>
            <path id="Trazado_782349" data-name="Trazado 782349" d="M372.69,163.318c-.049.037.349.455,1.083.453l-.145-.125c.014.129.029.252.043.378a4.118,4.118,0,0,0,.336,1.493,4.136,4.136,0,0,0-.047-1.527c-.017-.126-.035-.247-.052-.375l-.019-.133-.127.007a4.938,4.938,0,0,1-1.072-.172" transform="translate(-148.895 -65.245)" fill="#ff9b6c"/>
            <path id="Trazado_782350" data-name="Trazado 782350" d="M415.3,160.947s7.946,1.925,7.929,12.461c-.017,10.5-2.4,15.741-2.4,15.741l-14.647-7.971,3.268-8.2Z" transform="translate(-162.277 -64.301)" fill="#4adbd1"/>
            <path id="Trazado_782351" data-name="Trazado 782351" d="M420.7,190.619a1.406,1.406,0,0,1-.305-.133l-.85-.432-3.121-1.645-10.444-5.627-.119-.064.047-.125c.252-.656.517-1.35.786-2.054.937-2.431,1.827-4.746,2.64-6.857.409-1.051.8-2.051,1.161-2.989a18.1,18.1,0,0,1,1.159-2.557,7.936,7.936,0,0,1,2.643-3.058,3.212,3.212,0,0,1,1.03-.413,1.953,1.953,0,0,1,.286-.037c.065,0,.1,0,.1,0a3.907,3.907,0,0,0-1.351.549,8.091,8.091,0,0,0-2.515,3.061,18.424,18.424,0,0,0-1.111,2.542c-.356.942-.736,1.944-1.134,3l-2.617,6.866c-.269.7-.536,1.4-.788,2.052l-.07-.188,10.4,5.715,3.076,1.728.824.479a1.5,1.5,0,0,1,.277.184" transform="translate(-162.149 -65.771)" fill="#373f51"/>
          </g>
        </g>
      </g>
    </g>
  </g>
</svg>
