<svg id="Grupo_1030489" data-name="Grupo 1030489" xmlns="http://www.w3.org/2000/svg" xmlns:xlink="http://www.w3.org/1999/xlink" width="190" height="189.984" viewBox="0 0 190 189.984">
  <defs>
    <clipPath id="clip-path">
      <rect id="Rectángulo_363848" data-name="Rectángulo 363848" width="190" height="189.984" fill="none"/>
    </clipPath>
  </defs>
  <g id="Grupo_1030488" data-name="Grupo 1030488" clip-path="url(#clip-path)">
    <path id="Trazado_771499" data-name="Trazado 771499" d="M140.9,71.238c-1.739-1.749-3.028-3.635-3-6.3.073-8.281.139-16.566-.036-24.844A9.12,9.12,0,0,1,144.622,31a10.016,10.016,0,0,1,2.57-.351c5.925-.005,11.849-.029,17.774.011a10.977,10.977,0,0,1,5.457,1.534c.065.206.145.391.422.288a9.878,9.878,0,0,1,3.828,8.329q.031,11.1,0,22.191c-.007,5.465-2.318,8.51-6.791,10.224-1.823.7-3.749.248-5.625.3-2.9.078-2.9.02-2.9,2.862,0,1.594-.074,3.193.018,4.781a4.847,4.847,0,0,1-2.33,4.87c-2.485,1.6-4.765,3.528-7.328,5.462l26.131,13.093c-2.708,1.11-5.051,2.093-7.412,3.032-3.883,1.544-7.769,3.08-11.674,4.568-.761.29-.445.832-.451,1.257-.035,2.614.048,5.231-.047,7.842-.043,1.186.442,1.305,1.434,1.3,7.4-.036,14.794-.015,22.191-.022a11.938,11.938,0,0,1,5.855,1.551c.065.206.145.391.421.288,2.058,1.265,2.643,3.567,3.835,5.442v40.984a1.211,1.211,0,0,0-.759.762,8.944,8.944,0,0,1-8.635,6.13c-2.424.015-4.848,0-7.272,0-5.029,0-5,0-4.81,4.982.035.915.267,1.168,1.18,1.175,1.63.011,3.87-.743,4.724.328.815,1.022.225,3.165.251,4.815,0,.319,0,.638,0,.957h-42.9c0-1.53.084-3.067-.026-4.589-.091-1.246.293-1.614,1.555-1.58,1.5.041,3.557.723,4.356-.295.75-.955.156-2.925.264-4.44.076-1.07-.252-1.4-1.351-1.38-4.079.058-8.161.066-12.24-.017-3.616-.074-7.87-4.3-7.858-7.886.017-4.973-.058-9.947.011-14.918.018-1.285-.222-1.753-1.625-1.7-3.247.117-6.5.07-9.753.018a2.017,2.017,0,0,0-2.137,1.236c-2.745,5.017-9.727,6.838-14.1,2.556l-.412-.313a10.2,10.2,0,0,1-1.492-2.076c-.491-1.239-1.3-1.438-2.5-1.409q-4.781.115-9.568,0c-1.08-.024-1.385.28-1.37,1.366.061,4.465,0,8.931.032,13.4a9.6,9.6,0,0,1-9.782,9.8c-2.286-.157-4.591-.027-6.888-.027-5.03,0-5,0-4.813,4.98.035.913.263,1.17,1.179,1.176,1.63.011,3.935-.748,4.715.323.825,1.133.234,3.3.261,5.012,0,.255,0,.51,0,.766h-42.9c0-.255,0-.511,0-.766.027-1.714-.564-3.881.263-5.013.781-1.069,3.087-.313,4.718-.321.923,0,1.14-.275,1.173-1.182.185-4.976.213-4.975-4.822-4.975-2.106,0-4.213-.041-6.318.012a12.544,12.544,0,0,1-5.324-.792l-1.565-1.057-1.607-1.61c-.026-.415-.315-.615-.64-.786C.055,171.319-.008,168.974,0,166.571q.067-17.512.013-35.025a8.935,8.935,0,0,1,9.034-8.939c5.675-.142,11.356-.078,17.033,0,1.28.017,1.573-.361,1.547-1.583-.08-3.7.038-7.4-.065-11.1a2.061,2.061,0,0,1,1.638-2.3c2.363-.852,4.7-1.784,7.016-2.756.479-.2,1.251-.326,1.293-.962.048-.726-.779-.637-1.23-.867q-9.069-4.608-18.154-9.185c-.769-.389-1.52-.816-2.449-1.318l1.515-1.361.441-.3q6.035-4.447,12.066-8.9a2.258,2.258,0,0,0,.991-2.09,36.442,36.442,0,0,1,0-4.953c.1-1.277-.424-1.462-1.514-1.408-1.648.082-3.311-.088-4.953.04a7.824,7.824,0,0,1-5.444-2l-.449-.327a8.675,8.675,0,0,1-3.016-6.5c.093-8.79.026-17.583.047-26.374.007-2.813,3.02-6.157,6.5-7.342a8.387,8.387,0,0,1,2.756-.385c5.925.006,11.85-.021,17.774.015a11.122,11.122,0,0,1,5.461,1.535c.065.206.145.391.422.288a9.88,9.88,0,0,1,3.83,8.337c.016,7.4-.02,14.806.014,22.208.021,4.6-1.782,7.969-6.089,9.946-2.1.963-4.227.464-6.339.544-2.9.111-2.9.028-2.9,2.873,0,1.532-.07,3.067.017,4.594a5.265,5.265,0,0,1-2.36,5.051c-2.435,1.694-4.756,3.552-7.3,5.468l10.065,5.028c4.851,2.425,9.708,4.839,14.541,7.3.38.194,1.13.174,1.04.806-.037.26-.628.493-1,.644-5.7,2.288-11.385,4.6-17.122,6.789-.879.335-.963.716-.955,1.456.026,2.553.092,5.109-.025,7.656-.059,1.277.428,1.42,1.521,1.415,9.253-.04,18.508.055,27.759-.082,2.134-.032,4.015.893,6.11.988.827.038,1.69,1.56,2.35,2.533a11.2,11.2,0,0,1,2.133,6.406c-.017,4.4.043,8.808-.036,13.209-.022,1.193.292,1.5,1.473,1.466,3.252-.088,6.509-.068,9.763-.008a1.833,1.833,0,0,0,2.048-1.187,6.456,6.456,0,0,1,3.716-3.709,2.089,2.089,0,0,0,1.443-2.318q-.072-14.071,0-28.144c.007-1.189-.292-1.474-1.471-1.466-7.785.055-15.572-.034-23.356.061a8.538,8.538,0,0,1-5.468-2.009l-.421-.3a8.655,8.655,0,0,1-3.038-6.492q.073-46.893.042-93.786c0-2.837,2.988-6.165,6.486-7.371A8.31,8.31,0,0,1,67.51,0q27.274,0,54.548.014a10.9,10.9,0,0,1,5.466,1.534c.065.206.145.391.422.288a9.863,9.863,0,0,1,3.83,8.337q.012,44.993,0,89.986c0,2.935-.75,5.692-3.05,7.65-1.654,1.408-3.435,2.588-5.9,2.546-7.656-.131-15.316-.012-22.974-.074-1.341-.011-1.827.192-1.813,1.713.086,9.381.054,18.763.026,28.144,0,.955.122,1.555,1.145,2.013a7.513,7.513,0,0,1,3.869,3.933,1.556,1.556,0,0,0,1.715,1.021c3.445-.054,6.893-.067,10.338,0,1.094.023,1.373-.3,1.361-1.376-.054-4.786-.074-9.573,0-14.359.081-5.224,3.911-8.583,8.823-8.735,7.715-.238,15.443-.117,23.164-.028,1.5.017,1.765-.43,1.728-1.8-.1-3.635.03-7.276-.066-10.911a2.056,2.056,0,0,1,1.655-2.29c2.422-.874,4.8-1.875,7.18-2.857.439-.181,1.078-.3,1.119-.879.046-.661-.691-.62-1.08-.817-6.105-3.092-12.23-6.143-18.346-9.214-.771-.387-1.514-.832-2.411-1.329l1.536-1.366.414-.277q6.041-4.451,12.076-8.91a2.273,2.273,0,0,0,.978-2.1c-.1-2.025.7-4.675-.3-5.915-1.038-1.286-3.808-.433-5.8-.365a7.864,7.864,0,0,1-5.8-2.02l-.449-.327M64.368,54.956c0,15.124.053,30.249-.051,45.372-.018,2.556,1.184,3.929,3.966,3.912q26.705-.162,53.412-.012c2.509.012,3.95-1.04,3.951-4.045q.016-44.99,0-89.98c0-2.846-1.247-4.072-4.131-4.072q-26.611-.006-53.221,0c-3.228,0-3.926.68-3.927,3.835q-.009,22.5,0,44.99M36.589,159.342c9.758,0,19.517-.02,29.275.026,1.2.006,1.611-.246,1.6-1.544-.063-8.419-.025-16.838-.037-25.257,0-2.449-1.249-3.853-3.545-3.855q-27.266-.031-54.532,0c-2.167,0-3.191,1.081-3.195,3.258-.014,8.547.031,17.094-.045,25.64-.013,1.44.352,1.777,1.776,1.767,9.566-.069,19.134-.036,28.7-.036m116.648,0c9.7,0,19.391-.023,29.086.028,1.239.007,1.588-.306,1.579-1.566-.058-8.356-.025-16.712-.033-25.068,0-2.773-1.269-4.034-4.057-4.035q-26.694-.007-53.388,0c-2.933,0-3.831.9-3.834,3.857-.008,8.356.039,16.712-.042,25.068-.015,1.471.4,1.758,1.794,1.749,9.631-.064,19.263-.034,28.894-.034m-116.3,6.128q-14.551,0-29.1.02c-.553,0-1.31-.421-1.663.421-1.3,3.1.4,5.683,3.769,5.685,17.742.005,35.484-.042,53.225.048,2.806.014,4.166-.893,4.312-4.294.072-1.684-.5-1.928-2.015-1.917-9.509.071-19.018.036-28.527.036m116.486,0q-14.54,0-29.08.019c-.571,0-1.332-.388-1.717.357a3.976,3.976,0,0,0,3.428,5.747c2.742.023,5.484.005,8.226.006q22.672,0,45.343.023a4.13,4.13,0,0,0,3.659-1.537,4.782,4.782,0,0,0,.458-4.213c-.261-.945-1.691-.373-2.576-.377-9.247-.041-18.494-.025-27.742-.025M33.692,55.158H41.52c4.53,0,4.461,0,4.5-4.557.013-1.451-.537-1.609-1.762-1.6-6.045.056-12.091.026-18.137.026-4.794,0-4.735,0-4.693,4.748.012,1.295.517,1.414,1.57,1.4,3.563-.051,7.127-.019,10.691-.019m122.8-6.128h-8.018c-4.51,0-4.459,0-4.468,4.586,0,1.263.36,1.583,1.593,1.57,6.109-.061,12.218-.028,18.328-.028,4.781,0,4.742,0,4.655-4.778-.02-1.094-.326-1.393-1.4-1.375-3.563.063-7.127.024-10.691.024M33.876,61.286c-3.569,0-7.141.088-10.706-.041-1.512-.055-1.921.46-1.709,1.821a8.693,8.693,0,0,1,.013,1.146c.042,2.2,1.012,3.19,3.214,3.2,5.608.014,11.221-.115,16.824.055,3.163.1,4.494-.947,4.51-4.674.006-1.331-.46-1.549-1.631-1.526-3.5.067-7.01.024-10.515.024m122.612,0h-9.751c-2.736,0-2.736,0-2.7,2.689.035,2.576.905,3.431,3.557,3.436,5.481.01,10.966-.129,16.441.053,3.341.111,4.59-1.082,4.545-4.823-.013-1.08-.306-1.4-1.386-1.378-3.568.064-7.137.024-10.706.024M33.634,42.9c3.693,0,7.387.011,11.08-.015.436,0,.991.28,1.262-.465A4.146,4.146,0,0,0,42.1,36.777c-5.731-.018-11.462,0-17.193-.007a4.461,4.461,0,0,0-2,.4c-2.091,1-1.236,2.9-1.444,4.489-.136,1.033.3,1.281,1.283,1.266C26.374,42.869,30,42.9,33.634,42.9m122.67,0c3.63,0,7.259.01,10.889-.013.452,0,1.019.263,1.33-.382,1.113-2.317-.806-5.685-3.384-5.712-6.049-.063-12.1-.019-18.148,0a3.7,3.7,0,0,0-1.082.223c-1.479.472-1.918,1.522-1.9,3.025.041,2.859-.025,2.861,2.74,2.861H156.3m-3.273,140.955H157.8c4.764,0,4.726,0,4.648-4.775-.018-1.084-.3-1.395-1.387-1.378-4.135.061-8.272.025-12.408.025-4.9,0-4.872,0-4.644,4.966.041.907.278,1.2,1.192,1.181,2.608-.053,5.218-.019,7.827-.018m-116.435,0h4.773c4.762,0,4.723,0,4.644-4.779-.018-1.09-.314-1.389-1.392-1.373-4.135.06-8.272.024-12.408.024-4.9,0-4.871,0-4.64,4.971.043.913.29,1.194,1.2,1.176,2.608-.052,5.218-.018,7.827-.018m58.327-36.389c-2.247,0-2.968.634-2.978,2.636-.009,1.838,1.116,3.124,2.722,3.111a3.42,3.42,0,0,0,3.392-3.074c-.005-1.636-1.219-2.67-3.136-2.673" transform="translate(0 0)"/>
    <path id="Trazado_771500" data-name="Trazado 771500" d="M9.03,458.094l1.565,1.057c-1.2.648-1.561.061-1.565-1.057" transform="translate(-5.563 -282.203)" fill="#fff"/>
    <path id="Trazado_771501" data-name="Trazado 771501" d="M2.8,451.853c.325.171.614.372.64.786-.415-.1-1.3.186-.64-.786" transform="translate(-1.578 -278.359)" fill="#fff"/>
    <path id="Trazado_771502" data-name="Trazado 771502" d="M45.216,236.624l-.441.3c.081-.2.153-.407.441-.3" transform="translate(-27.583 -145.751)"/>
    <path id="Trazado_771503" data-name="Trazado 771503" d="M364.477,236.617l-.414.277c.065-.2.137-.392.414-.277" transform="translate(-224.277 -145.744)"/>
    <path id="Trazado_771504" data-name="Trazado 771504" d="M159.546,281.361l.421.3c-.271.079-.359-.1-.421-.3" transform="translate(-98.286 -173.329)" fill="#010101"/>
    <path id="Trazado_771505" data-name="Trazado 771505" d="M484.177,323.547c-.277.1-.356-.081-.422-.288l.422.288" transform="translate(-298.012 -199.14)" fill="#fcfcfc"/>
    <path id="Trazado_771506" data-name="Trazado 771506" d="M47.746,185.535l.449.328c-.284.074-.369-.122-.449-.328" transform="translate(-29.413 -114.297)" fill="#010101"/>
    <path id="Trazado_771507" data-name="Trazado 771507" d="M444.275,84.129c-.277.1-.356-.081-.422-.288l.422.288" transform="translate(-273.43 -51.649)" fill="#fcfcfc"/>
    <path id="Trazado_771508" data-name="Trazado 771508" d="M125.057,84.129c-.277.1-.356-.081-.422-.288Z" transform="translate(-76.78 -51.649)" fill="#fcfcfc"/>
    <path id="Trazado_771509" data-name="Trazado 771509" d="M332.549,4.323c-.277.1-.356-.081-.422-.288l.422.288" transform="translate(-204.603 -2.486)" fill="#fcfcfc"/>
    <path id="Trazado_771510" data-name="Trazado 771510" d="M366.965,185.535l.449.327c-.284.075-.369-.122-.449-.327" transform="translate(-226.064 -114.297)" fill="#010101"/>
    <path id="Trazado_771511" data-name="Trazado 771511" d="M167.56,64.789q0-22.495,0-44.99c0-3.155.7-3.834,3.927-3.835q26.611-.006,53.221,0c2.883,0,4.13,1.226,4.131,4.072q.006,44.99,0,89.98c0,3.006-1.442,4.057-3.951,4.045q-26.705-.122-53.412.012c-2.782.017-3.983-1.356-3.966-3.912.1-15.123.051-30.248.051-45.372m54.476-8.217c-1.24-2.78-3.711-3.769-6.415-3.792q-18.075-.151-36.153,0a5.83,5.83,0,0,0-5.758,5.984c-.042,4.272-.023,8.544,0,12.816a6.009,6.009,0,0,0,5.7,5.66q18.651.016,37.3.019a4.152,4.152,0,0,0,1.985-.464,7.216,7.216,0,0,0,4-6.908c0-4.305.286-8.624-.374-12.911l-.286-.406m.286-14.212a70.819,70.819,0,0,0,0-16.024l-.286-.406a6.434,6.434,0,0,0-4.97-3.544,45.544,45.544,0,0,0-7.772-.269c-9.7-.065-19.4-.045-29.106-.016-3.97.012-6.447,2.425-6.487,6.27-.039,3.766.218,7.55-.075,11.293a6.692,6.692,0,0,0,7.023,7.023c11.548-.234,23.106-.162,34.657-.031a6.881,6.881,0,0,0,6.729-3.89l.287-.406m-24.36,65.521v.009q9.187,0,18.375,0a6.3,6.3,0,0,0,6.016-5.171,52.148,52.148,0,0,0,.271-12.344c-.327-5.084-2.4-6.819-7.132-6.916-11.926-.245-23.86-.11-35.791-.05a5.859,5.859,0,0,0-6,6.156q-.06,6.124,0,12.25a5.858,5.858,0,0,0,6.071,6.055c6.061.043,12.122.012,18.183.012" transform="translate(-103.192 -9.833)" fill="#aab1bc"/>
    <path id="Trazado_771512" data-name="Trazado 771512" d="M46.393,365.827c-9.567,0-19.134-.033-28.7.036-1.424.01-1.789-.327-1.776-1.767.076-8.546.031-17.093.045-25.64,0-2.177,1.027-3.256,3.195-3.258q27.266-.028,54.532,0c2.3,0,3.541,1.406,3.545,3.855.013,8.419-.026,16.838.037,25.257.01,1.3-.4,1.549-1.6,1.544-9.758-.046-19.517-.026-29.275-.026" transform="translate(-9.805 -206.486)" fill="#d2e1f1"/>
    <path id="Trazado_771513" data-name="Trazado 771513" d="M349.856,365.829c-9.632,0-19.263-.03-28.894.034-1.393.009-1.808-.278-1.794-1.749.081-8.355.035-16.712.042-25.068,0-2.953.9-3.857,3.834-3.857q26.694-.007,53.388,0c2.788,0,4.055,1.262,4.057,4.035.007,8.356-.025,16.712.033,25.067.009,1.261-.34,1.573-1.579,1.567-9.695-.051-19.39-.028-29.085-.028" transform="translate(-196.619 -206.487)" fill="#d2e1f1"/>
    <path id="Trazado_771514" data-name="Trazado 771514" d="M46.139,430.82c9.509,0,19.018.035,28.527-.036,1.513-.012,2.088.233,2.016,1.917-.146,3.4-1.506,4.308-4.312,4.294-17.741-.09-35.483-.043-53.225-.048-3.365,0-5.07-2.581-3.77-5.685.353-.842,1.11-.42,1.663-.421q14.551-.042,29.1-.02" transform="translate(-9.203 -265.349)" fill="#cbd0d8"/>
    <path id="Trazado_771515" data-name="Trazado 771515" d="M349.478,430.726c9.247,0,18.494-.016,27.741.025.885,0,2.314-.568,2.576.377a4.782,4.782,0,0,1-.458,4.213,4.13,4.13,0,0,1-3.66,1.537q-22.671-.058-45.343-.023c-2.742,0-5.484.018-8.227-.005a3.976,3.976,0,0,1-3.428-5.747c.386-.745,1.146-.356,1.717-.357q14.54-.039,29.081-.019" transform="translate(-196.055 -265.256)" fill="#cbd0d8"/>
    <path id="Trazado_771516" data-name="Trazado 771516" d="M68.063,133.778c-3.564,0-7.128-.031-10.691.019-1.053.015-1.559-.1-1.57-1.4-.042-4.749-.1-4.748,4.693-4.748,6.045,0,12.091.031,18.137-.026,1.226-.011,1.775.147,1.762,1.6-.042,4.556.027,4.557-4.5,4.557H68.063" transform="translate(-34.371 -78.621)" fill="#4adbd1"/>
    <path id="Trazado_771517" data-name="Trazado 771517" d="M387.534,127.653c3.564,0,7.128.039,10.691-.024,1.074-.019,1.379.281,1.4,1.375.087,4.778.126,4.778-4.655,4.778-6.109,0-12.219-.033-18.328.028-1.233.012-1.6-.307-1.593-1.57.008-4.586-.043-4.586,4.468-4.586h8.018" transform="translate(-231.044 -78.624)" fill="#4adbd1"/>
    <path id="Trazado_771518" data-name="Trazado 771518" d="M68.226,159.542c3.505,0,7.011.043,10.515-.024,1.171-.023,1.637.2,1.631,1.526-.017,3.726-1.348,4.769-4.511,4.674-5.6-.17-11.215-.041-16.824-.055-2.2-.006-3.172-.992-3.214-3.2a8.633,8.633,0,0,0-.013-1.146c-.212-1.36.2-1.875,1.71-1.82,3.564.129,7.136.041,10.705.041" transform="translate(-34.35 -98.256)" fill="#4adbd1"/>
    <path id="Trazado_771519" data-name="Trazado 771519" d="M387.574,159.575c3.569,0,7.139.04,10.706-.024,1.08-.02,1.372.3,1.386,1.378.045,3.741-1.2,4.934-4.545,4.823-5.475-.181-10.96-.042-16.441-.052-2.651,0-3.521-.86-3.556-3.436-.037-2.689-.037-2.689,2.7-2.689h9.751" transform="translate(-231.086 -98.289)" fill="#4adbd1"/>
    <path id="Trazado_771520" data-name="Trazado 771520" d="M68.029,101.891c-3.63,0-7.26-.032-10.888.021-.982.015-1.418-.233-1.283-1.266.208-1.586-.647-3.487,1.444-4.489a4.461,4.461,0,0,1,2-.4c5.731,0,11.462-.012,17.193.007a4.146,4.146,0,0,1,3.874,5.644c-.27.744-.826.462-1.262.464-3.693.026-7.386.015-11.08.015" transform="translate(-34.396 -58.991)" fill="#4adbd1"/>
    <path id="Trazado_771521" data-name="Trazado 771521" d="M387.36,101.882h-9.551c-2.766,0-2.7,0-2.74-2.861-.022-1.5.418-2.553,1.9-3.025a3.7,3.7,0,0,1,1.082-.223c6.049-.017,12.1-.06,18.148,0,2.578.026,4.5,3.395,3.384,5.712-.31.645-.878.379-1.33.382-3.63.024-7.259.013-10.889.013" transform="translate(-231.056 -58.981)" fill="#4adbd1"/>
    <path id="Trazado_771522" data-name="Trazado 771522" d="M383.966,468.966c-2.609,0-5.219-.035-7.827.019-.914.019-1.15-.274-1.192-1.181-.228-4.968-.256-4.966,4.644-4.966,4.136,0,8.273.036,12.408-.025,1.085-.016,1.369.295,1.387,1.378.078,4.775.116,4.775-4.648,4.775h-4.773" transform="translate(-230.935 -285.11)" fill="#aab1bc"/>
    <path id="Trazado_771523" data-name="Trazado 771523" d="M80.709,468.966c-2.609,0-5.219-.034-7.827.018-.908.018-1.155-.263-1.2-1.176-.231-4.972-.26-4.971,4.64-4.971,4.136,0,8.273.036,12.408-.024,1.078-.016,1.374.283,1.391,1.373.079,4.78.118,4.779-4.644,4.779H80.709" transform="translate(-44.113 -285.111)" fill="#aab1bc"/>
    <path id="Trazado_771524" data-name="Trazado 771524" d="M242.442,384.067c1.918,0,3.131,1.037,3.136,2.673a3.42,3.42,0,0,1-3.392,3.074c-1.607.013-2.731-1.273-2.722-3.111.01-2,.731-2.64,2.978-2.636" transform="translate(-147.519 -236.6)" fill="#f4a338"/>
    <path id="Trazado_771525" data-name="Trazado 771525" d="M230.816,408.354c-.27.07-.361-.1-.412-.313l.412.313" transform="translate(-141.938 -251.369)" fill="#020202"/>
    <path id="Trazado_771526" data-name="Trazado 771526" d="M232.1,36.143a70.86,70.86,0,0,1,0,16.024c-.2.059-.368.146-.287.406a6.881,6.881,0,0,1-6.729,3.89c-11.552-.131-23.109-.2-34.658.031a6.692,6.692,0,0,1-7.023-7.023c.294-3.743.036-7.528.076-11.293.04-3.846,2.517-6.259,6.487-6.27,9.7-.028,19.4-.049,29.106.016a45.543,45.543,0,0,1,7.772.269,6.435,6.435,0,0,1,4.97,3.544c-.082.261.083.347.286.406m-24.129,1.884c-5.612,0-11.224.039-16.834-.03-1.257-.015-1.607.331-1.571,1.579.09,3.122.078,6.25,0,9.373-.026,1.111.344,1.36,1.4,1.357q17.026-.052,34.052,0c1.078,0,1.4-.29,1.38-1.376-.072-3.123-.1-6.251,0-9.373.039-1.281-.367-1.573-1.591-1.559-5.611.064-11.223.028-16.834.028" transform="translate(-112.974 -19.64)"/>
    <path id="Trazado_771527" data-name="Trazado 771527" d="M232.23,115.943c.66,4.288.369,8.606.374,12.912a7.216,7.216,0,0,1-4,6.908,4.153,4.153,0,0,1-1.985.464q-18.651-.031-37.3-.019a6.009,6.009,0,0,1-5.7-5.66c-.018-4.272-.038-8.545,0-12.816a5.83,5.83,0,0,1,5.758-5.984q18.076-.124,36.153,0c2.7.023,5.175,1.012,6.415,3.792-.083.26.083.347.286.406m-24.125,1.884c-5.675,0-11.351.027-17.026-.024-1.08-.01-1.4.293-1.379,1.377q.1,4.781,0,9.564c-.025,1.1.333,1.365,1.393,1.362q17.026-.054,34.053,0c1.072,0,1.41-.28,1.384-1.372-.073-3.123-.1-6.251,0-9.373.038-1.272-.354-1.578-1.586-1.564-5.611.065-11.223.029-16.835.029" transform="translate(-113.1 -68.798)"/>
    <path id="Trazado_771528" data-name="Trazado 771528" d="M207.854,215.948c-6.061,0-12.122.031-18.183-.012a5.858,5.858,0,0,1-6.071-6.056q-.067-6.124,0-12.25a5.86,5.86,0,0,1,6-6.156c11.931-.06,23.865-.194,35.791.05,4.728.1,6.8,1.832,7.132,6.916a52.147,52.147,0,0,1-.272,12.344,6.3,6.3,0,0,1-6.015,5.17q-9.187.006-18.375,0Zm.245-6.12c5.675,0,11.351-.026,17.026.023,1.068.009,1.413-.273,1.388-1.369q-.11-4.78-.01-9.564c.023-1.094-.316-1.373-1.385-1.369q-17.026.055-34.052,0c-1.074,0-1.406.284-1.382,1.373.07,3.123.089,6.251-.007,9.373-.039,1.275.357,1.577,1.587,1.563,5.611-.065,11.223-.028,16.834-.028" transform="translate(-113.084 -117.9)"/>
    <path id="Trazado_771529" data-name="Trazado 771529" d="M309.771,122.135c-.2-.06-.368-.146-.286-.406l.286.406" transform="translate(-190.642 -74.99)" fill="#a7aeb9"/>
    <path id="Trazado_771530" data-name="Trazado 771530" d="M309.484,85.121c-.081-.26.083-.347.287-.406l-.287.406" transform="translate(-190.641 -52.188)" fill="#a7aeb9"/>
    <path id="Trazado_771531" data-name="Trazado 771531" d="M309.771,42.33c-.2-.059-.368-.146-.286-.406l.286.406" transform="translate(-190.642 -25.827)" fill="#a7aeb9"/>
    <path id="Trazado_771532" data-name="Trazado 771532" d="M217.89,47.838c5.612,0,11.224.036,16.834-.028,1.224-.014,1.63.278,1.591,1.559-.094,3.122-.07,6.25,0,9.373.025,1.086-.3,1.38-1.38,1.376q-17.026-.056-34.052,0c-1.054,0-1.423-.246-1.4-1.357.074-3.123.086-6.251,0-9.373-.036-1.247.314-1.594,1.571-1.579,5.611.069,11.223.03,16.834.03" transform="translate(-122.888 -29.451)" fill="#f7d464"/>
    <path id="Trazado_771533" data-name="Trazado 771533" d="M217.9,127.646c5.612,0,11.224.036,16.835-.029,1.232-.014,1.624.291,1.586,1.564-.093,3.122-.07,6.25,0,9.373.026,1.092-.313,1.375-1.384,1.372q-17.027-.055-34.053,0c-1.06,0-1.418-.257-1.393-1.362q.108-4.78,0-9.564c-.023-1.084.3-1.387,1.379-1.377,5.675.051,11.351.024,17.026.024" transform="translate(-122.896 -78.617)" fill="#f7d464"/>
    <path id="Trazado_771534" data-name="Trazado 771534" d="M217.9,219.718c-5.612,0-11.224-.036-16.834.028-1.231.014-1.626-.288-1.587-1.563.1-3.122.077-6.249.007-9.372-.025-1.089.308-1.376,1.382-1.373q17.026.055,34.052,0c1.069,0,1.408.275,1.385,1.369q-.1,4.781.01,9.564c.025,1.1-.32,1.378-1.388,1.369-5.675-.049-11.351-.023-17.026-.023" transform="translate(-122.885 -127.79)" fill="#f7d464"/>
  </g>
</svg>
