<svg id="Grupo_1030487" data-name="Grupo 1030487" xmlns="http://www.w3.org/2000/svg" xmlns:xlink="http://www.w3.org/1999/xlink" width="188.581" height="188.608" viewBox="0 0 188.581 188.608">
  <defs>
    <clipPath id="clip-path">
      <rect id="Rectángulo_363847" data-name="Rectángulo 363847" width="188.581" height="188.608" fill="none"/>
    </clipPath>
  </defs>
  <g id="Grupo_1030486" data-name="Grupo 1030486" clip-path="url(#clip-path)">
    <path id="Trazado_771440" data-name="Trazado 771440" d="M106.406.438c1.176,1.1,2.822,1.139,4.2,1.835a39.677,39.677,0,0,1,5.226,3.271l1.962,1.962c2.486,2.848,3.682,6.377,5.157,9.758-.627.527-.254.694.287.8-.8,2.141.328,4.369-.305,6.53-.231.789.289.911,1,.949,5.642.305,9.478,3.227,11.147,8.526A11.713,11.713,0,0,1,133.584,44.5c-.147.215-.561.248-.85.365l-.284.035.285.246c-.106,1.238-1.155,1.694-1.952,2.36l-.27-.278c-.011.094-.022.189-.033.284a9.89,9.89,0,0,1-6.939,2.591c-5.057.143-10.112,0-15.165.147-1.155.034-.758.854-.761,1.4-.026,5.232-.02,10.463-.013,15.695a12.987,12.987,0,0,1-.828,4.268c-1.028,2.982-3.75,4.083-6.271,5.091a24.465,24.465,0,0,1-9.3,1.82c-4.673-.048-9.365.161-13.886-1.523a14.344,14.344,0,0,1-6.5-4.522,4.763,4.763,0,0,1-.94-3.044c.073-5.754-.012-11.51.065-17.263.019-1.442-.225-2.062-1.859-1.951-2.409.162-4.85-.124-7.253.075-5.755.476-10.833-3.705-12.41-8.661a12.53,12.53,0,0,1,7.42-15.687c.672-.271,1.57-.2,1.508-1.3-.266-4.736,1.8-8.573,4.687-12.087q1.735.141,1.581-1.594a18.465,18.465,0,0,1,11.282-4.62,16.2,16.2,0,0,1,8.02,1.417c1.29.586,2.079.587,2.758-.787.294-.594.97-1,1.472-1.49l.428-.313A20.011,20.011,0,0,1,97.4.393c.3-.065.664.032.773-.393h1.178a.95.95,0,0,0,1.571,0h3.534c.522.708,1.311.235,1.947.438m2,7.8c-.112-.433-.483-.37-.8-.414-2.073-1.386-4.55-1.5-6.806-1.435a14.2,14.2,0,0,0-11.933,6.653c-2.062,3.122-3.126,3.264-6.28,1.468-5.044-2.873-11.128-2.6-15.389,1.718-2.93,2.969-3.79,6.592-3.611,10.648.139,3.153-.843,4.126-3.961,4.549a6.487,6.487,0,0,0-5.479,7.215c.188,2.07,3.523,5.711,6.176,5.4a45.231,45.231,0,0,1,7.838-.021c1.57.092,1.813-.49,1.77-1.873-.1-3.2-.031-6.408-.031-9.613,0-4.107,1.853-6.7,5.7-8.168a36.743,36.743,0,0,1,22.493-1.076c7.3,1.855,9.805,3.72,9.519,12.029-.086,2.482.024,4.97-.032,7.454-.021.929.252,1.235,1.2,1.223,5.23-.065,10.461-.069,15.692-.094.793.194,1.321-.391,1.9-.717,2.031-1.143,3.53-4.226,3.083-6.144-.816-3.5-2.321-4.932-4.972-5.171-1.573-.925-3.29-.358-4.936-.432-2.421-.109-3.256-.726-3.771-3.161.561-2.714,1.376-5.31.928-8.239-.829-5.425-3.33-9.434-8.319-11.813ZM97.767,29.9a5.721,5.721,0,0,0-1.019-.486,34.208,34.208,0,0,0-13.516-.643c-2.445.366-5.179.58-7.279,2.918a27.266,27.266,0,0,0,21.861,1.345c1.208-.283,2.909-.452,2.951-1.751.023-.731-1.694-1.487-3-1.383m.4,9.826c-7.35,1.59-14.655,1.81-21.983-.974,0,1.488.1,2.732-.027,3.954a2.065,2.065,0,0,0,1.576,2.459,27.892,27.892,0,0,0,6.422,1.688c4.79.5,9.482.536,14.015-1.363,2.725-.751,3.145-1.233,3.147-3.6,0-3.31,0-3.31-3.15-2.162m0,12.576a37.919,37.919,0,0,1-5.78,1.048c-4.507.138-9.023.274-13.445-1.1-2.71-.844-2.614-.666-2.821,2.28-.138,1.962.605,2.9,2.329,3.595,4.5,1.823,9.206,1.793,13.881,1.457a13.452,13.452,0,0,0,5.842-1.52c2.788-.763,3.145-1.172,3.147-3.609,0-3.306,0-3.306-3.152-2.148m0,12.57a38.1,38.1,0,0,1-21.839-.881,3.109,3.109,0,0,0-.128.531,27.847,27.847,0,0,1-.04,3.325,2.371,2.371,0,0,0,1.849,2.762,32.094,32.094,0,0,0,19.769.4c3.144-1.022,3.54-1.469,3.541-4,0-3.257,0-3.257-3.152-2.139" transform="translate(-28.972)"/>
    <path id="Trazado_771441" data-name="Trazado 771441" d="M193.7.438c-.636-.2-1.424.27-1.947-.438h1.963L193.7.438" transform="translate(-116.271)" fill="#fff"/>
    <path id="Trazado_771442" data-name="Trazado 771442" d="M180.361,0a.95.95,0,0,1-1.571,0Z" transform="translate(-108.408)"/>
    <path id="Trazado_771443" data-name="Trazado 771443" d="M47.214,328.482a42.458,42.458,0,0,1-10.068.261c-4.855-.479-9.722-1.243-13.353-5.1a5.633,5.633,0,0,1-1.726-4.1c.053-5.818-.03-11.638.049-17.456.018-1.331-.4-1.61-1.633-1.575-3.005.085-6.019.132-9.021,0A12.359,12.359,0,0,1,.135,289.693a12.532,12.532,0,0,1,.8-6.808c.41-.119.314-.472.352-.763l2.771-3.562.763-.755c.844-.1,1.3-.837,1.983-1.209,2.18-.176,2.7-1.3,2.807-3.493.228-4.869,2.727-8.867,6.288-12.029a18.582,18.582,0,0,1,11.252-4.469,19.863,19.863,0,0,1,8.019,1.462c2.008.718,2.612.331,2.616-1.919.009-5.625-.039-11.25.035-16.873.017-1.29-.336-1.61-1.608-1.6-7.194.063-14.389-.025-21.582.073-1.618.022-2.067-.348-2.018-2,.128-4.323.039-4.326,4.356-4.326q11.478,0,22.957,0c2.846,0,4.142,1.3,4.146,4.142.008,5.624,0,11.248,0,16.98a20.727,20.727,0,0,1,7.872-2.171A23.068,23.068,0,0,1,62.355,252.3a21.813,21.813,0,0,1,12.137,13.769,13.2,13.2,0,0,1,.634,7.464c-.373,1.455.217,2.383,1.882,2.258,4.678-.352,10.486,5.847,10.777,10.7.444,7.41-3.913,11.906-9.493,13.832a5.534,5.534,0,0,1-1.9.2c-4.971.022-9.942.062-14.911-.021-1.329-.022-1.767.248-1.739,1.674.1,5.034-.012,10.072.051,15.107.076,6.114-2.765,8.111-8.264,10.03-.275-.1-.37.071-.434.289l.018-.018c-.384.146-.937-.207-1.167.394-.91.172-1.929-.251-2.732.5m2.732-48.306a2.579,2.579,0,0,0-.642-.409,38.259,38.259,0,0,0-13.929-.76,24.872,24.872,0,0,0-4.612,1.157c-.842.254-1.956.612-1.955,1.566,0,.823,1.089,1.186,1.847,1.471a18.341,18.341,0,0,0,3.63,1.077c5.3.808,10.589,1.235,15.708-.968,1.193-.231,2.9-.542,2.9-1.648-.006-.96-1.645-1.538-2.944-1.485m.047,40.818c2.867-.536,3.5-1.23,3.5-3.819,0-3.184,0-3.184-3.151-2.037a38.19,38.19,0,0,1-21.982-.917,31.123,31.123,0,0,1-.025,3.481c-.186,1.581.42,2.375,1.882,3.057,4.569,2.134,9.4,1.945,14.183,1.659a10.615,10.615,0,0,0,5.588-1.424M50.347,290c-7.351,1.593-14.656,1.794-21.982-.938,0,1.445.1,2.69-.027,3.913a2.065,2.065,0,0,0,1.571,2.463,28.064,28.064,0,0,0,6.424,1.689c4.792.5,9.483.535,14.017-1.362,2.727-.757,3.145-1.235,3.147-3.6,0-3.309,0-3.309-3.15-2.161m0,12.576a37.913,37.913,0,0,1-5.78,1.047c-4.507.138-9.022.274-13.445-1.1-2.711-.844-2.614-.666-2.821,2.28-.138,1.962.605,2.9,2.329,3.594,4.5,1.823,9.205,1.793,13.88,1.458a13.456,13.456,0,0,0,5.842-1.52c2.788-.763,3.145-1.172,3.147-3.609,0-3.3,0-3.3-3.152-2.148m17.617-24.026c1.5-4.658,1.66-9.265-.744-13.688-1.586-2.919-3.616-5.425-7.01-6.4-.224-.222-.411-.564-.678-.648-3.356-1.058-6.737-1.708-10.209-.479-.949.335-1.927.588-2.892.879-.282,0-.646-.189-.7.317-1.508,1.388-3.178,2.576-4.328,4.364-2.3,3.569-3.138,3.742-6.883,1.876-.286-.143-.572-.287-.864-.418-5.255-2.355-11.249-1.3-14.838,2.737-2.552,2.874-3.2,6.335-3.048,10.086.131,3.15-.812,4.062-3.988,4.522a6.471,6.471,0,0,0-5.447,7.238c.193,2.071,3.5,5.687,6.194,5.376a50.6,50.6,0,0,1,7.837-.031c1.337.055,1.8-.263,1.752-1.688-.115-3.265-.036-6.537-.036-9.806,0-4.083,1.869-6.68,5.715-8.151a36.686,36.686,0,0,1,22.487-1.072c7.295,1.855,9.8,3.722,9.51,12.033-.086,2.481.024,4.969-.032,7.452-.021.934.26,1.231,1.208,1.22,5.229-.065,10.458-.069,15.687-.094a25.476,25.476,0,0,0,2.546-1.211c1.925-1.178,2.818-4.065,2.184-6.8a5.082,5.082,0,0,0-4.717-4.025c-1.573-.925-3.29-.358-4.936-.432-2.421-.109-3.256-.727-3.771-3.161" transform="translate(0 -140.321)"/>
    <path id="Trazado_771444" data-name="Trazado 771444" d="M299.56,126.573a17.678,17.678,0,0,1,7.592-2.222,22.363,22.363,0,0,1,14.27,3.9A21.235,21.235,0,0,1,330.373,142c.345,1.732.83,3.572.258,5.464-.419,1.385.133,2.425,1.829,2.286,4.715-.387,10.537,5.93,10.815,10.676.427,7.325-3.779,11.888-9.479,13.849a5.557,5.557,0,0,1-1.9.207c-4.842.024-9.685.081-14.524-.025-1.616-.035-2.224.224-2.165,2.058.16,4.967.1,9.944.043,14.916-.074,6.345-2.847,7.892-7.724,9.711a33.679,33.679,0,0,1-15.247,1.55c-4.714-.478-9.482-1.27-13.008-5.062a5.9,5.9,0,0,1-1.731-4.307c.06-5.757-.022-11.516.056-17.273.018-1.316-.374-1.622-1.625-1.585-2.942.088-5.888.062-8.832.01-5.932-.1-11.318-5.584-11.563-11.42-.267-6.366,2.443-10.8,8.531-13.019a1.307,1.307,0,0,0,.928-1.427c.009-8.772,6.315-15.673,14.392-17.614a18.643,18.643,0,0,1,11.107.933c2.039.779,2.714.366,2.727-1.915.028-4.711,0-9.421.009-14.132,0-3.4.823-4.215,4.25-4.216,10.6,0,21.2.029,31.8-.037,1.41-.009,1.7.385,1.685,1.729-.062,4.59-.006,4.591-4.674,4.591-8.375,0-16.75.038-25.124-.037-1.407-.013-1.758.374-1.684,1.728.12,2.218.032,4.446.032,6.932m16.512,5.9c-.112-.433-.482-.37-.8-.414-2.075-1.385-4.552-1.5-6.81-1.436a14.186,14.186,0,0,0-11.931,6.658c-2.058,3.117-3.122,3.256-6.281,1.46-5.043-2.869-11.121-2.6-15.388,1.725-2.932,2.97-3.783,6.6-3.607,10.65.137,3.149-.842,4.116-3.965,4.545a6.483,6.483,0,0,0-5.475,7.218c.188,2.07,3.519,5.713,6.178,5.4a41.312,41.312,0,0,1,7.641-.017c1.737.117,2.029-.524,1.968-2.076-.122-3.135-.037-6.276-.037-9.416,0-4.092,1.866-6.7,5.7-8.166a36.736,36.736,0,0,1,22.492-1.075c7.294,1.853,9.805,3.721,9.518,12.029-.086,2.482.024,4.97-.032,7.454-.021.93.252,1.235,1.2,1.223,5.23-.065,10.46-.07,15.69-.094a25.57,25.57,0,0,0,2.545-1.211c1.925-1.179,2.818-4.065,2.184-6.8a5.082,5.082,0,0,0-4.718-4.025c-1.572-.925-3.288-.347-4.933-.435-2.462-.132-3.26-.726-3.774-3.158.56-2.714,1.376-5.31.928-8.24-.829-5.425-3.33-9.433-8.319-11.813Zm-10.639,21.665c-5.687-2.728-18.209-1.767-21.749,1.875a27.638,27.638,0,0,0,21.8,1.258c1.194-.231,2.891-.539,2.895-1.649,0-.9-1.585-1.658-2.942-1.484m.4,9.826c-7.35,1.59-14.654,1.809-21.982-.974,0,1.487.1,2.732-.027,3.954A2.065,2.065,0,0,0,285.4,169.4a27.911,27.911,0,0,0,6.422,1.688c4.79.5,9.481.536,14.014-1.362,2.727-.757,3.145-1.235,3.147-3.6,0-3.309,0-3.309-3.15-2.16m.006,25.122a37.848,37.848,0,0,1-21.987-.95c0,1.74.015,3.237-.007,4.735a1.313,1.313,0,0,0,.884,1.306,21.409,21.409,0,0,0,9.551,2.368c.807.028,1.083-.881,2.024-.545,3.123,1.115,6.155.335,9.12-.809,3.3-.979,4.586-3.352,3.565-6.478-.175-.535-.554-.615-.846-.429-.718.457-1.672.162-2.3.8m0-6.789c2.956-.808,4.124-3.125,3.152-6.14-.173-.537-.556-.621-.844-.435-.718.465-1.676.163-2.308.8-1.733-.033-3.361.605-5.069.815a33.092,33.092,0,0,1-13.543-.807c-3.395-.993-3.256-1.034-3.434,2.6a2.681,2.681,0,0,0,2.134,3.094,26.655,26.655,0,0,0,5.7,1.487c4.827.39,9.633.627,14.215-1.415" transform="translate(-154.959 -67.686)"/>
    <path id="Trazado_771445" data-name="Trazado 771445" d="M205.575,307.139a8.742,8.742,0,0,1-6.012,5.336,8.245,8.245,0,0,1-8.206-1.869l-.428-.306c-.5-.493-1.3-.907-1.452-1.492-.649-2.431-2.327-2.509-4.415-2.49-10.012.089-20.024,0-30.036.081-1.5.012-1.817-.393-1.79-1.828.083-4.495.019-4.5,4.577-4.5,9.489,0,18.977-.02,28.466.023,1.348.006,2.269-.154,2.782-1.657a5.113,5.113,0,0,1,3.21-3.1,2.706,2.706,0,0,0,1.884-2.943q-.126-14.134,0-28.269c.013-1.507-.4-1.8-1.83-1.787-6.543.082-13.088.044-19.631.032-2.731-.005-3.7-.99-3.707-3.772-.011-9.554-.065-19.109.048-28.662.022-1.877-.573-2.182-2.259-2.157-6.412.1-12.826.047-19.239.035-2.651-.005-3.658-.992-3.681-3.6s.023-5.236-.022-7.852c-.014-.822.186-1.085,1.071-1.137,5.15-.3,5.216-.328,5.185,4.818-.009,1.437.56,1.521,1.7,1.513,6.413-.042,12.826-.024,19.239-.019,2.98,0,4.237,1.26,4.238,4.243,0,9.554.035,19.109-.035,28.662-.01,1.412.389,1.7,1.731,1.682,6.347-.075,12.695-.037,19.042-.032,3.223,0,4.394,1.2,4.395,4.481,0,10.732.019,21.464-.023,32.2-.005,1.3.186,2.162,1.6,2.627a5.008,5.008,0,0,1,3.136,3.193,2.195,2.195,0,0,0,2.5,1.521c5.364-.091,10.733-.115,16.1.008,1.639.038,1.862-.533,1.851-1.962-.062-8.245-.009-16.491-.055-24.736-.007-1.19.173-1.673,1.549-1.662,4.758.037,4.758-.027,4.758,4.71q0,12.859,0,25.718c0,2.862-1.281,4.161-4.119,4.166-6.674.011-13.35-.007-20.024.022-.592,0-1.3-.36-1.787.333-.215.063-.4.149-.3.43m-11.456-4.018c-.016,1.9,1.072,3.178,2.731,3.217,2.115.049,3.582-1.268,3.536-3.173a3.592,3.592,0,0,0-3.291-3.088,2.949,2.949,0,0,0-2.975,3.044" transform="translate(-87.211 -130.436)"/>
    <path id="Trazado_771446" data-name="Trazado 771446" d="M293.31,31.87c11.975,0,23.951.024,35.926-.033,1.347-.007,1.749.278,1.729,1.686-.069,4.629,0,4.629-4.64,4.629q-34.454,0-68.909.034c-1.491,0-1.968-.307-1.929-1.884.111-4.431.031-4.433,4.448-4.433Z" transform="translate(-154.911 -19.305)"/>
    <path id="Trazado_771447" data-name="Trazado 771447" d="M38.114,38.182h-1.57c-5.2,0-5.175,0-4.731-5.308.063-.759.257-1,1.014-.989q5.3.049,10.6,0c.773-.007,1.086.244.98,1a1.087,1.087,0,0,0,0,.2c.244,5.1.244,5.1-4.915,5.1Z" transform="translate(-19.18 -19.332)"/>
    <path id="Trazado_771448" data-name="Trazado 771448" d="M466.309,111.723c3.061,0,3.061,0,3.061,3.026,0,3.257,0,3.257-3.223,3.257-3.06,0-3.06,0-3.06-3.026,0-3.257,0-3.257,3.222-3.257" transform="translate(-280.789 -67.742)"/>
    <path id="Trazado_771449" data-name="Trazado 771449" d="M469.369,35.178c0,3.026,0,3.026-3.061,3.026-3.223,0-3.223,0-3.223-3.257,0-3.026,0-3.026,3.061-3.026,3.222,0,3.222,0,3.222,3.257" transform="translate(-280.788 -19.355)"/>
    <path id="Trazado_771450" data-name="Trazado 771450" d="M6.514,234.608c0,3.1,0,3.1-3.182,3.1-3.1,0-3.1,0-3.1-3.182,0-3.1,0-3.1,3.182-3.1,3.1,0,3.1,0,3.1,3.182" transform="translate(-0.14 -140.323)"/>
    <path id="Trazado_771451" data-name="Trazado 771451" d="M6.514,35.253c0,2.952,0,2.952-2.939,2.952-3.344,0-3.344,0-3.344-3.332,0-2.952,0-2.952,2.939-2.952,3.344,0,3.344,0,3.344,3.332" transform="translate(-0.14 -19.355)"/>
    <path id="Trazado_771452" data-name="Trazado 771452" d="M222.607,15.35l-1.962-1.962c.634-.731,1.244-.464,1.852.043.724.6.469,1.257.11,1.919" transform="translate(-133.786 -7.845)" fill="#fff"/>
    <path id="Trazado_771453" data-name="Trazado 771453" d="M85.552,27.855c.1,1.154-.424,1.687-1.581,1.594a4.684,4.684,0,0,1,1.581-1.594" transform="translate(-50.915 -16.89)"/>
    <path id="Trazado_771454" data-name="Trazado 771454" d="M126.875,476.1c.23-.6.783-.247,1.167-.394-.128.9-.5,1.09-1.167.394" transform="translate(-76.93 -288.438)" fill="#fff"/>
    <path id="Trazado_771455" data-name="Trazado 771455" d="M238.513,44.654c-.542-.106-.914-.274-.288-.8.458.137.354.476.288.8" transform="translate(-144.247 -26.59)"/>
    <path id="Trazado_771456" data-name="Trazado 771456" d="M148.192,13.107l-.429.313c.061-.216.151-.394.429-.313" transform="translate(-89.595 -7.936)"/>
    <path id="Trazado_771457" data-name="Trazado 771457" d="M263.147,114.263l-.285-.246.284-.035c0,.094,0,.187,0,.281" transform="translate(-159.384 -69.112)" fill="#fefefe"/>
    <path id="Trazado_771458" data-name="Trazado 771458" d="M300.637,448.213c-.093-.281.09-.366.3-.429l-.3.429" transform="translate(-182.273 -271.51)" fill="#fefefe"/>
    <path id="Trazado_771459" data-name="Trazado 771459" d="M263.471,456.9l.428.306c-.279.089-.365-.093-.428-.306" transform="translate(-159.753 -277.04)" fill="#020202"/>
    <path id="Trazado_771460" data-name="Trazado 771460" d="M129.794,475.258c.063-.218.158-.389.433-.289l-.433.289" transform="translate(-78.699 -287.976)" fill="#fff"/>
    <path id="Trazado_771461" data-name="Trazado 771461" d="M257.858,120.267c.011-.094.022-.189.033-.284l.27.278c-.1,0-.2.006-.3.006" transform="translate(-156.35 -72.751)" fill="#fefefe"/>
    <path id="Trazado_771462" data-name="Trazado 771462" d="M125.542,38.1c.515,2.434,1.349,3.052,3.771,3.161,1.646.074,3.363-.492,4.936.432,1.953,2.936,2.632,6,1.213,9.41-.374.9-1.17,1.59-1.225,2.623-5.23.025-10.461.029-15.691.094-.953.012-1.225-.294-1.2-1.223.056-2.484-.054-4.972.032-7.454.286-8.309-2.222-10.174-9.519-12.029A36.743,36.743,0,0,0,85.36,34.189c-3.846,1.468-5.7,4.061-5.7,8.168,0,3.2-.067,6.411.031,9.612.043,1.383-.2,1.965-1.77,1.873a45.231,45.231,0,0,0-7.838.021c-2.653.309-5.988-3.332-6.176-5.4a6.487,6.487,0,0,1,5.479-7.215c3.117-.424,4.1-1.4,3.961-4.549-.178-4.056.681-7.679,3.611-10.648,4.262-4.318,10.346-4.591,15.389-1.718,3.153,1.8,4.218,1.655,6.28-1.468a14.2,14.2,0,0,1,11.933-6.653c2.256-.067,4.733.049,6.806,1.435a.749.749,0,0,0,.8.414l-.014-.012c.1,1.325,1.366,1.821,2,2.78a19.011,19.011,0,0,1,2.921,15.535c-.327,1.342-.066,1.845,1.3,1.736.387-.031.779,0,1.168,0" transform="translate(-38.731 -9.82)" fill="#5573c6"/>
    <path id="Trazado_771463" data-name="Trazado 771463" d="M141.437,169.582a32.094,32.094,0,0,1-19.769-.4,2.371,2.371,0,0,1-1.849-2.761,27.768,27.768,0,0,0,.04-3.325,3.082,3.082,0,0,1,.129-.531,38.1,38.1,0,0,0,21.839.881,22.809,22.809,0,0,1-.389,6.136" transform="translate(-72.632 -98.57)" fill="#f0dcc0"/>
    <path id="Trazado_771464" data-name="Trazado 771464" d="M141.793,137.867a13.448,13.448,0,0,1-5.842,1.52c-4.675.335-9.378.366-13.881-1.458-1.724-.7-2.467-1.633-2.329-3.595.207-2.947.111-3.124,2.821-2.28,4.423,1.376,8.939,1.24,13.445,1.1a37.882,37.882,0,0,0,5.78-1.048q0,2.879.005,5.757" transform="translate(-72.594 -79.804)" fill="#f0dcc0"/>
    <path id="Trazado_771465" data-name="Trazado 771465" d="M141.846,105.189c-4.533,1.9-9.224,1.865-14.015,1.362a27.911,27.911,0,0,1-6.422-1.688,2.066,2.066,0,0,1-1.576-2.459c.126-1.222.027-2.467.027-3.955,7.328,2.784,14.633,2.564,21.983.974q0,2.883,0,5.766" transform="translate(-72.646 -59.694)" fill="#f0dcc0"/>
    <path id="Trazado_771466" data-name="Trazado 771466" d="M141.2,76.757a27.264,27.264,0,0,1-21.861-1.345c2.1-2.338,4.835-2.553,7.279-2.918a34.215,34.215,0,0,1,13.516.643,5.669,5.669,0,0,1,1.019.487,4.03,4.03,0,0,1,.047,3.134" transform="translate(-72.363 -43.719)" fill="#f4a338"/>
    <path id="Trazado_771467" data-name="Trazado 771467" d="M209.139,40.951c-.39,0-.781-.032-1.168,0-1.369.109-1.63-.394-1.3-1.736a19.011,19.011,0,0,0-2.921-15.535c-.632-.959-1.9-1.454-2-2.78,4.989,2.38,7.49,6.388,8.319,11.813.448,2.929-.367,5.525-.928,8.239" transform="translate(-122.328 -12.672)" fill="#5573c6"/>
    <path id="Trazado_771468" data-name="Trazado 771468" d="M242.61,93c.055-1.033.85-1.726,1.224-2.623,1.419-3.407.74-6.473-1.212-9.41,2.651.24,4.157,1.669,4.972,5.171.447,1.918-1.052,5-3.082,6.144-.581.327-1.108.911-1.9.717" transform="translate(-147.104 -49.092)" fill="#5573c6"/>
    <path id="Trazado_771469" data-name="Trazado 771469" d="M174.783,169.9a22.809,22.809,0,0,0,.389-6.136c3.155-1.118,3.155-1.118,3.152,2.138,0,2.529-.4,2.976-3.541,4" transform="translate(-105.978 -98.888)" fill="#f0dcc0"/>
    <path id="Trazado_771470" data-name="Trazado 771470" d="M175.776,137.548q0-2.879-.005-5.757c3.155-1.157,3.155-1.157,3.152,2.148,0,2.437-.359,2.847-3.147,3.609" transform="translate(-106.577 -79.486)" fill="#f0dcc0"/>
    <path id="Trazado_771471" data-name="Trazado 771471" d="M175.78,105.621q0-2.883,0-5.766c3.153-1.148,3.153-1.148,3.15,2.162,0,2.371-.422,2.853-3.147,3.6" transform="translate(-106.58 -60.126)" fill="#f0dcc0"/>
    <path id="Trazado_771472" data-name="Trazado 771472" d="M174.8,79.083a4.03,4.03,0,0,0-.047-3.134c1.3-.1,3.021.652,3,1.383-.042,1.3-1.743,1.468-2.951,1.751" transform="translate(-105.962 -46.045)" fill="#f4a338"/>
    <path id="Trazado_771473" data-name="Trazado 771473" d="M200.555,20.291a.749.749,0,0,1-.8-.414c.315.044.685-.019.8.414" transform="translate(-121.122 -12.052)" fill="#4188fd"/>
    <path id="Trazado_771474" data-name="Trazado 771474" d="M86.359,333.068c-5.229.025-10.458.03-15.687.094-.948.012-1.229-.286-1.208-1.22.056-2.483-.054-4.971.032-7.453.287-8.31-2.215-10.178-9.51-12.033A36.687,36.687,0,0,0,37.5,313.53c-3.845,1.471-5.714,4.068-5.714,8.151,0,3.269-.078,6.541.036,9.806.05,1.425-.415,1.743-1.751,1.688a50.6,50.6,0,0,0-7.837.031c-2.693.311-6-3.306-6.194-5.376a6.471,6.471,0,0,1,5.447-7.238c3.176-.46,4.119-1.372,3.989-4.522-.155-3.751.5-7.212,3.048-10.086,3.589-4.042,9.582-5.093,14.838-2.737.292.131.577.275.864.418,3.744,1.866,4.587,1.694,6.883-1.875,1.15-1.788,2.82-2.976,4.328-4.364.379.218.7.312.7-.316.965-.291,1.943-.543,2.892-.879,3.472-1.228,6.853-.578,10.209.48.268.084.454.426.678.648a2.039,2.039,0,0,0,.272.513A17.693,17.693,0,0,1,75.4,313.736a10.879,10.879,0,0,1-.281,2.321c-.318.846-.052,1.409.977,1.379.523-.015,1.047,0,1.571.007.514,2.434,1.349,3.052,3.771,3.161,1.646.074,3.363-.492,4.936.432,2.012,3,2.647,6.163,1.175,9.6-.357.833-1.11,1.467-1.187,2.431" transform="translate(-9.703 -179.211)" fill="#5573c6"/>
    <path id="Trazado_771475" data-name="Trazado 771475" d="M93.912,417.173a13.454,13.454,0,0,1-5.842,1.52c-4.675.335-9.378.366-13.88-1.457-1.724-.7-2.467-1.632-2.329-3.594.207-2.946.111-3.123,2.821-2.28,4.422,1.377,8.938,1.24,13.445,1.1a37.882,37.882,0,0,0,5.78-1.048q0,2.879.005,5.757" transform="translate(-43.562 -249.159)" fill="#f0dcc0"/>
    <path id="Trazado_771476" data-name="Trazado 771476" d="M93.964,384.551c-4.534,1.9-9.226,1.865-14.017,1.362a28.064,28.064,0,0,1-6.424-1.689,2.066,2.066,0,0,1-1.571-2.463c.126-1.223.027-2.468.027-3.913,7.327,2.732,14.632,2.531,21.983.938q0,2.882,0,5.765" transform="translate(-43.614 -229.105)" fill="#f0dcc0"/>
    <path id="Trazado_771477" data-name="Trazado 771477" d="M93.593,448.527a10.623,10.623,0,0,1-5.588,1.424c-4.782.286-9.614.474-14.183-1.659-1.461-.682-2.068-1.476-1.882-3.058a31.116,31.116,0,0,0,.025-3.48,38.19,38.19,0,0,0,21.982.916c-.043,1.957.223,3.932-.354,5.856" transform="translate(-43.601 -267.854)" fill="#f0dcc0"/>
    <path id="Trazado_771478" data-name="Trazado 771478" d="M94.364,356.154c-5.119,2.2-10.411,1.776-15.708.969a18.374,18.374,0,0,1-3.631-1.078c-.757-.285-1.847-.648-1.847-1.471,0-.955,1.114-1.312,1.955-1.566a24.8,24.8,0,0,1,4.612-1.157,38.268,38.268,0,0,1,13.929.76,2.59,2.59,0,0,1,.642.409,4.028,4.028,0,0,1,.047,3.134" transform="translate(-44.371 -213.165)" fill="#f4a338"/>
    <path id="Trazado_771479" data-name="Trazado 771479" d="M160.7,320.208c-.524,0-1.048-.022-1.571-.007-1.029.03-1.294-.533-.977-1.379a10.855,10.855,0,0,0,.281-2.321,17.69,17.69,0,0,0-5.216-15.866,2.058,2.058,0,0,1-.272-.513c3.395.972,5.425,3.479,7.011,6.4,2.4,4.423,2.246,9.03.744,13.688" transform="translate(-92.735 -181.977)" fill="#5573c6"/>
    <path id="Trazado_771480" data-name="Trazado 771480" d="M194.727,372.3c.077-.964.83-1.6,1.187-2.431,1.472-3.438.838-6.6-1.175-9.6a5.082,5.082,0,0,1,4.718,4.025c.634,2.732-.259,5.618-2.184,6.8a25.515,25.515,0,0,1-2.545,1.211" transform="translate(-118.071 -218.448)" fill="#5573c6"/>
    <path id="Trazado_771481" data-name="Trazado 771481" d="M126.994,448.863c.577-1.924.311-3.9.354-5.856,3.152-1.146,3.152-1.146,3.15,2.038,0,2.589-.638,3.283-3.5,3.819" transform="translate(-77.002 -268.19)" fill="#f0dcc0"/>
    <path id="Trazado_771482" data-name="Trazado 771482" d="M127.894,416.856q0-2.879-.005-5.757c3.154-1.157,3.154-1.157,3.152,2.148,0,2.437-.359,2.846-3.147,3.609" transform="translate(-77.544 -248.842)" fill="#f0dcc0"/>
    <path id="Trazado_771483" data-name="Trazado 771483" d="M127.9,384.928q0-2.883,0-5.765c3.152-1.148,3.152-1.148,3.15,2.161,0,2.369-.419,2.847-3.147,3.6" transform="translate(-77.548 -229.482)" fill="#f0dcc0"/>
    <path id="Trazado_771484" data-name="Trazado 771484" d="M126.922,358.4a4.028,4.028,0,0,0-.047-3.134c1.3-.052,2.938.526,2.944,1.485.007,1.106-1.7,1.417-2.9,1.648" transform="translate(-76.93 -215.41)" fill="#f4a338"/>
    <path id="Trazado_771485" data-name="Trazado 771485" d="M116.868,299.434c.006.629-.317.534-.7.317.05-.505.414-.322.7-.317" transform="translate(-70.44 -181.537)" fill="#66a5ff"/>
    <path id="Trazado_771486" data-name="Trazado 771486" d="M333.029,181.744c.513,2.432,1.312,3.026,3.774,3.158,1.645.088,3.361-.491,4.933.435,2.012,3,2.647,6.163,1.174,9.6-.356.833-1.11,1.467-1.187,2.431-5.23.025-10.46.029-15.69.094-.953.012-1.226-.294-1.205-1.223.056-2.484-.054-4.972.032-7.454.287-8.309-2.224-10.176-9.518-12.03a36.738,36.738,0,0,0-22.492,1.075c-3.835,1.464-5.7,4.073-5.7,8.166,0,3.139-.086,6.281.037,9.415.06,1.552-.231,2.194-1.969,2.076a41.411,41.411,0,0,0-7.64.018c-2.659.316-5.99-3.327-6.179-5.4a6.485,6.485,0,0,1,5.475-7.219c3.123-.428,4.1-1.4,3.965-4.545-.176-4.054.675-7.679,3.608-10.65,4.267-4.322,10.345-4.593,15.389-1.724,3.159,1.8,4.222,1.658,6.28-1.46a14.186,14.186,0,0,1,11.931-6.658c2.258-.065,4.736.051,6.81,1.435a.75.75,0,0,0,.8.414l-.013-.012c.1,1.325,1.366,1.821,2,2.78a19.012,19.012,0,0,1,2.921,15.535c-.326,1.342-.066,1.845,1.3,1.736.387-.031.779,0,1.168,0" transform="translate(-164.539 -96.918)" fill="#5573c6"/>
    <path id="Trazado_771487" data-name="Trazado 771487" d="M349.3,281.375c-4.583,2.042-9.388,1.805-14.215,1.415a26.657,26.657,0,0,1-5.7-1.487,2.681,2.681,0,0,1-2.134-3.094c.178-3.631.04-3.591,3.434-2.6a33.092,33.092,0,0,0,13.543.807c1.708-.21,3.335-.848,5.069-.815v5.771" transform="translate(-198.425 -166.766)" fill="#f0dcc0"/>
    <path id="Trazado_771488" data-name="Trazado 771488" d="M348.984,313.03c-2.965,1.144-6,1.923-9.12.808-.941-.336-1.216.573-2.023.545a21.408,21.408,0,0,1-9.551-2.368,1.313,1.313,0,0,1-.884-1.306c.021-1.5.007-3,.007-4.735a37.861,37.861,0,0,0,21.987.949c-.127,2.036.348,4.113-.415,6.106" transform="translate(-198.519 -185.525)" fill="#f0dcc0"/>
    <path id="Trazado_771489" data-name="Trazado 771489" d="M349.333,248.834c-4.533,1.9-9.224,1.865-14.014,1.362a27.892,27.892,0,0,1-6.422-1.688,2.065,2.065,0,0,1-1.576-2.459c.126-1.222.027-2.467.027-3.954,7.328,2.783,14.633,2.564,21.983.973q0,2.882,0,5.765" transform="translate(-198.455 -146.793)" fill="#f0dcc0"/>
    <path id="Trazado_771490" data-name="Trazado 771490" d="M348.791,220.325a27.637,27.637,0,0,1-21.8-1.258c3.54-3.643,16.062-4.6,21.75-1.876a4.028,4.028,0,0,1,.047,3.134" transform="translate(-198.27 -130.741)" fill="#f4a338"/>
    <path id="Trazado_771491" data-name="Trazado 771491" d="M416.626,184.6c-.39,0-.781-.033-1.168,0-1.369.109-1.629-.394-1.3-1.736a19.012,19.012,0,0,0-2.921-15.535c-.632-.959-1.9-1.455-2-2.78,4.988,2.38,7.489,6.388,8.319,11.813.448,2.929-.368,5.525-.928,8.239" transform="translate(-248.136 -99.769)" fill="#5573c6"/>
    <path id="Trazado_771492" data-name="Trazado 771492" d="M450.1,236.641c.076-.964.83-1.6,1.187-2.431,1.472-3.438.838-6.6-1.175-9.6a5.083,5.083,0,0,1,4.718,4.025c.634,2.732-.259,5.619-2.184,6.8a25.519,25.519,0,0,1-2.545,1.21" transform="translate(-272.912 -136.189)" fill="#5573c6"/>
    <path id="Trazado_771493" data-name="Trazado 771493" d="M382.222,313.119c.764-1.993.289-4.07.415-6.106.632-.638,1.586-.344,2.3-.8.292-.185.671-.106.846.429,1.021,3.126-.265,5.5-3.565,6.478" transform="translate(-231.757 -185.614)" fill="#f0dcc0"/>
    <path id="Trazado_771494" data-name="Trazado 771494" d="M383.271,280.873V275.1c.632-.642,1.59-.339,2.308-.8.288-.186.671-.1.844.435.972,3.015-.2,5.332-3.152,6.14" transform="translate(-232.393 -166.264)" fill="#f0dcc0"/>
    <path id="Trazado_771495" data-name="Trazado 771495" d="M383.267,249.265q0-2.883,0-5.765c3.152-1.148,3.152-1.148,3.15,2.161,0,2.369-.419,2.847-3.147,3.6" transform="translate(-232.389 -147.224)" fill="#f0dcc0"/>
    <path id="Trazado_771496" data-name="Trazado 771496" d="M382.291,222.7a4.028,4.028,0,0,0-.047-3.134c1.357-.173,2.944.584,2.941,1.485,0,1.11-1.7,1.418-2.894,1.649" transform="translate(-231.77 -133.118)" fill="#f4a338"/>
    <path id="Trazado_771497" data-name="Trazado 771497" d="M408.042,163.936a.75.75,0,0,1-.8-.414c.314.044.685-.019.8.414" transform="translate(-246.929 -99.15)" fill="#4188fd"/>
    <path id="Trazado_771498" data-name="Trazado 771498" d="M271.573,433.978a2.949,2.949,0,0,1,2.975-3.044,3.592,3.592,0,0,1,3.291,3.088c.046,1.905-1.421,3.222-3.536,3.173-1.658-.039-2.747-1.32-2.731-3.217" transform="translate(-164.666 -261.293)" fill="#f9e790"/>
  </g>
</svg>
