<svg xmlns="http://www.w3.org/2000/svg" xmlns:xlink="http://www.w3.org/1999/xlink" width="1328" height="1008" viewBox="0 0 1328 1008">
  <defs>
    <clipPath id="clip-path">
      <rect id="Rectángulo_352791" data-name="Rectángulo 352791" width="197.266" height="100.635" fill="#12263f"/>
    </clipPath>
  </defs>
  <g id="Grupo_1034049" data-name="Grupo 1034049" transform="translate(-136 -13288)">
    <rect id="Rectángulo_364967" data-name="Rectángulo 364967" width="1328" height="1008" transform="translate(136 13288)" fill="#f0dcc0" opacity="0.11"/>
    <g id="Grupo_1033609" data-name="Grupo 1033609" transform="translate(237.343 13380)">
      <g id="Enmascarar_grupo_1018593" data-name="Enmascarar grupo 1018593" transform="translate(1155.657 604.23) rotate(90)" opacity="0.58" clip-path="url(#clip-path)">
        <path id="Trazado_151731" data-name="Trazado 151731" d="M93.925,148.3A54.378,54.378,0,1,1,148.3,93.925,54.439,54.439,0,0,1,93.925,148.3m0,39.547A93.925,93.925,0,1,0,0,93.925,93.925,93.925,0,0,0,93.925,187.85Z" transform="translate(4.075 6.711)" fill="#5573c6"/>
      </g>
      <g id="Grupo_1018971" data-name="Grupo 1018971" transform="translate(0 0)">
        <path id="Trazado_145969" data-name="Trazado 145969" d="M55.628,0A55.628,55.628,0,1,1,0,55.628,55.628,55.628,0,0,1,55.628,0Z" transform="translate(0 2.823)" fill="#ffca28" opacity="0.444" style="mix-blend-mode: multiply;isolation: isolate"/>
        <rect id="Rectángulo_34812" data-name="Rectángulo 34812" width="1147.412" height="165.087" transform="translate(0)" fill="none"/>
        <path id="Trazado_145971" data-name="Trazado 145971" d="M6.349,0A6.349,6.349,0,1,1,0,6.349,6.349,6.349,0,0,1,6.349,0Z" transform="translate(25.082 353.549)" fill="#31313c" opacity="0.444" style="mix-blend-mode: multiply;isolation: isolate"/>
        <g id="Grupo_80270" data-name="Grupo 80270" transform="translate(1093.684 554.6) rotate(90)">
          <path id="Trazado_145968" data-name="Trazado 145968" d="M62.448,0A62.448,62.448,0,1,1,0,62.448,62.448,62.448,0,0,1,62.448,0Z" transform="translate(0 0)" fill="#31313c" opacity="0.444" style="mix-blend-mode: multiply;isolation: isolate"/>
          <g id="Grupo_78276" data-name="Grupo 78276" transform="translate(24.382 25.816)">
            <g id="Grupo_53306" data-name="Grupo 53306">
              <path id="Trazado_99200" data-name="Trazado 99200" d="M1.7.811a.83.83,0,0,1-.849.811A.83.83,0,0,1,0,.811.83.83,0,0,1,.848,0,.83.83,0,0,1,1.7.811Z" fill="#fff"/>
              <path id="Trazado_99201" data-name="Trazado 99201" d="M1.7.811a.83.83,0,0,1-.848.811A.83.83,0,0,1,0,.811.83.83,0,0,1,.848,0,.83.83,0,0,1,1.7.811Z" transform="translate(7.631)" fill="#fff"/>
              <path id="Trazado_99202" data-name="Trazado 99202" d="M1.7.811a.83.83,0,0,1-.847.811A.831.831,0,0,1,0,.811.831.831,0,0,1,.849,0,.83.83,0,0,1,1.7.811Z" transform="translate(15.263)" fill="#fff"/>
              <path id="Trazado_99203" data-name="Trazado 99203" d="M1.7.811a.83.83,0,0,1-.848.811A.83.83,0,0,1,0,.811.83.83,0,0,1,.847,0,.83.83,0,0,1,1.7.811Z" transform="translate(22.895)" fill="#fff"/>
              <path id="Trazado_99204" data-name="Trazado 99204" d="M1.7.811a.83.83,0,0,1-.848.811A.83.83,0,0,1,0,.811.83.83,0,0,1,.848,0,.83.83,0,0,1,1.7.811Z" transform="translate(30.526)" fill="#fff"/>
              <path id="Trazado_99205" data-name="Trazado 99205" d="M1.7.811a.83.83,0,0,1-.848.811A.831.831,0,0,1,0,.811.83.83,0,0,1,.848,0,.83.83,0,0,1,1.7.811Z" transform="translate(38.158)" fill="#fff"/>
              <path id="Trazado_99206" data-name="Trazado 99206" d="M1.7.811a.831.831,0,0,1-.848.811A.83.83,0,0,1,0,.811.83.83,0,0,1,.848,0,.831.831,0,0,1,1.7.811Z" transform="translate(45.79)" fill="#fff"/>
              <path id="Trazado_99207" data-name="Trazado 99207" d="M1.7.811a.83.83,0,0,1-.847.811A.83.83,0,0,1,0,.811.83.83,0,0,1,.848,0,.83.83,0,0,1,1.7.811Z" transform="translate(53.422)" fill="#fff"/>
              <path id="Trazado_99208" data-name="Trazado 99208" d="M1.7.811a.83.83,0,0,1-.848.811A.831.831,0,0,1,0,.811.831.831,0,0,1,.849,0,.83.83,0,0,1,1.7.811Z" transform="translate(61.053)" fill="#fff"/>
              <path id="Trazado_99209" data-name="Trazado 99209" d="M1.7.811a.831.831,0,0,1-.848.811A.83.83,0,0,1,0,.811.83.83,0,0,1,.848,0,.83.83,0,0,1,1.7.811Z" transform="translate(68.685)" fill="#fff"/>
              <path id="Trazado_99210" data-name="Trazado 99210" d="M1.7.811a.83.83,0,0,1-.849.811A.83.83,0,0,1,0,.811.83.83,0,0,1,.847,0,.83.83,0,0,1,1.7.811Z" transform="translate(76.317)" fill="#fff"/>
            </g>
            <g id="Grupo_53307" data-name="Grupo 53307" transform="translate(0 6.487)">
              <path id="Trazado_99211" data-name="Trazado 99211" d="M1.7.811a.83.83,0,0,1-.849.811A.83.83,0,0,1,0,.811.83.83,0,0,1,.848,0,.83.83,0,0,1,1.7.811Z" fill="#fff"/>
              <path id="Trazado_99212" data-name="Trazado 99212" d="M1.7.811a.83.83,0,0,1-.848.811A.83.83,0,0,1,0,.811.83.83,0,0,1,.848,0,.83.83,0,0,1,1.7.811Z" transform="translate(7.631)" fill="#fff"/>
              <path id="Trazado_99213" data-name="Trazado 99213" d="M1.7.811a.83.83,0,0,1-.847.811A.831.831,0,0,1,0,.811.831.831,0,0,1,.849,0,.83.83,0,0,1,1.7.811Z" transform="translate(15.263)" fill="#fff"/>
              <path id="Trazado_99214" data-name="Trazado 99214" d="M1.7.811a.83.83,0,0,1-.848.811A.83.83,0,0,1,0,.811.83.83,0,0,1,.847,0,.83.83,0,0,1,1.7.811Z" transform="translate(22.895)" fill="#fff"/>
              <path id="Trazado_99215" data-name="Trazado 99215" d="M1.7.811a.83.83,0,0,1-.848.811A.83.83,0,0,1,0,.811.83.83,0,0,1,.848,0,.83.83,0,0,1,1.7.811Z" transform="translate(30.526)" fill="#fff"/>
              <path id="Trazado_99216" data-name="Trazado 99216" d="M1.7.811a.83.83,0,0,1-.848.811A.831.831,0,0,1,0,.811.83.83,0,0,1,.848,0,.83.83,0,0,1,1.7.811Z" transform="translate(38.158)" fill="#fff"/>
              <path id="Trazado_99217" data-name="Trazado 99217" d="M1.7.811a.831.831,0,0,1-.848.811A.83.83,0,0,1,0,.811.83.83,0,0,1,.848,0,.831.831,0,0,1,1.7.811Z" transform="translate(45.79)" fill="#fff"/>
              <path id="Trazado_99218" data-name="Trazado 99218" d="M1.7.811a.83.83,0,0,1-.847.811A.83.83,0,0,1,0,.811.83.83,0,0,1,.848,0,.83.83,0,0,1,1.7.811Z" transform="translate(53.422)" fill="#fff"/>
              <path id="Trazado_99219" data-name="Trazado 99219" d="M1.7.811a.83.83,0,0,1-.848.811A.831.831,0,0,1,0,.811.831.831,0,0,1,.849,0,.83.83,0,0,1,1.7.811Z" transform="translate(61.053)" fill="#fff"/>
              <path id="Trazado_99220" data-name="Trazado 99220" d="M1.7.811a.831.831,0,0,1-.848.811A.83.83,0,0,1,0,.811.83.83,0,0,1,.848,0,.83.83,0,0,1,1.7.811Z" transform="translate(68.685)" fill="#fff"/>
              <path id="Trazado_99221" data-name="Trazado 99221" d="M1.7.811a.83.83,0,0,1-.849.811A.83.83,0,0,1,0,.811.83.83,0,0,1,.847,0,.83.83,0,0,1,1.7.811Z" transform="translate(76.317)" fill="#fff"/>
            </g>
            <g id="Grupo_53308" data-name="Grupo 53308" transform="translate(0 12.975)">
              <ellipse id="Elipse_3955" data-name="Elipse 3955" cx="0.848" cy="0.811" rx="0.848" ry="0.811" fill="#fff"/>
              <path id="Trazado_99222" data-name="Trazado 99222" d="M1.7.811a.83.83,0,0,1-.848.811A.831.831,0,0,1,0,.811.83.83,0,0,1,.848,0,.83.83,0,0,1,1.7.811Z" transform="translate(7.631 0)" fill="#fff"/>
              <ellipse id="Elipse_3956" data-name="Elipse 3956" cx="0.848" cy="0.811" rx="0.848" ry="0.811" transform="translate(15.263)" fill="#fff"/>
              <path id="Trazado_99223" data-name="Trazado 99223" d="M1.7.811a.831.831,0,0,1-.848.811A.83.83,0,0,1,0,.811.83.83,0,0,1,.847,0,.83.83,0,0,1,1.7.811Z" transform="translate(22.895 0)" fill="#fff"/>
              <path id="Trazado_99224" data-name="Trazado 99224" d="M1.7.811a.831.831,0,0,1-.848.811A.831.831,0,0,1,0,.811.83.83,0,0,1,.848,0,.83.83,0,0,1,1.7.811Z" transform="translate(30.527 0)" fill="#fff"/>
              <ellipse id="Elipse_3957" data-name="Elipse 3957" cx="0.848" cy="0.811" rx="0.848" ry="0.811" transform="translate(38.158)" fill="#fff"/>
              <path id="Trazado_99225" data-name="Trazado 99225" d="M1.7.811a.831.831,0,0,1-.848.811A.83.83,0,0,1,0,.811.83.83,0,0,1,.848,0,.831.831,0,0,1,1.7.811Z" transform="translate(45.79 0)" fill="#fff"/>
              <ellipse id="Elipse_3958" data-name="Elipse 3958" cx="0.848" cy="0.811" rx="0.848" ry="0.811" transform="translate(53.422)" fill="#fff"/>
              <ellipse id="Elipse_3959" data-name="Elipse 3959" cx="0.848" cy="0.811" rx="0.848" ry="0.811" transform="translate(61.053)" fill="#fff"/>
              <path id="Trazado_99226" data-name="Trazado 99226" d="M1.7.811a.831.831,0,0,1-.848.811A.83.83,0,0,1,0,.811.83.83,0,0,1,.848,0,.83.83,0,0,1,1.7.811Z" transform="translate(68.685 0)" fill="#fff"/>
              <path id="Trazado_99227" data-name="Trazado 99227" d="M1.7.811a.831.831,0,0,1-.849.811A.83.83,0,0,1,0,.811.83.83,0,0,1,.847,0,.83.83,0,0,1,1.7.811Z" transform="translate(76.317 0)" fill="#fff"/>
            </g>
            <g id="Grupo_53309" data-name="Grupo 53309" transform="translate(0 19.462)">
              <ellipse id="Elipse_3960" data-name="Elipse 3960" cx="0.848" cy="0.811" rx="0.848" ry="0.811" transform="translate(0 0)" fill="#fff"/>
              <path id="Trazado_99228" data-name="Trazado 99228" d="M1.7.811a.83.83,0,0,1-.848.811A.83.83,0,0,1,0,.811.831.831,0,0,1,.848,0,.83.83,0,0,1,1.7.811Z" transform="translate(7.631)" fill="#fff"/>
              <ellipse id="Elipse_3961" data-name="Elipse 3961" cx="0.848" cy="0.811" rx="0.848" ry="0.811" transform="translate(15.263 0)" fill="#fff"/>
              <path id="Trazado_99229" data-name="Trazado 99229" d="M1.7.811a.83.83,0,0,1-.848.811A.83.83,0,0,1,0,.811.83.83,0,0,1,.847,0,.831.831,0,0,1,1.7.811Z" transform="translate(22.895)" fill="#fff"/>
              <path id="Trazado_99230" data-name="Trazado 99230" d="M1.7.811a.83.83,0,0,1-.848.811A.83.83,0,0,1,0,.811.831.831,0,0,1,.848,0,.831.831,0,0,1,1.7.811Z" transform="translate(30.527)" fill="#fff"/>
              <ellipse id="Elipse_3962" data-name="Elipse 3962" cx="0.848" cy="0.811" rx="0.848" ry="0.811" transform="translate(38.158 0)" fill="#fff"/>
              <path id="Trazado_99231" data-name="Trazado 99231" d="M1.7.811a.831.831,0,0,1-.848.811A.83.83,0,0,1,0,.811.83.83,0,0,1,.848,0,.831.831,0,0,1,1.7.811Z" transform="translate(45.79)" fill="#fff"/>
              <ellipse id="Elipse_3963" data-name="Elipse 3963" cx="0.848" cy="0.811" rx="0.848" ry="0.811" transform="translate(53.422 0)" fill="#fff"/>
              <ellipse id="Elipse_3964" data-name="Elipse 3964" cx="0.848" cy="0.811" rx="0.848" ry="0.811" transform="translate(61.053 0)" fill="#fff"/>
              <path id="Trazado_99232" data-name="Trazado 99232" d="M1.7.811a.83.83,0,0,1-.848.811A.83.83,0,0,1,0,.811.83.83,0,0,1,.848,0,.831.831,0,0,1,1.7.811Z" transform="translate(68.685)" fill="#fff"/>
              <path id="Trazado_99233" data-name="Trazado 99233" d="M1.7.811a.83.83,0,0,1-.849.811A.83.83,0,0,1,0,.811.83.83,0,0,1,.847,0,.831.831,0,0,1,1.7.811Z" transform="translate(76.317)" fill="#fff"/>
            </g>
            <g id="Grupo_53310" data-name="Grupo 53310" transform="translate(0 25.949)">
              <path id="Trazado_99234" data-name="Trazado 99234" d="M1.7.811a.83.83,0,0,1-.849.811A.83.83,0,0,1,0,.811.83.83,0,0,1,.848,0,.83.83,0,0,1,1.7.811Z" fill="#fff"/>
              <path id="Trazado_99235" data-name="Trazado 99235" d="M1.7.811a.83.83,0,0,1-.848.811A.83.83,0,0,1,0,.811.83.83,0,0,1,.848,0,.83.83,0,0,1,1.7.811Z" transform="translate(7.631)" fill="#fff"/>
              <path id="Trazado_99236" data-name="Trazado 99236" d="M1.7.811a.83.83,0,0,1-.847.811A.831.831,0,0,1,0,.811.831.831,0,0,1,.849,0,.83.83,0,0,1,1.7.811Z" transform="translate(15.263)" fill="#fff"/>
              <path id="Trazado_99237" data-name="Trazado 99237" d="M1.7.811a.83.83,0,0,1-.848.811A.83.83,0,0,1,0,.811.83.83,0,0,1,.847,0,.83.83,0,0,1,1.7.811Z" transform="translate(22.895)" fill="#fff"/>
              <path id="Trazado_99238" data-name="Trazado 99238" d="M1.7.811a.83.83,0,0,1-.848.811A.83.83,0,0,1,0,.811.83.83,0,0,1,.848,0,.83.83,0,0,1,1.7.811Z" transform="translate(30.526)" fill="#fff"/>
              <path id="Trazado_99239" data-name="Trazado 99239" d="M1.7.811a.83.83,0,0,1-.848.811A.83.83,0,0,1,0,.811.831.831,0,0,1,.848,0,.83.83,0,0,1,1.7.811Z" transform="translate(38.158)" fill="#fff"/>
              <path id="Trazado_99240" data-name="Trazado 99240" d="M1.7.811a.831.831,0,0,1-.848.811A.83.83,0,0,1,0,.811.83.83,0,0,1,.848,0,.831.831,0,0,1,1.7.811Z" transform="translate(45.79)" fill="#fff"/>
              <path id="Trazado_99241" data-name="Trazado 99241" d="M1.7.811a.83.83,0,0,1-.847.811A.83.83,0,0,1,0,.811.83.83,0,0,1,.848,0,.83.83,0,0,1,1.7.811Z" transform="translate(53.422)" fill="#fff"/>
              <path id="Trazado_99242" data-name="Trazado 99242" d="M1.7.811a.83.83,0,0,1-.848.811A.831.831,0,0,1,0,.811.831.831,0,0,1,.849,0,.83.83,0,0,1,1.7.811Z" transform="translate(61.053)" fill="#fff"/>
              <path id="Trazado_99243" data-name="Trazado 99243" d="M1.7.811a.83.83,0,0,1-.848.811A.83.83,0,0,1,0,.811.83.83,0,0,1,.848,0,.831.831,0,0,1,1.7.811Z" transform="translate(68.685)" fill="#fff"/>
              <path id="Trazado_99244" data-name="Trazado 99244" d="M1.7.811a.83.83,0,0,1-.849.811A.83.83,0,0,1,0,.811.83.83,0,0,1,.847,0,.83.83,0,0,1,1.7.811Z" transform="translate(76.317)" fill="#fff"/>
            </g>
            <g id="Grupo_53311" data-name="Grupo 53311" transform="translate(0 32.437)">
              <ellipse id="Elipse_3965" data-name="Elipse 3965" cx="0.848" cy="0.811" rx="0.848" ry="0.811" transform="translate(0 0)" fill="#fff"/>
              <path id="Trazado_99245" data-name="Trazado 99245" d="M1.7.811a.83.83,0,0,1-.848.811A.83.83,0,0,1,0,.811.83.83,0,0,1,.848,0,.83.83,0,0,1,1.7.811Z" transform="translate(7.631)" fill="#fff"/>
              <ellipse id="Elipse_3966" data-name="Elipse 3966" cx="0.848" cy="0.811" rx="0.848" ry="0.811" transform="translate(15.263 0)" fill="#fff"/>
              <path id="Trazado_99246" data-name="Trazado 99246" d="M1.7.811a.83.83,0,0,1-.848.811A.83.83,0,0,1,0,.811.83.83,0,0,1,.847,0,.83.83,0,0,1,1.7.811Z" transform="translate(22.895)" fill="#fff"/>
              <path id="Trazado_99247" data-name="Trazado 99247" d="M1.7.811a.83.83,0,0,1-.848.811A.83.83,0,0,1,0,.811.83.83,0,0,1,.848,0,.83.83,0,0,1,1.7.811Z" transform="translate(30.527)" fill="#fff"/>
              <ellipse id="Elipse_3967" data-name="Elipse 3967" cx="0.848" cy="0.811" rx="0.848" ry="0.811" transform="translate(38.158 0)" fill="#fff"/>
              <path id="Trazado_99248" data-name="Trazado 99248" d="M1.7.811a.831.831,0,0,1-.848.811A.83.83,0,0,1,0,.811.83.83,0,0,1,.848,0,.831.831,0,0,1,1.7.811Z" transform="translate(45.79)" fill="#fff"/>
              <ellipse id="Elipse_3968" data-name="Elipse 3968" cx="0.848" cy="0.811" rx="0.848" ry="0.811" transform="translate(53.422 0)" fill="#fff"/>
              <ellipse id="Elipse_3969" data-name="Elipse 3969" cx="0.848" cy="0.811" rx="0.848" ry="0.811" transform="translate(61.053 0)" fill="#fff"/>
              <path id="Trazado_99249" data-name="Trazado 99249" d="M1.7.811a.83.83,0,0,1-.848.811A.83.83,0,0,1,0,.811.83.83,0,0,1,.848,0,.831.831,0,0,1,1.7.811Z" transform="translate(68.685)" fill="#fff"/>
              <path id="Trazado_99250" data-name="Trazado 99250" d="M1.7.811a.83.83,0,0,1-.849.811A.83.83,0,0,1,0,.811.83.83,0,0,1,.847,0,.83.83,0,0,1,1.7.811Z" transform="translate(76.317)" fill="#fff"/>
            </g>
            <g id="Grupo_53312" data-name="Grupo 53312" transform="translate(0 38.924)">
              <ellipse id="Elipse_3970" data-name="Elipse 3970" cx="0.848" cy="0.811" rx="0.848" ry="0.811" fill="#fff"/>
              <path id="Trazado_99251" data-name="Trazado 99251" d="M1.7.811a.83.83,0,0,1-.848.811A.83.83,0,0,1,0,.811.83.83,0,0,1,.848,0,.83.83,0,0,1,1.7.811Z" transform="translate(7.631 0)" fill="#fff"/>
              <ellipse id="Elipse_3971" data-name="Elipse 3971" cx="0.848" cy="0.811" rx="0.848" ry="0.811" transform="translate(15.263)" fill="#fff"/>
              <path id="Trazado_99252" data-name="Trazado 99252" d="M1.7.811a.83.83,0,0,1-.848.811A.83.83,0,0,1,0,.811.83.83,0,0,1,.847,0,.83.83,0,0,1,1.7.811Z" transform="translate(22.895 0)" fill="#fff"/>
              <path id="Trazado_99253" data-name="Trazado 99253" d="M1.7.811a.83.83,0,0,1-.848.811A.83.83,0,0,1,0,.811.83.83,0,0,1,.848,0,.83.83,0,0,1,1.7.811Z" transform="translate(30.527 0)" fill="#fff"/>
              <ellipse id="Elipse_3972" data-name="Elipse 3972" cx="0.848" cy="0.811" rx="0.848" ry="0.811" transform="translate(38.158)" fill="#fff"/>
              <path id="Trazado_99254" data-name="Trazado 99254" d="M1.7.811a.831.831,0,0,1-.848.811A.83.83,0,0,1,0,.811.83.83,0,0,1,.848,0,.831.831,0,0,1,1.7.811Z" transform="translate(45.79 0)" fill="#fff"/>
              <ellipse id="Elipse_3973" data-name="Elipse 3973" cx="0.848" cy="0.811" rx="0.848" ry="0.811" transform="translate(53.422)" fill="#fff"/>
              <ellipse id="Elipse_3974" data-name="Elipse 3974" cx="0.848" cy="0.811" rx="0.848" ry="0.811" transform="translate(61.053)" fill="#fff"/>
              <path id="Trazado_99255" data-name="Trazado 99255" d="M1.7.811a.831.831,0,0,1-.848.811A.83.83,0,0,1,0,.811.83.83,0,0,1,.848,0,.83.83,0,0,1,1.7.811Z" transform="translate(68.685 0)" fill="#fff"/>
              <path id="Trazado_99256" data-name="Trazado 99256" d="M1.7.811a.83.83,0,0,1-.849.811A.83.83,0,0,1,0,.811.83.83,0,0,1,.847,0,.83.83,0,0,1,1.7.811Z" transform="translate(76.317 0)" fill="#fff"/>
            </g>
            <g id="Grupo_53313" data-name="Grupo 53313" transform="translate(0 45.412)">
              <path id="Trazado_99257" data-name="Trazado 99257" d="M1.7.81a.83.83,0,0,1-.849.811A.83.83,0,0,1,0,.81.83.83,0,0,1,.848,0,.83.83,0,0,1,1.7.81Z" fill="#fff"/>
              <path id="Trazado_99258" data-name="Trazado 99258" d="M1.7.81a.83.83,0,0,1-.848.811A.83.83,0,0,1,0,.81.83.83,0,0,1,.848,0,.83.83,0,0,1,1.7.81Z" transform="translate(7.631)" fill="#fff"/>
              <path id="Trazado_99259" data-name="Trazado 99259" d="M1.7.81a.83.83,0,0,1-.847.811A.831.831,0,0,1,0,.81.831.831,0,0,1,.849,0,.83.83,0,0,1,1.7.81Z" transform="translate(15.263)" fill="#fff"/>
              <path id="Trazado_99260" data-name="Trazado 99260" d="M1.7.81a.83.83,0,0,1-.848.811A.83.83,0,0,1,0,.81.83.83,0,0,1,.847,0,.83.83,0,0,1,1.7.81Z" transform="translate(22.895)" fill="#fff"/>
              <path id="Trazado_99261" data-name="Trazado 99261" d="M1.7.81a.83.83,0,0,1-.848.811A.83.83,0,0,1,0,.81.83.83,0,0,1,.848,0,.83.83,0,0,1,1.7.81Z" transform="translate(30.526)" fill="#fff"/>
              <path id="Trazado_99262" data-name="Trazado 99262" d="M1.7.81a.83.83,0,0,1-.848.811A.831.831,0,0,1,0,.81.83.83,0,0,1,.848,0,.83.83,0,0,1,1.7.81Z" transform="translate(38.158)" fill="#fff"/>
              <path id="Trazado_99263" data-name="Trazado 99263" d="M1.7.81a.831.831,0,0,1-.848.811A.83.83,0,0,1,0,.81.83.83,0,0,1,.848,0,.83.83,0,0,1,1.7.81Z" transform="translate(45.79)" fill="#fff"/>
              <path id="Trazado_99264" data-name="Trazado 99264" d="M1.7.81a.83.83,0,0,1-.847.811A.83.83,0,0,1,0,.81.83.83,0,0,1,.848,0,.83.83,0,0,1,1.7.81Z" transform="translate(53.422)" fill="#fff"/>
              <path id="Trazado_99265" data-name="Trazado 99265" d="M1.7.81a.83.83,0,0,1-.848.811A.831.831,0,0,1,0,.81.83.83,0,0,1,.849,0,.83.83,0,0,1,1.7.81Z" transform="translate(61.053)" fill="#fff"/>
              <path id="Trazado_99266" data-name="Trazado 99266" d="M1.7.81a.831.831,0,0,1-.848.811A.83.83,0,0,1,0,.81.83.83,0,0,1,.848,0,.83.83,0,0,1,1.7.81Z" transform="translate(68.685)" fill="#fff"/>
              <path id="Trazado_99267" data-name="Trazado 99267" d="M1.7.81a.83.83,0,0,1-.849.811A.83.83,0,0,1,0,.81.83.83,0,0,1,.847,0,.83.83,0,0,1,1.7.81Z" transform="translate(76.317)" fill="#fff"/>
            </g>
            <g id="Grupo_53314" data-name="Grupo 53314" transform="translate(0 51.899)">
              <ellipse id="Elipse_3975" data-name="Elipse 3975" cx="0.848" cy="0.811" rx="0.848" ry="0.811" fill="#fff"/>
              <path id="Trazado_99268" data-name="Trazado 99268" d="M1.7.811a.83.83,0,0,1-.848.811A.831.831,0,0,1,0,.811.83.83,0,0,1,.848,0,.83.83,0,0,1,1.7.811Z" transform="translate(7.631 0)" fill="#fff"/>
              <ellipse id="Elipse_3976" data-name="Elipse 3976" cx="0.848" cy="0.811" rx="0.848" ry="0.811" transform="translate(15.263)" fill="#fff"/>
              <path id="Trazado_99269" data-name="Trazado 99269" d="M1.7.811a.831.831,0,0,1-.848.811A.83.83,0,0,1,0,.811.83.83,0,0,1,.847,0,.83.83,0,0,1,1.7.811Z" transform="translate(22.895 0)" fill="#fff"/>
              <path id="Trazado_99270" data-name="Trazado 99270" d="M1.7.811a.831.831,0,0,1-.848.811A.831.831,0,0,1,0,.811.83.83,0,0,1,.848,0,.83.83,0,0,1,1.7.811Z" transform="translate(30.527 0)" fill="#fff"/>
              <ellipse id="Elipse_3977" data-name="Elipse 3977" cx="0.848" cy="0.811" rx="0.848" ry="0.811" transform="translate(38.158)" fill="#fff"/>
              <path id="Trazado_99271" data-name="Trazado 99271" d="M1.7.811a.831.831,0,0,1-.848.811A.83.83,0,0,1,0,.811.83.83,0,0,1,.848,0,.831.831,0,0,1,1.7.811Z" transform="translate(45.79 0)" fill="#fff"/>
              <ellipse id="Elipse_3978" data-name="Elipse 3978" cx="0.848" cy="0.811" rx="0.848" ry="0.811" transform="translate(53.422)" fill="#fff"/>
              <ellipse id="Elipse_3979" data-name="Elipse 3979" cx="0.848" cy="0.811" rx="0.848" ry="0.811" transform="translate(61.053)" fill="#fff"/>
              <path id="Trazado_99272" data-name="Trazado 99272" d="M1.7.811a.831.831,0,0,1-.848.811A.83.83,0,0,1,0,.811.83.83,0,0,1,.848,0,.83.83,0,0,1,1.7.811Z" transform="translate(68.685 0)" fill="#fff"/>
              <path id="Trazado_99273" data-name="Trazado 99273" d="M1.7.811a.831.831,0,0,1-.849.811A.83.83,0,0,1,0,.811.83.83,0,0,1,.847,0,.83.83,0,0,1,1.7.811Z" transform="translate(76.317 0)" fill="#fff"/>
            </g>
            <g id="Grupo_53315" data-name="Grupo 53315" transform="translate(0 58.386)">
              <path id="Trazado_99274" data-name="Trazado 99274" d="M1.7.811a.831.831,0,0,1-.849.811A.83.83,0,0,1,0,.811.83.83,0,0,1,.848,0,.831.831,0,0,1,1.7.811Z" fill="#fff"/>
              <path id="Trazado_99275" data-name="Trazado 99275" d="M1.7.811a.83.83,0,0,1-.848.811A.831.831,0,0,1,0,.811.831.831,0,0,1,.848,0,.83.83,0,0,1,1.7.811Z" transform="translate(7.631)" fill="#fff"/>
              <path id="Trazado_99276" data-name="Trazado 99276" d="M1.7.811a.83.83,0,0,1-.847.811A.831.831,0,0,1,0,.811.831.831,0,0,1,.849,0,.83.83,0,0,1,1.7.811Z" transform="translate(15.263)" fill="#fff"/>
              <path id="Trazado_99277" data-name="Trazado 99277" d="M1.7.811a.831.831,0,0,1-.848.811A.83.83,0,0,1,0,.811.83.83,0,0,1,.847,0,.831.831,0,0,1,1.7.811Z" transform="translate(22.895)" fill="#fff"/>
              <path id="Trazado_99278" data-name="Trazado 99278" d="M1.7.811a.831.831,0,0,1-.848.811A.831.831,0,0,1,0,.811.831.831,0,0,1,.848,0,.831.831,0,0,1,1.7.811Z" transform="translate(30.526)" fill="#fff"/>
              <path id="Trazado_99279" data-name="Trazado 99279" d="M1.7.811a.83.83,0,0,1-.848.811A.831.831,0,0,1,0,.811.831.831,0,0,1,.848,0,.83.83,0,0,1,1.7.811Z" transform="translate(38.158)" fill="#fff"/>
              <path id="Trazado_99280" data-name="Trazado 99280" d="M1.7.811a.831.831,0,0,1-.848.811A.83.83,0,0,1,0,.811.83.83,0,0,1,.848,0,.831.831,0,0,1,1.7.811Z" transform="translate(45.79)" fill="#fff"/>
              <path id="Trazado_99281" data-name="Trazado 99281" d="M1.7.811a.83.83,0,0,1-.847.811A.831.831,0,0,1,0,.811.831.831,0,0,1,.848,0,.83.83,0,0,1,1.7.811Z" transform="translate(53.422)" fill="#fff"/>
              <path id="Trazado_99282" data-name="Trazado 99282" d="M1.7.811a.83.83,0,0,1-.848.811A.831.831,0,0,1,0,.811.831.831,0,0,1,.849,0,.83.83,0,0,1,1.7.811Z" transform="translate(61.053)" fill="#fff"/>
              <path id="Trazado_99283" data-name="Trazado 99283" d="M1.7.811a.831.831,0,0,1-.848.811A.83.83,0,0,1,0,.811.83.83,0,0,1,.848,0,.831.831,0,0,1,1.7.811Z" transform="translate(68.685)" fill="#fff"/>
              <path id="Trazado_99284" data-name="Trazado 99284" d="M1.7.811a.831.831,0,0,1-.849.811A.83.83,0,0,1,0,.811.83.83,0,0,1,.847,0,.831.831,0,0,1,1.7.811Z" transform="translate(76.317)" fill="#fff"/>
            </g>
            <g id="Grupo_53316" data-name="Grupo 53316" transform="translate(0 64.874)">
              <ellipse id="Elipse_3980" data-name="Elipse 3980" cx="0.848" cy="0.811" rx="0.848" ry="0.811" transform="translate(0 0)" fill="#fff"/>
              <path id="Trazado_99285" data-name="Trazado 99285" d="M1.7.811a.83.83,0,0,1-.848.811A.83.83,0,0,1,0,.811.831.831,0,0,1,.848,0,.83.83,0,0,1,1.7.811Z" transform="translate(7.631)" fill="#fff"/>
              <ellipse id="Elipse_3981" data-name="Elipse 3981" cx="0.848" cy="0.811" rx="0.848" ry="0.811" transform="translate(15.263 0)" fill="#fff"/>
              <path id="Trazado_99286" data-name="Trazado 99286" d="M1.7.811a.83.83,0,0,1-.848.811A.83.83,0,0,1,0,.811.83.83,0,0,1,.847,0,.831.831,0,0,1,1.7.811Z" transform="translate(22.895)" fill="#fff"/>
              <path id="Trazado_99287" data-name="Trazado 99287" d="M1.7.811a.83.83,0,0,1-.848.811A.83.83,0,0,1,0,.811.831.831,0,0,1,.848,0,.831.831,0,0,1,1.7.811Z" transform="translate(30.527)" fill="#fff"/>
              <ellipse id="Elipse_3982" data-name="Elipse 3982" cx="0.848" cy="0.811" rx="0.848" ry="0.811" transform="translate(38.158 0)" fill="#fff"/>
              <path id="Trazado_99288" data-name="Trazado 99288" d="M1.7.811a.831.831,0,0,1-.848.811A.83.83,0,0,1,0,.811.83.83,0,0,1,.848,0,.831.831,0,0,1,1.7.811Z" transform="translate(45.79)" fill="#fff"/>
              <ellipse id="Elipse_3983" data-name="Elipse 3983" cx="0.848" cy="0.811" rx="0.848" ry="0.811" transform="translate(53.422 0)" fill="#fff"/>
              <ellipse id="Elipse_3984" data-name="Elipse 3984" cx="0.848" cy="0.811" rx="0.848" ry="0.811" transform="translate(61.053 0)" fill="#fff"/>
              <path id="Trazado_99289" data-name="Trazado 99289" d="M1.7.811a.831.831,0,0,1-.848.811A.83.83,0,0,1,0,.811.83.83,0,0,1,.848,0,.831.831,0,0,1,1.7.811Z" transform="translate(68.685)" fill="#fff"/>
              <path id="Trazado_99290" data-name="Trazado 99290" d="M1.7.811a.83.83,0,0,1-.849.811A.83.83,0,0,1,0,.811.83.83,0,0,1,.847,0,.831.831,0,0,1,1.7.811Z" transform="translate(76.317)" fill="#fff"/>
            </g>
            <g id="Grupo_53317" data-name="Grupo 53317" transform="translate(0 71.362)">
              <ellipse id="Elipse_3985" data-name="Elipse 3985" cx="0.848" cy="0.811" rx="0.848" ry="0.811" transform="translate(0 0)" fill="#fff"/>
              <path id="Trazado_99291" data-name="Trazado 99291" d="M1.7.811a.83.83,0,0,1-.848.811A.83.83,0,0,1,0,.811.83.83,0,0,1,.848,0,.83.83,0,0,1,1.7.811Z" transform="translate(7.631)" fill="#fff"/>
              <ellipse id="Elipse_3986" data-name="Elipse 3986" cx="0.848" cy="0.811" rx="0.848" ry="0.811" transform="translate(15.263 0)" fill="#fff"/>
              <path id="Trazado_99292" data-name="Trazado 99292" d="M1.7.811a.83.83,0,0,1-.848.811A.83.83,0,0,1,0,.811.83.83,0,0,1,.847,0,.83.83,0,0,1,1.7.811Z" transform="translate(22.895)" fill="#fff"/>
              <path id="Trazado_99293" data-name="Trazado 99293" d="M1.7.811a.83.83,0,0,1-.848.811A.83.83,0,0,1,0,.811.83.83,0,0,1,.848,0,.83.83,0,0,1,1.7.811Z" transform="translate(30.527)" fill="#fff"/>
              <ellipse id="Elipse_3987" data-name="Elipse 3987" cx="0.848" cy="0.811" rx="0.848" ry="0.811" transform="translate(38.158 0)" fill="#fff"/>
              <path id="Trazado_99294" data-name="Trazado 99294" d="M1.7.811a.831.831,0,0,1-.848.811A.83.83,0,0,1,0,.811.83.83,0,0,1,.848,0,.831.831,0,0,1,1.7.811Z" transform="translate(45.79)" fill="#fff"/>
              <ellipse id="Elipse_3988" data-name="Elipse 3988" cx="0.848" cy="0.811" rx="0.848" ry="0.811" transform="translate(53.422 0)" fill="#fff"/>
              <ellipse id="Elipse_3989" data-name="Elipse 3989" cx="0.848" cy="0.811" rx="0.848" ry="0.811" transform="translate(61.053 0)" fill="#fff"/>
              <path id="Trazado_99295" data-name="Trazado 99295" d="M1.7.811a.83.83,0,0,1-.848.811A.83.83,0,0,1,0,.811.83.83,0,0,1,.848,0,.831.831,0,0,1,1.7.811Z" transform="translate(68.685)" fill="#fff"/>
              <path id="Trazado_99296" data-name="Trazado 99296" d="M1.7.811a.83.83,0,0,1-.849.811A.83.83,0,0,1,0,.811.83.83,0,0,1,.847,0,.83.83,0,0,1,1.7.811Z" transform="translate(76.317)" fill="#fff"/>
            </g>
          </g>
        </g>
        <line id="Línea_138" data-name="Línea 138" y2="118.553" transform="translate(13.619 28.536)" fill="none" stroke="#31313c" stroke-linecap="round" stroke-width="4" stroke-dasharray="8"/>
      </g>
    </g>
  </g>
</svg>
