<svg xmlns="http://www.w3.org/2000/svg" xmlns:xlink="http://www.w3.org/1999/xlink" width="190.73" height="190.594" viewBox="0 0 190.73 190.594">
  <defs>
    <clipPath id="clip-path">
      <rect id="Rectángulo_363845" data-name="Rectángulo 363845" width="190.73" height="190.594" fill="none"/>
    </clipPath>
    <linearGradient id="linear-gradient" x1="0.5" x2="0.5" y2="1" gradientUnits="objectBoundingBox">
      <stop offset="0" stop-color="#fff"/>
      <stop offset="0.463" stop-color="#e9fffe"/>
      <stop offset="1" stop-color="#fff"/>
    </linearGradient>
  </defs>
  <g id="Grupo_1030483" data-name="Grupo 1030483" transform="translate(0 573)">
    <g id="Grupo_1030482" data-name="Grupo 1030482" transform="translate(0 -573)" clip-path="url(#clip-path)">
      <path id="Trazado_771369" data-name="Trazado 771369" d="M7.828,210.172H7.06c-3.956-1.678-6.848-4.189-6.9-8.888-.026-2.172.058-4.348-.029-6.517a8.755,8.755,0,0,1,2.668-6.511l.419-.31a3.289,3.289,0,0,1,.734-.584c1.553-.625,2.664-1.425,2.383-3.43-.218-1.556-.055-3.163-.131-4.745-.009-.186-.444-.405-.719-.514a9.97,9.97,0,0,1-2.267-1.607l-.418-.31a7.409,7.409,0,0,1-2.251-3.763,34.6,34.6,0,0,1-.179-11.176c.2-1.916,1.251-4.131,3.109-4.886,2.595-1.053,3.123-2.723,2.828-5.124a5.254,5.254,0,0,1,.009-1.723,2.3,2.3,0,0,0-1.664-2.764c-2.35-.94-3.373-2.927-4.08-5.038-.965-2.885-.324-5.928-.4-8.9-.146-5.565,4.183-9.239,9.3-9.276,4.481-.032,8.964-.077,13.442.031,1.51.036,1.865-.379,1.86-1.87-.054-18.757-.025-37.513-.061-56.27a3.574,3.574,0,0,1,1.158-2.813q15.045-14.964,30-30.02a4,4,0,0,1,3.138-1.321q36.968.066,73.936.032c2.457,0,2.457,0,2.457,2.541q0,24.006.021,48.012c0,.558-.446,1.362.369,1.683,1.729.68,3.079,2.13,4.989,2.424.04.245.083.53.4.517s.337-.3.373-.546c.781-.044,1.416-.109,1.583-1.171a18.721,18.721,0,0,1,1.023-3.086c.436-.248.5-.518.048-.818a9.8,9.8,0,0,0,.414-1.6c.129-1.408.725-1.942,2.246-1.892,3.9.127,7.8.042,11.706.042,3.989,0,4.056-.013,4.818,3.816a30.13,30.13,0,0,0,.784,3.052c.576,1.864,1.663,2.415,3.382,1.479,1.621-.884,3.194-1.858,4.774-2.817a1.772,1.772,0,0,1,2.59.313c3.274,3.417,6.63,6.758,10.033,10.049.839.811.7,1.359.178,2.213-1.031,1.69-1.936,3.457-2.912,5.181-.721,1.273-.167,2.9.7,3.047,2.692.453,5.148,1.657,7.814,2.1v17.292c-2.28-.066-4.247,1.194-6.437,1.523-2.256.339-3.088,2.2-1.875,4.14.955,1.524,1.942,3.028,2.888,4.558a1.2,1.2,0,0,1-.181,1.769c-3.532,3.425-7,6.917-10.451,10.424a1.34,1.34,0,0,1-1.948.28c-1.755-1.035-3.6-1.91-5.379-2.912a2.033,2.033,0,0,0-3.145,1.2c-.577,2.018-1.263,4.007-1.765,6.042-.21.85-.529,1.058-1.368,1.047-3.706-.052-7.414-.013-11.121-.027-1.592-.006-3.7.542-4.637-.257-1.033-.877-.827-3.088-1.469-4.586-.56-1.309-.015-3.422-2.3-3.673l-.4-.311c-1.561.335-2.62,1.654-4.027,2.164-1.625.589-1.74,1.617-1.737,3.042.031,18.044,0,36.089.054,54.133,0,1.392-.267,1.8-1.743,1.791-12.989-.069-25.978-.04-38.967-.04q-9.982,0-19.963.009c-.711,0-1.615-.317-1.961.681-1.092,3.151-3.768,4.37-6.563,5.459H8.981c-.384-.5-.768-.5-1.153,0m65.308-36.544c-.208.06-.384.144-.3.415-.652,1.3-1.269,2.93-2.591,3.368-3,.995-2.488,3.261-2.479,5.443a17.769,17.769,0,0,1-.015,2.111A1.7,1.7,0,0,0,68.994,187a5.984,5.984,0,0,1,2.712,2.162,12.209,12.209,0,0,1,2.162,7.2c.052,1.277.394,1.549,1.61,1.546q26.122-.058,52.244,0c1.278,0,1.559-.359,1.557-1.587q-.06-26.123-.006-52.246a3.908,3.908,0,0,0-1.28-3c-1.786-1.744-3.5-3.561-5.315-5.275a1.419,1.419,0,0,1-.336-2.1c.985-1.585,1.878-3.228,2.781-4.863a2.259,2.259,0,0,0-1.515-3.605,42.534,42.534,0,0,0-5.382-1.4c-1.312-.161-1.287-.752-1.281-1.7.026-4.354.157-8.714-.053-13.058-.1-2.013.55-2.9,2.41-3.288,1.5-.317,2.954-.86,4.44-1.262a2.3,2.3,0,0,0,1.554-3.355c-.948-1.752-1.908-3.5-2.972-5.186a1.306,1.306,0,0,1,.274-1.948c1.8-1.731,3.523-3.538,5.318-5.273a4.084,4.084,0,0,0,1.36-3.162q-.054-22.953.007-45.907c0-1.3-.245-1.708-1.638-1.7q-32.172.073-64.345-.01c-1.568,0-1.71.529-1.7,1.839.052,9.027,0,18.055.059,27.083.01,1.431-.261,1.92-1.831,1.9-9.091-.086-18.183-.014-27.274-.073-1.3-.008-1.706.253-1.7,1.642q.08,26.027-.011,52.054c-.007,1.581.548,1.7,1.846,1.7,8.835-.05,17.67-.032,26.506-.022a47.68,47.68,0,0,1,7.4.351c2.876.451,6.559,3.911,6.943,6.8a28.692,28.692,0,0,1-.394,11.626c-.208.064-.385.149-.3.422-.647,1.3-1.268,2.93-2.59,3.369-3,1-2.495,3.259-2.477,5.446.006.768.046,1.54-.011,2.3a1.461,1.461,0,0,0,1.092,1.713c2.448.9,3.615,2.919,4.325,5.269,1.233,4.076.836,8.152-.04,12.224m104.882-77.58c.1-.688-.332-.931-.636-1.239-.99-1-2.078-1.922-2.965-3.005-1.125-1.374-2.182-1.391-3.529-.338-2.437,1.907-5.006,2.863-7.861.735-.331-.246-.862-.209-1.228-.426-1.361-.807-2.964-1.323-3.054-3.4-.046-1.082-.725-2.121-.928-3.214-.166-.9-.567-1.069-1.39-1.042-1.855.061-3.714.042-5.57.009-.786-.014-1.12.061-1.283,1.067-.595,3.681-2.012,6.8-6.294,7.461a3.137,3.137,0,0,0-1.5.693,1.545,1.545,0,0,1-2.066.036c-1.124-.678-2.333-1.231-3.388-2a1.9,1.9,0,0,0-3.034.389,20.683,20.683,0,0,1-2.988,2.979c-1.08.87-1.029,1.553-.278,2.641,1.716,2.488,3.564,5.047.862,8.056a1.819,1.819,0,0,0-.289,1.046c-.129,2.774-2.222,3.23-4.269,3.772a4.652,4.652,0,0,1-1.079.272c-1.959.017-2.438,1.114-2.162,2.831a7.305,7.305,0,0,1,.009,1.151c0,4.945,0,4.946,4.913,5.73.25.04.542-.063.759.03.609.258,1.145.436,1.329,1.345a13.086,13.086,0,0,0,1.542,4.143,3.3,3.3,0,0,1-.186,4.143c-2.541,3.7-2.457,3.754.739,6.947a28.1,28.1,0,0,1,2.019,2.051c.44.542.819.411,1.261.141,1.111-.679,2.231-1.347,3.314-2.069,1.219-.813,2.414-1.111,3.71-.161a10.57,10.57,0,0,0,4.1,1.68c1.393.295,1.727.911,1.917,2.252.691,4.878.769,4.867,5.7,4.867a8.12,8.12,0,0,1,1.724.02c1.427.318,1.971-.5,2.088-1.651.359-3.563,2-5.606,5.661-6.734,2.338-.72,4.054-1.165,6.107.3.877.627,1.721,1.948,2.768,1.621.981-.307,1.7-1.486,2.512-2.3,3.232-3.224,3.257-3.244.7-7.125-.793-1.2-1.333-2.154-.214-3.589a10.6,10.6,0,0,0,1.654-3.931,2.381,2.381,0,0,1,2.232-2.034c5.158-1.034,5.144-1.105,5.144-6.434a3.887,3.887,0,0,1,.007-.767c.3-1.486-.369-2.129-1.8-2.362-3.01-.489-5.919-1.15-6.292-5.024a3.461,3.461,0,0,0-.792-1.665c-1.28-1.619-.746-2.968.349-4.435a28.1,28.1,0,0,0,1.947-3.464M36.745,204.023q13.722,0,27.445-.005c2.34,0,3.481-1.111,3.57-3.461.055-1.469.012-2.943.01-4.414,0-3.283-1.141-4.415-4.444-4.415q-23.127,0-46.253,0c-2.559,0-5.119-.039-7.677.017-2.226.048-3.068.937-3.1,3.14-.025,1.919-.023,3.838,0,5.758.025,2.619.773,3.374,3.388,3.377q13.531.015,27.061,0m.019-30.74q13.627,0,27.253,0c2.581,0,3.691-1.1,3.748-3.674.031-1.407.008-2.815.005-4.222,0-3.269-1.146-4.4-4.464-4.4q-24.374,0-48.748,0c-1.791,0-3.585-.052-5.373.027-1.989.087-2.849,1-2.88,2.956-.032,1.983-.028,3.966-.01,5.95.024,2.6.779,3.355,3.407,3.358q13.53.014,27.061,0m.027-30.74q13.626,0,27.253,0c2.558,0,3.669-1.116,3.722-3.7.028-1.343.006-2.687.005-4.03,0-3.449-1.1-4.561-4.49-4.562q-26.2,0-52.394,0c-.576,0-1.154-.024-1.727.019A2.7,2.7,0,0,0,6.3,133.257c-.029,1.983-.027,3.967-.007,5.949.025,2.583.787,3.329,3.433,3.332q13.531.014,27.061,0m.222,12.3H57.351c4.282,0,4.2,0,4.314-4.207.044-1.6-.374-1.99-1.976-1.982-14.326.069-28.652.04-42.978.04-4.3,0-4.234,0-4.311,4.4-.025,1.432.337,1.8,1.781,1.786,7.61-.079,15.221-.037,22.832-.037m-.2,30.74h20.53c4.286,0,4.2,0,4.318-4.2.043-1.59-.362-1.995-1.971-1.987-14.326.07-28.652.041-42.977.041-4.3,0-4.239,0-4.314,4.394-.025,1.423.323,1.807,1.775,1.791,7.546-.081,15.093-.038,22.64-.038M55.474,42.622,35.491,62.617c6.238,0,12.6-.007,18.967.01.7,0,1.033-.154,1.03-.945-.024-6.3-.013-12.605-.013-19.059" transform="translate(0 -19.578)"/>
      <path id="Trazado_771370" data-name="Trazado 771370" d="M20.324,494.223c.384-.5.768-.5,1.153,0Z" transform="translate(-12.496 -303.629)" fill="#020202"/>
      <path id="Trazado_771371" data-name="Trazado 771371" d="M122.357,152.677a28.692,28.692,0,0,0,.394-11.626c-.384-2.892-4.067-6.352-6.943-6.8a47.725,47.725,0,0,0-7.4-.352c-8.836-.009-17.671-.027-26.506.023-1.3.007-1.853-.114-1.846-1.7q.109-26.027.011-52.054c0-1.389.4-1.65,1.7-1.642,9.091.059,18.184-.013,27.274.074,1.57.015,1.841-.474,1.831-1.905-.063-9.027-.008-18.055-.059-27.083-.007-1.31.135-1.844,1.7-1.839q32.172.1,64.345.01c1.394,0,1.642.407,1.638,1.7q-.07,22.953-.007,45.907a4.087,4.087,0,0,1-1.36,3.162c-1.795,1.734-3.519,3.541-5.318,5.272a1.306,1.306,0,0,0-.274,1.948c1.065,1.682,2.024,3.434,2.972,5.186a2.3,2.3,0,0,1-1.554,3.355c-1.485.4-2.938.946-4.44,1.262-1.86.393-2.508,1.275-2.41,3.288.21,4.344.079,8.7.053,13.058-.006.944-.031,1.535,1.281,1.7a42.539,42.539,0,0,1,5.383,1.4,2.258,2.258,0,0,1,1.515,3.6c-.9,1.635-1.8,3.278-2.781,4.863a1.42,1.42,0,0,0,.336,2.1c1.814,1.714,3.529,3.531,5.315,5.274a3.909,3.909,0,0,1,1.28,3q-.047,26.123.006,52.246c0,1.228-.278,1.59-1.557,1.587q-26.122-.068-52.244,0c-1.215,0-1.558-.269-1.61-1.546a12.21,12.21,0,0,0-2.162-7.2,5.982,5.982,0,0,0-2.712-2.162,1.694,1.694,0,0,1-1.238-2.028,17.858,17.858,0,0,0,.015-2.111c-.01-2.182-.521-4.449,2.479-5.443,1.322-.438,1.939-2.067,2.591-3.368l.3-.416c.876-4.072,1.272-8.148.039-12.224-.711-2.351-1.877-4.37-4.325-5.269a1.461,1.461,0,0,1-1.092-1.713c.057-.764.017-1.536.011-2.3-.017-2.187-.522-4.45,2.477-5.446,1.321-.439,1.942-2.065,2.59-3.369l.3-.422m6.933,27.33c0,6.659.035,13.318-.031,19.975-.012,1.261.33,1.573,1.577,1.568q19.975-.069,39.95,0c1.26,0,1.572-.329,1.568-1.576q-.07-19.976,0-39.952c0-1.26-.329-1.572-1.576-1.568q-19.975.07-39.95,0c-1.26,0-1.581.328-1.569,1.576.064,6.658.03,13.317.03,19.975M144.66,53.967c-8.707,0-17.414.026-26.121-.03-1.25-.008-1.586.313-1.575,1.57q.094,10.755,0,21.512c-.011,1.259.328,1.572,1.576,1.569q26.121-.064,52.242,0c1.249,0,1.586-.312,1.575-1.57-.063-7.106-.076-14.214.008-21.319.017-1.443-.345-1.781-1.776-1.769-8.642.074-17.286.037-25.929.037M126.411,109.3H90.494c-4.247,0-4.162,0-4.283,4.222-.046,1.607.379,1.97,1.972,1.966q36.781-.086,73.563-.04c4.454,0,4.385,0,4.472-4.415.029-1.443-.344-1.777-1.776-1.77-12.676.062-25.353.036-38.03.036m0-12.3H90.492c-4.244,0-4.159,0-4.281,4.224-.047,1.611.386,1.967,1.974,1.963q36.781-.085,73.563-.04c4.452,0,4.382,0,4.469-4.417.029-1.448-.352-1.774-1.779-1.767-12.677.062-25.353.036-38.03.036m9.021-12.3H102.778c-4.235,0-4.147,0-4.272,4.234-.049,1.628.413,1.957,1.985,1.953q33.707-.086,67.415-.039c4.443,0,4.371,0,4.461-4.426.03-1.467-.381-1.764-1.79-1.757-11.716.061-23.432.035-35.148.035m-24.777,43.037h20.356c4.451,0,4.381,0,4.468-4.416.029-1.446-.349-1.774-1.777-1.768-14.275.059-28.55.036-42.825.036-4.679,0-4.628,0-4.655,4.609-.007,1.26.332,1.579,1.579,1.569,7.617-.059,15.235-.03,22.853-.03m37.075,18.445H133.711c-4.444,0-4.372,0-4.462,4.423-.03,1.459.37,1.77,1.785,1.76,10.176-.067,20.354-.036,30.53-.036,4.673,0,4.62,0,4.647-4.616.007-1.273-.352-1.576-1.587-1.561-5.632.066-11.265.029-16.9.029M144.8,127.745c2.935,0,2.935,0,2.935-3.021,0-3.127,0-3.127-3.213-3.127-2.935,0-2.935,0-2.935,3.021,0,3.127,0,3.127,3.213,3.127m9.083-3.226c0,3.226,0,3.226,3.113,3.226,3.034,0,3.034,0,3.034-3.113,0-3.034,0-3.034-3.113-3.034-3.034,0-3.034,0-3.034,2.922M92.4,87.788c0-3.08,0-3.08-3.068-3.08s-3.08,0-3.08,3.068,0,3.08,3.068,3.08,3.08,0,3.08-3.068" transform="translate(-49.223 -29.373)" fill="#e6e8ed"/>
      <path id="Trazado_771372" data-name="Trazado 771372" d="M374.384,179.481a28.138,28.138,0,0,1-1.947,3.464c-1.1,1.466-1.629,2.815-.349,4.435a3.465,3.465,0,0,1,.792,1.664c.372,3.874,3.281,4.534,6.292,5.024,1.43.232,2.1.876,1.8,2.362a3.917,3.917,0,0,0-.007.767c0,5.329.014,5.4-5.144,6.434a2.381,2.381,0,0,0-2.232,2.034,10.588,10.588,0,0,1-1.654,3.931c-1.119,1.435-.578,2.384.214,3.589,2.553,3.881,2.528,3.9-.7,7.125-.815.813-1.531,1.992-2.512,2.3-1.047.327-1.891-.994-2.768-1.621-2.053-1.468-3.769-1.024-6.107-.3-3.665,1.129-5.3,3.172-5.662,6.734-.116,1.156-.661,1.969-2.088,1.651a8.091,8.091,0,0,0-1.724-.02c-4.926,0-5,.011-5.7-4.868-.19-1.342-.524-1.957-1.917-2.252a10.565,10.565,0,0,1-4.1-1.679c-1.3-.95-2.491-.652-3.71.161-1.083.722-2.2,1.39-3.314,2.069-.443.271-.821.4-1.261-.14a28.015,28.015,0,0,0-2.019-2.052c-3.2-3.194-3.281-3.252-.739-6.947a3.3,3.3,0,0,0,.186-4.143,13.1,13.1,0,0,1-1.543-4.143c-.184-.909-.719-1.086-1.328-1.345-.218-.092-.51.01-.759-.03-4.914-.784-4.913-.785-4.913-5.73a7.311,7.311,0,0,0-.009-1.151c-.277-1.718.2-2.814,2.162-2.831a4.627,4.627,0,0,0,1.079-.273c2.047-.542,4.14-1,4.269-3.771a1.821,1.821,0,0,1,.29-1.046c2.7-3.009.854-5.567-.862-8.055-.751-1.089-.8-1.771.278-2.641a20.72,20.72,0,0,0,2.988-2.979,1.9,1.9,0,0,1,3.034-.389c1.056.767,2.265,1.321,3.388,2a1.545,1.545,0,0,0,2.066-.035,3.137,3.137,0,0,1,1.5-.693c4.282-.658,5.7-3.78,6.294-7.461.163-1.006.5-1.081,1.283-1.067,1.856.033,3.715.052,5.57-.008.822-.027,1.223.144,1.39,1.042.2,1.094.882,2.133.928,3.214.09,2.082,1.693,2.6,3.053,3.4.366.217.9.179,1.228.426,2.855,2.128,5.424,1.171,7.861-.735,1.346-1.053,2.4-1.037,3.529.337.888,1.084,1.976,2,2.965,3.005.3.308.736.55.636,1.239m-42.608,18.774c-.653,9.472,8.552,19.485,19.49,18.506,9.381-.84,17.322-7.858,17.212-18.463-.118-11.347-8.244-18.447-19.167-18.341a17.937,17.937,0,0,0-17.535,18.3" transform="translate(-196.365 -103.01)" fill="#f4a338"/>
      <path id="Trazado_771373" data-name="Trazado 771373" d="M46.773,459.208q-13.53,0-27.061,0c-2.615,0-3.364-.758-3.388-3.378-.018-1.919-.02-3.839,0-5.758.028-2.2.871-3.091,3.1-3.14,2.558-.055,5.117-.017,7.677-.017q23.126,0,46.253,0c3.3,0,4.44,1.132,4.445,4.416,0,1.471.045,2.944-.011,4.414-.089,2.349-1.23,3.457-3.57,3.461q-13.723.02-27.445.005" transform="translate(-10.028 -274.763)" fill="#4adbd1"/>
      <path id="Trazado_771374" data-name="Trazado 771374" d="M46.793,379.394q-13.53,0-27.061,0c-2.628,0-3.383-.755-3.407-3.358-.018-1.983-.022-3.967.009-5.949.031-1.952.891-2.869,2.88-2.957,1.788-.079,3.582-.027,5.373-.027q24.374,0,48.748,0c3.317,0,4.459,1.127,4.464,4.4,0,1.407.026,2.816-.005,4.222-.057,2.577-1.167,3.671-3.748,3.674q-13.627.014-27.253,0" transform="translate(-10.028 -225.69)" fill="#4adbd1"/>
      <path id="Trazado_771375" data-name="Trazado 771375" d="M46.82,299.6q-13.531,0-27.061,0c-2.646,0-3.407-.749-3.433-3.332-.019-1.983-.022-3.967.007-5.949a2.7,2.7,0,0,1,2.855-2.992c.573-.043,1.151-.018,1.727-.018q26.2,0,52.395,0c3.4,0,4.488,1.112,4.49,4.561,0,1.344.023,2.688-.005,4.03-.054,2.584-1.164,3.7-3.722,3.7q-13.627.015-27.253,0" transform="translate(-10.029 -176.637)" fill="#4adbd1"/>
      <path id="Trazado_771376" data-name="Trazado 771376" d="M56.806,341.284c-7.611,0-15.222-.042-22.832.037-1.443.015-1.806-.354-1.781-1.786.077-4.4.01-4.4,4.311-4.4,14.326,0,28.652.029,42.977-.04,1.6-.008,2.02.385,1.976,1.982-.115,4.2-.032,4.206-4.314,4.206Z" transform="translate(-19.793 -206.023)" fill="url(#linear-gradient)"/>
      <path id="Trazado_771377" data-name="Trazado 771377" d="M56.611,421.092c-7.547,0-15.094-.043-22.64.038-1.452.015-1.8-.368-1.775-1.792.075-4.393.01-4.394,4.314-4.394,14.326,0,28.652.029,42.977-.04,1.61-.008,2.014.4,1.971,1.987-.114,4.2-.032,4.2-4.319,4.2H56.611" transform="translate(-19.794 -255.091)" fill="url(#linear-gradient)"/>
      <path id="Trazado_771378" data-name="Trazado 771378" d="M112.124,59.827c0,6.454-.011,12.757.013,19.059,0,.791-.334.947-1.03.945-6.365-.017-12.729-.01-18.967-.01l19.983-19.995" transform="translate(-56.65 -36.783)" fill="#5573c6"/>
      <path id="Trazado_771379" data-name="Trazado 771379" d="M373.2,161.4c-.3-.03-.677.017-.657-.444.021-.481.436-.31.705-.374.448.3.388.57-.049.818" transform="translate(-229.047 -98.73)" fill="#040404"/>
      <path id="Trazado_771380" data-name="Trazado 771380" d="M365.485,173.789l.77-.029c-.036.245-.065.533-.373.546s-.357-.272-.4-.517" transform="translate(-224.708 -106.831)" fill="#020202"/>
      <path id="Trazado_771381" data-name="Trazado 771381" d="M189.36,320.12l-.3.422c-.088-.272.089-.358.3-.422" transform="translate(-116.226 -196.816)" fill="#e3e5ea"/>
      <path id="Trazado_771382" data-name="Trazado 771382" d="M366.833,320.565c-.274.078-.361-.087-.4-.311l.4.311" transform="translate(-225.29 -196.899)" fill="#020202"/>
      <path id="Trazado_771383" data-name="Trazado 771383" d="M189.367,399.944l-.3.416c-.087-.271.088-.355.3-.416" transform="translate(-116.23 -245.894)" fill="#e3e5ea"/>
      <path id="Trazado_771384" data-name="Trazado 771384" d="M7.676,408.372c-.273.076-.362-.094-.418-.31l.418.31" transform="translate(-4.462 -250.885)" fill="#020202"/>
      <path id="Trazado_771385" data-name="Trazado 771385" d="M7.256,437.394c.057-.215.146-.386.419-.31l-.419.31" transform="translate(-4.461 -268.717)" fill="#020202"/>
      <path id="Trazado_771386" data-name="Trazado 771386" d="M174.743,8.084c.728,2.241,2.331,4.329,1.211,6.894,1.793,7.682.07,15.479.921,23.329,1.862-2.732,3.833-5.379,5.509-8.2.68-1.145,1.2-.8,1.885-.38,4.271,2.6,4.267,2.61,1.512,6.713-3.8,5.654-7.626,11.287-11.37,16.976-.718,1.091-1.181,1.249-1.917.13-4.4-6.7-8.778-13.412-13.266-20.052-.7-1.03-.589-1.361.455-1.7a3.7,3.7,0,0,0,.48-.279c1.293-.656,2.475-2.471,3.679-2.03,1.141.418,1.771,2.259,2.6,3.493,1.224,1.827,2.424,3.67,3.634,5.508.76-.395.46-.975.462-1.418.022-6.592.1-13.185-.02-19.775-.065-3.526-.605-7-3.815-9.3l-.421-.29a15.48,15.48,0,0,0-7.588-1.579q-55.208.058-110.415.005c-4.514,0-8.608,2.563-9.731,6.889a5.8,5.8,0,0,0-.142,1.484c-.025,4.928-.067,9.858-.006,14.785.014,1.164-.248,1.493-1.459,1.491-4.718-.006-4.718.045-4.718-4.732,0-3.777.158-7.561-.034-11.328C31.874,8.55,38.14.854,44.936.309c1.826-.146,3.648-.3,5.473-.3q54.823-.023,109.647,0a17.612,17.612,0,0,1,10.811,3.44c.079.207.168.4.451.329l3.05,3.53c.071.284-.065.668.376.772" transform="translate(-19.783 0.001)"/>
      <path id="Trazado_771387" data-name="Trazado 771387" d="M35.183,133.846c-2.888,0-2.888,0-2.888-2.876,0-3.272,0-3.272,3.26-3.272,2.888,0,2.888,0,2.888,2.876,0,3.272,0,3.272-3.26,3.272" transform="translate(-19.856 -78.511)"/>
      <path id="Trazado_771388" data-name="Trazado 771388" d="M38.444,98.95c0,2.973,0,2.973-2.983,2.973-3.165,0-3.165,0-3.165-3.175,0-2.972,0-2.972,2.984-2.972,3.164,0,3.164,0,3.164,3.175" transform="translate(-19.856 -58.884)"/>
      <path id="Trazado_771389" data-name="Trazado 771389" d="M401.7,19.757c-.441-.1-.305-.488-.376-.772.5.072,1.008.145.376.772" transform="translate(-246.745 -11.672)" fill="#fcfcfc"/>
      <path id="Trazado_771390" data-name="Trazado 771390" d="M380.337,20l.421.289c-.277.1-.356-.084-.421-.289" transform="translate(-233.839 -12.295)" fill="#040404"/>
      <path id="Trazado_771391" data-name="Trazado 771391" d="M392.691,9.3c-.284.074-.372-.122-.451-.329l.451.329" transform="translate(-241.157 -5.514)" fill="#fcfcfc"/>
      <path id="Trazado_771392" data-name="Trazado 771392" d="M207.819,356.674c0-6.659.034-13.318-.03-19.975-.012-1.248.309-1.581,1.569-1.576q19.975.072,39.95,0c1.246,0,1.58.309,1.576,1.568q-.072,19.976,0,39.952c0,1.246-.309,1.58-1.568,1.576q-19.975-.072-39.95,0c-1.246,0-1.589-.307-1.577-1.568.066-6.658.031-13.317.031-19.976M229.338,341.3c-4.606,0-9.212.045-13.817-.03-1.254-.021-1.59.326-1.583,1.581q.081,13.818,0,27.636c-.007,1.252.325,1.59,1.58,1.582q13.817-.081,27.635,0c1.253.007,1.59-.325,1.583-1.58q-.081-13.817,0-27.635c.007-1.253-.324-1.6-1.581-1.583-4.6.076-9.211.03-13.817.03" transform="translate(-127.752 -206.04)"/>
      <path id="Trazado_771393" data-name="Trazado 771393" d="M203.564,63.791c8.643,0,17.286.037,25.929-.037,1.431-.012,1.793.327,1.776,1.77-.084,7.105-.071,14.213-.008,21.319.011,1.258-.326,1.573-1.575,1.57q-26.121-.064-52.242,0c-1.248,0-1.587-.31-1.576-1.569q.094-10.755,0-21.512c-.011-1.258.325-1.578,1.575-1.57,8.707.056,17.414.03,26.121.03m.022,18.444c6.649,0,13.3-.034,19.947.03,1.268.012,1.612-.353,1.578-1.6-.086-3.131-.078-6.266,0-9.4.027-1.136-.389-1.355-1.426-1.352q-20.139.045-40.278,0c-1.1,0-1.405.318-1.382,1.4.067,3.131.093,6.267-.009,9.4-.043,1.318.428,1.559,1.625,1.55,6.649-.052,13.3-.025,19.947-.025" transform="translate(-108.127 -39.197)"/>
      <path id="Trazado_771394" data-name="Trazado 771394" d="M136.223,207.448c12.677,0,25.354.026,38.03-.037,1.432-.007,1.8.327,1.776,1.77-.087,4.413-.017,4.415-4.472,4.415q-36.781,0-73.563.04c-1.593,0-2.018-.359-1.972-1.966.121-4.22.036-4.222,4.283-4.222Z" transform="translate(-59.035 -127.521)"/>
      <path id="Trazado_771395" data-name="Trazado 771395" d="M136.221,175.526c12.677,0,25.354.026,38.03-.036,1.427-.007,1.808.319,1.779,1.767-.087,4.416-.017,4.418-4.469,4.418q-36.781,0-73.563.039c-1.588,0-2.021-.352-1.974-1.963.122-4.222.037-4.225,4.281-4.225Z" transform="translate(-59.035 -107.895)"/>
      <path id="Trazado_771396" data-name="Trazado 771396" d="M164.866,143.6c11.716,0,23.432.027,35.148-.035,1.409-.007,1.82.29,1.79,1.757-.091,4.425-.018,4.426-4.461,4.426q-33.708,0-67.416.039c-1.572,0-2.033-.325-1.984-1.953.125-4.231.037-4.234,4.272-4.234Z" transform="translate(-78.66 -88.269)"/>
      <path id="Trazado_771397" data-name="Trazado 771397" d="M120.486,245.521c-7.618,0-15.235-.03-22.853.03-1.248.01-1.586-.31-1.579-1.569.027-4.609-.024-4.609,4.655-4.609,14.275,0,28.55.023,42.825-.036,1.429-.006,1.806.322,1.778,1.768-.087,4.415-.018,4.416-4.469,4.416Z" transform="translate(-59.056 -147.149)"/>
      <path id="Trazado_771398" data-name="Trazado 771398" d="M226.24,303.229c5.632,0,11.265.037,16.9-.029,1.235-.015,1.595.289,1.587,1.562-.027,4.616.025,4.616-4.647,4.616-10.177,0-20.354-.031-30.53.035-1.415.009-1.815-.3-1.785-1.76.089-4.422.017-4.423,4.461-4.423Z" transform="translate(-127.735 -186.413)"/>
      <path id="Trazado_771399" data-name="Trazado 771399" d="M243.005,245.578c-3.213,0-3.213,0-3.213-3.127,0-3.022,0-3.022,2.935-3.022,3.213,0,3.213,0,3.213,3.127,0,3.021,0,3.021-2.935,3.021" transform="translate(-147.429 -147.206)"/>
      <path id="Trazado_771400" data-name="Trazado 771400" d="M271.715,242.352c0-2.922,0-2.922,3.034-2.922,3.113,0,3.113,0,3.113,3.035,0,3.113,0,3.113-3.034,3.113-3.113,0-3.113,0-3.113-3.227" transform="translate(-167.056 -147.206)"/>
      <path id="Trazado_771401" data-name="Trazado 771401" d="M102.289,146.74c0,3.068,0,3.068-3.08,3.068s-3.068,0-3.068-3.08,0-3.068,3.08-3.068,3.068,0,3.068,3.08" transform="translate(-59.109 -88.325)"/>
      <path id="Trazado_771402" data-name="Trazado 771402" d="M351.5,218.063a17.937,17.937,0,0,1,17.535-18.3c10.922-.106,19.048,6.994,19.167,18.341.111,10.605-7.831,17.623-17.212,18.463-10.938.979-20.143-9.034-19.49-18.506m6.14-.037c-.562,6.287,5.721,12.923,12.6,12.423,5.791-.421,11.936-4.816,11.855-12.311-.082-7.527-5.385-12.289-12.813-12.238a11.757,11.757,0,0,0-11.638,12.125" transform="translate(-216.09 -122.818)" fill="#010101"/>
      <path id="Trazado_771403" data-name="Trazado 771403" d="M239.155,351.113c4.606,0,9.212.046,13.817-.03,1.257-.021,1.588.331,1.581,1.583q-.08,13.817,0,27.635c.007,1.256-.33,1.588-1.583,1.58q-13.817-.08-27.635,0c-1.255.007-1.588-.33-1.58-1.582q.08-13.818,0-27.636c-.007-1.255.329-1.6,1.583-1.581,4.6.075,9.211.03,13.817.03" transform="translate(-137.569 -215.852)" fill="#d2e1f1"/>
      <path id="Trazado_771404" data-name="Trazado 771404" d="M213.391,92.071c-6.649,0-13.3-.027-19.947.025-1.2.01-1.667-.231-1.625-1.55.1-3.13.076-6.266.009-9.4-.023-1.081.28-1.4,1.382-1.4q20.139.055,40.278,0c1.036,0,1.452.217,1.426,1.352-.075,3.131-.083,6.266,0,9.4.034,1.243-.31,1.609-1.578,1.6-6.649-.064-13.3-.03-19.947-.03" transform="translate(-117.933 -49.033)" fill="#f0dcc0"/>
    </g>
  </g>
</svg>
