<svg xmlns="http://www.w3.org/2000/svg" xmlns:xlink="http://www.w3.org/1999/xlink" width="401" height="391" viewBox="0 0 401 391">
  <defs>
    <clipPath id="clip-path">
      <rect id="Rectángulo_366415" data-name="Rectángulo 366415" width="370.667" height="314.481" fill="none"/>
    </clipPath>
  </defs>
  <g id="Grupo_1034048" data-name="Grupo 1034048" transform="translate(-953 -2439)">
    <rect id="Rectángulo_364407" data-name="Rectángulo 364407" width="401" height="391" transform="translate(953 2439)" fill="#efeeee"/>
    <g id="Grupo_1033512" data-name="Grupo 1033512" transform="translate(968 2477)">
      <g id="Grupo_1033511" data-name="Grupo 1033511" clip-path="url(#clip-path)">
        <path id="Trazado_781651" data-name="Trazado 781651" d="M19.849,139.669h84.508s36.786-4.33,25.975,23.256c-8.7,22.2-44.746,38.048-77.7,32.618S-9.594,172,2.977,152.238c9.1-14.311,16.872-12.569,16.872-12.569" transform="translate(0 13.695)" fill="#c9c7c7"/>
        <path id="Trazado_781652" data-name="Trazado 781652" d="M234.069,16.428S133.164-25.635,72.6,36.547s119.64,48.969,151.131,29.96c31.885-19.246,22.595-45.8,10.342-50.079" transform="translate(5.917 0.248)" fill="#d6e8ed"/>
        <rect id="Rectángulo_366381" data-name="Rectángulo 366381" width="8.945" height="21.966" transform="translate(76.798 142.768)" fill="#5573c6"/>
        <path id="Trazado_781653" data-name="Trazado 781653" d="M90.051,152.726c.338,0,.41-5.647-4.415-5.647H65.485c-4.359,0-4.767,5.647-4.438,5.647Z" transform="translate(5.988 14.447)" fill="#5573c6"/>
        <path id="Trazado_781654" data-name="Trazado 781654" d="M259.239,61.41c2.592,8.153,2.438,18.222-2.272,21.716,6.4,6.745,12.46,3.32,12.46,3.32a22.98,22.98,0,0,0,1.1-6.81,21.57,21.57,0,0,1-.644,7.371,14.543,14.543,0,0,0,7.549.42c3.591-.974,15.915-2.344,20.154-7.633-2.971-2.283-4.636-10.67-4.636-10.67s3.031,9.969,5.9,9.738c4.717-1.568,7.363-8.936,7.363-8.936s-7.319-1.87-13-18.549c-4.946-14.535-22.484-16.616-31.671-5.237-2.615,3.239-3.654,11.035-2.307,15.271" transform="translate(25.241 3.816)" fill="#373f51"/>
        <path id="Trazado_781655" data-name="Trazado 781655" d="M256.976,83.6l4.353,60.617,3.118,10.945,57.916,2.257-5.422-51.2-4.219-26.9s-12.12-7.655-33.43-6.047a88.535,88.535,0,0,0-16.187,2.8c-7.816,6.284-6.129,7.522-6.129,7.522" transform="translate(25.227 7.176)" fill="#9eccc7"/>
        <path id="Trazado_781656" data-name="Trazado 781656" d="M272.172,74.2s-5.377,28.23-2.235,47.656.7,33.629.7,33.629l-16.4-2.484s10.364-9.689,6.4-22.034c-5.52-17.2-2.842-34.926-5.52-44.488-.076-6.072,9.44-13.1,17.051-12.279" transform="translate(24.973 7.282)" fill="#4adbd1"/>
        <path id="Trazado_781657" data-name="Trazado 781657" d="M297.266,73.719s-5.906,28.378-2.214,49.289,1.077,33.46,1.077,33.46l22.6.881s-2.228-41-4.7-53.76a178.786,178.786,0,0,0-7.839-26.517Z" transform="translate(28.862 7.241)" fill="#4adbd1"/>
        <path id="Trazado_781658" data-name="Trazado 781658" d="M281.517,91.068l-.08-.072c-5.913-5.345-7.543-9.5-7.869-12.052a6.434,6.434,0,0,1,.719-4.32c.679-4.052,5.421-6.411,9.631-6.366,3.207.041,6.832,1.557,7.394,5.7.847,6.231,1.406,10.349-9.7,17.059Zm2.263-22.52c-4.062,0-8.584,2.28-9.21,6.154l-.005.034-.02.027c-.042.058-4.028,5.921,7.006,15.942,10.848-6.576,10.331-10.4,9.473-16.714-.537-3.954-4.025-5.4-7.109-5.443h-.135" transform="translate(26.864 6.705)" fill="#5573c6"/>
        <rect id="Rectángulo_366382" data-name="Rectángulo 366382" width="0.972" height="2.512" transform="translate(308.009 96.907)" fill="#5573c6"/>
        <path id="Trazado_781659" data-name="Trazado 781659" d="M283.6,91.4a2.475,2.475,0,1,1-2.475-2.475A2.475,2.475,0,0,1,283.6,91.4" transform="translate(27.371 8.734)" fill="#5573c6"/>
        <path id="Trazado_781660" data-name="Trazado 781660" d="M186.61,138.02H314.449s45.811-1.418,39.293,24.1S286.054,201.558,236.2,195.931s-94.134-24.4-75.116-44.882c13.772-14.834,25.523-13.028,25.523-13.028" transform="translate(15.38 13.55)" fill="#d6d6d6"/>
        <path id="Trazado_781661" data-name="Trazado 781661" d="M225.948,148.382s4.068-8.81,9.236-8.94c-7.871.269-9.031,5.907-9.031,5.907Z" transform="translate(22.194 13.697)" fill="#ffb27d"/>
        <path id="Trazado_781662" data-name="Trazado 781662" d="M177.563,94.952,123.3,105.439a2.283,2.283,0,0,0-1.573,3.332l24.468,45.018,50.9-20.266L180.523,96.492a2.685,2.685,0,0,0-2.96-1.54" transform="translate(11.929 9.322)" fill="#516275"/>
        <path id="Trazado_781663" data-name="Trazado 781663" d="M143.98,150.337l42.435,12.536a4.276,4.276,0,0,0,3.016-.223l39.523-18.361a1.413,1.413,0,0,0-.138-2.618l-33.932-11.6Z" transform="translate(14.143 12.776)" fill="#516275"/>
        <path id="Trazado_781664" data-name="Trazado 781664" d="M175.942,97.4l-48.719,9.735a1.965,1.965,0,0,0-1.364,2.82l19.825,38.726,47.676-17.89L177.99,98.428a1.863,1.863,0,0,0-2.048-1.028" transform="translate(12.341 9.564)" fill="#f5faff"/>
        <path id="Trazado_781665" data-name="Trazado 781665" d="M175.673,98.011l-48.719,9.735a1.964,1.964,0,0,0-1.364,2.82l19.825,38.726,47.676-17.89-15.37-32.363a1.863,1.863,0,0,0-2.048-1.028" transform="translate(12.315 9.624)" fill="#f5faff"/>
        <path id="Trazado_781666" data-name="Trazado 781666" d="M150.065,149.344l37.078,11.074,37.02-17.576-30.33-10.789Z" transform="translate(14.74 12.971)" fill="#a3acb5"/>
        <path id="Trazado_781667" data-name="Trazado 781667" d="M194.182,133.095q-3.627,1.69-7.292,3.3-3.649,1.6-7.332,3.121-3.7,1.525-7.433,2.969c-2.441.944-4.9,1.848-7.356,2.753a25.906,25.906,0,0,0-6.348,3.084q-.356.257-.694.537c-.187.154.066.4.245.248a21.713,21.713,0,0,1,6.249-3.283c2.414-.906,4.841-1.777,7.249-2.7q3.7-1.422,7.375-2.923,3.687-1.509,7.341-3.1t7.27-3.263l.9-.417c.228-.107.054-.429-.174-.324" transform="translate(15.486 13.071)" fill="#516275"/>
        <path id="Trazado_781668" data-name="Trazado 781668" d="M196.812,134.334l-7.17,3.184-7.136,3.169-14.34,6.369q-1.784.792-3.566,1.588l-1.8.8-.4.179a.684.684,0,0,0-.314.187.268.268,0,0,0,.118.387.216.216,0,0,0,.3-.047.042.042,0,0,0-.047-.064c-.064.025-.06-.026-.087-.058-.008-.01,0-.043,0-.052a1.254,1.254,0,0,1,.181-.074l.267-.118.835-.369q.852-.376,1.7-.751,1.72-.758,3.436-1.521l6.838-3.034,6.838-3.034,6.838-3.033,6.8-3.019.867-.385c.219-.1.054-.4-.164-.306" transform="translate(15.917 13.193)" fill="#516275"/>
        <path id="Trazado_781669" data-name="Trazado 781669" d="M199.216,135.288q-3.285,1.565-6.571,3.126l-6.626,3.145-13.243,6.285c-2.217,1.052-4.44,2.1-6.649,3.167-.273.133-.546.267-.815.407a.121.121,0,1,0,.114.213c1.128-.484,2.229-1.032,3.34-1.556l3.3-1.556q3.331-1.572,6.657-3.153l6.624-3.137q3.3-1.563,6.6-3.127t6.612-3.127l.818-.385c.214-.1.051-.4-.161-.3" transform="translate(16.231 13.287)" fill="#516275"/>
        <path id="Trazado_781670" data-name="Trazado 781670" d="M202.481,135.65l-6.536,3.325q-3.268,1.664-6.537,3.325l-6.537,3.323-6.538,3.322c-2.163,1.1-4.316,2.222-6.49,3.3l-.037.019a.6.6,0,0,0-.836.55c.013.11.143.125.223.091.219-.092.435-.193.65-.293l.005.007c.051.1.225.032.194-.075a.107.107,0,0,0-.009-.02c.8-.379,1.577-.8,2.362-1.195q1.644-.83,3.286-1.667l6.537-3.323,6.537-3.323,6.539-3.321,6.539-3.32.814-.412a.177.177,0,1,0-.167-.313" transform="translate(16.597 13.322)" fill="#516275"/>
        <path id="Trazado_781671" data-name="Trazado 781671" d="M205.782,137.077q-3.051,1.809-6.135,3.562t-6.175,3.417q-3.12,1.685-6.276,3.3-3.138,1.613-6.312,3.157c-2.125,1.036-4.263,2.045-6.406,3.044l-.792.368c-.188.087-.046.346.141.262q3.232-1.458,6.427-3t6.327-3.128q3.163-1.606,6.291-3.278,3.112-1.664,6.188-3.394,3.092-1.738,6.146-3.542l.751-.446c.216-.13.044-.456-.175-.326" transform="translate(17.052 13.461)" fill="#516275"/>
        <path id="Trazado_781672" data-name="Trazado 781672" d="M207.243,146.123c-.128.061-.257.126-.385.189a.053.053,0,0,0,0-.013c-.024-.139-.163-.226-.273-.293-.172-.1-.353-.2-.535-.283a12.739,12.739,0,0,0-2.106-.728,33.931,33.931,0,0,1-4.47-1.471c-.161-.069-.321-.142-.481-.214l.121-.047a.2.2,0,1,0-.189-.355c-.144.056-.287.115-.431.171l-.249-.116c-.194-.091-.388-.182-.579-.278a1.341,1.341,0,0,0-.6-.231c-.088.005-.176.133-.1.194a.862.862,0,0,0,.315.245c.153.093.312.177.47.262.079.043.163.08.243.122q-4.3,1.712-8.455,3.752c-.865.427-1.743.85-2.569,1.351a.133.133,0,0,0-.009.237c-.1-.015-.2-.031-.3-.044a.2.2,0,0,0-.157.32.764.764,0,0,0,.732.22.078.078,0,0,0,.053-.048,19.373,19.373,0,0,1,3.442.959c.67.257,1.313.567,1.961.873a7.783,7.783,0,0,0,1.967.705,7.063,7.063,0,0,0,4.07-.749c1.374-.614,2.7-1.338,4.046-2.015,1.55-.783,3.121-1.534,4.651-2.355a.2.2,0,1,0-.192-.359m-4.07,2.058c-1.337.678-2.663,1.378-4.013,2.027a7.913,7.913,0,0,1-4.015,1.025,6.007,6.007,0,0,1-1.992-.607c-.631-.292-1.253-.6-1.9-.861a18.784,18.784,0,0,0-4.188-1.133.283.283,0,0,0,.038-.01c.79-.347,1.556-.751,2.33-1.13s1.534-.74,2.306-1.1q2.318-1.072,4.676-2.054,1.021-.423,2.053-.825c.074.036.145.076.22.111q.955.448,1.943.821t1.986.657c.638.182,1.284.34,1.918.538a9.983,9.983,0,0,1,1.053.384c.175.077.347.16.515.25.075.041.148.081.222.125l.043.029a.146.146,0,0,0,0,.078c.005.013.014.02.02.031-1.078.535-2.146,1.1-3.219,1.642" transform="translate(18.316 13.993)" fill="#516275"/>
        <path id="Trazado_781673" data-name="Trazado 781673" d="M201.464,149.471c-.558-.329-1.176-.582-1.76-.862l-1.769-.849q-1.7-.812-3.392-1.623a.082.082,0,0,0-.055-.087c-.325-.141-.657-.275-.987-.413-.38-.182-.761-.362-1.145-.532-.157-.085-.324.166-.16.253,1.163.618,2.361,1.177,3.544,1.757l3.553,1.742c.662.324,1.321.7,2.009.962.194.076.347-.241.165-.348" transform="translate(18.872 14.251)" fill="#516275"/>
        <path id="Trazado_781674" data-name="Trazado 781674" d="M237.244,140.012l-20.915,8.743a1.367,1.367,0,0,0,.128,2.57l72.148,21.989a1.372,1.372,0,0,0,1.153-.167l22.234-14.687a1.369,1.369,0,0,0-.462-2.479l-73.467-16.044a1.369,1.369,0,0,0-.819.075" transform="translate(21.166 13.742)" fill="#5573c6"/>
        <path id="Trazado_781675" data-name="Trazado 781675" d="M238.6,141.8l-17.639,7.294a.437.437,0,0,0,.047.824L264.626,162.3a.435.435,0,0,0,.325-.035l18.372-9.814a.437.437,0,0,0-.111-.812l-44.353-9.863a.444.444,0,0,0-.261.023" transform="translate(21.677 13.925)" fill="#a3acb5"/>
        <path id="Trazado_781676" data-name="Trazado 781676" d="M276.63,160.573c0,1.51-2.22,2.733-4.956,2.733s-4.956-1.223-4.956-2.733,2.218-2.733,4.956-2.733,4.956,1.223,4.956,2.733" transform="translate(26.198 15.504)" fill="#373f51"/>
        <path id="Trazado_781677" data-name="Trazado 781677" d="M289.024,163.635c0,1.825-2.7,3.306-6.019,3.306s-6.019-1.48-6.019-3.306,2.7-3.306,6.019-3.306,6.019,1.48,6.019,3.306" transform="translate(27.207 15.748)" fill="#373f51"/>
        <path id="Trazado_781678" data-name="Trazado 781678" d="M281.716,151.661l-7.772,4.37a.366.366,0,0,0,.1.675l19.9,4.638a.362.362,0,0,0,.273-.045l7.465-4.566a.365.365,0,0,0-.11-.668l-19.6-4.442a.37.37,0,0,0-.26.038" transform="translate(26.89 14.892)" fill="#373f51"/>
        <path id="Trazado_781679" data-name="Trazado 781679" d="M232.84,104.5s-10.623,6.117-10.05,14.1c.437,6.086,6.863,30.374,6.863,30.374l11.5.152-.3-29.771Z" transform="translate(21.881 10.264)" fill="#ffc192"/>
        <path id="Trazado_781680" data-name="Trazado 781680" d="M225.494,112.075l18.229,13.262,15.787-12.346s7.618-19.515,5.183-25.489a62.374,62.374,0,0,0-3.87-8.278Z" transform="translate(22.149 7.782)" fill="#4adbd1"/>
        <path id="Trazado_781681" data-name="Trazado 781681" d="M230.205,141.395s-2.656,6.811.955,8.638,12.87,3.333,13.743.549-8.043-2.988-8.043-2.988,8.367,2.107,8.1-1.208-7.751-2.912-7.751-2.912,8.366,2.608,8.216-1.633-9.276-2.506-9.276-2.506,6.606-.137,8.364-2.29-11.937-2.677-14.312,4.351" transform="translate(22.52 13.321)" fill="#ffc192"/>
        <path id="Trazado_781682" data-name="Trazado 781682" d="M247.954,154.266h0a.746.746,0,0,1-.9-.307l-13.323-26.413a.546.546,0,0,1,.368-.754.745.745,0,0,1,.9.307l13.323,26.412a.547.547,0,0,1-.368.756" transform="translate(22.953 12.45)" fill="#1c1614"/>
        <path id="Trazado_781683" data-name="Trazado 781683" d="M245.527,141.669v-.022c-.041-.952-.78-2.6-3.3-2.809l-8.792-.54c-.242.393-4.494,2.147-4.649,2.6,0,0-1.139,7.137,2.472,8.963s12.87,3.333,13.743.55c.371-1.185-1.031-1.9-2.764-2.336,1.608-.06,2.932-.511,2.825-1.86a2.718,2.718,0,0,0-2-2.177c1.412-.176,2.516-.806,2.46-2.37" transform="translate(22.456 13.584)" fill="#ffc192"/>
        <path id="Trazado_781684" data-name="Trazado 781684" d="M315.075,122.159l12.288,25.926,4.891-2.252a11.265,11.265,0,0,0,6.025-13.643l-5.019-15.8Z" transform="translate(30.948 11.433)" fill="#ffc192"/>
        <path id="Trazado_781685" data-name="Trazado 781685" d="M308.073,111.534s8.5,20.438,11.4,23.045c12.01-4.909,18.866-6.41,18.866-6.41S325.679,79.406,303.85,76.447c-7.662,15.611,4.223,35.087,4.223,35.087" transform="translate(29.593 7.509)" fill="#4adbd1"/>
        <path id="Trazado_781686" data-name="Trazado 781686" d="M289.138,151.76l52.375-19.9s4.784,15.571-5.975,21.177c-17.126,4.168-39.925,8.655-39.925,8.655s-16.241.493-6.475-9.937" transform="translate(28.094 12.953)" fill="#ffc192"/>
        <path id="Trazado_781687" data-name="Trazado 781687" d="M290.813,149.5c-4.039-.76-13.278-2.037-15.689,1.614,1.99,3.018,7.59,1.319,8.192,2.7s-7.969,1.287-16.4,5.006c-3.256,3.988,11.125.5,11.125.5s-10.809,1.352-11.6,3.792,13.417-.856,13.417-.856-11.687,1.743-10.665,4.652,13.627-1.362,13.627-1.362-6.769,2.385-6.413,4.548,18.027-7.838,32.157-11.883c1.93-10.689-8.344-11.516-8.344-11.516l-5.584,2.4a6.578,6.578,0,0,1-3.816.417" transform="translate(26.168 14.408)" fill="#ffc192"/>
        <path id="Trazado_781688" data-name="Trazado 781688" d="M251.936,152.931h0a.42.42,0,0,1-.281-.522l1.465-4.888a.419.419,0,0,1,.8.241l-1.465,4.888a.42.42,0,0,1-.522.281" transform="translate(24.717 14.461)" fill="#4adbd1"/>
        <rect id="Rectángulo_366383" data-name="Rectángulo 366383" width="36.202" height="3.591" transform="translate(265.255 199.165) rotate(-73.316)" fill="#4adbd1"/>
        <rect id="Rectángulo_366384" data-name="Rectángulo 366384" width="36.203" height="1.148" transform="translate(266.5 199.538) rotate(-73.333)" fill="#67b2ab"/>
        <path id="Trazado_781689" data-name="Trazado 781689" d="M253.845,148.207a1.259,1.259,0,0,1-.818-.26L251,149.953l3.44,1.031Z" transform="translate(24.654 14.532)" fill="#e7dbcd"/>
        <path id="Trazado_781690" data-name="Trazado 781690" d="M253.683,150.2l-1.72-.515-.968.1.753.616,1.72.515.968-.1Z" transform="translate(24.654 14.703)" fill="#e7dbcd"/>
        <path id="Trazado_781691" data-name="Trazado 781691" d="M234.657,152.033h0a.42.42,0,0,1-.477-.353l-.754-5.046a.419.419,0,1,1,.828-.124l.756,5.046a.419.419,0,0,1-.353.477" transform="translate(22.928 14.356)" fill="#5573c6"/>
        <rect id="Rectángulo_366385" data-name="Rectángulo 366385" width="3.591" height="36.203" transform="matrix(0.989, -0.148, 0.148, 0.989, 255.439, 164.187)" fill="#5573c6"/>
        <rect id="Rectángulo_366386" data-name="Rectángulo 366386" width="1.148" height="36.203" transform="translate(256.715 163.996) rotate(-8.526)" fill="#5573c6"/>
        <path id="Trazado_781692" data-name="Trazado 781692" d="M234.428,146.958a1.26,1.26,0,0,1-.85.113l-.985,2.681,3.552-.532Z" transform="translate(22.847 14.435)" fill="#e7dbcd"/>
        <path id="Trazado_781693" data-name="Trazado 781693" d="M235.2,148.8l-1.776.266-.832.5.942.236,1.777-.266.832-.5Z" transform="translate(22.847 14.616)" fill="#e7dbcd"/>
        <path id="Trazado_781694" data-name="Trazado 781694" d="M228.316,153.662h0a.419.419,0,0,1-.536-.254l-1.718-4.8a.419.419,0,0,1,.79-.282l1.718,4.8a.42.42,0,0,1-.254.536" transform="translate(22.203 14.542)" fill="#f4a338"/>
        <rect id="Rectángulo_366387" data-name="Rectángulo 366387" width="3.592" height="36.203" transform="matrix(0.942, -0.337, 0.337, 0.942, 247.986, 166.459)" fill="#f4a338"/>
        <rect id="Rectángulo_366388" data-name="Rectángulo 366388" width="1.148" height="36.203" transform="translate(249.208 166.021) rotate(-19.665)" fill="#373f51"/>
        <path id="Trazado_781695" data-name="Trazado 781695" d="M227.067,148.751a1.225,1.225,0,0,1-.365.2,1.21,1.21,0,0,1-.448.072l-.447,2.82,3.381-1.209Z" transform="translate(22.18 14.611)" fill="#e7dbcd"/>
        <path id="Trazado_781696" data-name="Trazado 781696" d="M228.218,150.424l-1.691.6-.719.655.971.048,1.691-.6.719-.653Z" transform="translate(22.18 14.776)" fill="#e7dbcd"/>
        <path id="Trazado_781697" data-name="Trazado 781697" d="M253.732,162.717l-2.187,18.765a3.783,3.783,0,0,1-3.757,3.345H235.91a4.156,4.156,0,0,1-4.129-3.676L229.692,163.2l-.056-.479Z" transform="translate(22.556 15.983)" fill="#7f7f7f"/>
        <path id="Trazado_781698" data-name="Trazado 781698" d="M251.54,181.439h0a3.782,3.782,0,0,1-3.757,3.346h-11.9a4.129,4.129,0,0,1-4.1-3.653l-2.092-17.979,4.822,9.6a14.993,14.993,0,0,0,11.975,8.2Z" transform="translate(22.561 16.026)" fill="#919191"/>
        <rect id="Rectángulo_366389" data-name="Rectángulo 366389" width="24.096" height="1.687" transform="translate(252.191 178.707)" fill="#c1bfbf"/>
        <path id="Trazado_781699" data-name="Trazado 781699" d="M329.237,138.323H245.469a.275.275,0,1,1,0-.549h83.768a.275.275,0,1,1,0,.549" transform="translate(24.084 13.533)" fill="#252c3a"/>
        <path id="Trazado_781700" data-name="Trazado 781700" d="M315.339,140.852a.274.274,0,0,1-.273-.259L313.388,111.5a.274.274,0,0,1,.548-.032l1.677,29.093a.274.274,0,0,1-.258.29h-.016" transform="translate(30.783 10.924)" fill="#252c3a"/>
        <path id="Trazado_781701" data-name="Trazado 781701" d="M318.194,130.253a.275.275,0,0,1-.234-.131l-3.668-5.988a.274.274,0,1,1,.468-.287l3.554,5.8,18.658-6.34a.274.274,0,1,1,.177.519l-18.866,6.411a.267.267,0,0,1-.088.014" transform="translate(30.867 12.11)" fill="#252c3a"/>
        <path id="Trazado_781702" data-name="Trazado 781702" d="M263.71,64.179A.241.241,0,0,0,264,64.14a.227.227,0,0,0,0-.325A17.221,17.221,0,0,1,258.681,50.3a.222.222,0,0,0-.2-.249.244.244,0,0,0-.261.209,17.714,17.714,0,0,0,5.457,13.889.241.241,0,0,0,.037.029" transform="translate(25.359 4.916)" fill="#63553e"/>
        <path id="Trazado_781703" data-name="Trazado 781703" d="M289.261,46.812s7.364,21.008-2.5,22.756c-1.433.254-2.354,2.988-3.763,3.353-6.612,1.714-11.324-7.087-10.708-16.432.693-10.514,11.653-19.909,16.966-9.678" transform="translate(26.741 4.165)" fill="#373f51"/>
        <path id="Trazado_781704" data-name="Trazado 781704" d="M283.817,64.175S273.424,72.739,261,59.294a10.9,10.9,0,0,1-2.572-5.031c-2.031-9.269,5.944-15.23,18.332-13.585,11.875,1.577,18.5,16.91,7.062,23.5" transform="translate(25.353 3.969)" fill="#373f51"/>
        <path id="Trazado_781705" data-name="Trazado 781705" d="M282.583,86.034,282.83,86a8,8,0,0,0,6.693-9.125l-2.847-18.5-16.065,2.471,2.847,18.5a8,8,0,0,0,9.125,6.691" transform="translate(26.581 5.734)" fill="#ffab6d"/>
        <path id="Trazado_781706" data-name="Trazado 781706" d="M274.563,73.814c5.817-.9,8.942-6.78,8.976-6.846a.221.221,0,0,0-.1-.3.239.239,0,0,0-.313.1c-.036.07-3.753,7.06-10.565,6.695a.234.234,0,0,0-.247.213.226.226,0,0,0,.216.237,9.872,9.872,0,0,0,2.034-.1" transform="translate(26.748 6.546)" fill="#1b2230"/>
        <path id="Trazado_781707" data-name="Trazado 781707" d="M288.115,57.584S286.039,74.7,274.583,75.817s-15.188-20.789-14.076-25.65,12.728-12.214,22.683-5.215c5.671,3.987,4.926,12.633,4.926,12.633" transform="translate(25.57 4.133)" fill="#ffab6d"/>
        <path id="Trazado_781708" data-name="Trazado 781708" d="M259.072,54.151c1.5,1.065,3.524-1.024,5.356-3.443s2.78-4.251,1.278-5.317-4.2.032-6.036,2.45-2.1,5.244-.6,6.309" transform="translate(25.352 4.419)" fill="#373f51"/>
        <path id="Trazado_781709" data-name="Trazado 781709" d="M260.487,55.961c2.584-4.86,5.66-1.193,8.825-5.373s4.348-8.551,2.639-9.763-5.66,1.193-8.825,5.373-4.348,8.551-2.639,9.763" transform="translate(25.51 3.979)" fill="#373f51"/>
        <path id="Trazado_781710" data-name="Trazado 781710" d="M286.723,60.413a8.706,8.706,0,0,1-4.163-7.577,2.223,2.223,0,0,1,.5-1.383c1.523-1.805,4.928.1,6.913,3.194,2.233,3.48.657,8.013-3.254,5.766" transform="translate(27.754 4.985)" fill="#373f51"/>
        <path id="Trazado_781711" data-name="Trazado 781711" d="M286.253,56.533s-14.583,3.332-20.934-1.9a7.362,7.362,0,0,1-2.4-3.132c-2.156-6.089,6.163-12.936,15.069-13.114,10.018-.2,17.536,12.311,8.27,18.143" transform="translate(25.791 3.771)" fill="#373f51"/>
        <path id="Trazado_781712" data-name="Trazado 781712" d="M282.138,55.952c1.125-1,3.955-3.089,5.267-.505,1.43,2.817-2.9,4.889-4.29,5.467Z" transform="translate(27.713 5.324)" fill="#ffab6d"/>
        <path id="Trazado_781713" data-name="Trazado 781713" d="M283.213,57.41a.234.234,0,0,0,.189-.161,2.112,2.112,0,0,1,2.491-1.5.235.235,0,0,0,.277-.174.224.224,0,0,0-.176-.268,2.617,2.617,0,0,0-3.038,1.818.222.222,0,0,0,.158.278.233.233,0,0,0,.1.005" transform="translate(27.793 5.429)" fill="#1b2230"/>
        <path id="Trazado_781714" data-name="Trazado 781714" d="M267.267,65.515c-.652.1-2.425.25-2.738-1.008-.284-1.141.8-1.811,1.5-2.044l.249-3.477a.183.183,0,0,1,.194-.167.177.177,0,0,1,.169.188l-.258,3.6a.181.181,0,0,1-.134.16c-.068.019-1.665.473-1.371,1.655s2.523.711,2.546.706a.178.178,0,0,1,.216.133.18.18,0,0,1-.139.212c-.019,0-.105.022-.238.043" transform="translate(25.979 5.777)" fill="#373f51"/>
        <path id="Trazado_781715" data-name="Trazado 781715" d="M264.281,59.35c.609,1.015-1.044,1.96-1.654.946s1.026-1.991,1.654-.946" transform="translate(25.784 5.786)" fill="#373f51"/>
        <path id="Trazado_781716" data-name="Trazado 781716" d="M270.526,57.818c.61,1.015-1.044,1.96-1.654.946s1.026-1.991,1.654-.946" transform="translate(26.397 5.635)" fill="#373f51"/>
        <path id="Trazado_781717" data-name="Trazado 781717" d="M272.264,60.956a1.093,1.093,0,1,0,.919-1.214,1.077,1.077,0,0,0-.919,1.214" transform="translate(26.742 5.867)" fill="#1b2230"/>
        <path id="Trazado_781718" data-name="Trazado 781718" d="M268.743,67.18a.419.419,0,1,1-.127-.827,2.5,2.5,0,0,0,2.126-2.807.432.432,0,0,1,.853-.131,3.344,3.344,0,0,1-2.852,3.765" transform="translate(26.349 6.194)" fill="#63553e"/>
        <path id="Trazado_781719" data-name="Trazado 781719" d="M260.655,60.42s5.4-3.008,17.856-3.957c-3.141-11.491-21.395-12.552-17.856,3.957" transform="translate(25.558 4.706)" fill="#373f51"/>
        <path id="Trazado_781720" data-name="Trazado 781720" d="M286.194,64.7a.24.24,0,0,0,.3-.009.228.228,0,0,0,.036-.324,17.188,17.188,0,0,1-3.862-13.985.221.221,0,0,0-.176-.269.245.245,0,0,0-.282.181,17.669,17.669,0,0,0,3.955,14.372.241.241,0,0,0,.034.033" transform="translate(27.695 4.922)" fill="#373f51"/>
        <path id="Trazado_781721" data-name="Trazado 781721" d="M284.575,63.634a.239.239,0,0,0,.3-.009.228.228,0,0,0,.036-.324,17.189,17.189,0,0,1-3.862-13.986.22.22,0,0,0-.176-.268.245.245,0,0,0-.282.181A17.669,17.669,0,0,0,284.541,63.6a.241.241,0,0,0,.034.033" transform="translate(27.536 4.817)" fill="#373f51"/>
        <path id="Trazado_781722" data-name="Trazado 781722" d="M284.907,34.941a7.4,7.4,0,1,1-8.4-5.963,7.288,7.288,0,0,1,8.4,5.963" transform="translate(26.541 2.838)" fill="#373f51"/>
        <path id="Trazado_781723" data-name="Trazado 781723" d="M134.344,125.484l10.687,20.875,35.226-13.218s-8.874-10.978-22.05,1.12c2.413-12.8-23.862-8.777-23.862-8.777" transform="translate(13.196 12.267)" fill="#f4a338"/>
        <path id="Trazado_781724" data-name="Trazado 781724" d="M153.83,102.071s-3.676,10.076,9.166,9.494c-5.207,6.078,1.82,13.845,6.182,8.549,1.88-2.283-.232-9.293-.232-9.293s7.671,6.715,12.1,2.257c.679-6.688-7.605-6.213-7.605-6.213s.747-5.637-.441-8.624c-2.214.414-2.993.574-7.278,1.454a5.487,5.487,0,0,0-.791,4.477s-1.5-3.489-4.253-3.469Z" transform="translate(15.062 9.65)" fill="#4adbd1"/>
        <path id="Trazado_781725" data-name="Trazado 781725" d="M131.382,120.5s15.352,6.28,19,0-16.974-7.138-16.974-7.138,19.255,4.373,22.627-1.466-17.255-5.444-17.255-5.444,12.681.909,13.968-4.04l-25.242,5.044a1.975,1.975,0,0,0-1.411,2.854Z" transform="translate(12.364 10.06)" fill="#5573c6"/>
        <path id="Trazado_781726" data-name="Trazado 781726" d="M181.059,88.991a.549.549,0,0,1-.549-.549V86.794a.549.549,0,0,1,1.1,0v1.647a.549.549,0,0,1-.549.549" transform="translate(17.731 8.471)" fill="#5573c6"/>
        <path id="Trazado_781727" data-name="Trazado 781727" d="M181.059,86.323a.549.549,0,0,1-.549-.549V82.189a.549.549,0,0,1,1.1,0v3.585a.549.549,0,0,1-.549.549m0-7.169a.549.549,0,0,1-.549-.549V75.019a.549.549,0,0,1,1.1,0V78.6a.549.549,0,0,1-.549.549m0-7.17a.549.549,0,0,1-.549-.549V67.849a.549.549,0,0,1,1.1,0v3.585a.549.549,0,0,1-.549.549m0-7.169a.549.549,0,0,1-.549-.549V60.68a.549.549,0,0,1,1.1,0v3.585a.549.549,0,0,1-.549.549" transform="translate(17.731 5.906)" fill="#5573c6"/>
        <path id="Trazado_781728" data-name="Trazado 781728" d="M181.059,58.113a.549.549,0,0,1-.549-.549V55.916a.549.549,0,0,1,1.1,0v1.647a.549.549,0,0,1-.549.549" transform="translate(17.731 5.438)" fill="#5573c6"/>
        <path id="Trazado_781729" data-name="Trazado 781729" d="M83,95.819a.549.549,0,0,1-.549-.549V92.744a.549.549,0,1,1,1.1,0V95.27a.549.549,0,0,1-.549.549M83,90a.549.549,0,0,1-.549-.549V86.154a.549.549,0,0,1,1.1,0v3.295A.549.549,0,0,1,83,90m0-6.589a.549.549,0,0,1-.549-.549V79.565a.549.549,0,0,1,1.1,0V82.86a.549.549,0,0,1-.549.549m0-6.589a.549.549,0,0,1-.549-.549V72.976a.549.549,0,0,1,1.1,0V76.27a.549.549,0,0,1-.549.549m0-6.589a.549.549,0,0,1-.549-.549V66.386a.549.549,0,1,1,1.1,0v3.295A.549.549,0,0,1,83,70.23m0-6.589a.549.549,0,0,1-.549-.549V59.8a.549.549,0,1,1,1.1,0v3.295a.549.549,0,0,1-.549.549m0-6.589a.549.549,0,0,1-.549-.549V53.207a.549.549,0,0,1,1.1,0V56.5a.549.549,0,0,1-.549.549m0-6.589a.549.549,0,0,1-.549-.549V46.618a.549.549,0,0,1,1.1,0v3.295a.549.549,0,0,1-.549.549m0-6.589a.549.549,0,0,1-.549-.549V40.029a.549.549,0,0,1,1.1,0v3.295a.549.549,0,0,1-.549.549m0-6.589a.549.549,0,0,1-.549-.549V33.439a.549.549,0,1,1,1.1,0v3.295a.549.549,0,0,1-.549.549m0-6.589a.549.549,0,0,1-.549-.549V26.85a.549.549,0,1,1,1.1,0v3.295a.549.549,0,0,1-.549.549M83,24.1a.549.549,0,0,1-.549-.549V20.261a.549.549,0,1,1,1.1,0v3.295A.549.549,0,0,1,83,24.1M159.1,17.829H155.8a.549.549,0,0,1,0-1.1H159.1a.549.549,0,1,1,0,1.1m-6.589,0h-3.295a.549.549,0,1,1,0-1.1h3.295a.549.549,0,1,1,0,1.1m-6.589,0h-3.295a.549.549,0,1,1,0-1.1h3.295a.549.549,0,0,1,0,1.1m-6.589,0h-3.295a.549.549,0,1,1,0-1.1h3.295a.549.549,0,0,1,0,1.1m-6.589,0h-3.295a.549.549,0,0,1,0-1.1h3.295a.549.549,0,1,1,0,1.1m-6.589,0h-3.295a.549.549,0,0,1,0-1.1h3.295a.549.549,0,1,1,0,1.1m-6.589,0h-3.295a.549.549,0,0,1,0-1.1h3.295a.549.549,0,0,1,0,1.1m-6.589,0h-3.295a.549.549,0,0,1,0-1.1h3.295a.549.549,0,1,1,0,1.1m-6.589,0h-3.295a.549.549,0,1,1,0-1.1h3.295a.549.549,0,0,1,0,1.1m-6.589,0H96.5a.549.549,0,0,1,0-1.1h3.295a.549.549,0,0,1,0,1.1m-6.589,0H89.909a.549.549,0,0,1,0-1.1H93.2a.549.549,0,0,1,0,1.1m-6.589,0H83.319a.549.549,0,0,1,0-1.1h3.295a.549.549,0,1,1,0,1.1" transform="translate(8.099 1.643)" fill="#f4a338"/>
        <path id="Trazado_781730" data-name="Trazado 781730" d="M181.567,64.679l-4.811,8.333h9.623Z" transform="translate(17.362 6.353)" fill="#5573c6"/>
        <path id="Trazado_781731" data-name="Trazado 781731" d="M83.385,73.048,88.2,64.714H78.574Z" transform="translate(7.718 6.357)" fill="#f4a338"/>
        <rect id="Rectángulo_366390" data-name="Rectángulo 366390" width="21.698" height="16.148" transform="translate(113.263 11.323)" fill="#fff"/>
        <rect id="Rectángulo_366391" data-name="Rectángulo 366391" width="18.866" height="13.366" transform="translate(114.748 12.675)" fill="#fff1d7"/>
        <path id="Trazado_781732" data-name="Trazado 781732" d="M104.485,15.01c7.449.574,12.366,4.818,15.565,9.557H104.485Z" transform="translate(10.263 1.474)" fill="#5573c6"/>
        <path id="Trazado_781733" data-name="Trazado 781733" d="M122.039,12.783v7.894c-1.977.127-3.866-.316-4.161-2.366a1.773,1.773,0,0,1,1.564-2.128,2.432,2.432,0,0,1-.98-2.355c.219-1.83,1.77-1.781,3.577-1.046" transform="translate(11.576 1.209)" fill="#5573c6"/>
        <path id="Trazado_781734" data-name="Trazado 781734" d="M107.8,11.541h8.06c.063,1.752-.446,3.366-2.35,3.81-3.421.8-5.075-2.18-5.71-3.81" transform="translate(10.589 1.134)" fill="#f4a338"/>
        <rect id="Rectángulo_366392" data-name="Rectángulo 366392" width="21.698" height="16.148" transform="translate(80.254 39.141)" fill="#fff"/>
        <rect id="Rectángulo_366393" data-name="Rectángulo 366393" width="18.866" height="13.367" transform="translate(81.74 40.494)" fill="#fff1d7"/>
        <path id="Trazado_781735" data-name="Trazado 781735" d="M91.983,38.113v7.894c-1.977.127-3.866-.316-4.161-2.366a1.773,1.773,0,0,1,1.563-2.128,2.434,2.434,0,0,1-.979-2.355c.219-1.83,1.77-1.781,3.577-1.046" transform="translate(8.624 3.697)" fill="#5573c6"/>
        <path id="Trazado_781736" data-name="Trazado 781736" d="M77.747,36.872h8.06c.063,1.753-.447,3.366-2.35,3.81-3.421.8-5.075-2.18-5.71-3.81" transform="translate(7.637 3.622)" fill="#f4a338"/>
        <path id="Trazado_781737" data-name="Trazado 781737" d="M75.864,45.842c.138-1.665,1.214-2.934,2.4-2.836s2.042,1.528,1.9,3.193-1.215,2.934-2.4,2.837-2.042-1.529-1.9-3.194" transform="translate(7.45 4.224)" fill="#5573c6"/>
        <path id="Trazado_781738" data-name="Trazado 781738" d="M75.86,44.22c-.186-1.661.625-3.113,1.811-3.246s2.3,1.106,2.483,2.766-.625,3.113-1.811,3.245-2.3-1.1-2.483-2.765" transform="translate(7.449 4.024)" fill="#5573c6"/>
        <path id="Trazado_781739" data-name="Trazado 781739" d="M78.088,47.338c-2.042-.6-3.443-1.947-3.132-3.006s2.221-1.428,4.262-.826,3.443,1.947,3.131,3.006-2.22,1.428-4.261.826" transform="translate(7.358 4.245)" fill="#5573c6"/>
        <path id="Trazado_781740" data-name="Trazado 781740" d="M77.015,44.291a1.35,1.35,0,1,1,.059,1.909,1.35,1.35,0,0,1-.059-1.909" transform="translate(7.529 4.309)" fill="#f4a338"/>
        <path id="Trazado_781741" data-name="Trazado 781741" d="M84.9,45.713a1.927,1.927,0,0,1-.892-2.5,2.28,2.28,0,1,1,.892,2.5" transform="translate(8.232 4.193)" fill="#f4a338"/>
        <path id="Trazado_781742" data-name="Trazado 781742" d="M83.91,45.127c-1.091-.478-1.7-1.5-1.357-2.277a1.93,1.93,0,0,1,2.594-.545c1.091.478,1.7,1.5,1.357,2.277a1.93,1.93,0,0,1-2.594.545" transform="translate(8.099 4.132)" fill="#f4a338"/>
        <path id="Trazado_781743" data-name="Trazado 781743" d="M86.637,45.022c-1.1,1.046-2.431,1.43-2.973.86s-.089-1.88,1.011-2.925,2.431-1.43,2.973-.86.089,1.88-1.011,2.925" transform="translate(8.196 4.109)" fill="#f4a338"/>
        <path id="Trazado_781744" data-name="Trazado 781744" d="M84.386,44.386a.963.963,0,1,1,1.2.645.963.963,0,0,1-1.2-.645" transform="translate(8.285 4.238)" fill="#5573c6"/>
        <path id="Trazado_781745" data-name="Trazado 781745" d="M244.725,44.7A15.768,15.768,0,0,0,230.7,29.438,33.3,33.3,0,0,0,178.246,6.764a28.518,28.518,0,0,0-35.68,16.751c-.021,0-.042,0-.064,0A19.151,19.151,0,0,0,122.89,42.657c0,.174,0,.347.007.519a14.034,14.034,0,0,0,14.091,13.54h95.934a11.75,11.75,0,0,0,11.806-11.569c0-.148,0-.3,0-.446" transform="translate(12.071 0.049)" fill="#fff"/>
        <path id="Trazado_781746" data-name="Trazado 781746" d="M232.97,57.314H137.037a14.679,14.679,0,0,1-10.188-4.084A14.273,14.273,0,0,1,122.4,43.24c0-.178-.008-.356-.008-.534a19.7,19.7,0,0,1,19.855-19.7,29.142,29.142,0,0,1,27.8-18.215A28.824,28.824,0,0,1,178.2,6.2,33.579,33.579,0,0,1,197.732,0h.232a33.732,33.732,0,0,1,33.271,28.992A16.288,16.288,0,0,1,245.322,44.74c0,.154,0,.308,0,.46A12.307,12.307,0,0,1,232.97,57.314M142.094,24.1a18.6,18.6,0,0,0-18.607,18.6c0,.168,0,.337.008.505a13.547,13.547,0,0,0,13.542,13H232.97a11.206,11.206,0,0,0,11.258-11.023c0-.143,0-.287,0-.431a15.186,15.186,0,0,0-13.536-14.729.548.548,0,0,1-.485-.476,32.751,32.751,0,0,0-51.587-22.3.545.545,0,0,1-.5.075,27.71,27.71,0,0,0-8.108-1.443,28.049,28.049,0,0,0-26.885,17.873.542.542,0,0,1-.526.35l-.051,0c-.152,0-.3-.005-.456-.005" transform="translate(12.022)" fill="#5573c6"/>
        <rect id="Rectángulo_366394" data-name="Rectángulo 366394" width="17.071" height="23.006" transform="translate(187.521 19.231)" fill="#7f7f7f"/>
        <rect id="Rectángulo_366395" data-name="Rectángulo 366395" width="13.878" height="19.589" transform="translate(189.006 20.773)" fill="#fff1d7"/>
        <path id="Trazado_781747" data-name="Trazado 781747" d="M182.023,18.915c-.6,7.735-5,12.84-9.922,16.161V18.915Z" transform="translate(16.905 1.858)" fill="#4adbd1"/>
        <path id="Trazado_781748" data-name="Trazado 781748" d="M184.229,37.141h-8.2c-.132-2.053.329-4.014,2.457-4.32a1.841,1.841,0,0,1,2.21,1.623,2.525,2.525,0,0,1,2.446-1.016c1.9.226,1.849,1.837,1.085,3.713" transform="translate(17.289 3.221)" fill="#f4a338"/>
        <path id="Trazado_781749" data-name="Trazado 781749" d="M185.1,22.361v8.368c-1.82.066-3.495-.463-3.956-2.439-.83-3.553,2.263-5.27,3.956-5.929" transform="translate(17.78 2.196)" fill="#5573c6"/>
        <rect id="Rectángulo_366396" data-name="Rectángulo 366396" width="21.698" height="16.148" transform="translate(158.034 29.841)" fill="#7f7f7f"/>
        <rect id="Rectángulo_366397" data-name="Rectángulo 366397" width="18.866" height="13.367" transform="translate(159.518 31.194)" fill="#fff1d7"/>
        <path id="Trazado_781750" data-name="Trazado 781750" d="M145.251,31.873c7.45.574,12.366,4.818,15.565,9.557H145.251Z" transform="translate(14.267 3.131)" fill="#f4a338"/>
        <path id="Trazado_781751" data-name="Trazado 781751" d="M162.8,29.645v7.894c-1.977.127-3.866-.316-4.161-2.366a1.773,1.773,0,0,1,1.564-2.128,2.432,2.432,0,0,1-.98-2.355c.219-1.83,1.77-1.781,3.577-1.046" transform="translate(15.58 2.865)" fill="#5573c6"/>
        <path id="Trazado_781752" data-name="Trazado 781752" d="M148.57,28.4h8.06c.063,1.752-.446,3.366-2.35,3.81-3.421.8-5.075-2.18-5.71-3.81" transform="translate(14.593 2.79)" fill="#d6e8ed"/>
        <rect id="Rectángulo_366398" data-name="Rectángulo 366398" width="16.362" height="21.984" transform="translate(214.471 24.515)" fill="#7f7f7f"/>
        <rect id="Rectángulo_366399" data-name="Rectángulo 366399" width="13.543" height="19.116" transform="translate(215.842 25.879)" fill="#fff1d7"/>
        <path id="Trazado_781753" data-name="Trazado 781753" d="M200.052,42.381c.581-7.548,4.882-12.531,9.683-15.772V42.381Z" transform="translate(19.65 2.614)" fill="#f4a338"/>
        <path id="Trazado_781754" data-name="Trazado 781754" d="M197.794,23.564h8c.13,2-.321,3.917-2.4,4.216a1.8,1.8,0,0,1-2.157-1.584,2.464,2.464,0,0,1-2.386.992c-1.854-.221-1.8-1.795-1.059-3.624" transform="translate(19.381 2.315)" fill="#5573c6"/>
        <path id="Trazado_781755" data-name="Trazado 781755" d="M196.536,38.339V30.172c1.776-.064,3.411.452,3.861,2.381.809,3.467-2.21,5.142-3.861,5.785" transform="translate(19.305 2.963)" fill="#d6e8ed"/>
        <path id="Trazado_781756" data-name="Trazado 781756" d="M136.979,52.463l3.165,4.435-.9-3.686,4.725.631-2.985-2.616,3.621-2.424-5.134.54.884-4.477L136.924,48.7l-3.784-3.772.983,4.744-6.548,1.086,6.125,1.058-2.45,3.327Z" transform="translate(12.531 4.407)" fill="#f4a338"/>
        <path id="Trazado_781757" data-name="Trazado 781757" d="M129.191,43.215a1.032,1.032,0,0,1,.472,1.43,1.155,1.155,0,0,1-1.482.537,6.011,6.011,0,0,0-7.722,2.8,5.33,5.33,0,0,0,2.472,7.413l4.17,1.866.743.332a5.915,5.915,0,0,0,6.509-1.286,1.927,1.927,0,0,0,.839.715,2.09,2.09,0,0,0,1.194.155,8.23,8.23,0,0,1-9.55,2.377l-.745-.332-4.172-1.86a7.384,7.384,0,0,1-3.439-10.272,8.334,8.334,0,0,1,10.709-3.87" transform="translate(11.551 4.176)" fill="#373f51"/>
        <path id="Trazado_781758" data-name="Trazado 781758" d="M143.6,55.87a12.219,12.219,0,0,0-5.323-5.3l-12.864,5.986-1.859.864-1.353.629a11.293,11.293,0,0,0,1.215,7.214A11.977,11.977,0,0,0,138.8,70.7a10.72,10.72,0,0,0,4.8-14.825m-8.4,6,1.433,2.748-1.622.754-1.436-2.747a2.212,2.212,0,0,1-1.874-1.178,2.049,2.049,0,0,1-.239-1.073,1.893,1.893,0,0,1,1.1-1.625,2.169,2.169,0,0,1,2.794,1,1.981,1.981,0,0,1-.153,2.122" transform="translate(11.988 4.967)" fill="#373f51"/>
        <path id="Trazado_781759" data-name="Trazado 781759" d="M109.694,144.964H45.122a3.451,3.451,0,0,1-3.452-3.452V96.021a3.451,3.451,0,0,1,3.452-3.452h64.572a3.451,3.451,0,0,1,3.452,3.452v45.492a3.451,3.451,0,0,1-3.452,3.452" transform="translate(4.093 9.093)" fill="#5573c6"/>
        <rect id="Rectángulo_366400" data-name="Rectángulo 366400" width="68.804" height="42.066" transform="translate(46.967 106.825)" fill="#d6e8ed"/>
        <rect id="Rectángulo_366401" data-name="Rectángulo 366401" width="18.063" height="13.443" transform="translate(50.234 109.564)" fill="#fff"/>
        <rect id="Rectángulo_366402" data-name="Rectángulo 366402" width="15.706" height="11.127" transform="translate(51.469 110.69)" fill="#fff1d7"/>
        <path id="Trazado_781760" data-name="Trazado 781760" d="M61.479,101.824V108.4c-1.646.107-3.219-.264-3.464-1.969a1.477,1.477,0,0,1,1.3-1.773,2.021,2.021,0,0,1-.815-1.96c.181-1.523,1.474-1.484,2.977-.871" transform="translate(5.696 9.963)" fill="#5573c6"/>
        <path id="Trazado_781761" data-name="Trazado 781761" d="M49.628,100.79h6.71c.052,1.458-.372,2.8-1.957,3.172-2.848.667-4.225-1.813-4.753-3.172" transform="translate(4.875 9.9)" fill="#4adbd1"/>
        <path id="Trazado_781762" data-name="Trazado 781762" d="M48.061,108.259c.115-1.386,1.01-2.444,2-2.361s1.7,1.273,1.584,2.659-1.01,2.442-2,2.36-1.7-1.272-1.584-2.658" transform="translate(4.72 10.401)" fill="#4adbd1"/>
        <path id="Trazado_781763" data-name="Trazado 781763" d="M48.057,106.908c-.155-1.382.521-2.592,1.507-2.7s1.913.92,2.068,2.3-.521,2.592-1.508,2.7-1.912-.921-2.067-2.3" transform="translate(4.718 10.235)" fill="#4adbd1"/>
        <path id="Trazado_781764" data-name="Trazado 781764" d="M49.911,109.5c-1.7-.5-2.866-1.621-2.607-2.5s1.848-1.189,3.547-.689,2.867,1.622,2.607,2.5-1.847,1.188-3.547.687" transform="translate(4.643 10.419)" fill="#4adbd1"/>
        <path id="Trazado_781765" data-name="Trazado 781765" d="M49.018,106.968a1.124,1.124,0,1,1,.049,1.589,1.124,1.124,0,0,1-.049-1.589" transform="translate(4.785 10.472)" fill="#f4a338"/>
        <path id="Trazado_781766" data-name="Trazado 781766" d="M55.587,108.151a1.356,1.356,0,1,1,2.206-.029,1.6,1.6,0,0,1-2.206.029" transform="translate(5.37 10.375)" fill="#f4a338"/>
        <path id="Trazado_781767" data-name="Trazado 781767" d="M54.759,107.663c-.908-.4-1.415-1.246-1.13-1.894a1.605,1.605,0,0,1,2.159-.455c.908.4,1.415,1.246,1.13,1.9a1.605,1.605,0,0,1-2.159.454" transform="translate(5.26 10.325)" fill="#f4a338"/>
        <path id="Trazado_781768" data-name="Trazado 781768" d="M57.029,107.576c-.916.87-2.024,1.19-2.475.716s-.074-1.565.842-2.436,2.024-1.189,2.475-.715.074,1.565-.842,2.435" transform="translate(5.34 10.306)" fill="#f4a338"/>
        <path id="Trazado_781769" data-name="Trazado 781769" d="M55.154,107.046a.8.8,0,1,1,1,.537.8.8,0,0,1-1-.537" transform="translate(5.414 10.413)" fill="#4adbd1"/>
        <rect id="Rectángulo_366403" data-name="Rectángulo 366403" width="18.063" height="13.443" transform="translate(70.286 109.564)" fill="#fff"/>
        <rect id="Rectángulo_366404" data-name="Rectángulo 366404" width="15.706" height="11.127" transform="translate(71.408 110.755)" fill="#fff1d7"/>
        <path id="Trazado_781770" data-name="Trazado 781770" d="M65.021,110.572V104c1.645-.107,3.218.264,3.463,1.969a1.477,1.477,0,0,1-1.3,1.773A2.023,2.023,0,0,1,68,109.7c-.181,1.523-1.474,1.483-2.976.87" transform="translate(6.387 10.214)" fill="#4adbd1"/>
        <path id="Trazado_781771" data-name="Trazado 781771" d="M77.159,111.275H70.45c-.053-1.458.371-2.8,1.955-3.172,2.849-.666,4.226,1.815,4.754,3.172" transform="translate(6.92 10.608)" fill="#5573c6"/>
        <path id="Trazado_781772" data-name="Trazado 781772" d="M78.45,103.963c-.116,1.386-1.011,2.444-2,2.361s-1.7-1.273-1.583-2.659,1.01-2.442,2-2.361,1.7,1.273,1.585,2.659" transform="translate(7.352 9.95)" fill="#5573c6"/>
        <path id="Trazado_781773" data-name="Trazado 781773" d="M78.454,105.313c.155,1.382-.521,2.592-1.508,2.7s-1.912-.92-2.067-2.3.521-2.592,1.507-2.7,1.913.921,2.068,2.3" transform="translate(7.353 10.117)" fill="#5573c6"/>
        <path id="Trazado_781774" data-name="Trazado 781774" d="M76.833,102.6c1.7.5,2.866,1.621,2.607,2.5s-1.848,1.189-3.547.689-2.867-1.622-2.607-2.5,1.847-1.188,3.547-.687" transform="translate(7.195 10.054)" fill="#5573c6"/>
        <path id="Trazado_781775" data-name="Trazado 781775" d="M77.37,105.005a1.124,1.124,0,1,1-.049-1.589,1.124,1.124,0,0,1,.049,1.589" transform="translate(7.409 10.128)" fill="#f4a338"/>
        <path id="Trazado_781776" data-name="Trazado 781776" d="M70.9,103.883a1.356,1.356,0,1,1-2.206.029,1.606,1.606,0,0,1,2.206-.029" transform="translate(6.73 10.163)" fill="#f4a338"/>
        <path id="Trazado_781777" data-name="Trazado 781777" d="M71.737,104.355c.908.4,1.413,1.246,1.13,1.9a1.606,1.606,0,0,1-2.159.454c-.908-.4-1.415-1.246-1.13-1.9a1.606,1.606,0,0,1,2.159-.454" transform="translate(6.827 10.23)" fill="#f4a338"/>
        <path id="Trazado_781778" data-name="Trazado 781778" d="M69.488,104.517c.916-.87,2.024-1.19,2.475-.716s.074,1.565-.842,2.436-2.024,1.189-2.475.715-.074-1.565.842-2.435" transform="translate(6.724 10.174)" fill="#f4a338"/>
        <path id="Trazado_781779" data-name="Trazado 781779" d="M71.176,104.869a.8.8,0,1,1-1-.537.8.8,0,0,1,1,.537" transform="translate(6.837 10.245)" fill="#4adbd1"/>
        <rect id="Rectángulo_366405" data-name="Rectángulo 366405" width="16.999" height="12.653" transform="translate(91.755 110.487)" fill="#fff"/>
        <rect id="Rectángulo_366406" data-name="Rectángulo 366406" width="14.781" height="10.473" transform="translate(92.918 111.547)" fill="#fff1d7"/>
        <path id="Trazado_781780" data-name="Trazado 781780" d="M84.608,104.288c5.837.449,9.689,3.775,12.195,7.488H84.608Z" transform="translate(8.311 10.244)" fill="#5573c6"/>
        <path id="Trazado_781781" data-name="Trazado 781781" d="M98.361,102.543v6.185c-1.548.1-3.029-.248-3.261-1.854a1.389,1.389,0,0,1,1.226-1.667,1.9,1.9,0,0,1-.767-1.845c.17-1.434,1.387-1.4,2.8-.819" transform="translate(9.339 10.036)" fill="#4adbd1"/>
        <path id="Trazado_781782" data-name="Trazado 781782" d="M87.208,101.57h6.315c.049,1.373-.35,2.637-1.841,2.985-2.682.626-3.977-1.708-4.474-2.985" transform="translate(8.566 9.977)" fill="#f4a338"/>
        <rect id="Rectángulo_366407" data-name="Rectángulo 366407" width="13.374" height="18.024" transform="translate(73.33 126.155)" fill="#fff"/>
        <rect id="Rectángulo_366408" data-name="Rectángulo 366408" width="10.874" height="15.348" transform="translate(74.493 127.363)" fill="#fff1d7"/>
        <path id="Trazado_781783" data-name="Trazado 781783" d="M75.6,115.972c-.467,6.06-3.92,10.06-7.774,12.663V115.972Z" transform="translate(6.663 11.391)" fill="#4adbd1"/>
        <path id="Trazado_781784" data-name="Trazado 781784" d="M77.332,130.252H70.91c-.1-1.608.257-3.145,1.924-3.385a1.441,1.441,0,0,1,1.731,1.272,1.979,1.979,0,0,1,1.916-.8c1.488.177,1.449,1.44.85,2.909" transform="translate(6.964 12.459)" fill="#5573c6"/>
        <path id="Trazado_781785" data-name="Trazado 781785" d="M78.018,118.671v6.556c-1.426.052-2.738-.362-3.1-1.911-.65-2.784,1.774-4.129,3.1-4.645" transform="translate(7.348 11.657)" fill="#5573c6"/>
        <rect id="Rectángulo_366409" data-name="Rectángulo 366409" width="16.999" height="12.653" transform="translate(50.764 126.663)" fill="#fff"/>
        <rect id="Rectángulo_366410" data-name="Rectángulo 366410" width="14.781" height="10.473" transform="translate(51.927 127.723)" fill="#fff1d7"/>
        <path id="Trazado_781786" data-name="Trazado 781786" d="M47.284,119.017c5.837.449,9.689,3.775,12.195,7.488H47.284Z" transform="translate(4.644 11.69)" fill="#5573c6"/>
        <path id="Trazado_781787" data-name="Trazado 781787" d="M61.037,117.271v6.185c-1.55.1-3.029-.248-3.261-1.854A1.389,1.389,0,0,1,59,119.936a1.9,1.9,0,0,1-.767-1.845c.17-1.433,1.386-1.4,2.8-.819" transform="translate(5.673 11.482)" fill="#5573c6"/>
        <path id="Trazado_781788" data-name="Trazado 781788" d="M49.884,116.3H56.2c.049,1.373-.349,2.637-1.841,2.985-2.681.626-3.977-1.708-4.474-2.985" transform="translate(4.9 11.424)" fill="#4adbd1"/>
        <rect id="Rectángulo_366411" data-name="Rectángulo 366411" width="18.063" height="14.482" transform="translate(91.3 128.232)" fill="#fff"/>
        <rect id="Rectángulo_366412" data-name="Rectángulo 366412" width="15.706" height="11.987" transform="translate(92.535 129.445)" fill="#fff1d7"/>
        <path id="Trazado_781789" data-name="Trazado 781789" d="M98.873,118.98v7.079c-1.646.115-3.219-.283-3.464-2.121a1.575,1.575,0,0,1,1.3-1.909,2.256,2.256,0,0,1-.815-2.112c.181-1.642,1.474-1.6,2.977-.938" transform="translate(9.369 11.645)" fill="#4adbd1"/>
        <path id="Trazado_781790" data-name="Trazado 781790" d="M87.022,117.867h6.709c.053,1.572-.371,3.019-1.955,3.417-2.849.717-4.226-1.955-4.754-3.417" transform="translate(8.548 11.578)" fill="#f4a338"/>
        <path id="Trazado_781791" data-name="Trazado 781791" d="M85.455,125.912c.115-1.494,1.01-2.631,2-2.544s1.7,1.371,1.584,2.864-1.01,2.631-2,2.542-1.7-1.371-1.585-2.863" transform="translate(8.393 12.117)" fill="#5573c6"/>
        <path id="Trazado_781792" data-name="Trazado 781792" d="M85.451,124.457c-.155-1.489.521-2.793,1.508-2.911s1.912.992,2.067,2.481-.521,2.792-1.508,2.911-1.912-.992-2.067-2.481" transform="translate(8.391 11.938)" fill="#5573c6"/>
        <path id="Trazado_781793" data-name="Trazado 781793" d="M87.305,127.254c-1.7-.54-2.866-1.746-2.607-2.7s1.848-1.282,3.547-.741,2.867,1.746,2.607,2.7-1.847,1.281-3.547.741" transform="translate(8.316 12.137)" fill="#5573c6"/>
        <path id="Trazado_781794" data-name="Trazado 781794" d="M86.412,124.521A1.068,1.068,0,0,1,88,124.468a1.277,1.277,0,0,1,.049,1.711,1.068,1.068,0,0,1-1.589.054,1.279,1.279,0,0,1-.049-1.712" transform="translate(8.458 12.194)" fill="#f4a338"/>
        <path id="Trazado_781795" data-name="Trazado 781795" d="M92.981,125.8a1.8,1.8,0,0,1-.742-2.238c.4-.626,1.391-.64,2.205-.031a1.8,1.8,0,0,1,.743,2.238c-.4.626-1.393.64-2.206.031" transform="translate(9.043 12.09)" fill="#5573c6"/>
        <path id="Trazado_781796" data-name="Trazado 781796" d="M92.153,125.271a1.753,1.753,0,0,1-1.13-2.042,1.538,1.538,0,0,1,2.159-.489,1.752,1.752,0,0,1,1.13,2.042,1.539,1.539,0,0,1-2.159.489" transform="translate(8.933 12.035)" fill="#5573c6"/>
        <path id="Trazado_781797" data-name="Trazado 781797" d="M94.423,125.177c-.916.937-2.024,1.283-2.475.771s-.074-1.686.842-2.623,2.024-1.283,2.475-.771.074,1.686-.842,2.623" transform="translate(9.013 12.015)" fill="#5573c6"/>
        <path id="Trazado_781798" data-name="Trazado 781798" d="M92.548,124.605a.876.876,0,0,1,.537-1.075.794.794,0,0,1,1,.578.875.875,0,0,1-.537,1.075.793.793,0,0,1-1-.578" transform="translate(9.087 12.13)" fill="#4adbd1"/>
        <path id="Trazado_781799" data-name="Trazado 781799" d="M37.15,153.74l-5.587,15.184h62.15l2.2-15.184Z" transform="translate(3.1 15.101)" fill="#a3acb5"/>
        <path id="Trazado_781800" data-name="Trazado 781800" d="M91.864,157.185H38.55a.824.824,0,0,1,0-1.647H91.864a.824.824,0,0,1,0,1.647" transform="translate(3.706 15.278)" fill="#516275"/>
        <path id="Trazado_781801" data-name="Trazado 781801" d="M90.96,160.507H37.54a.824.824,0,0,1,0-1.647H90.96a.824.824,0,0,1,0,1.647" transform="translate(3.606 15.604)" fill="#516275"/>
        <path id="Trazado_781802" data-name="Trazado 781802" d="M69.31,164.648H41.744a.824.824,0,0,1,0-1.647H69.31a.824.824,0,0,1,0,1.647" transform="translate(4.019 16.011)" fill="#516275"/>
        <path id="Trazado_781803" data-name="Trazado 781803" d="M44.717,232.5H172.556s45.811-1.418,39.293,24.1S144.161,296.038,94.31,290.411s-94.134-24.4-75.116-44.882C32.966,230.695,44.717,232.5,44.717,232.5" transform="translate(1.443 22.831)" fill="#d6d6d6"/>
        <path id="Trazado_781804" data-name="Trazado 781804" d="M196.658,225.074a11.542,11.542,0,0,0,.749,1.545l-1.586,3.545.775.906,3.478-1.341a10.894,10.894,0,0,0,1.373.937l.3,3.916,1.1.372,2.378-3a9.979,9.979,0,0,0,1.634.081l2.1,3.232,1.127-.26.645-3.867a10.4,10.4,0,0,0,1.454-.8l3.339,1.684.853-.824-1.263-3.693a11.516,11.516,0,0,0,.882-1.458l3.688-.315.35-1.166-2.829-2.525a11.976,11.976,0,0,0,.076-1.735l3.044-2.229-.246-1.2-3.641-.684a11.6,11.6,0,0,0-.748-1.545l1.585-3.545-.775-.906-3.478,1.341a10.629,10.629,0,0,0-1.373-.937l-.3-3.916-1.1-.373-2.378,3.006a9.982,9.982,0,0,0-1.634-.081l-2.1-3.232-1.126.26-.645,3.867a10.349,10.349,0,0,0-1.455.8l-3.339-1.684-.852.824,1.263,3.692a11.679,11.679,0,0,0-.883,1.458l-3.688.315-.35,1.166,2.829,2.526a11.978,11.978,0,0,0-.076,1.735l-3.043,2.229.245,1.2Zm2.364-2.7a8.191,8.191,0,0,1,5.885-9.729,7.712,7.712,0,0,1,9.16,6.251,8.19,8.19,0,0,1-5.885,9.729,7.712,7.712,0,0,1-9.16-6.251" transform="translate(18.935 20.235)" fill="#5573c6"/>
        <path id="Trazado_781805" data-name="Trazado 781805" d="M147.581,246.953a11.064,11.064,0,0,0,3.144-6.836l2.542,6.836Z" transform="translate(14.496 23.586)" fill="#373f51"/>
        <path id="Trazado_781806" data-name="Trazado 781806" d="M154.208,250.878l-2.542-6.836L147.7,233.4l-4.633-12.462-5.06-13.615.974-.36,18.3-6.8,7.728,20.778,4.626,12.462,2.194,5.894a11.017,11.017,0,0,1-2.5,11.585Z" transform="translate(13.556 19.661)" fill="#373f51"/>
        <path id="Trazado_781807" data-name="Trazado 781807" d="M139.671,211.747l5.06,13.615h21.941l-7.729-20.778Z" transform="translate(13.719 20.095)" fill="#373f51"/>
        <path id="Trazado_781808" data-name="Trazado 781808" d="M89.17,227.915H214.814a2.978,2.978,0,0,0,2.978-2.978V143.844a2.978,2.978,0,0,0-2.978-2.978H89.17a2.978,2.978,0,0,0-2.978,2.978v81.092a2.978,2.978,0,0,0,2.978,2.978" transform="translate(8.466 13.837)" fill="#373f51"/>
        <path id="Trazado_781809" data-name="Trazado 781809" d="M89.951,226.981h118.96A2.978,2.978,0,0,0,211.89,224V144.624a2.979,2.979,0,0,0-2.978-2.978H89.951a2.98,2.98,0,0,0-2.979,2.978V224a2.979,2.979,0,0,0,2.979,2.978" transform="translate(8.543 13.913)" fill="#fff"/>
        <rect id="Rectángulo_366413" data-name="Rectángulo 366413" width="116.522" height="67.513" transform="translate(99.456 159.501)" fill="#f4a338"/>
        <path id="Trazado_781810" data-name="Trazado 781810" d="M142.051,213.35a4.455,4.455,0,1,0,4.456-4.456,4.455,4.455,0,0,0-4.456,4.456" transform="translate(13.953 20.519)" fill="#5573c6"/>
        <path id="Trazado_781811" data-name="Trazado 781811" d="M110.741,254h73.076v-6.41a2.5,2.5,0,0,0-2.5-2.5H113.241a2.5,2.5,0,0,0-2.5,2.5Z" transform="translate(10.878 24.074)" fill="#5573c6"/>
        <path id="Trazado_781812" data-name="Trazado 781812" d="M175.553,165.285H189.2a1.5,1.5,0,0,0,1.5-1.5V155.91a1.5,1.5,0,0,0-1.5-1.5H175.553a1.5,1.5,0,0,0-1.5,1.5v7.878a1.5,1.5,0,0,0,1.5,1.5" transform="translate(17.097 15.167)" fill="#fff"/>
        <path id="Trazado_781813" data-name="Trazado 781813" d="M184.292,153.039h3.934a1.614,1.614,0,0,1,1.613,1.614v9.259h-5.547a1.5,1.5,0,0,1-1.5-1.5v-7.878a1.5,1.5,0,0,1,1.5-1.5" transform="translate(17.955 15.032)" fill="#fff"/>
        <path id="Trazado_781814" data-name="Trazado 781814" d="M152.64,165.285h13.647a1.5,1.5,0,0,0,1.5-1.5V155.91a1.5,1.5,0,0,0-1.5-1.5H152.64a1.5,1.5,0,0,0-1.5,1.5v7.878a1.5,1.5,0,0,0,1.5,1.5" transform="translate(14.846 15.167)" fill="#fff"/>
        <path id="Trazado_781815" data-name="Trazado 781815" d="M161.379,153.039h3.934a1.614,1.614,0,0,1,1.613,1.614v9.259h-5.547a1.5,1.5,0,0,1-1.5-1.5v-7.878a1.5,1.5,0,0,1,1.5-1.5" transform="translate(15.704 15.032)" fill="#fff"/>
        <path id="Trazado_781816" data-name="Trazado 781816" d="M175.553,183.807H189.2a1.5,1.5,0,0,0,1.5-1.5v-7.878a1.5,1.5,0,0,0-1.5-1.5H175.553a1.5,1.5,0,0,0-1.5,1.5v7.878a1.5,1.5,0,0,0,1.5,1.5" transform="translate(17.097 16.987)" fill="#fff"/>
        <path id="Trazado_781817" data-name="Trazado 781817" d="M184.292,171.561h3.934a1.614,1.614,0,0,1,1.613,1.614v9.259h-5.547a1.5,1.5,0,0,1-1.5-1.5v-7.878a1.5,1.5,0,0,1,1.5-1.5" transform="translate(17.955 16.852)" fill="#fff"/>
        <path id="Trazado_781818" data-name="Trazado 781818" d="M68.895,235.548l2.08,19.394h-31.6l-2.038-19.394Z" transform="translate(3.668 23.137)" fill="#373f51"/>
        <path id="Trazado_781819" data-name="Trazado 781819" d="M50.817,235.432l1.647,19.521H12.084l1.777-19.395Z" transform="translate(1.187 23.125)" fill="#373f51"/>
        <path id="Trazado_781820" data-name="Trazado 781820" d="M23.517,147.234a10.271,10.271,0,0,0,.577,6.595c2.347,5.382,8.157,16.749,14.6,14.647,1.219-.4,1.72.265,2.967-.034,5.858-1.4,5.771-10.447,1.32-17.692-4.548-7.4-16.726-14.477-19.467-3.515" transform="translate(2.281 13.906)" fill="#373f51"/>
        <path id="Trazado_781821" data-name="Trazado 781821" d="M38.013,161.614s13.289,4.8,17.214-11.219c.376-1.539-.683-4.8-1.509-6.455-4.483-8.976-13.394-10.754-22.567-5.455s-4.809,22.643,6.863,23.13" transform="translate(2.575 13.311)" fill="#373f51"/>
        <path id="Trazado_781822" data-name="Trazado 781822" d="M32.593,160.1a8.022,8.022,0,0,0,.008-7.833,2.037,2.037,0,0,0-.979-.9c-1.948-.809-3.78,2.15-4,5.468-.253,3.733,2.9,6.71,4.975,3.264" transform="translate(2.711 14.855)" fill="#373f51"/>
        <path id="Trazado_781823" data-name="Trazado 781823" d="M74.479,209.287s7.549-.825,11.778-14.592c4.37-14.225-6.26-8.027-6.26-8.027s-11.154,16.052-5.519,22.619" transform="translate(7.16 18.204)" fill="#373f51"/>
        <path id="Trazado_781824" data-name="Trazado 781824" d="M85.833,191.433l27.228-3.787,10.744,5.364S92.811,212.165,83.119,204c-5.137-4.329-4.228-7.682-2.449-9.787a8.213,8.213,0,0,1,5.163-2.781" transform="translate(7.786 18.432)" fill="#ffc192"/>
        <path id="Trazado_781825" data-name="Trazado 781825" d="M115.746,182.84a1.69,1.69,0,0,1,2.017.645c.417.653-1.255,2-1.948,2.3-.037.016,3.462-1.345,3.246-3.966a1.211,1.211,0,0,1,1.359-1.253,1.721,1.721,0,0,1,.682.166,1.76,1.76,0,0,1,.44.3,1.248,1.248,0,0,1,1.039-.7,1.706,1.706,0,0,1,.91.158,1.551,1.551,0,0,1,.857.982,6.258,6.258,0,0,1,.192,1.176,1.386,1.386,0,0,1,1.438-.535,1.777,1.777,0,0,1,.434.141,1.448,1.448,0,0,1,.888,1.407,9.584,9.584,0,0,1-.393,1.864,1.739,1.739,0,0,1,.57.115q.063.025.122.053a1.381,1.381,0,0,1,.823,1.675,9.863,9.863,0,0,1-5.633,5.3c.007,0,.007.005,0,.02l-.016-.012-.03.012a10.92,10.92,0,0,1-11.079.827c-1.143-.572-1.682-1.2-1.826-1.841a1.3,1.3,0,0,1-.323-.941c.458-5.353,6-7.8,6.234-7.9" transform="translate(10.757 17.712)" fill="#ffc192"/>
        <path id="Trazado_781826" data-name="Trazado 781826" d="M102.3,200.131s-37.9-36.476-48.618-27.064c-6.533,5.736-.693,13,4.866,17.79a47.894,47.894,0,0,0,10.1,6.66l19.025,9.392a9.719,9.719,0,0,0,12.6-3.581Z" transform="translate(4.99 16.847)" fill="#ffc192"/>
        <path id="Trazado_781827" data-name="Trazado 781827" d="M81.685,187.307,79.271,202.33,72.853,199.1Z" transform="translate(7.156 18.398)" fill="#db8f5a"/>
        <path id="Trazado_781828" data-name="Trazado 781828" d="M88.844,187.722l-1.9,2.214A45.827,45.827,0,0,0,76.789,210.85s-27.953-22.8-27.407-35.286c.831-19.016,39.463,12.158,39.463,12.158" transform="translate(4.85 16.641)" fill="#5573c6"/>
        <path id="Trazado_781829" data-name="Trazado 781829" d="M74.4,209.449a.219.219,0,0,0,.18-.206c.484-10.319,11.883-22.864,12-22.989a.22.22,0,1,0-.324-.3c-.116.126-11.621,12.789-12.112,23.266a.219.219,0,0,0,.209.23.184.184,0,0,0,.049,0" transform="translate(7.282 18.259)" fill="#fff"/>
        <path id="Trazado_781830" data-name="Trazado 781830" d="M8.168,248.188l71.3-.19s-14.881-69.7-16.12-76.2a2.9,2.9,0,0,0-2.127-2.267c-6.617-1.721-13.426-1.623-22.048-.793a18.948,18.948,0,0,0-14.88,9.851c-10.671,19.844-16.125,69.6-16.125,69.6" transform="translate(0.802 16.518)" fill="#5573c6"/>
        <path id="Trazado_781831" data-name="Trazado 781831" d="M8.581,241.218h69.1a.21.21,0,1,0,0-.415H8.581a.21.21,0,1,0,0,.415" transform="translate(0.819 23.653)" fill="#fff"/>
        <path id="Trazado_781832" data-name="Trazado 781832" d="M44.286,179.055a10.175,10.175,0,0,0,10.163-10.163.207.207,0,1,0-.414,0,9.749,9.749,0,0,1-19.5,0,.207.207,0,1,0-.414,0,10.175,10.175,0,0,0,10.163,10.163" transform="translate(3.352 16.569)" fill="#fff"/>
        <path id="Trazado_781833" data-name="Trazado 781833" d="M47,178.309h0a7.163,7.163,0,0,1-9.137-4.375l-5.694-16.155,13.513-4.763,5.694,16.156A7.165,7.165,0,0,1,47,178.309" transform="translate(3.16 15.03)" fill="#ffc192"/>
        <path id="Trazado_781834" data-name="Trazado 781834" d="M47.872,160.641l2.662,7.782-9.76-4.533Z" transform="translate(4.005 15.779)" fill="#db8f5a"/>
        <path id="Trazado_781835" data-name="Trazado 781835" d="M31.5,158.1s8.888,12.873,18.249,8.957,2.943-23.074.013-26.509-15.067-4.463-19.813,5.338C27.245,151.465,31.5,158.1,31.5,158.1" transform="translate(2.853 13.566)" fill="#ffc192"/>
        <path id="Trazado_781836" data-name="Trazado 781836" d="M48.147,165.2c-4.912,1.668-9.8-1.8-9.853-1.841a.2.2,0,1,1,.241-.332c.058.042,5.866,4.16,11.031,1.065a.2.2,0,1,1,.211.351,8.426,8.426,0,0,1-1.629.756" transform="translate(3.753 16.01)" fill="#373f51"/>
        <path id="Trazado_781837" data-name="Trazado 781837" d="M34.6,154.67c-1.651-.425-5.565-1.041-5.463,2.294.112,3.636,5.5,3.439,7.178,3.288Z" transform="translate(2.862 15.159)" fill="#ffc192"/>
        <path id="Trazado_781838" data-name="Trazado 781838" d="M31.629,155.1a.2.2,0,0,1-.144.157,1.7,1.7,0,0,0-1.319,2.076.191.191,0,0,1-.153.231.209.209,0,0,1-.246-.149,2.1,2.1,0,0,1,1.6-2.53.209.209,0,0,1,.255.133.183.183,0,0,1,.007.083" transform="translate(2.92 15.213)" fill="#db8f5a"/>
        <path id="Trazado_781839" data-name="Trazado 781839" d="M49.631,156.006c.549-.193,1.988-.817,1.7-1.959-.265-1.037-1.388-1.12-2.036-1.01l-1.672-2.687a.161.161,0,0,0-.222-.052.163.163,0,0,0-.052.222l1.731,2.782a.161.161,0,0,0,.171.071c.062-.013,1.494-.318,1.767.753s-1.654,1.631-1.674,1.636a.158.158,0,0,0-.111.2.162.162,0,0,0,.2.112c.016,0,.091-.026.2-.066" transform="translate(4.648 14.761)" fill="#373f51"/>
        <path id="Trazado_781840" data-name="Trazado 781840" d="M49.288,149.844a.844.844,0,0,0,1.685.065.844.844,0,0,0-1.685-.065" transform="translate(4.841 14.642)" fill="#373f51"/>
        <path id="Trazado_781841" data-name="Trazado 781841" d="M43.793,151.237a.844.844,0,0,0,1.685.065.844.844,0,0,0-1.685-.065" transform="translate(4.302 14.779)" fill="#373f51"/>
        <path id="Trazado_781842" data-name="Trazado 781842" d="M49.177,157.7a.161.161,0,0,0-.107-.3,2.451,2.451,0,0,1-3.122-1.495.161.161,0,0,0-.205-.1.163.163,0,0,0-.1.205,2.774,2.774,0,0,0,3.533,1.691" transform="translate(4.483 15.303)" fill="#63553e"/>
        <path id="Trazado_781843" data-name="Trazado 781843" d="M31.141,138.386a16.591,16.591,0,0,1,8.33-1.776,13.148,13.148,0,0,1,7.118,1.383c4.088,1.957,6.539,5.274,5.973,7.022a16.034,16.034,0,0,1,1.966,4.435,18.412,18.412,0,0,0-3.33.361c-.437.077-.918.171-1.441.288-.261.058-.536.121-.817.191-.436.1-.9.224-1.382.357-1.122.311-2.375.7-3.755,1.2a11.58,11.58,0,0,0-1.916-7.354,16,16,0,0,1,.586,5.066,10.362,10.362,0,0,1-1.241,5.677,12.172,12.172,0,0,0,.213-2.048l-.011.007a9.88,9.88,0,0,0-.946-4.626,16.223,16.223,0,0,1-.381,5.44,33.183,33.183,0,0,1-3.513,1.746,10.549,10.549,0,0,1-1.328,5.688,14.415,14.415,0,0,0-.171-5.1l-.066.022c-9.668-.791-11.743-13.928-3.889-17.975" transform="translate(2.586 13.411)" fill="#373f51"/>
        <path id="Trazado_781844" data-name="Trazado 781844" d="M43.792,154.485a.963.963,0,1,1-1.229-.589.964.964,0,0,1,1.229.589" transform="translate(4.118 15.111)" fill="#c99fa2"/>
        <rect id="Rectángulo_366414" data-name="Rectángulo 366414" width="0.429" height="41.092" transform="translate(69.866 216.041) rotate(-11.828)" fill="#373f51"/>
        <path id="Trazado_781845" data-name="Trazado 781845" d="M34.643,158.707l.8-1.117V154.06l-6.623-2.434.99,3.4s1.524-.705,2.323.171,2.026,4.372,2.026,4.372Z" transform="translate(2.831 14.894)" fill="#373f51"/>
        <path id="Trazado_781846" data-name="Trazado 781846" d="M63.333,229.085a1.756,1.756,0,0,1,.773-.957c5.855-3.372,11.9-.086,12.155.056a1.615,1.615,0,0,1,.793,1.242,1.889,1.889,0,0,1-.183,1.039,1.545,1.545,0,0,1-2.114.769,11.726,11.726,0,0,0-3.489-1.089c2.193,1.19,5.568,2.366,8.155.317a1.448,1.448,0,0,1,2.164.344,1.716,1.716,0,0,1,.258.734,1.916,1.916,0,0,1-.034.613,1.42,1.42,0,0,1,1.385.445,1.686,1.686,0,0,1,.412.936A1.857,1.857,0,0,1,83.129,235a8.878,8.878,0,0,1-1.1,1.006,1.463,1.463,0,0,1,1.466.923,1.772,1.772,0,0,1,.128.491,1.826,1.826,0,0,1-.9,1.8,13.608,13.608,0,0,1-2.185.963,1.707,1.707,0,0,1,.239.6c.01.049.018.1.023.147a1.79,1.79,0,0,1-1.22,1.928A11.8,11.8,0,0,1,70.5,241.51c0,.007,0,.01-.022.012V241.5l-.031-.018c-.657-.279-7.215-2.088-7.875-9.441a3.558,3.558,0,0,1,.758-2.954" transform="translate(6.144 22.259)" fill="#ffc192"/>
        <path id="Trazado_781847" data-name="Trazado 781847" d="M27.475,191.14a135.1,135.1,0,0,0,5.354,16.219,63.428,63.428,0,0,0,3.391,7.088,25.312,25.312,0,0,0,3.562,4.986c7.491,7.76,25.03,20.493,26.053,21.237l2.073,1.5,2,1.432a5.927,5.927,0,0,0,8.226-1.237,5.843,5.843,0,0,0-.988-7.935l-.065-.057-1.914-1.583-1.925-1.6q-1.916-1.609-3.822-3.236c-2.535-2.166-4.951-4.469-7.515-6.559-3.29-2.683-6.51-5.231-9.126-7.857a16.739,16.739,0,0,1-3.511-5.188c-.517-1.195-10.344-24.832-10.344-24.832Z" transform="translate(2.699 18.026)" fill="#ffc192"/>
        <path id="Trazado_781848" data-name="Trazado 781848" d="M32.35,205.668a63.507,63.507,0,0,0,3.392,7.087l9.489-12.023Z" transform="translate(3.178 19.717)" fill="#db8f5a"/>
        <path id="Trazado_781849" data-name="Trazado 781849" d="M39.613,181.323c.013.029.023.059.034.089l9.793,25.758s-13.783,7.1-24.986,6.913a194.373,194.373,0,0,1-2.782-25.431c-.443-12.462,13.5-17.468,17.941-7.33" transform="translate(2.128 17.278)" fill="#5573c6"/>
        <path id="Trazado_781850" data-name="Trazado 781850" d="M24.142,211.491a.23.23,0,0,1,.208-.255,76.583,76.583,0,0,0,20.616-4.975c1.748-.7,3.238-1.377,4.437-1.963.12-.4.459.232.063.446-1.184.574-2.637,1.232-4.329,1.911a74.889,74.889,0,0,1-7.82,2.634,76.729,76.729,0,0,1-12.96,2.375.2.2,0,0,1-.213-.174" transform="translate(2.371 20.054)" fill="#fff"/>
        <path id="Trazado_781851" data-name="Trazado 781851" d="M47.75,205.85l.021-.008a.207.207,0,0,0,.116-.269l-5.963-15.035a.2.2,0,0,0-.269-.116.208.208,0,0,0-.116.269L47.5,205.727a.208.208,0,0,0,.248.123" transform="translate(4.079 18.703)" fill="#fff"/>
        <path id="Trazado_781852" data-name="Trazado 781852" d="M108.176,148.328l5.943,2.687a10.271,10.271,0,0,0,10-.864,16.888,16.888,0,0,1,19,0,10.272,10.272,0,0,0,10,.864l5.944-2.687c1.755,53.3-25.443,58.989-25.443,58.989s-27.2-5.689-25.443-58.989" transform="translate(10.618 14.461)" fill="#373f51"/>
        <path id="Trazado_781853" data-name="Trazado 781853" d="M134.309,204.195c2.273-.892,6.74-3.232,11.1-8.882,4.756-6.159,10.525-18.014,11-39.513l.079-3.648-3.424,1.261a12.763,12.763,0,0,1-11.561-1.427,14.407,14.407,0,0,0-16.2,0,12.763,12.763,0,0,1-11.561,1.427l-3.424-1.261.08,3.648c.469,21.5,6.238,33.353,10.994,39.513,4.364,5.65,8.83,7.991,11.1,8.882l.908.356Z" transform="translate(10.836 14.684)" fill="#f4a338"/>
        <path id="Trazado_781854" data-name="Trazado 781854" d="M133.171,201.657c1.9-.745,5.991-2.84,10.043-8.087,4.682-6.062,10.028-17.452,10.477-38.048a15.251,15.251,0,0,1-13.818-1.7,11.922,11.922,0,0,0-13.4,0,15.251,15.251,0,0,1-13.818,1.7c.449,20.6,5.8,31.986,10.477,38.048,4.052,5.247,8.144,7.343,10.043,8.087" transform="translate(11.065 14.906)" fill="#4adbd1"/>
        <path id="Trazado_781855" data-name="Trazado 781855" d="M136.75,167.38a4.676,4.676,0,0,0-4.841-4.783,5.212,5.212,0,0,0-4.795,4.783h-1.859a7.228,7.228,0,0,1,6.652-6.747,6.486,6.486,0,0,1,6.706,6.7v.043Z" transform="translate(12.303 15.777)" fill="#373f51"/>
        <path id="Trazado_781856" data-name="Trazado 781856" d="M131.722,183.083a10.847,10.847,0,0,0,10.592-10.3,10.234,10.234,0,0,0-1.736-6.393l-1.352-.006-1.857-.005-12.846-.046a11.057,11.057,0,0,0-2.368,6.377,9.706,9.706,0,0,0,9.567,10.372m-1.315-10.31a1.966,1.966,0,0,1,1.919-1.881,1.715,1.715,0,0,1,1.518.921,1.856,1.856,0,0,1,.21.973,2,2,0,0,1-1.094,1.679l-.139,2.8-1.62,0,.137-2.8a1.8,1.8,0,0,1-.93-1.688" transform="translate(11.998 16.338)" fill="#373f51"/>
      </g>
    </g>
  </g>
</svg>
