<svg xmlns="http://www.w3.org/2000/svg" xmlns:xlink="http://www.w3.org/1999/xlink" width="383" height="280" viewBox="0 0 383 280">
  <defs>
    <clipPath id="clip-path">
      <rect id="Rectángulo_35483" data-name="Rectángulo 35483" width="282" height="280" fill="#fff" stroke="#707070" stroke-width="1"/>
    </clipPath>
    <clipPath id="clip-path-2">
      <rect id="Rectángulo_365116" data-name="Rectángulo 365116" width="232.74" height="193.667" fill="none"/>
    </clipPath>
  </defs>
  <g id="Grupo_1034050" data-name="Grupo 1034050" transform="translate(-934 -17825)">
    <g id="Grupo_137456" data-name="Grupo 137456" transform="translate(934 17825)">
      <g id="Grupo_137455" data-name="Grupo 137455" transform="translate(0)">
        <path id="Trazado_766622" data-name="Trazado 766622" d="M303.5,0H79.5a79.5,79.5,0,0,0,0,159h224a79.5,79.5,0,0,0,0-159Z" transform="translate(0 65)" fill="#4adbd1"/>
        <g id="Enmascarar_grupo_72" data-name="Enmascarar grupo 72" transform="translate(53 0)" clip-path="url(#clip-path)">
          <g id="Grupo_133717" data-name="Grupo 133717" transform="translate(-0.009 4.936)">
            <g id="Grupo_133713" data-name="Grupo 133713" transform="translate(0 272.242) rotate(-90)">
              <path id="Sustracción_24" data-name="Sustracción 24" d="M0,0V277.072a139.558,139.558,0,0,0,27.92-2.815,137.837,137.837,0,0,0,26-8.072,138.545,138.545,0,0,0,23.532-12.773A139.531,139.531,0,0,0,97.96,236.5a139.53,139.53,0,0,0,16.917-20.5,138.547,138.547,0,0,0,12.773-23.532,137.835,137.835,0,0,0,8.072-26,139.559,139.559,0,0,0,2.815-27.92,139.56,139.56,0,0,0-2.815-27.92,137.835,137.835,0,0,0-8.072-26,138.547,138.547,0,0,0-12.773-23.532,139.531,139.531,0,0,0-16.917-20.5,139.533,139.533,0,0,0-20.5-16.916A138.551,138.551,0,0,0,53.925,10.887a137.839,137.839,0,0,0-26-8.072A139.563,139.563,0,0,0,0,0Z" transform="translate(138.536 277.072) rotate(180)" fill="#5573c6"/>
              <path id="Sustracción_25" data-name="Sustracción 25" d="M0,0V277.071a139.558,139.558,0,0,0,27.92-2.815,137.837,137.837,0,0,0,26-8.072,138.548,138.548,0,0,0,23.532-12.773,139.532,139.532,0,0,0,20.5-16.916,139.532,139.532,0,0,0,16.917-20.5,138.547,138.547,0,0,0,12.773-23.532,137.835,137.835,0,0,0,8.072-26,139.559,139.559,0,0,0,2.815-27.92,139.559,139.559,0,0,0-2.815-27.92,137.834,137.834,0,0,0-8.072-26,138.542,138.542,0,0,0-12.773-23.532,139.529,139.529,0,0,0-16.917-20.5,139.528,139.528,0,0,0-20.5-16.916A138.549,138.549,0,0,0,53.925,10.887a137.838,137.838,0,0,0-26-8.072A139.559,139.559,0,0,0,0,0Z" transform="translate(133.706 0)" fill="#e8e8e8"/>
            </g>
            <path id="Trazado_151972" data-name="Trazado 151972" d="M123.5,0C55.293,0,0,55.517,0,124S55.293,248,123.5,248,247,192.483,247,124,191.707,0,123.5,0Z" transform="translate(15.008 12.064)" fill="#12263f"/>
            <g id="Grupo_133716" data-name="Grupo 133716" transform="matrix(-0.966, -0.259, 0.259, -0.966, 71.068, 256.036)" style="isolation: isolate">
              <g id="Grupo_133714" data-name="Grupo 133714" transform="translate(0 20.359)">
                <path id="Trazado_150984" data-name="Trazado 150984" d="M.083,0C.028.7,0,1.418,0,2.127A26.761,26.761,0,0,0,10.122,23.144l.195-.244a26.45,26.45,0,0,1-10-20.773c0-.7.028-1.409.082-2.1Z" transform="translate(0 0)" fill="#4adbd1"/>
              </g>
              <g id="Grupo_133715" data-name="Grupo 133715" transform="translate(13.132 45.319)">
                <path id="Trazado_150985" data-name="Trazado 150985" d="M.16,0,0,.268A26.691,26.691,0,0,0,7.867,3.4l.068-.3A26.368,26.368,0,0,1,.16,0Z" transform="translate(0 0)" fill="#4adbd1"/>
              </g>
              <path id="Trazado_150986" data-name="Trazado 150986" d="M22.486,44.972A22.486,22.486,0,1,1,44.972,22.486,22.486,22.486,0,0,1,22.486,44.972Zm0-38.386a15.9,15.9,0,1,0,15.9,15.9A15.9,15.9,0,0,0,22.486,6.586Z" transform="translate(4.391 0)" fill="#4adbd1" style="mix-blend-mode: multiply;isolation: isolate"/>
            </g>
            <path id="Trazado_150987" data-name="Trazado 150987" d="M6.338,12.676a6.338,6.338,0,1,1,6.338-6.338A6.338,6.338,0,0,1,6.338,12.676Zm0-10.82A4.482,4.482,0,1,0,10.82,6.338,4.482,4.482,0,0,0,6.338,1.856Z" transform="matrix(-0.966, -0.259, 0.259, -0.966, 230.901, 28.024)" fill="#0f0140" style="mix-blend-mode: multiply;isolation: isolate"/>
            <ellipse id="Elipse_5034" data-name="Elipse 5034" cx="6" cy="6" rx="6" ry="6" transform="translate(18.009 204.064)" fill="#dad6f7"/>
            <circle id="Elipse_5035" data-name="Elipse 5035" cx="16.5" cy="16.5" r="16.5" transform="translate(219.009 28.064)" fill="#5573c6"/>
          </g>
        </g>
      </g>
    </g>
    <g id="Grupo_1032085" data-name="Grupo 1032085" transform="translate(1009.13 17859.666)">
      <g id="Grupo_1032084" data-name="Grupo 1032084" clip-path="url(#clip-path-2)">
        <path id="Trazado_773010" data-name="Trazado 773010" d="M32.657,191.221a24,24,0,0,1-3.5-.808c-4.7-1.483-8.734-4.589-12.221-8.075-18.778-18.766-22.459-50.776-8.428-73.316,7.161-11.5,19.1-21.872,24.933-34.631C40,60.038,36.784,43.14,43.128,28.638,48.97,15.273,62.212,4.891,76.231,1.314c22.549-5.756,32.391,8.741,50.871,17.3,20.723,9.6,47.014-5.619,67.342,4.788,10.094,5.167,16.392,15.8,19.492,26.706,4.333,15.236,3.475,31.249,4.426,46.9a100.408,100.408,0,0,0,5.8,27.419c2.354,6.652,6.186,12.752,7.92,19.627,2.5,9.937-2.474,19.6-8.985,26.809-6.144,6.8-12.494,14.442-21.519,17.364-4.693,1.518-9.711,1.592-14.644,1.653l-144.65,1.769a57.619,57.619,0,0,1-9.626-.425" transform="translate(0 -0.001)" fill="#e8e8e8"/>
        <path id="Trazado_773011" data-name="Trazado 773011" d="M215.6,84.349c0,3.637-47.211,6.583-105.447,6.583S4.705,87.986,4.705,84.349s47.211-6.583,105.449-6.583S215.6,80.711,215.6,84.349" transform="translate(6.216 102.736)" fill="#afafaf"/>
        <path id="Trazado_773012" data-name="Trazado 773012" d="M61.955,49.22h0A5.663,5.663,0,0,0,57.3,42.7l-1.92-.32a15.53,15.53,0,0,0-.831-2.679l1.425-1.349A5.662,5.662,0,0,0,48.2,30.129L46.747,31.5c-.409-.195-.824-.362-1.251-.52l-.039-2a5.662,5.662,0,0,0-11.322.218l.037,1.952c-.436.181-.829.429-1.244.645L31.4,30.473a5.66,5.66,0,0,0-7.987.55h0a5.662,5.662,0,0,0,.55,7.989l1.513,1.318A15.255,15.255,0,0,0,24.771,43l-1.952.409A5.662,5.662,0,0,0,25.14,54.491l1.924-.4A15.416,15.416,0,0,0,28.8,56.265l-.847,1.794a5.661,5.661,0,1,0,10.238,4.833l.863-1.827c.355.026.694.107,1.056.107A15.471,15.471,0,0,0,41.8,61l.94,1.8A5.662,5.662,0,1,0,52.77,57.551l-.933-1.787a15.432,15.432,0,0,0,1.62-2.224l1.98.332a5.663,5.663,0,0,0,6.518-4.651M41.819,54.375a8.88,8.88,0,1,1,6.973-6.97,8.888,8.888,0,0,1-6.973,6.97" transform="translate(24.199 30.952)" fill="#4adbd1"/>
        <path id="Trazado_773013" data-name="Trazado 773013" d="M29.63,50.06h0a2.12,2.12,0,0,0-1.741-2.439l-.717-.121a6.03,6.03,0,0,0-.311-1l.532-.5a2.118,2.118,0,1,0-2.911-3.078l-.543.511c-.151-.072-.309-.135-.467-.193l-.016-.75a2.118,2.118,0,1,0-4.236.084l.014.731c-.162.067-.311.16-.467.241l-.569-.5a2.118,2.118,0,1,0-2.783,3.194l.566.494a5.49,5.49,0,0,0-.265,1l-.731.153a2.119,2.119,0,0,0,.868,4.148l.72-.151a5.956,5.956,0,0,0,.65.815l-.316.671a2.119,2.119,0,1,0,3.832,1.808l.323-.682c.132.007.26.039.395.039a5.6,5.6,0,0,0,.629-.065l.353.673a2.118,2.118,0,1,0,3.753-1.964l-.348-.668a5.787,5.787,0,0,0,.606-.833l.74.125A2.12,2.12,0,0,0,29.63,50.06M22.1,51.989A3.323,3.323,0,1,1,24.7,49.38,3.326,3.326,0,0,1,22.1,51.989" transform="translate(17.574 53.384)" fill="#4adbd1"/>
        <path id="Trazado_773014" data-name="Trazado 773014" d="M77.832,29.6h0a1.478,1.478,0,0,0-1.214-1.7l-.5-.084a3.939,3.939,0,0,0-.218-.7l.374-.353a1.479,1.479,0,1,0-2.033-2.149l-.378.357a3.341,3.341,0,0,0-.327-.135l-.012-.522a1.479,1.479,0,0,0-2.957.056l.009.511a3.6,3.6,0,0,0-.325.169l-.4-.346a1.48,1.48,0,0,0-1.945,2.231l.4.344a3.9,3.9,0,0,0-.186.7l-.511.107a1.48,1.48,0,1,0,.608,2.9l.5-.1a4.141,4.141,0,0,0,.455.569l-.223.469a1.48,1.48,0,0,0,2.676,1.263l.225-.478c.093.007.181.028.276.028a3.9,3.9,0,0,0,.439-.044l.246.469a1.48,1.48,0,0,0,2.623-1.372l-.244-.467a4.167,4.167,0,0,0,.422-.58l.518.086a1.477,1.477,0,0,0,1.7-1.214m-5.26,1.346a2.321,2.321,0,1,1,1.822-1.822,2.323,2.323,0,0,1-1.822,1.822" transform="translate(87.762 30.204)" fill="#4adbd1"/>
        <path id="Trazado_773015" data-name="Trazado 773015" d="M33.3,81.3H150.345a6.226,6.226,0,0,0,6.227-6.225V63.511H27.077V75.075A6.226,6.226,0,0,0,33.3,81.3" transform="translate(35.771 83.904)" fill="#fff"/>
        <path id="Trazado_773016" data-name="Trazado 773016" d="M27.077,104.818h129.5v-66.7a5.869,5.869,0,0,0-5.87-5.87H32.947a5.869,5.869,0,0,0-5.87,5.87Z" transform="translate(35.771 42.598)" fill="#373f51"/>
        <rect id="Rectángulo_365053" data-name="Rectángulo 365053" width="122.379" height="64.037" transform="translate(66.761 79.112)" fill="#e8e8e8"/>
        <path id="Trazado_773017" data-name="Trazado 773017" d="M59.437,68.964a2.846,2.846,0,1,1-2.846-2.846,2.846,2.846,0,0,1,2.846,2.846" transform="translate(71.003 87.348)" fill="#e8e8e8"/>
        <path id="Trazado_773018" data-name="Trazado 773018" d="M77.784,84.76,74.522,71.175H49.977l-.513,2.135H71.677L74.938,86.9a3.386,3.386,0,0,1-.149,2.05,3.405,3.405,0,0,0,2.994-4.185" transform="translate(65.346 94.028)" fill="#e8e8e8"/>
        <path id="Trazado_773019" data-name="Trazado 773019" d="M76.555,85.68,73.294,72.095H51.081l-2.748,11.45a3.408,3.408,0,0,0,3.315,4.2H76.089c.107,0,.214-.009.318-.019a3.384,3.384,0,0,0,.149-2.05" transform="translate(63.727 95.244)" fill="#fff"/>
        <path id="Trazado_773020" data-name="Trazado 773020" d="M110.513,31.666C98.9,30.08,91.859,25.445,91.362,25.109V25.09l-.014.009-.014-.009v.019c-.5.337-7.534,4.972-19.151,6.557,0,0-3.284,24.638,19.151,37.247v.019l.014-.009.014.009v-.019C113.8,56.3,110.513,31.666,110.513,31.666" transform="translate(95.137 33.146)" fill="#fff"/>
        <path id="Trazado_773021" data-name="Trazado 773021" d="M107.957,31.91c-10.633-1.451-17.074-5.694-17.529-6v-.019l-.012.009-.014-.009v.019c-.455.306-6.894,4.549-17.529,6,0,0-3.006,22.549,17.529,34.09v.016l.014-.007.012.007V66c20.535-11.54,17.529-34.09,17.529-34.09" transform="translate(96.069 34.204)" fill="#e6b046"/>
        <path id="Trazado_773022" data-name="Trazado 773022" d="M87.576,47.073H81.7a4.6,4.6,0,0,1-4.6-4.605V36.489a4.6,4.6,0,0,1,4.6-4.6h5.879a4.605,4.605,0,0,1,4.605,4.6v5.979a4.606,4.606,0,0,1-4.605,4.605" transform="translate(101.848 42.124)" fill="#fff"/>
        <path id="Trazado_773023" data-name="Trazado 773023" d="M83.277,35.069a1.879,1.879,0,1,1-1.88-1.88,1.88,1.88,0,0,1,1.88,1.88" transform="translate(105.052 43.846)" fill="#e6b046"/>
        <path id="Trazado_773024" data-name="Trazado 773024" d="M80.587,34.681,79.5,40.354h3.9l-1.214-5.673Z" transform="translate(105.033 45.817)" fill="#e6b046"/>
        <path id="Trazado_773025" data-name="Trazado 773025" d="M78.642,36.137c-.274-2.263.559-6.169,3.224-6.662,3.5-.648,4.779,4.15,4.51,6.662" transform="translate(103.828 38.862)" fill="none" stroke="#fff" stroke-miterlimit="10" stroke-width="0.695"/>
        <path id="Trazado_773026" data-name="Trazado 773026" d="M79,38.793l.473.961,1.061.153-.768.747.181,1.056-.947-.5-.947.5.181-1.056-.768-.747,1.061-.153Z" transform="translate(102.333 51.249)" fill="#fff"/>
        <path id="Trazado_773027" data-name="Trazado 773027" d="M80.477,38.793l.473.961,1.061.153-.768.747.181,1.056-.947-.5-.947.5.181-1.056-.768-.747L80,39.754Z" transform="translate(104.29 51.249)" fill="#fff"/>
        <path id="Trazado_773028" data-name="Trazado 773028" d="M81.958,38.793l.473.961,1.061.153-.768.747.181,1.056-.947-.5-.947.5.181-1.056-.768-.747,1.061-.153Z" transform="translate(106.247 51.249)" fill="#fff"/>
        <path id="Trazado_773029" data-name="Trazado 773029" d="M83.439,38.793l.473.961,1.061.153-.768.747.181,1.056-.947-.5-.947.5.181-1.056-.768-.747,1.061-.153Z" transform="translate(108.204 51.249)" fill="#fff"/>
        <path id="Trazado_773030" data-name="Trazado 773030" d="M61.4,27.023V25.5a3.259,3.259,0,0,0-3.259-3.259H41.193A3.257,3.257,0,0,0,37.934,25.5V67.867h57.79V27.023Z" transform="translate(50.114 29.386)" fill="#f4a338"/>
        <rect id="Rectángulo_365054" data-name="Rectángulo 365054" width="26.682" height="38.502" transform="translate(97.265 50.523) rotate(-13.133)" fill="#fff"/>
        <rect id="Rectángulo_365055" data-name="Rectángulo 365055" width="15.247" height="4.261" transform="matrix(0.974, -0.227, 0.227, 0.974, 99.39, 53.216)" fill="#e8e8e8"/>
        <rect id="Rectángulo_365056" data-name="Rectángulo 365056" width="22.423" height="1.12" transform="translate(101.296 59.91) rotate(-13.133)" fill="#e8e8e8"/>
        <rect id="Rectángulo_365057" data-name="Rectángulo 365057" width="22.423" height="1.12" transform="translate(101.755 61.875) rotate(-13.133)" fill="#e8e8e8"/>
        <rect id="Rectángulo_365058" data-name="Rectángulo 365058" width="22.423" height="1.12" transform="translate(102.213 63.841) rotate(-13.133)" fill="#e8e8e8"/>
        <rect id="Rectángulo_365059" data-name="Rectángulo 365059" width="22.423" height="1.12" transform="translate(102.672 65.806) rotate(-13.133)" fill="#e8e8e8"/>
        <rect id="Rectángulo_365060" data-name="Rectángulo 365060" width="22.423" height="1.12" transform="translate(103.13 67.771) rotate(-13.133)" fill="#e8e8e8"/>
        <rect id="Rectángulo_365061" data-name="Rectángulo 365061" width="22.423" height="1.12" transform="translate(103.589 69.736) rotate(-13.133)" fill="#e8e8e8"/>
        <rect id="Rectángulo_365062" data-name="Rectángulo 365062" width="22.423" height="1.12" transform="translate(104.047 71.702) rotate(-13.133)" fill="#e8e8e8"/>
        <rect id="Rectángulo_365063" data-name="Rectángulo 365063" width="15.247" height="4.261" transform="matrix(0.974, -0.227, 0.227, 0.974, 114.057, 78.576)" fill="#e8e8e8"/>
        <rect id="Rectángulo_365064" data-name="Rectángulo 365064" width="17.041" height="0.896" transform="translate(111.086 73.743) rotate(-13.132)" fill="#e8e8e8"/>
        <rect id="Rectángulo_365065" data-name="Rectángulo 365065" width="17.041" height="0.896" transform="translate(111.494 75.49) rotate(-13.132)" fill="#e8e8e8"/>
        <rect id="Rectángulo_365066" data-name="Rectángulo 365066" width="17.041" height="0.896" transform="translate(111.901 77.237) rotate(-13.132)" fill="#e8e8e8"/>
        <rect id="Rectángulo_365067" data-name="Rectángulo 365067" width="41.475" height="28.744" transform="translate(109.262 89.534) rotate(-78.24)" fill="#fff"/>
        <rect id="Rectángulo_365068" data-name="Rectángulo 365068" width="1.207" height="24.154" transform="matrix(0.204, -0.979, 0.979, 0.204, 118.685, 54.646)" fill="#e8e8e8"/>
        <rect id="Rectángulo_365069" data-name="Rectángulo 365069" width="1.207" height="24.154" transform="matrix(0.204, -0.979, 0.979, 0.204, 118.242, 56.774)" fill="#e8e8e8"/>
        <rect id="Rectángulo_365070" data-name="Rectángulo 365070" width="1.207" height="24.154" transform="matrix(0.204, -0.979, 0.979, 0.204, 117.799, 58.903)" fill="#e8e8e8"/>
        <rect id="Rectángulo_365071" data-name="Rectángulo 365071" width="1.207" height="24.154" transform="matrix(0.204, -0.979, 0.979, 0.204, 117.356, 61.031)" fill="#e8e8e8"/>
        <rect id="Rectángulo_365072" data-name="Rectángulo 365072" width="1.207" height="24.154" transform="matrix(0.204, -0.979, 0.979, 0.204, 116.913, 63.159)" fill="#e8e8e8"/>
        <rect id="Rectángulo_365073" data-name="Rectángulo 365073" width="1.207" height="24.154" transform="matrix(0.204, -0.979, 0.979, 0.204, 116.47, 65.288)" fill="#e8e8e8"/>
        <rect id="Rectángulo_365074" data-name="Rectángulo 365074" width="1.207" height="24.154" transform="matrix(0.204, -0.979, 0.979, 0.204, 116.027, 67.416)" fill="#e8e8e8"/>
        <rect id="Rectángulo_365075" data-name="Rectángulo 365075" width="4.59" height="16.425" transform="translate(120.109 87.511) rotate(-78.242)" fill="#e8e8e8"/>
        <rect id="Rectángulo_365076" data-name="Rectángulo 365076" width="0.966" height="18.357" transform="matrix(0.204, -0.979, 0.979, 0.204, 120.137, 77.894)" fill="#e8e8e8"/>
        <rect id="Rectángulo_365077" data-name="Rectángulo 365077" width="0.966" height="18.357" transform="matrix(0.204, -0.979, 0.979, 0.204, 119.743, 79.786)" fill="#e8e8e8"/>
        <rect id="Rectángulo_365078" data-name="Rectángulo 365078" width="0.966" height="18.357" transform="matrix(0.204, -0.979, 0.979, 0.204, 119.35, 81.678)" fill="#e8e8e8"/>
        <path id="Trazado_773031" data-name="Trazado 773031" d="M61.4,28.974v-1.52a3.259,3.259,0,0,0-3.259-3.259H41.193a3.257,3.257,0,0,0-3.259,3.259V64.09a5.729,5.729,0,0,0,5.728,5.728H90a5.729,5.729,0,0,0,5.728-5.728V28.974Z" transform="translate(50.114 31.964)" fill="#e6b046"/>
        <rect id="Rectángulo_365079" data-name="Rectángulo 365079" width="44.998" height="64.93" transform="translate(164.151 118.601) rotate(-0.109)" fill="#f0dcc0"/>
        <rect id="Rectángulo_365080" data-name="Rectángulo 365080" width="37.813" height="1.892" transform="matrix(1, -0.002, 0.002, 1, 167.472, 125.157)" fill="#e8e8e8"/>
        <rect id="Rectángulo_365081" data-name="Rectángulo 365081" width="37.813" height="1.891" transform="matrix(1, -0.002, 0.002, 1, 167.479, 128.561)" fill="#e8e8e8"/>
        <rect id="Rectángulo_365082" data-name="Rectángulo 365082" width="37.813" height="1.891" transform="matrix(1, -0.002, 0.002, 1, 167.485, 131.965)" fill="#e8e8e8"/>
        <rect id="Rectángulo_365083" data-name="Rectángulo 365083" width="37.813" height="1.892" transform="matrix(1, -0.002, 0.002, 1, 167.492, 135.367)" fill="#e8e8e8"/>
        <rect id="Rectángulo_365084" data-name="Rectángulo 365084" width="37.813" height="1.891" transform="matrix(1, -0.002, 0.002, 1, 167.498, 138.771)" fill="#e8e8e8"/>
        <rect id="Rectángulo_365085" data-name="Rectángulo 365085" width="37.813" height="1.891" transform="matrix(1, -0.002, 0.002, 1, 167.505, 142.174)" fill="#e8e8e8"/>
        <rect id="Rectángulo_365086" data-name="Rectángulo 365086" width="37.813" height="1.892" transform="matrix(1, -0.002, 0.002, 1, 167.511, 145.576)" fill="#e8e8e8"/>
        <rect id="Rectángulo_365087" data-name="Rectángulo 365087" width="25.713" height="7.184" transform="matrix(1, -0.002, 0.002, 1, 180.225, 169.754)" fill="#e8e8e8"/>
        <rect id="Rectángulo_365088" data-name="Rectángulo 365088" width="28.737" height="1.513" transform="translate(177.183 160.684) rotate(-0.111)" fill="#e8e8e8"/>
        <rect id="Rectángulo_365089" data-name="Rectángulo 365089" width="28.737" height="1.513" transform="translate(177.189 163.709) rotate(-0.111)" fill="#e8e8e8"/>
        <rect id="Rectángulo_365090" data-name="Rectángulo 365090" width="28.737" height="1.513" transform="translate(177.195 166.734) rotate(-0.111)" fill="#e8e8e8"/>
        <rect id="Rectángulo_365091" data-name="Rectángulo 365091" width="41.773" height="60.274" transform="translate(142.547 126.33)" fill="#a7d8d3"/>
        <rect id="Rectángulo_365092" data-name="Rectángulo 365092" width="23.87" height="6.668" transform="translate(144.829 131.193)" fill="#e8e8e8"/>
        <rect id="Rectángulo_365093" data-name="Rectángulo 365093" width="35.102" height="1.755" transform="translate(145.356 142.074)" fill="#e8e8e8"/>
        <rect id="Rectángulo_365094" data-name="Rectángulo 365094" width="35.102" height="1.755" transform="translate(145.356 145.233)" fill="#e8e8e8"/>
        <rect id="Rectángulo_365095" data-name="Rectángulo 365095" width="35.102" height="1.755" transform="translate(145.356 148.392)" fill="#e8e8e8"/>
        <rect id="Rectángulo_365096" data-name="Rectángulo 365096" width="35.102" height="1.755" transform="translate(145.356 151.551)" fill="#e8e8e8"/>
        <rect id="Rectángulo_365097" data-name="Rectángulo 365097" width="35.102" height="1.755" transform="translate(145.356 154.712)" fill="#e8e8e8"/>
        <rect id="Rectángulo_365098" data-name="Rectángulo 365098" width="35.102" height="1.755" transform="translate(145.356 157.871)" fill="#e8e8e8"/>
        <rect id="Rectángulo_365099" data-name="Rectángulo 365099" width="35.102" height="1.755" transform="translate(145.356 161.03)" fill="#e8e8e8"/>
        <rect id="Rectángulo_365100" data-name="Rectángulo 365100" width="23.87" height="6.668" transform="translate(158.168 175.07)" fill="#e8e8e8"/>
        <rect id="Rectángulo_365101" data-name="Rectángulo 365101" width="26.679" height="1.404" transform="translate(155.36 166.645)" fill="#e8e8e8"/>
        <rect id="Rectángulo_365102" data-name="Rectángulo 365102" width="26.679" height="1.404" transform="translate(155.36 169.453)" fill="#e8e8e8"/>
        <rect id="Rectángulo_365103" data-name="Rectángulo 365103" width="26.679" height="1.404" transform="translate(155.36 172.262)" fill="#e8e8e8"/>
        <path id="Trazado_773032" data-name="Trazado 773032" d="M53.575,123.014H32.314a7.755,7.755,0,0,1-7.755-7.755v-60.6a7.755,7.755,0,0,1,7.755-7.755H53.575a7.755,7.755,0,0,1,7.755,7.755v60.6a7.755,7.755,0,0,1-7.755,7.755" transform="translate(32.445 61.967)" fill="#373f51"/>
        <path id="Trazado_773033" data-name="Trazado 773033" d="M25.066,56.895h.406V50.737h-.406a.876.876,0,0,0-.875.877V56.02a.876.876,0,0,0,.875.875" transform="translate(31.958 67.028)" fill="#373f51"/>
        <path id="Trazado_773034" data-name="Trazado 773034" d="M25.066,60.027h.406V53.869h-.406a.876.876,0,0,0-.875.877v4.405a.876.876,0,0,0,.875.875" transform="translate(31.958 71.166)" fill="#373f51"/>
        <path id="Trazado_773035" data-name="Trazado 773035" d="M40.626,60.764h-.409V54.606h.409a.878.878,0,0,1,.875.877v4.405a.877.877,0,0,1-.875.875" transform="translate(53.13 72.139)" fill="#373f51"/>
        <path id="Trazado_773036" data-name="Trazado 773036" d="M51.654,119.551H31.883a6.434,6.434,0,0,1-6.434-6.434V54.667a6.434,6.434,0,0,1,6.434-6.434H51.654a6.434,6.434,0,0,1,6.434,6.434v58.45a6.434,6.434,0,0,1-6.434,6.434" transform="translate(33.62 63.72)" fill="#fff"/>
        <path id="Trazado_773037" data-name="Trazado 773037" d="M33.595,42.755A12.715,12.715,0,1,0,46.31,55.47,12.716,12.716,0,0,0,33.595,42.755" transform="translate(27.584 56.483)" fill="#5573c6"/>
        <path id="Trazado_773038" data-name="Trazado 773038" d="M25.887,58.264a1.119,1.119,0,0,1,1.126-1.181,1.184,1.184,0,0,1,0,2.365,1.12,1.12,0,0,1-1.126-1.184m.478-2.727L26.1,46.378H27.93l-.267,9.159Z" transform="translate(34.199 61.269)" fill="#fff"/>
        <path id="Trazado_773039" data-name="Trazado 773039" d="M41.465,75.731H33.118a4.281,4.281,0,0,1-4.28-4.28V62.99a4.281,4.281,0,0,1,4.28-4.28h8.347a4.28,4.28,0,0,1,4.28,4.28v8.46a4.28,4.28,0,0,1-4.28,4.28" transform="translate(38.098 77.561)" fill="#e6b046"/>
        <path id="Trazado_773040" data-name="Trazado 773040" d="M35.768,62.275a2.106,2.106,0,1,1-2.105-2.105,2.1,2.1,0,0,1,2.105,2.105" transform="translate(41.687 79.49)" fill="#fff"/>
        <path id="Trazado_773041" data-name="Trazado 773041" d="M32.753,61.842,31.539,68.2h4.368l-1.358-6.36Z" transform="translate(41.666 81.699)" fill="#fff"/>
        <path id="Trazado_773042" data-name="Trazado 773042" d="M30.333,56.627s9.635-3.373,9.435,5.784" transform="translate(40.073 74.008)" fill="none" stroke="#e6b046" stroke-linecap="round" stroke-linejoin="round" stroke-width="0.862"/>
        <rect id="Rectángulo_365104" data-name="Rectángulo 365104" width="19.325" height="5.468" transform="translate(65.726 155.599)" fill="#373f51"/>
        <path id="Trazado_773043" data-name="Trazado 773043" d="M30.9,69.533l-.241.729h-.309l.789-2.321h.36l.791,2.321h-.32l-.246-.729Zm.761-.234-.227-.668c-.051-.151-.086-.288-.121-.422h-.007c-.035.137-.072.279-.116.42l-.227.671Z" transform="translate(40.096 89.756)" fill="#fff"/>
        <rect id="Rectángulo_365105" data-name="Rectángulo 365105" width="0.304" height="2.444" transform="translate(72.71 157.574)" fill="#fff"/>
        <path id="Trazado_773044" data-name="Trazado 773044" d="M31.912,69.131a.535.535,0,0,0,.571.58,1.124,1.124,0,0,0,.462-.086l.053.216a1.341,1.341,0,0,1-.555.1.775.775,0,0,1-.819-.84.807.807,0,0,1,.78-.9.705.705,0,0,1,.689.785c0,.06-.007.109-.009.139Zm.889-.216a.432.432,0,0,0-.42-.492.5.5,0,0,0-.464.492Z" transform="translate(41.778 90.107)" fill="#fff"/>
        <path id="Trazado_773045" data-name="Trazado 773045" d="M32.427,68.764c0-.195,0-.364-.014-.52h.265l.012.327H32.7a.5.5,0,0,1,.46-.364.344.344,0,0,1,.088.009V68.5a.473.473,0,0,0-.1-.009.426.426,0,0,0-.406.39.806.806,0,0,0-.014.139v.889h-.3Z" transform="translate(42.82 90.107)" fill="#fff"/>
        <path id="Trazado_773046" data-name="Trazado 773046" d="M33.413,68.017V68.5h.434v.23h-.434v.9c0,.207.058.323.227.323a.637.637,0,0,0,.176-.021l.012.227a.7.7,0,0,1-.267.042.416.416,0,0,1-.327-.128.615.615,0,0,1-.118-.434v-.91h-.258V68.5h.258v-.4Z" transform="translate(43.408 89.856)" fill="#fff"/>
        <path id="Trazado_773047" data-name="Trazado 773047" d="M33.406,70.086a.2.2,0,0,1,.2-.214.214.214,0,0,1,0,.427.2.2,0,0,1-.2-.214m.086-.492-.049-1.653h.332l-.049,1.653Z" transform="translate(44.132 89.756)" fill="#fff"/>
        <path id="Trazado_773048" data-name="Trazado 773048" d="M45.225,90.79h-23.1A4.587,4.587,0,0,1,17.537,86.2V76.872a4.587,4.587,0,0,1,4.586-4.586h23.1a4.587,4.587,0,0,1,4.586,4.586V86.2a4.587,4.587,0,0,1-4.586,4.586" transform="translate(23.168 95.496)" fill="#e6b046"/>
        <rect id="Rectángulo_365106" data-name="Rectángulo 365106" width="32.275" height="4.303" transform="translate(40.705 171.654)" fill="#373f51"/>
        <path id="Trazado_773049" data-name="Trazado 773049" d="M32.508,82.025H28.985a1.252,1.252,0,0,1-1.251-1.251V78.543a1.252,1.252,0,0,1,1.251-1.251h3.523a1.25,1.25,0,0,1,1.251,1.251v2.231a1.25,1.25,0,0,1-1.251,1.251" transform="translate(36.639 102.11)" fill="#fff"/>
        <rect id="Rectángulo_365107" data-name="Rectángulo 365107" width="13.771" height="1.722" transform="translate(41.566 178.97)" fill="#4adbd1"/>
        <rect id="Rectángulo_365108" data-name="Rectángulo 365108" width="3.442" height="1.291" transform="translate(41.568 181.553)" fill="#fff"/>
        <rect id="Rectángulo_365109" data-name="Rectángulo 365109" width="3.442" height="1.291" transform="translate(45.872 181.553)" fill="#fff"/>
        <rect id="Rectángulo_365110" data-name="Rectángulo 365110" width="3.442" height="1.291" transform="translate(50.175 181.553)" fill="#fff"/>
        <rect id="Rectángulo_365111" data-name="Rectángulo 365111" width="3.442" height="1.291" transform="translate(54.478 181.553)" fill="#fff"/>
        <path id="Trazado_773050" data-name="Trazado 773050" d="M38.728,78.069v1.757a1.06,1.06,0,0,0,.61.959,14.839,14.839,0,0,0,12.671,0,1.055,1.055,0,0,0,.587-.947V78.31a14.8,14.8,0,0,1-13.868-.241" transform="translate(51.163 103.136)" fill="#e6b046"/>
        <path id="Trazado_773051" data-name="Trazado 773051" d="M52.6,79.25c0,1.128-3.106,2.045-6.935,2.045s-6.933-.917-6.933-2.045,3.1-2.045,6.933-2.045,6.935.917,6.935,2.045" transform="translate(51.163 101.995)" fill="#e6b046"/>
        <path id="Trazado_773052" data-name="Trazado 773052" d="M45.293,77.275c-3.059,0-5.622.624-6.286,1.46a12.846,12.846,0,0,1,5.805-1.061c3.563,0,6.453.845,6.453,1.889a.689.689,0,0,1-.169.427c.418-.248.65-.529.65-.826,0-1.044-2.887-1.889-6.453-1.889" transform="translate(51.532 102.087)" fill="#f4a338"/>
        <path id="Trazado_773053" data-name="Trazado 773053" d="M44.907,77.439a12.743,12.743,0,0,0-5.8,1.07.7.7,0,0,0-.169.432c0,1.051,2.89,1.9,6.453,1.9a12.761,12.761,0,0,0,5.805-1.07.7.7,0,0,0,.167-.432c0-1.051-2.887-1.9-6.453-1.9" transform="translate(51.437 102.304)" fill="#f4a338"/>
        <path id="Trazado_773054" data-name="Trazado 773054" d="M39.765,77.031v1.757a1.06,1.06,0,0,0,.61.959,14.839,14.839,0,0,0,12.671,0,1.055,1.055,0,0,0,.587-.947V77.272a14.8,14.8,0,0,1-13.869-.241" transform="translate(52.533 101.765)" fill="#e6b046"/>
        <path id="Trazado_773055" data-name="Trazado 773055" d="M53.636,78.213c0,1.128-3.106,2.045-6.938,2.045s-6.933-.917-6.933-2.045,3.106-2.045,6.933-2.045,6.938.917,6.938,2.045" transform="translate(52.533 100.625)" fill="#e6b046"/>
        <path id="Trazado_773056" data-name="Trazado 773056" d="M46.331,76.237c-3.059,0-5.622.624-6.286,1.46a12.846,12.846,0,0,1,5.805-1.061c3.563,0,6.453.845,6.453,1.889a.689.689,0,0,1-.169.427c.418-.248.65-.529.65-.826,0-1.044-2.887-1.889-6.453-1.889" transform="translate(52.903 100.716)" fill="#f4a338"/>
        <path id="Trazado_773057" data-name="Trazado 773057" d="M45.945,76.4a12.743,12.743,0,0,0-5.8,1.07.7.7,0,0,0-.169.432c0,1.051,2.89,1.9,6.453,1.9a12.761,12.761,0,0,0,5.805-1.07.7.7,0,0,0,.167-.432c0-1.051-2.887-1.9-6.453-1.9" transform="translate(52.808 100.934)" fill="#f4a338"/>
        <path id="Trazado_773058" data-name="Trazado 773058" d="M38.313,75.994v1.757a1.06,1.06,0,0,0,.61.959,14.839,14.839,0,0,0,12.671,0,1.055,1.055,0,0,0,.587-.947V76.235a14.8,14.8,0,0,1-13.868-.241" transform="translate(50.615 100.395)" fill="#e6b046"/>
        <path id="Trazado_773059" data-name="Trazado 773059" d="M52.181,77.175c0,1.128-3.106,2.045-6.935,2.045s-6.933-.917-6.933-2.045,3.1-2.045,6.933-2.045,6.935.917,6.935,2.045" transform="translate(50.615 99.253)" fill="#e6b046"/>
        <path id="Trazado_773060" data-name="Trazado 773060" d="M44.878,75.2c-3.059,0-5.622.624-6.286,1.46A12.846,12.846,0,0,1,44.4,75.6c3.563,0,6.453.845,6.453,1.889a.689.689,0,0,1-.169.427c.418-.248.65-.529.65-.826,0-1.044-2.887-1.889-6.453-1.889" transform="translate(50.983 99.345)" fill="#f4a338"/>
        <path id="Trazado_773061" data-name="Trazado 773061" d="M44.492,75.364a12.743,12.743,0,0,0-5.8,1.07.7.7,0,0,0-.169.432c0,1.051,2.89,1.9,6.453,1.9a12.761,12.761,0,0,0,5.805-1.07.7.7,0,0,0,.167-.432c0-1.051-2.887-1.9-6.453-1.9" transform="translate(50.888 99.563)" fill="#f4a338"/>
        <path id="Trazado_773062" data-name="Trazado 773062" d="M39.765,74.749v1.757a1.06,1.06,0,0,0,.61.959,14.839,14.839,0,0,0,12.671,0,1.055,1.055,0,0,0,.587-.947V74.99a14.8,14.8,0,0,1-13.869-.241" transform="translate(52.533 98.75)" fill="#e6b046"/>
        <path id="Trazado_773063" data-name="Trazado 773063" d="M53.636,75.93c0,1.128-3.106,2.045-6.938,2.045s-6.933-.917-6.933-2.045,3.106-2.045,6.933-2.045,6.938.917,6.938,2.045" transform="translate(52.533 97.609)" fill="#e6b046"/>
        <path id="Trazado_773064" data-name="Trazado 773064" d="M46.331,73.954c-3.059,0-5.622.624-6.286,1.46a12.845,12.845,0,0,1,5.805-1.061c3.563,0,6.453.845,6.453,1.889a.689.689,0,0,1-.169.427c.418-.248.65-.529.65-.826,0-1.044-2.887-1.889-6.453-1.889" transform="translate(52.903 97.7)" fill="#f4a338"/>
        <path id="Trazado_773065" data-name="Trazado 773065" d="M45.945,74.119a12.743,12.743,0,0,0-5.8,1.07.7.7,0,0,0-.169.432c0,1.051,2.89,1.9,6.453,1.9a12.761,12.761,0,0,0,5.805-1.07.7.7,0,0,0,.167-.432c0-1.051-2.887-1.9-6.453-1.9" transform="translate(52.808 97.918)" fill="#f4a338"/>
        <path id="Trazado_773066" data-name="Trazado 773066" d="M38.728,73.711v1.757a1.06,1.06,0,0,0,.61.959,14.839,14.839,0,0,0,12.671,0,1.055,1.055,0,0,0,.587-.947V73.952a14.8,14.8,0,0,1-13.868-.241" transform="translate(51.163 97.379)" fill="#e6b046"/>
        <path id="Trazado_773067" data-name="Trazado 773067" d="M52.6,74.892c0,1.128-3.106,2.045-6.935,2.045s-6.933-.917-6.933-2.045,3.1-2.045,6.933-2.045,6.935.917,6.935,2.045" transform="translate(51.163 96.237)" fill="#e6b046"/>
        <path id="Trazado_773068" data-name="Trazado 773068" d="M45.293,72.917c-3.059,0-5.622.624-6.286,1.46a12.846,12.846,0,0,1,5.805-1.061c3.563,0,6.453.845,6.453,1.889a.689.689,0,0,1-.169.427c.418-.248.65-.529.65-.826,0-1.045-2.887-1.889-6.453-1.889" transform="translate(51.532 96.33)" fill="#f4a338"/>
        <path id="Trazado_773069" data-name="Trazado 773069" d="M44.907,73.081a12.743,12.743,0,0,0-5.8,1.07.7.7,0,0,0-.169.432c0,1.051,2.89,1.9,6.453,1.9a12.761,12.761,0,0,0,5.805-1.07.7.7,0,0,0,.167-.432c0-1.051-2.887-1.9-6.453-1.9" transform="translate(51.437 96.546)" fill="#f4a338"/>
        <path id="Trazado_773070" data-name="Trazado 773070" d="M39.765,72.673V74.43a1.06,1.06,0,0,0,.61.959,14.839,14.839,0,0,0,12.671,0,1.055,1.055,0,0,0,.587-.947V72.914a14.8,14.8,0,0,1-13.869-.241" transform="translate(52.533 96.007)" fill="#e6b046"/>
        <path id="Trazado_773071" data-name="Trazado 773071" d="M53.636,73.855c0,1.128-3.106,2.045-6.938,2.045s-6.933-.917-6.933-2.045S42.871,71.81,46.7,71.81s6.938.917,6.938,2.045" transform="translate(52.533 94.867)" fill="#e6b046"/>
        <path id="Trazado_773072" data-name="Trazado 773072" d="M46.331,71.879c-3.059,0-5.622.624-6.286,1.46a12.846,12.846,0,0,1,5.805-1.061c3.563,0,6.453.845,6.453,1.889a.689.689,0,0,1-.169.427c.418-.248.65-.529.65-.826,0-1.045-2.887-1.889-6.453-1.889" transform="translate(52.903 94.959)" fill="#f4a338"/>
        <path id="Trazado_773073" data-name="Trazado 773073" d="M45.945,72.044a12.743,12.743,0,0,0-5.8,1.07.7.7,0,0,0-.169.432c0,1.051,2.89,1.9,6.453,1.9a12.761,12.761,0,0,0,5.805-1.07.7.7,0,0,0,.167-.432c0-1.051-2.887-1.9-6.453-1.9" transform="translate(52.808 95.176)" fill="#f4a338"/>
        <path id="Trazado_773074" data-name="Trazado 773074" d="M38.313,71.636v1.757a1.06,1.06,0,0,0,.61.959,14.839,14.839,0,0,0,12.671,0,1.055,1.055,0,0,0,.587-.947V71.877a14.8,14.8,0,0,1-13.868-.241" transform="translate(50.615 94.637)" fill="#e6b046"/>
        <path id="Trazado_773075" data-name="Trazado 773075" d="M52.181,72.817c0,1.128-3.106,2.045-6.935,2.045s-6.933-.917-6.933-2.045,3.1-2.045,6.933-2.045,6.935.917,6.935,2.045" transform="translate(50.615 93.496)" fill="#e6b046"/>
        <path id="Trazado_773076" data-name="Trazado 773076" d="M44.878,70.841c-3.059,0-5.622.624-6.286,1.46A12.845,12.845,0,0,1,44.4,71.24c3.563,0,6.453.845,6.453,1.889a.689.689,0,0,1-.169.427c.418-.248.65-.529.65-.826,0-1.044-2.887-1.889-6.453-1.889" transform="translate(50.983 93.587)" fill="#f4a338"/>
        <path id="Trazado_773077" data-name="Trazado 773077" d="M44.492,71.006a12.743,12.743,0,0,0-5.8,1.07.7.7,0,0,0-.169.432c0,1.051,2.89,1.9,6.453,1.9a12.761,12.761,0,0,0,5.805-1.07.7.7,0,0,0,.167-.432c0-1.051-2.887-1.9-6.453-1.9" transform="translate(50.888 93.805)" fill="#f4a338"/>
        <path id="Trazado_773078" data-name="Trazado 773078" d="M39.765,70.39v1.757a1.06,1.06,0,0,0,.61.959,14.839,14.839,0,0,0,12.671,0,1.055,1.055,0,0,0,.587-.947V70.631a14.8,14.8,0,0,1-13.869-.241" transform="translate(52.533 92.991)" fill="#e6b046"/>
        <path id="Trazado_773079" data-name="Trazado 773079" d="M53.636,71.572c0,1.128-3.106,2.045-6.938,2.045s-6.933-.917-6.933-2.045,3.106-2.045,6.933-2.045,6.938.917,6.938,2.045" transform="translate(52.533 91.851)" fill="#e6b046"/>
        <path id="Trazado_773080" data-name="Trazado 773080" d="M46.331,69.6c-3.059,0-5.622.624-6.286,1.46A12.846,12.846,0,0,1,45.85,70c3.563,0,6.453.845,6.453,1.889a.689.689,0,0,1-.169.427c.418-.248.65-.529.65-.826,0-1.044-2.887-1.889-6.453-1.889" transform="translate(52.903 91.942)" fill="#f4a338"/>
        <path id="Trazado_773081" data-name="Trazado 773081" d="M45.945,69.761a12.743,12.743,0,0,0-5.8,1.07.7.7,0,0,0-.169.432c0,1.051,2.89,1.9,6.453,1.9a12.761,12.761,0,0,0,5.805-1.07.7.7,0,0,0,.167-.432c0-1.051-2.887-1.9-6.453-1.9" transform="translate(52.808 92.16)" fill="#f4a338"/>
        <path id="Trazado_773082" data-name="Trazado 773082" d="M41.841,79.314v1.757a1.06,1.06,0,0,0,.61.959,14.839,14.839,0,0,0,12.671,0,1.055,1.055,0,0,0,.587-.947V79.555a14.8,14.8,0,0,1-13.869-.241" transform="translate(55.276 104.781)" fill="#e6b046"/>
        <path id="Trazado_773083" data-name="Trazado 773083" d="M55.71,80.5c0,1.128-3.106,2.045-6.935,2.045s-6.933-.917-6.933-2.045,3.1-2.045,6.933-2.045,6.935.917,6.935,2.045" transform="translate(55.276 103.641)" fill="#e6b046"/>
        <path id="Trazado_773084" data-name="Trazado 773084" d="M48.406,78.52c-3.059,0-5.622.624-6.286,1.46a12.845,12.845,0,0,1,5.805-1.061c3.563,0,6.453.845,6.453,1.889a.689.689,0,0,1-.169.427c.418-.248.65-.529.65-.826,0-1.044-2.887-1.889-6.453-1.889" transform="translate(55.644 103.732)" fill="#f4a338"/>
        <path id="Trazado_773085" data-name="Trazado 773085" d="M48.02,78.685a12.743,12.743,0,0,0-5.8,1.07.7.7,0,0,0-.169.432c0,1.051,2.89,1.9,6.453,1.9a12.761,12.761,0,0,0,5.805-1.07.7.7,0,0,0,.167-.432c0-1.051-2.887-1.9-6.453-1.9" transform="translate(55.549 103.95)" fill="#f4a338"/>
        <path id="Trazado_773086" data-name="Trazado 773086" d="M42.878,78.277v1.757a1.06,1.06,0,0,0,.61.959,14.839,14.839,0,0,0,12.671,0,1.055,1.055,0,0,0,.587-.947V78.518a14.8,14.8,0,0,1-13.869-.241" transform="translate(56.646 103.411)" fill="#e6b046"/>
        <path id="Trazado_773087" data-name="Trazado 773087" d="M56.749,79.458c0,1.128-3.108,2.045-6.938,2.045s-6.933-.917-6.933-2.045,3.1-2.045,6.933-2.045,6.938.917,6.938,2.045" transform="translate(56.646 102.269)" fill="#e6b046"/>
        <path id="Trazado_773088" data-name="Trazado 773088" d="M49.444,77.482c-3.059,0-5.622.624-6.286,1.46a12.846,12.846,0,0,1,5.805-1.061c3.563,0,6.453.845,6.453,1.889a.689.689,0,0,1-.169.427c.418-.248.65-.529.65-.826,0-1.044-2.887-1.889-6.453-1.889" transform="translate(57.016 102.361)" fill="#f4a338"/>
        <path id="Trazado_773089" data-name="Trazado 773089" d="M49.058,77.647a12.743,12.743,0,0,0-5.8,1.07.7.7,0,0,0-.169.432c0,1.051,2.89,1.9,6.453,1.9a12.761,12.761,0,0,0,5.805-1.07.7.7,0,0,0,.167-.432c0-1.051-2.887-1.9-6.453-1.9" transform="translate(56.92 102.579)" fill="#f4a338"/>
        <path id="Trazado_773090" data-name="Trazado 773090" d="M41.426,77.239V79a1.06,1.06,0,0,0,.61.959,14.839,14.839,0,0,0,12.671,0A1.055,1.055,0,0,0,55.295,79V77.48a14.8,14.8,0,0,1-13.869-.241" transform="translate(54.727 102.04)" fill="#e6b046"/>
        <path id="Trazado_773091" data-name="Trazado 773091" d="M55.295,78.42c0,1.128-3.106,2.045-6.935,2.045s-6.933-.917-6.933-2.045,3.1-2.045,6.933-2.045,6.935.917,6.935,2.045" transform="translate(54.727 100.898)" fill="#e6b046"/>
        <path id="Trazado_773092" data-name="Trazado 773092" d="M47.99,76.445c-3.059,0-5.622.624-6.286,1.46a12.846,12.846,0,0,1,5.805-1.061c3.563,0,6.453.845,6.453,1.889a.689.689,0,0,1-.169.427c.418-.248.65-.529.65-.826,0-1.044-2.887-1.889-6.453-1.889" transform="translate(55.096 100.991)" fill="#f4a338"/>
        <path id="Trazado_773093" data-name="Trazado 773093" d="M47.605,76.609a12.743,12.743,0,0,0-5.8,1.07.7.7,0,0,0-.169.432c0,1.051,2.89,1.9,6.453,1.9a12.761,12.761,0,0,0,5.805-1.07.7.7,0,0,0,.167-.432c0-1.051-2.887-1.9-6.453-1.9" transform="translate(55.001 101.207)" fill="#f4a338"/>
        <path id="Trazado_773094" data-name="Trazado 773094" d="M42.878,75.994v1.757a1.06,1.06,0,0,0,.61.959,14.839,14.839,0,0,0,12.671,0,1.055,1.055,0,0,0,.587-.947V76.235a14.8,14.8,0,0,1-13.869-.241" transform="translate(56.646 100.395)" fill="#e6b046"/>
        <path id="Trazado_773095" data-name="Trazado 773095" d="M56.749,77.175c0,1.128-3.108,2.045-6.938,2.045s-6.933-.917-6.933-2.045,3.1-2.045,6.933-2.045,6.938.917,6.938,2.045" transform="translate(56.646 99.253)" fill="#e6b046"/>
        <path id="Trazado_773096" data-name="Trazado 773096" d="M49.444,75.2c-3.059,0-5.622.624-6.286,1.46A12.846,12.846,0,0,1,48.963,75.6c3.563,0,6.453.845,6.453,1.889a.689.689,0,0,1-.169.427c.418-.248.65-.529.65-.826,0-1.044-2.887-1.889-6.453-1.889" transform="translate(57.016 99.345)" fill="#f4a338"/>
        <path id="Trazado_773097" data-name="Trazado 773097" d="M49.058,75.364a12.743,12.743,0,0,0-5.8,1.07.7.7,0,0,0-.169.432c0,1.051,2.89,1.9,6.453,1.9a12.761,12.761,0,0,0,5.805-1.07.7.7,0,0,0,.167-.432c0-1.051-2.887-1.9-6.453-1.9" transform="translate(56.92 99.563)" fill="#f4a338"/>
        <path id="Trazado_773098" data-name="Trazado 773098" d="M21.1,63.637a4.092,4.092,0,0,0,2.862-2.249l-2.2.522,1.13-.717s-.3-.406-1.017.021l-.7.408a1,1,0,0,0-.845.752Z" transform="translate(26.856 80.611)" fill="#fa977a"/>
        <path id="Trazado_773099" data-name="Trazado 773099" d="M14.331,63.628a2.537,2.537,0,0,1-.68-3.3,1.973,1.973,0,0,1,1.634-1.323,2.318,2.318,0,0,1,1.3.443,3.989,3.989,0,0,1,1.128,1.112s2.8,4.524,4.456,5.211,7.486-.984,7.486-.984l.692,1.506s-5.543,3.814-8.776,2.56-6.246-4.6-7.237-5.227" transform="translate(17.617 77.953)" fill="#fa977a"/>
        <path id="Trazado_773100" data-name="Trazado 773100" d="M19.478,62.545S16.872,57.39,14.3,59.17s0,5.148,1,6.5Z" transform="translate(17.418 77.675)" fill="#5573c6"/>
        <path id="Trazado_773101" data-name="Trazado 773101" d="M16.215,58.332l.19,2.477-2.609-1.2a2.77,2.77,0,0,0,.32-1.878s1.664.146,2.1.6" transform="translate(18.226 76.27)" fill="#f08668"/>
        <path id="Trazado_773102" data-name="Trazado 773102" d="M19.681,58.661l0,.009c.782-4.426-2.811-3.67-2.811-3.67-1.172.035-3.359.954-3.266,2.409s-.149,4.412,2.056,5.4c1.85.831,2.774.7,3.556-2.091a.764.764,0,0,0,.4-.109c.434-.246.07-1.947.07-1.947" transform="translate(17.963 72.596)" fill="#fa977a"/>
        <path id="Trazado_773103" data-name="Trazado 773103" d="M16.577,60.163c.248-.511.209-1.2.564-1.683a2.267,2.267,0,0,1,1.657-.673,4.659,4.659,0,0,0,2.019-.8,3.45,3.45,0,0,0,.94-.975c.174-.29.462-.845.246-1.177-.265-.413-.791-.107-1.149-.037a23.019,23.019,0,0,1-3.542.425c-1.1.039-3.656-.68-4.215.659a2.088,2.088,0,0,0-.107.986c.046.48.132.949.216,1.421a6.406,6.406,0,0,0,.648,2.005,2.817,2.817,0,0,0,.959,1.1c.78.409,1.427-.627,1.736-1.2l.028-.053" transform="translate(17.144 72.185)" fill="#373f51"/>
        <rect id="Rectángulo_365112" data-name="Rectángulo 365112" width="3.264" height="2.511" transform="matrix(0.137, -0.991, 0.991, 0.137, 23.685, 184.8)" fill="#f9af88"/>
        <path id="Trazado_773104" data-name="Trazado 773104" d="M10.307,79.423l-.193,1.395a.46.46,0,0,0,.4.518c1.448.188,5.826.72,5.745.285-.1-.52-3.168-1.534-3.168-1.534Z" transform="translate(13.356 104.925)" fill="#373f51"/>
        <rect id="Rectángulo_365113" data-name="Rectángulo 365113" width="3.263" height="2.51" transform="matrix(0.14, -0.99, 0.99, 0.14, 33.133, 183.079)" fill="#f9af88"/>
        <path id="Trazado_773105" data-name="Trazado 773105" d="M14.381,78.681l-.2,1.393a.46.46,0,0,0,.395.52c1.448.193,5.824.74,5.745.306-.1-.522-3.164-1.546-3.164-1.546Z" transform="translate(18.732 103.945)" fill="#373f51"/>
        <path id="Trazado_773106" data-name="Trazado 773106" d="M21.017,65.432c.968,2.07,1.855,4.187,2.672,6.32a33.145,33.145,0,0,1,2.365,7.437c.283,2.17-.357,4.241-.8,6.339q-.961,4.578-1.927,9.154H18.705c.555-1.555,1.063-3.129,1.541-4.707,1.128-3.735,2.186-7.525.292-11.2q-.968-1.873-1.931-3.744a1.048,1.048,0,0,0-.552-.6c.23.067.891,4.252.984,4.728a8.082,8.082,0,0,1,.044,4.136c-.474,1.481-1.144,2.932-1.745,4.366-1.309,3.122-2.72,6.2-4.018,9.328l-3.082-.59c.587-1.752,1.156-4.461,1.708-6.225.455-1.444,1.04-2.846,1.467-4.3.9-3.034.367-5.833-.218-8.85-.636-3.266-1.314-6.525-2-9.779l-.051-.239,9.876-1.576" transform="translate(13.525 86.441)" fill="#e6b046"/>
        <path id="Trazado_773107" data-name="Trazado 773107" d="M10.347,76.353C10.6,72.623,11.8,62.954,17.3,58.5a1.32,1.32,0,0,1,1.606-.023L20.439,59.6a3.247,3.247,0,0,1,1.325,2.472c.146,3.238.457,10.668.385,13.787a1.321,1.321,0,0,1-1.235,1.286l-9.157.615a1.323,1.323,0,0,1-1.411-1.411" transform="translate(13.665 76.911)" fill="#5573c6"/>
        <path id="Trazado_773108" data-name="Trazado 773108" d="M18.131,66.373a4.089,4.089,0,0,0,3.607-.49l-2.166-.666,1.339-.046s-.053-.5-.887-.5l-.812,0a.994.994,0,0,0-1.107.22Z" transform="translate(23.918 85.329)" fill="#fa977a"/>
        <path id="Trazado_773109" data-name="Trazado 773109" d="M12.883,62.971a2.538,2.538,0,0,1,1.086-3.187,1.972,1.972,0,0,1,2.08-.313,2.313,2.313,0,0,1,.891,1.04,3.948,3.948,0,0,1,.411,1.53s.128,5.32,1.2,6.75,6.952,2.943,6.952,2.943l-.169,1.648s-6.708.483-8.864-2.238-3.05-7.133-3.591-8.173" transform="translate(16.711 78.321)" fill="#fa977a"/>
        <path id="Trazado_773110" data-name="Trazado 773110" d="M17.921,64.6s.364-5.766-2.76-5.536-2.6,4.44-2.43,6.111Z" transform="translate(16.631 78.021)" fill="#5573c6"/>
        <path id="Trazado_773111" data-name="Trazado 773111" d="M15.309,57.049a.608.608,0,0,1-.272.8.69.69,0,0,1-.429-1.265.608.608,0,0,1,.7.467" transform="translate(18.878 74.722)" fill="#fa977a"/>
        <rect id="Rectángulo_365114" data-name="Rectángulo 365114" width="1.759" height="2.288" transform="translate(142.272 139.097) rotate(-8.034)" fill="#f9af88"/>
        <path id="Trazado_773112" data-name="Trazado 773112" d="M64.56,60.66l.137.977a.321.321,0,0,1-.276.364c-1.014.135-4.08.518-4.025.214.067-.364,2.217-1.084,2.217-1.084Z" transform="translate(79.788 80.137)" fill="#373f51"/>
        <rect id="Rectángulo_365115" data-name="Rectángulo 365115" width="1.759" height="2.288" transform="translate(146.694 141.062) rotate(-8.034)" fill="#f9af88"/>
        <path id="Trazado_773113" data-name="Trazado 773113" d="M66.465,61.507l.137.977a.321.321,0,0,1-.276.364c-1.014.135-4.08.518-4.025.214.067-.364,2.217-1.084,2.217-1.084Z" transform="translate(82.305 81.256)" fill="#373f51"/>
        <path id="Trazado_773114" data-name="Trazado 773114" d="M61.3,52.713a4.179,4.179,0,0,0-.576.476c-2.219,2.214-.722,6.59-.081,9.159a72.947,72.947,0,0,0,3.071,9.447H66.1l-1.959-12.74A2.393,2.393,0,0,1,66.507,56.3H76.831l.757-2.572c-3.229,0-7.209-2.2-10.438-2.2-1.8,0-4.222.07-5.847,1.186" transform="translate(78.678 68.072)" fill="#3c5691"/>
        <path id="Trazado_773115" data-name="Trazado 773115" d="M63.2,53.659a4.321,4.321,0,0,0-.576.476c-2.219,2.214-.722,6.59-.081,9.159a72.945,72.945,0,0,0,3.071,9.447h2.384L66.035,60A2.393,2.393,0,0,1,68.4,57.243h6.928a3.4,3.4,0,0,0,3.4-3.4,1.373,1.373,0,0,0-1.372-1.374h-8.31c-1.8,0-4.222.07-5.847,1.186" transform="translate(81.18 69.321)" fill="#5573c6"/>
        <path id="Trazado_773116" data-name="Trazado 773116" d="M66.968,44.825l-.689,2.166,2.579-.52a2.526,2.526,0,0,1,.107-1.741,4.524,4.524,0,0,0-2,.1" transform="translate(87.56 58.995)" fill="#f08668"/>
        <path id="Trazado_773117" data-name="Trazado 773117" d="M65.9,44.812l0,.009c.23-4.108,3.273-2.681,3.273-2.681,1.038.276,2.795,1.555,2.407,2.832s-.794,3.962-2.964,4.38c-1.824.353-2.62.046-2.732-2.609a.709.709,0,0,1-.332-.181c-.337-.311.346-1.75.346-1.75" transform="translate(86.478 55.354)" fill="#fa977a"/>
        <path id="Trazado_773118" data-name="Trazado 773118" d="M65.044,60.864c6.536,2.7,8.521,1.492,8.521,1.492,1.544-6.392-.063-16.963-1.843-17.062a11.5,11.5,0,0,0-2.922.376,3.881,3.881,0,0,0-2.785,2.488,7.891,7.891,0,0,0-.23,5.362c1.286,3.154-.74,7.344-.74,7.344" transform="translate(85.929 59.828)" fill="#fff"/>
        <line id="Línea_3660" data-name="Línea 3660" x1="16.661" y1="1.523" transform="translate(135.802 121.074)" fill="none" stroke="#373f51" stroke-miterlimit="10" stroke-width="0.246"/>
        <path id="Trazado_773119" data-name="Trazado 773119" d="M70.9,57.479l-3.078-7.523L57.2,48.986l3.078,7.523Z" transform="translate(75.563 64.715)" fill="#373f51"/>
        <path id="Trazado_773120" data-name="Trazado 773120" d="M65.062,51.857a3.378,3.378,0,0,1-2.976-.4l1.785-.55-1.1-.037s.042-.413.731-.409l.671,0a.817.817,0,0,1,.912.183Z" transform="translate(82.021 66.563)" fill="#fa977a"/>
        <path id="Trazado_773121" data-name="Trazado 773121" d="M73.723,49.049a2.092,2.092,0,0,0-.9-2.627,1.627,1.627,0,0,0-1.715-.26,1.918,1.918,0,0,0-.736.859,3.306,3.306,0,0,0-.339,1.26s-.1,4.389-.993,5.568-5.735,2.428-5.735,2.428l.142,1.36s5.533.4,7.311-1.848,2.516-5.882,2.962-6.74" transform="translate(83.635 60.782)" fill="#fa977a"/>
        <path id="Trazado_773122" data-name="Trazado 773122" d="M66.039,50.394s-.3-4.756,2.275-4.566,2.152,3.663,2.008,5.041Z" transform="translate(87.229 60.536)" fill="#fff"/>
        <path id="Trazado_773123" data-name="Trazado 773123" d="M65.856,42.754a5.781,5.781,0,0,0,1.882,2.214c1.246.8,1.7,4.255.954,6.634-.427,1.369.518,2.3,1.609,2.98a1.316,1.316,0,0,0,1.239.165,2.787,2.787,0,0,0,.722-.708.853.853,0,0,1,.894-.33c.506.211.682,1.017,1.344.45a2.793,2.793,0,0,0-.838-4.526.968.968,0,0,1-.425-.22c-.594-.645.132-1.917.239-2.621a2.807,2.807,0,0,0-.578-2.217c-.508-.587-1.351-.585-1.866-1.14-.353-.383-.429-.952-.845-1.286a2.44,2.44,0,0,0-1.548-.374c-2.806.016-2.783.977-2.783.977" transform="translate(87.002 55.191)" fill="#12263f"/>
        <path id="Trazado_773124" data-name="Trazado 773124" d="M55.558,49.624H63.8a1.97,1.97,0,0,0,1.968-1.971V47.4A1.968,1.968,0,0,0,63.8,45.432h-8.24A1.969,1.969,0,0,0,53.585,47.4v.253a1.971,1.971,0,0,0,1.973,1.971" transform="translate(70.791 60.02)" fill="#fcfffa"/>
        <path id="Trazado_773125" data-name="Trazado 773125" d="M57.032,46.842a.891.891,0,1,0,.891-.891.892.892,0,0,0-.891.891" transform="translate(75.344 60.705)" fill="#e8e8e8"/>
        <path id="Trazado_773126" data-name="Trazado 773126" d="M55.826,46.842a.891.891,0,1,0,.891-.891.892.892,0,0,0-.891.891" transform="translate(73.751 60.705)" fill="#e8e8e8"/>
        <path id="Trazado_773127" data-name="Trazado 773127" d="M54.619,46.842a.891.891,0,1,0,.891-.891.892.892,0,0,0-.891.891" transform="translate(72.157 60.705)" fill="#e8e8e8"/>
        <path id="Trazado_773128" data-name="Trazado 773128" d="M59.378,47.209H57.164l1.107,1.662Z" transform="translate(75.518 62.368)" fill="#fcfffa"/>
      </g>
    </g>
  </g>
</svg>
