<svg xmlns="http://www.w3.org/2000/svg" xmlns:xlink="http://www.w3.org/1999/xlink" width="373" height="370" viewBox="0 0 373 370">
  <defs>
    <linearGradient id="linear-gradient" x1="0.5" x2="0.5" y2="1" gradientUnits="objectBoundingBox">
      <stop offset="0" stop-color="#dedede"/>
      <stop offset="0.517" stop-color="#fff"/>
      <stop offset="1" stop-color="#dedede"/>
    </linearGradient>
    <clipPath id="clip-path">
      <rect id="Rectángulo_364396" data-name="Rectángulo 364396" width="373" height="370" transform="translate(0.013 0)" fill="#fff" stroke="#707070" stroke-width="1"/>
    </clipPath>
    <clipPath id="clip-path-2">
      <ellipse id="Elipse_8575" data-name="Elipse 8575" cx="164.5" cy="163.5" rx="164.5" ry="163.5" transform="translate(-0.403 -0.206)" fill="#373f51" stroke="#707070" stroke-width="1"/>
    </clipPath>
    <clipPath id="clip-path-3">
      <rect id="Rectángulo_366210" data-name="Rectángulo 366210" width="250.472" height="252.06" fill="none"/>
    </clipPath>
    <clipPath id="clip-path-4">
      <rect id="Rectángulo_366167" data-name="Rectángulo 366167" width="250.472" height="252.059" fill="#e8e8e8"/>
    </clipPath>
    <clipPath id="clip-path-5">
      <path id="Trazado_779730" data-name="Trazado 779730" d="M73.872,445.97a5.334,5.334,0,0,1-7.534,3.564A45.958,45.958,0,0,0,1.38,480.613C-5.962,511.949,17,539.89,46.329,539.89H217.653c18.522,0,33.583-15.719,32.789-34.693-.691-16.524-13.147-29.921-29-31.613-1.972-.331-3.292-1.648-3.436-4.749.019-1.443.04-2.947.04-4.048,0-41.479-32.794-75.1-73.249-75.1-34.116,0-62.783,23.915-70.928,56.287" transform="translate(0 -389.683)" fill="none"/>
    </clipPath>
    <clipPath id="clip-path-6">
      <rect id="Rectángulo_366170" data-name="Rectángulo 366170" width="250.472" height="252.059" fill="none"/>
    </clipPath>
    <clipPath id="clip-path-7">
      <rect id="Rectángulo_366169" data-name="Rectángulo 366169" width="223.639" height="134.115" fill="none"/>
    </clipPath>
    <clipPath id="clip-path-8">
      <path id="Trazado_779732" data-name="Trazado 779732" d="M180.808,855.138a6.361,6.361,0,0,0-1.87,4.656l1.877,79.368a2.533,2.533,0,0,0,2.527,2.525H319.993a2.533,2.533,0,0,0,2.527-2.525l1.137-78.53a4.4,4.4,0,0,0-4.634-3.9l-133.55-3.456-.165,0a6.373,6.373,0,0,0-4.5,1.859" transform="translate(-178.936 -853.279)" fill="url(#linear-gradient)"/>
    </clipPath>
    <linearGradient id="linear-gradient-3" x1="-0.135" y1="0.902" x2="-0.134" y2="0.902" xlink:href="#linear-gradient"/>
    <clipPath id="clip-path-10">
      <path id="Rectángulo_366174" data-name="Rectángulo 366174" d="M2.788,0H158.317a2.789,2.789,0,0,1,2.789,2.789V4.112A2.788,2.788,0,0,1,158.318,6.9H2.788A2.788,2.788,0,0,1,0,4.112V2.788A2.788,2.788,0,0,1,2.788,0Z" fill="url(#linear-gradient)"/>
    </clipPath>
    <linearGradient id="linear-gradient-4" x1="-1.823" y1="0.531" x2="-1.818" y2="0.531" xlink:href="#linear-gradient"/>
    <clipPath id="clip-path-12">
      <rect id="Rectángulo_366175" data-name="Rectángulo 366175" width="34.369" height="4.44" fill="none"/>
    </clipPath>
    <clipPath id="clip-path-16">
      <rect id="Rectángulo_366179" data-name="Rectángulo 366179" width="49.413" height="4.44" fill="none"/>
    </clipPath>
    <clipPath id="clip-path-18">
      <rect id="Rectángulo_366181" data-name="Rectángulo 366181" width="29.279" height="4.44" fill="none"/>
    </clipPath>
    <clipPath id="clip-path-19">
      <rect id="Rectángulo_366182" data-name="Rectángulo 366182" width="15.547" height="20.218" fill="none"/>
    </clipPath>
    <clipPath id="clip-path-20">
      <rect id="Rectángulo_366183" data-name="Rectángulo 366183" width="13.526" height="13.53" fill="none"/>
    </clipPath>
    <clipPath id="clip-path-21">
      <rect id="Rectángulo_366184" data-name="Rectángulo 366184" width="34.286" height="35.2" fill="none"/>
    </clipPath>
    <clipPath id="clip-path-22">
      <rect id="Rectángulo_366185" data-name="Rectángulo 366185" width="7.389" height="7.393" fill="none"/>
    </clipPath>
    <clipPath id="clip-path-23">
      <rect id="Rectángulo_366186" data-name="Rectángulo 366186" width="18.037" height="18.52" fill="none"/>
    </clipPath>
    <clipPath id="clip-path-24">
      <path id="Trazado_779764" data-name="Trazado 779764" d="M746.209,451.954c-13.3,13.61-33.653,18.864-44.561,17.883a3.593,3.593,0,0,0-3.913,3.665c.7,30.2-1.456,70.963,48.863,102.306a3.6,3.6,0,0,0,3.44.2c10.1-4.782,58.776-31.875,51.035-106.642a3.591,3.591,0,0,0-3.371-3.217c-8.512-.468-33.033-2.758-47.826-13.814a4.238,4.238,0,0,0-2.365-.884,1.756,1.756,0,0,0-1.3.5" transform="translate(-697.733 -451.45)" fill="none"/>
    </clipPath>
    <linearGradient id="linear-gradient-5" x1="-0.585" y1="1.137" x2="-0.584" y2="1.137" gradientUnits="objectBoundingBox">
      <stop offset="0" stop-color="#ff928e"/>
      <stop offset="1" stop-color="#f4a338"/>
    </linearGradient>
    <clipPath id="clip-path-26">
      <rect id="Rectángulo_366189" data-name="Rectángulo 366189" width="93.415" height="112.64" fill="none"/>
    </clipPath>
    <clipPath id="clip-path-27">
      <rect id="Rectángulo_366190" data-name="Rectángulo 366190" width="36.916" height="21.232" fill="#fff"/>
    </clipPath>
    <clipPath id="clip-path-28">
      <rect id="Rectángulo_366191" data-name="Rectángulo 366191" width="47.001" height="38.056" fill="#fff"/>
    </clipPath>
    <clipPath id="clip-path-29">
      <path id="Trazado_779768" data-name="Trazado 779768" d="M102.129,678.12c-.264.693-2.021,5.81-1.288,5.694a37.017,37.017,0,0,0,16.982-8.017c-.382-6.409-3.5-6.574-3.5-6.574-6.983,3.476-10.94,5.6-12.2,8.9" transform="translate(-100.663 -669.222)" fill="none"/>
    </clipPath>
    <linearGradient id="linear-gradient-6" x1="-0.666" y1="5.836" x2="-0.658" y2="5.836" gradientUnits="objectBoundingBox">
      <stop offset="0" stop-color="#373f51"/>
      <stop offset="1" stop-color="#373f51"/>
    </linearGradient>
    <clipPath id="clip-path-31">
      <path id="Trazado_779770" data-name="Trazado 779770" d="M19.175,857.837c-.29,1.74.131,3.465,2.987,3.085,2.937-.391,6.48-2.2,8.774-3.529a23.348,23.348,0,0,0,3.863-4.145l-2.143-1.311a24.716,24.716,0,0,0-13.481,5.9" transform="translate(-19.097 -851.937)" fill="none"/>
    </clipPath>
    <linearGradient id="linear-gradient-7" x1="-0.111" y1="5.915" x2="-0.101" y2="5.915" xlink:href="#linear-gradient-6"/>
    <clipPath id="clip-path-33">
      <path id="Trazado_779774" data-name="Trazado 779774" d="M223.33,541.311l-5.776-.681-1.363,2.173,13.549.432a37.061,37.061,0,0,0,17.718-17.087c.2-.413,3.582-7.39-4.575-8.017,0,0-3.314,16.609-19.553,23.18" transform="translate(-216.191 -518.131)" fill="none"/>
    </clipPath>
    <linearGradient id="linear-gradient-8" x1="-0.828" y1="3.98" x2="-0.824" y2="3.98" gradientUnits="objectBoundingBox">
      <stop offset="0" stop-color="#e5b7b7"/>
      <stop offset="1" stop-color="#ff928e"/>
    </linearGradient>
    <clipPath id="clip-path-34">
      <path id="Trazado_779775" data-name="Trazado 779775" d="M359.508,433.005c-.574.143-8.236,10.449-9.5,13.074a1.246,1.246,0,0,0,.486,1.616,43.511,43.511,0,0,1,4.481,3.392,88.716,88.716,0,0,1-4.579,20.2c4.8,4.913,10.082,6.54,15.728,5.62,17.545-16.864,22.18-33.148,18.313-38.438-4.4-6.021-9.7-7.649-14.343-7.649-4.858,0-8.986,1.787-10.582,2.185" transform="translate(-349.88 -430.82)" fill="none"/>
    </clipPath>
    <linearGradient id="linear-gradient-9" x1="-0.869" y1="2.983" x2="-0.866" y2="2.983" xlink:href="#linear-gradient-5"/>
    <clipPath id="clip-path-35">
      <path id="Trazado_779776" data-name="Trazado 779776" d="M247.21,568.358s-3.46-3.154-6.032-2.028-6.1,6.1-6.1,6.1h17.189s16.253-.573,24.375-10.428c-.653-3.449-2.611-5.509-5.573-7.851,0,0-10.471,12.4-23.858,14.211" transform="translate(-235.077 -554.147)" fill="none"/>
    </clipPath>
    <linearGradient id="linear-gradient-10" x1="-0.936" y1="4.109" x2="-0.932" y2="4.109" xlink:href="#linear-gradient-8"/>
    <clipPath id="clip-path-36">
      <path id="Trazado_779777" data-name="Trazado 779777" d="M425.61,396.8l.543,6.657a1.246,1.246,0,0,0,.8,1.07,8.537,8.537,0,0,0,7.941-.8.84.84,0,0,0,.326-.936l-2.291-7.641Z" transform="translate(-425.61 -395.15)" fill="none"/>
    </clipPath>
    <linearGradient id="linear-gradient-11" x1="-7.105" y1="15.238" x2="-7.089" y2="15.238" xlink:href="#linear-gradient-8"/>
    <clipPath id="clip-path-37">
      <path id="Trazado_779778" data-name="Trazado 779778" d="M392.219,337.858s1.126,7.921,4.169,10.357,8.971.6,10.973-5.37l-3.99-10.21Z" transform="translate(-392.219 -332.635)" fill="none"/>
    </clipPath>
    <linearGradient id="linear-gradient-12" x1="-3.159" y1="9.747" x2="-3.151" y2="9.747" xlink:href="#linear-gradient-8"/>
    <clipPath id="clip-path-38">
      <path id="Trazado_779779" data-name="Trazado 779779" d="M377.017,298.2a.39.39,0,0,1-.61.01,3.709,3.709,0,0,0-4.281-.982c-2.58.818-2.69,3.365-2.608,4.473a.392.392,0,0,1-.466.411c-6.646-1.248-4.1,5.49-1.584,6.829,2.579,1.373,6.96-.933,9.877-2.5s2.626-.531,2.626-.531a10.24,10.24,0,0,1,.939,3.164.392.392,0,0,0,.51.314l.739-.238a.394.394,0,0,1,.484.223l1.7,4.06a.4.4,0,0,0,.658.114c2.213-2.491,2.371-6.907,2.377-7.92a.393.393,0,0,1,.178-.324c.666-.443,2.886-2.131,1.333-4.077a2.353,2.353,0,0,0-3.027-.9.391.391,0,0,1-.557-.373c.039-.914-.331-2.381-2.713-3.431a4.521,4.521,0,0,0-1.834-.411,4.925,4.925,0,0,0-3.745,2.091" transform="translate(-364.814 -296.106)" fill="none"/>
    </clipPath>
    <linearGradient id="linear-gradient-13" x1="-3.019" y1="6.669" x2="-3.01" y2="6.669" xlink:href="#linear-gradient-6"/>
    <clipPath id="clip-path-39">
      <path id="Trazado_779780" data-name="Trazado 779780" d="M455.585,359.3l.4,2.12c1.811-.577,3.8-3.606,2.223-4.983a.96.96,0,0,0-.629-.275c-1.222,0-1.992,3.137-1.992,3.137" transform="translate(-455.585 -356.16)" fill="none"/>
    </clipPath>
    <linearGradient id="linear-gradient-14" x1="-13.14" y1="33.748" x2="-13.111" y2="33.748" xlink:href="#linear-gradient-8"/>
    <clipPath id="clip-path-40">
      <path id="Trazado_779781" data-name="Trazado 779781" d="M119.053,506.353l8.628,24.58a2.163,2.163,0,0,0,1.824,1.436l10.261,1.139,1.262-.8-7.718-25.738a2.632,2.632,0,0,0-2.341-1.87l-10.42-.713c-.035,0-.07,0-.1,0a1.478,1.478,0,0,0-1.39,1.968" transform="translate(-118.968 -504.385)" fill="none"/>
    </clipPath>
    <linearGradient id="linear-gradient-15" x1="-0.962" y1="5.494" x2="-0.954" y2="5.494" xlink:href="#linear-gradient-6"/>
    <clipPath id="clip-path-42">
      <path id="Trazado_779783" data-name="Trazado 779783" d="M250.337,647.138l-21.864,1.1a.98.98,0,0,0,.049,1.959h.05l21.864-1.105a.98.98,0,0,0-.034-1.959l-.064,0" transform="translate(-227.542 -647.136)" fill="none"/>
    </clipPath>
    <linearGradient id="linear-gradient-16" x1="-5.267" y1="6.054" x2="-5.247" y2="6.054" xlink:href="#linear-gradient-6"/>
    <clipPath id="clip-path-43">
      <path id="Trazado_779784" data-name="Trazado 779784" d="M378.723,482.281a46.766,46.766,0,0,0-1.779,10.785.152.152,0,0,0,.152.151h0a.152.152,0,0,0,.151-.152,46.427,46.427,0,0,1,1.766-10.7.151.151,0,0,0-.1-.188.149.149,0,0,0-.043-.006.152.152,0,0,0-.146.109" transform="translate(-376.944 -482.172)" fill="none"/>
    </clipPath>
    <linearGradient id="linear-gradient-17" x1="-5.76" y1="56.72" x2="-5.743" y2="56.72" gradientUnits="objectBoundingBox">
      <stop offset="0" stop-color="#a56619"/>
      <stop offset="1" stop-color="#ad6817"/>
    </linearGradient>
    <clipPath id="clip-path-44">
      <path id="Trazado_779785" data-name="Trazado 779785" d="M437.879,497.191c-1.627,4.122-6.379,10.163-6.427,10.224a.151.151,0,1,0,.238.188c.048-.061,4.828-6.137,6.471-10.3a.151.151,0,0,0-.085-.2.148.148,0,0,0-.057-.011.151.151,0,0,0-.14.1" transform="translate(-431.42 -497.094)" fill="none"/>
    </clipPath>
    <linearGradient id="linear-gradient-18" x1="-6.977" y1="21.412" x2="-6.96" y2="21.412" xlink:href="#linear-gradient-17"/>
    <clipPath id="clip-path-45">
      <path id="Trazado_779786" data-name="Trazado 779786" d="M476.226,542.6c-.042.082-4.217,8.149-10.96,11.105l-.723-1.022a.152.152,0,0,0-.247.175l.865,1.223.113-.048c6.912-2.959,11.181-11.212,11.223-11.295a.152.152,0,0,0-.066-.2.151.151,0,0,0-.2.066" transform="translate(-464.268 -542.518)" fill="none"/>
    </clipPath>
    <linearGradient id="linear-gradient-19" x1="-6.866" y1="11.818" x2="-6.852" y2="11.818" xlink:href="#linear-gradient-17"/>
  </defs>
  <g id="Grupo_1034055" data-name="Grupo 1034055" transform="translate(-358 -22352.695)">
    <g id="Enmascarar_grupo_1018746" data-name="Enmascarar grupo 1018746" transform="translate(357.986 22352.695)" clip-path="url(#clip-path)">
      <g id="Grupo_1031746" data-name="Grupo 1031746" transform="translate(6.556 6.663)">
        <g id="Grupo_1031742" data-name="Grupo 1031742" transform="translate(0 359.466) rotate(-90)">
          <path id="Sustracción_35" data-name="Sustracción 35" d="M0,365.843V0A184.271,184.271,0,0,1,36.865,3.716,182,182,0,0,1,71.2,14.375,182.936,182.936,0,0,1,102.273,31.24a184.236,184.236,0,0,1,27.072,22.336,184.235,184.235,0,0,1,22.336,27.072,182.936,182.936,0,0,1,16.865,31.072,182,182,0,0,1,10.659,34.336,184.273,184.273,0,0,1,3.716,36.865,184.273,184.273,0,0,1-3.716,36.865,182,182,0,0,1-10.659,34.336,182.937,182.937,0,0,1-16.865,31.072,184.235,184.235,0,0,1-22.336,27.072A184.236,184.236,0,0,1,102.273,334.6,182.94,182.94,0,0,1,71.2,351.468a182,182,0,0,1-34.336,10.659A184.276,184.276,0,0,1,0,365.843Z" transform="translate(182.922 365.843) rotate(180)" fill="#5573c6"/>
          <path id="Sustracción_36" data-name="Sustracción 36" d="M0,365.842V0A184.271,184.271,0,0,1,36.865,3.716,182,182,0,0,1,71.2,14.375,182.938,182.938,0,0,1,102.273,31.24a184.235,184.235,0,0,1,27.072,22.336,184.236,184.236,0,0,1,22.336,27.072,182.936,182.936,0,0,1,16.865,31.072,182,182,0,0,1,10.659,34.336,184.273,184.273,0,0,1,3.716,36.865,184.272,184.272,0,0,1-3.716,36.865,181.994,181.994,0,0,1-10.659,34.336,182.93,182.93,0,0,1-16.865,31.072,184.232,184.232,0,0,1-22.336,27.072A184.232,184.232,0,0,1,102.273,334.6,182.941,182.941,0,0,1,71.2,351.467a182,182,0,0,1-34.336,10.658A184.273,184.273,0,0,1,0,365.842Z" transform="translate(176.544 0)" fill="#e8e8e8"/>
        </g>
        <g id="Enmascarar_grupo_1018745" data-name="Enmascarar grupo 1018745" transform="translate(18.86 16.543)" clip-path="url(#clip-path-2)">
          <rect id="Imagen_1479" data-name="Imagen 1479" width="505" height="337" transform="translate(-88.402 -10.206)" fill="#373f51"/>
        </g>
        <g id="Grupo_1031745" data-name="Grupo 1031745" transform="matrix(0.966, -0.259, 0.259, 0.966, 255.356, 275.933)" style="isolation: isolate">
          <g id="Grupo_1031743" data-name="Grupo 1031743" transform="translate(0 6.886)">
            <path id="Trazado_772888" data-name="Trazado 772888" d="M.109,30.559C.037,29.633,0,28.688,0,27.75A35.335,35.335,0,0,1,13.365,0l.257.322A34.924,34.924,0,0,0,.412,27.75c0,.926.036,1.861.108,2.777Z" transform="translate(0 0)" fill="#4adbd1"/>
          </g>
          <g id="Grupo_1031744" data-name="Grupo 1031744" transform="translate(17.339 0)">
            <path id="Trazado_772889" data-name="Trazado 772889" d="M.211,4.488,0,4.134A35.243,35.243,0,0,1,10.387,0l.09.4A34.816,34.816,0,0,0,.211,4.488Z" transform="translate(0)" fill="#4adbd1"/>
          </g>
          <path id="Trazado_772890" data-name="Trazado 772890" d="M29.691,0a29.69,29.69,0,1,0,29.69,29.691A29.691,29.691,0,0,0,29.691,0Zm0,50.685A20.994,20.994,0,1,1,50.685,29.691,20.994,20.994,0,0,1,29.691,50.685Z" transform="translate(5.797 4.946)" fill="#4adbd1" style="mix-blend-mode: multiply;isolation: isolate"/>
        </g>
        <path id="Trazado_772891" data-name="Trazado 772891" d="M8.369,0a8.369,8.369,0,1,0,8.369,8.369A8.369,8.369,0,0,0,8.369,0Zm0,14.287a5.918,5.918,0,1,1,5.918-5.918A5.918,5.918,0,0,1,8.369,14.287Z" transform="matrix(0.966, -0.259, 0.259, 0.966, 56.631, 20.834)" fill="#0f0140" style="mix-blend-mode: multiply;isolation: isolate"/>
        <ellipse id="Elipse_8576" data-name="Elipse 8576" cx="7.5" cy="8" rx="7.5" ry="8" transform="translate(327.457 269.337)" fill="#f6f6f6"/>
        <ellipse id="Elipse_8577" data-name="Elipse 8577" cx="22" cy="21.5" rx="22" ry="21.5" transform="translate(33.457 37.337)" fill="#4adbd1"/>
      </g>
    </g>
    <g id="Grupo_1033150" data-name="Grupo 1033150" transform="translate(419.265 22407.666)">
      <g id="Grupo_1033149" data-name="Grupo 1033149" clip-path="url(#clip-path-3)">
        <g id="Grupo_1033050" data-name="Grupo 1033050" transform="translate(0 0.001)">
          <g id="Grupo_1033049" data-name="Grupo 1033049" clip-path="url(#clip-path-4)">
            <path id="Trazado_779729" data-name="Trazado 779729" d="M270.049,201.969c-23.253,55.551-85.192,86.672-138.906,78.277-8.74-1.366-32.7-5.435-53.917-24.631C36.385,218.661,27.651,145.488,60.6,93.921c23.978-37.532,66.961-58.807,107.8-57.743,8.8.229,42.513,1.642,72.143,26.432a112.2,112.2,0,0,1,22.6,26.02c20.314,32.232,22.06,77.138,6.906,113.341" transform="translate(-33.05 -29.544)" fill="#e8e8e8"/>
          </g>
        </g>
        <g id="Grupo_1033052" data-name="Grupo 1033052" transform="translate(0 71.131)">
          <g id="Grupo_1033051" data-name="Grupo 1033051" clip-path="url(#clip-path-5)">
            <rect id="Rectángulo_366168" data-name="Rectángulo 366168" width="297.56" height="265.584" transform="translate(-74.357 44.077) rotate(-32.8)" fill="#4adbd1"/>
          </g>
        </g>
        <g id="Grupo_1033057" data-name="Grupo 1033057" transform="translate(0 0.001)">
          <g id="Grupo_1033056" data-name="Grupo 1033056" clip-path="url(#clip-path-6)">
            <g id="Grupo_1033055" data-name="Grupo 1033055" transform="translate(13.417 87.222)" opacity="0.21">
              <g id="Grupo_1033054" data-name="Grupo 1033054">
                <g id="Grupo_1033053" data-name="Grupo 1033053" clip-path="url(#clip-path-7)">
                  <path id="Trazado_779731" data-name="Trazado 779731" d="M74.734,559.029a41.034,41.034,0,0,1,58-27.75,4.763,4.763,0,0,0,6.728-3.182c7.273-28.9,32.868-50.257,63.33-50.257,36.12,0,65.4,30.023,65.4,67.058,0,.983-.019,2.326-.036,3.615.128,2.769,1.307,3.945,3.068,4.241,14.152,1.51,25.273,13.472,25.891,28.226a29.584,29.584,0,0,1-29.276,30.976H114.868c-26.186,0-46.689-24.948-40.134-52.927" transform="translate(-73.502 -477.841)" fill="#5573c6"/>
                </g>
              </g>
            </g>
          </g>
        </g>
        <g id="Grupo_1033059" data-name="Grupo 1033059" transform="translate(32.662 155.754)">
          <g id="Grupo_1033058" data-name="Grupo 1033058" clip-path="url(#clip-path-8)">
            <rect id="Rectángulo_366171" data-name="Rectángulo 366171" width="165.288" height="129.648" transform="translate(-26.562 8.841) rotate(-18.435)" fill="url(#linear-gradient-3)"/>
          </g>
        </g>
        <g id="Grupo_1033061" data-name="Grupo 1033061" transform="translate(0 0.001)">
          <g id="Grupo_1033060" data-name="Grupo 1033060" clip-path="url(#clip-path-6)">
            <path id="Trazado_779733" data-name="Trazado 779733" d="M194.363,950.152a2.4,2.4,0,0,0,2.391,2.391h131a2.4,2.4,0,0,0,2.391-2.391l1.073-71.29a5.884,5.884,0,0,0-6.167-5.741l-128-3.434a4.476,4.476,0,0,0-4.592,4.58Z" transform="translate(-157.328 -710.938)" fill="#5573c6"/>
            <path id="Trazado_779734" data-name="Trazado 779734" d="M937.417,1095.94h0a.351.351,0,0,1-.347-.356l.085-5.782a.35.35,0,0,1,.35-.345h0a.35.35,0,0,1,.347.356l-.085,5.781a.35.35,0,0,1-.35.345" transform="translate(-766.019 -890.593)" fill="#fff"/>
            <path id="Trazado_779735" data-name="Trazado 779735" d="M732.62,918.676h-.005a.351.351,0,0,1-.345-.356l.325-22.143a4.158,4.158,0,0,0-1.187-3.114,5.854,5.854,0,0,0-3.872-1.322l-40.91-1.1a.35.35,0,0,1-.341-.359.335.335,0,0,1,.36-.341l40.886,1.1a6.434,6.434,0,0,1,4.362,1.515,4.837,4.837,0,0,1,1.4,3.624l-.325,22.15a.351.351,0,0,1-.35.345" transform="translate(-561.013 -727.498)" fill="#fff"/>
          </g>
        </g>
        <g id="Grupo_1033063" data-name="Grupo 1033063" transform="translate(23.455 243.78)">
          <g id="Grupo_1033062" data-name="Grupo 1033062" clip-path="url(#clip-path-10)">
            <rect id="Rectángulo_366173" data-name="Rectángulo 366173" width="44.782" height="158.172" transform="translate(-1.585 6.514) rotate(-76.329)" fill="url(#linear-gradient-4)"/>
          </g>
        </g>
        <g id="Grupo_1033101" data-name="Grupo 1033101" transform="translate(0 0.001)">
          <g id="Grupo_1033100" data-name="Grupo 1033100" clip-path="url(#clip-path-6)">
            <path id="Trazado_779736" data-name="Trazado 779736" d="M273.288,979.557H222.851a3.367,3.367,0,0,1-3.367-3.367V910.353a3.367,3.367,0,0,1,3.5-3.365l50.437,1.93a3.367,3.367,0,0,1,3.239,3.365V976.19a3.367,3.367,0,0,1-3.367,3.367" transform="translate(-179.42 -741.43)" fill="#5573c6"/>
            <g id="Grupo_1033066" data-name="Grupo 1033066" transform="translate(49.947 191.385)" opacity="0.51">
              <g id="Grupo_1033065" data-name="Grupo 1033065">
                <g id="Grupo_1033064" data-name="Grupo 1033064" clip-path="url(#clip-path-12)">
                  <path id="Trazado_779737" data-name="Trazado 779737" d="M307.517,1052.929H274.108a.48.48,0,0,1-.48-.48v-3.48a.48.48,0,0,1,.48-.48h33.409a.48.48,0,0,1,.48.48v3.48a.48.48,0,0,1-.48.48" transform="translate(-273.628 -1048.489)" fill="#fff"/>
                </g>
              </g>
            </g>
            <g id="Grupo_1033069" data-name="Grupo 1033069" transform="translate(50.015 198.476)" opacity="0.51">
              <g id="Grupo_1033068" data-name="Grupo 1033068">
                <g id="Grupo_1033067" data-name="Grupo 1033067" clip-path="url(#clip-path-12)">
                  <path id="Trazado_779738" data-name="Trazado 779738" d="M307.888,1091.773H274.479a.48.48,0,0,1-.48-.48v-3.48a.48.48,0,0,1,.48-.48h33.409a.48.48,0,0,1,.48.48v3.48a.48.48,0,0,1-.48.48" transform="translate(-273.999 -1087.333)" fill="#fff"/>
                </g>
              </g>
            </g>
            <g id="Grupo_1033072" data-name="Grupo 1033072" transform="translate(50.216 205.715)" opacity="0.51">
              <g id="Grupo_1033071" data-name="Grupo 1033071">
                <g id="Grupo_1033070" data-name="Grupo 1033070" clip-path="url(#clip-path-12)">
                  <path id="Trazado_779739" data-name="Trazado 779739" d="M308.991,1131.43H275.582a.48.48,0,0,1-.48-.48v-3.48a.48.48,0,0,1,.48-.48h33.409a.48.48,0,0,1,.48.48v3.48a.48.48,0,0,1-.48.48" transform="translate(-275.102 -1126.99)" fill="#fff"/>
                </g>
              </g>
            </g>
            <g id="Grupo_1033075" data-name="Grupo 1033075" transform="translate(50.283 212.805)" opacity="0.51">
              <g id="Grupo_1033074" data-name="Grupo 1033074">
                <g id="Grupo_1033073" data-name="Grupo 1033073" clip-path="url(#clip-path-12)">
                  <path id="Trazado_779740" data-name="Trazado 779740" d="M309.361,1170.274H275.952a.48.48,0,0,1-.48-.48v-3.48a.48.48,0,0,1,.48-.48h33.409a.48.48,0,0,1,.48.48v3.48a.48.48,0,0,1-.48.48" transform="translate(-275.472 -1165.834)" fill="#fff"/>
                </g>
              </g>
            </g>
            <g id="Grupo_1033078" data-name="Grupo 1033078" transform="translate(108.172 191.38)" opacity="0.51">
              <g id="Grupo_1033077" data-name="Grupo 1033077">
                <g id="Grupo_1033076" data-name="Grupo 1033076" clip-path="url(#clip-path-16)">
                  <path id="Trazado_779741" data-name="Trazado 779741" d="M641.543,1052.9H593.09a.48.48,0,0,1-.48-.48v-3.48a.48.48,0,0,1,.48-.48h48.452a.48.48,0,0,1,.48.48v3.48a.48.48,0,0,1-.48.48" transform="translate(-592.61 -1048.46)" fill="#fff"/>
                </g>
              </g>
            </g>
            <g id="Grupo_1033081" data-name="Grupo 1033081" transform="translate(108.325 198.476)" opacity="0.51">
              <g id="Grupo_1033080" data-name="Grupo 1033080">
                <g id="Grupo_1033079" data-name="Grupo 1033079" clip-path="url(#clip-path-16)">
                  <path id="Trazado_779742" data-name="Trazado 779742" d="M642.38,1091.773H593.927a.48.48,0,0,1-.48-.48v-3.48a.48.48,0,0,1,.48-.48H642.38a.48.48,0,0,1,.48.48v3.48a.48.48,0,0,1-.48.48" transform="translate(-593.447 -1087.333)" fill="#fff"/>
                </g>
              </g>
            </g>
            <g id="Grupo_1033084" data-name="Grupo 1033084" transform="translate(108.325 205.715)" opacity="0.51">
              <g id="Grupo_1033083" data-name="Grupo 1033083">
                <g id="Grupo_1033082" data-name="Grupo 1033082" clip-path="url(#clip-path-18)">
                  <path id="Trazado_779743" data-name="Trazado 779743" d="M622.247,1131.43H593.927a.48.48,0,0,1-.48-.48v-3.48a.48.48,0,0,1,.48-.48h28.319a.48.48,0,0,1,.48.48v3.48a.48.48,0,0,1-.48.48" transform="translate(-593.447 -1126.99)" fill="#fff"/>
                </g>
              </g>
            </g>
            <g id="Grupo_1033087" data-name="Grupo 1033087" transform="translate(121.201 167.81)" opacity="0.51">
              <g id="Grupo_1033086" data-name="Grupo 1033086">
                <g id="Grupo_1033085" data-name="Grupo 1033085" clip-path="url(#clip-path-19)">
                  <path id="Trazado_779744" data-name="Trazado 779744" d="M684.658,926.353h-.753a.677.677,0,0,1-.677-.676V923.1a1.668,1.668,0,0,0-1.667-1.667H676.9a1.668,1.668,0,0,0-1.667,1.667v2.573a.677.677,0,0,1-.677.676H673.8a.677.677,0,0,1-.677-.676V923.1a3.774,3.774,0,0,1,3.774-3.773h4.664a3.774,3.774,0,0,1,3.773,3.773v2.573a.677.677,0,0,1-.677.676" transform="translate(-671.456 -919.33)" fill="#fff"/>
                  <path id="Trazado_779745" data-name="Trazado 779745" d="M678.122,961.131H665.4a1.412,1.412,0,0,0-1.412,1.412v9.765a1.412,1.412,0,0,0,1.412,1.412h12.723a1.412,1.412,0,0,0,1.412-1.412v-9.765a1.412,1.412,0,0,0-1.412-1.412m-4.541,9.438a.523.523,0,0,1-.509.645h-2.624a.523.523,0,0,1-.509-.645l.612-2.548a2.358,2.358,0,1,1,2.416,0Z" transform="translate(-663.987 -953.501)" fill="#fff"/>
                </g>
              </g>
            </g>
            <path id="Trazado_779746" data-name="Trazado 779746" d="M937.854,325.8a.3.3,0,0,1-.147-.038.3.3,0,0,1-.118-.412q.293-.526.568-1.06a.3.3,0,1,1,.539.278q-.28.542-.576,1.076a.3.3,0,0,1-.265.156" transform="translate(-766.414 -264.96)" fill="#5573c6"/>
            <path id="Trazado_779747" data-name="Trazado 779747" d="M571.581,321.7q-.269,0-.537,0a.3.3,0,0,1,0-.606h0c.784.011,1.576,0,2.358-.038a.308.308,0,0,1,.316.289.3.3,0,0,1-.289.316c-.616.028-1.24.042-1.857.042m-4.386-.237-.033,0c-.792-.086-1.589-.2-2.371-.327a.3.3,0,1,1,.1-.6c.771.129,1.557.238,2.337.322a.3.3,0,0,1-.032.6m10.074-.163a.3.3,0,0,1-.042-.6c.776-.109,1.558-.243,2.325-.4a.3.3,0,0,1,.12.594c-.779.157-1.573.292-2.36.4a.308.308,0,0,1-.043,0m-16.2-.98a.3.3,0,0,1-.078-.01c-.768-.205-1.539-.436-2.294-.685a.3.3,0,1,1,.191-.575c.743.246,1.5.473,2.259.675a.3.3,0,0,1-.078.6m22.288-.363a.3.3,0,0,1-.088-.593c.751-.228,1.5-.48,2.237-.75a.3.3,0,1,1,.209.569c-.744.274-1.508.531-2.27.762a.3.3,0,0,1-.088.013m-28.168-1.7a.3.3,0,0,1-.122-.026c-.729-.321-1.456-.668-2.161-1.03a.3.3,0,0,1,.277-.539c.695.357,1.41.7,2.128,1.014a.3.3,0,0,1-.122.58m33.976-.559a.3.3,0,0,1-.132-.576c.7-.34,1.41-.705,2.094-1.087a.3.3,0,0,1,.295.53c-.7.387-1.41.758-2.126,1.1a.3.3,0,0,1-.131.03M549.7,315.312a.3.3,0,0,1-.163-.048c-.669-.429-1.334-.884-1.976-1.351a.3.3,0,0,1,.357-.49c.632.46,1.287.908,1.946,1.331a.3.3,0,0,1-.164.558m44.855-.745a.3.3,0,0,1-.172-.553c.645-.445,1.285-.914,1.9-1.4a.3.3,0,0,1,.373.478c-.627.489-1.277.965-1.931,1.417a.305.305,0,0,1-.172.053m-49.823-3.013a.3.3,0,0,1-.2-.076c-.593-.525-1.181-1.076-1.746-1.638a.3.3,0,1,1,.427-.43c.557.553,1.136,1.1,1.72,1.614a.3.3,0,0,1-.2.53m54.672-.91a.3.3,0,0,1-.208-.523c.57-.538,1.132-1.1,1.668-1.667a.3.3,0,1,1,.441.416c-.545.577-1.115,1.146-1.693,1.692a.3.3,0,0,1-.208.082m-59.012-3.565a.3.3,0,0,1-.233-.109c-.508-.61-1.005-1.243-1.478-1.883a.3.3,0,0,1,.488-.361c.466.631.956,1.255,1.456,1.856a.3.3,0,0,1-.233.5m63.207-1.044a.3.3,0,0,1-.239-.489c.483-.62.952-1.26,1.394-1.9a.3.3,0,1,1,.5.343c-.449.653-.925,1.3-1.415,1.932a.3.3,0,0,1-.239.117M536.779,302a.3.3,0,0,1-.26-.147c-.411-.684-.805-1.387-1.172-2.088a.3.3,0,1,1,.537-.281c.361.691.749,1.383,1.154,2.057a.3.3,0,0,1-.26.459m-2.786-5.576a.3.3,0,0,1-.281-.189c-.3-.738-.581-1.494-.835-2.244a.3.3,0,1,1,.574-.194c.25.739.527,1.483.822,2.21a.3.3,0,0,1-.281.417" transform="translate(-435.595 -240)" fill="#5573c6"/>
            <path id="Trazado_779748" data-name="Trazado 779748" d="M526.155,268.473a.3.3,0,0,1-.295-.234q-.139-.6-.261-1.192a.3.3,0,0,1,.594-.121q.12.589.258,1.175a.3.3,0,0,1-.3.372" transform="translate(-429.653 -218.005)" fill="#5573c6"/>
            <path id="Trazado_779749" data-name="Trazado 779749" d="M555.468,99.911a.3.3,0,0,1-.256-.465q.325-.515.666-1.023a.3.3,0,1,1,.5.338q-.336.5-.656,1.008a.3.3,0,0,1-.257.141" transform="translate(-453.828 -80.349)" fill="#5573c6"/>
            <path id="Trazado_779750" data-name="Trazado 779750" d="M642.566,29.72a.3.3,0,0,1-.291-.218c-.232-.79-.491-1.583-.771-2.357a.3.3,0,0,1,.57-.206c.284.786.548,1.591.783,2.393a.3.3,0,0,1-.291.388M640.218,23.6a.3.3,0,0,1-.273-.172c-.358-.743-.742-1.484-1.143-2.2a.3.3,0,1,1,.529-.3c.407.727.8,1.479,1.16,2.234a.3.3,0,0,1-.142.4.3.3,0,0,1-.131.03m-3.31-5.656a.3.3,0,0,1-.249-.129c-.471-.673-.971-1.342-1.484-1.987a.3.3,0,0,1,.474-.378c.521.655,1.028,1.333,1.506,2.017a.3.3,0,0,1-.248.477m-64.5-2.645a.3.3,0,0,1-.233-.5c.532-.641,1.092-1.275,1.666-1.887a.3.3,0,0,1,.442.415c-.566.6-1.118,1.228-1.642,1.859a.3.3,0,0,1-.234.11m60.319-2.4a.3.3,0,0,1-.218-.092c-.571-.589-1.169-1.169-1.78-1.725a.3.3,0,0,1,.408-.448c.619.565,1.227,1.154,1.806,1.751a.3.3,0,0,1-.218.514m-55.743-2.286a.3.3,0,0,1-.2-.531c.631-.551,1.285-1.088,1.946-1.6a.3.3,0,0,1,.371.48c-.651.5-1.3,1.032-1.918,1.575a.3.3,0,0,1-.2.075m50.819-2.033a.3.3,0,0,1-.181-.06c-.661-.491-1.345-.967-2.034-1.416a.3.3,0,0,1,.331-.508c.7.455,1.394.939,2.065,1.437a.3.3,0,0,1-.181.546m-45.552-1.87a.3.3,0,0,1-.16-.56c.709-.441,1.442-.867,2.178-1.264a.3.3,0,0,1,.288.533c-.725.392-1.447.811-2.146,1.245a.3.3,0,0,1-.16.046m39.994-1.6a.3.3,0,0,1-.138-.034c-.731-.377-1.483-.736-2.237-1.067a.3.3,0,1,1,.244-.555c.765.336,1.529.7,2.271,1.083a.3.3,0,0,1-.139.572m-34.168-1.4a.3.3,0,0,1-.116-.583c.77-.32,1.562-.621,2.354-.894a.3.3,0,0,1,.2.573c-.78.269-1.56.565-2.319.881a.3.3,0,0,1-.116.023M616.2,2.592a.3.3,0,0,1-.093-.015c-.782-.254-1.583-.486-2.381-.692a.3.3,0,0,1,.151-.587c.81.209,1.623.445,2.417.7a.3.3,0,0,1-.094.591m-21.886-.9a.3.3,0,0,1-.069-.6c.815-.192,1.645-.361,2.467-.5a.3.3,0,0,1,.1.6c-.81.139-1.628.3-2.43.494a.316.316,0,0,1-.07.008m15.512-.611a.3.3,0,0,1-.046,0c-.814-.125-1.642-.226-2.462-.3a.3.3,0,1,1,.055-.6c.832.076,1.673.178,2.5.305a.3.3,0,0,1-.046.6M600.795.709A.3.3,0,0,1,600.774.1c.832-.059,1.678-.092,2.515-.1h0a.3.3,0,0,1,0,.606c-.825.007-1.658.04-2.478.1h-.021" transform="translate(-467.679 -0.005)" fill="#5573c6"/>
            <path id="Trazado_779751" data-name="Trazado 779751" d="M962.139,183a.3.3,0,0,1-.3-.256q-.092-.594-.2-1.185a.3.3,0,1,1,.6-.111q.112.6.206,1.2a.3.3,0,0,1-.253.346.3.3,0,0,1-.047,0" transform="translate(-786.1 -148.126)" fill="#5573c6"/>
            <path id="Trazado_779752" data-name="Trazado 779752" d="M634.454,83.321a.487.487,0,0,0-.291-.484l-5.433-2.36a25.8,25.8,0,0,0-2.587-7.949l3-5.1a.487.487,0,0,0-.05-.563l-4.619-5.4a.487.487,0,0,0-.548-.137L618.418,63.5a25.8,25.8,0,0,0-7.453-3.787l-1.49-5.733a.487.487,0,0,0-.433-.363l-7.084-.552a.487.487,0,0,0-.484.291l-2.36,5.433a25.8,25.8,0,0,0-7.949,2.587l-5.1-3a.487.487,0,0,0-.563.05l-5.4,4.619a.487.487,0,0,0-.136.548l2.171,5.507a25.8,25.8,0,0,0-3.787,7.453l-5.733,1.49a.487.487,0,0,0-.363.433l-.552,7.084a.486.486,0,0,0,.291.484l5.433,2.36a25.8,25.8,0,0,0,2.587,7.95l-3,5.1a.487.487,0,0,0,.05.563l4.619,5.4a.487.487,0,0,0,.548.136l5.507-2.171a25.8,25.8,0,0,0,7.453,3.787l1.49,5.733a.486.486,0,0,0,.433.363l7.084.552a.487.487,0,0,0,.484-.291l2.36-5.433a25.8,25.8,0,0,0,7.949-2.587l5.1,3a.487.487,0,0,0,.563-.05l5.4-4.619a.487.487,0,0,0,.136-.548l-2.171-5.507a25.81,25.81,0,0,0,3.787-7.453l5.733-1.49a.487.487,0,0,0,.363-.433Z" transform="translate(-467.342 -43.375)" fill="#5573c6"/>
            <g id="Grupo_1033090" data-name="Grupo 1033090" transform="translate(128.973 34.299)" opacity="0.7">
              <g id="Grupo_1033089" data-name="Grupo 1033089">
                <g id="Grupo_1033088" data-name="Grupo 1033088" clip-path="url(#clip-path-20)">
                  <path id="Trazado_779753" data-name="Trazado 779753" d="M713.311,201.439a6.782,6.782,0,1,1,1.155-.1,6.842,6.842,0,0,1-1.155.1m.027-12.621a5.912,5.912,0,0,0-1,.086,5.822,5.822,0,1,0,1-.086" transform="translate(-706.564 -187.909)" fill="#fff"/>
                </g>
              </g>
            </g>
            <g id="Grupo_1033093" data-name="Grupo 1033093" transform="translate(117.983 23.464)" opacity="0.7">
              <g id="Grupo_1033092" data-name="Grupo 1033092">
                <g id="Grupo_1033091" data-name="Grupo 1033091" clip-path="url(#clip-path-21)">
                  <path id="Trazado_779754" data-name="Trazado 779754" d="M663.985,163.753q-.695,0-1.4-.054a17.6,17.6,0,0,1-16.233-17.517q0-.7.054-1.4a17.6,17.6,0,0,1,30.919-10.073,17.7,17.7,0,0,1,2.121,3.088l-.8.432a16.793,16.793,0,0,0-2.012-2.929,16.69,16.69,0,0,0-29.322,9.552q-.052.664-.051,1.324a16.692,16.692,0,0,0,32.515,5.288l.862.289a17.61,17.61,0,0,1-16.658,12" transform="translate(-646.357 -128.552)" fill="#fff"/>
                </g>
              </g>
            </g>
            <path id="Trazado_779755" data-name="Trazado 779755" d="M1125.128,380.336a.3.3,0,0,1-.26-.458c.2-.344.4-.7.579-1.045a.3.3,0,0,1,.539.278c-.186.36-.386.721-.6,1.075a.3.3,0,0,1-.261.149" transform="translate(-919.505 -309.55)" fill="#5573c6"/>
            <path id="Trazado_779756" data-name="Trazado 779756" d="M941.324,388.342H941.3a21.393,21.393,0,0,1-2.454-.338.3.3,0,0,1,.117-.595,20.642,20.642,0,0,0,2.385.328.3.3,0,0,1-.023.605m3.964-.064a.3.3,0,0,1-.033-.6,20.674,20.674,0,0,0,2.372-.407.3.3,0,0,1,.137.59,21.3,21.3,0,0,1-2.442.419l-.034,0m-10.183-1.4a.309.309,0,0,1-.114-.022,21.2,21.2,0,0,1-2.236-1.066.3.3,0,0,1,.292-.531,20.611,20.611,0,0,0,2.172,1.035.3.3,0,0,1-.114.584m16.349-.272a.3.3,0,0,1-.124-.58,20.538,20.538,0,0,0,2.136-1.11.3.3,0,1,1,.311.52,21.065,21.065,0,0,1-2.2,1.143.3.3,0,0,1-.123.026m-21.825-3.017a.3.3,0,0,1-.194-.07,21.318,21.318,0,0,1-1.806-1.7.3.3,0,1,1,.44-.417,20.744,20.744,0,0,0,1.754,1.648.3.3,0,0,1-.194.536m27.188-.457a.3.3,0,0,1-.2-.529l.178-.161a20.93,20.93,0,0,0,1.523-1.542.3.3,0,1,1,.453.4,21.354,21.354,0,0,1-1.568,1.588l-.183.165a.3.3,0,0,1-.2.077M925.4,378.793a.3.3,0,0,1-.255-.14,21.012,21.012,0,0,1-1.212-2.162.3.3,0,1,1,.545-.264,20.577,20.577,0,0,0,1.177,2.1.3.3,0,0,1-.092.418.3.3,0,0,1-.163.048" transform="translate(-755.261 -307.414)" fill="#5573c6"/>
            <path id="Trazado_779757" data-name="Trazado 779757" d="M915.4,350.951a.3.3,0,0,1-.293-.225c-.1-.394-.2-.8-.28-1.2a.3.3,0,1,1,.594-.121c.079.388.171.779.272,1.162a.3.3,0,0,1-.216.371.308.308,0,0,1-.078.01" transform="translate(-747.831 -285.431)" fill="#5573c6"/>
            <path id="Trazado_779758" data-name="Trazado 779758" d="M930.309,261.623a.3.3,0,0,1-.256-.465c.217-.346.448-.689.685-1.021a.3.3,0,0,1,.493.352c-.23.322-.454.656-.666.992a.3.3,0,0,1-.257.141" transform="translate(-760.247 -212.55)" fill="#5573c6"/>
            <path id="Trazado_779759" data-name="Trazado 779759" d="M981.6,225.548a.3.3,0,0,1-.279-.185,20.3,20.3,0,0,0-1.051-2.122.3.3,0,0,1,.527-.3,21.1,21.1,0,0,1,1.082,2.185.3.3,0,0,1-.279.422M978.29,220.2a.3.3,0,0,1-.231-.107q-.232-.273-.475-.539c-.37-.405-.76-.8-1.16-1.174a.3.3,0,1,1,.414-.443c.411.385.813.792,1.193,1.209q.25.274.489.555a.3.3,0,0,1-.231.5m-30.276-1.554a.3.3,0,0,1-.209-.522q.184-.175.372-.348c.474-.432.972-.847,1.482-1.234a.3.3,0,0,1,.366.482c-.495.376-.979.78-1.439,1.2q-.183.168-.363.339a.3.3,0,0,1-.209.084m25.531-2.57a.3.3,0,0,1-.161-.047,20.512,20.512,0,0,0-2.07-1.147.3.3,0,0,1,.262-.546,21.2,21.2,0,0,1,2.132,1.18.3.3,0,0,1-.162.559m-20.389-1.047a.3.3,0,0,1-.135-.574,21.18,21.18,0,0,1,2.243-.957.3.3,0,0,1,.205.57,20.553,20.553,0,0,0-2.178.929.3.3,0,0,1-.134.032m14.63-1.467a.311.311,0,0,1-.078-.01,20.663,20.663,0,0,0-2.319-.475.3.3,0,0,1-.256-.343.3.3,0,0,1,.343-.256,21.3,21.3,0,0,1,2.388.489.3.3,0,0,1-.078.6m-8.641-.443a.3.3,0,0,1-.047-.6,21.358,21.358,0,0,1,2.426-.242.3.3,0,1,1,.026.606,20.719,20.719,0,0,0-2.357.235.285.285,0,0,1-.048,0" transform="translate(-774.72 -173.528)" fill="#5573c6"/>
            <path id="Trazado_779760" data-name="Trazado 779760" d="M1138.69,303.885a.3.3,0,0,1-.3-.256c-.061-.392-.134-.786-.218-1.174a.3.3,0,1,1,.592-.128c.086.4.161.805.224,1.208a.3.3,0,0,1-.253.346.324.324,0,0,1-.047,0" transform="translate(-930.41 -246.947)" fill="#5573c6"/>
            <path id="Trazado_779761" data-name="Trazado 779761" d="M971.544,255.781a.25.25,0,0,0-.15-.249L968.6,254.32a13.252,13.252,0,0,0-1.329-4.083l1.54-2.622a.25.25,0,0,0-.025-.289l-2.373-2.773a.25.25,0,0,0-.282-.07l-2.829,1.115a13.26,13.26,0,0,0-3.828-1.945l-.766-2.945a.25.25,0,0,0-.223-.186l-3.639-.283a.25.25,0,0,0-.249.15l-1.212,2.791a13.251,13.251,0,0,0-4.083,1.329l-2.622-1.54a.25.25,0,0,0-.289.026l-2.773,2.373a.25.25,0,0,0-.07.282l1.116,2.829a13.255,13.255,0,0,0-1.945,3.829l-2.945.765a.25.25,0,0,0-.186.222l-.284,3.639a.25.25,0,0,0,.15.249l2.791,1.212a13.252,13.252,0,0,0,1.329,4.084l-1.54,2.622a.25.25,0,0,0,.026.289l2.373,2.774a.25.25,0,0,0,.282.07l2.829-1.115a13.25,13.25,0,0,0,3.828,1.945l.765,2.945a.25.25,0,0,0,.223.186l3.639.283a.25.25,0,0,0,.249-.15l1.212-2.791a13.25,13.25,0,0,0,4.084-1.329l2.622,1.54a.25.25,0,0,0,.289-.026l2.773-2.373a.25.25,0,0,0,.07-.282l-1.115-2.829a13.255,13.255,0,0,0,1.945-3.829l2.945-.766a.25.25,0,0,0,.186-.223Z" transform="translate(-767.85 -196.386)" fill="#5573c6"/>
            <g id="Grupo_1033096" data-name="Grupo 1033096" transform="translate(183.883 56.273)" opacity="0.7">
              <g id="Grupo_1033095" data-name="Grupo 1033095">
                <g id="Grupo_1033094" data-name="Grupo 1033094" clip-path="url(#clip-path-22)">
                  <path id="Trazado_779762" data-name="Trazado 779762" d="M1011.063,315.686a3.706,3.706,0,1,1,.631-.054,3.726,3.726,0,0,1-.631.054m.011-6.481a2.783,2.783,0,1,0,1.606.511,2.785,2.785,0,0,0-1.606-.511" transform="translate(-1007.377 -308.293)" fill="#fff"/>
                </g>
              </g>
            </g>
            <g id="Grupo_1033099" data-name="Grupo 1033099" transform="translate(178.241 50.713)" opacity="0.7">
              <g id="Grupo_1033098" data-name="Grupo 1033098">
                <g id="Grupo_1033097" data-name="Grupo 1033097" clip-path="url(#clip-path-23)">
                  <path id="Trazado_779763" data-name="Trazado 779763" d="M985.746,296.349c-.244,0-.489-.01-.734-.029a9.261,9.261,0,1,1,7.757-15.254l.077.091a9.325,9.325,0,0,1,.954,1.381l0,.006.012.022.021.038.012.021.036.066-.8.432a8.362,8.362,0,0,0-9.363-4.143,8.351,8.351,0,1,0,9.927,10.766l.862.289a9.267,9.267,0,0,1-8.766,6.313" transform="translate(-976.474 -277.83)" fill="#fff"/>
                </g>
              </g>
            </g>
          </g>
        </g>
        <g id="Grupo_1033103" data-name="Grupo 1033103" transform="translate(127.361 82.406)">
          <g id="Grupo_1033102" data-name="Grupo 1033102" clip-path="url(#clip-path-24)">
            <rect id="Rectángulo_366188" data-name="Rectángulo 366188" width="167.911" height="168.106" transform="translate(-63.98 61.165) rotate(-44.37)" fill="url(#linear-gradient-5)"/>
          </g>
        </g>
        <g id="Grupo_1033114" data-name="Grupo 1033114" transform="translate(0 0.001)">
          <g id="Grupo_1033113" data-name="Grupo 1033113" clip-path="url(#clip-path-6)">
            <g id="Grupo_1033106" data-name="Grupo 1033106" transform="translate(132.773 88.89)" opacity="0.61">
              <g id="Grupo_1033105" data-name="Grupo 1033105">
                <g id="Grupo_1033104" data-name="Grupo 1033104" clip-path="url(#clip-path-26)">
                  <path id="Trazado_779765" data-name="Trazado 779765" d="M772.909,599.62a1.2,1.2,0,0,1-.645-.188C752.973,587.1,740.4,572.357,733.826,554.36c-5.871-16.073-6.158-32.44-6.412-46.88l-.035-1.925a1.179,1.179,0,0,1,.34-.853,1.192,1.192,0,0,1,.856-.358h0c11.947,0,29.879-5.275,43.031-17.06a1.191,1.191,0,0,1,1.454-.1c14.451,9.589,35.064,12.38,46.066,13.191a1.187,1.187,0,0,1,1.1,1.085c2.557,29.173-3.511,53.841-18.035,73.321a86.563,86.563,0,0,1-28.738,24.712,1.189,1.189,0,0,1-.543.131m.319-.566.112.218-.112-.218A86.052,86.052,0,0,0,801.8,574.484c14.45-19.381,20.486-43.937,17.94-72.986a.7.7,0,0,0-.647-.64c-11.049-.814-31.757-3.621-46.3-13.272a.7.7,0,0,0-.857.062c-13.248,11.871-31.317,17.185-43.347,17.185h0a.71.71,0,0,0-.517.212.69.69,0,0,0-.2.5l.035,1.925c.253,14.4.539,30.725,6.382,46.721,6.536,17.892,19.045,32.555,38.242,44.826a.706.706,0,0,0,.7.034" transform="translate(-727.379 -486.98)" fill="#fff"/>
                </g>
              </g>
            </g>
            <g id="Grupo_1033109" data-name="Grupo 1033109" transform="translate(161.022 108.739)">
              <g id="Grupo_1033108" data-name="Grupo 1033108">
                <g id="Grupo_1033107" data-name="Grupo 1033107" clip-path="url(#clip-path-27)">
                  <path id="Trazado_779766" data-name="Trazado 779766" d="M917.012,616.951h-2.275a2.046,2.046,0,0,1-2.046-2.046v-7.778a5.041,5.041,0,0,0-5.041-5.041h-14.1a5.041,5.041,0,0,0-5.041,5.041V614.9a2.046,2.046,0,0,1-2.046,2.046h-2.276a2.046,2.046,0,0,1-2.046-2.046v-7.778a11.408,11.408,0,0,1,11.408-11.408h14.1a11.408,11.408,0,0,1,11.408,11.408V614.9a2.046,2.046,0,0,1-2.046,2.046" transform="translate(-882.142 -595.719)" fill="#fff"/>
                </g>
              </g>
            </g>
            <g id="Grupo_1033112" data-name="Grupo 1033112" transform="translate(155.98 131.806)">
              <g id="Grupo_1033111" data-name="Grupo 1033111">
                <g id="Grupo_1033110" data-name="Grupo 1033110" clip-path="url(#clip-path-28)">
                  <path id="Trazado_779767" data-name="Trazado 779767" d="M897.251,722.09H858.786a4.268,4.268,0,0,0-4.268,4.268v29.52a4.268,4.268,0,0,0,4.268,4.268h38.465a4.268,4.268,0,0,0,4.268-4.268v-29.52a4.268,4.268,0,0,0-4.268-4.268m-13.729,28.532a1.581,1.581,0,0,1-1.538,1.951h-7.932a1.581,1.581,0,0,1-1.537-1.951l1.851-7.7a7.13,7.13,0,1,1,7.305,0Z" transform="translate(-854.518 -722.09)" fill="#fff"/>
                </g>
              </g>
            </g>
          </g>
        </g>
        <g id="Grupo_1033116" data-name="Grupo 1033116" transform="translate(18.375 122.157)">
          <g id="Grupo_1033115" data-name="Grupo 1033115" clip-path="url(#clip-path-29)">
            <rect id="Rectángulo_366193" data-name="Rectángulo 366193" width="22.874" height="22.967" transform="translate(-7.902 7.673) rotate(-46.245)" fill="url(#linear-gradient-6)"/>
          </g>
        </g>
        <g id="Grupo_1033118" data-name="Grupo 1033118" transform="translate(0 0.001)">
          <g id="Grupo_1033117" data-name="Grupo 1033117" clip-path="url(#clip-path-6)">
            <path id="Trazado_779769" data-name="Trazado 779769" d="M170.946,518.068h-6.574s-20.178-22.285-33.412-24.533c0,0-9.212,11.759.491,33.732a3.207,3.207,0,0,0,4.592,1.513,2.629,2.629,0,0,0,1.049-1.251l-.78-18.76s17.212,15.054,20.2,17.959,18.2,1.134,14.431-8.659" transform="translate(-103.824 -403.448)" fill="#5573c6"/>
          </g>
        </g>
        <g id="Grupo_1033120" data-name="Grupo 1033120" transform="translate(3.486 155.509)">
          <g id="Grupo_1033119" data-name="Grupo 1033119" clip-path="url(#clip-path-31)">
            <rect id="Rectángulo_366195" data-name="Rectángulo 366195" width="18.371" height="16.966" transform="matrix(0.806, -0.592, 0.592, 0.806, -4.679, 3.279)" fill="url(#linear-gradient-7)"/>
          </g>
        </g>
        <g id="Grupo_1033122" data-name="Grupo 1033122" transform="translate(0 0.001)">
          <g id="Grupo_1033121" data-name="Grupo 1033121" clip-path="url(#clip-path-6)">
            <path id="Trazado_779771" data-name="Trazado 779771" d="M96.174,703.177c1.7.549,2.444,2.954,6.75,1.364a38.117,38.117,0,0,0,8.858-4.666c.035.31.065.634.086.979,0,0-7.617,7.245-17.375,8.786a.971.971,0,0,1-1.049-1.309,24.506,24.506,0,0,1,2.73-5.154" transform="translate(-76.334 -572.123)" fill="#5573c6"/>
            <path id="Trazado_779772" data-name="Trazado 779772" d="M6.542,884.331a22.717,22.717,0,0,1,2.075-2.061c-.29,1.74.131,3.465,2.987,3.085,2.937-.391,6.48-2.2,8.775-3.529a18.97,18.97,0,0,1-12.774,4.9,1.448,1.448,0,0,1-1.063-2.4" transform="translate(-5.054 -720.862)" fill="#5573c6"/>
            <path id="Trazado_779773" data-name="Trazado 779773" d="M135.366,653.995l-30.786.333S87,668.874,83.809,691.055c0,0-.529,1.631,2.649,1.91a61.03,61.03,0,0,0,17.56-19.217c8.5-15.05,25.335-8.275,25.335-8.275,8.089,1.785,14.526,1.121,19.238-6.129Z" transform="translate(-68.484 -534.619)" fill="#5573c6"/>
          </g>
        </g>
        <g id="Grupo_1033124" data-name="Grupo 1033124" transform="translate(39.463 94.577)">
          <g id="Grupo_1033123" data-name="Grupo 1033123" clip-path="url(#clip-path-33)">
            <rect id="Rectángulo_366197" data-name="Rectángulo 366197" width="42.83" height="41.643" transform="matrix(0.765, -0.644, 0.644, 0.765, -12.366, 10.399)" fill="url(#linear-gradient-8)"/>
          </g>
        </g>
        <g id="Grupo_1033126" data-name="Grupo 1033126" transform="translate(63.866 78.64)">
          <g id="Grupo_1033125" data-name="Grupo 1033125" clip-path="url(#clip-path-34)">
            <rect id="Rectángulo_366198" data-name="Rectángulo 366198" width="60.626" height="60.383" transform="translate(-23.641 24.462) rotate(-46.169)" fill="url(#linear-gradient-9)"/>
          </g>
        </g>
        <g id="Grupo_1033128" data-name="Grupo 1033128" transform="translate(42.91 101.152)">
          <g id="Grupo_1033127" data-name="Grupo 1033127" clip-path="url(#clip-path-35)">
            <rect id="Rectángulo_366199" data-name="Rectángulo 366199" width="44.342" height="39.285" transform="matrix(0.807, -0.59, 0.59, 0.807, -8.709, 6.366)" fill="url(#linear-gradient-10)"/>
          </g>
        </g>
        <g id="Grupo_1033130" data-name="Grupo 1033130" transform="translate(77.689 72.129)">
          <g id="Grupo_1033129" data-name="Grupo 1033129" clip-path="url(#clip-path-36)">
            <rect id="Rectángulo_366200" data-name="Rectángulo 366200" width="10.854" height="11.842" transform="matrix(0.994, -0.11, 0.11, 0.994, -1.189, 0.132)" fill="url(#linear-gradient-11)"/>
          </g>
        </g>
        <g id="Grupo_1033132" data-name="Grupo 1033132" transform="translate(71.594 60.718)">
          <g id="Grupo_1033131" data-name="Grupo 1033131" clip-path="url(#clip-path-37)">
            <rect id="Rectángulo_366201" data-name="Rectángulo 366201" width="21.634" height="19.719" transform="translate(-5.002 16.499) rotate(-73.133)" fill="url(#linear-gradient-12)"/>
          </g>
        </g>
        <g id="Grupo_1033134" data-name="Grupo 1033134" transform="translate(66.592 54.05)">
          <g id="Grupo_1033133" data-name="Grupo 1033133" clip-path="url(#clip-path-38)">
            <rect id="Rectángulo_366202" data-name="Rectángulo 366202" width="22.226" height="30.668" transform="translate(-5.411 17.123) rotate(-80.056)" fill="url(#linear-gradient-13)"/>
          </g>
        </g>
        <g id="Grupo_1033136" data-name="Grupo 1033136" transform="translate(83.16 65.012)">
          <g id="Grupo_1033135" data-name="Grupo 1033135" clip-path="url(#clip-path-39)">
            <rect id="Rectángulo_366203" data-name="Rectángulo 366203" width="6.251" height="5.547" transform="translate(-1.46 4.815) rotate(-73.133)" fill="url(#linear-gradient-14)"/>
          </g>
        </g>
        <g id="Grupo_1033138" data-name="Grupo 1033138" transform="translate(21.716 92.068)">
          <g id="Grupo_1033137" data-name="Grupo 1033137" clip-path="url(#clip-path-40)">
            <rect id="Rectángulo_366204" data-name="Rectángulo 366204" width="22.315" height="29.123" transform="translate(-0.255)" fill="url(#linear-gradient-15)"/>
          </g>
        </g>
        <g id="Grupo_1033140" data-name="Grupo 1033140" transform="translate(0 0.001)">
          <g id="Grupo_1033139" data-name="Grupo 1033139" clip-path="url(#clip-path-6)">
            <path id="Trazado_779782" data-name="Trazado 779782" d="M160.07,553.939c.576,1.163,1.571,1.845,2.223,1.522s.712-1.527.136-2.69-1.571-1.844-2.223-1.522-.712,1.527-.136,2.69" transform="translate(-130.528 -450.562)" fill="#5573c6"/>
          </g>
        </g>
        <g id="Grupo_1033142" data-name="Grupo 1033142" transform="translate(41.535 118.125)">
          <g id="Grupo_1033141" data-name="Grupo 1033141" clip-path="url(#clip-path-42)">
            <rect id="Rectángulo_366206" data-name="Rectángulo 366206" width="9.268" height="23.838" transform="matrix(0.264, -0.964, 0.964, 0.264, -0.808, 2.851)" fill="url(#linear-gradient-16)"/>
          </g>
        </g>
        <g id="Grupo_1033144" data-name="Grupo 1033144" transform="translate(68.806 88.014)">
          <g id="Grupo_1033143" data-name="Grupo 1033143" clip-path="url(#clip-path-43)">
            <rect id="Rectángulo_366207" data-name="Rectángulo 366207" width="11.158" height="2.82" transform="translate(-0.729 10.998) rotate(-86.285)" fill="url(#linear-gradient-17)"/>
          </g>
        </g>
        <g id="Grupo_1033146" data-name="Grupo 1033146" transform="translate(78.749 90.737)">
          <g id="Grupo_1033145" data-name="Grupo 1033145" clip-path="url(#clip-path-44)">
            <rect id="Rectángulo_366208" data-name="Rectángulo 366208" width="10.984" height="7.462" transform="translate(-0.703 10.522) rotate(-86.285)" fill="url(#linear-gradient-18)"/>
          </g>
        </g>
        <g id="Grupo_1033148" data-name="Grupo 1033148" transform="translate(84.745 99.029)">
          <g id="Grupo_1033147" data-name="Grupo 1033147" clip-path="url(#clip-path-45)">
            <rect id="Rectángulo_366209" data-name="Rectángulo 366209" width="12.335" height="13.01" transform="translate(-0.768 11.515) rotate(-86.285)" fill="url(#linear-gradient-19)"/>
          </g>
        </g>
      </g>
    </g>
  </g>
</svg>
