<svg xmlns="http://www.w3.org/2000/svg" xmlns:xlink="http://www.w3.org/1999/xlink" width="90" height="85.991" viewBox="0 0 90 85.991">
  <defs>
    <clipPath id="clip-path">
      <rect id="Rectángulo_362456" data-name="Rectángulo 362456" width="90" height="85.991" fill="#fff"/>
    </clipPath>
  </defs>
  <g id="Grupo_1034049" data-name="Grupo 1034049" transform="translate(-41 247)">
    <g id="Grupo_1027019" data-name="Grupo 1027019" transform="translate(41 -247)" clip-path="url(#clip-path)">
      <path id="Trazado_768871" data-name="Trazado 768871" d="M32.006,31.974l-.07-1.42.121-.494a.271.271,0,0,0,0-.445l.172-.493.983-1.387a4.283,4.283,0,0,1,3.1-.956l.252.188.706.056a.308.308,0,0,0,.459.046l1.215-1.124.153-.151a5.233,5.233,0,0,1,1.417-1.564c1.3-.975,2.157-2.415,3.463-3.4.389-.292.34-.644.182-1.059a3.485,3.485,0,0,1,1.171-4.039,3.832,3.832,0,0,1,4.23-.684,3.1,3.1,0,0,1,2.214,3.532c-.391,1.948.847,2.859,1.933,3.966.572.582,1.278.258,1.921.357h.751c1.439.5,1.967-.848,2.878-1.418a.75.75,0,0,0,.7-.688,3.688,3.688,0,0,1,1.213-1.228l.213-.21a7.285,7.285,0,0,1,1.692-1.7l.2-.168,1.521-1.521a.517.517,0,0,0,.153-.153l.752-.782c.008-.8-.615-1.288-.929-1.929q-.08-.25-.16-.5l-.123-.218a5.123,5.123,0,0,0-2.162-.41q-29.54,0-59.08,0c-.119,0-.238.012-.357.018l-.253.166c-.015.515-.043,1.031-.043,1.546q0,21.507-.008,43.015c0,1.064-.1,2.128-.152,3.192,0,.131.064.2.2.188l31.04.033h1.552c1.473,0,2.015.8,1.544,2.242a.492.492,0,0,1-.506.394c-.318.011-.637.013-.955.013H1.513C0,62.792,0,62.791,0,61.225Q0,36.039,0,10.853c0-.437.024-.874.037-1.311l.2-.185L1.191,9.3a.617.617,0,0,0,.963,0q18.948.012,37.9.025,10.784.01,21.568.033l.267.173c.351,0,.7-.007,1.054.015.708.044,1.077-.181,1.089-.985a4.625,4.625,0,0,1,.5-2.123c.452-.12.428-.471.4-.824A9.3,9.3,0,0,1,67.595,1.9l.433-.157.644-.358c.48.02,1.024.152,1.065-.6a8.5,8.5,0,0,1,4.81-.675.631.631,0,0,0,.195.121l.486.038c.078.3.2.474.489.174a7.391,7.391,0,0,1,4.751,2.9c-.2.131-.494.435-.334.521.812.432.821,1.6,1.777,1.863L82.529,7.2a.557.557,0,0,0-.094.119l.161.54q.013,1.661.026,3.323l-.177.259a8.791,8.791,0,0,1-6.109,6.7,1.988,1.988,0,0,0-1.641,2.3c.1,4.724.016,9.452,0,14.179l-.178.183c-2.43.145-2.428.145-2.43-2.265q-.008-6.837-.019-13.674l-.192-.232a12.511,12.511,0,0,1-3.817-1.556c-.064-.086-.116-.227-.2-.246-.192-.044-.237.127-.279.274q-3.747,3.719-7.5,7.435a1.224,1.224,0,0,0-.27,1.284,3.6,3.6,0,0,1-1.457,4.042c-.375-.033-.719-.012-.806.46-2.391,1.525-5.764-1.094-5.444-3.233.348-2.331-.962-3.518-2.441-4.757l-.219.036a3.348,3.348,0,0,1-2.3.26,1.648,1.648,0,0,0-1.839.636c-.686.753-1.407,1.474-2.113,2.209a7.547,7.547,0,0,0-1.473,1.47L40.574,28.1c-.253.169-.5.34-.54.681a.189.189,0,0,0-.022.014c-.4.086-.406.307-.2.6a4.566,4.566,0,0,1-1.886,4.858c-.165-.051-.332-.1-.408.129L37.5,34.4l-.265.2c-1.862.654-3.248-.2-4.512-1.43l-.715-1.2m47.988-21.5-.019.008c.6-.178.66-.408.068-.7a7.732,7.732,0,0,0-.777-3.764c.023-.382-.028-.715-.512-.753A6.982,6.982,0,0,0,67.861,5.5c-.981.322-1.26.88-.86,1.717a6.175,6.175,0,0,0,1.045,6.113A6.226,6.226,0,0,0,74.5,15.911,6.109,6.109,0,0,0,79.8,10.728l.191-.254M54.7,26.256c-.319.055-.663.145-.61.545a.87.87,0,0,0,.91.862,1.816,1.816,0,0,0,1.246.263,1.066,1.066,0,0,0,1.07-1.17,1.04,1.04,0,0,0-.895-1.2,1.459,1.459,0,0,0-1.722.7M36.1,32.089A.279.279,0,0,0,36.535,32a3.177,3.177,0,0,0,.5-.5,1.183,1.183,0,0,0-.1-1.614,1.332,1.332,0,0,0-1.6-.277,1.277,1.277,0,0,0-.674,1.491c.143.755.829.84,1.435.986M48.474,17.4l-.218-.04h-.508l-.218.039c-.526.449-1.263.813-.838,1.706a1.388,1.388,0,0,0,1.391.911,1.076,1.076,0,0,0,1.072-.782,1.491,1.491,0,0,0-.681-1.833M68.43,3.325l.146.124c.021-.03.066-.08.061-.086a1.356,1.356,0,0,0-.141-.127l-.065.089" transform="translate(0 0.001)" fill="#fff"/>
      <path id="Trazado_768872" data-name="Trazado 768872" d="M215.119,180.411a1.18,1.18,0,0,1-1.5-.089,5.3,5.3,0,0,0-3.087-.863c-9.982-.014-19.964.015-29.946-.022A4.929,4.929,0,0,0,175.5,183.5a5.138,5.138,0,0,0,3.729,5.886,4.692,4.692,0,0,0,1.281.107c3.778.016,7.556.009,11.334.011a2.759,2.759,0,0,1,1.256.2.739.739,0,0,1,.518.819c-.053.419-.135.869-.685.94a9.489,9.489,0,0,1-1.177.108c-3.7.008-7.4-.047-11.1.023-2.7.051-4.225,1.122-5.009,3.577a4.944,4.944,0,0,0,4.169,6.42c4.131.126,8.269.025,12.4.02l.659.019c1.058.935,1.058,1.1,0,2.023a.148.148,0,0,0-.185.032q-6.562-.037-13.125-.073c-2.845-.013-6.066-3.525-6.061-6.273,0-2.315.312-4.359,2.123-5.95.322-.282.677-.526,1.012-.784-.668-.88-1.573-1.528-2.225-2.448-1.563-2.208-1.176-7.557,1.628-9.2.559-.327.713-.665.079-1.076a5.682,5.682,0,0,1-2.574-4.977c-.024-.811-.133-1.673-.1-2.431a5.043,5.043,0,0,1,1.377-2.388,7.243,7.243,0,0,1,6.027-2.85c9.866.019,19.732-.025,29.6.028a6.924,6.924,0,0,1,6.677,3.971,7.211,7.211,0,0,1-1.16,7.843c-.341.377-.673.773-1.014,1.132-.243.256-.238.329-.04.47.559.4.461.954.414,1.506l-.22.22m-19.472-3.053v-.005c5.21,0,10.42.018,15.63-.008,2.239-.011,4.956-2.885,4.8-4.995a5.676,5.676,0,0,0-5.515-5.05c-9.983-.016-19.966.047-29.948-.043-2.478-.022-5.27,2.547-5.208,5.13a5.326,5.326,0,0,0,5.209,5.014c5.007-.153,10.021-.043,15.033-.043" transform="translate(-132.021 -125.768)" fill="#fff"/>
      <path id="Trazado_768873" data-name="Trazado 768873" d="M293.366,266.369a33.209,33.209,0,0,1-5.627,3.708,1.506,1.506,0,0,1-1.378-.018,23.914,23.914,0,0,1-4.857-2.954,20.3,20.3,0,0,1-5.026-5.71,10.445,10.445,0,0,1-1.5-5.146c-.039-3.022-.005-6.046-.05-9.068-.014-.927.265-1.336,1.237-1.63,3.37-1.02,6.693-2.195,10.023-3.344a2.193,2.193,0,0,1,1.566.013c3.4,1.166,6.816,2.281,10.239,3.374a1.508,1.508,0,0,1,1.258,1.7c-.146,3.051.167,6.109-.188,9.163A14.193,14.193,0,0,1,295,264.8c-.464.485-.967.933-1.453,1.4-.161-.049-.211.021-.186.172m-13.447-3.807c.02.493.38.73.732.972l.913.916c.054.127.113.248.287.218a24.655,24.655,0,0,0,4.369,3.085,1.409,1.409,0,0,0,1.512-.012,26.153,26.153,0,0,0,4.6-3.174,13.15,13.15,0,0,0,4.779-8.939q0-.239.007-.478c.017-2.344.028-4.687.058-7.031a.608.608,0,0,0-.456-.7,22.412,22.412,0,0,0-4.045-1.32c-.156-.387-.514-.217-.785-.285a40.851,40.851,0,0,0-4.065-1.435,2.586,2.586,0,0,0-1.9.005c-2.732.977-5.479,1.914-8.245,2.789a.833.833,0,0,0-.714.973c.023,2.42.015,4.839.021,7.258a8.518,8.518,0,0,0,1.525,5.233c.194.347.257.784.679.971.006.5.387.707.725.95" transform="translate(-209.256 -184.245)" fill="#fff"/>
      <path id="Trazado_768874" data-name="Trazado 768874" d="M111.353,172.229q-.007-10.467-.014-20.934l.174-.231,7.836,0c.008.754.022,1.509.024,2.263q.024,8.639.043,17.277,0,.359,0,.719-.042.472-.083.943l-.212.168-7.592,0-.176-.2m5.341-2.821q0-7.643,0-15.286c.011-.134-.055-.2-.185-.2-.277-.013-.554-.035-.831-.037-1.611-.015-1.612-.013-1.612,1.59,0,3.927-.011,7.853.009,11.78,0,.822-.34,1.82.19,2.422.569.647,1.469-.24,2.244-.073.131,0,.2-.063.188-.2" transform="translate(-84.743 -114.975)" fill="#fff"/>
      <path id="Trazado_768875" data-name="Trazado 768875" d="M29.97,185.225q-.266,6.2,0,12.407-.03.149-.059.3c-2.455.305-4.919.064-7.378.129-.561.015-.628-.348-.628-.79,0-3.9.019-7.794-.012-11.69-.006-.815.406-.885,1.041-.879,2.307.021,4.613.013,6.92.017l.117.508m-5.418,6.094c0,1.073.019,2.147-.007,3.219-.015.59.059,1.1.8.934.68-.15,1.782.241,1.829-.928.086-2.143.022-4.292.025-6.438,0-1.113-.848-.708-1.386-.727-.515-.019-1.287-.315-1.267.72.02,1.073,0,2.146,0,3.22" transform="translate(-16.662 -140.58)" fill="#fff"/>
      <path id="Trazado_768876" data-name="Trazado 768876" d="M66.859,195.605H73.31c.944-.07,1.275.3,1.247,1.3-.077,2.776-.06,5.556-.006,8.333.017.906-.285,1.167-1.16,1.14-1.824-.056-3.654-.072-5.476,0-1.026.043-1.379-.236-1.36-1.316.053-2.973-.021-5.949-.044-8.923l.349-.539m2.375,5.321c0,.632.044,1.269-.011,1.9-.072.824.321,1.051,1.049.96.674-.084,1.626.327,1.611-.947-.014-1.106-.067-2.218.018-3.318.08-1.021-.32-1.246-1.277-1.25-1.025,0-1.582.2-1.4,1.356a8.642,8.642,0,0,1,.011,1.3" transform="translate(-50.622 -148.874)" fill="#fff"/>
      <path id="Trazado_768877" data-name="Trazado 768877" d="M62.955,106.881c-.2,1.835-.2,1.836-2.1,1.836H45.863c-1.746,0-1.747,0-1.729-1.713,0-.2.013-.4.019-.594l.223-.386Q52,106,59.627,105.97c.873,0,1.746-.028,2.619-.043l.667.067-.019-.014q.03.45.059.9" transform="translate(-33.589 -80.624)" fill="#fff"/>
      <path id="Trazado_768878" data-name="Trazado 768878" d="M62.537,86.268c-.221.315-.559.251-.866.251q-8.9-.01-17.8-.03a.986.986,0,0,0-.05-.221q.032-1.189.064-2.379,8.824-.007,17.648-.009c.342,0,.727-.106.995.237v1.2l.007.955" transform="translate(-33.356 -63.832)" fill="#fff"/>
      <path id="Trazado_768879" data-name="Trazado 768879" d="M62.529,130.63c0,.9-.662.7-1.18.7q-8.726.007-17.451,0-.038-.352-.076-.7.033-.937.067-1.873a.893.893,0,0,0,.222-.084c5.712,0,11.425.038,17.137-.012,1.011-.009,1.359.317,1.281,1.253v.717" transform="translate(-33.355 -97.927)" fill="#fff"/>
      <path id="Trazado_768880" data-name="Trazado 768880" d="M62,64.333l-17.657-.026-.175-.18c-.137-2.431-.137-2.431,2.3-2.431H60.9c1.866,0,1.867,0,1.965,1.805.011.2-.01.4-.015.595L62,64.333" transform="translate(-33.578 -46.958)" fill="#fff"/>
      <path id="Trazado_768881" data-name="Trazado 768881" d="M203.7,289.042c-1.584,1.178-2.255,1.261-3.55.44A3.39,3.39,0,0,1,198.7,285.8a3.033,3.033,0,0,1,3.2-1.946c2.032.483,3.168,2,2.715,3.648a8.965,8.965,0,0,1-.438,1.063l-.478.478m-1.185-2.115c.114-.586-.063-.925-.692-.966s-1.151.158-1.183.812a.936.936,0,0,0,.811,1.091c.664.06.981-.336,1.064-.937" transform="translate(-151.169 -216.014)" fill="#fff"/>
      <path id="Trazado_768882" data-name="Trazado 768882" d="M246.808,286.809a3.09,3.09,0,0,1-3.054,3.2,3.267,3.267,0,0,1-2.939-3.422,3.094,3.094,0,0,1,3.048-2.769,3.027,3.027,0,0,1,2.945,2.992m-2.839.82c.624.19.921-.286.906-.812a.894.894,0,0,0-1.067-.847c-.576.035-1.075.277-1.026.885.045.553.491.865,1.187.774" transform="translate(-183.282 -216.019)" fill="#fff"/>
      <path id="Trazado_768883" data-name="Trazado 768883" d="M246.6,235.641c-.107,2.645-.541,3.341-2.41,3.942-1.175.377-2.018-.26-2.814-.934a2.7,2.7,0,0,1-.668-3.105,2.563,2.563,0,0,1,2.436-1.851,3.337,3.337,0,0,1,3.228,1.471l.23.478m-3.091-.015c-.643-.112-.929.476-.936.97a.893.893,0,0,0,.935.961c.65-.013,1.112-.255,1.144-.909s-.38-.987-1.143-1.022" transform="translate(-183.044 -177.867)" fill="#fff"/>
      <path id="Trazado_768884" data-name="Trazado 768884" d="M201.882,233.857a2.638,2.638,0,0,1,2.972,2.744c.02,1.624-1.632,3.373-3.174,3.2a3.022,3.022,0,0,1-2.818-3.176c.021-1.783,1.083-2.773,3.02-2.772m.82,2.819c.082-.561-.1-.909-.746-.909s-1.1.235-1.148.906a.849.849,0,0,0,.913.987c.587,0,1.083-.216.981-.984" transform="translate(-151.359 -177.995)" fill="#fff"/>
      <path id="Trazado_768885" data-name="Trazado 768885" d="M21.75,64.095c.134-2.191.134-2.191,2.676-2.131q.033.469.065.938c-.17,1.713.438,1.725-2.672,1.653l-.068-.46" transform="translate(-16.554 -47.15)" fill="#fff"/>
      <path id="Trazado_768886" data-name="Trazado 768886" d="M21.781,128.977l2.612,0a1.186,1.186,0,0,0,.062.218,8.27,8.27,0,0,0-.037,1.179c.095.887-.179,1.224-1.155,1.239-1.135.017-1.739-.209-1.513-1.476a4.349,4.349,0,0,0-.035-.942,1.315,1.315,0,0,0,.067-.221" transform="translate(-16.518 -98.168)" fill="#fff"/>
      <path id="Trazado_768887" data-name="Trazado 768887" d="M21.757,84.02a3.444,3.444,0,0,1,2.737,0,11.252,11.252,0,0,0-.033,1.425c.08.813-.289,1-1.037,1-1.607-.01-1.605.026-1.625-1.59,0-.277-.027-.554-.042-.831" transform="translate(-16.56 -63.734)" fill="#fff"/>
      <path id="Trazado_768888" data-name="Trazado 768888" d="M23.934,109.158c-.238.009-.476.025-.714.027-1.682.015-2.038-.45-1.673-2.114a.565.565,0,0,1,.531-.509c1.641-.326,2.058-.014,2.158,1.669a1.691,1.691,0,0,1-.3.927" transform="translate(-16.3 -81.019)" fill="#fff"/>
      <path id="Trazado_768889" data-name="Trazado 768889" d="M337.092,16.369c-.957-.26-.966-1.43-1.778-1.862-.16-.085.135-.389.334-.521a5.2,5.2,0,0,1,1.444,2.383" transform="translate(-255.181 -10.645)" fill="#fff"/>
      <path id="Trazado_768890" data-name="Trazado 768890" d="M5.945,37.778a.617.617,0,0,1-.963,0c.321-.32.642-.618.963,0" transform="translate(-3.792 -28.479)" fill="#fff"/>
      <path id="Trazado_768891" data-name="Trazado 768891" d="M288.543,3.292c-.04.755-.584.623-1.065.6.307-.285.589-.615,1.065-.6" transform="translate(-218.807 -2.505)" fill="#fff"/>
      <path id="Trazado_768892" data-name="Trazado 768892" d="M248.759,87.082a.751.751,0,0,1-.7.687.607.607,0,0,1,.7-.687" transform="translate(-188.806 -66.28)" fill="#fff"/>
      <path id="Trazado_768893" data-name="Trazado 768893" d="M252.708,316.305l-.659-.019c.235-.514.455-.511.659.019" transform="translate(-191.841 -240.443)" fill="#fff"/>
      <path id="Trazado_768894" data-name="Trazado 768894" d="M240.937,125.471c.087-.472.431-.492.806-.46a1.112,1.112,0,0,1-.806.46" transform="translate(-183.383 -95.142)" fill="#fff"/>
      <path id="Trazado_768895" data-name="Trazado 768895" d="M270.451,23.5c.026.353.05.7-.4.824-.091-.384.178-.593.4-.824" transform="translate(-205.528 -17.889)" fill="#fff"/>
      <path id="Trazado_768896" data-name="Trazado 768896" d="M219.9,304.2l.478-.478c-.09.228.191.827-.478.478" transform="translate(-167.374 -231.168)" fill="#fff"/>
      <path id="Trazado_768897" data-name="Trazado 768897" d="M118.964,71.98l.856-.237c-.188.433-.542.26-.856.237" transform="translate(-90.547 -54.605)" fill="#fff"/>
      <path id="Trazado_768898" data-name="Trazado 768898" d="M282.932,70.728c.042-.146.087-.318.279-.274.08.019.131.16.2.246l-.475.028" transform="translate(-215.347 -53.619)" fill="#fff"/>
      <path id="Trazado_768899" data-name="Trazado 768899" d="M315.411,1.253c-.29.3-.411.123-.489-.174.2-.033.379-.032.489.174" transform="translate(-239.695 -0.809)" fill="#fff"/>
      <path id="Trazado_768900" data-name="Trazado 768900" d="M233.62,95.226h-.751a.44.44,0,0,1,.751,0" transform="translate(-177.243 -72.319)" fill="#fff"/>
      <path id="Trazado_768901" data-name="Trazado 768901" d="M254.037,326.025a.148.148,0,0,1,.185-.032l-.125.22-.059-.188" transform="translate(-193.354 -248.107)" fill="#fff"/>
      <path id="Trazado_768902" data-name="Trazado 768902" d="M283.4,7.278l-.433.157c.089-.2.263-.176.433-.157" transform="translate(-215.377 -5.53)" fill="#fff"/>
      <path id="Trazado_768903" data-name="Trazado 768903" d="M345.258,31.18l-.161-.54c.064.027.129.051.195.074q-.017.233-.034.465" transform="translate(-262.662 -23.321)" fill="#fff"/>
      <path id="Trazado_768904" data-name="Trazado 768904" d="M44.4,106.327l-.222.386c-.04-.194,0-.344.222-.386" transform="translate(-33.616 -80.928)" fill="#fff"/>
      <path id="Trazado_768905" data-name="Trazado 768905" d="M156.018,112.922a2.307,2.307,0,0,1,.225-.065l.234.11a.308.308,0,0,1-.459-.045" transform="translate(-118.749 -85.898)" fill="#fff"/>
      <path id="Trazado_768906" data-name="Trazado 768906" d="M352.093,343.2c-.025-.152.025-.221.186-.172l-.186.172" transform="translate(-267.982 -261.075)" fill="#fff"/>
      <path id="Trazado_768907" data-name="Trazado 768907" d="M111.4,239.683l.176.2-.176-.2" transform="translate(-84.786 -182.429)" fill="#fff"/>
      <path id="Trazado_768908" data-name="Trazado 768908" d="M144.127,239.816l.011.237a.476.476,0,0,1-.223-.07l.212-.168" transform="translate(-109.537 -182.53)" fill="#fff"/>
      <path id="Trazado_768909" data-name="Trazado 768909" d="M258.214,39.343l-.267-.173.267.173" transform="translate(-196.33 -29.813)" fill="#fff"/>
      <path id="Trazado_768910" data-name="Trazado 768910" d="M.36,39.167l-.2.186c0-.131.067-.2.2-.186" transform="translate(-0.122 -29.81)" fill="#fff"/>
      <path id="Trazado_768911" data-name="Trazado 768911" d="M10.356,251.044c-.135.01-.2-.057-.2-.188l.2.188" transform="translate(-7.731 -190.933)" fill="#fff"/>
      <path id="Trazado_768912" data-name="Trazado 768912" d="M271.382,66.233a.522.522,0,0,1-.154.153l.154-.153" transform="translate(-206.439 -50.412)" fill="#fff"/>
      <path id="Trazado_768913" data-name="Trazado 768913" d="M44.315,71.872l.175.181-.175-.181" transform="translate(-33.729 -54.704)" fill="#fff"/>
      <path id="Trazado_768914" data-name="Trazado 768914" d="M345.291,30.335q-.1-.034-.2-.074a.568.568,0,0,1,.095-.119.747.747,0,0,1,.1.193" transform="translate(-262.661 -22.942)" fill="#fff"/>
      <path id="Trazado_768915" data-name="Trazado 768915" d="M264.232,73.239l-.2.168.2-.168" transform="translate(-200.962 -55.744)" fill="#fff"/>
      <path id="Trazado_768916" data-name="Trazado 768916" d="M300.9,78.022l.192.232-.192-.232" transform="translate(-229.023 -59.385)" fill="#fff"/>
      <path id="Trazado_768917" data-name="Trazado 768917" d="M256.269,81.061l-.214.21.214-.21" transform="translate(-194.89 -61.698)" fill="#fff"/>
      <path id="Trazado_768918" data-name="Trazado 768918" d="M111.514,151.078l-.174.231.174-.231" transform="translate(-84.744 -114.989)" fill="#fff"/>
      <path id="Trazado_768919" data-name="Trazado 768919" d="M311.956,145.13l.179-.183c.011.13-.052.187-.179.183" transform="translate(-237.438 -110.323)" fill="#fff"/>
      <path id="Trazado_768920" data-name="Trazado 768920" d="M207.01,93.555l.219-.036a.439.439,0,0,1-.219.036" transform="translate(-157.561 -71.18)" fill="#fff"/>
      <path id="Trazado_768921" data-name="Trazado 768921" d="M44.326,128.6a.889.889,0,0,1-.222.084q.056-.187.222-.084" transform="translate(-33.569 -97.851)" fill="#fff"/>
      <path id="Trazado_768922" data-name="Trazado 768922" d="M312.267.588a.628.628,0,0,1-.2-.121l.2.121" transform="translate(-237.526 -0.355)" fill="#fff"/>
      <path id="Trazado_768923" data-name="Trazado 768923" d="M11.008,50.42l.253-.166-.253.166" transform="translate(-8.378 -38.25)" fill="#fff"/>
      <path id="Trazado_768924" data-name="Trazado 768924" d="M280.782,23.017l-.861,1.717c-.4-.837-.12-1.394.861-1.717" transform="translate(-212.921 -17.519)" fill="#fff"/>
      <path id="Trazado_768925" data-name="Trazado 768925" d="M227.009,109.918a2.491,2.491,0,0,0,.3,1.408.869.869,0,0,1-.91-.862c-.054-.4.29-.49.609-.545" transform="translate(-172.315 -83.661)" fill="#fff"/>
      <path id="Trazado_768926" data-name="Trazado 768926" d="M334.8,41.653q.034-.35.068-.7c.592.293.528.522-.068.7" transform="translate(-254.823 -31.17)" fill="#fff"/>
      <path id="Trazado_768927" data-name="Trazado 768927" d="M330.2,22.793l-.512-.753c.484.038.535.371.512.753" transform="translate(-250.932 -16.775)" fill="#fff"/>
      <path id="Trazado_768928" data-name="Trazado 768928" d="M286.47,13.637l.065-.089a1.408,1.408,0,0,1,.141.127c.005.006-.039.056-.061.086l-.145-.124" transform="translate(-218.04 -10.312)" fill="#fff"/>
      <path id="Trazado_768929" data-name="Trazado 768929" d="M134.2,124.423q0-.223,0-.445a.271.271,0,0,1,0,.445" transform="translate(-102.142 -94.363)" fill="#fff"/>
      <path id="Trazado_768930" data-name="Trazado 768930" d="M151.108,134.046l.439-.091a.278.278,0,0,1-.439.091" transform="translate(-115.012 -101.957)" fill="#fff"/>
      <path id="Trazado_768931" data-name="Trazado 768931" d="M152.005,112.1l.252.188-.252-.188" transform="translate(-115.695 -85.326)" fill="#fff"/>
      <path id="Trazado_768932" data-name="Trazado 768932" d="M334.079,44.1l.191-.254-.191.254" transform="translate(-254.276 -33.375)" fill="#fff"/>
      <path id="Trazado_768933" data-name="Trazado 768933" d="M199.191,72.666a.353.353,0,0,1-.218.039l.218-.039" transform="translate(-151.443 -55.308)" fill="#fff"/>
      <path id="Trazado_768934" data-name="Trazado 768934" d="M202.23,72.708a.358.358,0,0,1-.218-.04l.218.04" transform="translate(-153.757 -55.309)" fill="#fff"/>
      <path id="Trazado_768935" data-name="Trazado 768935" d="M132.97,228.075l.188-.2c.011.135-.056.2-.188.2" transform="translate(-101.207 -173.442)" fill="#fff"/>
      <path id="Trazado_768936" data-name="Trazado 768936" d="M133.158,163.255l-.185-.2c.13,0,.2.064.185.2" transform="translate(-101.209 -124.107)" fill="#fff"/>
      <path id="Trazado_768937" data-name="Trazado 768937" d="M246.908,185.184a2.988,2.988,0,1,1-5.972-.128c.011-1.893,1.407-3.026,3.738-3.032.988,0,2.242,1.771,2.234,3.159m-3.093.871c.71.017,1.156-.3,1.173-.934s-.424-.96-1.067-1a.919.919,0,0,0-1.012,1.008c.009.417.261,1.018.906.923" transform="translate(-183.382 -138.544)" fill="#fff"/>
      <path id="Trazado_768938" data-name="Trazado 768938" d="M198.889,185.068c.03-2,1.305-3.027,3.747-3.025.887,0,2.3,1.9,2.23,3.106a2.99,2.99,0,1,1-5.976-.08m3.832.082c.107-.774-.4-.988-.979-.987a.86.86,0,0,0-.915,1,.92.92,0,0,0,1.019.905c.656.016.977-.254.875-.917" transform="translate(-151.379 -138.558)" fill="#fff"/>
      <path id="Trazado_768939" data-name="Trazado 768939" d="M302.795,283.122c.53,1.14,1.584,1.888,2.127,2.887l6.5-6.249.467-.062a1.081,1.081,0,0,1,1.178.752c.178.541-.231.852-.561,1.186-1.015,1.029-2.021,2.066-3.03,3.1a4.961,4.961,0,0,0-1.194,1.193c-.85.822-1.735,1.611-2.54,2.476-.621.668-1.163.409-1.588-.1-1.3-1.548-2.556-3.133-3.787-4.736-.254-.332-.589-.694-.3-1.262.4-.783,1.025-.307,1.545-.406l1.185,1.216" transform="translate(-228.303 -212.885)" fill="#fff"/>
    </g>
  </g>
</svg>
