<svg id="Grupo_1034038" data-name="Grupo 1034038" xmlns="http://www.w3.org/2000/svg" xmlns:xlink="http://www.w3.org/1999/xlink" width="1328" height="863" viewBox="0 0 1328 863">
  <defs>
    <clipPath id="clip-path">
      <rect id="Rectángulo_366705" data-name="Rectángulo 366705" width="1328" height="863" fill="#f6f6f6"/>
    </clipPath>
    <clipPath id="clip-path-2">
      <path id="Rectangle_652" data-name="Rectangle 652" d="M1323.911,873.695H21.183C9.484,873.695,0,859.207,0,841.336V32.359C0,14.488,9.484,0,21.183,0H1323.911c11.7,0,21.182,14.488,21.182,32.359V841.336C1345.094,859.207,1335.61,873.695,1323.911,873.695Z" transform="translate(0 0)" fill="none" opacity="0.238"/>
    </clipPath>
    <clipPath id="clip-path-3">
      <rect id="Rectángulo_34915" data-name="Rectángulo 34915" width="139.933" height="69.122" fill="#5573c6" stroke="#707070" stroke-width="1"/>
    </clipPath>
    <linearGradient id="linear-gradient" x1="7.465" y1="0.5" x2="6.465" y2="0.5" gradientUnits="objectBoundingBox">
      <stop offset="0" stop-color="#09005d"/>
      <stop offset="1" stop-color="#1a0f91"/>
    </linearGradient>
    <linearGradient id="linear-gradient-2" x1="2.963" y1="0.5" x2="1.963" y2="0.5" xlink:href="#linear-gradient"/>
    <linearGradient id="linear-gradient-3" x1="2.887" y1="0.5" x2="1.887" y2="0.5" xlink:href="#linear-gradient"/>
    <linearGradient id="linear-gradient-4" x1="1.538" y1="0.5" x2="0.538" y2="0.5" xlink:href="#linear-gradient"/>
    <linearGradient id="linear-gradient-5" x1="0.365" y1="0.5" x2="-0.635" y2="0.5" xlink:href="#linear-gradient"/>
    <linearGradient id="linear-gradient-6" x1="1.157" y1="0.5" x2="0.157" y2="0.5" xlink:href="#linear-gradient"/>
    <linearGradient id="linear-gradient-7" x1="3.783" y1="0.5" x2="2.783" y2="0.5" xlink:href="#linear-gradient"/>
    <linearGradient id="linear-gradient-8" x1="11.081" y1="0.5" x2="10.081" y2="0.5" xlink:href="#linear-gradient"/>
    <linearGradient id="linear-gradient-9" x1="89.925" y1="194.877" x2="88.925" y2="194.877" xlink:href="#linear-gradient"/>
    <linearGradient id="linear-gradient-10" x1="97.951" y1="204.32" x2="96.951" y2="204.32" xlink:href="#linear-gradient"/>
    <linearGradient id="linear-gradient-11" x1="95.508" y1="222.19" x2="94.508" y2="222.19" xlink:href="#linear-gradient"/>
    <linearGradient id="linear-gradient-12" x1="68.143" y1="0.5" x2="67.147" y2="0.5" xlink:href="#linear-gradient"/>
    <linearGradient id="linear-gradient-13" x1="29.251" y1="0.5" x2="28.255" y2="0.5" xlink:href="#linear-gradient"/>
    <linearGradient id="linear-gradient-14" x1="13.592" y1="0.5" x2="12.597" y2="0.5" xlink:href="#linear-gradient"/>
    <linearGradient id="linear-gradient-15" x1="-20.368" y1="0.5" x2="-21.364" y2="0.5" xlink:href="#linear-gradient"/>
    <linearGradient id="linear-gradient-16" x1="40.076" y1="0.5" x2="39.076" y2="0.5" xlink:href="#linear-gradient"/>
    <linearGradient id="linear-gradient-17" x1="28.882" y1="0.5" x2="27.882" y2="0.5" xlink:href="#linear-gradient"/>
    <linearGradient id="linear-gradient-18" x1="16.648" y1="0.499" x2="15.648" y2="0.499" xlink:href="#linear-gradient"/>
    <linearGradient id="linear-gradient-19" x1="-3.698" y1="0.499" x2="-4.698" y2="0.499" xlink:href="#linear-gradient"/>
  </defs>
  <path id="Trazado_782949" data-name="Trazado 782949" d="M0,863Z" fill="#f6f6f6"/>
  <g id="Enmascarar_grupo_1033506" data-name="Enmascarar grupo 1033506" clip-path="url(#clip-path)">
    <g id="Grupo_80238" data-name="Grupo 80238" transform="translate(-17.094 0.875)" clip-path="url(#clip-path-2)">
      <path id="Trazado_151747" data-name="Trazado 151747" d="M1846.678,728.623,1691.447,335.8,1724.8,159.09,1438.952,2.235c-3.562,3.793-6.832,7.888-10.74,11.33-29.264,25.78-56.587,53.982-88.434,76.584-63.146,44.8-134.618,50.613-211.007,18.037q-39.877-17.006-78.8-36.288c-48.021-23.85-97.558-38.684-150.868-37.392-33.367.808-62.559,9.765-87.606,29.7-37.488,29.834-62.977,69.209-92.082,105.77-15.422,19.373-31.184,38.649-48.6,56.341C635,262.7,590.551,278.476,535.117,272.056c-59.63-6.907-109.937-27.579-147.409-76.468-31.268-40.795-62.931-81.52-97.2-120.08C235.048,13.093,164.563-9.538,84.344,3.59,55.626,8.288,28.082,17.77,0,25.067L193.495,496.85Z" transform="matrix(0.454, 0.891, -0.891, 0.454, 3.781, -516.563)" fill="#727997" opacity="0.166"/>
      <path id="Trazado_151748" data-name="Trazado 151748" d="M1069.825,130.1s-94.006-.417-251.97-100-178.4,79.933-274.687,79.565S422.489,32.708,317.938,54.086,186.32,161.048,62.545,123.8,36.911,246.18,36.911,246.18l1017.865,15.766Z" transform="translate(594.654 524.238) rotate(-6)" fill="none" stroke="#12263f" stroke-width="3" stroke-dasharray="11" opacity="0.142"/>
      <g id="Grupo_80237" data-name="Grupo 80237" transform="translate(17.356 0)" clip-path="url(#clip-path-3)">
        <g id="Grupo_80236" data-name="Grupo 80236" transform="translate(3.254 -79.666)">
          <path id="Sustracción_11" data-name="Sustracción 11" d="M67.8,0a63.289,63.289,0,0,0-26.39,5.754,66.39,66.39,0,0,0-11.516,6.751,69.727,69.727,0,0,0-10.034,8.941,72.839,72.839,0,0,0-8.279,10.837A75.251,75.251,0,0,0,5.328,44.721a77.188,77.188,0,0,0-3.95,13.745,79.74,79.74,0,0,0,0,29.514,77.187,77.187,0,0,0,3.95,13.745,75.251,75.251,0,0,0,6.251,12.438A72.841,72.841,0,0,0,19.857,125a69.727,69.727,0,0,0,10.034,8.941,66.389,66.389,0,0,0,11.516,6.751,63.358,63.358,0,0,0,52.779,0A66.388,66.388,0,0,0,105.7,133.94,69.728,69.728,0,0,0,115.737,125a72.841,72.841,0,0,0,8.279-10.837,75.252,75.252,0,0,0,6.251-12.438,77.185,77.185,0,0,0,3.95-13.745,79.739,79.739,0,0,0,0-29.514,77.186,77.186,0,0,0-3.95-13.745,75.253,75.253,0,0,0-6.251-12.438,72.84,72.84,0,0,0-8.279-10.837A69.728,69.728,0,0,0,105.7,12.505,66.39,66.39,0,0,0,94.187,5.754,63.289,63.289,0,0,0,67.8,0Zm-.252,111.7a33.018,33.018,0,0,1-13.767-3,34.636,34.636,0,0,1-6.008-3.522,36.377,36.377,0,0,1-5.235-4.665,38,38,0,0,1-4.319-5.654,39.258,39.258,0,0,1-3.261-6.489,40.265,40.265,0,0,1-2.061-7.171,41.6,41.6,0,0,1,0-15.4,40.267,40.267,0,0,1,2.061-7.171,39.26,39.26,0,0,1,3.261-6.489,38,38,0,0,1,4.319-5.653,36.376,36.376,0,0,1,5.235-4.665A34.635,34.635,0,0,1,53.777,38.3a33.054,33.054,0,0,1,27.535,0,34.636,34.636,0,0,1,6.008,3.522,36.377,36.377,0,0,1,5.235,4.665,38,38,0,0,1,4.319,5.653,39.26,39.26,0,0,1,3.261,6.489A40.265,40.265,0,0,1,102.2,65.8a41.6,41.6,0,0,1,0,15.4,40.263,40.263,0,0,1-2.061,7.171,39.26,39.26,0,0,1-3.261,6.489,38,38,0,0,1-4.319,5.654,36.379,36.379,0,0,1-5.235,4.665,34.636,34.636,0,0,1-6.008,3.522,33.018,33.018,0,0,1-13.767,3Z" transform="translate(0 0)" fill="#5573c6"/>
        </g>
      </g>
      <path id="Trazado_151751" data-name="Trazado 151751" d="M1492.77,638.679,1385.643,289.7l37.383-162.666L1194.595,0c-3.162,3.649-6.1,7.555-9.53,10.9-25.686,25.073-49.9,52.244-77.552,74.566-54.832,44.251-114.423,53.47-175.982,28.023Q899.4,100.207,868.178,84.8C829.666,65.733,789.4,54.957,745.118,59.067,717.4,61.638,692.7,71.4,670.832,90.913,638.1,120.128,614.8,157.367,588.649,192.243c-13.856,18.481-27.987,36.891-43.4,53.951-31.7,35.086-69.435,51.891-115.054,49.1-49.072-3.006-89.655-19.053-118.041-61.486-23.688-35.409-47.705-70.732-74-103.941C195.586,76.108,138.378,59.388,71.128,75.749,47.054,81.6,23.69,91.75,0,99.936L134.515,518.675Z" transform="matrix(0.891, -0.454, 0.454, 0.891, 217.094, 486.623)" fill="none" stroke="#fff" stroke-width="1" opacity="0.81"/>
      <g id="Grupo_1020679" data-name="Grupo 1020679" transform="translate(-291.331 -80.688)" opacity="0.1">
        <path id="Trazado_117938" data-name="Trazado 117938" d="M1414.97,114.226a.376.376,0,0,0,.114,0,.13.13,0,0,0,.089-.082.3.3,0,0,0,0-.082.249.249,0,0,0,0-.165c.076-1.112-.419-6.2-3.6-31.293-2.106-16.552-5.076-39.582-8.959-68.473-6.522-49.176-13.26-98.929-13.324-99.437a.309.309,0,0,0-.19-.233.308.308,0,0,0-.3,0L1271.9-3.533a.278.278,0,0,0-.127.22.356.356,0,0,0,.1.233l142.324,116.8-231.086,25.5v.576l230.705-25.446c-2.2,1.606-8.349,6.766-26.5,22.44-15.227,13.121-36.8,31.91-64.221,55.888-50.352,43.988-109.446,95.882-140.18,122.892l.419.425C1325.345,191.223,1411.81,115.9,1414.97,114.226Zm-26.178-199.01c8.882,65.879,25.379,188.7,25.861,198.077L1272.633-3.3Z" transform="translate(-1182.919 206.757)" fill="url(#linear-gradient)"/>
        <path id="Trazado_117939" data-name="Trazado 117939" d="M1028.315,206.487a.234.234,0,0,0,.14-.22L1040.56-21.222,1226.295,52.1a.365.365,0,0,0,.241,0,.273.273,0,0,0,.165-.151l47.522-104.309a.3.3,0,0,0,0-.234.26.26,0,0,0-.166-.15l-132.921-52.923-36.482-68.2-.558.261,36.533,68.295a.26.26,0,0,0,.152.137l132.731,52.909L1226.257,51.451,1040.4-21.922a.344.344,0,0,0-.343,0L845.512,146.605a.288.288,0,0,0-.084.279.263.263,0,0,0,.2.2l182.41,59.442h.114a.263.263,0,0,0,.165-.041Zm11.611-227.448-12.068,226.8L846.311,146.7Z" transform="translate(-613.715 173.87)" fill="url(#linear-gradient-2)"/>
        <path id="Trazado_117940" data-name="Trazado 117940" d="M1036.065,269.512h0l295.523-84.6a.265.265,0,0,0,.175-.122.307.307,0,0,0,.041-.221L1291.147-9.391a.291.291,0,0,0-.2-.22.343.343,0,0,0-.3,0L1092.368,144.822a.189.189,0,0,0-.089.11l-56.354,123.675L910.4,85.489a.319.319,0,0,0-.3-.137.311.311,0,0,0-.254.22L850.826,305.883l.609.137L910.3,86.368l125.232,182.719-105.094,36.6.216.535ZM1290.639-8.759l40.606,193.232-294.673,84.339,56.3-123.524Z" transform="translate(-678.136 235.041)" fill="url(#linear-gradient-3)"/>
        <path id="Trazado_117941" data-name="Trazado 117941" d="M781.9,77.162l171.37-27.7a.315.315,0,0,0,.228-.151.279.279,0,0,0,0-.261L869.811-109.633a.32.32,0,0,0-.19-.151.365.365,0,0,0-.241,0L622.6,27.711a.289.289,0,0,0,.063.535l159.087,48.9h.152Zm87.557-186.246L952.749,48.957,781.874,76.585,623.511,27.89Z" transform="translate(-10.056 197.733)" fill="url(#linear-gradient-4)"/>
        <path id="Trazado_117942" data-name="Trazado 117942" d="M596.316,269.747l272.162-36.563v-.151l.241.11a.32.32,0,0,0,.33,0,.284.284,0,0,0,.114-.3L767.826-158.839a.326.326,0,0,0-.368-.22L433.257-91.5a.342.342,0,0,0-.228.165L345.244,94.934l.571.233L433.536-90.969l333.731-67.458L868.376,232.347,517.236,67.265a.309.309,0,0,0-.343,0,.258.258,0,0,0-.089.316l79.182,201.947a.315.315,0,0,0,.292.192ZM867.742,232.69,596.481,269.13,517.667,68.115Z" transform="translate(426.054 179.385)" fill="url(#linear-gradient-5)"/>
        <path id="Trazado_117943" data-name="Trazado 117943" d="M821.1,253.924l-.419-.425L928.54,161.4,560.992,132.335,680.361,253.114l-.457.4L559.99,132.184a.293.293,0,0,1,0-.329.335.335,0,0,1,.3-.165l369.02,29.248a.3.3,0,0,1,.279.192.273.273,0,0,1-.089.3Z" transform="translate(93.183 287.686)" fill="url(#linear-gradient-6)"/>
        <path id="Trazado_117944" data-name="Trazado 117944" d="M1035.248,264.161l-.571-.233,54.691-120.985-238.56-39.486.114-.576,238.89,39.555a.339.339,0,0,1,.216.137.309.309,0,0,1,0,.261Z" transform="translate(-436.36 276.955)" fill="url(#linear-gradient-7)"/>
        <path id="Trazado_117945" data-name="Trazado 117945" d="M1103.3,230.613l-91.681-36.728.254-.535,91.668,36.728Z" transform="translate(-653.907 310.654)" fill="url(#linear-gradient-8)"/>
        <g id="Grupo_54547" data-name="Grupo 54547" transform="translate(495.964 376.761)">
          <ellipse id="Elipse_4152" data-name="Elipse 4152" cx="23.742" cy="22.097" rx="23.742" ry="22.097" transform="translate(0 0)" opacity="0.51" fill="url(#linear-gradient-9)"/>
        </g>
        <g id="Grupo_54548" data-name="Grupo 54548" transform="translate(81.098 408.163)">
          <ellipse id="Elipse_4153" data-name="Elipse 4153" cx="23.742" cy="22.097" rx="23.742" ry="22.097" transform="translate(0 0)" opacity="0.31" fill="url(#linear-gradient-10)"/>
        </g>
        <g id="Grupo_54549" data-name="Grupo 54549" transform="translate(1009.605 430.26)">
          <ellipse id="Elipse_4154" data-name="Elipse 4154" cx="19.364" cy="18.021" rx="19.364" ry="18.021" opacity="0.55" fill="url(#linear-gradient-11)"/>
        </g>
        <path id="Trazado_117946" data-name="Trazado 117946" d="M1085.47,202.314a7.045,7.045,0,1,1,0-14.054c4.175,0,7.614,3.143,7.614,7.027S1089.633,202.314,1085.47,202.314Z" transform="translate(-727.579 308.758)" fill="url(#linear-gradient-12)"/>
        <path id="Trazado_117947" data-name="Trazado 117947" d="M853.184,140.884c-4.175,0-7.614-3.143-7.614-7.027a7.6,7.6,0,1,1,7.614,7.027Z" transform="translate(-200.392 285.876)" fill="url(#linear-gradient-13)"/>
        <path id="Trazado_117948" data-name="Trazado 117948" d="M759.55,34.974A7.3,7.3,0,0,1,752,27.947a7.3,7.3,0,0,1,7.55-7.027c4.175,0,7.614,3.143,7.614,7.027S763.763,34.974,759.55,34.974Z" transform="translate(11.913 246.426)" fill="url(#linear-gradient-14)"/>
        <path id="Trazado_117949" data-name="Trazado 117949" d="M556.62,162.064a7.045,7.045,0,1,1,0-14.054c4.162,0,7.614,3.143,7.614,7.027S560.8,162.064,556.62,162.064Z" transform="translate(472.348 293.766)" fill="url(#linear-gradient-15)"/>
        <path id="Trazado_117950" data-name="Trazado 117950" d="M1186.332,79.135c-8.971,0-16.243-6.766-16.243-15.1s7.271-15.1,16.243-15.1,16.243,6.766,16.243,15.1S1195.3,79.135,1186.332,79.135Z" transform="translate(-954.028 256.863)" fill="url(#linear-gradient-16)"/>
        <ellipse id="Elipse_4155" data-name="Elipse 4155" cx="16.242" cy="15.111" rx="16.242" ry="15.111" transform="translate(397.875 365.081)" fill="url(#linear-gradient-17)"/>
        <path id="Trazado_117951" data-name="Trazado 117951" d="M886.442,9.665c-8.971,0-16.242-6.766-16.242-15.1s7.271-15.1,16.242-15.1,16.242,6.766,16.242,15.1S895.325,9.665,886.442,9.665Z" transform="translate(-273.596 230.987)" fill="url(#linear-gradient-18)"/>
        <path id="Trazado_117952" data-name="Trazado 117952" d="M626.015,25.765c-8.971,0-16.255-6.78-16.255-15.1s7.284-15.1,16.255-15.1,16.242,6.766,16.242,15.1S634.987,25.765,626.015,25.765Z" transform="translate(317.313 236.984)" fill="url(#linear-gradient-19)"/>
      </g>
    </g>
  </g>
</svg>
