<svg id="Grupo_1026174" data-name="Grupo 1026174" xmlns="http://www.w3.org/2000/svg" xmlns:xlink="http://www.w3.org/1999/xlink" width="599.661" height="509.75" viewBox="0 0 599.661 509.75">
  <defs>
    <clipPath id="clip-path">
      <rect id="Rectángulo_361912" data-name="Rectángulo 361912" width="599.661" height="509.75" fill="none"/>
    </clipPath>
  </defs>
  <g id="Grupo_1026171" data-name="Grupo 1026171">
    <g id="Grupo_1026170" data-name="Grupo 1026170" clip-path="url(#clip-path)">
      <path id="Trazado_767243" data-name="Trazado 767243" d="M40.457,377.012c-69.071-63.932-4.165-144.627,60.115-166.91q1.737-.6,3.52-1.193c95.144-31.57,105.885-143.361,212.647-155.9,106.115-12.463,96.536,54.684,199.071,54.684,84.315,0,107.665,83.505,37.179,156.068-72.2,74.332-1.742,207.564-122.565,220.614-91.118,9.842-102.618-71.146-299.375-91.936-32.36-3.419-70.965,2.741-90.593-15.427" transform="translate(5.022 24.548)" fill="#f6f6f6"/>
    </g>
  </g>
  <rect id="Rectángulo_361913" data-name="Rectángulo 361913" width="44.91" height="30.577" transform="translate(281.963 457.714)" fill="#12263f"/>
  <g id="Grupo_1026173" data-name="Grupo 1026173">
    <g id="Grupo_1026172" data-name="Grupo 1026172" clip-path="url(#clip-path)">
      <rect id="Rectángulo_361914" data-name="Rectángulo 361914" width="476.472" height="320.925" rx="14.79" transform="translate(66.009 132.241)" fill="#12263f"/>
      <path id="Trazado_767244" data-name="Trazado 767244" d="M506.142,107.559V384.8A9.984,9.984,0,0,1,496.2,394.83H63.037A9.985,9.985,0,0,1,53.1,384.8V107.559A9.985,9.985,0,0,1,63.037,97.53H496.2a9.984,9.984,0,0,1,9.939,10.029" transform="translate(24.626 46.519)" fill="#dee4f0"/>
      <rect id="Rectángulo_361915" data-name="Rectángulo 361915" width="203.635" height="205.468" transform="translate(304.245 190.641)" fill="#fff"/>
      <path id="Trazado_767245" data-name="Trazado 767245" d="M293.681,231.69v53.969H240.266V257.315a9.86,9.86,0,0,1,6.4-9.261l24.665-9.216,9.162-2.924Z" transform="translate(111.435 110.51)" fill="#afafaf"/>
      <path id="Trazado_767246" data-name="Trazado 767246" d="M331.476,257.315v28.343H278.047V231.69l13.262,4.239,9.1,2.91,24.665,9.216a9.88,9.88,0,0,1,6.4,9.261" transform="translate(128.958 110.51)" fill="#afafaf"/>
      <rect id="Rectángulo_361916" data-name="Rectángulo 361916" width="28.341" height="28.596" transform="translate(391.926 320.749)" fill="#de9c73"/>
      <path id="Trazado_767247" data-name="Trazado 767247" d="M257.673,191.508h7.1V208.74h-4.749a3.3,3.3,0,0,1-3.209-2.594l-2.355-10.593a3.311,3.311,0,0,1,3.209-4.045" transform="translate(117.983 91.345)" fill="#e8b799"/>
      <path id="Trazado_767248" data-name="Trazado 767248" d="M288.081,165.214l-33.7,18.557L264.171,234c1.095,5.626,5.5,11.193,11.236,15.632a13.143,13.143,0,0,0,8.051,2.7h9.862a13.4,13.4,0,0,0,8.588-3.121c5.049-4.215,9.039-9.85,10.081-15.211l11.681-59.946Z" transform="translate(117.982 78.803)" fill="#e8b799"/>
      <path id="Trazado_767249" data-name="Trazado 767249" d="M300.427,191.508h-7.1V208.74h4.749a3.294,3.294,0,0,0,3.209-2.594l2.355-10.593a3.311,3.311,0,0,0-3.209-4.045" transform="translate(136.043 91.345)" fill="#e8b799"/>
      <path id="Trazado_767250" data-name="Trazado 767250" d="M253.914,178.359l6.312,32.4,2.75-1.916a4.859,4.859,0,0,0,2.049-4.477L261.371,168.2,257.7,170.1a7.384,7.384,0,0,0-3.84,7.977Z" transform="translate(117.675 80.23)" fill="#54472d"/>
      <path id="Trazado_767251" data-name="Trazado 767251" d="M304.46,178.359l-6.312,32.4-2.75-1.916a4.859,4.859,0,0,1-2.049-4.477L297,168.2l3.673,1.895a7.384,7.384,0,0,1,3.84,7.977Z" transform="translate(136.043 80.23)" fill="#54472d"/>
      <path id="Trazado_767252" data-name="Trazado 767252" d="M328.738,161.635H265.7a8.172,8.172,0,0,0-8.134,8.209V185.5h52.338a18.917,18.917,0,0,0,18.832-19Z" transform="translate(119.46 77.096)" fill="#54472d"/>
      <path id="Trazado_767253" data-name="Trazado 767253" d="M265.735,182.348c0,5.022-2.257,9.091-5.041,9.091s-5.04-4.069-5.04-9.091,2.256-9.092,5.04-9.092,5.041,4.071,5.041,9.092" transform="translate(118.572 82.639)" fill="#54472d"/>
      <path id="Trazado_767254" data-name="Trazado 767254" d="M302.387,182.348c0,5.022-2.257,9.091-5.041,9.091s-5.04-4.069-5.04-9.091,2.257-9.092,5.04-9.092,5.041,4.071,5.041,9.092" transform="translate(135.571 82.639)" fill="#54472d"/>
      <path id="Trazado_767255" data-name="Trazado 767255" d="M280.284,231.69v53.969h-9.017l.951-5.834,5.65-34.738-2.284-3.131-2.152-2.924.176-.192,5.694-6.1.366-.384Z" transform="translate(125.813 110.511)" fill="#12263f"/>
      <path id="Trazado_767256" data-name="Trazado 767256" d="M286.443,285.659h-9.017V231.69l.571.62.337.354,5.767,6.174.176.192-2.181,2.983-2.254,3.072,5.65,34.738Z" transform="translate(128.67 110.511)" fill="#12263f"/>
      <path id="Trazado_767257" data-name="Trazado 767257" d="M261.484,241.144l9.168-14.3L285.733,234,277.2,249.6Z" transform="translate(121.276 108.2)" fill="#f6f6f6"/>
      <path id="Trazado_767258" data-name="Trazado 767258" d="M301.007,241.144l-9.168-14.3L276.757,234l8.531,15.6Z" transform="translate(128.36 108.2)" fill="#f6f6f6"/>
      <path id="Trazado_767259" data-name="Trazado 767259" d="M233.924,239.5h-7.44v57.36H282.4v-7.507H233.924Zm-7.44-91.144V203.8h7.44V155.862H282.4v-7.507Zm139.739,141h-48.44v7.507h55.88V239.5h-7.44Zm-48.44-141v7.507h48.44V203.8h7.44V148.355Z" transform="translate(105.043 70.762)" fill="#12263f"/>
      <path id="Trazado_767260" data-name="Trazado 767260" d="M297.482,319.672H164.163a5.908,5.908,0,0,0,0,11.816H297.482a5.908,5.908,0,0,0,0-11.816" transform="translate(73.423 152.476)" fill="#727997"/>
      <rect id="Rectángulo_361917" data-name="Rectángulo 361917" width="143.001" height="13.882" transform="translate(100.837 191.898)" fill="#fff"/>
      <rect id="Rectángulo_361918" data-name="Rectángulo 361918" width="143.001" height="13.881" transform="translate(100.837 214.935)" fill="#fff"/>
      <rect id="Rectángulo_361919" data-name="Rectángulo 361919" width="143.001" height="13.881" transform="translate(100.837 237.973)" fill="#fff"/>
      <rect id="Rectángulo_361920" data-name="Rectángulo 361920" width="143.001" height="13.881" transform="translate(100.837 261.011)" fill="#fff"/>
      <rect id="Rectángulo_361921" data-name="Rectángulo 361921" width="143.001" height="13.881" transform="translate(100.837 284.047)" fill="#fff"/>
      <rect id="Rectángulo_361922" data-name="Rectángulo 361922" width="143.001" height="13.881" transform="translate(100.837 307.085)" fill="#fff"/>
      <rect id="Rectángulo_361923" data-name="Rectángulo 361923" width="143.001" height="13.882" transform="translate(100.837 330.12)" fill="#fff"/>
      <rect id="Rectángulo_361924" data-name="Rectángulo 361924" width="143.001" height="13.881" transform="translate(100.837 353.16)" fill="#fff"/>
      <rect id="Rectángulo_361925" data-name="Rectángulo 361925" width="143.001" height="13.881" transform="translate(100.837 376.197)" fill="#fff"/>
      <rect id="Rectángulo_361926" data-name="Rectángulo 361926" width="36.149" height="13.882" transform="translate(249.367 191.898)" fill="#fff"/>
      <rect id="Rectángulo_361927" data-name="Rectángulo 361927" width="36.149" height="13.881" transform="translate(249.367 214.935)" fill="#fff"/>
      <rect id="Rectángulo_361928" data-name="Rectángulo 361928" width="36.149" height="13.881" transform="translate(249.367 237.973)" fill="#fff"/>
      <rect id="Rectángulo_361929" data-name="Rectángulo 361929" width="36.149" height="13.881" transform="translate(249.367 261.011)" fill="#fff"/>
      <rect id="Rectángulo_361930" data-name="Rectángulo 361930" width="36.149" height="13.881" transform="translate(249.367 284.047)" fill="#fff"/>
      <rect id="Rectángulo_361931" data-name="Rectángulo 361931" width="36.149" height="13.881" transform="translate(249.367 307.085)" fill="#fff"/>
      <rect id="Rectángulo_361932" data-name="Rectángulo 361932" width="36.149" height="13.882" transform="translate(249.367 330.12)" fill="#fff"/>
      <rect id="Rectángulo_361933" data-name="Rectángulo 361933" width="36.149" height="13.881" transform="translate(249.367 353.16)" fill="#fff"/>
      <rect id="Rectángulo_361934" data-name="Rectángulo 361934" width="36.149" height="13.881" transform="translate(249.367 376.197)" fill="#fff"/>
      <rect id="Rectángulo_361935" data-name="Rectángulo 361935" width="203.635" height="13.63" transform="translate(304.245 403.359)" fill="#afafaf"/>
      <rect id="Rectángulo_361936" data-name="Rectángulo 361936" width="47.452" height="13.63" transform="translate(304.246 403.359)" fill="#fff"/>
      <rect id="Rectángulo_361937" data-name="Rectángulo 361937" width="185.083" height="13.63" transform="translate(100.837 403.359)" fill="#fff"/>
      <rect id="Rectángulo_361938" data-name="Rectángulo 361938" width="34.732" height="10.665" transform="translate(91.748 162.875)" fill="#4a94cf"/>
      <rect id="Rectángulo_361939" data-name="Rectángulo 361939" width="34.732" height="10.665" transform="translate(473.149 162.875)" fill="#4a94cf"/>
      <rect id="Rectángulo_361940" data-name="Rectángulo 361940" width="259.392" height="10.665" transform="translate(160.874 162.875)" fill="#b0c0d2"/>
      <path id="Trazado_767261" data-name="Trazado 767261" d="M321.75,162.867a163.373,163.373,0,0,1-60.519,127.321,159,159,0,0,1-85.868,34.9c-4.2.394-8.439.6-12.737.647-.561.015-1.121.015-1.682.015h-.078c-.575,0-1.168,0-1.743-.015-4.251-.033-8.455-.253-12.612-.631A158.935,158.935,0,0,1,60.5,290.171,163.352,163.352,0,0,1,0,162.867C0,72.92,72.026,0,160.867,0,249.724,0,321.75,72.92,321.75,162.867" transform="translate(0 0)" fill="#12263f"/>
      <path id="Trazado_767262" data-name="Trazado 767262" d="M136.737,156.033v77.354c-3.8-.028-7.55-.224-11.261-.561a142.2,142.2,0,0,1-76.8-31.087V198.3A16.31,16.31,0,0,1,59.226,183.01l40.653-15.192,15.114-4.827Z" transform="translate(22.574 74.424)" fill="#bae1ff"/>
      <path id="Trazado_767263" data-name="Trazado 767263" d="M199.021,198.3v3.452a142.258,142.258,0,0,1-76.677,31.059c-3.755.35-7.536.532-11.374.575V156.033l21.856,6.986,15,4.8,40.653,15.192A16.3,16.3,0,0,1,199.021,198.3" transform="translate(51.468 74.424)" fill="#bae1ff"/>
      <rect id="Rectángulo_361941" data-name="Rectángulo 361941" width="46.72" height="47.141" transform="translate(137.572 195.101)" fill="#de9c73"/>
      <path id="Trazado_767264" data-name="Trazado 767264" d="M77.378,89.8h11.71V118.2H81.26a5.432,5.432,0,0,1-5.29-4.274L72.087,96.467a5.458,5.458,0,0,1,5.29-6.669" transform="translate(33.372 42.831)" fill="#e8b799"/>
      <path id="Trazado_767265" data-name="Trazado 767265" d="M127.5,46.454,71.953,77.045l16.134,82.807c1.806,9.272,9.068,18.449,18.523,25.767a21.66,21.66,0,0,0,13.277,4.452h16.253a22.1,22.1,0,0,0,14.159-5.146c8.323-6.948,14.9-16.236,16.62-25.073l19.255-98.824Z" transform="translate(33.372 22.157)" fill="#e8b799"/>
      <path id="Trazado_767266" data-name="Trazado 767266" d="M147.856,89.8h-11.71V118.2h7.828a5.432,5.432,0,0,0,5.29-4.274l3.882-17.464a5.459,5.459,0,0,0-5.29-6.669" transform="translate(63.144 42.831)" fill="#e8b799"/>
      <path id="Trazado_767267" data-name="Trazado 767267" d="M71.179,68.123l10.406,53.409,4.533-3.156A8.011,8.011,0,0,0,89.5,111L83.472,51.383l-6.056,3.125a12.171,12.171,0,0,0-6.328,13.15Z" transform="translate(32.865 24.508)" fill="#54472d"/>
      <path id="Trazado_767268" data-name="Trazado 767268" d="M154.5,68.123,144.1,121.532l-4.533-3.156a8.015,8.015,0,0,1-3.378-7.38l6.025-59.612,6.054,3.125a12.169,12.169,0,0,1,6.328,13.15Z" transform="translate(63.144 24.508)" fill="#54472d"/>
      <path id="Trazado_767269" data-name="Trazado 767269" d="M194.528,40.552H90.615A13.472,13.472,0,0,0,77.2,54.084V79.891h86.282a31.185,31.185,0,0,0,31.044-31.324Z" transform="translate(35.806 19.342)" fill="#54472d"/>
      <path id="Trazado_767270" data-name="Trazado 767270" d="M90.668,74.7c0,8.277-3.721,14.987-8.31,14.987s-8.31-6.71-8.31-14.987,3.721-14.987,8.31-14.987,8.31,6.71,8.31,14.987" transform="translate(34.343 28.481)" fill="#54472d"/>
      <path id="Trazado_767271" data-name="Trazado 767271" d="M151.089,74.7c0,8.277-3.721,14.987-8.31,14.987s-8.31-6.71-8.31-14.987,3.721-14.987,8.31-14.987,8.31,6.71,8.31,14.987" transform="translate(62.367 28.481)" fill="#54472d"/>
      <path id="Trazado_767272" data-name="Trazado 767272" d="M114.029,156.033V233.4h-.069c-.515,0-1.044,0-1.557-.013-3.8-.028-7.55-.224-11.262-.561l8.913-54.712-3.782-5.149-3.532-4.812.321-.335,9.343-10.045.6-.645Z" transform="translate(46.909 74.424)" fill="#99d2ff"/>
      <path id="Trazado_767273" data-name="Trazado 767273" d="M122.82,232.812c-3.755.35-7.536.533-11.374.575-.5.015-1,.015-1.5.015V156.033l.944,1.01.556.6,9.469,10.17.319.337-3.6,4.9-3.725,5.065Z" transform="translate(50.993 74.424)" fill="#99d2ff"/>
      <path id="Trazado_767274" data-name="Trazado 767274" d="M83.658,171.624l15.112-23.57,24.864,11.785-14.064,25.717Z" transform="translate(38.801 70.618)" fill="#d6edff"/>
      <path id="Trazado_767275" data-name="Trazado 767275" d="M148.813,171.624,133.7,148.054l-24.864,11.785L122.9,185.556Z" transform="translate(50.478 70.618)" fill="#d6edff"/>
      <path id="Trazado_767276" data-name="Trazado 767276" d="M59.434,162.815H50.481v69.016h67.282V222.8H59.434ZM50.481,53.147v66.714h8.953V62.18h58.329V53.147ZM218.619,222.8H160.335v9.033h67.237V162.815h-8.953ZM160.335,53.147V62.18h58.284v57.68h8.953V53.147Z" transform="translate(23.413 25.35)" fill="#fff"/>
      <path id="Trazado_767277" data-name="Trazado 767277" d="M94.983,81.829a3.2,3.2,0,1,1-3.2-3.224,3.209,3.209,0,0,1,3.2,3.224" transform="translate(41.089 37.493)" fill="#fff"/>
      <path id="Trazado_767278" data-name="Trazado 767278" d="M114.642,88.656a3.195,3.195,0,1,1-3.194-3.224,3.208,3.208,0,0,1,3.194,3.224" transform="translate(50.208 40.749)" fill="#fff"/>
      <path id="Trazado_767279" data-name="Trazado 767279" d="M90.617,105.865a3.2,3.2,0,1,1-3.2-3.224,3.209,3.209,0,0,1,3.2,3.224" transform="translate(39.064 48.957)" fill="#fff"/>
      <path id="Trazado_767280" data-name="Trazado 767280" d="M109.006,108.048a3.2,3.2,0,1,1-3.2-3.224,3.209,3.209,0,0,1,3.2,3.224" transform="translate(47.593 49.998)" fill="#fff"/>
      <path id="Trazado_767281" data-name="Trazado 767281" d="M104.084,135.174a3.2,3.2,0,1,1-3.2-3.224,3.209,3.209,0,0,1,3.2,3.224" transform="translate(45.31 62.937)" fill="#fff"/>
      <path id="Trazado_767282" data-name="Trazado 767282" d="M126.218,135.174a3.2,3.2,0,1,1-3.2-3.224,3.209,3.209,0,0,1,3.2,3.224" transform="translate(55.576 62.937)" fill="#fff"/>
      <path id="Trazado_767283" data-name="Trazado 767283" d="M115.179,124.3a3.2,3.2,0,1,1-3.2-3.224,3.209,3.209,0,0,1,3.2,3.224" transform="translate(50.456 57.749)" fill="#fff"/>
      <path id="Trazado_767284" data-name="Trazado 767284" d="M92.8,80.788l28.778,10.083-8.251,28.642,9.036,24-16.241,16.064-19.713-43.29,6.391-35.5,20.527,38.725" transform="translate(40.076 38.534)" fill="none" stroke="#fff" stroke-miterlimit="10" stroke-width="1"/>
      <path id="Trazado_767285" data-name="Trazado 767285" d="M128.741,81.829a3.2,3.2,0,1,0,3.2-3.224,3.209,3.209,0,0,0-3.2,3.224" transform="translate(59.71 37.493)" fill="#fff"/>
      <path id="Trazado_767286" data-name="Trazado 767286" d="M133.108,105.865a3.2,3.2,0,1,0,3.2-3.224,3.209,3.209,0,0,0-3.2,3.224" transform="translate(61.735 48.957)" fill="#fff"/>
      <path id="Trazado_767287" data-name="Trazado 767287" d="M114.719,108.048a3.2,3.2,0,1,0,3.2-3.224,3.209,3.209,0,0,0-3.2,3.224" transform="translate(53.206 49.998)" fill="#fff"/>
      <path id="Trazado_767288" data-name="Trazado 767288" d="M140.291,80.788l6.391,35.5-19.713,43.29-16.241-16.064,9.036-24-8.251-28.642,28.778-10.083-20.527,38.725" transform="translate(51.356 38.534)" fill="none" stroke="#fff" stroke-miterlimit="10" stroke-width="1"/>
      <path id="Trazado_767289" data-name="Trazado 767289" d="M428.111,318.755a61.925,61.925,0,0,1-22.939,48.26,60.266,60.266,0,0,1-32.549,13.229c-1.593.149-3.2.227-4.828.245-.212.006-.424.006-.637.006h-.029c-.218,0-.444,0-.662-.006-1.61-.012-3.2-.1-4.781-.239a60.242,60.242,0,0,1-32.6-13.241,61.918,61.918,0,0,1-22.935-48.254c0-34.093,27.3-61.735,60.977-61.735s60.982,27.642,60.982,61.735" transform="translate(141.993 122.592)" fill="#5573c6"/>
      <path id="Trazado_767290" data-name="Trazado 767290" d="M328.694,302.37,356.676,324.6l27.461-40.352" transform="translate(152.448 135.577)" fill="none" stroke="#fff" stroke-miterlimit="10" stroke-width="7"/>
      <path id="Trazado_767291" data-name="Trazado 767291" d="M114.341,270.6a47.233,47.233,0,0,1-17.5,36.808,45.971,45.971,0,0,1-24.825,10.089c-1.215.114-2.439.173-3.681.188-.162,0-.325,0-.486,0H67.83c-.165,0-.337,0-.5,0-1.23-.01-2.445-.074-3.646-.183a45.956,45.956,0,0,1-24.864-10.1,47.223,47.223,0,0,1-17.491-36.8c0-26,20.821-47.085,46.5-47.085s46.511,21.082,46.511,47.085" transform="translate(9.891 106.61)" fill="#5573c6"/>
      <path id="Trazado_767292" data-name="Trazado 767292" d="M59.43,240.965l-19.987,6.607v18.8c0,13.042,10.794,20.743,19.987,23.615,9.191-2.873,19.988-10.574,19.988-23.615v-18.8Z" transform="translate(18.294 114.934)" fill="#fff"/>
      <path id="Trazado_767293" data-name="Trazado 767293" d="M59.079,256.992v-2.486a4.09,4.09,0,1,0-8.18,0v2.486H49.089V268.83H60.823V256.992Zm-5.89-2.486a1.8,1.8,0,1,1,3.6,0v2.486h-3.6Z" transform="translate(22.767 119.425)" fill="#12263f"/>
      <path id="Trazado_767294" data-name="Trazado 767294" d="M427.261,124.575a61.921,61.921,0,0,1-22.941,48.26,60.256,60.256,0,0,1-32.547,13.229c-1.593.149-3.2.227-4.828.245-.212.006-.425.006-.637.006h-.029c-.22,0-.444,0-.662-.006-1.612-.012-3.2-.1-4.781-.239a60.242,60.242,0,0,1-32.6-13.241A61.918,61.918,0,0,1,305.3,124.575c0-34.093,27.3-61.735,60.977-61.735s60.982,27.642,60.982,61.735" transform="translate(141.599 29.973)" fill="#4adbd1"/>
      <path id="Trazado_767295" data-name="Trazado 767295" d="M385.077,105.717a25.163,25.163,0,1,1-25.161-25.388A25.276,25.276,0,0,1,385.077,105.717Z" transform="translate(155.258 38.315)" fill="none" stroke="#fff" stroke-miterlimit="10" stroke-width="7"/>
      <line id="Línea_3521" data-name="Línea 3521" y1="21.421" x2="21.229" transform="translate(476.838 163.716)" fill="none" stroke="#fff" stroke-linecap="round" stroke-miterlimit="10" stroke-width="7"/>
      <path id="Trazado_767296" data-name="Trazado 767296" d="M213.408,320.191a61.921,61.921,0,0,1-22.941,48.26A60.256,60.256,0,0,1,157.92,381.68c-1.593.149-3.2.228-4.828.245-.212.006-.424.006-.637.006h-.029c-.218,0-.444,0-.662-.006-1.612-.012-3.2-.1-4.781-.239a60.242,60.242,0,0,1-32.6-13.241,61.913,61.913,0,0,1-22.935-48.254c0-34.093,27.3-61.735,60.977-61.735s60.982,27.642,60.982,61.735" transform="translate(42.414 123.277)" fill="#4adbd1"/>
      <rect id="Rectángulo_361942" data-name="Rectángulo 361942" width="37.511" height="37.849" transform="translate(176.088 433.269)" fill="#fff"/>
      <path id="Trazado_767297" data-name="Trazado 767297" d="M136.166,281.537h0a9.488,9.488,0,0,0-9.417,9.5V305.7a9.417,9.417,0,1,0,18.833,0V291.038A9.487,9.487,0,0,0,136.166,281.537Z" transform="translate(58.786 134.286)" fill="none" stroke="#fff" stroke-miterlimit="10" stroke-width="5"/>
      <path id="Trazado_767298" data-name="Trazado 767298" d="M137.91,305.5a3.591,3.591,0,1,1-3.591-3.623,3.606,3.606,0,0,1,3.591,3.623" transform="translate(60.632 143.989)" fill="#99d2ff"/>
      <path id="Trazado_767299" data-name="Trazado 767299" d="M133.549,313.174h0a1.4,1.4,0,0,1-1.391-1.4v-6.134a1.391,1.391,0,1,1,2.781,0v6.134a1.4,1.4,0,0,1-1.391,1.4" transform="translate(61.295 145.112)" fill="#99d2ff"/>
    </g>
  </g>
</svg>
